<?xml version="1.0" standalone="no"?>
<!DOCTYPE svg PUBLIC "-//W3C//DTD SVG 20010904//EN"
 "http://www.w3.org/TR/2001/REC-SVG-20010904/DTD/svg10.dtd">
<svg version="1.0" xmlns="http://www.w3.org/2000/svg"
 width="512.000000pt" height="512.000000pt" viewBox="0 0 512.000000 512.000000"
 preserveAspectRatio="xMidYMid meet">

<g transform="translate(0.000000,512.000000) scale(0.100000,-0.100000)"
fill="#000000" stroke="none">
<path d="M2320 4999 c-413 -46 -784 -180 -1120 -404 -585 -391 -957 -983
-1067 -1695 -25 -160 -25 -520 0 -680 151 -977 820 -1746 1756 -2015 781 -224
1629 -41 2256 488 569 479 892 1214 862 1957 -33 800 -432 1510 -1096 1951
-303 201 -633 328 -1001 384 -126 19 -470 28 -590 14z m528 -314 c866 -121
1572 -749 1787 -1591 54 -208 68 -342 62 -589 -5 -228 -21 -340 -76 -536 -107
-379 -342 -751 -639 -1012 -330 -289 -719 -467 -1145 -523 -155 -20 -496 -15
-632 11 -252 46 -452 115 -658 227 -607 329 -1017 917 -1111 1596 -21 148 -21
436 0 584 128 919 839 1659 1748 1818 158 27 152 27 363 29 125 0 230 -4 301
-14z"/>
<path d="M2968 3605 c-107 -27 -186 -73 -279 -165 -70 -70 -94 -102 -127 -170
-88 -182 -123 -390 -123 -730 -1 -384 43 -584 166 -771 123 -184 295 -269 545
-269 208 0 327 44 451 169 123 124 199 297 233 533 35 243 29 588 -15 801 -67
329 -233 530 -495 597 -92 24 -268 26 -356 5z m289 -373 c22 -11 56 -39 77
-63 89 -98 124 -241 133 -534 15 -524 -90 -778 -322 -777 -152 1 -250 110
-298 328 -18 87 -21 131 -21 359 0 338 24 478 102 593 74 109 218 150 329 94z"/>
<path d="M1357 3549 c-69 -37 -107 -123 -87 -199 22 -81 98 -139 185 -140 34
-1 56 -15 73 -47 9 -16 12 -215 12 -748 0 -779 -2 -751 49 -809 74 -84 231
-70 297 26 l29 41 3 904 c3 993 6 945 -58 978 -23 12 -71 15 -247 15 -197 -1
-222 -3 -256 -21z"/>
</g>
</svg>
