<svg xmlns="http://www.w3.org/2000/svg" xmlns:xlink="http://www.w3.org/1999/xlink" width="2000" zoomAndPan="magnify" viewBox="0 0 1500 1124.99995" height="1500" preserveAspectRatio="xMidYMid meet" version="1.0"><defs><g/><clipPath id="3314e207aa"><path d="M 683 558 L 802 558 L 802 667 L 683 667 Z M 683 558 " clip-rule="nonzero"/></clipPath><clipPath id="9df755cf5f"><path d="M 784.542969 712.839844 L 584.9375 576.898438 L 716.65625 383.492188 L 916.261719 519.433594 Z M 784.542969 712.839844 " clip-rule="nonzero"/></clipPath><clipPath id="a7badf4e17"><path d="M 784.542969 712.839844 L 584.9375 576.898438 L 716.65625 383.492188 L 916.261719 519.433594 Z M 784.542969 712.839844 " clip-rule="nonzero"/></clipPath><clipPath id="3d290a7594"><path d="M 633 554 L 739 554 L 739 635 L 633 635 Z M 633 554 " clip-rule="nonzero"/></clipPath><clipPath id="bc754e0606"><path d="M 784.542969 712.839844 L 584.9375 576.898438 L 716.65625 383.492188 L 916.261719 519.433594 Z M 784.542969 712.839844 " clip-rule="nonzero"/></clipPath><clipPath id="c39e639285"><path d="M 784.542969 712.839844 L 584.9375 576.898438 L 716.65625 383.492188 L 916.261719 519.433594 Z M 784.542969 712.839844 " clip-rule="nonzero"/></clipPath><clipPath id="c13f9822f6"><path d="M 630 441 L 746 441 L 746 554 L 630 554 Z M 630 441 " clip-rule="nonzero"/></clipPath><clipPath id="3590e6ca17"><path d="M 784.542969 712.839844 L 584.9375 576.898438 L 716.65625 383.492188 L 916.261719 519.433594 Z M 784.542969 712.839844 " clip-rule="nonzero"/></clipPath><clipPath id="3bc9161273"><path d="M 784.542969 712.839844 L 584.9375 576.898438 L 716.65625 383.492188 L 916.261719 519.433594 Z M 784.542969 712.839844 " clip-rule="nonzero"/></clipPath><clipPath id="465656ab6d"><path d="M 709 429 L 823 429 L 823 534 L 709 534 Z M 709 429 " clip-rule="nonzero"/></clipPath><clipPath id="d858b78a78"><path d="M 784.542969 712.839844 L 584.9375 576.898438 L 716.65625 383.492188 L 916.261719 519.433594 Z M 784.542969 712.839844 " clip-rule="nonzero"/></clipPath><clipPath id="b0df2c9221"><path d="M 784.542969 712.839844 L 584.9375 576.898438 L 716.65625 383.492188 L 916.261719 519.433594 Z M 784.542969 712.839844 " clip-rule="nonzero"/></clipPath><clipPath id="7348fcf9e7"><path d="M 765 540 L 871 540 L 871 650 L 765 650 Z M 765 540 " clip-rule="nonzero"/></clipPath><clipPath id="42dc9f139b"><path d="M 784.542969 712.839844 L 584.9375 576.898438 L 716.65625 383.492188 L 916.261719 519.433594 Z M 784.542969 712.839844 " clip-rule="nonzero"/></clipPath><clipPath id="9fd93d43c1"><path d="M 784.542969 712.839844 L 584.9375 576.898438 L 716.65625 383.492188 L 916.261719 519.433594 Z M 784.542969 712.839844 " clip-rule="nonzero"/></clipPath><clipPath id="2d93fc72b6"><path d="M 772 465 L 868 465 L 868 539 L 772 539 Z M 772 465 " clip-rule="nonzero"/></clipPath><clipPath id="2a54c6eddf"><path d="M 784.542969 712.839844 L 584.9375 576.898438 L 716.65625 383.492188 L 916.261719 519.433594 Z M 784.542969 712.839844 " clip-rule="nonzero"/></clipPath><clipPath id="68159b504d"><path d="M 784.542969 712.839844 L 584.9375 576.898438 L 716.65625 383.492188 L 916.261719 519.433594 Z M 784.542969 712.839844 " clip-rule="nonzero"/></clipPath><clipPath id="a3e3820f14"><path d="M 356.703125 167.328125 L 1144.179688 167.328125 L 1144.179688 954.804688 L 356.703125 954.804688 Z M 356.703125 167.328125 " clip-rule="nonzero"/></clipPath><clipPath id="7b86da18d5"><path d="M 750.441406 167.328125 C 532.984375 167.328125 356.703125 343.609375 356.703125 561.066406 C 356.703125 778.519531 532.984375 954.804688 750.441406 954.804688 C 967.894531 954.804688 1144.179688 778.519531 1144.179688 561.066406 C 1144.179688 343.609375 967.894531 167.328125 750.441406 167.328125 Z M 750.441406 167.328125 " clip-rule="nonzero"/></clipPath><clipPath id="0dc025cf74"><path d="M 735.609375 548.109375 L 764.390625 548.109375 L 764.390625 576.890625 L 735.609375 576.890625 Z M 735.609375 548.109375 " clip-rule="nonzero"/></clipPath><clipPath id="b9bdfe8caa"><path d="M 750 548.109375 C 742.050781 548.109375 735.609375 554.550781 735.609375 562.5 C 735.609375 570.449219 742.050781 576.890625 750 576.890625 C 757.949219 576.890625 764.390625 570.449219 764.390625 562.5 C 764.390625 554.550781 757.949219 548.109375 750 548.109375 Z M 750 548.109375 " clip-rule="nonzero"/></clipPath><clipPath id="c7bfad0d95"><path d="M 488.289062 848.003906 L 517.070312 848.003906 L 517.070312 876.785156 L 488.289062 876.785156 Z M 488.289062 848.003906 " clip-rule="nonzero"/></clipPath><clipPath id="3bf82e2f32"><path d="M 502.679688 848.003906 C 494.730469 848.003906 488.289062 854.445312 488.289062 862.394531 C 488.289062 870.34375 494.730469 876.785156 502.679688 876.785156 C 510.628906 876.785156 517.070312 870.34375 517.070312 862.394531 C 517.070312 854.445312 510.628906 848.003906 502.679688 848.003906 Z M 502.679688 848.003906 " clip-rule="nonzero"/></clipPath><clipPath id="a92f5e6965"><path d="M 939.484375 876.785156 L 968.265625 876.785156 L 968.265625 905.570312 L 939.484375 905.570312 Z M 939.484375 876.785156 " clip-rule="nonzero"/></clipPath><clipPath id="22eee360c5"><path d="M 953.875 876.785156 C 945.925781 876.785156 939.484375 883.230469 939.484375 891.175781 C 939.484375 899.125 945.925781 905.570312 953.875 905.570312 C 961.824219 905.570312 968.265625 899.125 968.265625 891.175781 C 968.265625 883.230469 961.824219 876.785156 953.875 876.785156 Z M 953.875 876.785156 " clip-rule="nonzero"/></clipPath></defs><rect x="-150" width="1800" fill="#ffffff" y="-112.499995" height="1349.99994" fill-opacity="1"/><rect x="-150" width="1800" fill="#ffffff" y="-112.499995" height="1349.99994" fill-opacity="1"/><g clip-path="url(#3314e207aa)"><g clip-path="url(#9df755cf5f)"><g clip-path="url(#a7badf4e17)"><path fill="#1e76e9" d="M 751.707031 559.816406 L 684.074219 640.886719 C 683.078125 642.074219 683.296875 643.886719 684.574219 644.757812 L 684.597656 644.773438 C 720.25 669.054688 763.847656 672.25 800.050781 657.066406 C 801.460938 656.472656 802.070312 654.796875 801.398438 653.417969 L 756.1875 560.359375 C 755.335938 558.605469 752.953125 558.316406 751.707031 559.816406 Z M 751.707031 559.816406 " fill-opacity="1" fill-rule="nonzero"/></g></g></g><g clip-path="url(#3d290a7594)"><g clip-path="url(#bc754e0606)"><g clip-path="url(#c39e639285)"><path fill="#ffffff" d="M 735.792969 554.101562 L 635.589844 564.777344 C 634.027344 564.941406 632.917969 566.417969 633.230469 567.957031 C 638.265625 592.78125 651.226562 616.246094 671.289062 634.300781 C 672.414062 635.3125 674.171875 635.167969 675.144531 634.003906 L 738.140625 558.492188 C 739.6875 556.640625 738.191406 553.847656 735.792969 554.101562 Z M 735.792969 554.101562 " fill-opacity="1" fill-rule="nonzero"/></g></g></g><g clip-path="url(#c13f9822f6)"><g clip-path="url(#3590e6ca17)"><g clip-path="url(#3bc9161273)"><path fill="#ffffff" d="M 745.386719 538.128906 L 699.0625 442.792969 C 698.417969 441.46875 696.824219 440.886719 695.5 441.523438 C 677.886719 449.976562 662.285156 462.929688 650.59375 480.09375 C 635.886719 501.6875 629.648438 526.613281 631.054688 551.125 C 631.140625 552.648438 632.507812 553.777344 634.019531 553.613281 L 743.257812 541.976562 C 745.105469 541.777344 746.203125 539.804688 745.390625 538.132812 Z M 745.386719 538.128906 " fill-opacity="1" fill-rule="nonzero"/></g></g></g><g clip-path="url(#465656ab6d)"><g clip-path="url(#d858b78a78)"><g clip-path="url(#b0df2c9221)"><path fill="#ffffff" d="M 759.546875 532.832031 L 821.421875 458.671875 C 822.398438 457.503906 822.214844 455.746094 821.003906 454.824219 C 819.46875 453.660156 817.902344 452.519531 816.289062 451.417969 C 784.027344 429.445312 745.257812 424.75 711.351562 435.300781 C 709.792969 435.785156 709.050781 437.566406 709.761719 439.035156 L 755.070312 532.289062 C 755.921875 534.042969 758.300781 534.332031 759.546875 532.832031 Z M 759.546875 532.832031 " fill-opacity="1" fill-rule="nonzero"/></g></g></g><g clip-path="url(#7348fcf9e7)"><g clip-path="url(#42dc9f139b)"><g clip-path="url(#9fd93d43c1)"><path fill="#ffffff" d="M 765.871094 554.515625 L 811.402344 648.222656 C 812.089844 649.640625 813.847656 650.183594 815.191406 649.371094 C 828.785156 641.140625 840.824219 630 850.296875 616.097656 C 865.5 593.773438 871.671875 567.894531 869.6875 542.585938 C 869.570312 541.089844 868.214844 539.988281 866.71875 540.148438 L 768.003906 550.664062 C 766.15625 550.863281 765.054688 552.835938 765.871094 554.507812 Z M 765.871094 554.515625 " fill-opacity="1" fill-rule="nonzero"/></g></g></g><g clip-path="url(#2d93fc72b6)"><g clip-path="url(#2a54c6eddf)"><g clip-path="url(#68159b504d)"><path fill="#ffffff" d="M 775.460938 538.546875 L 864.796875 529.023438 C 866.382812 528.851562 867.496094 527.347656 867.148438 525.785156 C 862.175781 503.65625 850.867188 482.714844 833.835938 465.886719 C 832.722656 464.789062 830.894531 464.894531 829.890625 466.09375 L 773.113281 534.148438 C 771.566406 536 773.0625 538.796875 775.460938 538.539062 Z M 775.460938 538.546875 " fill-opacity="1" fill-rule="nonzero"/></g></g></g><g clip-path="url(#a3e3820f14)"><g clip-path="url(#7b86da18d5)"><path stroke-linecap="butt" transform="matrix(0.75, 0, 0, 0.75, 356.702141, 167.326254)" fill="none" stroke-linejoin="miter" d="M 524.985732 0.00249415 C 235.042999 0.00249415 0.00131198 235.044181 0.00131198 524.986914 C 0.00131198 814.924439 235.042999 1049.971335 524.985732 1049.971335 C 814.923257 1049.971335 1049.970152 814.924439 1049.970152 524.986914 C 1049.970152 235.044181 814.923257 0.00249415 524.985732 0.00249415 Z M 524.985732 0.00249415 " stroke="#000000" stroke-width="22" stroke-opacity="1" stroke-miterlimit="4"/></g></g><path stroke-linecap="butt" transform="matrix(0.47718, -0.578618, 0.578618, 0.47718, 508.074542, 848.186619)" fill="none" stroke-linejoin="miter" d="M -0.000472659 6.501044 L 479.916116 6.502919 " stroke="#cc0829" stroke-width="13" stroke-opacity="1" stroke-miterlimit="4"/><g clip-path="url(#0dc025cf74)"><g clip-path="url(#b9bdfe8caa)"><path fill="#222222" d="M 735.609375 548.109375 L 764.390625 548.109375 L 764.390625 576.890625 L 735.609375 576.890625 Z M 735.609375 548.109375 " fill-opacity="1" fill-rule="nonzero"/></g></g><g clip-path="url(#c7bfad0d95)"><g clip-path="url(#3bf82e2f32)"><path fill="#222222" d="M 488.289062 848.003906 L 517.070312 848.003906 L 517.070312 876.785156 L 488.289062 876.785156 Z M 488.289062 848.003906 " fill-opacity="1" fill-rule="nonzero"/></g></g><path stroke-linecap="butt" transform="matrix(-0.395339, -0.637344, 0.637344, -0.395339, 942.143976, 881.514216)" fill="none" stroke-linejoin="miter" d="M 0.00018369 6.497677 L 477.315059 6.500918 " stroke="#cc0829" stroke-width="13" stroke-opacity="1" stroke-miterlimit="4"/><g clip-path="url(#a92f5e6965)"><g clip-path="url(#22eee360c5)"><path fill="#222222" d="M 939.484375 876.785156 L 968.265625 876.785156 L 968.265625 905.570312 L 939.484375 905.570312 Z M 939.484375 876.785156 " fill-opacity="1" fill-rule="nonzero"/></g></g><g fill="#000000" fill-opacity="1"><g transform="translate(436.861892, 949.485202)"><g><path d="M 39.265625 0 L 35.40625 -12.671875 L 16.015625 -12.671875 L 12.15625 0 L 0 0 L 18.78125 -53.421875 L 32.578125 -53.421875 L 51.421875 0 Z M 32.71875 -22.125 C 29.144531 -33.601562 27.132812 -40.09375 26.6875 -41.59375 C 26.238281 -43.101562 25.921875 -44.289062 25.734375 -45.15625 C 24.929688 -42.050781 22.632812 -34.375 18.84375 -22.125 Z M 32.71875 -22.125 "/></g></g></g><g fill="#000000" fill-opacity="1"><g transform="translate(979.881933, 963.876584)"><g><path d="M 6.703125 -53.203125 L 23.25 -53.203125 C 30.800781 -53.203125 36.28125 -52.128906 39.6875 -49.984375 C 43.09375 -47.835938 44.796875 -44.421875 44.796875 -39.734375 C 44.796875 -36.554688 44.050781 -33.945312 42.5625 -31.90625 C 41.070312 -29.875 39.085938 -28.648438 36.609375 -28.234375 L 36.609375 -27.875 C 39.984375 -27.125 42.414062 -25.71875 43.90625 -23.65625 C 45.394531 -21.59375 46.140625 -18.851562 46.140625 -15.4375 C 46.140625 -10.582031 44.382812 -6.796875 40.875 -4.078125 C 37.375 -1.359375 32.617188 0 26.609375 0 L 6.703125 0 Z M 17.984375 -32.140625 L 24.53125 -32.140625 C 27.582031 -32.140625 29.789062 -32.609375 31.15625 -33.546875 C 32.53125 -34.492188 33.21875 -36.0625 33.21875 -38.25 C 33.21875 -40.289062 32.472656 -41.753906 30.984375 -42.640625 C 29.492188 -43.523438 27.132812 -43.96875 23.90625 -43.96875 L 17.984375 -43.96875 Z M 17.984375 -23.1875 L 17.984375 -9.3125 L 25.328125 -9.3125 C 28.429688 -9.3125 30.722656 -9.90625 32.203125 -11.09375 C 33.679688 -12.289062 34.421875 -14.113281 34.421875 -16.5625 C 34.421875 -20.976562 31.269531 -23.1875 24.96875 -23.1875 Z M 17.984375 -23.1875 "/></g></g></g><g fill="#000000" fill-opacity="1"><g transform="translate(720.338179, 531.937726)"><g><path d="M 54.984375 -26.671875 C 54.984375 -17.867188 52.800781 -11.097656 48.4375 -6.359375 C 44.070312 -1.628906 37.8125 0.734375 29.65625 0.734375 C 21.507812 0.734375 15.25 -1.628906 10.875 -6.359375 C 6.507812 -11.097656 4.328125 -17.894531 4.328125 -26.75 C 4.328125 -35.601562 6.515625 -42.363281 10.890625 -47.03125 C 15.273438 -51.707031 21.554688 -54.046875 29.734375 -54.046875 C 37.910156 -54.046875 44.160156 -51.691406 48.484375 -46.984375 C 52.816406 -42.273438 54.984375 -35.503906 54.984375 -26.671875 Z M 16.15625 -26.671875 C 16.15625 -20.734375 17.28125 -16.257812 19.53125 -13.25 C 21.789062 -10.238281 25.164062 -8.734375 29.65625 -8.734375 C 38.65625 -8.734375 43.15625 -14.710938 43.15625 -26.671875 C 43.15625 -38.660156 38.679688 -44.65625 29.734375 -44.65625 C 25.242188 -44.65625 21.859375 -43.144531 19.578125 -40.125 C 17.296875 -37.101562 16.15625 -32.617188 16.15625 -26.671875 Z M 16.15625 -26.671875 "/></g></g></g></svg>