<svg xmlns="http://www.w3.org/2000/svg" xmlns:xlink="http://www.w3.org/1999/xlink" width="2000" zoomAndPan="magnify" viewBox="0 0 1500 1124.99995" height="1500" preserveAspectRatio="xMidYMid meet" version="1.0"><defs><g/><clipPath id="20fa37e7ac"><path d="M 463.171875 432.40625 L 498.058594 432.40625 L 498.058594 467.292969 L 463.171875 467.292969 Z M 463.171875 432.40625 " clip-rule="nonzero"/></clipPath><clipPath id="d68c42bf15"><path d="M 480.617188 432.40625 C 470.984375 432.40625 463.171875 440.21875 463.171875 449.851562 C 463.171875 459.484375 470.984375 467.292969 480.617188 467.292969 C 490.25 467.292969 498.058594 459.484375 498.058594 449.851562 C 498.058594 440.21875 490.25 432.40625 480.617188 432.40625 Z M 480.617188 432.40625 " clip-rule="nonzero"/></clipPath><clipPath id="e0cb9cfda7"><path d="M 463.171875 661.625 L 498.058594 661.625 L 498.058594 696.511719 L 463.171875 696.511719 Z M 463.171875 661.625 " clip-rule="nonzero"/></clipPath><clipPath id="c0b6530d37"><path d="M 480.617188 661.625 C 470.984375 661.625 463.171875 669.4375 463.171875 679.070312 C 463.171875 688.703125 470.984375 696.511719 480.617188 696.511719 C 490.25 696.511719 498.058594 688.703125 498.058594 679.070312 C 498.058594 669.4375 490.25 661.625 480.617188 661.625 Z M 480.617188 661.625 " clip-rule="nonzero"/></clipPath><clipPath id="fdd3f0675d"><path d="M 794.363281 661.625 L 829.25 661.625 L 829.25 696.511719 L 794.363281 696.511719 Z M 794.363281 661.625 " clip-rule="nonzero"/></clipPath><clipPath id="1128c6b843"><path d="M 811.808594 661.625 C 802.171875 661.625 794.363281 669.4375 794.363281 679.070312 C 794.363281 688.703125 802.171875 696.511719 811.808594 696.511719 C 821.441406 696.511719 829.25 688.703125 829.25 679.070312 C 829.25 669.4375 821.441406 661.625 811.808594 661.625 Z M 811.808594 661.625 " clip-rule="nonzero"/></clipPath><clipPath id="f27183429f"><path d="M 463.171875 898.65625 L 498.058594 898.65625 L 498.058594 933.542969 L 463.171875 933.542969 Z M 463.171875 898.65625 " clip-rule="nonzero"/></clipPath><clipPath id="ac67820644"><path d="M 480.617188 898.65625 C 470.984375 898.65625 463.171875 906.464844 463.171875 916.097656 C 463.171875 925.730469 470.984375 933.542969 480.617188 933.542969 C 490.25 933.542969 498.058594 925.730469 498.058594 916.097656 C 498.058594 906.464844 490.25 898.65625 480.617188 898.65625 Z M 480.617188 898.65625 " clip-rule="nonzero"/></clipPath><clipPath id="19fc8d9d73"><path d="M 1119.003906 661.625 L 1153.890625 661.625 L 1153.890625 696.511719 L 1119.003906 696.511719 Z M 1119.003906 661.625 " clip-rule="nonzero"/></clipPath><clipPath id="4affadbfcf"><path d="M 1136.449219 661.625 C 1126.816406 661.625 1119.003906 669.4375 1119.003906 679.070312 C 1119.003906 688.703125 1126.816406 696.511719 1136.449219 696.511719 C 1146.082031 696.511719 1153.890625 688.703125 1153.890625 679.070312 C 1153.890625 669.4375 1146.082031 661.625 1136.449219 661.625 Z M 1136.449219 661.625 " clip-rule="nonzero"/></clipPath><clipPath id="b182f26489"><path d="M 794.363281 898.65625 L 829.25 898.65625 L 829.25 933.542969 L 794.363281 933.542969 Z M 794.363281 898.65625 " clip-rule="nonzero"/></clipPath><clipPath id="2fa3ae6f85"><path d="M 811.808594 898.65625 C 802.171875 898.65625 794.363281 906.464844 794.363281 916.097656 C 794.363281 925.730469 802.171875 933.542969 811.808594 933.542969 C 821.441406 933.542969 829.25 925.730469 829.25 916.097656 C 829.25 906.464844 821.441406 898.65625 811.808594 898.65625 Z M 811.808594 898.65625 " clip-rule="nonzero"/></clipPath><clipPath id="65a4bef491"><path d="M 1119.003906 432.40625 L 1153.890625 432.40625 L 1153.890625 467.292969 L 1119.003906 467.292969 Z M 1119.003906 432.40625 " clip-rule="nonzero"/></clipPath><clipPath id="c7595373d9"><path d="M 1136.449219 432.40625 C 1126.816406 432.40625 1119.003906 440.21875 1119.003906 449.851562 C 1119.003906 459.484375 1126.816406 467.292969 1136.449219 467.292969 C 1146.082031 467.292969 1153.890625 459.484375 1153.890625 449.851562 C 1153.890625 440.21875 1146.082031 432.40625 1136.449219 432.40625 Z M 1136.449219 432.40625 " clip-rule="nonzero"/></clipPath><clipPath id="fcb27e5f2a"><path d="M 948.914062 661.625 L 983.800781 661.625 L 983.800781 696.511719 L 948.914062 696.511719 Z M 948.914062 661.625 " clip-rule="nonzero"/></clipPath><clipPath id="edc91ed3c0"><path d="M 966.359375 661.625 C 956.722656 661.625 948.914062 669.4375 948.914062 679.070312 C 948.914062 688.703125 956.722656 696.511719 966.359375 696.511719 C 975.992188 696.511719 983.800781 688.703125 983.800781 679.070312 C 983.800781 669.4375 975.992188 661.625 966.359375 661.625 Z M 966.359375 661.625 " clip-rule="nonzero"/></clipPath><clipPath id="6bfa28cd14"><path d="M 626.949219 661.625 L 661.835938 661.625 L 661.835938 696.511719 L 626.949219 696.511719 Z M 626.949219 661.625 " clip-rule="nonzero"/></clipPath><clipPath id="97d74f7884"><path d="M 644.390625 661.625 C 634.757812 661.625 626.949219 669.4375 626.949219 679.070312 C 626.949219 688.703125 634.757812 696.511719 644.390625 696.511719 C 654.027344 696.511719 661.835938 688.703125 661.835938 679.070312 C 661.835938 669.4375 654.027344 661.625 644.390625 661.625 Z M 644.390625 661.625 " clip-rule="nonzero"/></clipPath></defs><rect x="-150" width="1800" fill="#ffffff" y="-112.499995" height="1349.99994" fill-opacity="1"/><rect x="-150" width="1800" fill="#ffffff" y="-112.499995" height="1349.99994" fill-opacity="1"/><path stroke-linecap="round" transform="matrix(0.75, 0, 0, 0.75, 106.016669, 674.569146)" fill="none" stroke-linejoin="miter" d="M 5.998609 6.001556 L 1708.290422 6.001556 " stroke="#000000" stroke-width="12" stroke-opacity="1" stroke-miterlimit="4"/><path stroke-linecap="round" transform="matrix(0.75, 0, 0, 0.75, 106.016669, 674.569146)" fill="none" stroke-linejoin="round" d="M 1687.29042 -11.998446 L 1711.290422 6.001556 L 1687.29042 24.001558 " stroke="#000000" stroke-width="12" stroke-opacity="1" stroke-miterlimit="4"/><path stroke-linecap="round" transform="matrix(0, -0.75, 0.75, 0, 476.115808, 1046.637538)" fill="none" stroke-linejoin="miter" d="M 6.001093 6.001839 L 1179.141819 6.001839 " stroke="#000000" stroke-width="12" stroke-opacity="1" stroke-miterlimit="4"/><path stroke-linecap="round" transform="matrix(0, -0.75, 0.75, 0, 476.115808, 1046.637538)" fill="none" stroke-linejoin="round" d="M 1158.141817 -11.998162 L 1182.141819 6.001839 L 1158.141817 24.001841 " stroke="#000000" stroke-width="12" stroke-opacity="1" stroke-miterlimit="4"/><g clip-path="url(#20fa37e7ac)"><g clip-path="url(#d68c42bf15)"><path fill="#1e76e9" d="M 463.171875 432.40625 L 498.058594 432.40625 L 498.058594 467.292969 L 463.171875 467.292969 Z M 463.171875 432.40625 " fill-opacity="1" fill-rule="nonzero"/></g></g><g clip-path="url(#e0cb9cfda7)"><g clip-path="url(#c0b6530d37)"><path fill="#1e76e9" d="M 463.171875 661.625 L 498.058594 661.625 L 498.058594 696.511719 L 463.171875 696.511719 Z M 463.171875 661.625 " fill-opacity="1" fill-rule="nonzero"/></g></g><g clip-path="url(#fdd3f0675d)"><g clip-path="url(#1128c6b843)"><path fill="#1e76e9" d="M 794.363281 661.625 L 829.25 661.625 L 829.25 696.511719 L 794.363281 696.511719 Z M 794.363281 661.625 " fill-opacity="1" fill-rule="nonzero"/></g></g><g clip-path="url(#f27183429f)"><g clip-path="url(#ac67820644)"><path fill="#1e76e9" d="M 463.171875 898.65625 L 498.058594 898.65625 L 498.058594 933.542969 L 463.171875 933.542969 Z M 463.171875 898.65625 " fill-opacity="1" fill-rule="nonzero"/></g></g><g clip-path="url(#19fc8d9d73)"><g clip-path="url(#4affadbfcf)"><path fill="#1e76e9" d="M 1119.003906 661.625 L 1153.890625 661.625 L 1153.890625 696.511719 L 1119.003906 696.511719 Z M 1119.003906 661.625 " fill-opacity="1" fill-rule="nonzero"/></g></g><g fill="#1e76e9" fill-opacity="1"><g transform="translate(366.622648, 178.495211)"><g><path d="M -0.109375 -60.5625 L 21.921875 -60.5625 L 32.171875 -25.8125 C 32.671875 -24 33.007812 -21.8125 33.1875 -19.25 L 33.625 -19.25 C 33.90625 -21.707031 34.332031 -23.859375 34.90625 -25.703125 L 45.4375 -60.5625 L 66.765625 -60.5625 L 42.8125 3.84375 C 39.75 12.039062 35.976562 17.832031 31.5 21.21875 C 27.03125 24.601562 21.195312 26.296875 14 26.296875 C 11.21875 26.296875 8.367188 25.992188 5.453125 25.390625 L 5.453125 8.984375 C 7.335938 9.410156 9.492188 9.625 11.921875 9.625 C 13.773438 9.625 15.394531 9.265625 16.78125 8.546875 C 18.175781 7.835938 19.390625 6.832031 20.421875 5.53125 C 21.453125 4.226562 22.554688 2.097656 23.734375 -0.859375 Z M -0.109375 -60.5625 "/></g></g></g><g fill="#1e76e9" fill-opacity="1"><g transform="translate(1270.128428, 804.969223)"><g><path d="M 20.046875 -30.890625 L 1.546875 -60.5625 L 25.28125 -60.5625 L 34.46875 -43.5625 L 43.890625 -60.5625 L 67.671875 -60.5625 L 48.6875 -30.890625 L 68.421875 0 L 44.6875 0 L 34.46875 -18.390625 L 24.328125 0 L 0.53125 0 Z M 20.046875 -30.890625 "/></g></g></g><g fill="#000000" fill-opacity="1"><g transform="translate(409.75807, 746.530544)"><g><path d="M 33.78125 -21.828125 C 33.78125 -14.085938 32.484375 -8.414062 29.890625 -4.8125 C 27.296875 -1.207031 23.320312 0.59375 17.96875 0.59375 C 12.738281 0.59375 8.796875 -1.285156 6.140625 -5.046875 C 3.484375 -8.804688 2.15625 -14.398438 2.15625 -21.828125 C 2.15625 -29.617188 3.453125 -35.328125 6.046875 -38.953125 C 8.640625 -42.585938 12.613281 -44.40625 17.96875 -44.40625 C 23.175781 -44.40625 27.113281 -42.515625 29.78125 -38.734375 C 32.445312 -34.953125 33.78125 -29.316406 33.78125 -21.828125 Z M 13.921875 -21.828125 C 13.921875 -16.878906 14.226562 -13.472656 14.84375 -11.609375 C 15.46875 -9.753906 16.507812 -8.828125 17.96875 -8.828125 C 19.445312 -8.828125 20.488281 -9.785156 21.09375 -11.703125 C 21.707031 -13.617188 22.015625 -16.992188 22.015625 -21.828125 C 22.015625 -26.679688 21.703125 -30.082031 21.078125 -32.03125 C 20.460938 -33.976562 19.425781 -34.953125 17.96875 -34.953125 C 16.507812 -34.953125 15.46875 -34.007812 14.84375 -32.125 C 14.226562 -30.25 13.921875 -26.816406 13.921875 -21.828125 Z M 13.921875 -21.828125 "/></g></g></g><g fill="#000000" fill-opacity="1"><g transform="translate(400.008397, 467.583065)"><g><path d="M 28.203125 0 L 16.203125 0 L 16.203125 -23.171875 C 16.203125 -25.992188 16.257812 -28.570312 16.375 -30.90625 C 15.632812 -30.007812 14.71875 -29.070312 13.625 -28.09375 L 8.65625 -23.984375 L 2.515625 -31.53125 L 17.546875 -43.78125 L 28.203125 -43.78125 Z M 28.203125 0 "/></g></g></g><g fill="#000000" fill-opacity="1"><g transform="translate(390.25878, 939.026943)"><g><path d="M 1.28125 -11.765625 L 1.28125 -21.109375 L 18.203125 -21.109375 L 18.203125 -11.765625 Z M 1.28125 -11.765625 "/></g></g></g><g fill="#000000" fill-opacity="1"><g transform="translate(409.748361, 939.026943)"><g><path d="M 28.203125 0 L 16.203125 0 L 16.203125 -23.171875 C 16.203125 -25.992188 16.257812 -28.570312 16.375 -30.90625 C 15.632812 -30.007812 14.71875 -29.070312 13.625 -28.09375 L 8.65625 -23.984375 L 2.515625 -31.53125 L 17.546875 -43.78125 L 28.203125 -43.78125 Z M 28.203125 0 "/></g></g></g><g clip-path="url(#b182f26489)"><g clip-path="url(#2fa3ae6f85)"><path fill="#1e76e9" d="M 794.363281 898.65625 L 829.25 898.65625 L 829.25 933.542969 L 794.363281 933.542969 Z M 794.363281 898.65625 " fill-opacity="1" fill-rule="nonzero"/></g></g><g clip-path="url(#65a4bef491)"><g clip-path="url(#c7595373d9)"><path fill="#1e76e9" d="M 1119.003906 432.40625 L 1153.890625 432.40625 L 1153.890625 467.292969 L 1119.003906 467.292969 Z M 1119.003906 432.40625 " fill-opacity="1" fill-rule="nonzero"/></g></g><g clip-path="url(#fcb27e5f2a)"><g clip-path="url(#edc91ed3c0)"><path fill="#1e76e9" d="M 948.914062 661.625 L 983.800781 661.625 L 983.800781 696.511719 L 948.914062 696.511719 Z M 948.914062 661.625 " fill-opacity="1" fill-rule="nonzero"/></g></g><g clip-path="url(#6bfa28cd14)"><g clip-path="url(#97d74f7884)"><path fill="#1e76e9" d="M 626.949219 661.625 L 661.835938 661.625 L 661.835938 696.511719 L 626.949219 696.511719 Z M 626.949219 661.625 " fill-opacity="1" fill-rule="nonzero"/></g></g><g fill="#000000" fill-opacity="1"><g transform="translate(623.745268, 737.446785)"><g><path d="M 35.328125 -7.28125 C 35.898438 -7.28125 36.550781 -7.359375 37.28125 -7.515625 C 38.019531 -7.679688 38.675781 -7.898438 39.25 -8.171875 L 39.25 -1.34375 C 38.394531 -0.800781 37.25 -0.359375 35.8125 -0.015625 C 34.382812 0.328125 32.972656 0.5 31.578125 0.5 C 28.648438 0.5 26.488281 -0.269531 25.09375 -1.8125 C 23.695312 -3.363281 23 -5.734375 23 -8.921875 L 23 -21.359375 L 16.609375 -21.359375 L 16.609375 0 L 6.6875 0 L 6.6875 -21.359375 L 0.578125 -21.359375 L 0.578125 -25.5625 L 5.65625 -28.734375 L 39.25 -28.734375 L 39.25 -21.359375 L 32.921875 -21.359375 L 32.921875 -10.015625 C 32.921875 -9.148438 33.128906 -8.476562 33.546875 -8 C 33.972656 -7.519531 34.566406 -7.28125 35.328125 -7.28125 Z M 35.328125 -7.28125 "/></g></g></g><g fill="#000000" fill-opacity="1"><g transform="translate(631.405827, 743.02256)"><g><path d="M 26.0625 9.609375 L -0.09375 9.609375 L -0.09375 3.375 L 26.0625 3.375 Z M 26.0625 9.609375 "/></g></g></g><g fill="#000000" fill-opacity="1"><g transform="translate(629.173275, 799.19146)"><g><path d="M 28.453125 0 L 1.546875 0 L 1.546875 -6.59375 L 10.59375 -15.75 C 13.1875 -18.457031 14.878906 -20.300781 15.671875 -21.28125 C 16.460938 -22.269531 17.015625 -23.117188 17.328125 -23.828125 C 17.640625 -24.546875 17.796875 -25.289062 17.796875 -26.0625 C 17.796875 -27.03125 17.484375 -27.789062 16.859375 -28.34375 C 16.234375 -28.90625 15.359375 -29.1875 14.234375 -29.1875 C 13.066406 -29.1875 11.882812 -28.851562 10.6875 -28.1875 C 9.5 -27.519531 8.148438 -26.535156 6.640625 -25.234375 L 1.140625 -31.671875 C 3.046875 -33.378906 4.648438 -34.597656 5.953125 -35.328125 C 7.253906 -36.066406 8.671875 -36.628906 10.203125 -37.015625 C 11.734375 -37.410156 13.457031 -37.609375 15.375 -37.609375 C 17.769531 -37.609375 19.910156 -37.1875 21.796875 -36.34375 C 23.679688 -35.5 25.144531 -34.289062 26.1875 -32.71875 C 27.226562 -31.15625 27.75 -29.40625 27.75 -27.46875 C 27.75 -26.007812 27.566406 -24.660156 27.203125 -23.421875 C 26.835938 -22.191406 26.273438 -20.976562 25.515625 -19.78125 C 24.753906 -18.59375 23.742188 -17.335938 22.484375 -16.015625 C 21.222656 -14.703125 18.539062 -12.203125 14.4375 -8.515625 L 14.4375 -8.265625 L 28.453125 -8.265625 Z M 28.453125 0 "/></g></g></g><g fill="#000000" fill-opacity="1"><g transform="translate(820.040699, 650.17492)"><g><path d="M 35.328125 -7.28125 C 35.898438 -7.28125 36.550781 -7.359375 37.28125 -7.515625 C 38.019531 -7.679688 38.675781 -7.898438 39.25 -8.171875 L 39.25 -1.34375 C 38.394531 -0.800781 37.25 -0.359375 35.8125 -0.015625 C 34.382812 0.328125 32.972656 0.5 31.578125 0.5 C 28.648438 0.5 26.488281 -0.269531 25.09375 -1.8125 C 23.695312 -3.363281 23 -5.734375 23 -8.921875 L 23 -21.359375 L 16.609375 -21.359375 L 16.609375 0 L 6.6875 0 L 6.6875 -21.359375 L 0.578125 -21.359375 L 0.578125 -25.5625 L 5.65625 -28.734375 L 39.25 -28.734375 L 39.25 -21.359375 L 32.921875 -21.359375 L 32.921875 -10.015625 C 32.921875 -9.148438 33.128906 -8.476562 33.546875 -8 C 33.972656 -7.519531 34.566406 -7.28125 35.328125 -7.28125 Z M 35.328125 -7.28125 "/></g></g></g><g fill="#000000" fill-opacity="1"><g transform="translate(929.380033, 743.02256)"><g><path d="M 27.21875 -29.03125 C 27.21875 -26.738281 26.515625 -24.765625 25.109375 -23.109375 C 23.703125 -21.460938 21.671875 -20.269531 19.015625 -19.53125 L 19.015625 -19.375 C 25.203125 -18.59375 28.296875 -15.664062 28.296875 -10.59375 C 28.296875 -7.144531 26.929688 -4.429688 24.203125 -2.453125 C 21.472656 -0.484375 17.679688 0.5 12.828125 0.5 C 10.835938 0.5 8.992188 0.351562 7.296875 0.0625 C 5.597656 -0.21875 3.757812 -0.738281 1.78125 -1.5 L 1.78125 -9.8125 C 3.394531 -8.988281 5.039062 -8.375 6.71875 -7.96875 C 8.40625 -7.570312 9.960938 -7.375 11.390625 -7.375 C 13.585938 -7.375 15.1875 -7.679688 16.1875 -8.296875 C 17.195312 -8.921875 17.703125 -9.890625 17.703125 -11.203125 C 17.703125 -12.222656 17.4375 -13.003906 16.90625 -13.546875 C 16.382812 -14.097656 15.539062 -14.515625 14.375 -14.796875 C 13.207031 -15.078125 11.6875 -15.21875 9.8125 -15.21875 L 7.53125 -15.21875 L 7.53125 -22.75 L 9.859375 -22.75 C 14.953125 -22.75 17.5 -24.050781 17.5 -26.65625 C 17.5 -27.632812 17.117188 -28.359375 16.359375 -28.828125 C 15.609375 -29.304688 14.601562 -29.546875 13.34375 -29.546875 C 10.96875 -29.546875 8.515625 -28.75 5.984375 -27.15625 L 1.828125 -33.859375 C 3.785156 -35.210938 5.789062 -36.175781 7.84375 -36.75 C 9.90625 -37.320312 12.257812 -37.609375 14.90625 -37.609375 C 18.75 -37.609375 21.757812 -36.847656 23.9375 -35.328125 C 26.125 -33.804688 27.21875 -31.707031 27.21875 -29.03125 Z M 27.21875 -29.03125 "/></g></g></g><g fill="#000000" fill-opacity="1"><g transform="translate(931.612561, 748.598816)"><g><path d="M 26.0625 9.609375 L -0.09375 9.609375 L -0.09375 3.375 L 26.0625 3.375 Z M 26.0625 9.609375 "/></g></g></g><g fill="#000000" fill-opacity="1"><g transform="translate(929.380033, 804.767235)"><g><path d="M 28.453125 0 L 1.546875 0 L 1.546875 -6.59375 L 10.59375 -15.75 C 13.1875 -18.457031 14.878906 -20.300781 15.671875 -21.28125 C 16.460938 -22.269531 17.015625 -23.117188 17.328125 -23.828125 C 17.640625 -24.546875 17.796875 -25.289062 17.796875 -26.0625 C 17.796875 -27.03125 17.484375 -27.789062 16.859375 -28.34375 C 16.234375 -28.90625 15.359375 -29.1875 14.234375 -29.1875 C 13.066406 -29.1875 11.882812 -28.851562 10.6875 -28.1875 C 9.5 -27.519531 8.148438 -26.535156 6.640625 -25.234375 L 1.140625 -31.671875 C 3.046875 -33.378906 4.648438 -34.597656 5.953125 -35.328125 C 7.253906 -36.066406 8.671875 -36.628906 10.203125 -37.015625 C 11.734375 -37.410156 13.457031 -37.609375 15.375 -37.609375 C 17.769531 -37.609375 19.910156 -37.1875 21.796875 -36.34375 C 23.679688 -35.5 25.144531 -34.289062 26.1875 -32.71875 C 27.226562 -31.15625 27.75 -29.40625 27.75 -27.46875 C 27.75 -26.007812 27.566406 -24.660156 27.203125 -23.421875 C 26.835938 -22.191406 26.273438 -20.976562 25.515625 -19.78125 C 24.753906 -18.59375 23.742188 -17.335938 22.484375 -16.015625 C 21.222656 -14.703125 18.539062 -12.203125 14.4375 -8.515625 L 14.4375 -8.265625 L 28.453125 -8.265625 Z M 28.453125 0 "/></g></g></g><g fill="#000000" fill-opacity="1"><g transform="translate(962.041654, 765.41523)"><g><path d="M 35.328125 -7.28125 C 35.898438 -7.28125 36.550781 -7.359375 37.28125 -7.515625 C 38.019531 -7.679688 38.675781 -7.898438 39.25 -8.171875 L 39.25 -1.34375 C 38.394531 -0.800781 37.25 -0.359375 35.8125 -0.015625 C 34.382812 0.328125 32.972656 0.5 31.578125 0.5 C 28.648438 0.5 26.488281 -0.269531 25.09375 -1.8125 C 23.695312 -3.363281 23 -5.734375 23 -8.921875 L 23 -21.359375 L 16.609375 -21.359375 L 16.609375 0 L 6.6875 0 L 6.6875 -21.359375 L 0.578125 -21.359375 L 0.578125 -25.5625 L 5.65625 -28.734375 L 39.25 -28.734375 L 39.25 -21.359375 L 32.921875 -21.359375 L 32.921875 -10.015625 C 32.921875 -9.148438 33.128906 -8.476562 33.546875 -8 C 33.972656 -7.519531 34.566406 -7.28125 35.328125 -7.28125 Z M 35.328125 -7.28125 "/></g></g></g><g fill="#000000" fill-opacity="1"><g transform="translate(1100.582051, 650.17492)"><g><path d="M 28.453125 0 L 1.546875 0 L 1.546875 -6.59375 L 10.59375 -15.75 C 13.1875 -18.457031 14.878906 -20.300781 15.671875 -21.28125 C 16.460938 -22.269531 17.015625 -23.117188 17.328125 -23.828125 C 17.640625 -24.546875 17.796875 -25.289062 17.796875 -26.0625 C 17.796875 -27.03125 17.484375 -27.789062 16.859375 -28.34375 C 16.234375 -28.90625 15.359375 -29.1875 14.234375 -29.1875 C 13.066406 -29.1875 11.882812 -28.851562 10.6875 -28.1875 C 9.5 -27.519531 8.148438 -26.535156 6.640625 -25.234375 L 1.140625 -31.671875 C 3.046875 -33.378906 4.648438 -34.597656 5.953125 -35.328125 C 7.253906 -36.066406 8.671875 -36.628906 10.203125 -37.015625 C 11.734375 -37.410156 13.457031 -37.609375 15.375 -37.609375 C 17.769531 -37.609375 19.910156 -37.1875 21.796875 -36.34375 C 23.679688 -35.5 25.144531 -34.289062 26.1875 -32.71875 C 27.226562 -31.15625 27.75 -29.40625 27.75 -27.46875 C 27.75 -26.007812 27.566406 -24.660156 27.203125 -23.421875 C 26.835938 -22.191406 26.273438 -20.976562 25.515625 -19.78125 C 24.753906 -18.59375 23.742188 -17.335938 22.484375 -16.015625 C 21.222656 -14.703125 18.539062 -12.203125 14.4375 -8.515625 L 14.4375 -8.265625 L 28.453125 -8.265625 Z M 28.453125 0 "/></g></g></g><g fill="#000000" fill-opacity="1"><g transform="translate(1131.011609, 650.17492)"><g><path d="M 35.328125 -7.28125 C 35.898438 -7.28125 36.550781 -7.359375 37.28125 -7.515625 C 38.019531 -7.679688 38.675781 -7.898438 39.25 -8.171875 L 39.25 -1.34375 C 38.394531 -0.800781 37.25 -0.359375 35.8125 -0.015625 C 34.382812 0.328125 32.972656 0.5 31.578125 0.5 C 28.648438 0.5 26.488281 -0.269531 25.09375 -1.8125 C 23.695312 -3.363281 23 -5.734375 23 -8.921875 L 23 -21.359375 L 16.609375 -21.359375 L 16.609375 0 L 6.6875 0 L 6.6875 -21.359375 L 0.578125 -21.359375 L 0.578125 -25.5625 L 5.65625 -28.734375 L 39.25 -28.734375 L 39.25 -21.359375 L 32.921875 -21.359375 L 32.921875 -10.015625 C 32.921875 -9.148438 33.128906 -8.476562 33.546875 -8 C 33.972656 -7.519531 34.566406 -7.28125 35.328125 -7.28125 Z M 35.328125 -7.28125 "/></g></g></g></svg>