<svg xmlns="http://www.w3.org/2000/svg" xmlns:xlink="http://www.w3.org/1999/xlink" width="2000" zoomAndPan="magnify" viewBox="0 0 1500 1124.99995" height="1500" preserveAspectRatio="xMidYMid meet" version="1.0"><defs><g/><clipPath id="2bff3251d2"><path d="M 736 637 L 826 637 L 826 687 L 736 687 Z M 736 637 " clip-rule="nonzero"/></clipPath><clipPath id="eda6a19738"><path d="M 743.484375 710.285156 L 729.246094 660.996094 L 811.269531 637.300781 L 825.507812 686.59375 Z M 743.484375 710.285156 " clip-rule="nonzero"/></clipPath><clipPath id="71a688b50d"><path d="M 736.367188 685.640625 L 811.128906 637.34375 L 825.367188 686.632812 Z M 736.367188 685.640625 " clip-rule="nonzero"/></clipPath><clipPath id="d934911016"><path d="M 507.648438 444.171875 L 982.9375 444.171875 L 982.9375 919.460938 L 507.648438 919.460938 Z M 507.648438 444.171875 " clip-rule="nonzero"/></clipPath><clipPath id="253d570821"><path d="M 745.292969 444.171875 C 614.046875 444.171875 507.648438 550.570312 507.648438 681.816406 C 507.648438 813.066406 614.046875 919.460938 745.292969 919.460938 C 876.542969 919.460938 982.9375 813.066406 982.9375 681.816406 C 982.9375 550.570312 876.542969 444.171875 745.292969 444.171875 Z M 745.292969 444.171875 " clip-rule="nonzero"/></clipPath><clipPath id="d2f1507713"><path d="M 920.789062 529.277344 L 945.097656 529.277344 L 945.097656 553.582031 L 920.789062 553.582031 Z M 920.789062 529.277344 " clip-rule="nonzero"/></clipPath><clipPath id="bed35ee7a0"><path d="M 932.941406 529.277344 C 926.230469 529.277344 920.789062 534.71875 920.789062 541.429688 C 920.789062 548.144531 926.230469 553.582031 932.941406 553.582031 C 939.65625 553.582031 945.097656 548.144531 945.097656 541.429688 C 945.097656 534.71875 939.65625 529.277344 932.941406 529.277344 Z M 932.941406 529.277344 " clip-rule="nonzero"/></clipPath></defs><rect x="-150" width="1800" fill="#ffffff" y="-112.499995" height="1349.99994" fill-opacity="1"/><rect x="-150" width="1800" fill="#ffffff" y="-112.499995" height="1349.99994" fill-opacity="1"/><g clip-path="url(#2bff3251d2)"><g clip-path="url(#eda6a19738)"><g clip-path="url(#71a688b50d)"><path fill="#00ff4e" d="M 743.484375 710.285156 L 729.246094 660.996094 L 811.078125 637.359375 L 825.316406 686.648438 Z M 743.484375 710.285156 " fill-opacity="1" fill-rule="nonzero"/></g></g></g><path stroke-linecap="round" transform="matrix(0.75, 0, 0, 0.75, 259.723986, 681.822929)" fill="none" stroke-linejoin="miter" d="M 4.998227 5.00172 L 1403.362931 5.00172 " stroke="#000000" stroke-width="10" stroke-opacity="1" stroke-miterlimit="4"/><path stroke-linecap="round" transform="matrix(0.75, 0, 0, 0.75, 259.723986, 681.822929)" fill="none" stroke-linejoin="round" d="M 1385.862929 -9.998282 L 1405.862931 5.00172 L 1385.862929 20.001721 " stroke="#000000" stroke-width="10" stroke-opacity="1" stroke-miterlimit="4"/><path stroke-linecap="round" transform="matrix(-0.00312497, -0.749993, 0.749993, -0.00312497, 743.420585, 1012.496149)" fill="none" stroke-linejoin="miter" d="M 5.00011 5.001764 L 1192.510549 5.001764 " stroke="#000000" stroke-width="10" stroke-opacity="1" stroke-miterlimit="4"/><path stroke-linecap="round" transform="matrix(-0.00312497, -0.749993, 0.749993, -0.00312497, 743.420585, 1012.496149)" fill="none" stroke-linejoin="round" d="M 1175.010395 -9.998368 L 1195.010571 5.001764 L 1175.010395 20.001895 " stroke="#000000" stroke-width="10" stroke-opacity="1" stroke-miterlimit="4"/><g clip-path="url(#d934911016)"><g clip-path="url(#253d570821)"><path stroke-linecap="butt" transform="matrix(0.75, 0, 0, 0.75, 507.649214, 444.17279)" fill="none" stroke-linejoin="miter" d="M 316.858367 -0.00121967 C 141.863561 -0.00121967 -0.00103483 141.863376 -0.00103483 316.858183 C -0.00103483 491.858198 141.863561 633.717585 316.858367 633.717585 C 491.858383 633.717585 633.71777 491.858198 633.71777 316.858183 C 633.71777 141.863376 491.858383 -0.00121967 316.858367 -0.00121967 Z M 316.858367 -0.00121967 " stroke="#222222" stroke-width="20" stroke-opacity="1" stroke-miterlimit="4"/></g></g><g fill="#1e76e9" fill-opacity="1"><g transform="translate(668.134776, 197.965461)"><g><path d="M -0.078125 -48.53125 L 17.5625 -48.53125 L 25.796875 -20.6875 C 26.191406 -19.226562 26.460938 -17.472656 26.609375 -15.421875 L 26.953125 -15.421875 C 27.171875 -17.390625 27.507812 -19.117188 27.96875 -20.609375 L 36.40625 -48.53125 L 53.5 -48.53125 L 34.3125 3.078125 C 31.851562 9.648438 28.832031 14.289062 25.25 17 C 21.664062 19.71875 16.988281 21.078125 11.21875 21.078125 C 8.988281 21.078125 6.707031 20.832031 4.375 20.34375 L 4.375 7.203125 C 5.882812 7.546875 7.609375 7.71875 9.546875 7.71875 C 11.035156 7.71875 12.335938 7.429688 13.453125 6.859375 C 14.566406 6.285156 15.535156 5.476562 16.359375 4.4375 C 17.191406 3.394531 18.078125 1.6875 19.015625 -0.6875 Z M -0.078125 -48.53125 "/></g></g></g><g fill="#1e76e9" fill-opacity="1"><g transform="translate(1226.489568, 752.712278)"><g><path d="M 16.0625 -24.765625 L 1.25 -48.53125 L 20.265625 -48.53125 L 27.625 -34.90625 L 35.171875 -48.53125 L 54.234375 -48.53125 L 39.03125 -24.765625 L 54.828125 0 L 35.8125 0 L 27.625 -14.734375 L 19.484375 0 L 0.421875 0 Z M 16.0625 -24.765625 "/></g></g></g><g fill="#000000" fill-opacity="1"><g transform="translate(763.72192, 419.200139)"><g><path d="M 25.828125 0 L 14.828125 0 L 14.828125 -21.21875 C 14.828125 -23.789062 14.882812 -26.148438 15 -28.296875 C 14.320312 -27.472656 13.476562 -26.613281 12.46875 -25.71875 L 7.921875 -21.953125 L 2.296875 -28.859375 L 16.0625 -40.078125 L 25.828125 -40.078125 Z M 25.828125 0 "/></g></g></g><g fill="#000000" fill-opacity="1"><g transform="translate(996.540764, 655.5959)"><g><path d="M 25.828125 0 L 14.828125 0 L 14.828125 -21.21875 C 14.828125 -23.789062 14.882812 -26.148438 15 -28.296875 C 14.320312 -27.472656 13.476562 -26.613281 12.46875 -25.71875 L 7.921875 -21.953125 L 2.296875 -28.859375 L 16.0625 -40.078125 L 25.828125 -40.078125 Z M 25.828125 0 "/></g></g></g><g fill="#000000" fill-opacity="1"><g transform="translate(763.72192, 974.608264)"><g><path d="M 1.171875 -10.765625 L 1.171875 -19.328125 L 16.671875 -19.328125 L 16.671875 -10.765625 Z M 1.171875 -10.765625 "/></g></g></g><g fill="#000000" fill-opacity="1"><g transform="translate(781.568647, 974.608264)"><g><path d="M 25.828125 0 L 14.828125 0 L 14.828125 -21.21875 C 14.828125 -23.789062 14.882812 -26.148438 15 -28.296875 C 14.320312 -27.472656 13.476562 -26.613281 12.46875 -25.71875 L 7.921875 -21.953125 L 2.296875 -28.859375 L 16.0625 -40.078125 L 25.828125 -40.078125 Z M 25.828125 0 "/></g></g></g><g fill="#000000" fill-opacity="1"><g transform="translate(443.401195, 655.5959)"><g><path d="M 1.171875 -10.765625 L 1.171875 -19.328125 L 16.671875 -19.328125 L 16.671875 -10.765625 Z M 1.171875 -10.765625 "/></g></g></g><g fill="#000000" fill-opacity="1"><g transform="translate(461.247923, 655.5959)"><g><path d="M 25.828125 0 L 14.828125 0 L 14.828125 -21.21875 C 14.828125 -23.789062 14.882812 -26.148438 15 -28.296875 C 14.320312 -27.472656 13.476562 -26.613281 12.46875 -25.71875 L 7.921875 -21.953125 L 2.296875 -28.859375 L 16.0625 -40.078125 L 25.828125 -40.078125 Z M 25.828125 0 "/></g></g></g><g fill="#000000" fill-opacity="1"><g transform="translate(760.687168, 744.949568)"><g><path d="M 33.78125 -21.828125 C 33.78125 -14.085938 32.484375 -8.414062 29.890625 -4.8125 C 27.296875 -1.207031 23.320312 0.59375 17.96875 0.59375 C 12.738281 0.59375 8.796875 -1.285156 6.140625 -5.046875 C 3.484375 -8.804688 2.15625 -14.398438 2.15625 -21.828125 C 2.15625 -29.617188 3.453125 -35.328125 6.046875 -38.953125 C 8.640625 -42.585938 12.613281 -44.40625 17.96875 -44.40625 C 23.175781 -44.40625 27.113281 -42.515625 29.78125 -38.734375 C 32.445312 -34.953125 33.78125 -29.316406 33.78125 -21.828125 Z M 13.921875 -21.828125 C 13.921875 -16.878906 14.226562 -13.472656 14.84375 -11.609375 C 15.46875 -9.753906 16.507812 -8.828125 17.96875 -8.828125 C 19.445312 -8.828125 20.488281 -9.785156 21.09375 -11.703125 C 21.707031 -13.617188 22.015625 -16.992188 22.015625 -21.828125 C 22.015625 -26.679688 21.703125 -30.082031 21.078125 -32.03125 C 20.460938 -33.976562 19.425781 -34.953125 17.96875 -34.953125 C 16.507812 -34.953125 15.46875 -34.007812 14.84375 -32.125 C 14.226562 -30.25 13.921875 -26.816406 13.921875 -21.828125 Z M 13.921875 -21.828125 "/></g></g></g><g fill="#000000" fill-opacity="1"><g transform="translate(945.096336, 529.79559)"><g><path d="M 33.421875 -27.328125 C 33.421875 -22.847656 32.097656 -19.390625 29.453125 -16.953125 C 26.816406 -14.515625 23.066406 -13.296875 18.203125 -13.296875 L 15.15625 -13.296875 L 15.15625 0 L 4.328125 0 L 4.328125 -40.078125 L 18.203125 -40.078125 C 23.265625 -40.078125 27.066406 -38.96875 29.609375 -36.75 C 32.148438 -34.539062 33.421875 -31.398438 33.421875 -27.328125 Z M 15.15625 -22.125 L 17.125 -22.125 C 18.757812 -22.125 20.054688 -22.578125 21.015625 -23.484375 C 21.972656 -24.398438 22.453125 -25.664062 22.453125 -27.28125 C 22.453125 -29.976562 20.953125 -31.328125 17.953125 -31.328125 L 15.15625 -31.328125 Z M 15.15625 -22.125 "/></g></g></g><g clip-path="url(#d2f1507713)"><g clip-path="url(#bed35ee7a0)"><path fill="#1e76e9" d="M 920.789062 529.277344 L 945.097656 529.277344 L 945.097656 553.582031 L 920.789062 553.582031 Z M 920.789062 529.277344 " fill-opacity="1" fill-rule="nonzero"/></g></g><path stroke-linecap="round" transform="matrix(0.600522, -0.449303, 0.449303, 0.600522, 742.378097, 677.916954)" fill="none" stroke-linejoin="miter" d="M 6.502398 6.499388 L 289.764067 6.500495 " stroke="#000000" stroke-width="13" stroke-opacity="1" stroke-miterlimit="4"/><g fill="#1e76e9" fill-opacity="1"><g transform="translate(833.454034, 669.966307)"><g><path d="M 13.015625 0.5 C 9.617188 0.5 6.960938 -0.796875 5.046875 -3.390625 C 3.128906 -5.992188 2.171875 -9.582031 2.171875 -14.15625 C 2.171875 -18.863281 3.179688 -22.507812 5.203125 -25.09375 C 7.234375 -27.6875 10.066406 -28.984375 13.703125 -28.984375 C 15.648438 -28.984375 17.242188 -28.632812 18.484375 -27.9375 C 19.734375 -27.25 20.753906 -26.1875 21.546875 -24.75 L 21.9375 -24.75 C 22.425781 -26.507812 23.015625 -27.785156 23.703125 -28.578125 L 31.984375 -28.578125 C 31.328125 -26.804688 30.804688 -24.863281 30.421875 -22.75 C 30.046875 -20.632812 29.859375 -18.632812 29.859375 -16.75 L 29.859375 -10.296875 C 29.859375 -8.253906 30.550781 -7.234375 31.9375 -7.234375 C 32.46875 -7.234375 32.960938 -7.316406 33.421875 -7.484375 L 33.421875 -0.15625 C 33.148438 0.0078125 32.546875 0.160156 31.609375 0.296875 C 30.679688 0.429688 29.972656 0.5 29.484375 0.5 C 27.316406 0.5 25.644531 0.171875 24.46875 -0.484375 C 23.300781 -1.140625 22.359375 -2.210938 21.640625 -3.703125 L 21.03125 -3.703125 C 19.1875 -0.898438 16.515625 0.5 13.015625 0.5 Z M 16.375 -7.140625 C 17.863281 -7.140625 18.957031 -7.640625 19.65625 -8.640625 C 20.351562 -9.640625 20.722656 -11.410156 20.765625 -13.953125 L 20.765625 -14.203125 C 20.765625 -16.703125 20.398438 -18.515625 19.671875 -19.640625 C 18.953125 -20.773438 17.816406 -21.34375 16.265625 -21.34375 C 14.921875 -21.34375 13.90625 -20.71875 13.21875 -19.46875 C 12.53125 -18.226562 12.1875 -16.4375 12.1875 -14.09375 C 12.1875 -9.457031 13.582031 -7.140625 16.375 -7.140625 Z M 16.375 -7.140625 "/></g></g></g><g fill="#000000" fill-opacity="1"><g transform="translate(984.645538, 532.017126)"><g><path d="M 1.421875 -6.8125 C 1.421875 -11.40625 2.285156 -15.710938 4.015625 -19.734375 C 5.753906 -23.765625 8.457031 -27.65625 12.125 -31.40625 L 18.875 -31.40625 C 15.25 -27.488281 12.570312 -23.472656 10.84375 -19.359375 C 9.113281 -15.253906 8.25 -10.953125 8.25 -6.453125 C 8.25 -4.367188 8.472656 -2.101562 8.921875 0.34375 C 9.378906 2.800781 9.972656 4.941406 10.703125 6.765625 L 4.578125 6.765625 C 3.640625 5.097656 2.878906 3.015625 2.296875 0.515625 C 1.710938 -1.972656 1.421875 -4.414062 1.421875 -6.8125 Z M 15.046875 -31.03125 Z M 15.046875 -31.03125 "/></g></g></g><g fill="#000000" fill-opacity="1"><g transform="translate(1000.652571, 532.017126)"><g><path d="M 10.578125 0.421875 C 7.804688 0.421875 5.640625 -0.414062 4.078125 -2.09375 C 2.523438 -3.78125 1.75 -6.160156 1.75 -9.234375 C 1.75 -12.035156 2.28125 -14.570312 3.34375 -16.84375 C 4.414062 -19.125 5.914062 -20.898438 7.84375 -22.171875 C 9.769531 -23.453125 11.960938 -24.09375 14.421875 -24.09375 C 17.140625 -24.09375 19.695312 -23.535156 22.09375 -22.421875 L 19.515625 -16.421875 C 17.660156 -17.253906 16.09375 -17.671875 14.8125 -17.671875 C 13.945312 -17.671875 13.144531 -17.335938 12.40625 -16.671875 C 11.675781 -16.003906 11.070312 -15.003906 10.59375 -13.671875 C 10.125 -12.347656 9.890625 -11.046875 9.890625 -9.765625 C 9.890625 -8.492188 10.097656 -7.5625 10.515625 -6.96875 C 10.929688 -6.375 11.59375 -6.078125 12.5 -6.078125 C 13.5 -6.078125 14.46875 -6.238281 15.40625 -6.5625 C 16.351562 -6.882812 17.351562 -7.320312 18.40625 -7.875 L 18.40625 -1.46875 C 17.289062 -0.851562 16.117188 -0.382812 14.890625 -0.0625 C 13.660156 0.257812 12.222656 0.421875 10.578125 0.421875 Z M 10.578125 0.421875 "/></g></g></g><g fill="#000000" fill-opacity="1"><g transform="translate(1022.218181, 532.017126)"><g><path d="M 10.859375 0.421875 C 7.953125 0.421875 5.707031 -0.363281 4.125 -1.9375 C 2.539062 -3.519531 1.75 -5.769531 1.75 -8.6875 C 1.75 -11.613281 2.300781 -14.257812 3.40625 -16.625 C 4.519531 -18.988281 6.078125 -20.820312 8.078125 -22.125 C 10.085938 -23.4375 12.429688 -24.09375 15.109375 -24.09375 C 18.015625 -24.09375 20.257812 -23.304688 21.84375 -21.734375 C 23.425781 -20.160156 24.21875 -17.910156 24.21875 -14.984375 C 24.21875 -12.054688 23.660156 -9.410156 22.546875 -7.046875 C 21.441406 -4.691406 19.882812 -2.859375 17.875 -1.546875 C 15.875 -0.234375 13.535156 0.421875 10.859375 0.421875 Z M 14.171875 -18.015625 C 13.023438 -18.015625 12.046875 -17.039062 11.234375 -15.09375 C 10.421875 -13.15625 10.015625 -10.929688 10.015625 -8.421875 C 10.015625 -6.566406 10.597656 -5.640625 11.765625 -5.640625 C 12.890625 -5.640625 13.867188 -6.609375 14.703125 -8.546875 C 15.546875 -10.484375 15.96875 -12.710938 15.96875 -15.234375 C 15.96875 -16.148438 15.804688 -16.84375 15.484375 -17.3125 C 15.160156 -17.78125 14.722656 -18.015625 14.171875 -18.015625 Z M 14.171875 -18.015625 "/></g></g></g><g fill="#000000" fill-opacity="1"><g transform="translate(1048.19304, 532.017126)"><g><path d="M 18.625 -8.21875 C 18.625 -5.4375 17.71875 -3.300781 15.90625 -1.8125 C 14.09375 -0.320312 11.488281 0.421875 8.09375 0.421875 C 5 0.421875 2.515625 -0.0195312 0.640625 -0.90625 L 0.640625 -7.390625 C 1.929688 -6.703125 3.125 -6.21875 4.21875 -5.9375 C 5.320312 -5.65625 6.4375 -5.515625 7.5625 -5.515625 C 8.507812 -5.515625 9.21875 -5.644531 9.6875 -5.90625 C 10.164062 -6.164062 10.40625 -6.523438 10.40625 -6.984375 C 10.40625 -7.472656 10.222656 -7.894531 9.859375 -8.25 C 9.492188 -8.601562 8.585938 -9.191406 7.140625 -10.015625 C 5.671875 -10.816406 4.597656 -11.738281 3.921875 -12.78125 C 3.242188 -13.832031 2.90625 -15.109375 2.90625 -16.609375 C 2.90625 -19.003906 3.75 -20.847656 5.4375 -22.140625 C 7.125 -23.441406 9.519531 -24.09375 12.625 -24.09375 C 14.1875 -24.09375 15.609375 -23.910156 16.890625 -23.546875 C 18.171875 -23.179688 19.414062 -22.625 20.625 -21.875 L 18.09375 -16.609375 C 17.175781 -17.210938 16.222656 -17.691406 15.234375 -18.046875 C 14.253906 -18.398438 13.410156 -18.578125 12.703125 -18.578125 C 11.640625 -18.578125 11.109375 -18.101562 11.109375 -17.15625 C 11.109375 -16.75 11.328125 -16.390625 11.765625 -16.078125 C 12.210938 -15.773438 12.929688 -15.382812 13.921875 -14.90625 C 17.054688 -13.34375 18.625 -11.113281 18.625 -8.21875 Z M 18.625 -8.21875 "/></g></g></g><g fill="#000000" fill-opacity="1"><g transform="translate(1069.675063, 532.017126)"><g><path d="M 1.421875 -6.8125 C 1.421875 -11.40625 2.285156 -15.710938 4.015625 -19.734375 C 5.753906 -23.765625 8.457031 -27.65625 12.125 -31.40625 L 18.875 -31.40625 C 15.25 -27.488281 12.570312 -23.472656 10.84375 -19.359375 C 9.113281 -15.253906 8.25 -10.953125 8.25 -6.453125 C 8.25 -4.367188 8.472656 -2.101562 8.921875 0.34375 C 9.378906 2.800781 9.972656 4.941406 10.703125 6.765625 L 4.578125 6.765625 C 3.640625 5.097656 2.878906 3.015625 2.296875 0.515625 C 1.710938 -1.972656 1.421875 -4.414062 1.421875 -6.8125 Z M 15.046875 -31.03125 Z M 15.046875 -31.03125 "/></g></g></g><g fill="#000000" fill-opacity="1"><g transform="translate(1085.682096, 532.017126)"><g><path d="M 26.140625 -21.40625 C 26.140625 -17.882812 24.941406 -15.125 22.546875 -13.125 C 20.160156 -11.132812 16.894531 -10.140625 12.75 -10.140625 L 10.953125 -10.140625 L 8.859375 0 L 0.6875 0 L 7.140625 -30.546875 L 14.9375 -30.546875 C 18.550781 -30.546875 21.320312 -29.753906 23.25 -28.171875 C 25.175781 -26.597656 26.140625 -24.34375 26.140625 -21.40625 Z M 12.40625 -16.828125 L 13.734375 -16.828125 C 14.992188 -16.828125 16.015625 -17.234375 16.796875 -18.046875 C 17.578125 -18.859375 17.96875 -19.890625 17.96875 -21.140625 C 17.96875 -21.960938 17.71875 -22.625 17.21875 -23.125 C 16.71875 -23.632812 16.03125 -23.890625 15.15625 -23.890625 L 13.921875 -23.890625 Z M 12.40625 -16.828125 "/></g></g></g><g fill="#000000" fill-opacity="1"><g transform="translate(1112.346553, 532.017126)"><g><path d="M 14.5 -17.84375 C 14.5 -13.09375 13.640625 -8.71875 11.921875 -4.71875 C 10.210938 -0.71875 7.582031 3.109375 4.03125 6.765625 L -2.78125 6.765625 C 0.789062 2.910156 3.425781 -1.066406 5.125 -5.171875 C 6.820312 -9.273438 7.671875 -13.613281 7.671875 -18.1875 C 7.671875 -20.269531 7.441406 -22.515625 6.984375 -24.921875 C 6.535156 -27.328125 5.9375 -29.488281 5.1875 -31.40625 L 11.34375 -31.40625 C 12.332031 -29.675781 13.101562 -27.597656 13.65625 -25.171875 C 14.21875 -22.753906 14.5 -20.3125 14.5 -17.84375 Z M 8.78125 -31.03125 Z M 8.78125 -31.03125 "/></g></g></g><g fill="#000000" fill-opacity="1"><g transform="translate(1128.353585, 532.017126)"><g><path d="M 9.03125 -4.96875 L 9.1875 -4.5 C 7.570312 -0.84375 5.789062 2.492188 3.84375 5.515625 L -2.171875 5.515625 C -1.429688 3.828125 -0.40625 1.128906 0.90625 -2.578125 L 1.75 -4.96875 Z M 9.03125 -4.96875 "/></g></g></g><g fill="#000000" fill-opacity="1"><g transform="translate(1141.455948, 532.017126)"><g/></g></g><g fill="#000000" fill-opacity="1"><g transform="translate(1152.573104, 532.017126)"><g><path d="M 18.625 -8.21875 C 18.625 -5.4375 17.71875 -3.300781 15.90625 -1.8125 C 14.09375 -0.320312 11.488281 0.421875 8.09375 0.421875 C 5 0.421875 2.515625 -0.0195312 0.640625 -0.90625 L 0.640625 -7.390625 C 1.929688 -6.703125 3.125 -6.21875 4.21875 -5.9375 C 5.320312 -5.65625 6.4375 -5.515625 7.5625 -5.515625 C 8.507812 -5.515625 9.21875 -5.644531 9.6875 -5.90625 C 10.164062 -6.164062 10.40625 -6.523438 10.40625 -6.984375 C 10.40625 -7.472656 10.222656 -7.894531 9.859375 -8.25 C 9.492188 -8.601562 8.585938 -9.191406 7.140625 -10.015625 C 5.671875 -10.816406 4.597656 -11.738281 3.921875 -12.78125 C 3.242188 -13.832031 2.90625 -15.109375 2.90625 -16.609375 C 2.90625 -19.003906 3.75 -20.847656 5.4375 -22.140625 C 7.125 -23.441406 9.519531 -24.09375 12.625 -24.09375 C 14.1875 -24.09375 15.609375 -23.910156 16.890625 -23.546875 C 18.171875 -23.179688 19.414062 -22.625 20.625 -21.875 L 18.09375 -16.609375 C 17.175781 -17.210938 16.222656 -17.691406 15.234375 -18.046875 C 14.253906 -18.398438 13.410156 -18.578125 12.703125 -18.578125 C 11.640625 -18.578125 11.109375 -18.101562 11.109375 -17.15625 C 11.109375 -16.75 11.328125 -16.390625 11.765625 -16.078125 C 12.210938 -15.773438 12.929688 -15.382812 13.921875 -14.90625 C 17.054688 -13.34375 18.625 -11.113281 18.625 -8.21875 Z M 18.625 -8.21875 "/></g></g></g><g fill="#000000" fill-opacity="1"><g transform="translate(1174.055127, 532.017126)"><g><path d="M 8.5625 0 L 0.484375 0 L 5.46875 -23.671875 L 13.609375 -23.671875 Z M 6.453125 -28.875 C 6.453125 -30.3125 6.863281 -31.398438 7.6875 -32.140625 C 8.519531 -32.878906 9.6875 -33.25 11.1875 -33.25 C 12.445312 -33.25 13.421875 -32.992188 14.109375 -32.484375 C 14.804688 -31.972656 15.15625 -31.242188 15.15625 -30.296875 C 15.15625 -28.898438 14.75 -27.820312 13.9375 -27.0625 C 13.125 -26.3125 11.960938 -25.9375 10.453125 -25.9375 C 7.785156 -25.9375 6.453125 -26.914062 6.453125 -28.875 Z M 6.453125 -28.875 "/></g></g></g><g fill="#000000" fill-opacity="1"><g transform="translate(1187.972469, 532.017126)"><g><path d="M 16.421875 -15.875 C 16.421875 -16.476562 16.265625 -16.925781 15.953125 -17.21875 C 15.648438 -17.519531 15.285156 -17.671875 14.859375 -17.671875 C 14.066406 -17.671875 13.332031 -17.175781 12.65625 -16.1875 C 11.976562 -15.207031 11.421875 -13.664062 10.984375 -11.5625 L 8.5625 0 L 0.484375 0 L 5.46875 -23.671875 L 11.9375 -23.671875 L 11.6875 -20.375 L 11.84375 -20.375 C 12.613281 -21.695312 13.515625 -22.644531 14.546875 -23.21875 C 15.585938 -23.800781 16.863281 -24.09375 18.375 -24.09375 C 20.332031 -24.09375 21.859375 -23.492188 22.953125 -22.296875 C 24.054688 -21.109375 24.609375 -19.460938 24.609375 -17.359375 C 24.609375 -15.890625 24.4375 -14.296875 24.09375 -12.578125 L 21.4375 0 L 13.359375 0 L 16.046875 -12.921875 C 16.296875 -14.003906 16.421875 -14.988281 16.421875 -15.875 Z M 16.421875 -15.875 "/></g></g></g><g fill="#000000" fill-opacity="1"><g transform="translate(1214.595132, 532.017126)"><g><path d="M 1.421875 -6.8125 C 1.421875 -11.40625 2.285156 -15.710938 4.015625 -19.734375 C 5.753906 -23.765625 8.457031 -27.65625 12.125 -31.40625 L 18.875 -31.40625 C 15.25 -27.488281 12.570312 -23.472656 10.84375 -19.359375 C 9.113281 -15.253906 8.25 -10.953125 8.25 -6.453125 C 8.25 -4.367188 8.472656 -2.101562 8.921875 0.34375 C 9.378906 2.800781 9.972656 4.941406 10.703125 6.765625 L 4.578125 6.765625 C 3.640625 5.097656 2.878906 3.015625 2.296875 0.515625 C 1.710938 -1.972656 1.421875 -4.414062 1.421875 -6.8125 Z M 15.046875 -31.03125 Z M 15.046875 -31.03125 "/></g></g></g><g fill="#000000" fill-opacity="1"><g transform="translate(1230.602165, 532.017126)"><g><path d="M 26.140625 -21.40625 C 26.140625 -17.882812 24.941406 -15.125 22.546875 -13.125 C 20.160156 -11.132812 16.894531 -10.140625 12.75 -10.140625 L 10.953125 -10.140625 L 8.859375 0 L 0.6875 0 L 7.140625 -30.546875 L 14.9375 -30.546875 C 18.550781 -30.546875 21.320312 -29.753906 23.25 -28.171875 C 25.175781 -26.597656 26.140625 -24.34375 26.140625 -21.40625 Z M 12.40625 -16.828125 L 13.734375 -16.828125 C 14.992188 -16.828125 16.015625 -17.234375 16.796875 -18.046875 C 17.578125 -18.859375 17.96875 -19.890625 17.96875 -21.140625 C 17.96875 -21.960938 17.71875 -22.625 17.21875 -23.125 C 16.71875 -23.632812 16.03125 -23.890625 15.15625 -23.890625 L 13.921875 -23.890625 Z M 12.40625 -16.828125 "/></g></g></g><g fill="#000000" fill-opacity="1"><g transform="translate(1257.266621, 532.017126)"><g><path d="M 14.5 -17.84375 C 14.5 -13.09375 13.640625 -8.71875 11.921875 -4.71875 C 10.210938 -0.71875 7.582031 3.109375 4.03125 6.765625 L -2.78125 6.765625 C 0.789062 2.910156 3.425781 -1.066406 5.125 -5.171875 C 6.820312 -9.273438 7.671875 -13.613281 7.671875 -18.1875 C 7.671875 -20.269531 7.441406 -22.515625 6.984375 -24.921875 C 6.535156 -27.328125 5.9375 -29.488281 5.1875 -31.40625 L 11.34375 -31.40625 C 12.332031 -29.675781 13.101562 -27.597656 13.65625 -25.171875 C 14.21875 -22.753906 14.5 -20.3125 14.5 -17.84375 Z M 8.78125 -31.03125 Z M 8.78125 -31.03125 "/></g></g></g><g fill="#000000" fill-opacity="1"><g transform="translate(1273.273654, 532.017126)"><g><path d="M 14.5 -17.84375 C 14.5 -13.09375 13.640625 -8.71875 11.921875 -4.71875 C 10.210938 -0.71875 7.582031 3.109375 4.03125 6.765625 L -2.78125 6.765625 C 0.789062 2.910156 3.425781 -1.066406 5.125 -5.171875 C 6.820312 -9.273438 7.671875 -13.613281 7.671875 -18.1875 C 7.671875 -20.269531 7.441406 -22.515625 6.984375 -24.921875 C 6.535156 -27.328125 5.9375 -29.488281 5.1875 -31.40625 L 11.34375 -31.40625 C 12.332031 -29.675781 13.101562 -27.597656 13.65625 -25.171875 C 14.21875 -22.753906 14.5 -20.3125 14.5 -17.84375 Z M 8.78125 -31.03125 Z M 8.78125 -31.03125 "/></g></g></g></svg>