<svg xmlns="http://www.w3.org/2000/svg" xmlns:xlink="http://www.w3.org/1999/xlink" width="2000" zoomAndPan="magnify" viewBox="0 0 1500 1124.99995" height="1500" preserveAspectRatio="xMidYMid meet" version="1.0"><defs><g/><clipPath id="fe004dcc31"><path d="M 735 652 L 834 652 L 834 708 L 735 708 Z M 735 652 " clip-rule="nonzero"/></clipPath><clipPath id="77a2504d4e"><path d="M 743.363281 733.644531 L 727.617188 679.132812 L 818.328125 652.929688 L 834.074219 707.441406 Z M 743.363281 733.644531 " clip-rule="nonzero"/></clipPath><clipPath id="9518b669d1"><path d="M 735.488281 706.390625 L 818.175781 652.972656 L 833.921875 707.484375 Z M 735.488281 706.390625 " clip-rule="nonzero"/></clipPath><clipPath id="068f9bee35"><path d="M 469.417969 425.335938 L 1020.457031 425.335938 L 1020.457031 976.375 L 469.417969 976.375 Z M 469.417969 425.335938 " clip-rule="nonzero"/></clipPath><clipPath id="df47a61afb"><path d="M 744.9375 425.335938 C 592.769531 425.335938 469.417969 548.6875 469.417969 700.855469 C 469.417969 853.019531 592.769531 976.375 744.9375 976.375 C 897.101562 976.375 1020.457031 853.019531 1020.457031 700.855469 C 1020.457031 548.6875 897.101562 425.335938 744.9375 425.335938 Z M 744.9375 425.335938 " clip-rule="nonzero"/></clipPath><clipPath id="c4031506d1"><path d="M 948.394531 524 L 976.574219 524 L 976.574219 552.179688 L 948.394531 552.179688 Z M 948.394531 524 " clip-rule="nonzero"/></clipPath><clipPath id="bb8ad47fdf"><path d="M 962.484375 524 C 954.703125 524 948.394531 530.308594 948.394531 538.089844 C 948.394531 545.871094 954.703125 552.179688 962.484375 552.179688 C 970.265625 552.179688 976.574219 545.871094 976.574219 538.089844 C 976.574219 530.308594 970.265625 524 962.484375 524 Z M 962.484375 524 " clip-rule="nonzero"/></clipPath></defs><rect x="-150" width="1800" fill="#ffffff" y="-112.499995" height="1349.99994" fill-opacity="1"/><rect x="-150" width="1800" fill="#ffffff" y="-112.499995" height="1349.99994" fill-opacity="1"/><g clip-path="url(#fe004dcc31)"><g clip-path="url(#77a2504d4e)"><g clip-path="url(#9518b669d1)"><path fill="#00ff4e" d="M 743.363281 733.644531 L 727.617188 679.132812 L 818.113281 652.988281 L 833.863281 707.503906 Z M 743.363281 733.644531 " fill-opacity="1" fill-rule="nonzero"/></g></g></g><g clip-path="url(#068f9bee35)"><g clip-path="url(#df47a61afb)"><path stroke-linecap="butt" transform="matrix(0.75, 0, 0, 0.75, 469.417145, 425.334783)" fill="none" stroke-linejoin="miter" d="M 367.360505 0.00153883 C 164.469863 0.00153883 0.00109845 164.470303 0.00109845 367.360945 C 0.00109845 570.24638 164.469863 734.720352 367.360505 734.720352 C 570.245939 734.720352 734.719912 570.24638 734.719912 367.360945 C 734.719912 164.470303 570.245939 0.00153883 367.360505 0.00153883 Z M 367.360505 0.00153883 " stroke="#222222" stroke-width="20" stroke-opacity="1" stroke-miterlimit="4"/></g></g><path stroke-linecap="round" transform="matrix(0.75, 0, 0, 0.75, 181.983723, 700.703584)" fill="none" stroke-linejoin="miter" d="M 6.00087 5.999389 L 1626.688509 5.999389 " stroke="#000000" stroke-width="12" stroke-opacity="1" stroke-miterlimit="4"/><path stroke-linecap="round" transform="matrix(0.75, 0, 0, 0.75, 181.983723, 700.703584)" fill="none" stroke-linejoin="round" d="M 1605.688507 -12.000613 L 1629.688509 5.999389 L 1605.688507 23.999391 " stroke="#000000" stroke-width="12" stroke-opacity="1" stroke-miterlimit="4"/><path stroke-linecap="round" transform="matrix(-0.00312497, -0.749993, 0.749993, -0.00312497, 742.610537, 1084.227079)" fill="none" stroke-linejoin="miter" d="M 6.001793 5.997468 L 1382.237828 6.002568 " stroke="#000000" stroke-width="12" stroke-opacity="1" stroke-miterlimit="4"/><path stroke-linecap="round" transform="matrix(-0.00312497, -0.749993, 0.749993, -0.00312497, 742.610537, 1084.227079)" fill="none" stroke-linejoin="round" d="M 1361.239744 -12.001748 L 1385.237867 5.999443 L 1361.235577 23.998551 " stroke="#000000" stroke-width="12" stroke-opacity="1" stroke-miterlimit="4"/><g clip-path="url(#c4031506d1)"><g clip-path="url(#bb8ad47fdf)"><path fill="#1e76e9" d="M 948.394531 524 L 976.574219 524 L 976.574219 552.179688 L 948.394531 552.179688 Z M 948.394531 524 " fill-opacity="1" fill-rule="nonzero"/></g></g><path stroke-linecap="round" transform="matrix(0.600522, -0.449303, 0.449303, 0.600522, 742.017281, 696.951472)" fill="none" stroke-linejoin="miter" d="M 6.499257 6.4981 L 336.971379 6.500606 " stroke="#000000" stroke-width="13" stroke-opacity="1" stroke-miterlimit="4"/><path stroke-linecap="round" transform="matrix(0, -0.75, 0.75, 0, 957.978359, 705.198207)" fill="none" stroke-linejoin="miter" d="M 5.998652 5.997605 L 198.029918 5.997605 " stroke="#000000" stroke-width="12" stroke-opacity="1" stroke-miterlimit="4"/><g fill="#1e76e9" fill-opacity="1"><g transform="translate(655.476769, 139.893229)"><g><path d="M -0.09375 -56.265625 L 20.359375 -56.265625 L 29.90625 -23.984375 C 30.363281 -22.296875 30.675781 -20.257812 30.84375 -17.875 L 31.234375 -17.875 C 31.503906 -20.164062 31.90625 -22.171875 32.4375 -23.890625 L 42.21875 -56.265625 L 62.03125 -56.265625 L 39.78125 3.578125 C 36.9375 11.191406 33.4375 16.570312 29.28125 19.71875 C 25.125 22.863281 19.703125 24.4375 13.015625 24.4375 C 10.429688 24.4375 7.78125 24.15625 5.0625 23.59375 L 5.0625 8.34375 C 6.820312 8.738281 8.828125 8.9375 11.078125 8.9375 C 12.796875 8.9375 14.300781 8.601562 15.59375 7.9375 C 16.882812 7.28125 18.007812 6.347656 18.96875 5.140625 C 19.925781 3.929688 20.953125 1.953125 22.046875 -0.796875 Z M -0.09375 -56.265625 "/></g></g></g><g fill="#1e76e9" fill-opacity="1"><g transform="translate(1302.808289, 783.04137)"><g><path d="M 18.625 -28.703125 L 1.4375 -56.265625 L 23.5 -56.265625 L 32.03125 -40.484375 L 40.78125 -56.265625 L 62.875 -56.265625 L 45.25 -28.703125 L 63.578125 0 L 41.515625 0 L 32.03125 -17.078125 L 22.59375 0 L 0.5 0 Z M 18.625 -28.703125 "/></g></g></g><g fill="#000000" fill-opacity="1"><g transform="translate(979.326813, 524.601924)"><g><path d="M 38.75 -31.6875 C 38.75 -26.5 37.21875 -22.488281 34.15625 -19.65625 C 31.09375 -16.832031 26.742188 -15.421875 21.109375 -15.421875 L 17.578125 -15.421875 L 17.578125 0 L 5.015625 0 L 5.015625 -46.46875 L 21.109375 -46.46875 C 26.972656 -46.46875 31.378906 -45.1875 34.328125 -42.625 C 37.273438 -40.0625 38.75 -36.414062 38.75 -31.6875 Z M 17.578125 -25.65625 L 19.859375 -25.65625 C 21.742188 -25.65625 23.242188 -26.179688 24.359375 -27.234375 C 25.472656 -28.296875 26.03125 -29.757812 26.03125 -31.625 C 26.03125 -34.757812 24.289062 -36.328125 20.8125 -36.328125 L 17.578125 -36.328125 Z M 17.578125 -25.65625 "/></g></g></g><g fill="#000000" fill-opacity="1"><g transform="translate(762.777856, 774.042155)"><g><path d="M 39.15625 -25.3125 C 39.15625 -16.332031 37.648438 -9.753906 34.640625 -5.578125 C 31.628906 -1.398438 27.023438 0.6875 20.828125 0.6875 C 14.765625 0.6875 10.191406 -1.488281 7.109375 -5.84375 C 4.035156 -10.207031 2.5 -16.695312 2.5 -25.3125 C 2.5 -34.332031 4.003906 -40.945312 7.015625 -45.15625 C 10.023438 -49.375 14.628906 -51.484375 20.828125 -51.484375 C 26.867188 -51.484375 31.429688 -49.289062 34.515625 -44.90625 C 37.609375 -40.519531 39.15625 -33.988281 39.15625 -25.3125 Z M 16.140625 -25.3125 C 16.140625 -19.570312 16.5 -15.625 17.21875 -13.46875 C 17.9375 -11.3125 19.140625 -10.234375 20.828125 -10.234375 C 22.535156 -10.234375 23.742188 -11.34375 24.453125 -13.5625 C 25.160156 -15.789062 25.515625 -19.707031 25.515625 -25.3125 C 25.515625 -30.925781 25.15625 -34.863281 24.4375 -37.125 C 23.71875 -39.382812 22.515625 -40.515625 20.828125 -40.515625 C 19.140625 -40.515625 17.9375 -39.425781 17.21875 -37.25 C 16.5 -35.070312 16.140625 -31.09375 16.140625 -25.3125 Z M 16.140625 -25.3125 "/></g></g></g><g fill="#000000" fill-opacity="1"><g transform="translate(945.096624, 756.460335)"><g><path d="M 31.265625 0 L 22.46875 0 L 22.46875 -13.203125 L 12.296875 -13.203125 L 12.296875 0 L 3.5 0 L 3.5 -32.390625 L 12.296875 -32.390625 L 12.296875 -20.390625 L 22.46875 -20.390625 L 22.46875 -32.390625 L 31.265625 -32.390625 Z M 31.265625 0 "/></g></g></g><g fill="#1e76e9" fill-opacity="1"><g transform="translate(842.866377, 689.061533)"><g><path d="M 14.390625 0.5625 C 10.640625 0.5625 7.703125 -0.875 5.578125 -3.75 C 3.460938 -6.625 2.40625 -10.59375 2.40625 -15.65625 C 2.40625 -20.863281 3.523438 -24.898438 5.765625 -27.765625 C 8.003906 -30.628906 11.132812 -32.0625 15.15625 -32.0625 C 17.3125 -32.0625 19.078125 -31.675781 20.453125 -30.90625 C 21.828125 -30.144531 22.953125 -28.96875 23.828125 -27.375 L 24.28125 -27.375 C 24.8125 -29.320312 25.460938 -30.734375 26.234375 -31.609375 L 35.375 -31.609375 C 34.65625 -29.660156 34.082031 -27.515625 33.65625 -25.171875 C 33.238281 -22.828125 33.03125 -20.613281 33.03125 -18.53125 L 33.03125 -11.390625 C 33.03125 -9.128906 33.796875 -8 35.328125 -8 C 35.921875 -8 36.46875 -8.09375 36.96875 -8.28125 L 36.96875 -0.171875 C 36.664062 0.015625 36 0.179688 34.96875 0.328125 C 33.9375 0.484375 33.148438 0.5625 32.609375 0.5625 C 30.210938 0.5625 28.367188 0.195312 27.078125 -0.53125 C 25.785156 -1.257812 24.738281 -2.445312 23.9375 -4.09375 L 23.265625 -4.09375 C 21.222656 -0.988281 18.265625 0.5625 14.390625 0.5625 Z M 18.109375 -7.890625 C 19.765625 -7.890625 20.976562 -8.441406 21.75 -9.546875 C 22.519531 -10.660156 22.925781 -12.617188 22.96875 -15.421875 L 22.96875 -15.703125 C 22.96875 -18.472656 22.566406 -20.484375 21.765625 -21.734375 C 20.960938 -22.984375 19.707031 -23.609375 18 -23.609375 C 16.507812 -23.609375 15.378906 -22.914062 14.609375 -21.53125 C 13.847656 -20.15625 13.46875 -18.175781 13.46875 -15.59375 C 13.46875 -10.457031 15.015625 -7.890625 18.109375 -7.890625 Z M 18.109375 -7.890625 "/></g></g></g><g fill="#000000" fill-opacity="1"><g transform="translate(902.633404, 683.075397)"><g><path d="M 32.6875 0 L 22.546875 0 L 16.234375 -10.125 L 10 0 L 0.09375 0 L 10.828125 -16.578125 L 0.734375 -32.390625 L 10.4375 -32.390625 L 16.28125 -22.375 L 21.90625 -32.390625 L 31.90625 -32.390625 L 21.640625 -15.890625 Z M 32.6875 0 "/></g></g></g><g fill="#000000" fill-opacity="1"><g transform="translate(937.228657, 696.337607)"><g><path d="M 16.796875 -13.734375 C 16.796875 -11.484375 16.128906 -9.742188 14.796875 -8.515625 C 13.472656 -7.296875 11.59375 -6.6875 9.15625 -6.6875 L 7.625 -6.6875 L 7.625 0 L 2.171875 0 L 2.171875 -20.140625 L 9.15625 -20.140625 C 11.695312 -20.140625 13.601562 -19.582031 14.875 -18.46875 C 16.15625 -17.363281 16.796875 -15.785156 16.796875 -13.734375 Z M 7.625 -11.125 L 8.609375 -11.125 C 9.429688 -11.125 10.082031 -11.351562 10.5625 -11.8125 C 11.039062 -12.269531 11.28125 -12.898438 11.28125 -13.703125 C 11.28125 -15.066406 10.53125 -15.75 9.03125 -15.75 L 7.625 -15.75 Z M 7.625 -11.125 "/></g></g></g><g fill="#000000" fill-opacity="1"><g transform="translate(694.14067, 521.487443)"><g><path d="M 15.0625 -20.390625 L 20.65625 -32.390625 L 30.125 -32.390625 L 19.46875 -12.65625 L 19.46875 0 L 10.65625 0 L 10.65625 -12.390625 L 0 -32.390625 L 9.53125 -32.390625 Z M 15.0625 -20.390625 "/></g></g></g><g fill="#000000" fill-opacity="1"><g transform="translate(717.432404, 532.243238)"><g><path d="M 16.796875 -13.734375 C 16.796875 -11.484375 16.128906 -9.742188 14.796875 -8.515625 C 13.472656 -7.296875 11.59375 -6.6875 9.15625 -6.6875 L 7.625 -6.6875 L 7.625 0 L 2.171875 0 L 2.171875 -20.140625 L 9.15625 -20.140625 C 11.695312 -20.140625 13.601562 -19.582031 14.875 -18.46875 C 16.15625 -17.363281 16.796875 -15.785156 16.796875 -13.734375 Z M 7.625 -11.125 L 8.609375 -11.125 C 9.429688 -11.125 10.082031 -11.351562 10.5625 -11.8125 C 11.039062 -12.269531 11.28125 -12.898438 11.28125 -13.703125 C 11.28125 -15.066406 10.53125 -15.75 9.03125 -15.75 L 7.625 -15.75 Z M 7.625 -11.125 "/></g></g></g><path stroke-linecap="round" transform="matrix(0.75, 0, 0, 0.75, 744.938057, 533.21619)" fill="none" stroke-linejoin="miter" d="M 6.499258 6.498205 L 264.775322 6.498205 " stroke="#000000" stroke-width="13" stroke-opacity="1" stroke-miterlimit="4"/><path stroke-linecap="round" transform="matrix(0.529352, -0.531306, 0.531306, 0.529352, 725.659891, 624.093214)" fill="none" stroke-linejoin="miter" d="M 5.002896 5.000242 L 61.173792 5.000625 " stroke="#cc0829" stroke-width="10" stroke-opacity="1" stroke-miterlimit="4"/><path stroke-linecap="round" transform="matrix(0.529352, -0.531306, 0.531306, 0.529352, 728.219083, 644.56562)" fill="none" stroke-linejoin="miter" d="M 5.002097 4.999912 L 61.176682 4.996619 " stroke="#cc0829" stroke-width="10" stroke-opacity="1" stroke-miterlimit="4"/><path stroke-linecap="round" transform="matrix(0.529352, -0.531306, 0.531306, 0.529352, 941.031696, 621.446422)" fill="none" stroke-linejoin="miter" d="M 5.000091 5.001697 L 61.174677 4.998404 " stroke="#cc0829" stroke-width="10" stroke-opacity="1" stroke-miterlimit="4"/><path stroke-linecap="round" transform="matrix(0.529352, -0.531306, 0.531306, 0.529352, 943.590888, 641.918829)" fill="none" stroke-linejoin="miter" d="M 4.999293 5.001367 L 61.177554 5.001764 " stroke="#cc0829" stroke-width="10" stroke-opacity="1" stroke-miterlimit="4"/></svg>