<svg xmlns="http://www.w3.org/2000/svg" xmlns:xlink="http://www.w3.org/1999/xlink" width="2000" zoomAndPan="magnify" viewBox="0 0 1500 1124.99995" height="1500" preserveAspectRatio="xMidYMid meet" version="1.0"><defs><g/><clipPath id="f222f45179"><path d="M 699 468 L 785 468 L 785 546 L 699 546 Z M 699 468 " clip-rule="nonzero"/></clipPath><clipPath id="d4dfcce444"><path d="M 712.164062 435.660156 L 854.78125 532.695312 L 761.121094 670.351562 L 618.503906 573.316406 Z M 712.164062 435.660156 " clip-rule="nonzero"/></clipPath><clipPath id="d53128ee16"><path d="M 712.164062 435.660156 L 854.78125 532.695312 L 761.121094 670.351562 L 618.503906 573.316406 Z M 712.164062 435.660156 " clip-rule="nonzero"/></clipPath><clipPath id="64e43f23a8"><path d="M 744 491 L 821 491 L 821 549 L 744 549 Z M 744 491 " clip-rule="nonzero"/></clipPath><clipPath id="ac0550c115"><path d="M 712.164062 435.660156 L 854.78125 532.695312 L 761.121094 670.351562 L 618.503906 573.316406 Z M 712.164062 435.660156 " clip-rule="nonzero"/></clipPath><clipPath id="1c27f008a8"><path d="M 712.164062 435.660156 L 854.78125 532.695312 L 761.121094 670.351562 L 618.503906 573.316406 Z M 712.164062 435.660156 " clip-rule="nonzero"/></clipPath><clipPath id="243f81aad5"><path d="M 739 549 L 822 549 L 822 630 L 739 630 Z M 739 549 " clip-rule="nonzero"/></clipPath><clipPath id="02c95cb596"><path d="M 712.164062 435.660156 L 854.78125 532.695312 L 761.121094 670.351562 L 618.503906 573.316406 Z M 712.164062 435.660156 " clip-rule="nonzero"/></clipPath><clipPath id="e56f6d22aa"><path d="M 712.164062 435.660156 L 854.78125 532.695312 L 761.121094 670.351562 L 618.503906 573.316406 Z M 712.164062 435.660156 " clip-rule="nonzero"/></clipPath><clipPath id="0213e8199c"><path d="M 685 563 L 766 563 L 766 638 L 685 638 Z M 685 563 " clip-rule="nonzero"/></clipPath><clipPath id="4980540089"><path d="M 712.164062 435.660156 L 854.78125 532.695312 L 761.121094 670.351562 L 618.503906 573.316406 Z M 712.164062 435.660156 " clip-rule="nonzero"/></clipPath><clipPath id="80d01a87a7"><path d="M 712.164062 435.660156 L 854.78125 532.695312 L 761.121094 670.351562 L 618.503906 573.316406 Z M 712.164062 435.660156 " clip-rule="nonzero"/></clipPath><clipPath id="cf87fddf28"><path d="M 651 480 L 726 480 L 726 559 L 651 559 Z M 651 480 " clip-rule="nonzero"/></clipPath><clipPath id="e8a566c475"><path d="M 712.164062 435.660156 L 854.78125 532.695312 L 761.121094 670.351562 L 618.503906 573.316406 Z M 712.164062 435.660156 " clip-rule="nonzero"/></clipPath><clipPath id="4807bc2a09"><path d="M 712.164062 435.660156 L 854.78125 532.695312 L 761.121094 670.351562 L 618.503906 573.316406 Z M 712.164062 435.660156 " clip-rule="nonzero"/></clipPath><clipPath id="84567aff5c"><path d="M 653 559 L 721 559 L 721 613 L 653 613 Z M 653 559 " clip-rule="nonzero"/></clipPath><clipPath id="ac02fcc594"><path d="M 712.164062 435.660156 L 854.78125 532.695312 L 761.121094 670.351562 L 618.503906 573.316406 Z M 712.164062 435.660156 " clip-rule="nonzero"/></clipPath><clipPath id="066958d4cc"><path d="M 712.164062 435.660156 L 854.78125 532.695312 L 761.121094 670.351562 L 618.503906 573.316406 Z M 712.164062 435.660156 " clip-rule="nonzero"/></clipPath><clipPath id="ae6cc6ee11"><path d="M 284 341 L 395 341 L 395 450 L 284 450 Z M 284 341 " clip-rule="nonzero"/></clipPath><clipPath id="3fa6578b88"><path d="M 277.722656 464.511719 L 292.15625 223.445312 L 525.738281 237.429688 L 511.304688 478.5 Z M 277.722656 464.511719 " clip-rule="nonzero"/></clipPath><clipPath id="f099350365"><path d="M 277.722656 464.511719 L 292.15625 223.445312 L 525.738281 237.429688 L 511.304688 478.5 Z M 277.722656 464.511719 " clip-rule="nonzero"/></clipPath><clipPath id="2097002a49"><path d="M 287 259 L 390 259 L 390 346 L 287 346 Z M 287 259 " clip-rule="nonzero"/></clipPath><clipPath id="c21a2f92bd"><path d="M 277.722656 464.511719 L 292.15625 223.445312 L 525.738281 237.429688 L 511.304688 478.5 Z M 277.722656 464.511719 " clip-rule="nonzero"/></clipPath><clipPath id="df81d14f45"><path d="M 277.722656 464.511719 L 292.15625 223.445312 L 525.738281 237.429688 L 511.304688 478.5 Z M 277.722656 464.511719 " clip-rule="nonzero"/></clipPath><clipPath id="6e61f37dbd"><path d="M 336 230 L 467 230 L 467 343 L 336 343 Z M 336 230 " clip-rule="nonzero"/></clipPath><clipPath id="d85dda7ed7"><path d="M 277.722656 464.511719 L 292.15625 223.445312 L 525.738281 237.429688 L 511.304688 478.5 Z M 277.722656 464.511719 " clip-rule="nonzero"/></clipPath><clipPath id="d8fb244454"><path d="M 277.722656 464.511719 L 292.15625 223.445312 L 525.738281 237.429688 L 511.304688 478.5 Z M 277.722656 464.511719 " clip-rule="nonzero"/></clipPath><clipPath id="10fdc8517c"><path d="M 417 258 L 519 258 L 519 366 L 417 366 Z M 417 258 " clip-rule="nonzero"/></clipPath><clipPath id="dc27656ff8"><path d="M 277.722656 464.511719 L 292.15625 223.445312 L 525.738281 237.429688 L 511.304688 478.5 Z M 277.722656 464.511719 " clip-rule="nonzero"/></clipPath><clipPath id="64fc5062c6"><path d="M 277.722656 464.511719 L 292.15625 223.445312 L 525.738281 237.429688 L 511.304688 478.5 Z M 277.722656 464.511719 " clip-rule="nonzero"/></clipPath><clipPath id="c69f082bd6"><path d="M 346 366 L 469 366 L 469 472 L 346 472 Z M 346 366 " clip-rule="nonzero"/></clipPath><clipPath id="df1e248aa7"><path d="M 277.722656 464.511719 L 292.15625 223.445312 L 525.738281 237.429688 L 511.304688 478.5 Z M 277.722656 464.511719 " clip-rule="nonzero"/></clipPath><clipPath id="0c723b922a"><path d="M 277.722656 464.511719 L 292.15625 223.445312 L 525.738281 237.429688 L 511.304688 478.5 Z M 277.722656 464.511719 " clip-rule="nonzero"/></clipPath><clipPath id="260a148567"><path d="M 422 363 L 516 363 L 516 441 L 422 441 Z M 422 363 " clip-rule="nonzero"/></clipPath><clipPath id="23fbe61802"><path d="M 277.722656 464.511719 L 292.15625 223.445312 L 525.738281 237.429688 L 511.304688 478.5 Z M 277.722656 464.511719 " clip-rule="nonzero"/></clipPath><clipPath id="0206497e8d"><path d="M 277.722656 464.511719 L 292.15625 223.445312 L 525.738281 237.429688 L 511.304688 478.5 Z M 277.722656 464.511719 " clip-rule="nonzero"/></clipPath><clipPath id="2f502e3437"><path d="M 735.609375 548.109375 L 764.390625 548.109375 L 764.390625 576.890625 L 735.609375 576.890625 Z M 735.609375 548.109375 " clip-rule="nonzero"/></clipPath><clipPath id="b4ec601b10"><path d="M 750 548.109375 C 742.050781 548.109375 735.609375 554.550781 735.609375 562.5 C 735.609375 570.449219 742.050781 576.890625 750 576.890625 C 757.949219 576.890625 764.390625 570.449219 764.390625 562.5 C 764.390625 554.550781 757.949219 548.109375 750 548.109375 Z M 750 548.109375 " clip-rule="nonzero"/></clipPath><clipPath id="3850f928f9"><path d="M 356.703125 167.324219 L 1144.179688 167.324219 L 1144.179688 954.800781 L 356.703125 954.800781 Z M 356.703125 167.324219 " clip-rule="nonzero"/></clipPath><clipPath id="91d0188f99"><path d="M 750.441406 167.324219 C 532.984375 167.324219 356.703125 343.609375 356.703125 561.0625 C 356.703125 778.519531 532.984375 954.800781 750.441406 954.800781 C 967.894531 954.800781 1144.179688 778.519531 1144.179688 561.0625 C 1144.179688 343.609375 967.894531 167.324219 750.441406 167.324219 Z M 750.441406 167.324219 " clip-rule="nonzero"/></clipPath><clipPath id="3b2caf3c27"><path d="M 1115.398438 456.675781 L 1144.183594 456.675781 L 1144.183594 485.457031 L 1115.398438 485.457031 Z M 1115.398438 456.675781 " clip-rule="nonzero"/></clipPath><clipPath id="918d68a506"><path d="M 1129.792969 456.675781 C 1121.84375 456.675781 1115.398438 463.117188 1115.398438 471.066406 C 1115.398438 479.015625 1121.84375 485.457031 1129.792969 485.457031 C 1137.738281 485.457031 1144.183594 479.015625 1144.183594 471.066406 C 1144.183594 463.117188 1137.738281 456.675781 1129.792969 456.675781 Z M 1129.792969 456.675781 " clip-rule="nonzero"/></clipPath><clipPath id="25da757f3c"><path d="M 840.347656 921.21875 L 869.128906 921.21875 L 869.128906 950.003906 L 840.347656 950.003906 Z M 840.347656 921.21875 " clip-rule="nonzero"/></clipPath><clipPath id="0a318cb691"><path d="M 854.738281 921.21875 C 846.789062 921.21875 840.347656 927.664062 840.347656 935.613281 C 840.347656 943.558594 846.789062 950.003906 854.738281 950.003906 C 862.6875 950.003906 869.128906 943.558594 869.128906 935.613281 C 869.128906 927.664062 862.6875 921.21875 854.738281 921.21875 Z M 854.738281 921.21875 " clip-rule="nonzero"/></clipPath><clipPath id="1f9db3be19"><path d="M 401.703125 347.265625 L 430.484375 347.265625 L 430.484375 376.046875 L 401.703125 376.046875 Z M 401.703125 347.265625 " clip-rule="nonzero"/></clipPath><clipPath id="d655468207"><path d="M 416.09375 347.265625 C 408.144531 347.265625 401.703125 353.707031 401.703125 361.65625 C 401.703125 369.605469 408.144531 376.046875 416.09375 376.046875 C 424.042969 376.046875 430.484375 369.605469 430.484375 361.65625 C 430.484375 353.707031 424.042969 347.265625 416.09375 347.265625 Z M 416.09375 347.265625 " clip-rule="nonzero"/></clipPath></defs><rect x="-150" width="1800" fill="#ffffff" y="-112.499995" height="1349.99994" fill-opacity="1"/><rect x="-150" width="1800" fill="#ffffff" y="-112.499995" height="1349.99994" fill-opacity="1"/><g clip-path="url(#f222f45179)"><g clip-path="url(#d4dfcce444)"><g clip-path="url(#d53128ee16)"><path fill="#ffffff" d="M 735.628906 544.761719 L 783.828125 486.933594 C 784.539062 486.085938 784.382812 484.792969 783.46875 484.171875 L 783.453125 484.160156 C 758.023438 466.863281 726.9375 464.59375 701.128906 475.433594 C 700.121094 475.859375 699.6875 477.054688 700.167969 478.035156 L 732.433594 544.375 C 733.042969 545.628906 734.738281 545.832031 735.628906 544.761719 Z M 735.628906 544.761719 " fill-opacity="1" fill-rule="nonzero"/></g></g></g><g clip-path="url(#64e43f23a8)"><g clip-path="url(#ac0550c115)"><g clip-path="url(#1c27f008a8)"><path fill="#ffffff" d="M 746.976562 548.832031 L 818.421875 541.1875 C 819.539062 541.070312 820.328125 540.015625 820.105469 538.917969 C 816.507812 521.21875 807.257812 504.492188 792.945312 491.625 C 792.140625 490.90625 790.890625 491.007812 790.199219 491.839844 L 745.304688 545.699219 C 744.199219 547.023438 745.269531 549.015625 746.976562 548.832031 Z M 746.976562 548.832031 " fill-opacity="1" fill-rule="nonzero"/></g></g></g><g clip-path="url(#243f81aad5)"><g clip-path="url(#02c95cb596)"><g clip-path="url(#e56f6d22aa)"><path fill="#1e76e9" d="M 740.144531 560.222656 L 773.203125 628.1875 C 773.664062 629.132812 774.800781 629.546875 775.742188 629.089844 C 788.300781 623.058594 799.421875 613.816406 807.75 601.574219 C 818.230469 586.171875 822.671875 568.398438 821.664062 550.921875 C 821.601562 549.835938 820.625 549.03125 819.546875 549.144531 L 741.660156 557.480469 C 740.339844 557.621094 739.558594 559.03125 740.140625 560.222656 Z M 740.144531 560.222656 " fill-opacity="1" fill-rule="nonzero"/></g></g></g><g clip-path="url(#0213e8199c)"><g clip-path="url(#4980540089)"><g clip-path="url(#80d01a87a7)"><path fill="#ffffff" d="M 730.046875 564.003906 L 685.953125 616.90625 C 685.257812 617.738281 685.386719 618.992188 686.25 619.648438 C 687.347656 620.476562 688.460938 621.292969 689.613281 622.074219 C 712.625 637.730469 740.269531 641.066406 764.445312 633.535156 C 765.554688 633.1875 766.082031 631.914062 765.578125 630.871094 L 733.242188 564.390625 C 732.632812 563.140625 730.9375 562.9375 730.046875 564.003906 Z M 730.046875 564.003906 " fill-opacity="1" fill-rule="nonzero"/></g></g></g><g clip-path="url(#cf87fddf28)"><g clip-path="url(#e8a566c475)"><g clip-path="url(#4807bc2a09)"><path fill="#ffffff" d="M 725.53125 548.546875 L 693.035156 481.742188 C 692.546875 480.734375 691.289062 480.347656 690.332031 480.925781 C 680.644531 486.796875 672.0625 494.746094 665.3125 504.664062 C 654.480469 520.585938 650.085938 539.039062 651.507812 557.085938 C 651.59375 558.152344 652.5625 558.9375 653.628906 558.824219 L 724.011719 551.292969 C 725.332031 551.152344 726.113281 549.742188 725.53125 548.550781 Z M 725.53125 548.546875 " fill-opacity="1" fill-rule="nonzero"/></g></g></g><g clip-path="url(#84567aff5c)"><g clip-path="url(#ac02fcc594)"><g clip-path="url(#066958d4cc)"><path fill="#ffffff" d="M 718.695312 559.9375 L 655 566.753906 C 653.871094 566.878906 653.078125 567.953125 653.324219 569.0625 C 656.878906 584.84375 664.949219 599.769531 677.097656 611.765625 C 677.890625 612.546875 679.195312 612.472656 679.910156 611.613281 L 720.375 563.070312 C 721.476562 561.75 720.410156 559.757812 718.699219 559.941406 Z M 718.695312 559.9375 " fill-opacity="1" fill-rule="nonzero"/></g></g></g><path stroke-linecap="butt" transform="matrix(0.2027, 0.722089, -0.722089, 0.2027, 758.580496, 575.046482)" fill="none" stroke-linejoin="miter" d="M -0.00103581 6.499984 L 478.325806 6.499732 " stroke="#222222" stroke-width="13" stroke-opacity="1" stroke-miterlimit="4"/><g clip-path="url(#ae6cc6ee11)"><g clip-path="url(#3fa6578b88)"><g clip-path="url(#f099350365)"><path fill="#ffffff" d="M 392.296875 357.894531 L 288.015625 341.367188 C 286.484375 341.121094 285.042969 342.234375 284.949219 343.78125 L 284.949219 343.808594 C 282.371094 386.863281 301.96875 425.941406 333.5625 449.246094 C 334.796875 450.152344 336.546875 449.816406 337.382812 448.535156 L 394.121094 362.019531 C 395.195312 360.386719 394.21875 358.199219 392.296875 357.894531 Z M 392.296875 357.894531 " fill-opacity="1" fill-rule="nonzero"/></g></g></g><g clip-path="url(#2097002a49)"><g clip-path="url(#c21a2f92bd)"><g clip-path="url(#df81d14f45)"><path fill="#ffffff" d="M 389.042969 341.300781 L 328.523438 260.726562 C 327.582031 259.46875 325.746094 259.273438 324.585938 260.332031 C 305.847656 277.378906 292.34375 300.535156 287.121094 327.015625 C 286.828125 328.5 287.855469 329.929688 289.351562 330.171875 L 386.476562 345.566406 C 388.863281 345.945312 390.492188 343.230469 389.042969 341.300781 Z M 389.042969 341.300781 " fill-opacity="1" fill-rule="nonzero"/></g></g></g><g clip-path="url(#6e61f37dbd)"><g clip-path="url(#d85dda7ed7)"><g clip-path="url(#d8fb244454)"><path fill="#ffffff" d="M 407.675781 341.351562 L 465.800781 252.714844 C 466.609375 251.484375 466.289062 249.816406 465.066406 249.007812 C 448.78125 238.214844 429.660156 231.453125 408.933594 230.214844 C 382.851562 228.652344 358.25 236.066406 337.921875 249.835938 C 336.660156 250.691406 336.390625 252.441406 337.304688 253.660156 L 403.285156 341.496094 C 404.402344 342.980469 406.660156 342.914062 407.675781 341.355469 Z M 407.675781 341.351562 " fill-opacity="1" fill-rule="nonzero"/></g></g></g><g clip-path="url(#10fdc8517c)"><g clip-path="url(#dc27656ff8)"><g clip-path="url(#64fc5062c6)"><path fill="#ffffff" d="M 419.484375 350.800781 L 514.875 365.921875 C 516.378906 366.160156 517.792969 365.101562 517.964844 363.589844 C 518.175781 361.675781 518.355469 359.746094 518.472656 357.796875 C 520.804688 318.832031 504.96875 283.136719 478.53125 259.425781 C 477.316406 258.335938 475.40625 258.617188 474.511719 259.976562 L 417.65625 346.671875 C 416.585938 348.304688 417.558594 350.496094 419.484375 350.800781 Z M 419.484375 350.800781 " fill-opacity="1" fill-rule="nonzero"/></g></g></g><g clip-path="url(#c69f082bd6)"><g clip-path="url(#df1e248aa7)"><g clip-path="url(#0c723b922a)"><path fill="#ffffff" d="M 404.105469 367.34375 L 346.972656 454.464844 C 346.109375 455.777344 346.542969 457.566406 347.929688 458.304688 C 361.960938 465.757812 377.699219 470.390625 394.492188 471.394531 C 421.453125 473.007812 446.839844 465.046875 467.554688 450.375 C 468.777344 449.507812 469.027344 447.777344 468.125 446.574219 L 408.503906 367.199219 C 407.386719 365.710938 405.128906 365.78125 404.109375 367.339844 Z M 404.105469 367.34375 " fill-opacity="1" fill-rule="nonzero"/></g></g></g><g clip-path="url(#260a148567)"><g clip-path="url(#23fbe61802)"><g clip-path="url(#0206497e8d)"><path fill="#1e76e9" d="M 422.734375 367.390625 L 476.691406 439.222656 C 477.652344 440.496094 479.515625 440.679688 480.679688 439.582031 C 497.132812 423.972656 509.320312 403.53125 515.042969 380.28125 C 515.414062 378.761719 514.386719 377.246094 512.839844 376.996094 L 425.304688 363.121094 C 422.921875 362.742188 421.289062 365.460938 422.738281 367.386719 Z M 422.734375 367.390625 " fill-opacity="1" fill-rule="nonzero"/></g></g></g><g clip-path="url(#2f502e3437)"><g clip-path="url(#b4ec601b10)"><path fill="#222222" d="M 735.609375 548.109375 L 764.390625 548.109375 L 764.390625 576.890625 L 735.609375 576.890625 Z M 735.609375 548.109375 " fill-opacity="1" fill-rule="nonzero"/></g></g><g clip-path="url(#3850f928f9)"><g clip-path="url(#91d0188f99)"><path stroke-linecap="butt" transform="matrix(0.75, 0, 0, 0.75, 356.702141, 167.326137)" fill="none" stroke-linejoin="miter" d="M 524.985732 -0.00255739 C 235.042999 -0.00255739 0.00131198 235.044338 0.00131198 524.981863 C 0.00131198 814.924596 235.042999 1049.966283 524.985732 1049.966283 C 814.923257 1049.966283 1049.970152 814.924596 1049.970152 524.981863 C 1049.970152 235.044338 814.923257 -0.00255739 524.985732 -0.00255739 Z M 524.985732 -0.00255739 " stroke="#000000" stroke-width="22" stroke-opacity="1" stroke-miterlimit="4"/></g></g><g clip-path="url(#3b2caf3c27)"><g clip-path="url(#918d68a506)"><path fill="#1e76e9" d="M 1115.398438 456.675781 L 1144.183594 456.675781 L 1144.183594 485.457031 L 1115.398438 485.457031 Z M 1115.398438 456.675781 " fill-opacity="1" fill-rule="nonzero"/></g></g><path stroke-linecap="butt" transform="matrix(-0.455415, -0.5959, 0.5959, -0.455415, 842.116305, 927.133028)" fill="none" stroke-linejoin="miter" d="M 0.00212592 6.499317 L 924.796396 6.501136 " stroke="#222222" stroke-width="13" stroke-opacity="1" stroke-miterlimit="4"/><g clip-path="url(#25da757f3c)"><g clip-path="url(#0a318cb691)"><path fill="#1e76e9" d="M 840.347656 921.21875 L 869.128906 921.21875 L 869.128906 950.003906 L 840.347656 950.003906 Z M 840.347656 921.21875 " fill-opacity="1" fill-rule="nonzero"/></g></g><g fill="#000000" fill-opacity="1"><g transform="translate(340.726058, 345.485349)"><g><path d="M 29.296875 -44.578125 C 25.046875 -44.578125 21.753906 -42.984375 19.421875 -39.796875 C 17.097656 -36.609375 15.9375 -32.160156 15.9375 -26.453125 C 15.9375 -14.585938 20.390625 -8.65625 29.296875 -8.65625 C 33.035156 -8.65625 37.5625 -9.59375 42.875 -11.46875 L 42.875 -2 C 38.5 -0.175781 33.617188 0.734375 28.234375 0.734375 C 20.492188 0.734375 14.570312 -1.613281 10.46875 -6.3125 C 6.375 -11.007812 4.328125 -17.75 4.328125 -26.53125 C 4.328125 -32.0625 5.332031 -36.90625 7.34375 -41.0625 C 9.363281 -45.226562 12.257812 -48.421875 16.03125 -50.640625 C 19.800781 -52.859375 24.222656 -53.96875 29.296875 -53.96875 C 34.460938 -53.96875 39.65625 -52.71875 44.875 -50.21875 L 41.234375 -41.046875 C 39.242188 -41.992188 37.238281 -42.816406 35.21875 -43.515625 C 33.207031 -44.222656 31.234375 -44.578125 29.296875 -44.578125 Z M 29.296875 -44.578125 "/></g></g></g><g fill="#000000" fill-opacity="1"><g transform="translate(694.463182, 536.942517)"><g><path d="M 54.984375 -26.671875 C 54.984375 -17.867188 52.800781 -11.097656 48.4375 -6.359375 C 44.070312 -1.628906 37.8125 0.734375 29.65625 0.734375 C 21.507812 0.734375 15.25 -1.628906 10.875 -6.359375 C 6.507812 -11.097656 4.328125 -17.894531 4.328125 -26.75 C 4.328125 -35.601562 6.515625 -42.363281 10.890625 -47.03125 C 15.273438 -51.707031 21.554688 -54.046875 29.734375 -54.046875 C 37.910156 -54.046875 44.160156 -51.691406 48.484375 -46.984375 C 52.816406 -42.273438 54.984375 -35.503906 54.984375 -26.671875 Z M 16.15625 -26.671875 C 16.15625 -20.734375 17.28125 -16.257812 19.53125 -13.25 C 21.789062 -10.238281 25.164062 -8.734375 29.65625 -8.734375 C 38.65625 -8.734375 43.15625 -14.710938 43.15625 -26.671875 C 43.15625 -38.660156 38.679688 -44.65625 29.734375 -44.65625 C 25.242188 -44.65625 21.859375 -43.144531 19.578125 -40.125 C 17.296875 -37.101562 16.15625 -32.617188 16.15625 -26.671875 Z M 16.15625 -26.671875 "/></g></g></g><g clip-path="url(#1f9db3be19)"><g clip-path="url(#d655468207)"><path fill="#1e76e9" d="M 401.703125 347.265625 L 430.484375 347.265625 L 430.484375 376.046875 L 401.703125 376.046875 Z M 401.703125 347.265625 " fill-opacity="1" fill-rule="nonzero"/></g></g><g fill="#000000" fill-opacity="1"><g transform="translate(1148.604198, 462.327839)"><g><path d="M 6.703125 -53.203125 L 23.25 -53.203125 C 30.800781 -53.203125 36.28125 -52.128906 39.6875 -49.984375 C 43.09375 -47.835938 44.796875 -44.421875 44.796875 -39.734375 C 44.796875 -36.554688 44.050781 -33.945312 42.5625 -31.90625 C 41.070312 -29.875 39.085938 -28.648438 36.609375 -28.234375 L 36.609375 -27.875 C 39.984375 -27.125 42.414062 -25.71875 43.90625 -23.65625 C 45.394531 -21.59375 46.140625 -18.851562 46.140625 -15.4375 C 46.140625 -10.582031 44.382812 -6.796875 40.875 -4.078125 C 37.375 -1.359375 32.617188 0 26.609375 0 L 6.703125 0 Z M 17.984375 -32.140625 L 24.53125 -32.140625 C 27.582031 -32.140625 29.789062 -32.609375 31.15625 -33.546875 C 32.53125 -34.492188 33.21875 -36.0625 33.21875 -38.25 C 33.21875 -40.289062 32.472656 -41.753906 30.984375 -42.640625 C 29.492188 -43.523438 27.132812 -43.96875 23.90625 -43.96875 L 17.984375 -43.96875 Z M 17.984375 -23.1875 L 17.984375 -9.3125 L 25.328125 -9.3125 C 28.429688 -9.3125 30.722656 -9.90625 32.203125 -11.09375 C 33.679688 -12.289062 34.421875 -14.113281 34.421875 -16.5625 C 34.421875 -20.976562 31.269531 -23.1875 24.96875 -23.1875 Z M 17.984375 -23.1875 "/></g></g></g><g fill="#000000" fill-opacity="1"><g transform="translate(868.453375, 1022.703411)"><g><path d="M 39.265625 0 L 35.40625 -12.671875 L 16.015625 -12.671875 L 12.15625 0 L 0 0 L 18.78125 -53.421875 L 32.578125 -53.421875 L 51.421875 0 Z M 32.71875 -22.125 C 29.144531 -33.601562 27.132812 -40.09375 26.6875 -41.59375 C 26.238281 -43.101562 25.921875 -44.289062 25.734375 -45.15625 C 24.929688 -42.050781 22.632812 -34.375 18.84375 -22.125 Z M 32.71875 -22.125 "/></g></g></g><path stroke-linecap="butt" transform="matrix(-0.74134, -0.113647, 0.113647, -0.74134, 1114.822785, 473.702987)" fill="none" stroke-linejoin="miter" d="M -0.00103599 6.502139 L 924.33386 6.501143 " stroke="#222222" stroke-width="13" stroke-opacity="1" stroke-miterlimit="4"/><path stroke-linecap="butt" transform="matrix(-0.726555, 0.18606, -0.18606, -0.726555, 1116.772665, 473.607371)" fill="none" stroke-linejoin="miter" d="M 0.00035906 6.50278 L 483.9528 6.498783 " stroke="#222222" stroke-width="13" stroke-opacity="1" stroke-miterlimit="4"/></svg>