<svg xmlns="http://www.w3.org/2000/svg" xmlns:xlink="http://www.w3.org/1999/xlink" width="2000" zoomAndPan="magnify" viewBox="0 0 1500 1124.99995" height="1500" preserveAspectRatio="xMidYMid meet" version="1.0"><defs><g/><clipPath id="319c00ce47"><path d="M 923 341 L 983 341 L 983 399 L 923 399 Z M 923 341 " clip-rule="nonzero"/></clipPath><clipPath id="585660f792"><path d="M 921.3125 364.4375 L 962.214844 339.320312 L 984.585938 375.75 L 943.683594 400.867188 Z M 921.3125 364.4375 " clip-rule="nonzero"/></clipPath><clipPath id="6fc1e5fc66"><path d="M 921.3125 364.4375 L 966.242188 336.847656 L 991.074219 377.285156 L 946.144531 404.875 Z M 921.3125 364.4375 " clip-rule="nonzero"/></clipPath><clipPath id="b2b04da26f"><path d="M 926.425781 361.300781 L 956.953125 342.550781 C 959.777344 340.820312 963.46875 341.703125 965.203125 344.523438 L 981.429688 370.949219 C 983.164062 373.773438 982.28125 377.46875 979.457031 379.203125 L 948.929688 397.949219 C 946.109375 399.683594 942.414062 398.796875 940.679688 395.976562 L 924.453125 369.550781 C 922.71875 366.726562 923.601562 363.03125 926.425781 361.300781 Z M 926.425781 361.300781 " clip-rule="nonzero"/></clipPath><clipPath id="e2cba257c5"><path d="M 722 298 L 783 298 L 783 359 L 722 359 Z M 722 298 " clip-rule="nonzero"/></clipPath><clipPath id="6841bf6845"><path d="M 754.148438 360.601562 L 720.207031 326.660156 L 750.4375 296.433594 L 784.378906 330.375 Z M 754.148438 360.601562 " clip-rule="nonzero"/></clipPath><clipPath id="23ecdbb158"><path d="M 754.148438 360.601562 L 716.867188 323.320312 L 750.421875 289.765625 L 787.703125 327.046875 Z M 754.148438 360.601562 " clip-rule="nonzero"/></clipPath><clipPath id="2ced6862a1"><path d="M 749.90625 356.359375 L 724.574219 331.027344 C 722.234375 328.6875 722.234375 324.886719 724.574219 322.542969 L 746.503906 300.617188 C 748.84375 298.273438 752.644531 298.273438 754.988281 300.617188 L 780.316406 325.949219 C 782.660156 328.292969 782.660156 332.089844 780.316406 334.433594 L 758.390625 356.359375 C 756.046875 358.703125 752.25 358.703125 749.90625 356.359375 Z M 749.90625 356.359375 " clip-rule="nonzero"/></clipPath><clipPath id="f6835628c2"><path d="M 813.519531 754.457031 L 861.519531 754.457031 L 861.519531 797.207031 L 813.519531 797.207031 Z M 813.519531 754.457031 " clip-rule="nonzero"/></clipPath><clipPath id="8ba20ac395"><path d="M 819.519531 754.457031 L 855.34375 754.457031 C 858.65625 754.457031 861.34375 757.144531 861.34375 760.457031 L 861.34375 791.46875 C 861.34375 794.78125 858.65625 797.464844 855.34375 797.464844 L 819.519531 797.464844 C 816.207031 797.464844 813.519531 794.78125 813.519531 791.46875 L 813.519531 760.457031 C 813.519531 757.144531 816.207031 754.457031 819.519531 754.457031 Z M 819.519531 754.457031 " clip-rule="nonzero"/></clipPath><clipPath id="6c85fc0c4f"><path d="M 843.542969 391.761719 L 876.347656 391.761719 L 876.347656 424.566406 L 843.542969 424.566406 Z M 843.542969 391.761719 " clip-rule="nonzero"/></clipPath><clipPath id="7f565f56f9"><path d="M 859.945312 391.761719 C 850.886719 391.761719 843.542969 399.105469 843.542969 408.164062 C 843.542969 417.222656 850.886719 424.566406 859.945312 424.566406 C 869.003906 424.566406 876.347656 417.222656 876.347656 408.164062 C 876.347656 399.105469 869.003906 391.761719 859.945312 391.761719 Z M 859.945312 391.761719 " clip-rule="nonzero"/></clipPath></defs><rect x="-150" width="1800" fill="#ffffff" y="-112.499995" height="1349.99994" fill-opacity="1"/><rect x="-150" width="1800" fill="#ffffff" y="-112.499995" height="1349.99994" fill-opacity="1"/><g clip-path="url(#319c00ce47)"><g clip-path="url(#585660f792)"><g clip-path="url(#6fc1e5fc66)"><g clip-path="url(#b2b04da26f)"><path stroke-linecap="butt" transform="matrix(0.63911, -0.392476, 0.392476, 0.63911, 921.31349, 364.438161)" fill="none" stroke-linejoin="miter" d="M 7.99763 0.00235028 L 55.765239 -0.00130687 C 60.181517 0.00309973 63.759709 3.581775 63.762467 7.99634 L 63.760811 49.343076 C 63.760842 53.762079 60.179442 57.34471 55.760438 57.344741 L 7.995554 57.34396 C 3.580989 57.346717 0.00108412 53.760878 -0.00167308 49.346313 L -0.0000172535 7.999578 C -0.0000489177 3.580575 3.581352 -0.00205633 7.99763 0.00235028 Z M 7.99763 0.00235028 " stroke="#cc0829" stroke-width="24" stroke-opacity="1" stroke-miterlimit="4"/></g></g></g></g><g clip-path="url(#e2cba257c5)"><g clip-path="url(#6841bf6845)"><g clip-path="url(#23ecdbb158)"><g clip-path="url(#2ced6862a1)"><path stroke-linecap="butt" transform="matrix(-0.53033, -0.53033, 0.53033, -0.53033, 754.148464, 360.601531)" fill="none" stroke-linejoin="miter" d="M 7.999141 -0.0000554792 L 55.765681 -0.0000554792 C 60.177734 -0.0000554792 63.761145 3.583356 63.764828 7.999091 L 63.761145 49.346426 C 63.764828 53.762161 60.181416 57.345573 55.761999 57.345573 L 7.999141 57.34189 C 3.579724 57.34189 -0.0000047697 53.762161 -0.0000047697 49.342744 L -0.0000047697 7.999091 C -0.0000047697 3.579673 3.579724 -0.0000554792 7.999141 -0.0000554792 Z M 7.999141 -0.0000554792 " stroke="#cc0829" stroke-width="24" stroke-opacity="1" stroke-miterlimit="4"/></g></g></g></g><g clip-path="url(#f6835628c2)"><g clip-path="url(#8ba20ac395)"><path stroke-linecap="butt" transform="matrix(0.75, 0, 0, 0.75, 813.520403, 754.458323)" fill="none" stroke-linejoin="miter" d="M 7.998837 -0.00172238 L 55.764464 -0.00172238 C 60.18113 -0.00172238 63.764464 3.581611 63.764464 7.998278 L 63.764464 49.347237 C 63.764464 53.763904 60.18113 57.342029 55.764464 57.342029 L 7.998837 57.342029 C 3.582171 57.342029 -0.00116271 53.763904 -0.00116271 49.347237 L -0.00116271 7.998278 C -0.00116271 3.581611 3.582171 -0.00172238 7.998837 -0.00172238 Z M 7.998837 -0.00172238 " stroke="#cc0829" stroke-width="24" stroke-opacity="1" stroke-miterlimit="4"/></g></g><path stroke-linecap="round" transform="matrix(0.00565065, -0.749979, 0.749979, 0.00565065, 850.161872, 793.042184)" fill="none" stroke-linejoin="miter" d="M 8.999293 8.997874 L 775.32842 9.000242 " stroke="#1e76e9" stroke-width="18" stroke-opacity="1" stroke-miterlimit="4"/><path stroke-linecap="round" transform="matrix(0.632295, -0.403364, 0.403364, 0.632295, 252.692618, 788.297384)" fill="none" stroke-linejoin="miter" d="M 8.99678 9.000499 L 1101.413334 9.002531 " stroke="#1e76e9" stroke-width="18" stroke-opacity="1" stroke-miterlimit="4"/><path stroke-linecap="round" transform="matrix(0.533355, 0.527287, -0.527287, 0.533355, 754.744312, 296.500502)" fill="none" stroke-linejoin="miter" d="M 9.002311 8.998818 L 923.700526 8.998565 " stroke="#1e76e9" stroke-width="18" stroke-opacity="1" stroke-miterlimit="4"/><path stroke-linecap="round" transform="matrix(-0.409316, -0.628459, 0.628459, -0.409316, 1246.881262, 801.153535)" fill="none" stroke-linejoin="miter" d="M 8.999794 9.002916 L 957.558393 8.999945 " stroke="#000000" stroke-width="18" stroke-opacity="1" stroke-miterlimit="4"/><path stroke-linecap="round" transform="matrix(0.536294, -0.524298, 0.524298, 0.536294, 244.913465, 788.271008)" fill="none" stroke-linejoin="miter" d="M 8.998374 8.998299 L 1141.237311 9.002394 " stroke="#000000" stroke-width="18" stroke-opacity="1" stroke-miterlimit="4"/><path stroke-linecap="round" transform="matrix(-0.75, 0, 0, -0.75, 1252.534605, 799.848199)" fill="none" stroke-linejoin="miter" d="M 8.999266 9.000725 L 1328.21813 9.000725 " stroke="#000000" stroke-width="18" stroke-opacity="1" stroke-miterlimit="4"/><g clip-path="url(#6c85fc0c4f)"><g clip-path="url(#7f565f56f9)"><path fill="#cc0829" d="M 843.542969 391.761719 L 876.347656 391.761719 L 876.347656 424.566406 L 843.542969 424.566406 Z M 843.542969 391.761719 " fill-opacity="1" fill-rule="nonzero"/></g></g><g fill="#000000" fill-opacity="1"><g transform="translate(838.706025, 172.586449)"><g><path d="M 42.4375 0 L 38.265625 -13.6875 L 17.3125 -13.6875 L 13.140625 0 L 0 0 L 20.296875 -57.734375 L 35.203125 -57.734375 L 55.578125 0 Z M 35.359375 -23.90625 C 31.503906 -36.3125 29.332031 -43.328125 28.84375 -44.953125 C 28.363281 -46.578125 28.019531 -47.863281 27.8125 -48.8125 C 26.945312 -45.457031 24.46875 -37.15625 20.375 -23.90625 Z M 35.359375 -23.90625 "/></g></g></g><g fill="#000000" fill-opacity="1"><g transform="translate(165.608925, 853.244331)"><g><path d="M 7.234375 -57.5 L 25.125 -57.5 C 33.28125 -57.5 39.203125 -56.335938 42.890625 -54.015625 C 46.578125 -51.691406 48.421875 -48.003906 48.421875 -42.953125 C 48.421875 -39.515625 47.613281 -36.691406 46 -34.484375 C 44.382812 -32.285156 42.238281 -30.960938 39.5625 -30.515625 L 39.5625 -30.125 C 43.207031 -29.3125 45.835938 -27.789062 47.453125 -25.5625 C 49.066406 -23.332031 49.875 -20.367188 49.875 -16.671875 C 49.875 -11.429688 47.976562 -7.34375 44.1875 -4.40625 C 40.394531 -1.46875 35.25 0 28.75 0 L 7.234375 0 Z M 19.421875 -34.734375 L 26.515625 -34.734375 C 29.816406 -34.734375 32.207031 -35.242188 33.6875 -36.265625 C 35.164062 -37.285156 35.90625 -38.972656 35.90625 -41.328125 C 35.90625 -43.535156 35.097656 -45.117188 33.484375 -46.078125 C 31.878906 -47.035156 29.332031 -47.515625 25.84375 -47.515625 L 19.421875 -47.515625 Z M 19.421875 -25.046875 L 19.421875 -10.0625 L 27.375 -10.0625 C 30.726562 -10.0625 33.203125 -10.703125 34.796875 -11.984375 C 36.398438 -13.273438 37.203125 -15.242188 37.203125 -17.890625 C 37.203125 -22.660156 33.796875 -25.046875 26.984375 -25.046875 Z M 19.421875 -25.046875 "/></g></g></g><g fill="#000000" fill-opacity="1"><g transform="translate(1283.184307, 853.244331)"><g><path d="M 31.65625 -48.171875 C 27.070312 -48.171875 23.519531 -46.445312 21 -43 C 18.476562 -39.550781 17.21875 -34.75 17.21875 -28.59375 C 17.21875 -15.769531 22.03125 -9.359375 31.65625 -9.359375 C 35.695312 -9.359375 40.585938 -10.367188 46.328125 -12.390625 L 46.328125 -2.15625 C 41.609375 -0.195312 36.335938 0.78125 30.515625 0.78125 C 22.148438 0.78125 15.753906 -1.753906 11.328125 -6.828125 C 6.898438 -11.898438 4.6875 -19.179688 4.6875 -28.671875 C 4.6875 -34.648438 5.769531 -39.882812 7.9375 -44.375 C 10.113281 -48.875 13.238281 -52.320312 17.3125 -54.71875 C 21.394531 -57.125 26.175781 -58.328125 31.65625 -58.328125 C 37.238281 -58.328125 42.851562 -56.976562 48.5 -54.28125 L 44.5625 -44.359375 C 42.40625 -45.378906 40.238281 -46.269531 38.0625 -47.03125 C 35.894531 -47.789062 33.757812 -48.171875 31.65625 -48.171875 Z M 31.65625 -48.171875 "/></g></g></g></svg>