<svg xmlns="http://www.w3.org/2000/svg" xmlns:xlink="http://www.w3.org/1999/xlink" width="2000" zoomAndPan="magnify" viewBox="0 0 1500 1124.99995" height="1500" preserveAspectRatio="xMidYMid meet" version="1.0"><defs><clipPath id="3a01f2e161"><path d="M 826 326 L 890 326 L 890 390 L 826 390 Z M 826 326 " clip-rule="nonzero"/></clipPath><clipPath id="d293177e07"><path d="M 824.265625 355.507812 L 860.75 324.320312 L 891.941406 360.804688 L 855.453125 391.996094 Z M 824.265625 355.507812 " clip-rule="nonzero"/></clipPath><clipPath id="3414264109"><path d="M 824.265625 355.507812 L 864.34375 321.246094 L 898.605469 361.328125 L 858.527344 395.589844 Z M 824.265625 355.507812 " clip-rule="nonzero"/></clipPath><clipPath id="88ff84adc0"><path d="M 828.824219 351.609375 L 856.058594 328.332031 C 858.574219 326.179688 862.363281 326.476562 864.515625 328.996094 L 887.703125 356.121094 C 889.855469 358.636719 889.558594 362.425781 887.039062 364.578125 L 859.808594 387.855469 C 857.289062 390.007812 853.503906 389.710938 851.351562 387.195312 L 828.164062 360.066406 C 826.011719 357.550781 826.308594 353.761719 828.824219 351.609375 Z M 828.824219 351.609375 " clip-rule="nonzero"/></clipPath><clipPath id="22a5c2ee18"><path d="M 711.285156 754.457031 L 759.28125 754.457031 L 759.28125 797.207031 L 711.285156 797.207031 Z M 711.285156 754.457031 " clip-rule="nonzero"/></clipPath><clipPath id="ea3177279c"><path d="M 717.28125 754.457031 L 753.105469 754.457031 C 756.417969 754.457031 759.105469 757.144531 759.105469 760.457031 L 759.105469 791.46875 C 759.105469 794.78125 756.417969 797.464844 753.105469 797.464844 L 717.28125 797.464844 C 713.96875 797.464844 711.285156 794.78125 711.285156 791.46875 L 711.285156 760.457031 C 711.285156 757.144531 713.96875 754.457031 717.28125 754.457031 Z M 717.28125 754.457031 " clip-rule="nonzero"/></clipPath><clipPath id="5ebb9d312c"><path d="M 628 322 L 692 322 L 692 385 L 628 385 Z M 628 322 " clip-rule="nonzero"/></clipPath><clipPath id="6066a89cc6"><path d="M 626.347656 356.382812 L 657.261719 319.667969 L 693.980469 350.582031 L 663.0625 387.300781 Z M 626.347656 356.382812 " clip-rule="nonzero"/></clipPath><clipPath id="224d780d33"><path d="M 626.347656 356.382812 L 660.308594 316.050781 L 700.640625 350.011719 L 666.679688 390.34375 Z M 626.347656 356.382812 " clip-rule="nonzero"/></clipPath><clipPath id="59a3b0bf9e"><path d="M 630.210938 351.792969 L 653.285156 324.390625 C 655.417969 321.855469 659.203125 321.53125 661.738281 323.664062 L 689.035156 346.648438 C 691.570312 348.785156 691.894531 352.566406 689.761719 355.101562 L 666.6875 382.507812 C 664.550781 385.042969 660.769531 385.367188 658.234375 383.230469 L 630.9375 360.246094 C 628.402344 358.113281 628.078125 354.328125 630.210938 351.792969 Z M 630.210938 351.792969 " clip-rule="nonzero"/></clipPath><clipPath id="e80f5c07fd"><path d="M 742.710938 391.761719 L 775.511719 391.761719 L 775.511719 424.566406 L 742.710938 424.566406 Z M 742.710938 391.761719 " clip-rule="nonzero"/></clipPath><clipPath id="b9158755aa"><path d="M 759.113281 391.761719 C 750.054688 391.761719 742.710938 399.105469 742.710938 408.164062 C 742.710938 417.222656 750.054688 424.566406 759.113281 424.566406 C 768.171875 424.566406 775.511719 417.222656 775.511719 408.164062 C 775.511719 399.105469 768.171875 391.761719 759.113281 391.761719 Z M 759.113281 391.761719 " clip-rule="nonzero"/></clipPath></defs><rect x="-150" width="1800" fill="#ffffff" y="-112.499995" height="1349.99994" fill-opacity="1"/><rect x="-150" width="1800" fill="#ffffff" y="-112.499995" height="1349.99994" fill-opacity="1"/><g clip-path="url(#3a01f2e161)"><g clip-path="url(#d293177e07)"><g clip-path="url(#3414264109)"><g clip-path="url(#88ff84adc0)"><path stroke-linecap="butt" transform="matrix(0.570099, -0.487326, 0.487326, 0.570099, 824.265082, 355.508153)" fill="none" stroke-linejoin="miter" d="M 7.998465 -0.00160861 L 55.767277 0.00127253 C 60.181587 -0.000719102 63.76464 3.582849 63.763247 8.001118 L 63.764066 55.58124 C 63.766058 59.99555 60.18249 63.578603 55.764221 63.57721 L 7.999368 63.577714 C 3.581099 63.576321 0.00200525 59.996137 0.000013621 55.581827 L 0.00257866 7.997746 C 0.000587034 3.583436 3.584155 0.000383022 7.998465 -0.00160861 Z M 7.998465 -0.00160861 " stroke="#cc0829" stroke-width="24" stroke-opacity="1" stroke-miterlimit="4"/></g></g></g></g><g clip-path="url(#22a5c2ee18)"><g clip-path="url(#ea3177279c)"><path stroke-linecap="butt" transform="matrix(0.75, 0, 0, 0.75, 711.28346, 754.458203)" fill="none" stroke-linejoin="miter" d="M 7.997053 -0.00156238 L 55.762679 -0.00156238 C 60.179346 -0.00156238 63.76268 3.581771 63.76268 7.998438 L 63.76268 49.347397 C 63.76268 53.764064 60.179346 57.342189 55.762679 57.342189 L 7.997053 57.342189 C 3.580387 57.342189 0.00226155 53.764064 0.00226155 49.347397 L 0.00226155 7.998438 C 0.00226155 3.581771 3.580387 -0.00156238 7.997053 -0.00156238 Z M 7.997053 -0.00156238 " stroke="#cc0829" stroke-width="24" stroke-opacity="1" stroke-miterlimit="4"/></g></g><g clip-path="url(#5ebb9d312c)"><g clip-path="url(#6066a89cc6)"><g clip-path="url(#224d780d33)"><g clip-path="url(#59a3b0bf9e)"><path stroke-linecap="butt" transform="matrix(0.48307, -0.57371, 0.57371, 0.48307, 626.346771, 356.38325)" fill="none" stroke-linejoin="miter" d="M 8.000274 -0.000913551 L 55.764662 0.000287215 C 60.181983 -0.00156279 63.76332 3.580594 63.76517 7.997915 L 63.765028 55.577575 C 63.762894 59.99825 60.184721 63.576233 55.767401 63.578083 L 7.999028 63.580237 C 3.578353 63.578103 0.000370316 59.99993 0.00250441 55.579255 L 0.00264646 7.999595 C 0.000796449 3.582274 3.582953 0.000936457 8.000274 -0.000913551 Z M 8.000274 -0.000913551 " stroke="#cc0829" stroke-width="24" stroke-opacity="1" stroke-miterlimit="4"/></g></g></g></g><path stroke-linecap="round" transform="matrix(0.588588, 0.464827, -0.464827, 0.588588, 591.089934, 266.504019)" fill="none" stroke-linejoin="miter" d="M 8.999003 9.000145 L 1121.90481 8.99958 " stroke="#1e76e9" stroke-width="18" stroke-opacity="1" stroke-miterlimit="4"/><path stroke-linecap="round" transform="matrix(0.00565065, -0.749979, 0.749979, 0.00565065, 747.924977, 793.041944)" fill="none" stroke-linejoin="miter" d="M 8.998998 9.001237 L 775.328086 8.998396 " stroke="#1e76e9" stroke-width="18" stroke-opacity="1" stroke-miterlimit="4"/><path stroke-linecap="round" transform="matrix(0.5973, -0.453577, 0.453577, 0.5973, 245.549338, 787.720232)" fill="none" stroke-linejoin="miter" d="M 8.999091 9.00247 L 1140.307959 9.001358 " stroke="#1e76e9" stroke-width="18" stroke-opacity="1" stroke-miterlimit="4"/><path fill="#000000" d="M 768.617188 205.753906 L 811.734375 257.6875 C 812.015625 258.03125 812.261719 258.394531 812.472656 258.785156 C 812.683594 259.175781 812.855469 259.582031 812.988281 260.003906 C 813.117188 260.425781 813.207031 260.859375 813.253906 261.300781 C 813.296875 261.742188 813.300781 262.183594 813.261719 262.625 C 813.21875 263.066406 813.136719 263.496094 813.007812 263.921875 C 812.882812 264.347656 812.714844 264.757812 812.511719 265.148438 C 812.304688 265.539062 812.058594 265.910156 811.78125 266.253906 C 811.5 266.597656 811.191406 266.910156 810.851562 267.195312 C 810.511719 267.476562 810.144531 267.722656 809.753906 267.933594 C 809.363281 268.144531 808.957031 268.316406 808.535156 268.449219 C 808.113281 268.578125 807.679688 268.667969 807.238281 268.714844 C 806.796875 268.757812 806.355469 268.761719 805.914062 268.722656 C 805.472656 268.679688 805.042969 268.597656 804.617188 268.46875 C 804.191406 268.34375 803.78125 268.175781 803.390625 267.972656 C 803 267.765625 802.628906 267.519531 802.285156 267.242188 C 801.941406 266.960938 801.628906 266.652344 801.34375 266.3125 L 758.230469 214.375 C 757.945312 214.035156 757.699219 213.671875 757.488281 213.28125 C 757.277344 212.890625 757.105469 212.484375 756.972656 212.0625 C 756.84375 211.636719 756.753906 211.207031 756.710938 210.765625 C 756.664062 210.324219 756.660156 209.882812 756.703125 209.441406 C 756.742188 209 756.824219 208.566406 756.953125 208.140625 C 757.078125 207.71875 757.246094 207.308594 757.453125 206.917969 C 757.660156 206.523438 757.902344 206.15625 758.179688 205.8125 C 758.460938 205.46875 758.769531 205.15625 759.109375 204.871094 C 759.453125 204.589844 759.816406 204.339844 760.207031 204.128906 C 760.597656 203.917969 761.003906 203.75 761.425781 203.617188 C 761.851562 203.484375 762.28125 203.398438 762.722656 203.351562 C 763.164062 203.304688 763.605469 203.304688 764.046875 203.34375 C 764.488281 203.386719 764.921875 203.46875 765.34375 203.59375 C 765.769531 203.722656 766.179688 203.886719 766.570312 204.09375 C 766.964844 204.300781 767.332031 204.542969 767.675781 204.824219 C 768.019531 205.101562 768.332031 205.414062 768.617188 205.753906 Z M 828.980469 278.460938 L 872.09375 330.398438 C 872.378906 330.738281 872.625 331.101562 872.835938 331.492188 C 873.046875 331.882812 873.21875 332.289062 873.351562 332.710938 C 873.480469 333.136719 873.570312 333.566406 873.617188 334.007812 C 873.660156 334.449219 873.664062 334.890625 873.625 335.332031 C 873.582031 335.773438 873.5 336.207031 873.371094 336.632812 C 873.246094 337.054688 873.078125 337.464844 872.871094 337.855469 C 872.667969 338.25 872.421875 338.617188 872.144531 338.960938 C 871.863281 339.304688 871.554688 339.617188 871.214844 339.902344 C 870.871094 340.183594 870.507812 340.433594 870.117188 340.644531 C 869.726562 340.855469 869.320312 341.027344 868.898438 341.15625 C 868.476562 341.289062 868.042969 341.375 867.601562 341.421875 C 867.160156 341.46875 866.71875 341.472656 866.277344 341.429688 C 865.835938 341.390625 865.402344 341.304688 864.980469 341.179688 C 864.554688 341.054688 864.144531 340.886719 863.753906 340.679688 C 863.363281 340.472656 862.992188 340.230469 862.648438 339.949219 C 862.304688 339.671875 861.992188 339.359375 861.707031 339.019531 L 818.59375 287.085938 C 818.308594 286.746094 818.0625 286.378906 817.851562 285.988281 C 817.640625 285.601562 817.46875 285.191406 817.335938 284.769531 C 817.207031 284.347656 817.117188 283.914062 817.070312 283.472656 C 817.027344 283.03125 817.023438 282.589844 817.066406 282.148438 C 817.105469 281.710938 817.1875 281.277344 817.316406 280.851562 C 817.441406 280.425781 817.609375 280.019531 817.816406 279.625 C 818.023438 279.234375 818.265625 278.867188 818.542969 278.519531 C 818.824219 278.175781 819.132812 277.863281 819.472656 277.582031 C 819.816406 277.296875 820.179688 277.050781 820.570312 276.839844 C 820.960938 276.628906 821.367188 276.457031 821.789062 276.324219 C 822.214844 276.195312 822.644531 276.105469 823.085938 276.058594 C 823.527344 276.015625 823.96875 276.011719 824.410156 276.054688 C 824.851562 276.09375 825.285156 276.175781 825.707031 276.304688 C 826.132812 276.429688 826.542969 276.597656 826.933594 276.804688 C 827.324219 277.007812 827.695312 277.253906 828.039062 277.53125 C 828.382812 277.8125 828.695312 278.121094 828.980469 278.460938 Z M 889.34375 351.171875 L 932.457031 403.105469 C 932.742188 403.445312 932.988281 403.8125 933.199219 404.203125 C 933.410156 404.589844 933.582031 404.996094 933.714844 405.421875 C 933.84375 405.84375 933.933594 406.277344 933.980469 406.71875 C 934.023438 407.160156 934.027344 407.601562 933.984375 408.039062 C 933.945312 408.480469 933.863281 408.914062 933.734375 409.339844 C 933.609375 409.765625 933.441406 410.171875 933.234375 410.566406 C 933.03125 410.957031 932.785156 411.324219 932.507812 411.667969 C 932.226562 412.015625 931.917969 412.328125 931.578125 412.609375 C 931.234375 412.894531 930.871094 413.140625 930.480469 413.351562 C 930.089844 413.5625 929.683594 413.734375 929.261719 413.867188 C 928.835938 413.996094 928.40625 414.085938 927.964844 414.132812 C 927.523438 414.175781 927.082031 414.179688 926.640625 414.136719 C 926.199219 414.097656 925.765625 414.015625 925.34375 413.886719 C 924.917969 413.761719 924.507812 413.59375 924.117188 413.386719 C 923.726562 413.179688 923.355469 412.9375 923.011719 412.660156 C 922.667969 412.378906 922.355469 412.070312 922.070312 411.730469 L 878.957031 359.792969 C 878.671875 359.453125 878.425781 359.085938 878.214844 358.699219 C 878.003906 358.308594 877.832031 357.902344 877.699219 357.480469 C 877.570312 357.054688 877.480469 356.625 877.433594 356.183594 C 877.390625 355.742188 877.386719 355.300781 877.425781 354.859375 C 877.46875 354.417969 877.550781 353.984375 877.679688 353.558594 C 877.804688 353.136719 877.972656 352.726562 878.179688 352.335938 C 878.382812 351.941406 878.628906 351.574219 878.90625 351.230469 C 879.1875 350.886719 879.496094 350.570312 879.835938 350.289062 C 880.179688 350.007812 880.542969 349.757812 880.933594 349.546875 C 881.324219 349.335938 881.730469 349.164062 882.152344 349.035156 C 882.574219 348.902344 883.007812 348.816406 883.449219 348.769531 C 883.890625 348.722656 884.332031 348.71875 884.773438 348.761719 C 885.214844 348.800781 885.648438 348.886719 886.070312 349.011719 C 886.496094 349.136719 886.90625 349.304688 887.296875 349.511719 C 887.6875 349.71875 888.058594 349.960938 888.402344 350.242188 C 888.746094 350.519531 889.058594 350.828125 889.34375 351.171875 Z M 949.707031 423.878906 L 992.820312 475.816406 C 993.105469 476.15625 993.351562 476.519531 993.5625 476.910156 C 993.773438 477.300781 993.945312 477.707031 994.078125 478.128906 C 994.207031 478.554688 994.296875 478.984375 994.339844 479.425781 C 994.386719 479.867188 994.390625 480.308594 994.347656 480.75 C 994.308594 481.191406 994.226562 481.625 994.097656 482.050781 C 993.972656 482.472656 993.804688 482.882812 993.597656 483.273438 C 993.390625 483.667969 993.148438 484.035156 992.871094 484.378906 C 992.589844 484.722656 992.28125 485.035156 991.941406 485.320312 C 991.597656 485.601562 991.234375 485.851562 990.84375 486.0625 C 990.453125 486.273438 990.046875 486.441406 989.625 486.574219 C 989.199219 486.707031 988.769531 486.792969 988.328125 486.839844 C 987.886719 486.886719 987.445312 486.886719 987.003906 486.847656 C 986.5625 486.804688 986.128906 486.722656 985.707031 486.597656 C 985.28125 486.46875 984.871094 486.304688 984.480469 486.097656 C 984.085938 485.890625 983.71875 485.648438 983.375 485.367188 C 983.03125 485.089844 982.71875 484.777344 982.433594 484.4375 L 939.316406 432.503906 C 939.035156 432.160156 938.789062 431.796875 938.578125 431.40625 C 938.367188 431.015625 938.195312 430.609375 938.0625 430.1875 C 937.933594 429.765625 937.84375 429.332031 937.796875 428.890625 C 937.753906 428.449219 937.75 428.007812 937.789062 427.566406 C 937.832031 427.125 937.914062 426.691406 938.042969 426.269531 C 938.167969 425.84375 938.335938 425.433594 938.539062 425.042969 C 938.746094 424.652344 938.992188 424.28125 939.269531 423.9375 C 939.550781 423.59375 939.859375 423.28125 940.199219 422.996094 C 940.542969 422.714844 940.90625 422.46875 941.296875 422.257812 C 941.6875 422.046875 942.09375 421.875 942.515625 421.742188 C 942.9375 421.613281 943.371094 421.523438 943.8125 421.476562 C 944.253906 421.433594 944.695312 421.429688 945.136719 421.46875 C 945.578125 421.511719 946.007812 421.59375 946.433594 421.722656 C 946.859375 421.847656 947.269531 422.015625 947.660156 422.21875 C 948.050781 422.425781 948.421875 422.671875 948.765625 422.949219 C 949.109375 423.230469 949.421875 423.539062 949.707031 423.878906 Z M 1010.066406 496.589844 L 1053.183594 548.523438 C 1053.46875 548.863281 1053.714844 549.230469 1053.925781 549.621094 C 1054.136719 550.007812 1054.308594 550.414062 1054.4375 550.839844 C 1054.570312 551.261719 1054.660156 551.695312 1054.703125 552.136719 C 1054.75 552.574219 1054.753906 553.015625 1054.710938 553.457031 C 1054.671875 553.898438 1054.585938 554.332031 1054.460938 554.757812 C 1054.335938 555.183594 1054.167969 555.589844 1053.960938 555.984375 C 1053.753906 556.375 1053.511719 556.742188 1053.234375 557.085938 C 1052.953125 557.429688 1052.644531 557.746094 1052.304688 558.027344 C 1051.960938 558.3125 1051.597656 558.558594 1051.207031 558.769531 C 1050.816406 558.980469 1050.410156 559.152344 1049.988281 559.28125 C 1049.5625 559.414062 1049.132812 559.503906 1048.691406 559.546875 C 1048.25 559.59375 1047.808594 559.597656 1047.367188 559.554688 C 1046.925781 559.515625 1046.492188 559.429688 1046.066406 559.304688 C 1045.644531 559.179688 1045.234375 559.011719 1044.84375 558.804688 C 1044.449219 558.597656 1044.082031 558.355469 1043.738281 558.078125 C 1043.394531 557.796875 1043.082031 557.488281 1042.796875 557.148438 L 999.679688 505.210938 C 999.398438 504.871094 999.152344 504.503906 998.941406 504.117188 C 998.730469 503.726562 998.558594 503.320312 998.425781 502.894531 C 998.296875 502.472656 998.207031 502.039062 998.160156 501.601562 C 998.113281 501.160156 998.113281 500.71875 998.152344 500.277344 C 998.195312 499.835938 998.277344 499.402344 998.40625 498.976562 C 998.53125 498.550781 998.695312 498.144531 998.902344 497.75 C 999.109375 497.359375 999.351562 496.992188 999.632812 496.648438 C 999.910156 496.304688 1000.222656 495.988281 1000.5625 495.707031 C 1000.902344 495.421875 1001.269531 495.175781 1001.660156 494.964844 C 1002.046875 494.753906 1002.457031 494.582031 1002.878906 494.453125 C 1003.300781 494.320312 1003.734375 494.230469 1004.175781 494.1875 C 1004.617188 494.140625 1005.058594 494.136719 1005.5 494.179688 C 1005.941406 494.21875 1006.371094 494.304688 1006.796875 494.429688 C 1007.222656 494.554688 1007.628906 494.722656 1008.023438 494.929688 C 1008.414062 495.136719 1008.78125 495.378906 1009.128906 495.65625 C 1009.472656 495.9375 1009.785156 496.246094 1010.066406 496.589844 Z M 1070.429688 569.296875 L 1113.546875 621.230469 C 1113.832031 621.574219 1114.078125 621.9375 1114.289062 622.328125 C 1114.5 622.71875 1114.671875 623.125 1114.800781 623.546875 C 1114.933594 623.972656 1115.023438 624.402344 1115.066406 624.84375 C 1115.113281 625.285156 1115.117188 625.726562 1115.074219 626.167969 C 1115.035156 626.609375 1114.949219 627.042969 1114.824219 627.464844 C 1114.699219 627.890625 1114.53125 628.300781 1114.324219 628.691406 C 1114.117188 629.082031 1113.875 629.453125 1113.597656 629.796875 C 1113.316406 630.140625 1113.007812 630.453125 1112.664062 630.738281 C 1112.324219 631.019531 1111.960938 631.265625 1111.570312 631.476562 C 1111.179688 631.691406 1110.773438 631.859375 1110.351562 631.992188 C 1109.925781 632.121094 1109.496094 632.210938 1109.054688 632.257812 C 1108.613281 632.304688 1108.171875 632.304688 1107.730469 632.265625 C 1107.289062 632.222656 1106.855469 632.140625 1106.429688 632.015625 C 1106.007812 631.886719 1105.597656 631.722656 1105.207031 631.515625 C 1104.8125 631.308594 1104.445312 631.066406 1104.101562 630.785156 C 1103.757812 630.507812 1103.445312 630.195312 1103.160156 629.855469 L 1060.042969 577.921875 C 1059.761719 577.578125 1059.515625 577.214844 1059.304688 576.824219 C 1059.089844 576.433594 1058.921875 576.027344 1058.789062 575.605469 C 1058.660156 575.179688 1058.570312 574.75 1058.523438 574.308594 C 1058.476562 573.867188 1058.476562 573.425781 1058.515625 572.984375 C 1058.558594 572.542969 1058.640625 572.109375 1058.765625 571.6875 C 1058.894531 571.261719 1059.058594 570.851562 1059.265625 570.460938 C 1059.472656 570.070312 1059.714844 569.699219 1059.996094 569.355469 C 1060.273438 569.011719 1060.585938 568.699219 1060.925781 568.414062 C 1061.265625 568.132812 1061.632812 567.886719 1062.023438 567.675781 C 1062.410156 567.460938 1062.816406 567.292969 1063.242188 567.160156 C 1063.664062 567.03125 1064.097656 566.941406 1064.539062 566.894531 C 1064.980469 566.847656 1065.417969 566.847656 1065.859375 566.886719 C 1066.300781 566.929688 1066.734375 567.011719 1067.160156 567.136719 C 1067.585938 567.265625 1067.992188 567.429688 1068.386719 567.636719 C 1068.777344 567.84375 1069.144531 568.085938 1069.488281 568.367188 C 1069.835938 568.644531 1070.148438 568.957031 1070.429688 569.296875 Z M 1130.792969 642.003906 L 1173.910156 693.941406 C 1174.195312 694.28125 1174.441406 694.648438 1174.652344 695.035156 C 1174.863281 695.425781 1175.035156 695.832031 1175.164062 696.257812 C 1175.296875 696.679688 1175.382812 697.113281 1175.429688 697.550781 C 1175.476562 697.992188 1175.480469 698.433594 1175.4375 698.875 C 1175.398438 699.316406 1175.3125 699.75 1175.1875 700.175781 C 1175.0625 700.601562 1174.894531 701.007812 1174.6875 701.398438 C 1174.480469 701.792969 1174.238281 702.160156 1173.960938 702.503906 C 1173.679688 702.847656 1173.371094 703.164062 1173.027344 703.445312 C 1172.6875 703.730469 1172.324219 703.976562 1171.933594 704.1875 C 1171.542969 704.398438 1171.136719 704.570312 1170.714844 704.699219 C 1170.289062 704.832031 1169.859375 704.917969 1169.417969 704.964844 C 1168.976562 705.011719 1168.535156 705.015625 1168.09375 704.972656 C 1167.652344 704.933594 1167.21875 704.847656 1166.792969 704.722656 C 1166.371094 704.597656 1165.960938 704.429688 1165.570312 704.222656 C 1165.175781 704.015625 1164.808594 703.773438 1164.464844 703.496094 C 1164.121094 703.214844 1163.808594 702.90625 1163.523438 702.5625 L 1120.40625 650.628906 C 1120.125 650.289062 1119.878906 649.921875 1119.664062 649.53125 C 1119.453125 649.144531 1119.285156 648.738281 1119.152344 648.3125 C 1119.019531 647.890625 1118.933594 647.457031 1118.886719 647.015625 C 1118.839844 646.578125 1118.839844 646.136719 1118.878906 645.695312 C 1118.921875 645.253906 1119.003906 644.820312 1119.128906 644.394531 C 1119.257812 643.96875 1119.421875 643.5625 1119.628906 643.167969 C 1119.835938 642.777344 1120.078125 642.410156 1120.359375 642.066406 C 1120.636719 641.722656 1120.949219 641.40625 1121.289062 641.125 C 1121.628906 640.839844 1121.996094 640.59375 1122.386719 640.382812 C 1122.773438 640.171875 1123.179688 640 1123.605469 639.871094 C 1124.027344 639.738281 1124.460938 639.648438 1124.902344 639.605469 C 1125.339844 639.558594 1125.78125 639.554688 1126.222656 639.597656 C 1126.664062 639.636719 1127.097656 639.722656 1127.523438 639.847656 C 1127.949219 639.972656 1128.355469 640.140625 1128.75 640.347656 C 1129.140625 640.554688 1129.507812 640.796875 1129.851562 641.074219 C 1130.199219 641.355469 1130.511719 641.664062 1130.792969 642.003906 Z M 1191.15625 714.714844 L 1234.273438 766.648438 C 1234.554688 766.992188 1234.804688 767.355469 1235.015625 767.746094 C 1235.226562 768.136719 1235.398438 768.542969 1235.527344 768.964844 C 1235.660156 769.386719 1235.746094 769.820312 1235.792969 770.261719 C 1235.839844 770.703125 1235.84375 771.144531 1235.800781 771.585938 C 1235.761719 772.027344 1235.675781 772.457031 1235.550781 772.882812 C 1235.425781 773.308594 1235.257812 773.71875 1235.050781 774.109375 C 1234.84375 774.5 1234.601562 774.871094 1234.320312 775.214844 C 1234.042969 775.558594 1233.734375 775.871094 1233.390625 776.15625 C 1233.050781 776.4375 1232.683594 776.683594 1232.296875 776.894531 C 1231.90625 777.105469 1231.5 777.277344 1231.074219 777.410156 C 1230.652344 777.539062 1230.21875 777.628906 1229.78125 777.675781 C 1229.339844 777.71875 1228.898438 777.722656 1228.457031 777.683594 C 1228.015625 777.640625 1227.582031 777.558594 1227.15625 777.429688 C 1226.730469 777.304688 1226.324219 777.136719 1225.933594 776.933594 C 1225.539062 776.726562 1225.171875 776.480469 1224.828125 776.203125 C 1224.484375 775.921875 1224.167969 775.613281 1223.886719 775.273438 L 1180.769531 723.335938 C 1180.488281 722.996094 1180.238281 722.632812 1180.027344 722.242188 C 1179.816406 721.851562 1179.648438 721.445312 1179.515625 721.023438 C 1179.382812 720.597656 1179.296875 720.167969 1179.25 719.726562 C 1179.203125 719.285156 1179.203125 718.84375 1179.242188 718.402344 C 1179.285156 717.960938 1179.367188 717.527344 1179.492188 717.101562 C 1179.621094 716.679688 1179.785156 716.269531 1179.992188 715.878906 C 1180.199219 715.484375 1180.441406 715.117188 1180.722656 714.773438 C 1181 714.429688 1181.3125 714.117188 1181.652344 713.832031 C 1181.992188 713.550781 1182.359375 713.300781 1182.746094 713.089844 C 1183.136719 712.878906 1183.542969 712.710938 1183.96875 712.578125 C 1184.390625 712.445312 1184.824219 712.359375 1185.265625 712.3125 C 1185.703125 712.265625 1186.144531 712.265625 1186.585938 712.304688 C 1187.027344 712.347656 1187.460938 712.429688 1187.886719 712.554688 C 1188.3125 712.683594 1188.71875 712.847656 1189.113281 713.054688 C 1189.503906 713.261719 1189.871094 713.503906 1190.214844 713.785156 C 1190.558594 714.0625 1190.875 714.375 1191.15625 714.714844 Z M 1191.15625 714.714844 " fill-opacity="1" fill-rule="nonzero"/><path stroke-linecap="round" transform="matrix(-0.588802, -0.464556, 0.464556, -0.588802, 1248.355246, 802.769911)" fill="none" stroke-linejoin="miter" d="M 8.999207 9.001694 L 829.02949 9.00091 " stroke="#000000" stroke-width="18" stroke-opacity="1" stroke-miterlimit="4"/><path stroke-linecap="round" transform="matrix(0.598403, -0.452121, 0.452121, 0.598403, 245.562684, 787.710848)" fill="none" stroke-linejoin="miter" d="M 8.998143 8.998525 L 842.399256 9.000827 " stroke="#000000" stroke-width="18" stroke-opacity="1" stroke-miterlimit="4"/><path stroke-linecap="round" transform="matrix(-0.75, 0, 0, -0.75, 1252.534605, 799.848199)" fill="none" stroke-linejoin="miter" d="M 8.999266 9.000725 L 1328.21813 9.000725 " stroke="#000000" stroke-width="18" stroke-opacity="1" stroke-miterlimit="4"/><path fill="#000000" d="M 273.980469 766.449219 L 317.640625 714.96875 C 317.925781 714.628906 318.242188 714.324219 318.589844 714.046875 C 318.9375 713.773438 319.308594 713.535156 319.703125 713.332031 C 320.097656 713.128906 320.507812 712.964844 320.933594 712.84375 C 321.359375 712.722656 321.792969 712.644531 322.234375 712.605469 C 322.675781 712.570312 323.117188 712.578125 323.558594 712.628906 C 323.996094 712.679688 324.429688 712.773438 324.851562 712.90625 C 325.273438 713.042969 325.679688 713.21875 326.066406 713.433594 C 326.453125 713.648438 326.816406 713.898438 327.152344 714.1875 C 327.492188 714.472656 327.796875 714.789062 328.074219 715.136719 C 328.347656 715.484375 328.589844 715.855469 328.792969 716.25 C 328.992188 716.644531 329.15625 717.054688 329.277344 717.480469 C 329.398438 717.90625 329.476562 718.339844 329.515625 718.78125 C 329.550781 719.222656 329.542969 719.664062 329.492188 720.105469 C 329.441406 720.546875 329.351562 720.976562 329.214844 721.398438 C 329.078125 721.820312 328.902344 722.226562 328.6875 722.613281 C 328.472656 723 328.222656 723.363281 327.933594 723.699219 L 284.277344 775.179688 C 283.988281 775.519531 283.671875 775.824219 283.324219 776.101562 C 282.976562 776.375 282.605469 776.613281 282.214844 776.816406 C 281.820312 777.019531 281.410156 777.183594 280.984375 777.304688 C 280.554688 777.425781 280.121094 777.503906 279.679688 777.542969 C 279.238281 777.578125 278.796875 777.570312 278.359375 777.519531 C 277.917969 777.46875 277.484375 777.375 277.0625 777.242188 C 276.640625 777.105469 276.238281 776.929688 275.851562 776.714844 C 275.460938 776.5 275.101562 776.25 274.761719 775.960938 C 274.425781 775.675781 274.117188 775.359375 273.839844 775.011719 C 273.566406 774.664062 273.328125 774.292969 273.125 773.898438 C 272.921875 773.503906 272.757812 773.09375 272.636719 772.667969 C 272.515625 772.242188 272.4375 771.808594 272.402344 771.367188 C 272.363281 770.925781 272.371094 770.484375 272.421875 770.042969 C 272.472656 769.601562 272.566406 769.171875 272.699219 768.75 C 272.835938 768.328125 273.011719 767.921875 273.226562 767.535156 C 273.441406 767.148438 273.691406 766.785156 273.980469 766.449219 Z M 335.101562 694.378906 L 378.761719 642.898438 C 379.050781 642.558594 379.367188 642.253906 379.714844 641.976562 C 380.0625 641.703125 380.429688 641.464844 380.824219 641.261719 C 381.21875 641.058594 381.628906 640.894531 382.054688 640.773438 C 382.480469 640.652344 382.917969 640.574219 383.359375 640.535156 C 383.800781 640.5 384.242188 640.507812 384.679688 640.558594 C 385.121094 640.609375 385.550781 640.703125 385.972656 640.835938 C 386.394531 640.972656 386.800781 641.148438 387.1875 641.363281 C 387.574219 641.578125 387.9375 641.828125 388.277344 642.117188 C 388.613281 642.402344 388.921875 642.71875 389.195312 643.066406 C 389.472656 643.414062 389.710938 643.785156 389.914062 644.179688 C 390.117188 644.574219 390.277344 644.984375 390.402344 645.410156 C 390.523438 645.835938 390.601562 646.269531 390.636719 646.710938 C 390.675781 647.152344 390.667969 647.59375 390.617188 648.035156 C 390.566406 648.472656 390.472656 648.90625 390.335938 649.328125 C 390.203125 649.75 390.027344 650.15625 389.8125 650.542969 C 389.597656 650.929688 389.34375 651.292969 389.058594 651.628906 L 345.398438 703.109375 C 345.113281 703.445312 344.796875 703.753906 344.449219 704.03125 C 344.101562 704.304688 343.730469 704.542969 343.335938 704.746094 C 342.941406 704.949219 342.53125 705.113281 342.105469 705.234375 C 341.679688 705.355469 341.246094 705.433594 340.804688 705.46875 C 340.363281 705.507812 339.921875 705.5 339.480469 705.449219 C 339.039062 705.398438 338.609375 705.304688 338.1875 705.167969 C 337.765625 705.035156 337.359375 704.859375 336.972656 704.644531 C 336.585938 704.429688 336.222656 704.175781 335.886719 703.890625 C 335.546875 703.605469 335.242188 703.289062 334.964844 702.941406 C 334.6875 702.59375 334.449219 702.222656 334.246094 701.828125 C 334.046875 701.433594 333.882812 701.023438 333.761719 700.597656 C 333.640625 700.171875 333.558594 699.738281 333.523438 699.296875 C 333.488281 698.855469 333.496094 698.414062 333.546875 697.972656 C 333.597656 697.53125 333.6875 697.101562 333.824219 696.679688 C 333.960938 696.257812 334.136719 695.851562 334.351562 695.464844 C 334.566406 695.078125 334.816406 694.714844 335.101562 694.378906 Z M 396.226562 622.304688 L 439.886719 570.828125 C 440.171875 570.488281 440.488281 570.183594 440.835938 569.90625 C 441.183594 569.632812 441.554688 569.390625 441.949219 569.191406 C 442.34375 568.988281 442.753906 568.824219 443.179688 568.703125 C 443.605469 568.582031 444.039062 568.503906 444.480469 568.464844 C 444.921875 568.429688 445.363281 568.4375 445.804688 568.488281 C 446.246094 568.539062 446.675781 568.632812 447.097656 568.765625 C 447.519531 568.902344 447.925781 569.078125 448.3125 569.292969 C 448.699219 569.507812 449.0625 569.757812 449.398438 570.046875 C 449.738281 570.332031 450.046875 570.648438 450.320312 570.996094 C 450.597656 571.34375 450.835938 571.714844 451.039062 572.109375 C 451.242188 572.503906 451.402344 572.914062 451.523438 573.339844 C 451.644531 573.765625 451.726562 574.199219 451.761719 574.640625 C 451.796875 575.082031 451.789062 575.523438 451.738281 575.964844 C 451.691406 576.402344 451.597656 576.835938 451.460938 577.257812 C 451.324219 577.679688 451.148438 578.082031 450.933594 578.472656 C 450.71875 578.859375 450.46875 579.222656 450.183594 579.558594 L 406.523438 631.039062 C 406.234375 631.375 405.917969 631.683594 405.570312 631.957031 C 405.226562 632.234375 404.855469 632.472656 404.460938 632.675781 C 404.066406 632.878906 403.65625 633.039062 403.230469 633.164062 C 402.804688 633.285156 402.371094 633.363281 401.925781 633.398438 C 401.484375 633.4375 401.042969 633.429688 400.605469 633.378906 C 400.164062 633.328125 399.734375 633.234375 399.3125 633.097656 C 398.890625 632.964844 398.484375 632.789062 398.097656 632.574219 C 397.710938 632.359375 397.347656 632.105469 397.007812 631.820312 C 396.671875 631.535156 396.363281 631.214844 396.089844 630.871094 C 395.8125 630.523438 395.574219 630.152344 395.371094 629.757812 C 395.167969 629.363281 395.007812 628.953125 394.882812 628.527344 C 394.761719 628.101562 394.683594 627.667969 394.648438 627.226562 C 394.609375 626.785156 394.617188 626.34375 394.667969 625.902344 C 394.71875 625.460938 394.8125 625.03125 394.949219 624.609375 C 395.082031 624.1875 395.257812 623.78125 395.472656 623.394531 C 395.6875 623.007812 395.941406 622.644531 396.226562 622.304688 Z M 457.351562 550.234375 L 501.007812 498.757812 C 501.296875 498.417969 501.613281 498.113281 501.960938 497.835938 C 502.308594 497.5625 502.679688 497.320312 503.070312 497.117188 C 503.464844 496.917969 503.875 496.753906 504.304688 496.632812 C 504.730469 496.511719 505.164062 496.429688 505.605469 496.394531 C 506.046875 496.359375 506.488281 496.367188 506.925781 496.417969 C 507.367188 496.46875 507.800781 496.558594 508.222656 496.695312 C 508.644531 496.832031 509.046875 497.007812 509.433594 497.222656 C 509.824219 497.4375 510.183594 497.6875 510.523438 497.976562 C 510.863281 498.261719 511.167969 498.578125 511.445312 498.925781 C 511.71875 499.273438 511.957031 499.644531 512.160156 500.039062 C 512.363281 500.429688 512.527344 500.839844 512.648438 501.269531 C 512.769531 501.695312 512.847656 502.128906 512.886719 502.570312 C 512.921875 503.011719 512.914062 503.453125 512.863281 503.894531 C 512.8125 504.332031 512.71875 504.765625 512.585938 505.1875 C 512.449219 505.609375 512.273438 506.011719 512.058594 506.398438 C 511.84375 506.789062 511.59375 507.152344 511.304688 507.488281 L 467.644531 558.96875 C 467.359375 559.304688 467.042969 559.613281 466.695312 559.886719 C 466.347656 560.164062 465.976562 560.402344 465.582031 560.605469 C 465.1875 560.808594 464.777344 560.96875 464.351562 561.09375 C 463.925781 561.214844 463.492188 561.292969 463.050781 561.328125 C 462.609375 561.367188 462.167969 561.359375 461.726562 561.308594 C 461.289062 561.257812 460.855469 561.164062 460.433594 561.027344 C 460.011719 560.894531 459.609375 560.71875 459.21875 560.503906 C 458.832031 560.289062 458.46875 560.035156 458.132812 559.75 C 457.792969 559.464844 457.488281 559.144531 457.210938 558.800781 C 456.9375 558.453125 456.695312 558.082031 456.496094 557.6875 C 456.292969 557.292969 456.128906 556.882812 456.007812 556.457031 C 455.886719 556.03125 455.808594 555.597656 455.769531 555.15625 C 455.734375 554.710938 455.742188 554.273438 455.792969 553.832031 C 455.84375 553.390625 455.9375 552.960938 456.070312 552.539062 C 456.207031 552.117188 456.382812 551.710938 456.597656 551.324219 C 456.8125 550.9375 457.0625 550.574219 457.351562 550.234375 Z M 518.472656 478.164062 L 562.132812 426.6875 C 562.417969 426.347656 562.738281 426.042969 563.082031 425.765625 C 563.429688 425.488281 563.800781 425.25 564.195312 425.046875 C 564.589844 424.847656 565 424.683594 565.425781 424.5625 C 565.851562 424.441406 566.285156 424.359375 566.726562 424.324219 C 567.167969 424.289062 567.609375 424.296875 568.050781 424.347656 C 568.492188 424.398438 568.921875 424.488281 569.34375 424.625 C 569.765625 424.761719 570.171875 424.9375 570.558594 425.152344 C 570.945312 425.367188 571.308594 425.617188 571.648438 425.902344 C 571.984375 426.191406 572.292969 426.507812 572.566406 426.855469 C 572.84375 427.203125 573.082031 427.574219 573.285156 427.964844 C 573.488281 428.359375 573.648438 428.769531 573.769531 429.195312 C 573.894531 429.625 573.972656 430.058594 574.007812 430.5 C 574.042969 430.941406 574.039062 431.382812 573.988281 431.820312 C 573.9375 432.261719 573.84375 432.695312 573.707031 433.117188 C 573.570312 433.539062 573.398438 433.941406 573.179688 434.328125 C 572.964844 434.71875 572.714844 435.078125 572.429688 435.417969 L 528.769531 486.898438 C 528.484375 487.234375 528.164062 487.542969 527.820312 487.816406 C 527.472656 488.09375 527.101562 488.332031 526.707031 488.535156 C 526.3125 488.738281 525.902344 488.898438 525.476562 489.019531 C 525.050781 489.144531 524.617188 489.222656 524.175781 489.257812 C 523.734375 489.292969 523.292969 489.289062 522.851562 489.238281 C 522.410156 489.1875 521.980469 489.09375 521.558594 488.957031 C 521.136719 488.824219 520.730469 488.648438 520.34375 488.433594 C 519.957031 488.214844 519.59375 487.964844 519.253906 487.679688 C 518.917969 487.390625 518.609375 487.074219 518.335938 486.726562 C 518.058594 486.382812 517.820312 486.011719 517.617188 485.617188 C 517.414062 485.222656 517.253906 484.8125 517.132812 484.386719 C 517.007812 483.960938 516.929688 483.527344 516.894531 483.082031 C 516.859375 482.640625 516.863281 482.203125 516.914062 481.761719 C 516.964844 481.320312 517.058594 480.890625 517.195312 480.46875 C 517.328125 480.046875 517.503906 479.640625 517.71875 479.253906 C 517.9375 478.867188 518.1875 478.503906 518.472656 478.164062 Z M 579.597656 406.09375 L 623.257812 354.617188 C 623.542969 354.277344 623.859375 353.96875 624.207031 353.695312 C 624.554688 353.417969 624.925781 353.179688 625.320312 352.976562 C 625.714844 352.773438 626.125 352.613281 626.550781 352.492188 C 626.976562 352.371094 627.410156 352.289062 627.851562 352.253906 C 628.292969 352.21875 628.734375 352.226562 629.175781 352.273438 C 629.613281 352.324219 630.046875 352.417969 630.46875 352.554688 C 630.890625 352.691406 631.292969 352.867188 631.683594 353.082031 C 632.070312 353.296875 632.433594 353.546875 632.769531 353.832031 C 633.109375 354.121094 633.414062 354.4375 633.691406 354.785156 C 633.964844 355.132812 634.207031 355.5 634.40625 355.894531 C 634.609375 356.289062 634.773438 356.699219 634.894531 357.125 C 635.015625 357.550781 635.09375 357.988281 635.132812 358.429688 C 635.167969 358.871094 635.160156 359.3125 635.109375 359.75 C 635.058594 360.191406 634.964844 360.621094 634.832031 361.042969 C 634.695312 361.46875 634.519531 361.871094 634.304688 362.257812 C 634.089844 362.644531 633.839844 363.007812 633.550781 363.347656 L 589.890625 414.828125 C 589.605469 415.164062 589.289062 415.472656 588.941406 415.746094 C 588.59375 416.023438 588.222656 416.261719 587.828125 416.464844 C 587.4375 416.667969 587.027344 416.828125 586.597656 416.949219 C 586.171875 417.074219 585.738281 417.152344 585.296875 417.1875 C 584.855469 417.222656 584.414062 417.214844 583.972656 417.167969 C 583.535156 417.117188 583.101562 417.023438 582.679688 416.886719 C 582.257812 416.75 581.855469 416.578125 581.46875 416.359375 C 581.078125 416.144531 580.714844 415.894531 580.378906 415.609375 C 580.039062 415.320312 579.734375 415.003906 579.457031 414.65625 C 579.183594 414.308594 578.945312 413.941406 578.742188 413.546875 C 578.539062 413.152344 578.375 412.742188 578.253906 412.316406 C 578.132812 411.890625 578.054688 411.453125 578.015625 411.011719 C 577.980469 410.570312 577.988281 410.128906 578.039062 409.691406 C 578.089844 409.25 578.183594 408.820312 578.316406 408.398438 C 578.453125 407.976562 578.628906 407.570312 578.84375 407.183594 C 579.058594 406.796875 579.308594 406.433594 579.597656 406.09375 Z M 640.71875 334.023438 L 684.378906 282.542969 C 684.667969 282.207031 684.984375 281.898438 685.332031 281.625 C 685.675781 281.347656 686.046875 281.109375 686.441406 280.90625 C 686.835938 280.703125 687.246094 280.542969 687.671875 280.421875 C 688.097656 280.296875 688.53125 280.21875 688.972656 280.183594 C 689.417969 280.148438 689.855469 280.152344 690.296875 280.203125 C 690.738281 280.253906 691.167969 280.347656 691.589844 280.484375 C 692.011719 280.621094 692.417969 280.792969 692.804688 281.011719 C 693.191406 281.226562 693.554688 281.476562 693.894531 281.761719 C 694.230469 282.050781 694.539062 282.367188 694.8125 282.714844 C 695.089844 283.058594 695.328125 283.429688 695.53125 283.824219 C 695.734375 284.21875 695.894531 284.628906 696.019531 285.054688 C 696.140625 285.480469 696.21875 285.914062 696.253906 286.359375 C 696.292969 286.800781 696.285156 287.242188 696.234375 287.679688 C 696.183594 288.121094 696.089844 288.550781 695.953125 288.972656 C 695.820312 289.394531 695.644531 289.800781 695.429688 290.1875 C 695.214844 290.574219 694.960938 290.9375 694.675781 291.277344 L 651.015625 342.753906 C 650.730469 343.09375 650.414062 343.398438 650.066406 343.675781 C 649.71875 343.953125 649.347656 344.191406 648.953125 344.394531 C 648.558594 344.597656 648.148438 344.757812 647.722656 344.878906 C 647.296875 345 646.863281 345.082031 646.421875 345.117188 C 645.980469 345.152344 645.539062 345.144531 645.097656 345.09375 C 644.65625 345.046875 644.226562 344.953125 643.804688 344.816406 C 643.382812 344.679688 642.976562 344.503906 642.589844 344.289062 C 642.203125 344.074219 641.839844 343.824219 641.503906 343.539062 C 641.164062 343.25 640.855469 342.933594 640.582031 342.585938 C 640.304688 342.238281 640.066406 341.867188 639.863281 341.476562 C 639.660156 341.082031 639.5 340.671875 639.378906 340.246094 C 639.257812 339.816406 639.175781 339.382812 639.140625 338.941406 C 639.105469 338.5 639.113281 338.058594 639.160156 337.621094 C 639.210938 337.179688 639.304688 336.746094 639.441406 336.324219 C 639.578125 335.902344 639.753906 335.5 639.96875 335.113281 C 640.183594 334.722656 640.433594 334.363281 640.71875 334.023438 Z M 701.84375 261.953125 L 745.503906 210.472656 C 745.789062 210.136719 746.105469 209.828125 746.453125 209.554688 C 746.800781 209.277344 747.171875 209.039062 747.566406 208.835938 C 747.960938 208.632812 748.371094 208.472656 748.796875 208.351562 C 749.222656 208.226562 749.65625 208.148438 750.097656 208.113281 C 750.539062 208.078125 750.980469 208.082031 751.421875 208.132812 C 751.859375 208.183594 752.292969 208.277344 752.714844 208.414062 C 753.136719 208.546875 753.542969 208.722656 753.929688 208.9375 C 754.316406 209.15625 754.679688 209.40625 755.015625 209.691406 C 755.355469 209.980469 755.660156 210.296875 755.9375 210.644531 C 756.210938 210.988281 756.453125 211.359375 756.65625 211.753906 C 756.855469 212.148438 757.019531 212.558594 757.140625 212.984375 C 757.261719 213.410156 757.34375 213.84375 757.378906 214.285156 C 757.414062 214.730469 757.40625 215.167969 757.355469 215.609375 C 757.304688 216.050781 757.214844 216.480469 757.078125 216.902344 C 756.941406 217.324219 756.765625 217.730469 756.550781 218.117188 C 756.335938 218.503906 756.085938 218.867188 755.796875 219.207031 L 712.140625 270.683594 C 711.851562 271.023438 711.535156 271.328125 711.1875 271.605469 C 710.839844 271.882812 710.472656 272.121094 710.078125 272.324219 C 709.683594 272.523438 709.273438 272.6875 708.847656 272.808594 C 708.417969 272.929688 707.984375 273.011719 707.542969 273.046875 C 707.101562 273.082031 706.660156 273.074219 706.222656 273.023438 C 705.78125 272.972656 705.351562 272.882812 704.925781 272.746094 C 704.503906 272.609375 704.101562 272.433594 703.714844 272.21875 C 703.324219 272.003906 702.964844 271.753906 702.625 271.464844 C 702.289062 271.179688 701.980469 270.863281 701.703125 270.515625 C 701.429688 270.167969 701.191406 269.796875 700.988281 269.402344 C 700.785156 269.011719 700.621094 268.601562 700.5 268.171875 C 700.378906 267.746094 700.300781 267.3125 700.265625 266.871094 C 700.226562 266.429688 700.234375 265.988281 700.285156 265.546875 C 700.335938 265.109375 700.429688 264.675781 700.566406 264.253906 C 700.699219 263.832031 700.875 263.429688 701.089844 263.042969 C 701.304688 262.652344 701.558594 262.289062 701.84375 261.953125 Z M 701.84375 261.953125 " fill-opacity="1" fill-rule="nonzero"/><g clip-path="url(#e80f5c07fd)"><g clip-path="url(#b9158755aa)"><path fill="#cc0829" d="M 742.710938 391.761719 L 775.511719 391.761719 L 775.511719 424.566406 L 742.710938 424.566406 Z M 742.710938 391.761719 " fill-opacity="1" fill-rule="nonzero"/></g></g></svg>