<svg xmlns="http://www.w3.org/2000/svg" xmlns:xlink="http://www.w3.org/1999/xlink" width="2000" zoomAndPan="magnify" viewBox="0 0 1500 1124.99995" height="1500" preserveAspectRatio="xMidYMid meet" version="1.0"><defs><clipPath id="15defaebdd"><path d="M 686.878906 638.328125 L 716.878906 638.328125 L 716.878906 671.324219 L 686.878906 671.324219 Z M 686.878906 638.328125 " clip-rule="nonzero"/></clipPath><clipPath id="14a86f73a9"><path d="M 686.878906 665.328125 L 686.878906 643.976562 C 686.878906 640.664062 689.566406 637.980469 692.878906 637.980469 L 710.871094 637.980469 C 714.183594 637.980469 716.867188 640.664062 716.867188 643.976562 L 716.867188 665.328125 C 716.867188 668.640625 714.183594 671.324219 710.871094 671.324219 L 692.878906 671.324219 C 689.566406 671.324219 686.878906 668.640625 686.878906 665.328125 Z M 686.878906 665.328125 " clip-rule="nonzero"/></clipPath><clipPath id="44fa8d0a4a"><path d="M 622 483 L 661 483 L 661 524 L 622 524 Z M 622 483 " clip-rule="nonzero"/></clipPath><clipPath id="02778b7918"><path d="M 638.039062 525.429688 L 620.035156 497.773438 L 645.179688 481.40625 L 663.179688 509.0625 Z M 638.039062 525.429688 " clip-rule="nonzero"/></clipPath><clipPath id="a8986dcb17"><path d="M 638.035156 525.425781 L 617.980469 494.613281 L 645.710938 476.5625 L 665.765625 507.375 Z M 638.035156 525.425781 " clip-rule="nonzero"/></clipPath><clipPath id="1991aea381"><path d="M 634.765625 520.398438 L 623.117188 502.507812 C 621.3125 499.730469 622.097656 496.015625 624.871094 494.207031 L 639.953125 484.390625 C 642.730469 482.585938 646.445312 483.371094 648.25 486.148438 L 659.898438 504.039062 C 661.703125 506.816406 660.917969 510.53125 658.144531 512.339844 L 643.0625 522.152344 C 640.289062 523.960938 636.570312 523.175781 634.765625 520.398438 Z M 634.765625 520.398438 " clip-rule="nonzero"/></clipPath><clipPath id="82e6870ce2"><path d="M 958 482 L 998 482 L 998 520 L 958 520 Z M 958 482 " clip-rule="nonzero"/></clipPath><clipPath id="2180602ac4"><path d="M 999.117188 508.824219 L 968.628906 521.453125 L 957.148438 493.734375 L 987.636719 481.109375 Z M 999.117188 508.824219 " clip-rule="nonzero"/></clipPath><clipPath id="175dda87fb"><path d="M 999.113281 508.824219 L 965.148438 522.894531 L 952.484375 492.324219 L 986.449219 478.257812 Z M 999.113281 508.824219 " clip-rule="nonzero"/></clipPath><clipPath id="d7b7cbb589"><path d="M 993.570312 511.121094 L 973.847656 519.289062 C 970.785156 520.558594 967.277344 519.105469 966.011719 516.042969 L 959.125 499.421875 C 957.859375 496.359375 959.3125 492.851562 962.371094 491.585938 L 982.097656 483.414062 C 985.15625 482.148438 988.664062 483.601562 989.933594 486.660156 L 996.816406 503.285156 C 998.085938 506.34375 996.632812 509.851562 993.570312 511.121094 Z M 993.570312 511.121094 " clip-rule="nonzero"/></clipPath><clipPath id="13d0e9e776"><path d="M 702.136719 583.710938 L 725.015625 583.710938 L 725.015625 606.589844 L 702.136719 606.589844 Z M 702.136719 583.710938 " clip-rule="nonzero"/></clipPath><clipPath id="ba47a1ed5b"><path d="M 713.578125 583.710938 C 707.257812 583.710938 702.136719 588.835938 702.136719 595.152344 C 702.136719 601.46875 707.257812 606.589844 713.578125 606.589844 C 719.894531 606.589844 725.015625 601.46875 725.015625 595.152344 C 725.015625 588.835938 719.894531 583.710938 713.578125 583.710938 Z M 713.578125 583.710938 " clip-rule="nonzero"/></clipPath><clipPath id="e4bbb4fbdb"><path d="M 349.722656 231.296875 L 1077.222656 231.296875 L 1077.222656 958.796875 L 349.722656 958.796875 Z M 349.722656 231.296875 " clip-rule="nonzero"/></clipPath><clipPath id="d252887765"><path d="M 713.578125 231.296875 C 512.625 231.296875 349.722656 394.199219 349.722656 595.152344 C 349.722656 796.101562 512.625 959.007812 713.578125 959.007812 C 914.527344 959.007812 1077.433594 796.101562 1077.433594 595.152344 C 1077.433594 394.199219 914.527344 231.296875 713.578125 231.296875 Z M 713.578125 231.296875 " clip-rule="nonzero"/></clipPath></defs><rect x="-150" width="1800" fill="#ffffff" y="-112.499995" height="1349.99994" fill-opacity="1"/><rect x="-150" width="1800" fill="#ffffff" y="-112.499995" height="1349.99994" fill-opacity="1"/><g clip-path="url(#15defaebdd)"><g clip-path="url(#14a86f73a9)"><path stroke-linecap="butt" transform="matrix(0, -0.75, 0.75, 0, 686.879566, 671.324754)" fill="none" stroke-linejoin="miter" d="M 7.995506 -0.000879914 L 36.464256 -0.000879914 C 40.880923 -0.000879914 44.459048 3.582453 44.459048 7.99912 L 44.459048 31.988704 C 44.459048 36.405371 40.880923 39.983496 36.464256 39.983496 L 7.995506 39.983496 C 3.578839 39.983496 0.000713922 36.405371 0.000713922 31.988704 L 0.000713922 7.99912 C 0.000713922 3.582453 3.578839 -0.000879914 7.995506 -0.000879914 Z M 7.995506 -0.000879914 " stroke="#cc0829" stroke-width="18" stroke-opacity="1" stroke-miterlimit="4"/></g></g><path stroke-linecap="round" transform="matrix(-0.75, 0, 0, -0.75, 1063.79327, 673.160538)" fill="none" stroke-linejoin="miter" d="M 6.500402 6.50051 L 926.104648 6.50051 " stroke="#000000" stroke-width="13" stroke-opacity="1" stroke-miterlimit="4"/><g clip-path="url(#44fa8d0a4a)"><g clip-path="url(#02778b7918)"><g clip-path="url(#a8986dcb17)"><g clip-path="url(#1991aea381)"><path stroke-linecap="butt" transform="matrix(-0.409148, -0.628568, 0.628568, -0.409148, 638.036762, 525.425959)" fill="none" stroke-linejoin="miter" d="M 7.997367 0.00154762 L 36.462098 -0.00185243 C 40.878337 0.00166266 44.4584 3.581123 44.462092 7.995837 L 44.461182 31.989521 C 44.457667 36.405759 40.878207 39.985823 36.461968 39.982308 L 7.997237 39.985708 C 3.580999 39.982193 0.000934825 36.402733 -0.00275644 31.988018 L 0.00251838 7.997176 C -0.00117289 3.582461 3.581129 -0.00196748 7.997367 0.00154762 Z M 7.997367 0.00154762 " stroke="#cc0829" stroke-width="18" stroke-opacity="1" stroke-miterlimit="4"/></g></g></g></g><path stroke-linecap="round" transform="matrix(0.627219, -0.411212, 0.411212, 0.627219, 361.674259, 664.205539)" fill="none" stroke-linejoin="miter" d="M 6.502065 6.501021 L 876.608328 6.497477 " stroke="#000000" stroke-width="13" stroke-opacity="1" stroke-miterlimit="4"/><g clip-path="url(#82e6870ce2)"><g clip-path="url(#2180602ac4)"><g clip-path="url(#175dda87fb)"><g clip-path="url(#d7b7cbb589)"><path stroke-linecap="butt" transform="matrix(-0.692913, 0.287004, -0.287004, -0.692913, 999.112555, 508.825592)" fill="none" stroke-linejoin="miter" d="M 7.99842 0.000116585 L 36.461227 0.00153662 C 40.881507 0.000250362 44.461161 3.580067 44.457636 7.998354 L 44.460425 31.986783 C 44.456899 36.40507 40.877082 39.984724 36.463607 39.983192 L 7.998807 39.986583 C 3.580521 39.983058 0.000866181 36.403241 -0.00241316 31.987773 L 0.00160293 7.996525 C -0.00167641 3.581057 3.578141 0.00140284 7.99842 0.000116585 Z M 7.99842 0.000116585 " stroke="#cc0829" stroke-width="18" stroke-opacity="1" stroke-miterlimit="4"/></g></g></g></g><path stroke-linecap="round" transform="matrix(-0.285338, -0.693601, 0.693601, -0.285338, 1059.286814, 673.18773)" fill="none" stroke-linejoin="miter" d="M 6.50006 6.501293 L 521.465649 6.497849 " stroke="#000000" stroke-width="13" stroke-opacity="1" stroke-miterlimit="4"/><path stroke-linecap="round" transform="matrix(-0.75, 0, 0, -0.75, 1063.79327, 673.160538)" fill="none" stroke-linejoin="miter" d="M 6.500402 6.50051 L 926.104648 6.50051 " stroke="#000000" stroke-width="13" stroke-opacity="1" stroke-miterlimit="4"/><path stroke-linecap="round" transform="matrix(0, -0.75, 0.75, 0, 708.43766, 774.959433)" fill="none" stroke-linejoin="miter" d="M 6.497995 6.499787 L 619.930339 6.499787 " stroke="#1e76e9" stroke-width="13" stroke-opacity="1" stroke-miterlimit="4"/><path stroke-linecap="round" transform="matrix(-0.696265, 0.278774, -0.278774, -0.696265, 1148.38119, 424.835559)" fill="none" stroke-linejoin="miter" d="M 6.5002 6.501186 L 1013.610299 6.498106 " stroke="#1e76e9" stroke-width="13" stroke-opacity="1" stroke-miterlimit="4"/><path stroke-linecap="round" transform="matrix(-0.405434, -0.63097, 0.63097, -0.405434, 857.062808, 823.934429)" fill="none" stroke-linejoin="miter" d="M 6.49946 6.497351 L 728.554898 6.502599 " stroke="#1e76e9" stroke-width="13" stroke-opacity="1" stroke-miterlimit="4"/><g clip-path="url(#13d0e9e776)"><g clip-path="url(#ba47a1ed5b)"><path fill="#cc0829" d="M 702.136719 583.710938 L 725.015625 583.710938 L 725.015625 606.589844 L 702.136719 606.589844 Z M 702.136719 583.710938 " fill-opacity="1" fill-rule="nonzero"/></g></g><g clip-path="url(#e4bbb4fbdb)"><g clip-path="url(#d252887765)"><path stroke-linecap="butt" transform="matrix(0.75, 0, 0, 0.75, 349.721048, 231.295741)" fill="none" stroke-linejoin="miter" d="M 485.142811 0.00151216 C 217.205288 0.00151216 0.00214431 217.204656 0.00214431 485.142179 C 0.00214431 753.074494 217.205288 970.282846 485.142811 970.282846 C 753.075126 970.282846 970.283478 753.074494 970.283478 485.142179 C 970.283478 217.204656 753.075126 0.00151216 485.142811 0.00151216 Z M 485.142811 0.00151216 " stroke="#5e17eb" stroke-width="30" stroke-opacity="1" stroke-miterlimit="4"/></g></g></svg>