<svg xmlns="http://www.w3.org/2000/svg" xmlns:xlink="http://www.w3.org/1999/xlink" width="2000" zoomAndPan="magnify" viewBox="0 0 1500 1124.99995" height="1500" preserveAspectRatio="xMidYMid meet" version="1.0"><defs><g/><clipPath id="dea5c629b9"><path d="M 746.40625 603.714844 L 779.207031 603.714844 L 779.207031 636.515625 L 746.40625 636.515625 Z M 746.40625 603.714844 " clip-rule="nonzero"/></clipPath><clipPath id="f01b2a4616"><path d="M 762.808594 603.714844 C 753.75 603.714844 746.40625 611.054688 746.40625 620.113281 C 746.40625 629.171875 753.75 636.515625 762.808594 636.515625 C 771.867188 636.515625 779.207031 629.171875 779.207031 620.113281 C 779.207031 611.054688 771.867188 603.714844 762.808594 603.714844 Z M 762.808594 603.714844 " clip-rule="nonzero"/></clipPath></defs><rect x="-150" width="1800" fill="#ffffff" y="-112.499995" height="1349.99994" fill-opacity="1"/><rect x="-150" width="1800" fill="#ffffff" y="-112.499995" height="1349.99994" fill-opacity="1"/><path stroke-linecap="round" transform="matrix(0.120572, -0.740245, 0.740245, 0.120572, 728.115787, 792.902384)" fill="none" stroke-linejoin="miter" d="M 9.001497 8.999945 L 678.068848 9.000991 " stroke="#1e76e9" stroke-width="18" stroke-opacity="1" stroke-miterlimit="4"/><path stroke-linecap="round" transform="matrix(0.70948, -0.243182, 0.243182, 0.70948, 254.134348, 787.602152)" fill="none" stroke-linejoin="miter" d="M 8.997547 9.001898 L 1075.342614 9.001192 " stroke="#1e76e9" stroke-width="18" stroke-opacity="1" stroke-miterlimit="4"/><path stroke-linecap="round" transform="matrix(0.706044, 0.252984, -0.252984, 0.706044, 539.195675, 532.149438)" fill="none" stroke-linejoin="miter" d="M 9.000526 9.000595 L 997.369472 9.00225 " stroke="#1e76e9" stroke-width="18" stroke-opacity="1" stroke-miterlimit="4"/><path stroke-linecap="round" transform="matrix(0.561304, -0.497431, 0.497431, 0.561304, 245.155486, 788.046416)" fill="none" stroke-linejoin="miter" d="M 8.999646 8.999377 L 1014.640068 8.997351 " stroke="#000000" stroke-width="18" stroke-opacity="1" stroke-miterlimit="4"/><path stroke-linecap="round" transform="matrix(-0.48617, -0.571086, 0.571086, -0.48617, 1247.39851, 801.846295)" fill="none" stroke-linejoin="miter" d="M 8.997815 9.000436 L 882.622487 8.999615 " stroke="#000000" stroke-width="18" stroke-opacity="1" stroke-miterlimit="4"/><path stroke-linecap="round" transform="matrix(-0.75, 0, 0, -0.75, 1252.534605, 799.848079)" fill="none" stroke-linejoin="miter" d="M 8.999266 9.000565 L 1328.21813 9.000565 " stroke="#000000" stroke-width="18" stroke-opacity="1" stroke-miterlimit="4"/><g clip-path="url(#dea5c629b9)"><g clip-path="url(#f01b2a4616)"><path fill="#cc0829" d="M 746.40625 603.714844 L 779.207031 603.714844 L 779.207031 636.515625 L 746.40625 636.515625 Z M 746.40625 603.714844 " fill-opacity="1" fill-rule="nonzero"/></g></g><g fill="#000000" fill-opacity="1"><g transform="translate(789.795013, 257.315862)"><g><path d="M 42.4375 0 L 38.265625 -13.6875 L 17.3125 -13.6875 L 13.140625 0 L 0 0 L 20.296875 -57.734375 L 35.203125 -57.734375 L 55.578125 0 Z M 35.359375 -23.90625 C 31.503906 -36.3125 29.332031 -43.328125 28.84375 -44.953125 C 28.363281 -46.578125 28.019531 -47.863281 27.8125 -48.8125 C 26.945312 -45.457031 24.46875 -37.15625 20.375 -23.90625 Z M 35.359375 -23.90625 "/></g></g></g><g fill="#000000" fill-opacity="1"><g transform="translate(165.608925, 853.244211)"><g><path d="M 7.234375 -57.5 L 25.125 -57.5 C 33.28125 -57.5 39.203125 -56.335938 42.890625 -54.015625 C 46.578125 -51.691406 48.421875 -48.003906 48.421875 -42.953125 C 48.421875 -39.515625 47.613281 -36.691406 46 -34.484375 C 44.382812 -32.285156 42.238281 -30.960938 39.5625 -30.515625 L 39.5625 -30.125 C 43.207031 -29.3125 45.835938 -27.789062 47.453125 -25.5625 C 49.066406 -23.332031 49.875 -20.367188 49.875 -16.671875 C 49.875 -11.429688 47.976562 -7.34375 44.1875 -4.40625 C 40.394531 -1.46875 35.25 0 28.75 0 L 7.234375 0 Z M 19.421875 -34.734375 L 26.515625 -34.734375 C 29.816406 -34.734375 32.207031 -35.242188 33.6875 -36.265625 C 35.164062 -37.285156 35.90625 -38.972656 35.90625 -41.328125 C 35.90625 -43.535156 35.097656 -45.117188 33.484375 -46.078125 C 31.878906 -47.035156 29.332031 -47.515625 25.84375 -47.515625 L 19.421875 -47.515625 Z M 19.421875 -25.046875 L 19.421875 -10.0625 L 27.375 -10.0625 C 30.726562 -10.0625 33.203125 -10.703125 34.796875 -11.984375 C 36.398438 -13.273438 37.203125 -15.242188 37.203125 -17.890625 C 37.203125 -22.660156 33.796875 -25.046875 26.984375 -25.046875 Z M 19.421875 -25.046875 "/></g></g></g><g fill="#000000" fill-opacity="1"><g transform="translate(1283.184307, 853.244211)"><g><path d="M 31.65625 -48.171875 C 27.070312 -48.171875 23.519531 -46.445312 21 -43 C 18.476562 -39.550781 17.21875 -34.75 17.21875 -28.59375 C 17.21875 -15.769531 22.03125 -9.359375 31.65625 -9.359375 C 35.695312 -9.359375 40.585938 -10.367188 46.328125 -12.390625 L 46.328125 -2.15625 C 41.609375 -0.195312 36.335938 0.78125 30.515625 0.78125 C 22.148438 0.78125 15.753906 -1.753906 11.328125 -6.828125 C 6.898438 -11.898438 4.6875 -19.179688 4.6875 -28.671875 C 4.6875 -34.648438 5.769531 -39.882812 7.9375 -44.375 C 10.113281 -48.875 13.238281 -52.320312 17.3125 -54.71875 C 21.394531 -57.125 26.175781 -58.328125 31.65625 -58.328125 C 37.238281 -58.328125 42.851562 -56.976562 48.5 -54.28125 L 44.5625 -44.359375 C 42.40625 -45.378906 40.238281 -46.269531 38.0625 -47.03125 C 35.894531 -47.789062 33.757812 -48.171875 31.65625 -48.171875 Z M 31.65625 -48.171875 "/></g></g></g></svg>