<svg xmlns="http://www.w3.org/2000/svg" xmlns:xlink="http://www.w3.org/1999/xlink" width="2000" zoomAndPan="magnify" viewBox="0 0 1500 1124.99995" height="1500" preserveAspectRatio="xMidYMid meet" version="1.0"><defs><g/><clipPath id="993053d4a4"><path d="M 261.933594 314.441406 L 1069.675781 314.441406 L 1069.675781 936.191406 L 261.933594 936.191406 Z M 261.933594 314.441406 " clip-rule="nonzero"/></clipPath><clipPath id="11329fdc38"><path d="M 665.941406 314.441406 C 442.816406 314.441406 261.933594 453.644531 261.933594 625.359375 C 261.933594 797.070312 442.816406 936.273438 665.941406 936.273438 C 889.070312 936.273438 1069.953125 797.070312 1069.953125 625.359375 C 1069.953125 453.644531 889.070312 314.441406 665.941406 314.441406 Z M 665.941406 314.441406 " clip-rule="nonzero"/></clipPath><clipPath id="71a378009b"><path d="M 489.207031 681.65625 L 517.96875 681.65625 L 517.96875 710.417969 L 489.207031 710.417969 Z M 489.207031 681.65625 " clip-rule="nonzero"/></clipPath><clipPath id="37eaa07209"><path d="M 503.589844 681.65625 C 495.644531 681.65625 489.207031 688.09375 489.207031 696.035156 C 489.207031 703.976562 495.644531 710.417969 503.589844 710.417969 C 511.53125 710.417969 517.96875 703.976562 517.96875 696.035156 C 517.96875 688.09375 511.53125 681.65625 503.589844 681.65625 Z M 503.589844 681.65625 " clip-rule="nonzero"/></clipPath><clipPath id="879d945fd1"><path d="M 786.9375 509.949219 L 815.699219 509.949219 L 815.699219 538.710938 L 786.9375 538.710938 Z M 786.9375 509.949219 " clip-rule="nonzero"/></clipPath><clipPath id="d15d8600f2"><path d="M 801.316406 509.949219 C 793.375 509.949219 786.9375 516.386719 786.9375 524.328125 C 786.9375 532.273438 793.375 538.710938 801.316406 538.710938 C 809.261719 538.710938 815.699219 532.273438 815.699219 524.328125 C 815.699219 516.386719 809.261719 509.949219 801.316406 509.949219 Z M 801.316406 509.949219 " clip-rule="nonzero"/></clipPath><clipPath id="46fab0b4b0"><path d="M 772.554688 750.234375 L 801.316406 750.234375 L 801.316406 778.996094 L 772.554688 778.996094 Z M 772.554688 750.234375 " clip-rule="nonzero"/></clipPath><clipPath id="286a7f52ab"><path d="M 786.9375 750.234375 C 778.996094 750.234375 772.554688 756.675781 772.554688 764.617188 C 772.554688 772.558594 778.996094 778.996094 786.9375 778.996094 C 794.878906 778.996094 801.316406 772.558594 801.316406 764.617188 C 801.316406 756.675781 794.878906 750.234375 786.9375 750.234375 Z M 786.9375 750.234375 " clip-rule="nonzero"/></clipPath><clipPath id="c6ec526256"><path d="M 200.320312 132.160156 L 1299.820312 132.160156 L 1299.820312 993 L 200.320312 993 Z M 200.320312 132.160156 " clip-rule="nonzero"/></clipPath><clipPath id="c7aa039506"><path d="M 750 132.160156 C 446.417969 132.160156 200.320312 324.828125 200.320312 562.5 C 200.320312 800.171875 446.417969 992.839844 750 992.839844 C 1053.578125 992.839844 1299.679688 800.171875 1299.679688 562.5 C 1299.679688 324.828125 1053.578125 132.160156 750 132.160156 Z M 750 132.160156 " clip-rule="nonzero"/></clipPath><clipPath id="810dd96083"><path d="M 772.554688 249.351562 L 801.316406 249.351562 L 801.316406 278.113281 L 772.554688 278.113281 Z M 772.554688 249.351562 " clip-rule="nonzero"/></clipPath><clipPath id="feea49c4be"><path d="M 786.9375 249.351562 C 778.996094 249.351562 772.554688 255.789062 772.554688 263.730469 C 772.554688 271.671875 778.996094 278.113281 786.9375 278.113281 C 794.878906 278.113281 801.316406 271.671875 801.316406 263.730469 C 801.316406 255.789062 794.878906 249.351562 786.9375 249.351562 Z M 786.9375 249.351562 " clip-rule="nonzero"/></clipPath><clipPath id="7309d6e1e0"><path d="M 1153.605469 495.566406 L 1182.367188 495.566406 L 1182.367188 524.328125 L 1153.605469 524.328125 Z M 1153.605469 495.566406 " clip-rule="nonzero"/></clipPath><clipPath id="3d41f92403"><path d="M 1167.988281 495.566406 C 1160.042969 495.566406 1153.605469 502.003906 1153.605469 509.949219 C 1153.605469 517.890625 1160.042969 524.328125 1167.988281 524.328125 C 1175.929688 524.328125 1182.367188 517.890625 1182.367188 509.949219 C 1182.367188 502.003906 1175.929688 495.566406 1167.988281 495.566406 Z M 1167.988281 495.566406 " clip-rule="nonzero"/></clipPath><clipPath id="1633941bb0"><path d="M 1119.539062 704.140625 L 1148.300781 704.140625 L 1148.300781 732.902344 L 1119.539062 732.902344 Z M 1119.539062 704.140625 " clip-rule="nonzero"/></clipPath><clipPath id="a46bff6bb2"><path d="M 1133.917969 704.140625 C 1125.976562 704.140625 1119.539062 710.578125 1119.539062 718.519531 C 1119.539062 726.464844 1125.976562 732.902344 1133.917969 732.902344 C 1141.859375 732.902344 1148.300781 726.464844 1148.300781 718.519531 C 1148.300781 710.578125 1141.859375 704.140625 1133.917969 704.140625 Z M 1133.917969 704.140625 " clip-rule="nonzero"/></clipPath></defs><rect x="-150" width="1800" fill="#ffffff" y="-112.499995" height="1349.99994" fill-opacity="1"/><rect x="-150" width="1800" fill="#ffffff" y="-112.499995" height="1349.99994" fill-opacity="1"/><g clip-path="url(#993053d4a4)"><g clip-path="url(#11329fdc38)"><path stroke-linecap="butt" transform="matrix(0.75, 0, 0, 0.75, 261.933438, 314.441437)" fill="none" stroke-linejoin="miter" d="M 538.677337 -0.0000408975 C 241.177312 -0.0000408975 0.000207696 185.604142 0.000207696 414.557286 C 0.000207696 643.505223 241.177312 829.109405 538.677337 829.109405 C 836.182571 829.109405 1077.359675 643.505223 1077.359675 414.557286 C 1077.359675 185.604142 836.182571 -0.0000408975 538.677337 -0.0000408975 Z M 538.677337 -0.0000408975 " stroke="#000000" stroke-width="22" stroke-opacity="1" stroke-miterlimit="4"/></g></g><g clip-path="url(#71a378009b)"><g clip-path="url(#37eaa07209)"><path fill="#1e76e9" d="M 489.207031 681.65625 L 517.96875 681.65625 L 517.96875 710.417969 L 489.207031 710.417969 Z M 489.207031 681.65625 " fill-opacity="1" fill-rule="nonzero"/></g></g><g clip-path="url(#879d945fd1)"><g clip-path="url(#d15d8600f2)"><path fill="#1e76e9" d="M 786.9375 509.949219 L 815.699219 509.949219 L 815.699219 538.710938 L 786.9375 538.710938 Z M 786.9375 509.949219 " fill-opacity="1" fill-rule="nonzero"/></g></g><g clip-path="url(#46fab0b4b0)"><g clip-path="url(#286a7f52ab)"><path fill="#1e76e9" d="M 772.554688 750.234375 L 801.316406 750.234375 L 801.316406 778.996094 L 772.554688 778.996094 Z M 772.554688 750.234375 " fill-opacity="1" fill-rule="nonzero"/></g></g><g fill="#000000" fill-opacity="1"><g transform="translate(523.730482, 667.339458)"><g><path d="M 25.53125 0 L 23.796875 -4.46875 L 23.5625 -4.46875 C 22.0625 -2.5625 20.515625 -1.238281 18.921875 -0.5 C 17.328125 0.226562 15.242188 0.59375 12.671875 0.59375 C 9.523438 0.59375 7.046875 -0.304688 5.234375 -2.109375 C 3.429688 -3.910156 2.53125 -6.472656 2.53125 -9.796875 C 2.53125 -13.285156 3.742188 -15.851562 6.171875 -17.5 C 8.609375 -19.15625 12.285156 -20.070312 17.203125 -20.25 L 22.890625 -20.421875 L 22.890625 -21.859375 C 22.890625 -25.191406 21.1875 -26.859375 17.78125 -26.859375 C 15.164062 -26.859375 12.085938 -26.066406 8.546875 -24.484375 L 5.578125 -30.53125 C 9.347656 -32.5 13.535156 -33.484375 18.140625 -33.484375 C 22.546875 -33.484375 25.921875 -32.523438 28.265625 -30.609375 C 30.609375 -28.691406 31.78125 -25.773438 31.78125 -21.859375 L 31.78125 0 Z M 22.890625 -15.203125 L 19.4375 -15.09375 C 16.832031 -15.007812 14.890625 -14.535156 13.609375 -13.671875 C 12.335938 -12.816406 11.703125 -11.507812 11.703125 -9.75 C 11.703125 -7.21875 13.148438 -5.953125 16.046875 -5.953125 C 18.128906 -5.953125 19.789062 -6.546875 21.03125 -7.734375 C 22.269531 -8.929688 22.890625 -10.519531 22.890625 -12.5 Z M 22.890625 -15.203125 "/></g></g></g><g fill="#000000" fill-opacity="1"><g transform="translate(808.561057, 740.388731)"><g><path d="M 22.953125 -33.4375 C 26.828125 -33.4375 29.859375 -31.921875 32.046875 -28.890625 C 34.242188 -25.867188 35.34375 -21.726562 35.34375 -16.46875 C 35.34375 -11.039062 34.210938 -6.835938 31.953125 -3.859375 C 29.691406 -0.890625 26.613281 0.59375 22.71875 0.59375 C 18.863281 0.59375 15.835938 -0.804688 13.640625 -3.609375 L 13.03125 -3.609375 L 11.53125 0 L 4.703125 0 L 4.703125 -45.671875 L 13.640625 -45.671875 L 13.640625 -35.046875 C 13.640625 -33.691406 13.523438 -31.53125 13.296875 -28.5625 L 13.640625 -28.5625 C 15.734375 -31.8125 18.835938 -33.4375 22.953125 -33.4375 Z M 20.078125 -26.265625 C 17.867188 -26.265625 16.253906 -25.582031 15.234375 -24.21875 C 14.210938 -22.863281 13.679688 -20.625 13.640625 -17.5 L 13.640625 -16.53125 C 13.640625 -13 14.160156 -10.46875 15.203125 -8.9375 C 16.253906 -7.414062 17.914062 -6.65625 20.1875 -6.65625 C 22.03125 -6.65625 23.492188 -7.5 24.578125 -9.1875 C 25.660156 -10.882812 26.203125 -13.347656 26.203125 -16.578125 C 26.203125 -19.804688 25.65625 -22.226562 24.5625 -23.84375 C 23.46875 -25.457031 21.972656 -26.265625 20.078125 -26.265625 Z M 20.078125 -26.265625 "/></g></g></g><g fill="#000000" fill-opacity="1"><g transform="translate(812.125898, 495.631544)"><g><path d="M 18.015625 0.59375 C 7.804688 0.59375 2.703125 -5.015625 2.703125 -16.234375 C 2.703125 -21.804688 4.085938 -26.066406 6.859375 -29.015625 C 9.640625 -31.960938 13.625 -33.4375 18.8125 -33.4375 C 22.601562 -33.4375 26.007812 -32.691406 29.03125 -31.203125 L 26.390625 -24.265625 C 24.972656 -24.835938 23.660156 -25.300781 22.453125 -25.65625 C 21.242188 -26.019531 20.03125 -26.203125 18.8125 -26.203125 C 14.15625 -26.203125 11.828125 -22.898438 11.828125 -16.296875 C 11.828125 -9.867188 14.15625 -6.65625 18.8125 -6.65625 C 20.53125 -6.65625 22.125 -6.882812 23.59375 -7.34375 C 25.0625 -7.8125 26.53125 -8.535156 28 -9.515625 L 28 -1.84375 C 26.550781 -0.925781 25.085938 -0.289062 23.609375 0.0625 C 22.128906 0.414062 20.265625 0.59375 18.015625 0.59375 Z M 18.015625 0.59375 "/></g></g></g><g fill="#1e76e9" fill-opacity="1"><g transform="translate(976.650754, 400.320479)"><g><path d="M 46.453125 0 L 41.890625 -14.984375 L 18.9375 -14.984375 L 14.375 0 L 0 0 L 22.21875 -63.1875 L 38.53125 -63.1875 L 60.828125 0 Z M 38.703125 -26.171875 C 34.484375 -39.742188 32.109375 -47.421875 31.578125 -49.203125 C 31.046875 -50.984375 30.664062 -52.390625 30.4375 -53.421875 C 29.488281 -49.742188 26.773438 -40.660156 22.296875 -26.171875 Z M 38.703125 -26.171875 "/></g></g></g><g clip-path="url(#c6ec526256)"><g clip-path="url(#c7aa039506)"><path stroke-linecap="butt" transform="matrix(0.75, 0, 0, 0.75, 200.318776, 132.158889)" fill="none" stroke-linejoin="miter" d="M 732.908362 0.00168911 C 328.132285 0.00168911 0.00204856 256.892336 0.00204856 573.788197 C 0.00204856 890.684057 328.132285 1147.574705 732.908362 1147.574705 C 1137.67923 1147.574705 1465.814675 890.684057 1465.814675 573.788197 C 1465.814675 256.892336 1137.67923 0.00168911 732.908362 0.00168911 Z M 732.908362 0.00168911 " stroke="#000000" stroke-width="22" stroke-opacity="1" stroke-miterlimit="4"/></g></g><g clip-path="url(#810dd96083)"><g clip-path="url(#feea49c4be)"><path fill="#cc0829" d="M 772.554688 249.351562 L 801.316406 249.351562 L 801.316406 278.113281 L 772.554688 278.113281 Z M 772.554688 249.351562 " fill-opacity="1" fill-rule="nonzero"/></g></g><g fill="#000000" fill-opacity="1"><g transform="translate(809.821595, 239.502808)"><g><path d="M 18.28125 -27.0625 C 16.382812 -27.0625 14.894531 -26.457031 13.8125 -25.25 C 12.738281 -24.050781 12.125 -22.347656 11.96875 -20.140625 L 24.53125 -20.140625 C 24.5 -22.347656 23.921875 -24.050781 22.796875 -25.25 C 21.679688 -26.457031 20.175781 -27.0625 18.28125 -27.0625 Z M 19.546875 0.59375 C 14.265625 0.59375 10.132812 -0.863281 7.15625 -3.78125 C 4.1875 -6.695312 2.703125 -10.828125 2.703125 -16.171875 C 2.703125 -21.671875 4.078125 -25.921875 6.828125 -28.921875 C 9.578125 -31.929688 13.375 -33.4375 18.21875 -33.4375 C 22.863281 -33.4375 26.476562 -32.113281 29.0625 -29.46875 C 31.644531 -26.820312 32.9375 -23.171875 32.9375 -18.515625 L 32.9375 -14.171875 L 11.765625 -14.171875 C 11.867188 -11.628906 12.625 -9.644531 14.03125 -8.21875 C 15.4375 -6.789062 17.410156 -6.078125 19.953125 -6.078125 C 21.929688 -6.078125 23.800781 -6.28125 25.5625 -6.6875 C 27.320312 -7.101562 29.160156 -7.757812 31.078125 -8.65625 L 31.078125 -1.734375 C 29.515625 -0.953125 27.84375 -0.367188 26.0625 0.015625 C 24.28125 0.398438 22.109375 0.59375 19.546875 0.59375 Z M 19.546875 0.59375 "/></g></g></g><g clip-path="url(#7309d6e1e0)"><g clip-path="url(#3d41f92403)"><path fill="#cc0829" d="M 1153.605469 495.566406 L 1182.367188 495.566406 L 1182.367188 524.328125 L 1153.605469 524.328125 Z M 1153.605469 495.566406 " fill-opacity="1" fill-rule="nonzero"/></g></g><g fill="#000000" fill-opacity="1"><g transform="translate(1175.229761, 481.25065)"><g><path d="M 15.09375 0.59375 C 11.226562 0.59375 8.195312 -0.898438 6 -3.890625 C 3.800781 -6.890625 2.703125 -11.039062 2.703125 -16.34375 C 2.703125 -21.726562 3.820312 -25.921875 6.0625 -28.921875 C 8.300781 -31.929688 11.390625 -33.4375 15.328125 -33.4375 C 19.453125 -33.4375 22.597656 -31.828125 24.765625 -28.609375 L 25.0625 -28.609375 C 24.613281 -31.054688 24.390625 -33.238281 24.390625 -35.15625 L 24.390625 -45.671875 L 33.375 -45.671875 L 33.375 0 L 26.5 0 L 24.765625 -4.25 L 24.390625 -4.25 C 22.359375 -1.019531 19.257812 0.59375 15.09375 0.59375 Z M 18.21875 -6.546875 C 20.507812 -6.546875 22.1875 -7.207031 23.25 -8.53125 C 24.320312 -9.863281 24.90625 -12.128906 25 -15.328125 L 25 -16.296875 C 25 -19.816406 24.457031 -22.335938 23.375 -23.859375 C 22.289062 -25.390625 20.523438 -26.15625 18.078125 -26.15625 C 16.085938 -26.15625 14.535156 -25.304688 13.421875 -23.609375 C 12.316406 -21.921875 11.765625 -19.460938 11.765625 -16.234375 C 11.765625 -13.003906 12.320312 -10.582031 13.4375 -8.96875 C 14.550781 -7.351562 16.144531 -6.546875 18.21875 -6.546875 Z M 18.21875 -6.546875 "/></g></g></g><g clip-path="url(#1633941bb0)"><g clip-path="url(#a46bff6bb2)"><path fill="#cc0829" d="M 1119.539062 704.140625 L 1148.300781 704.140625 L 1148.300781 732.902344 L 1119.539062 732.902344 Z M 1119.539062 704.140625 " fill-opacity="1" fill-rule="nonzero"/></g></g><g fill="#000000" fill-opacity="1"><g transform="translate(1148.964307, 683.034256)"><g><path d="M 18.28125 -6.421875 C 20.6875 -6.421875 22.40625 -7.109375 23.4375 -8.484375 C 24.476562 -9.867188 25 -12.109375 25 -15.203125 L 25 -16.296875 C 25 -19.796875 24.457031 -22.3125 23.375 -23.84375 C 22.289062 -25.382812 20.546875 -26.15625 18.140625 -26.15625 C 13.929688 -26.15625 11.828125 -22.847656 11.828125 -16.234375 C 11.828125 -12.941406 12.347656 -10.484375 13.390625 -8.859375 C 14.441406 -7.234375 16.070312 -6.421875 18.28125 -6.421875 Z M 33.375 0.0625 C 33.375 4.769531 32 8.34375 29.25 10.78125 C 26.5 13.21875 22.40625 14.4375 16.96875 14.4375 C 12.175781 14.4375 8.085938 13.789062 4.703125 12.5 L 4.703125 5.34375 C 8.671875 7.019531 12.9375 7.859375 17.5 7.859375 C 22.09375 7.859375 24.390625 5.375 24.390625 0.40625 L 24.390625 -0.234375 L 24.65625 -4.25 L 24.390625 -4.25 C 22.296875 -1.019531 19.195312 0.59375 15.09375 0.59375 C 11.15625 0.59375 8.101562 -0.921875 5.9375 -3.953125 C 3.78125 -6.992188 2.703125 -11.125 2.703125 -16.34375 C 2.703125 -21.726562 3.820312 -25.921875 6.0625 -28.921875 C 8.300781 -31.929688 11.390625 -33.4375 15.328125 -33.4375 C 19.347656 -33.4375 22.515625 -31.828125 24.828125 -28.609375 L 25.0625 -28.609375 L 25.796875 -32.8125 L 33.375 -32.8125 Z M 33.375 0.0625 "/></g></g></g><g fill="#cc0829" fill-opacity="1"><g transform="translate(1185.980195, 267.202339)"><g><path d="M 7.921875 -62.9375 L 27.5 -62.9375 C 36.425781 -62.9375 42.90625 -61.664062 46.9375 -59.125 C 50.96875 -56.582031 52.984375 -52.539062 52.984375 -47 C 52.984375 -43.238281 52.097656 -40.15625 50.328125 -37.75 C 48.566406 -35.34375 46.222656 -33.894531 43.296875 -33.40625 L 43.296875 -32.96875 C 47.285156 -32.082031 50.160156 -30.421875 51.921875 -27.984375 C 53.691406 -25.546875 54.578125 -22.300781 54.578125 -18.25 C 54.578125 -12.507812 52.503906 -8.03125 48.359375 -4.8125 C 44.210938 -1.601562 38.582031 0 31.46875 0 L 7.921875 0 Z M 21.265625 -38.015625 L 29.015625 -38.015625 C 32.628906 -38.015625 35.242188 -38.570312 36.859375 -39.6875 C 38.484375 -40.800781 39.296875 -42.648438 39.296875 -45.234375 C 39.296875 -47.648438 38.410156 -49.378906 36.640625 -50.421875 C 34.878906 -51.472656 32.09375 -52 28.28125 -52 L 21.265625 -52 Z M 21.265625 -27.421875 L 21.265625 -11.015625 L 29.953125 -11.015625 C 33.628906 -11.015625 36.34375 -11.71875 38.09375 -13.125 C 39.84375 -14.53125 40.71875 -16.679688 40.71875 -19.578125 C 40.71875 -24.804688 36.988281 -27.421875 29.53125 -27.421875 Z M 21.265625 -27.421875 "/></g></g></g></svg>