<svg xmlns="http://www.w3.org/2000/svg" xmlns:xlink="http://www.w3.org/1999/xlink" width="2000" zoomAndPan="magnify" viewBox="0 0 1500 1124.99995" height="1500" preserveAspectRatio="xMidYMid meet" version="1.0"><defs><g/><clipPath id="b647dbbfb5"><path d="M 289.21875 207.894531 L 1210.96875 207.894531 L 1210.96875 917.101562 L 289.21875 917.101562 Z M 289.21875 207.894531 " clip-rule="nonzero"/></clipPath><clipPath id="dd9e5ae394"><path d="M 749.996094 207.894531 C 495.515625 207.894531 289.21875 366.65625 289.21875 562.496094 C 289.21875 758.339844 495.515625 917.101562 749.996094 917.101562 C 1004.472656 917.101562 1210.769531 758.339844 1210.769531 562.496094 C 1210.769531 366.65625 1004.472656 207.894531 749.996094 207.894531 Z M 749.996094 207.894531 " clip-rule="nonzero"/></clipPath><clipPath id="7c838a63ab"><path d="M 548.433594 626.703125 L 581.234375 626.703125 L 581.234375 659.503906 L 548.433594 659.503906 Z M 548.433594 626.703125 " clip-rule="nonzero"/></clipPath><clipPath id="9993a3aab1"><path d="M 564.835938 626.703125 C 555.777344 626.703125 548.433594 634.042969 548.433594 643.101562 C 548.433594 652.160156 555.777344 659.503906 564.835938 659.503906 C 573.894531 659.503906 581.234375 652.160156 581.234375 643.101562 C 581.234375 634.042969 573.894531 626.703125 564.835938 626.703125 Z M 564.835938 626.703125 " clip-rule="nonzero"/></clipPath><clipPath id="6db05d9bc9"><path d="M 887.992188 430.871094 L 920.796875 430.871094 L 920.796875 463.671875 L 887.992188 463.671875 Z M 887.992188 430.871094 " clip-rule="nonzero"/></clipPath><clipPath id="5480dbfc97"><path d="M 904.394531 430.871094 C 895.335938 430.871094 887.992188 438.214844 887.992188 447.269531 C 887.992188 456.328125 895.335938 463.671875 904.394531 463.671875 C 913.453125 463.671875 920.796875 456.328125 920.796875 447.269531 C 920.796875 438.214844 913.453125 430.871094 904.394531 430.871094 Z M 904.394531 430.871094 " clip-rule="nonzero"/></clipPath><clipPath id="84e06fb002"><path d="M 871.59375 704.917969 L 904.394531 704.917969 L 904.394531 737.722656 L 871.59375 737.722656 Z M 871.59375 704.917969 " clip-rule="nonzero"/></clipPath><clipPath id="2a1036d552"><path d="M 887.992188 704.917969 C 878.933594 704.917969 871.59375 712.261719 871.59375 721.320312 C 871.59375 730.378906 878.933594 737.722656 887.992188 737.722656 C 897.050781 737.722656 904.394531 730.378906 904.394531 721.320312 C 904.394531 712.261719 897.050781 704.917969 887.992188 704.917969 Z M 887.992188 704.917969 " clip-rule="nonzero"/></clipPath></defs><rect x="-150" width="1800" fill="#ffffff" y="-112.499995" height="1349.99994" fill-opacity="1"/><rect x="-150" width="1800" fill="#ffffff" y="-112.499995" height="1349.99994" fill-opacity="1"/><g clip-path="url(#b647dbbfb5)"><g clip-path="url(#dd9e5ae394)"><path stroke-linecap="butt" transform="matrix(0.75, 0, 0, 0.75, 289.219813, 207.896182)" fill="none" stroke-linejoin="miter" d="M 614.368466 -0.00220113 C 275.061124 -0.00220113 -0.00141764 211.680122 -0.00141764 472.799953 C -0.00141764 733.924992 275.061124 945.607316 614.368466 945.607316 C 953.670601 945.607316 1228.733142 733.924992 1228.733142 472.799953 C 1228.733142 211.680122 953.670601 -0.00220113 614.368466 -0.00220113 Z M 614.368466 -0.00220113 " stroke="#000000" stroke-width="22" stroke-opacity="1" stroke-miterlimit="4"/></g></g><g clip-path="url(#7c838a63ab)"><g clip-path="url(#9993a3aab1)"><path fill="#1e76e9" d="M 548.433594 626.703125 L 581.234375 626.703125 L 581.234375 659.503906 L 548.433594 659.503906 Z M 548.433594 626.703125 " fill-opacity="1" fill-rule="nonzero"/></g></g><g clip-path="url(#6db05d9bc9)"><g clip-path="url(#5480dbfc97)"><path fill="#1e76e9" d="M 887.992188 430.871094 L 920.796875 430.871094 L 920.796875 463.671875 L 887.992188 463.671875 Z M 887.992188 430.871094 " fill-opacity="1" fill-rule="nonzero"/></g></g><g clip-path="url(#84e06fb002)"><g clip-path="url(#2a1036d552)"><path fill="#1e76e9" d="M 871.59375 704.917969 L 904.394531 704.917969 L 904.394531 737.722656 L 871.59375 737.722656 Z M 871.59375 704.917969 " fill-opacity="1" fill-rule="nonzero"/></g></g><g fill="#000000" fill-opacity="1"><g transform="translate(587.806502, 610.374636)"><g><path d="M 29.125 0 L 27.15625 -5.09375 L 26.875 -5.09375 C 25.164062 -2.925781 23.398438 -1.421875 21.578125 -0.578125 C 19.753906 0.253906 17.382812 0.671875 14.46875 0.671875 C 10.875 0.671875 8.039062 -0.351562 5.96875 -2.40625 C 3.90625 -4.457031 2.875 -7.382812 2.875 -11.1875 C 2.875 -15.15625 4.265625 -18.082031 7.046875 -19.96875 C 9.828125 -21.851562 14.019531 -22.894531 19.625 -23.09375 L 26.109375 -23.296875 L 26.109375 -24.9375 C 26.109375 -28.726562 24.164062 -30.625 20.28125 -30.625 C 17.289062 -30.625 13.773438 -29.722656 9.734375 -27.921875 L 6.359375 -34.8125 C 10.671875 -37.070312 15.445312 -38.203125 20.6875 -38.203125 C 25.707031 -38.203125 29.554688 -37.109375 32.234375 -34.921875 C 34.910156 -32.734375 36.25 -29.40625 36.25 -24.9375 L 36.25 0 Z M 26.109375 -17.34375 L 22.15625 -17.203125 C 19.1875 -17.117188 16.976562 -16.582031 15.53125 -15.59375 C 14.082031 -14.613281 13.359375 -13.117188 13.359375 -11.109375 C 13.359375 -8.234375 15.007812 -6.796875 18.3125 -6.796875 C 20.675781 -6.796875 22.566406 -7.472656 23.984375 -8.828125 C 25.398438 -10.191406 26.109375 -12.003906 26.109375 -14.265625 Z M 26.109375 -17.34375 "/></g></g></g><g fill="#000000" fill-opacity="1"><g transform="translate(912.655816, 693.687508)"><g><path d="M 26.171875 -38.125 C 30.597656 -38.125 34.0625 -36.398438 36.5625 -32.953125 C 39.0625 -29.503906 40.3125 -24.78125 40.3125 -18.78125 C 40.3125 -12.59375 39.019531 -7.800781 36.4375 -4.40625 C 33.863281 -1.019531 30.351562 0.671875 25.90625 0.671875 C 21.507812 0.671875 18.0625 -0.925781 15.5625 -4.125 L 14.859375 -4.125 L 13.15625 0 L 5.359375 0 L 5.359375 -52.09375 L 15.5625 -52.09375 L 15.5625 -39.96875 C 15.5625 -38.425781 15.429688 -35.960938 15.171875 -32.578125 L 15.5625 -32.578125 C 17.957031 -36.273438 21.492188 -38.125 26.171875 -38.125 Z M 22.90625 -29.96875 C 20.375 -29.96875 18.53125 -29.191406 17.375 -27.640625 C 16.21875 -26.085938 15.613281 -23.523438 15.5625 -19.953125 L 15.5625 -18.84375 C 15.5625 -14.832031 16.160156 -11.953125 17.359375 -10.203125 C 18.554688 -8.460938 20.445312 -7.59375 23.03125 -7.59375 C 25.125 -7.59375 26.789062 -8.554688 28.03125 -10.484375 C 29.269531 -12.421875 29.890625 -15.234375 29.890625 -18.921875 C 29.890625 -22.597656 29.265625 -25.359375 28.015625 -27.203125 C 26.765625 -29.046875 25.0625 -29.96875 22.90625 -29.96875 Z M 22.90625 -29.96875 "/></g></g></g><g fill="#000000" fill-opacity="1"><g transform="translate(916.721518, 414.541807)"><g><path d="M 20.5625 0.671875 C 8.90625 0.671875 3.078125 -5.722656 3.078125 -18.515625 C 3.078125 -24.867188 4.660156 -29.722656 7.828125 -33.078125 C 11.003906 -36.441406 15.546875 -38.125 21.453125 -38.125 C 25.785156 -38.125 29.671875 -37.28125 33.109375 -35.59375 L 30.09375 -27.6875 C 28.488281 -28.332031 26.992188 -28.859375 25.609375 -29.265625 C 24.222656 -29.679688 22.835938 -29.890625 21.453125 -29.890625 C 16.140625 -29.890625 13.484375 -26.117188 13.484375 -18.578125 C 13.484375 -11.253906 16.140625 -7.59375 21.453125 -7.59375 C 23.421875 -7.59375 25.238281 -7.851562 26.90625 -8.375 C 28.582031 -8.90625 30.257812 -9.726562 31.9375 -10.84375 L 31.9375 -2.109375 C 30.28125 -1.054688 28.609375 -0.332031 26.921875 0.0625 C 25.242188 0.46875 23.125 0.671875 20.5625 0.671875 Z M 20.5625 0.671875 "/></g></g></g><g fill="#1e76e9" fill-opacity="1"><g transform="translate(1104.36211, 305.839509)"><g><path d="M 52.96875 0 L 47.765625 -17.078125 L 21.609375 -17.078125 L 16.390625 0 L 0 0 L 25.328125 -72.078125 L 43.9375 -72.078125 L 69.375 0 Z M 44.140625 -29.84375 C 39.328125 -45.332031 36.617188 -54.085938 36.015625 -56.109375 C 35.410156 -58.140625 34.972656 -59.742188 34.703125 -60.921875 C 33.628906 -56.734375 30.539062 -46.375 25.4375 -29.84375 Z M 44.140625 -29.84375 "/></g></g></g></svg>