<svg xmlns="http://www.w3.org/2000/svg" xmlns:xlink="http://www.w3.org/1999/xlink" width="2000" zoomAndPan="magnify" viewBox="0 0 1500 1124.99995" height="1500" preserveAspectRatio="xMidYMid meet" version="1.0"><defs><g/><clipPath id="71c33acb10"><path d="M 63.59375 131.015625 L 428.84375 131.015625 L 428.84375 464.765625 L 63.59375 464.765625 Z M 63.59375 131.015625 " clip-rule="nonzero"/></clipPath><clipPath id="767522d63c"><path d="M 246.179688 131.015625 C 145.339844 131.015625 63.59375 205.738281 63.59375 297.914062 C 63.59375 390.089844 145.339844 464.8125 246.179688 464.8125 C 347.015625 464.8125 428.761719 390.089844 428.761719 297.914062 C 428.761719 205.738281 347.015625 131.015625 246.179688 131.015625 Z M 246.179688 131.015625 " clip-rule="nonzero"/></clipPath><clipPath id="e40342956d"><path d="M 98.253906 337.003906 L 118.492188 337.003906 L 118.492188 357.242188 L 98.253906 357.242188 Z M 98.253906 337.003906 " clip-rule="nonzero"/></clipPath><clipPath id="048817d012"><path d="M 108.371094 337.003906 C 102.78125 337.003906 98.253906 341.535156 98.253906 347.121094 C 98.253906 352.710938 102.78125 357.242188 108.371094 357.242188 C 113.960938 357.242188 118.492188 352.710938 118.492188 347.121094 C 118.492188 341.535156 113.960938 337.003906 108.371094 337.003906 Z M 108.371094 337.003906 " clip-rule="nonzero"/></clipPath><clipPath id="763eb05d83"><path d="M 261.15625 213.535156 L 281.394531 213.535156 L 281.394531 233.773438 L 261.15625 233.773438 Z M 261.15625 213.535156 " clip-rule="nonzero"/></clipPath><clipPath id="5c241dbdf1"><path d="M 271.273438 213.535156 C 265.683594 213.535156 261.15625 218.066406 261.15625 223.65625 C 261.15625 229.246094 265.683594 233.773438 271.273438 233.773438 C 276.863281 233.773438 281.394531 229.246094 281.394531 223.65625 C 281.394531 218.066406 276.863281 213.535156 271.273438 213.535156 Z M 271.273438 213.535156 " clip-rule="nonzero"/></clipPath><clipPath id="32eb6a5d43"><path d="M 251.035156 382.613281 L 271.273438 382.613281 L 271.273438 402.851562 L 251.035156 402.851562 Z M 251.035156 382.613281 " clip-rule="nonzero"/></clipPath><clipPath id="ebee52c447"><path d="M 261.15625 382.613281 C 255.566406 382.613281 251.035156 387.144531 251.035156 392.734375 C 251.035156 398.320312 255.566406 402.851562 261.15625 402.851562 C 266.742188 402.851562 271.273438 398.320312 271.273438 392.734375 C 271.273438 387.144531 266.742188 382.613281 261.15625 382.613281 Z M 261.15625 382.613281 " clip-rule="nonzero"/></clipPath><clipPath id="dd7d6ba88a"><path d="M 472.304688 142.21875 L 824.804688 142.21875 L 824.804688 464.71875 L 472.304688 464.71875 Z M 472.304688 142.21875 " clip-rule="nonzero"/></clipPath><clipPath id="316f637605"><path d="M 648.519531 142.21875 C 551.199219 142.21875 472.304688 214.433594 472.304688 303.515625 C 472.304688 392.597656 551.199219 464.808594 648.519531 464.808594 C 745.839844 464.808594 824.734375 392.597656 824.734375 303.515625 C 824.734375 214.433594 745.839844 142.21875 648.519531 142.21875 Z M 648.519531 142.21875 " clip-rule="nonzero"/></clipPath><clipPath id="ff9c368b25"><path d="M 531.332031 337.929688 L 551.570312 337.929688 L 551.570312 358.167969 L 531.332031 358.167969 Z M 531.332031 337.929688 " clip-rule="nonzero"/></clipPath><clipPath id="0dc3775f3f"><path d="M 541.449219 337.929688 C 535.863281 337.929688 531.332031 342.457031 531.332031 348.046875 C 531.332031 353.636719 535.863281 358.167969 541.449219 358.167969 C 547.039062 358.167969 551.570312 353.636719 551.570312 348.046875 C 551.570312 342.457031 547.039062 337.929688 541.449219 337.929688 Z M 541.449219 337.929688 " clip-rule="nonzero"/></clipPath><clipPath id="838482f59e"><path d="M 652.820312 216.183594 L 673.058594 216.183594 L 673.058594 236.421875 L 652.820312 236.421875 Z M 652.820312 216.183594 " clip-rule="nonzero"/></clipPath><clipPath id="a69f34a53f"><path d="M 662.9375 216.183594 C 657.351562 216.183594 652.820312 220.710938 652.820312 226.300781 C 652.820312 231.890625 657.351562 236.421875 662.9375 236.421875 C 668.527344 236.421875 673.058594 231.890625 673.058594 226.300781 C 673.058594 220.710938 668.527344 216.183594 662.9375 216.183594 Z M 662.9375 216.183594 " clip-rule="nonzero"/></clipPath><clipPath id="e792ce6b20"><path d="M 652.820312 392.734375 L 673.058594 392.734375 L 673.058594 412.972656 L 652.820312 412.972656 Z M 652.820312 392.734375 " clip-rule="nonzero"/></clipPath><clipPath id="b7460198a8"><path d="M 662.9375 392.734375 C 657.351562 392.734375 652.820312 397.265625 652.820312 402.851562 C 652.820312 408.441406 657.351562 412.972656 662.9375 412.972656 C 668.527344 412.972656 673.058594 408.441406 673.058594 402.851562 C 673.058594 397.265625 668.527344 392.734375 662.9375 392.734375 Z M 662.9375 392.734375 " clip-rule="nonzero"/></clipPath><clipPath id="d0a9781479"><path d="M 871 174 L 1024 174 L 1024 306 L 871 306 Z M 871 174 " clip-rule="nonzero"/></clipPath><clipPath id="50a40b7f82"><path d="M 1049.488281 214.914062 L 1027.226562 308.296875 L 850.675781 266.207031 L 872.9375 172.824219 Z M 1049.488281 214.914062 " clip-rule="nonzero"/></clipPath><clipPath id="618ef041af"><path d="M 850.320312 266.328125 L 872.582031 172.945312 L 1049.136719 215.035156 L 1026.875 308.417969 Z M 850.320312 266.328125 " clip-rule="nonzero"/></clipPath><clipPath id="89fc81bc75"><path d="M 929.992188 333.011719 L 1285.492188 333.011719 L 1285.492188 657.699219 L 929.992188 657.699219 Z M 929.992188 333.011719 " clip-rule="nonzero"/></clipPath><clipPath id="2d9779d172"><path d="M 1107.597656 333.011719 C 1009.507812 333.011719 929.992188 405.695312 929.992188 495.355469 C 929.992188 585.015625 1009.507812 657.699219 1107.597656 657.699219 C 1205.683594 657.699219 1285.199219 585.015625 1285.199219 495.355469 C 1285.199219 405.695312 1205.683594 333.011719 1107.597656 333.011719 Z M 1107.597656 333.011719 " clip-rule="nonzero"/></clipPath><clipPath id="8c71d4abe5"><path d="M 962.574219 530.804688 L 982.257812 530.804688 L 982.257812 550.488281 L 962.574219 550.488281 Z M 962.574219 530.804688 " clip-rule="nonzero"/></clipPath><clipPath id="3681442170"><path d="M 972.414062 530.804688 C 966.980469 530.804688 962.574219 535.210938 962.574219 540.644531 C 962.574219 546.082031 966.980469 550.488281 972.414062 550.488281 C 977.851562 550.488281 982.257812 546.082031 982.257812 540.644531 C 982.257812 535.210938 977.851562 530.804688 972.414062 530.804688 Z M 972.414062 530.804688 " clip-rule="nonzero"/></clipPath><clipPath id="d1813ed293"><path d="M 1125.636719 343.90625 L 1468.386719 343.90625 L 1468.386719 657.40625 L 1125.636719 657.40625 Z M 1125.636719 343.90625 " clip-rule="nonzero"/></clipPath><clipPath id="be8bbaa45e"><path d="M 1297.046875 343.90625 C 1202.378906 343.90625 1125.636719 414.152344 1125.636719 500.804688 C 1125.636719 587.453125 1202.378906 657.699219 1297.046875 657.699219 C 1391.710938 657.699219 1468.453125 587.453125 1468.453125 500.804688 C 1468.453125 414.152344 1391.710938 343.90625 1297.046875 343.90625 Z M 1297.046875 343.90625 " clip-rule="nonzero"/></clipPath><clipPath id="e1528c9a27"><path d="M 1191.003906 540.707031 L 1210.691406 540.707031 L 1210.691406 560.394531 L 1191.003906 560.394531 Z M 1191.003906 540.707031 " clip-rule="nonzero"/></clipPath><clipPath id="aefd6f975a"><path d="M 1200.847656 540.707031 C 1195.410156 540.707031 1191.003906 545.113281 1191.003906 550.550781 C 1191.003906 555.984375 1195.410156 560.394531 1200.847656 560.394531 C 1206.285156 560.394531 1210.691406 555.984375 1210.691406 550.550781 C 1210.691406 545.113281 1206.285156 540.707031 1200.847656 540.707031 Z M 1200.847656 540.707031 " clip-rule="nonzero"/></clipPath><clipPath id="84d7150466"><path d="M 1177.546875 445.128906 L 1197.234375 445.128906 L 1197.234375 464.816406 L 1177.546875 464.816406 Z M 1177.546875 445.128906 " clip-rule="nonzero"/></clipPath><clipPath id="5392bdd3b2"><path d="M 1187.390625 445.128906 C 1181.953125 445.128906 1177.546875 449.535156 1177.546875 454.972656 C 1177.546875 460.410156 1181.953125 464.816406 1187.390625 464.816406 C 1192.824219 464.816406 1197.234375 460.410156 1197.234375 454.972656 C 1197.234375 449.535156 1192.824219 445.128906 1187.390625 445.128906 Z M 1187.390625 445.128906 " clip-rule="nonzero"/></clipPath><clipPath id="1deae44c17"><path d="M 1309.179688 594.015625 L 1328.863281 594.015625 L 1328.863281 613.703125 L 1309.179688 613.703125 Z M 1309.179688 594.015625 " clip-rule="nonzero"/></clipPath><clipPath id="91fd63e3b6"><path d="M 1319.019531 594.015625 C 1313.585938 594.015625 1309.179688 598.421875 1309.179688 603.859375 C 1309.179688 609.296875 1313.585938 613.703125 1319.019531 613.703125 C 1324.457031 613.703125 1328.863281 609.296875 1328.863281 603.859375 C 1328.863281 598.421875 1324.457031 594.015625 1319.019531 594.015625 Z M 1319.019531 594.015625 " clip-rule="nonzero"/></clipPath><clipPath id="0247f3355e"><path d="M 863 700 L 1026 700 L 1026 821 L 863 821 Z M 863 700 " clip-rule="nonzero"/></clipPath><clipPath id="23141cc2ea"><path d="M 942.707031 863.398438 L 857.882812 818.445312 L 942.878906 658.074219 L 1027.703125 703.03125 Z M 942.707031 863.398438 " clip-rule="nonzero"/></clipPath><clipPath id="7ffb1bde26"><path d="M 942.851562 657.703125 L 1027.675781 702.65625 L 942.679688 863.027344 L 857.855469 818.070312 Z M 942.851562 657.703125 " clip-rule="nonzero"/></clipPath><clipPath id="bf0a4845c9"><path d="M 267.3125 665.667969 L 804.3125 665.667969 L 804.3125 1073.667969 L 267.3125 1073.667969 Z M 267.3125 665.667969 " clip-rule="nonzero"/></clipPath><clipPath id="985bb6c468"><path d="M 535.691406 665.667969 C 387.46875 665.667969 267.3125 757.050781 267.3125 869.773438 C 267.3125 982.496094 387.46875 1073.878906 535.691406 1073.878906 C 683.910156 1073.878906 804.066406 982.496094 804.066406 869.773438 C 804.066406 757.050781 683.910156 665.667969 535.691406 665.667969 Z M 535.691406 665.667969 " clip-rule="nonzero"/></clipPath><clipPath id="6150e6a810"><path d="M 354.625 899.5 L 374.3125 899.5 L 374.3125 919.1875 L 354.625 919.1875 Z M 354.625 899.5 " clip-rule="nonzero"/></clipPath><clipPath id="aed809b2b0"><path d="M 364.46875 899.5 C 359.03125 899.5 354.625 903.90625 354.625 909.34375 C 354.625 914.777344 359.03125 919.1875 364.46875 919.1875 C 369.90625 919.1875 374.3125 914.777344 374.3125 909.34375 C 374.3125 903.90625 369.90625 899.5 364.46875 899.5 Z M 364.46875 899.5 " clip-rule="nonzero"/></clipPath><clipPath id="9360fc7152"><path d="M 513.082031 779.402344 L 532.769531 779.402344 L 532.769531 799.085938 L 513.082031 799.085938 Z M 513.082031 779.402344 " clip-rule="nonzero"/></clipPath><clipPath id="c648ee6a8f"><path d="M 522.925781 779.402344 C 517.488281 779.402344 513.082031 783.808594 513.082031 789.246094 C 513.082031 794.679688 517.488281 799.085938 522.925781 799.085938 C 528.363281 799.085938 532.769531 794.679688 532.769531 789.246094 C 532.769531 783.808594 528.363281 779.402344 522.925781 779.402344 Z M 522.925781 779.402344 " clip-rule="nonzero"/></clipPath><clipPath id="a5a562cab0"><path d="M 503.238281 943.867188 L 522.925781 943.867188 L 522.925781 963.550781 L 503.238281 963.550781 Z M 503.238281 943.867188 " clip-rule="nonzero"/></clipPath><clipPath id="066c4e436b"><path d="M 513.082031 943.867188 C 507.648438 943.867188 503.238281 948.273438 503.238281 953.710938 C 503.238281 959.144531 507.648438 963.550781 513.082031 963.550781 C 518.519531 963.550781 522.925781 959.144531 522.925781 953.710938 C 522.925781 948.273438 518.519531 943.867188 513.082031 943.867188 Z M 513.082031 943.867188 " clip-rule="nonzero"/></clipPath><clipPath id="110fa1ce85"><path d="M 643.144531 851.789062 L 662.832031 851.789062 L 662.832031 871.476562 L 643.144531 871.476562 Z M 643.144531 851.789062 " clip-rule="nonzero"/></clipPath><clipPath id="054daae183"><path d="M 652.988281 851.789062 C 647.550781 851.789062 643.144531 856.199219 643.144531 861.632812 C 643.144531 867.070312 647.550781 871.476562 652.988281 871.476562 C 658.425781 871.476562 662.832031 867.070312 662.832031 861.632812 C 662.832031 856.199219 658.425781 851.789062 652.988281 851.789062 Z M 652.988281 851.789062 " clip-rule="nonzero"/></clipPath></defs><rect x="-150" width="1800" fill="#ffffff" y="-112.499995" height="1349.99994" fill-opacity="1"/><rect x="-150" width="1800" fill="#ffffff" y="-112.499995" height="1349.99994" fill-opacity="1"/><g clip-path="url(#71c33acb10)"><g clip-path="url(#767522d63c)"><path stroke-linecap="butt" transform="matrix(0.75, 0, 0, 0.75, 63.594359, 131.017454)" fill="none" stroke-linejoin="miter" d="M 243.447126 -0.00243909 C 108.993989 -0.00243909 -0.000812076 99.627778 -0.000812076 222.52883 C -0.000812076 345.429882 108.993989 445.060099 243.447126 445.060099 C 377.895054 445.060099 486.889855 345.429882 486.889855 222.52883 C 486.889855 99.627778 377.895054 -0.00243909 243.447126 -0.00243909 Z M 243.447126 -0.00243909 " stroke="#000000" stroke-width="16" stroke-opacity="1" stroke-miterlimit="4"/></g></g><g clip-path="url(#e40342956d)"><g clip-path="url(#048817d012)"><path fill="#1e76e9" d="M 98.253906 337.003906 L 118.492188 337.003906 L 118.492188 357.242188 L 98.253906 357.242188 Z M 98.253906 337.003906 " fill-opacity="1" fill-rule="nonzero"/></g></g><g clip-path="url(#763eb05d83)"><g clip-path="url(#5c241dbdf1)"><path fill="#1e76e9" d="M 261.15625 213.535156 L 281.394531 213.535156 L 281.394531 233.773438 L 261.15625 233.773438 Z M 261.15625 213.535156 " fill-opacity="1" fill-rule="nonzero"/></g></g><g clip-path="url(#32eb6a5d43)"><g clip-path="url(#ebee52c447)"><path fill="#1e76e9" d="M 251.035156 382.613281 L 271.273438 382.613281 L 271.273438 402.851562 L 251.035156 402.851562 Z M 251.035156 382.613281 " fill-opacity="1" fill-rule="nonzero"/></g></g><g fill="#000000" fill-opacity="1"><g transform="translate(122.047424, 324.284193)"><g><path d="M 17.96875 0 L 16.75 -3.140625 L 16.578125 -3.140625 C 15.523438 -1.804688 14.4375 -0.878906 13.3125 -0.359375 C 12.1875 0.148438 10.722656 0.40625 8.921875 0.40625 C 6.703125 0.40625 4.957031 -0.222656 3.6875 -1.484375 C 2.414062 -2.753906 1.78125 -4.554688 1.78125 -6.890625 C 1.78125 -9.347656 2.632812 -11.15625 4.34375 -12.3125 C 6.0625 -13.476562 8.648438 -14.125 12.109375 -14.25 L 16.109375 -14.375 L 16.109375 -15.390625 C 16.109375 -17.722656 14.910156 -18.890625 12.515625 -18.890625 C 10.671875 -18.890625 8.503906 -18.332031 6.015625 -17.21875 L 3.921875 -21.484375 C 6.578125 -22.867188 9.523438 -23.5625 12.765625 -23.5625 C 15.859375 -23.5625 18.226562 -22.882812 19.875 -21.53125 C 21.53125 -20.1875 22.359375 -18.140625 22.359375 -15.390625 L 22.359375 0 Z M 16.109375 -10.703125 L 13.671875 -10.609375 C 11.835938 -10.554688 10.472656 -10.226562 9.578125 -9.625 C 8.679688 -9.019531 8.234375 -8.097656 8.234375 -6.859375 C 8.234375 -5.078125 9.253906 -4.1875 11.296875 -4.1875 C 12.753906 -4.1875 13.921875 -4.609375 14.796875 -5.453125 C 15.671875 -6.296875 16.109375 -7.410156 16.109375 -8.796875 Z M 16.109375 -10.703125 "/></g></g></g><g fill="#000000" fill-opacity="1"><g transform="translate(276.37017, 375.685205)"><g><path d="M 16.15625 -23.53125 C 18.875 -23.53125 21.003906 -22.460938 22.546875 -20.328125 C 24.085938 -18.203125 24.859375 -15.289062 24.859375 -11.59375 C 24.859375 -7.769531 24.0625 -4.8125 22.46875 -2.71875 C 20.882812 -0.632812 18.722656 0.40625 15.984375 0.40625 C 13.273438 0.40625 11.148438 -0.578125 9.609375 -2.546875 L 9.171875 -2.546875 L 8.109375 0 L 3.296875 0 L 3.296875 -32.140625 L 9.609375 -32.140625 L 9.609375 -24.65625 C 9.609375 -23.707031 9.523438 -22.1875 9.359375 -20.09375 L 9.609375 -20.09375 C 11.078125 -22.382812 13.257812 -23.53125 16.15625 -23.53125 Z M 14.125 -18.484375 C 12.570312 -18.484375 11.4375 -18.003906 10.71875 -17.046875 C 10 -16.085938 9.628906 -14.507812 9.609375 -12.3125 L 9.609375 -11.625 C 9.609375 -9.144531 9.972656 -7.367188 10.703125 -6.296875 C 11.441406 -5.222656 12.609375 -4.6875 14.203125 -4.6875 C 15.503906 -4.6875 16.535156 -5.28125 17.296875 -6.46875 C 18.054688 -7.664062 18.4375 -9.398438 18.4375 -11.671875 C 18.4375 -13.941406 18.050781 -15.644531 17.28125 -16.78125 C 16.507812 -17.914062 15.457031 -18.484375 14.125 -18.484375 Z M 14.125 -18.484375 "/></g></g></g><g fill="#000000" fill-opacity="1"><g transform="translate(276.37017, 203.462484)"><g><path d="M 10.609375 0.40625 C 7.898438 0.40625 5.769531 -0.644531 4.21875 -2.75 C 2.675781 -4.851562 1.90625 -7.769531 1.90625 -11.5 C 1.90625 -15.289062 2.691406 -18.242188 4.265625 -20.359375 C 5.835938 -22.472656 8.007812 -23.53125 10.78125 -23.53125 C 13.6875 -23.53125 15.90625 -22.398438 17.4375 -20.140625 L 17.640625 -20.140625 C 17.316406 -21.859375 17.15625 -23.390625 17.15625 -24.734375 L 17.15625 -32.140625 L 23.484375 -32.140625 L 23.484375 0 L 18.65625 0 L 17.4375 -3 L 17.15625 -3 C 15.726562 -0.726562 13.546875 0.40625 10.609375 0.40625 Z M 12.828125 -4.609375 C 14.429688 -4.609375 15.609375 -5.078125 16.359375 -6.015625 C 17.117188 -6.953125 17.53125 -8.539062 17.59375 -10.78125 L 17.59375 -11.46875 C 17.59375 -13.945312 17.207031 -15.722656 16.4375 -16.796875 C 15.675781 -17.867188 14.4375 -18.40625 12.71875 -18.40625 C 11.3125 -18.40625 10.21875 -17.804688 9.4375 -16.609375 C 8.664062 -15.421875 8.28125 -13.691406 8.28125 -11.421875 C 8.28125 -9.148438 8.671875 -7.445312 9.453125 -6.3125 C 10.242188 -5.175781 11.367188 -4.609375 12.828125 -4.609375 Z M 12.828125 -4.609375 "/></g></g></g><g fill="#1e76e9" fill-opacity="1"><g transform="translate(364.444221, 154.383395)"><g><path d="M 32.6875 0 L 29.46875 -10.546875 L 13.328125 -10.546875 L 10.109375 0 L 0 0 L 15.625 -44.46875 L 27.109375 -44.46875 L 42.796875 0 Z M 27.234375 -18.421875 C 24.265625 -27.960938 22.59375 -33.359375 22.21875 -34.609375 C 21.84375 -35.867188 21.578125 -36.863281 21.421875 -37.59375 C 20.753906 -35.007812 18.84375 -28.617188 15.6875 -18.421875 Z M 27.234375 -18.421875 "/></g></g></g><g clip-path="url(#dd7d6ba88a)"><g clip-path="url(#316f637605)"><path stroke-linecap="butt" transform="matrix(0.75, 0, 0, 0.75, 472.303769, 142.21989)" fill="none" stroke-linejoin="miter" d="M 234.95437 -0.0015202 C 105.193943 -0.0015202 0.00122512 96.284946 0.00122512 215.060998 C 0.00122512 333.83705 105.193943 430.118309 234.95437 430.118309 C 364.714798 430.118309 469.907516 333.83705 469.907516 215.060998 C 469.907516 96.284946 364.714798 -0.0015202 234.95437 -0.0015202 Z M 234.95437 -0.0015202 " stroke="#000000" stroke-width="16" stroke-opacity="1" stroke-miterlimit="4"/></g></g><g clip-path="url(#ff9c368b25)"><g clip-path="url(#0dc3775f3f)"><path fill="#cc0829" d="M 531.332031 337.929688 L 551.570312 337.929688 L 551.570312 358.167969 L 531.332031 358.167969 Z M 531.332031 337.929688 " fill-opacity="1" fill-rule="nonzero"/></g></g><g clip-path="url(#838482f59e)"><g clip-path="url(#a69f34a53f)"><path fill="#cc0829" d="M 652.820312 216.183594 L 673.058594 216.183594 L 673.058594 236.421875 L 652.820312 236.421875 Z M 652.820312 216.183594 " fill-opacity="1" fill-rule="nonzero"/></g></g><g clip-path="url(#e792ce6b20)"><g clip-path="url(#b7460198a8)"><path fill="#cc0829" d="M 652.820312 392.734375 L 673.058594 392.734375 L 673.058594 412.972656 L 652.820312 412.972656 Z M 652.820312 392.734375 " fill-opacity="1" fill-rule="nonzero"/></g></g><g fill="#000000" fill-opacity="1"><g transform="translate(557.521831, 327.855131)"><g><path d="M 12.6875 0.40625 C 5.5 0.40625 1.90625 -3.535156 1.90625 -11.421875 C 1.90625 -15.347656 2.878906 -18.347656 4.828125 -20.421875 C 6.785156 -22.492188 9.585938 -23.53125 13.234375 -23.53125 C 15.910156 -23.53125 18.304688 -23.003906 20.421875 -21.953125 L 18.5625 -17.078125 C 17.570312 -17.472656 16.648438 -17.796875 15.796875 -18.046875 C 14.941406 -18.304688 14.085938 -18.4375 13.234375 -18.4375 C 9.960938 -18.4375 8.328125 -16.113281 8.328125 -11.46875 C 8.328125 -6.945312 9.960938 -4.6875 13.234375 -4.6875 C 14.453125 -4.6875 15.578125 -4.847656 16.609375 -5.171875 C 17.640625 -5.492188 18.671875 -6 19.703125 -6.6875 L 19.703125 -1.296875 C 18.679688 -0.648438 17.648438 -0.207031 16.609375 0.03125 C 15.578125 0.28125 14.269531 0.40625 12.6875 0.40625 Z M 12.6875 0.40625 "/></g></g></g><g fill="#000000" fill-opacity="1"><g transform="translate(670.197419, 380.958172)"><g><path d="M 17.96875 0 L 16.75 -3.140625 L 16.578125 -3.140625 C 15.523438 -1.804688 14.4375 -0.878906 13.3125 -0.359375 C 12.1875 0.148438 10.722656 0.40625 8.921875 0.40625 C 6.703125 0.40625 4.957031 -0.222656 3.6875 -1.484375 C 2.414062 -2.753906 1.78125 -4.554688 1.78125 -6.890625 C 1.78125 -9.347656 2.632812 -11.15625 4.34375 -12.3125 C 6.0625 -13.476562 8.648438 -14.125 12.109375 -14.25 L 16.109375 -14.375 L 16.109375 -15.390625 C 16.109375 -17.722656 14.910156 -18.890625 12.515625 -18.890625 C 10.671875 -18.890625 8.503906 -18.332031 6.015625 -17.21875 L 3.921875 -21.484375 C 6.578125 -22.867188 9.523438 -23.5625 12.765625 -23.5625 C 15.859375 -23.5625 18.226562 -22.882812 19.875 -21.53125 C 21.53125 -20.1875 22.359375 -18.140625 22.359375 -15.390625 L 22.359375 0 Z M 16.109375 -10.703125 L 13.671875 -10.609375 C 11.835938 -10.554688 10.472656 -10.226562 9.578125 -9.625 C 8.679688 -9.019531 8.234375 -8.097656 8.234375 -6.859375 C 8.234375 -5.078125 9.253906 -4.1875 11.296875 -4.1875 C 12.753906 -4.1875 13.921875 -4.609375 14.796875 -5.453125 C 15.671875 -6.296875 16.109375 -7.410156 16.109375 -8.796875 Z M 16.109375 -10.703125 "/></g></g></g><g fill="#000000" fill-opacity="1"><g transform="translate(669.589721, 209.405064)"><g><path d="M 10.609375 0.40625 C 7.898438 0.40625 5.769531 -0.644531 4.21875 -2.75 C 2.675781 -4.851562 1.90625 -7.769531 1.90625 -11.5 C 1.90625 -15.289062 2.691406 -18.242188 4.265625 -20.359375 C 5.835938 -22.472656 8.007812 -23.53125 10.78125 -23.53125 C 13.6875 -23.53125 15.90625 -22.398438 17.4375 -20.140625 L 17.640625 -20.140625 C 17.316406 -21.859375 17.15625 -23.390625 17.15625 -24.734375 L 17.15625 -32.140625 L 23.484375 -32.140625 L 23.484375 0 L 18.65625 0 L 17.4375 -3 L 17.15625 -3 C 15.726562 -0.726562 13.546875 0.40625 10.609375 0.40625 Z M 12.828125 -4.609375 C 14.429688 -4.609375 15.609375 -5.078125 16.359375 -6.015625 C 17.117188 -6.953125 17.53125 -8.539062 17.59375 -10.78125 L 17.59375 -11.46875 C 17.59375 -13.945312 17.207031 -15.722656 16.4375 -16.796875 C 15.675781 -17.867188 14.4375 -18.40625 12.71875 -18.40625 C 11.3125 -18.40625 10.21875 -17.804688 9.4375 -16.609375 C 8.664062 -15.421875 8.28125 -13.691406 8.28125 -11.421875 C 8.28125 -9.148438 8.671875 -7.445312 9.453125 -6.3125 C 10.242188 -5.175781 11.367188 -4.609375 12.828125 -4.609375 Z M 12.828125 -4.609375 "/></g></g></g><g fill="#cc0829" fill-opacity="1"><g transform="translate(778.86242, 154.773708)"><g><path d="M 5.578125 -44.28125 L 19.359375 -44.28125 C 25.640625 -44.28125 30.195312 -43.382812 33.03125 -41.59375 C 35.863281 -39.8125 37.28125 -36.972656 37.28125 -33.078125 C 37.28125 -30.429688 36.660156 -28.257812 35.421875 -26.5625 C 34.179688 -24.863281 32.53125 -23.84375 30.46875 -23.5 L 30.46875 -23.203125 C 33.28125 -22.578125 35.304688 -21.40625 36.546875 -19.6875 C 37.785156 -17.96875 38.40625 -15.6875 38.40625 -12.84375 C 38.40625 -8.800781 36.945312 -5.648438 34.03125 -3.390625 C 31.113281 -1.128906 27.148438 0 22.140625 0 L 5.578125 0 Z M 14.96875 -26.75 L 20.421875 -26.75 C 22.960938 -26.75 24.800781 -27.140625 25.9375 -27.921875 C 27.082031 -28.710938 27.65625 -30.015625 27.65625 -31.828125 C 27.65625 -33.523438 27.03125 -34.742188 25.78125 -35.484375 C 24.539062 -36.222656 22.582031 -36.59375 19.90625 -36.59375 L 14.96875 -36.59375 Z M 14.96875 -19.296875 L 14.96875 -7.75 L 21.078125 -7.75 C 23.660156 -7.75 25.566406 -8.242188 26.796875 -9.234375 C 28.035156 -10.222656 28.65625 -11.738281 28.65625 -13.78125 C 28.65625 -17.457031 26.03125 -19.296875 20.78125 -19.296875 Z M 14.96875 -19.296875 "/></g></g></g><g clip-path="url(#d0a9781479)"><g clip-path="url(#50a40b7f82)"><g clip-path="url(#618ef041af)"><path fill="#1e76e9" d="M 877.394531 174.589844 C 913.539062 187.1875 954.765625 213.894531 983.917969 244.773438 C 994.667969 257.1875 1004.050781 270.558594 1012.066406 284.894531 C 1011.28125 280.390625 1010.320312 275.417969 1009.328125 271.332031 C 1008.339844 266.664062 1008.34375 266.808594 1007.828125 263.851562 L 1007.835938 263.917969 C 1007.820312 263.875 1007.828125 263.832031 1007.816406 263.789062 L 1007.757812 263.445312 C 1007.546875 262.289062 1007.71875 263.160156 1007.800781 263.648438 C 1007.691406 263.183594 1007.652344 262.710938 1007.691406 262.234375 C 1007.726562 261.757812 1007.835938 261.300781 1008.015625 260.855469 C 1008.195312 260.414062 1008.441406 260.007812 1008.746094 259.644531 C 1009.054688 259.277344 1009.40625 258.964844 1009.8125 258.707031 C 1017.796875 255.128906 1018.121094 267.488281 1020.003906 274.121094 C 1020.558594 280.777344 1028.492188 302.886719 1018.742188 304.324219 C 1018.390625 304.5625 1018.015625 304.753906 1017.621094 304.90625 C 1017.222656 305.054688 1016.8125 305.15625 1016.394531 305.210938 C 1015.972656 305.265625 1015.550781 305.269531 1015.128906 305.222656 C 1014.707031 305.179688 1014.296875 305.085938 1013.894531 304.945312 C 1013.496094 304.804688 1013.117188 304.617188 1012.761719 304.386719 C 1012.402344 304.160156 1012.078125 303.890625 1011.785156 303.585938 C 1011.488281 303.28125 1011.234375 302.945312 1011.019531 302.578125 C 1010.804688 302.214844 1010.632812 301.828125 1010.507812 301.421875 C 1001.328125 296.78125 992.222656 291.941406 983.085938 287.210938 C 982.664062 286.96875 982.289062 286.675781 981.957031 286.324219 C 981.621094 285.972656 981.347656 285.582031 981.125 285.152344 C 980.90625 284.71875 980.75 284.265625 980.664062 283.789062 C 980.574219 283.316406 980.554688 282.835938 980.605469 282.355469 C 980.65625 281.875 980.773438 281.410156 980.957031 280.964844 C 981.144531 280.515625 981.386719 280.105469 981.691406 279.726562 C 981.996094 279.351562 982.347656 279.027344 982.746094 278.753906 C 983.144531 278.476562 983.574219 278.265625 984.035156 278.117188 C 988.359375 277.253906 991.964844 281.277344 995.832031 282.730469 C 997.464844 283.570312 999.089844 284.425781 1000.71875 285.269531 C 990.972656 269.351562 981.304688 254.75 968.171875 242.863281 C 955.15625 230.769531 941.210938 219.863281 926.335938 210.152344 C 911.460938 200.4375 895.867188 192.058594 879.5625 185.007812 C 877.214844 183.609375 873.992188 183.191406 872.339844 180.894531 C 872.109375 180.496094 871.945312 180.078125 871.847656 179.628906 C 871.753906 179.183594 871.726562 178.734375 871.773438 178.277344 C 871.820312 177.824219 871.9375 177.386719 872.121094 176.96875 C 872.304688 176.550781 872.550781 176.171875 872.855469 175.832031 C 873.160156 175.492188 873.511719 175.207031 873.90625 174.976562 C 874.300781 174.75 874.722656 174.585938 875.171875 174.492188 C 875.617188 174.394531 876.070312 174.371094 876.523438 174.421875 C 876.976562 174.46875 877.414062 174.585938 877.832031 174.773438 C 877.46875 174.632812 876.988281 174.445312 877.394531 174.589844 Z M 877.394531 174.589844 " fill-opacity="1" fill-rule="nonzero"/></g></g></g><g clip-path="url(#89fc81bc75)"><g clip-path="url(#2d9779d172)"><path stroke-linecap="butt" transform="matrix(0.75, 0, 0, 0.75, 929.993089, 333.01126)" fill="none" stroke-linejoin="miter" d="M 236.80611 0.000611501 C 106.01964 0.000611501 -0.00120233 96.912078 -0.00120233 216.458963 C -0.00120233 336.005849 106.01964 432.917315 236.80611 432.917315 C 367.587371 432.917315 473.608213 336.005849 473.608213 216.458963 C 473.608213 96.912078 367.587371 0.000611501 236.80611 0.000611501 Z M 236.80611 0.000611501 " stroke="#000000" stroke-width="16" stroke-opacity="1" stroke-miterlimit="4"/></g></g><g clip-path="url(#8c71d4abe5)"><g clip-path="url(#3681442170)"><path fill="#1e76e9" d="M 962.574219 530.804688 L 982.257812 530.804688 L 982.257812 550.488281 L 962.574219 550.488281 Z M 962.574219 530.804688 " fill-opacity="1" fill-rule="nonzero"/></g></g><g fill="#000000" fill-opacity="1"><g transform="translate(986.851349, 521.005332)"><g><path d="M 17.484375 0 L 16.296875 -3.046875 L 16.125 -3.046875 C 15.09375 -1.753906 14.03125 -0.851562 12.9375 -0.34375 C 11.851562 0.15625 10.429688 0.40625 8.671875 0.40625 C 6.515625 0.40625 4.816406 -0.207031 3.578125 -1.4375 C 2.347656 -2.675781 1.734375 -4.429688 1.734375 -6.703125 C 1.734375 -9.085938 2.566406 -10.847656 4.234375 -11.984375 C 5.898438 -13.117188 8.410156 -13.742188 11.765625 -13.859375 L 15.671875 -13.984375 L 15.671875 -14.96875 C 15.671875 -17.238281 14.503906 -18.375 12.171875 -18.375 C 10.378906 -18.375 8.269531 -17.832031 5.84375 -16.75 L 3.8125 -20.890625 C 6.394531 -22.242188 9.265625 -22.921875 12.421875 -22.921875 C 15.429688 -22.921875 17.738281 -22.265625 19.34375 -20.953125 C 20.945312 -19.640625 21.75 -17.644531 21.75 -14.96875 L 21.75 0 Z M 15.671875 -10.40625 L 13.296875 -10.328125 C 11.515625 -10.273438 10.1875 -9.953125 9.3125 -9.359375 C 8.445312 -8.773438 8.015625 -7.878906 8.015625 -6.671875 C 8.015625 -4.941406 9.003906 -4.078125 10.984375 -4.078125 C 12.410156 -4.078125 13.546875 -4.484375 14.390625 -5.296875 C 15.242188 -6.117188 15.671875 -7.207031 15.671875 -8.5625 Z M 15.671875 -10.40625 "/></g></g></g><g clip-path="url(#d1813ed293)"><g clip-path="url(#be8bbaa45e)"><path stroke-linecap="butt" transform="matrix(0.75, 0, 0, 0.75, 1125.636392, 343.906592)" fill="none" stroke-linejoin="miter" d="M 228.54733 -0.000455981 C 102.323361 -0.000455981 0.000435129 93.66101 0.000435129 209.197479 C 0.000435129 324.728739 102.323361 418.390205 228.54733 418.390205 C 354.766091 418.390205 457.089016 324.728739 457.089016 209.197479 C 457.089016 93.66101 354.766091 -0.000455981 228.54733 -0.000455981 Z M 228.54733 -0.000455981 " stroke="#000000" stroke-width="16" stroke-opacity="1" stroke-miterlimit="4"/></g></g><g clip-path="url(#e1528c9a27)"><g clip-path="url(#aefd6f975a)"><path fill="#000000" d="M 1191.003906 540.707031 L 1210.691406 540.707031 L 1210.691406 560.394531 L 1191.003906 560.394531 Z M 1191.003906 540.707031 " fill-opacity="1" fill-rule="nonzero"/></g></g><g clip-path="url(#84d7150466)"><g clip-path="url(#5392bdd3b2)"><path fill="#000000" d="M 1177.546875 445.128906 L 1197.234375 445.128906 L 1197.234375 464.816406 L 1177.546875 464.816406 Z M 1177.546875 445.128906 " fill-opacity="1" fill-rule="nonzero"/></g></g><g clip-path="url(#1deae44c17)"><g clip-path="url(#91fd63e3b6)"><path fill="#cc0829" d="M 1309.179688 594.015625 L 1328.863281 594.015625 L 1328.863281 613.703125 L 1309.179688 613.703125 Z M 1309.179688 594.015625 " fill-opacity="1" fill-rule="nonzero"/></g></g><g fill="#000000" fill-opacity="1"><g transform="translate(1207.950796, 535.556746)"><g><path d="M 10.328125 0.40625 C 7.691406 0.40625 5.617188 -0.617188 4.109375 -2.671875 C 2.597656 -4.722656 1.84375 -7.5625 1.84375 -11.1875 C 1.84375 -14.875 2.609375 -17.742188 4.140625 -19.796875 C 5.679688 -21.847656 7.796875 -22.875 10.484375 -22.875 C 13.304688 -22.875 15.460938 -21.78125 16.953125 -19.59375 L 17.15625 -19.59375 C 16.84375 -21.257812 16.6875 -22.75 16.6875 -24.0625 L 16.6875 -31.25 L 22.84375 -31.25 L 22.84375 0 L 18.140625 0 L 16.953125 -2.90625 L 16.6875 -2.90625 C 15.300781 -0.695312 13.179688 0.40625 10.328125 0.40625 Z M 12.46875 -4.484375 C 14.039062 -4.484375 15.191406 -4.9375 15.921875 -5.84375 C 16.648438 -6.757812 17.046875 -8.304688 17.109375 -10.484375 L 17.109375 -11.15625 C 17.109375 -13.5625 16.738281 -15.285156 16 -16.328125 C 15.257812 -17.378906 14.050781 -17.90625 12.375 -17.90625 C 11.007812 -17.90625 9.945312 -17.320312 9.1875 -16.15625 C 8.4375 -15 8.0625 -13.316406 8.0625 -11.109375 C 8.0625 -8.898438 8.441406 -7.242188 9.203125 -6.140625 C 9.960938 -5.035156 11.050781 -4.484375 12.46875 -4.484375 Z M 12.46875 -4.484375 "/></g></g></g><g fill="#000000" fill-opacity="1"><g transform="translate(1327.927849, 582.563214)"><g><path d="M 12.328125 0.40625 C 5.335938 0.40625 1.84375 -3.429688 1.84375 -11.109375 C 1.84375 -14.921875 2.789062 -17.832031 4.6875 -19.84375 C 6.59375 -21.863281 9.320312 -22.875 12.875 -22.875 C 15.476562 -22.875 17.8125 -22.367188 19.875 -21.359375 L 18.0625 -16.609375 C 17.09375 -17.003906 16.191406 -17.320312 15.359375 -17.5625 C 14.535156 -17.8125 13.707031 -17.9375 12.875 -17.9375 C 9.6875 -17.9375 8.09375 -15.675781 8.09375 -11.15625 C 8.09375 -6.757812 9.6875 -4.5625 12.875 -4.5625 C 14.050781 -4.5625 15.140625 -4.71875 16.140625 -5.03125 C 17.148438 -5.34375 18.160156 -5.835938 19.171875 -6.515625 L 19.171875 -1.265625 C 18.171875 -0.640625 17.164062 -0.207031 16.15625 0.03125 C 15.144531 0.28125 13.867188 0.40625 12.328125 0.40625 Z M 12.328125 0.40625 "/></g></g></g><g fill="#000000" fill-opacity="1"><g transform="translate(1194.452387, 438.537223)"><g><path d="M 17.484375 0 L 16.296875 -3.046875 L 16.125 -3.046875 C 15.09375 -1.753906 14.03125 -0.851562 12.9375 -0.34375 C 11.851562 0.15625 10.429688 0.40625 8.671875 0.40625 C 6.515625 0.40625 4.816406 -0.207031 3.578125 -1.4375 C 2.347656 -2.675781 1.734375 -4.429688 1.734375 -6.703125 C 1.734375 -9.085938 2.566406 -10.847656 4.234375 -11.984375 C 5.898438 -13.117188 8.410156 -13.742188 11.765625 -13.859375 L 15.671875 -13.984375 L 15.671875 -14.96875 C 15.671875 -17.238281 14.503906 -18.375 12.171875 -18.375 C 10.378906 -18.375 8.269531 -17.832031 5.84375 -16.75 L 3.8125 -20.890625 C 6.394531 -22.242188 9.265625 -22.921875 12.421875 -22.921875 C 15.429688 -22.921875 17.738281 -22.265625 19.34375 -20.953125 C 20.945312 -19.640625 21.75 -17.644531 21.75 -14.96875 L 21.75 0 Z M 15.671875 -10.40625 L 13.296875 -10.328125 C 11.515625 -10.273438 10.1875 -9.953125 9.3125 -9.359375 C 8.445312 -8.773438 8.015625 -7.878906 8.015625 -6.671875 C 8.015625 -4.941406 9.003906 -4.078125 10.984375 -4.078125 C 12.410156 -4.078125 13.546875 -4.484375 14.390625 -5.296875 C 15.242188 -6.117188 15.671875 -7.207031 15.671875 -8.5625 Z M 15.671875 -10.40625 "/></g></g></g><g fill="#cc0829" fill-opacity="1"><g transform="translate(1442.492912, 392.169535)"><g><path d="M 5.421875 -43.078125 L 18.828125 -43.078125 C 24.929688 -43.078125 29.363281 -42.207031 32.125 -40.46875 C 34.882812 -38.726562 36.265625 -35.960938 36.265625 -32.171875 C 36.265625 -29.597656 35.660156 -27.484375 34.453125 -25.828125 C 33.242188 -24.179688 31.640625 -23.191406 29.640625 -22.859375 L 29.640625 -22.5625 C 32.367188 -21.957031 34.335938 -20.816406 35.546875 -19.140625 C 36.753906 -17.472656 37.359375 -15.257812 37.359375 -12.5 C 37.359375 -8.5625 35.9375 -5.492188 33.09375 -3.296875 C 30.257812 -1.097656 26.40625 0 21.53125 0 L 5.421875 0 Z M 14.5625 -26.015625 L 19.859375 -26.015625 C 22.335938 -26.015625 24.128906 -26.394531 25.234375 -27.15625 C 26.347656 -27.925781 26.90625 -29.195312 26.90625 -30.96875 C 26.90625 -32.613281 26.300781 -33.796875 25.09375 -34.515625 C 23.882812 -35.234375 21.972656 -35.59375 19.359375 -35.59375 L 14.5625 -35.59375 Z M 14.5625 -18.765625 L 14.5625 -7.546875 L 20.5 -7.546875 C 23.019531 -7.546875 24.878906 -8.023438 26.078125 -8.984375 C 27.273438 -9.953125 27.875 -11.425781 27.875 -13.40625 C 27.875 -16.976562 25.320312 -18.765625 20.21875 -18.765625 Z M 14.5625 -18.765625 "/></g></g></g><g fill="#000000" fill-opacity="1"><g transform="translate(691.336516, 683.611967)"><g><path d="M 36.265625 0 L 32.703125 -11.703125 L 14.78125 -11.703125 L 11.21875 0 L 0 0 L 17.34375 -49.328125 L 30.078125 -49.328125 L 47.484375 0 Z M 30.21875 -20.4375 C 26.914062 -31.03125 25.054688 -37.019531 24.640625 -38.40625 C 24.234375 -39.800781 23.941406 -40.898438 23.765625 -41.703125 C 23.023438 -38.835938 20.90625 -31.75 17.40625 -20.4375 Z M 30.21875 -20.4375 "/></g></g></g><g fill="#000000" fill-opacity="1"><g transform="translate(790.413294, 683.611967)"><g><path d="M 6.1875 -49.140625 L 21.46875 -49.140625 C 28.4375 -49.140625 33.492188 -48.144531 36.640625 -46.15625 C 39.796875 -44.175781 41.375 -41.023438 41.375 -36.703125 C 41.375 -33.765625 40.679688 -31.351562 39.296875 -29.46875 C 37.921875 -27.59375 36.09375 -26.460938 33.8125 -26.078125 L 33.8125 -25.75 C 36.925781 -25.050781 39.171875 -23.75 40.546875 -21.84375 C 41.921875 -19.9375 42.609375 -17.40625 42.609375 -14.25 C 42.609375 -9.769531 40.988281 -6.273438 37.75 -3.765625 C 34.519531 -1.253906 30.125 0 24.5625 0 L 6.1875 0 Z M 16.609375 -29.671875 L 22.65625 -29.671875 C 25.476562 -29.671875 27.519531 -30.109375 28.78125 -30.984375 C 30.050781 -31.859375 30.6875 -33.304688 30.6875 -35.328125 C 30.6875 -37.203125 29.992188 -38.546875 28.609375 -39.359375 C 27.234375 -40.179688 25.054688 -40.59375 22.078125 -40.59375 L 16.609375 -40.59375 Z M 16.609375 -21.40625 L 16.609375 -8.609375 L 23.390625 -8.609375 C 26.253906 -8.609375 28.367188 -9.15625 29.734375 -10.25 C 31.109375 -11.34375 31.796875 -13.023438 31.796875 -15.296875 C 31.796875 -19.367188 28.882812 -21.40625 23.0625 -21.40625 Z M 16.609375 -21.40625 "/></g></g></g><g fill="#000000" fill-opacity="1"><g transform="translate(741.56252, 683.615213)"><g><path d="M 41.53125 -44.1875 L 41.53125 -15.59375 C 41.53125 -12.332031 40.800781 -9.472656 39.34375 -7.015625 C 37.882812 -4.554688 35.773438 -2.671875 33.015625 -1.359375 C 30.253906 -0.046875 26.988281 0.609375 23.21875 0.609375 C 17.53125 0.609375 13.113281 -0.84375 9.96875 -3.75 C 6.832031 -6.664062 5.265625 -10.65625 5.265625 -15.71875 L 5.265625 -44.1875 L 14.59375 -44.1875 L 14.59375 -17.140625 C 14.59375 -13.734375 15.273438 -11.234375 16.640625 -9.640625 C 18.015625 -8.046875 20.285156 -7.25 23.453125 -7.25 C 26.515625 -7.25 28.734375 -8.050781 30.109375 -9.65625 C 31.492188 -11.257812 32.1875 -13.773438 32.1875 -17.203125 L 32.1875 -44.1875 Z M 41.53125 -44.1875 "/></g></g></g><g fill="#1e76e9" fill-opacity="1"><g transform="translate(1104.818482, 308.242226)"><g><path d="M 31.796875 0 L 28.671875 -10.25 L 12.96875 -10.25 L 9.84375 0 L 0 0 L 15.203125 -43.25 L 26.375 -43.25 L 41.640625 0 Z M 26.484375 -17.921875 C 23.597656 -27.203125 21.972656 -32.453125 21.609375 -33.671875 C 21.242188 -34.890625 20.984375 -35.851562 20.828125 -36.5625 C 20.179688 -34.050781 18.328125 -27.835938 15.265625 -17.921875 Z M 26.484375 -17.921875 "/></g></g></g><g clip-path="url(#0247f3355e)"><g clip-path="url(#23141cc2ea)"><g clip-path="url(#7ffb1bde26)"><path fill="#1e76e9" d="M 1024.875 706.902344 C 1003.621094 738.734375 967.433594 771.953125 930.234375 792.4375 C 915.523438 799.734375 900.226562 805.464844 884.339844 809.632812 C 888.894531 810 893.949219 810.316406 898.152344 810.378906 C 902.921875 810.589844 902.78125 810.5625 905.773438 810.804688 L 905.707031 810.792969 C 905.75 810.789062 905.792969 810.808594 905.835938 810.808594 L 906.183594 810.835938 C 907.355469 810.925781 906.46875 810.871094 905.976562 810.828125 C 906.457031 810.835938 906.921875 810.921875 907.371094 811.074219 C 907.824219 811.230469 908.242188 811.449219 908.625 811.734375 C 909.007812 812.023438 909.339844 812.359375 909.617188 812.746094 C 909.894531 813.136719 910.109375 813.554688 910.253906 814.011719 C 911.71875 822.640625 899.671875 819.855469 892.777344 820.015625 C 886.195312 818.886719 862.804688 821.023438 863.855469 811.226562 C 863.714844 810.824219 863.621094 810.414062 863.574219 809.992188 C 863.53125 809.570312 863.535156 809.148438 863.589844 808.730469 C 863.640625 808.308594 863.742188 807.898438 863.890625 807.5 C 864.039062 807.105469 864.234375 806.730469 864.472656 806.378906 C 864.707031 806.027344 864.980469 805.707031 865.292969 805.417969 C 865.605469 805.128906 865.945312 804.882812 866.316406 804.675781 C 866.6875 804.464844 867.074219 804.304688 867.480469 804.1875 C 867.890625 804.070312 868.304688 804 868.730469 803.980469 C 875.523438 796.253906 882.492188 788.652344 889.359375 780.996094 C 889.699219 780.648438 890.078125 780.359375 890.503906 780.125 C 890.925781 779.890625 891.375 779.71875 891.847656 779.613281 C 892.316406 779.507812 892.796875 779.472656 893.277344 779.507812 C 893.761719 779.539062 894.230469 779.640625 894.683594 779.8125 C 895.136719 779.980469 895.554688 780.210938 895.941406 780.503906 C 896.328125 780.792969 896.664062 781.132812 896.953125 781.523438 C 897.242188 781.910156 897.46875 782.332031 897.632812 782.789062 C 897.800781 783.242188 897.898438 783.710938 897.925781 784.195312 C 897.675781 788.59375 892.878906 791.082031 890.503906 794.457031 C 889.28125 795.828125 888.046875 797.1875 886.820312 798.554688 C 904.671875 793.109375 921.234375 787.40625 936.03125 777.671875 C 951 768.105469 965.050781 757.335938 978.183594 745.371094 C 991.3125 733.402344 1003.335938 720.410156 1014.246094 706.390625 C 1016.1875 704.464844 1017.402344 701.457031 1020.039062 700.429688 C 1020.480469 700.304688 1020.929688 700.253906 1021.386719 700.269531 C 1021.84375 700.289062 1022.285156 700.378906 1022.714844 700.535156 C 1023.140625 700.695312 1023.535156 700.917969 1023.894531 701.199219 C 1024.253906 701.484375 1024.558594 701.816406 1024.8125 702.199219 C 1025.0625 702.578125 1025.25 702.988281 1025.375 703.429688 C 1025.496094 703.871094 1025.546875 704.316406 1025.527344 704.773438 C 1025.507812 705.230469 1025.417969 705.675781 1025.257812 706.101562 C 1025.097656 706.53125 1024.875 706.921875 1024.589844 707.28125 C 1024.8125 706.964844 1025.117188 706.546875 1024.875 706.902344 Z M 1024.875 706.902344 " fill-opacity="1" fill-rule="nonzero"/></g></g></g><g clip-path="url(#bf0a4845c9)"><g clip-path="url(#985bb6c468)"><path stroke-linecap="butt" transform="matrix(0.75, 0, 0, 0.75, 267.312519, 665.669875)" fill="none" stroke-linejoin="miter" d="M 357.833339 -0.00254124 C 160.208322 -0.00254124 -0.0000254863 121.841219 -0.0000254863 272.138107 C -0.0000254863 422.434995 160.208322 544.278756 357.833339 544.278756 C 555.463564 544.278756 715.671911 422.434995 715.671911 272.138107 C 715.671911 121.841219 555.463564 -0.00254124 357.833339 -0.00254124 Z M 357.833339 -0.00254124 " stroke="#000000" stroke-width="16" stroke-opacity="1" stroke-miterlimit="4"/></g></g><g clip-path="url(#6150e6a810)"><g clip-path="url(#aed809b2b0)"><path fill="#000000" d="M 354.625 899.5 L 374.3125 899.5 L 374.3125 919.1875 L 354.625 919.1875 Z M 354.625 899.5 " fill-opacity="1" fill-rule="nonzero"/></g></g><g clip-path="url(#9360fc7152)"><g clip-path="url(#c648ee6a8f)"><path fill="#000000" d="M 513.082031 779.402344 L 532.769531 779.402344 L 532.769531 799.085938 L 513.082031 799.085938 Z M 513.082031 779.402344 " fill-opacity="1" fill-rule="nonzero"/></g></g><g clip-path="url(#a5a562cab0)"><g clip-path="url(#066c4e436b)"><path fill="#000000" d="M 503.238281 943.867188 L 522.925781 943.867188 L 522.925781 963.550781 L 503.238281 963.550781 Z M 503.238281 943.867188 " fill-opacity="1" fill-rule="nonzero"/></g></g><g fill="#000000" fill-opacity="1"><g transform="translate(377.771635, 887.127652)"><g><path d="M 17.484375 0 L 16.296875 -3.046875 L 16.125 -3.046875 C 15.09375 -1.753906 14.03125 -0.851562 12.9375 -0.34375 C 11.851562 0.15625 10.429688 0.40625 8.671875 0.40625 C 6.515625 0.40625 4.816406 -0.207031 3.578125 -1.4375 C 2.347656 -2.675781 1.734375 -4.429688 1.734375 -6.703125 C 1.734375 -9.085938 2.566406 -10.847656 4.234375 -11.984375 C 5.898438 -13.117188 8.410156 -13.742188 11.765625 -13.859375 L 15.671875 -13.984375 L 15.671875 -14.96875 C 15.671875 -17.238281 14.503906 -18.375 12.171875 -18.375 C 10.378906 -18.375 8.269531 -17.832031 5.84375 -16.75 L 3.8125 -20.890625 C 6.394531 -22.242188 9.265625 -22.921875 12.421875 -22.921875 C 15.429688 -22.921875 17.738281 -22.265625 19.34375 -20.953125 C 20.945312 -19.640625 21.75 -17.644531 21.75 -14.96875 L 21.75 0 Z M 15.671875 -10.40625 L 13.296875 -10.328125 C 11.515625 -10.273438 10.1875 -9.953125 9.3125 -9.359375 C 8.445312 -8.773438 8.015625 -7.878906 8.015625 -6.671875 C 8.015625 -4.941406 9.003906 -4.078125 10.984375 -4.078125 C 12.410156 -4.078125 13.546875 -4.484375 14.390625 -5.296875 C 15.242188 -6.117188 15.671875 -7.207031 15.671875 -8.5625 Z M 15.671875 -10.40625 "/></g></g></g><g fill="#000000" fill-opacity="1"><g transform="translate(527.883884, 937.126392)"><g><path d="M 15.703125 -22.875 C 18.359375 -22.875 20.4375 -21.835938 21.9375 -19.765625 C 23.4375 -17.703125 24.1875 -14.867188 24.1875 -11.265625 C 24.1875 -7.554688 23.410156 -4.679688 21.859375 -2.640625 C 20.316406 -0.609375 18.210938 0.40625 15.546875 0.40625 C 12.910156 0.40625 10.84375 -0.550781 9.34375 -2.46875 L 8.921875 -2.46875 L 7.890625 0 L 3.21875 0 L 3.21875 -31.25 L 9.34375 -31.25 L 9.34375 -23.984375 C 9.34375 -23.054688 9.257812 -21.578125 9.09375 -19.546875 L 9.34375 -19.546875 C 10.769531 -21.765625 12.890625 -22.875 15.703125 -22.875 Z M 13.734375 -17.984375 C 12.222656 -17.984375 11.117188 -17.515625 10.421875 -16.578125 C 9.722656 -15.648438 9.363281 -14.113281 9.34375 -11.96875 L 9.34375 -11.3125 C 9.34375 -8.894531 9.695312 -7.164062 10.40625 -6.125 C 11.125 -5.082031 12.265625 -4.5625 13.828125 -4.5625 C 15.078125 -4.5625 16.070312 -5.140625 16.8125 -6.296875 C 17.5625 -7.453125 17.9375 -9.132812 17.9375 -11.34375 C 17.9375 -13.5625 17.5625 -15.222656 16.8125 -16.328125 C 16.0625 -17.429688 15.035156 -17.984375 13.734375 -17.984375 Z M 13.734375 -17.984375 "/></g></g></g><g fill="#000000" fill-opacity="1"><g transform="translate(530.323834, 769.602662)"><g><path d="M 12.328125 0.40625 C 5.335938 0.40625 1.84375 -3.429688 1.84375 -11.109375 C 1.84375 -14.921875 2.789062 -17.832031 4.6875 -19.84375 C 6.59375 -21.863281 9.320312 -22.875 12.875 -22.875 C 15.476562 -22.875 17.8125 -22.367188 19.875 -21.359375 L 18.0625 -16.609375 C 17.09375 -17.003906 16.191406 -17.320312 15.359375 -17.5625 C 14.535156 -17.8125 13.707031 -17.9375 12.875 -17.9375 C 9.6875 -17.9375 8.09375 -15.675781 8.09375 -11.15625 C 8.09375 -6.757812 9.6875 -4.5625 12.875 -4.5625 C 14.050781 -4.5625 15.140625 -4.71875 16.140625 -5.03125 C 17.148438 -5.34375 18.160156 -5.835938 19.171875 -6.515625 L 19.171875 -1.265625 C 18.171875 -0.640625 17.164062 -0.207031 16.15625 0.03125 C 15.144531 0.28125 13.867188 0.40625 12.328125 0.40625 Z M 12.328125 0.40625 "/></g></g></g><g clip-path="url(#110fa1ce85)"><g clip-path="url(#054daae183)"><path fill="#000000" d="M 643.144531 851.789062 L 662.832031 851.789062 L 662.832031 871.476562 L 643.144531 871.476562 Z M 643.144531 851.789062 " fill-opacity="1" fill-rule="nonzero"/></g></g><g fill="#000000" fill-opacity="1"><g transform="translate(667.788483, 845.051024)"><g><path d="M 10.328125 0.40625 C 7.691406 0.40625 5.617188 -0.617188 4.109375 -2.671875 C 2.597656 -4.722656 1.84375 -7.5625 1.84375 -11.1875 C 1.84375 -14.875 2.609375 -17.742188 4.140625 -19.796875 C 5.679688 -21.847656 7.796875 -22.875 10.484375 -22.875 C 13.304688 -22.875 15.460938 -21.78125 16.953125 -19.59375 L 17.15625 -19.59375 C 16.84375 -21.257812 16.6875 -22.75 16.6875 -24.0625 L 16.6875 -31.25 L 22.84375 -31.25 L 22.84375 0 L 18.140625 0 L 16.953125 -2.90625 L 16.6875 -2.90625 C 15.300781 -0.695312 13.179688 0.40625 10.328125 0.40625 Z M 12.46875 -4.484375 C 14.039062 -4.484375 15.191406 -4.9375 15.921875 -5.84375 C 16.648438 -6.757812 17.046875 -8.304688 17.109375 -10.484375 L 17.109375 -11.15625 C 17.109375 -13.5625 16.738281 -15.285156 16 -16.328125 C 15.257812 -17.378906 14.050781 -17.90625 12.375 -17.90625 C 11.007812 -17.90625 9.945312 -17.320312 9.1875 -16.15625 C 8.4375 -15 8.0625 -13.316406 8.0625 -11.109375 C 8.0625 -8.898438 8.441406 -7.242188 9.203125 -6.140625 C 9.960938 -5.035156 11.050781 -4.484375 12.46875 -4.484375 Z M 12.46875 -4.484375 "/></g></g></g></svg>