<svg xmlns="http://www.w3.org/2000/svg" xmlns:xlink="http://www.w3.org/1999/xlink" width="2000" zoomAndPan="magnify" viewBox="0 0 1500 1124.99995" height="1500" preserveAspectRatio="xMidYMid meet" version="1.0"><defs><g/><clipPath id="dd5ef2fd47"><path d="M 64.488281 199.144531 L 529.484375 199.144531 L 529.484375 624.03125 L 64.488281 624.03125 Z M 64.488281 199.144531 " clip-rule="nonzero"/></clipPath><clipPath id="eb18a65784"><path d="M 296.898438 199.144531 C 168.542969 199.144531 64.488281 294.261719 64.488281 411.589844 C 64.488281 528.917969 168.542969 624.03125 296.898438 624.03125 C 425.253906 624.03125 529.308594 528.917969 529.308594 411.589844 C 529.308594 294.261719 425.253906 199.144531 296.898438 199.144531 Z M 296.898438 199.144531 " clip-rule="nonzero"/></clipPath><clipPath id="27e5f9c082"><path d="M 107.121094 457.976562 L 132.878906 457.976562 L 132.878906 483.738281 L 107.121094 483.738281 Z M 107.121094 457.976562 " clip-rule="nonzero"/></clipPath><clipPath id="98556d4f2d"><path d="M 120 457.976562 C 112.886719 457.976562 107.121094 463.742188 107.121094 470.855469 C 107.121094 477.96875 112.886719 483.738281 120 483.738281 C 127.113281 483.738281 132.878906 477.96875 132.878906 470.855469 C 132.878906 463.742188 127.113281 457.976562 120 457.976562 Z M 120 457.976562 " clip-rule="nonzero"/></clipPath><clipPath id="00970311ff"><path d="M 320.503906 213.40625 L 769.003906 213.40625 L 769.003906 624.40625 L 320.503906 624.40625 Z M 320.503906 213.40625 " clip-rule="nonzero"/></clipPath><clipPath id="e919ed7731"><path d="M 544.804688 213.40625 C 420.925781 213.40625 320.503906 305.328125 320.503906 418.71875 C 320.503906 532.109375 420.925781 624.027344 544.804688 624.027344 C 668.683594 624.027344 769.109375 532.109375 769.109375 418.71875 C 769.109375 305.328125 668.683594 213.40625 544.804688 213.40625 Z M 544.804688 213.40625 " clip-rule="nonzero"/></clipPath><clipPath id="e73a157202"><path d="M 406.042969 470.9375 L 431.804688 470.9375 L 431.804688 496.699219 L 406.042969 496.699219 Z M 406.042969 470.9375 " clip-rule="nonzero"/></clipPath><clipPath id="b7621baccb"><path d="M 418.925781 470.9375 C 411.808594 470.9375 406.042969 476.703125 406.042969 483.816406 C 406.042969 490.929688 411.808594 496.699219 418.925781 496.699219 C 426.039062 496.699219 431.804688 490.929688 431.804688 483.816406 C 431.804688 476.703125 426.039062 470.9375 418.925781 470.9375 Z M 418.925781 470.9375 " clip-rule="nonzero"/></clipPath><clipPath id="c8da07d622"><path d="M 388.433594 345.863281 L 414.195312 345.863281 L 414.195312 371.625 L 388.433594 371.625 Z M 388.433594 345.863281 " clip-rule="nonzero"/></clipPath><clipPath id="bdd9359013"><path d="M 401.3125 345.863281 C 394.199219 345.863281 388.433594 351.628906 388.433594 358.746094 C 388.433594 365.859375 394.199219 371.625 401.3125 371.625 C 408.425781 371.625 414.195312 365.859375 414.195312 358.746094 C 414.195312 351.628906 408.425781 345.863281 401.3125 345.863281 Z M 401.3125 345.863281 " clip-rule="nonzero"/></clipPath><clipPath id="f2bf92803e"><path d="M 560.683594 540.699219 L 586.445312 540.699219 L 586.445312 566.457031 L 560.683594 566.457031 Z M 560.683594 540.699219 " clip-rule="nonzero"/></clipPath><clipPath id="7230847c2e"><path d="M 573.566406 540.699219 C 566.453125 540.699219 560.683594 546.464844 560.683594 553.578125 C 560.683594 560.691406 566.453125 566.457031 573.566406 566.457031 C 580.679688 566.457031 586.445312 560.691406 586.445312 553.578125 C 586.445312 546.464844 580.679688 540.699219 573.566406 540.699219 Z M 573.566406 540.699219 " clip-rule="nonzero"/></clipPath><clipPath id="746f2b8520"><path d="M 850 402 L 996 402 L 996 542 L 850 542 Z M 850 402 " clip-rule="nonzero"/></clipPath><clipPath id="504db08e2d"><path d="M 1026.253906 453.300781 L 998.53125 545.210938 L 824.765625 492.800781 L 852.484375 400.890625 Z M 1026.253906 453.300781 " clip-rule="nonzero"/></clipPath><clipPath id="0cad8946bc"><path d="M 824.402344 492.902344 L 852.125 400.988281 L 1025.894531 453.402344 L 998.171875 545.3125 Z M 824.402344 492.902344 " clip-rule="nonzero"/></clipPath><clipPath id="749ab01f11"><path d="M 898.339844 561.75 L 1355.089844 561.75 L 1355.089844 969.75 L 898.339844 969.75 Z M 898.339844 561.75 " clip-rule="nonzero"/></clipPath><clipPath id="f342543cbb"><path d="M 1126.785156 561.75 C 1000.617188 561.75 898.339844 653.132812 898.339844 765.855469 C 898.339844 878.578125 1000.617188 969.960938 1126.785156 969.960938 C 1252.949219 969.960938 1355.230469 878.578125 1355.230469 765.855469 C 1355.230469 653.132812 1252.949219 561.75 1126.785156 561.75 Z M 1126.785156 561.75 " clip-rule="nonzero"/></clipPath><clipPath id="0a06d7b007"><path d="M 1066.5625 693.355469 L 1092.324219 693.355469 L 1092.324219 719.117188 L 1066.5625 719.117188 Z M 1066.5625 693.355469 " clip-rule="nonzero"/></clipPath><clipPath id="ab5b882463"><path d="M 1079.445312 693.355469 C 1072.332031 693.355469 1066.5625 699.125 1066.5625 706.238281 C 1066.5625 713.351562 1072.332031 719.117188 1079.445312 719.117188 C 1086.558594 719.117188 1092.324219 713.351562 1092.324219 706.238281 C 1092.324219 699.125 1086.558594 693.355469 1079.445312 693.355469 Z M 1079.445312 693.355469 " clip-rule="nonzero"/></clipPath><clipPath id="2f0e190cd1"><path d="M 1144.648438 873.203125 L 1170.410156 873.203125 L 1170.410156 898.964844 L 1144.648438 898.964844 Z M 1144.648438 873.203125 " clip-rule="nonzero"/></clipPath><clipPath id="11ca064606"><path d="M 1157.53125 873.203125 C 1150.417969 873.203125 1144.648438 878.96875 1144.648438 886.082031 C 1144.648438 893.199219 1150.417969 898.964844 1157.53125 898.964844 C 1164.644531 898.964844 1170.410156 893.199219 1170.410156 886.082031 C 1170.410156 878.96875 1164.644531 873.203125 1157.53125 873.203125 Z M 1157.53125 873.203125 " clip-rule="nonzero"/></clipPath></defs><rect x="-150" width="1800" fill="#ffffff" y="-112.499995" height="1349.99994" fill-opacity="1"/><rect x="-150" width="1800" fill="#ffffff" y="-112.499995" height="1349.99994" fill-opacity="1"/><g clip-path="url(#dd5ef2fd47)"><g clip-path="url(#eb18a65784)"><path stroke-linecap="butt" transform="matrix(0.75, 0, 0, 0.75, 64.487166, 199.145821)" fill="none" stroke-linejoin="miter" d="M 309.881722 -0.00172 C 138.741082 -0.00172 0.00148676 126.821208 0.00148676 283.258721 C 0.00148676 439.696235 138.741082 566.513954 309.881722 566.513954 C 481.022362 566.513954 619.761957 439.696235 619.761957 283.258721 C 619.761957 126.821208 481.022362 -0.00172 309.881722 -0.00172 Z M 309.881722 -0.00172 " stroke="#000000" stroke-width="16" stroke-opacity="1" stroke-miterlimit="4"/></g></g><g clip-path="url(#27e5f9c082)"><g clip-path="url(#98556d4f2d)"><path fill="#1e76e9" d="M 107.121094 457.976562 L 132.878906 457.976562 L 132.878906 483.738281 L 107.121094 483.738281 Z M 107.121094 457.976562 " fill-opacity="1" fill-rule="nonzero"/></g></g><g fill="#000000" fill-opacity="1"><g transform="translate(138.113923, 445.154418)"><g><path d="M 20.5625 -29.953125 C 24.03125 -29.953125 26.742188 -28.597656 28.703125 -25.890625 C 30.671875 -23.179688 31.65625 -19.46875 31.65625 -14.75 C 31.65625 -9.894531 30.640625 -6.132812 28.609375 -3.46875 C 26.585938 -0.800781 23.832031 0.53125 20.34375 0.53125 C 16.894531 0.53125 14.1875 -0.722656 12.21875 -3.234375 L 11.671875 -3.234375 L 10.328125 0 L 4.203125 0 L 4.203125 -40.90625 L 12.21875 -40.90625 L 12.21875 -31.390625 C 12.21875 -30.179688 12.113281 -28.242188 11.90625 -25.578125 L 12.21875 -25.578125 C 14.09375 -28.492188 16.875 -29.953125 20.5625 -29.953125 Z M 17.984375 -23.53125 C 16.003906 -23.53125 14.554688 -22.921875 13.640625 -21.703125 C 12.734375 -20.484375 12.257812 -18.472656 12.21875 -15.671875 L 12.21875 -14.796875 C 12.21875 -11.640625 12.6875 -9.378906 13.625 -8.015625 C 14.5625 -6.648438 16.050781 -5.96875 18.09375 -5.96875 C 19.738281 -5.96875 21.046875 -6.722656 22.015625 -8.234375 C 22.992188 -9.753906 23.484375 -11.960938 23.484375 -14.859375 C 23.484375 -17.742188 22.988281 -19.910156 22 -21.359375 C 21.019531 -22.804688 19.679688 -23.53125 17.984375 -23.53125 Z M 17.984375 -23.53125 "/></g></g></g><g clip-path="url(#00970311ff)"><g clip-path="url(#e919ed7731)"><path stroke-linecap="butt" transform="matrix(0.75, 0, 0, 0.75, 320.502368, 213.405811)" fill="none" stroke-linejoin="miter" d="M 299.069785 0.000585036 C 133.897896 0.000585036 0.00205082 122.563096 0.00205082 273.750609 C 0.00205082 424.938122 133.897896 547.495424 299.069785 547.495424 C 464.241674 547.495424 598.142727 424.938122 598.142727 273.750609 C 598.142727 122.563096 464.241674 0.000585036 299.069785 0.000585036 Z M 299.069785 0.000585036 " stroke="#000000" stroke-width="16" stroke-opacity="1" stroke-miterlimit="4"/></g></g><g clip-path="url(#e73a157202)"><g clip-path="url(#b7621baccb)"><path fill="#000000" d="M 406.042969 470.9375 L 431.804688 470.9375 L 431.804688 496.699219 L 406.042969 496.699219 Z M 406.042969 470.9375 " fill-opacity="1" fill-rule="nonzero"/></g></g><g clip-path="url(#c8da07d622)"><g clip-path="url(#bdd9359013)"><path fill="#000000" d="M 388.433594 345.863281 L 414.195312 345.863281 L 414.195312 371.625 L 388.433594 371.625 Z M 388.433594 345.863281 " fill-opacity="1" fill-rule="nonzero"/></g></g><g clip-path="url(#f2bf92803e)"><g clip-path="url(#7230847c2e)"><path fill="#cc0829" d="M 560.683594 540.699219 L 586.445312 540.699219 L 586.445312 566.457031 L 560.683594 566.457031 Z M 560.683594 540.699219 " fill-opacity="1" fill-rule="nonzero"/></g></g><g fill="#000000" fill-opacity="1"><g transform="translate(431.708957, 464.196221)"><g><path d="M 13.515625 0.53125 C 10.054688 0.53125 7.34375 -0.804688 5.375 -3.484375 C 3.40625 -6.171875 2.421875 -9.890625 2.421875 -14.640625 C 2.421875 -19.460938 3.421875 -23.21875 5.421875 -25.90625 C 7.429688 -28.601562 10.195312 -29.953125 13.71875 -29.953125 C 17.414062 -29.953125 20.238281 -28.515625 22.1875 -25.640625 L 22.453125 -25.640625 C 22.046875 -27.828125 21.84375 -29.78125 21.84375 -31.5 L 21.84375 -40.90625 L 29.890625 -40.90625 L 29.890625 0 L 23.734375 0 L 22.1875 -3.8125 L 21.84375 -3.8125 C 20.019531 -0.914062 17.242188 0.53125 13.515625 0.53125 Z M 16.328125 -5.859375 C 18.378906 -5.859375 19.878906 -6.453125 20.828125 -7.640625 C 21.785156 -8.835938 22.3125 -10.863281 22.40625 -13.71875 L 22.40625 -14.59375 C 22.40625 -17.75 21.914062 -20.007812 20.9375 -21.375 C 19.96875 -22.738281 18.382812 -23.421875 16.1875 -23.421875 C 14.40625 -23.421875 13.019531 -22.660156 12.03125 -21.140625 C 11.039062 -19.628906 10.546875 -17.425781 10.546875 -14.53125 C 10.546875 -11.644531 11.046875 -9.476562 12.046875 -8.03125 C 13.046875 -6.582031 14.472656 -5.859375 16.328125 -5.859375 Z M 16.328125 -5.859375 "/></g></g></g><g fill="#000000" fill-opacity="1"><g transform="translate(585.220442, 525.708623)"><g><path d="M 16.140625 0.53125 C 6.992188 0.53125 2.421875 -4.488281 2.421875 -14.53125 C 2.421875 -19.53125 3.664062 -23.347656 6.15625 -25.984375 C 8.644531 -28.628906 12.210938 -29.953125 16.859375 -29.953125 C 20.253906 -29.953125 23.300781 -29.285156 26 -27.953125 L 23.640625 -21.75 C 22.378906 -22.25 21.203125 -22.660156 20.109375 -22.984375 C 19.023438 -23.316406 17.941406 -23.484375 16.859375 -23.484375 C 12.679688 -23.484375 10.59375 -20.519531 10.59375 -14.59375 C 10.59375 -8.84375 12.679688 -5.96875 16.859375 -5.96875 C 18.398438 -5.96875 19.828125 -6.171875 21.140625 -6.578125 C 22.453125 -6.992188 23.765625 -7.640625 25.078125 -8.515625 L 25.078125 -1.65625 C 23.785156 -0.832031 22.476562 -0.265625 21.15625 0.046875 C 19.832031 0.367188 18.160156 0.53125 16.140625 0.53125 Z M 16.140625 0.53125 "/></g></g></g><g fill="#000000" fill-opacity="1"><g transform="translate(410.555507, 337.237396)"><g><path d="M 22.875 0 L 21.328125 -4 L 21.109375 -4 C 19.765625 -2.300781 18.375 -1.117188 16.9375 -0.453125 C 15.507812 0.203125 13.648438 0.53125 11.359375 0.53125 C 8.535156 0.53125 6.3125 -0.273438 4.6875 -1.890625 C 3.070312 -3.503906 2.265625 -5.800781 2.265625 -8.78125 C 2.265625 -11.90625 3.351562 -14.207031 5.53125 -15.6875 C 7.71875 -17.164062 11.007812 -17.984375 15.40625 -18.140625 L 20.5 -18.296875 L 20.5 -19.59375 C 20.5 -22.570312 18.976562 -24.0625 15.9375 -24.0625 C 13.582031 -24.0625 10.820312 -23.347656 7.65625 -21.921875 L 5 -27.34375 C 8.375 -29.113281 12.125 -30 16.25 -30 C 20.1875 -30 23.207031 -29.140625 25.3125 -27.421875 C 27.414062 -25.703125 28.46875 -23.09375 28.46875 -19.59375 L 28.46875 0 Z M 20.5 -13.625 L 17.40625 -13.515625 C 15.070312 -13.441406 13.332031 -13.019531 12.1875 -12.25 C 11.050781 -11.476562 10.484375 -10.304688 10.484375 -8.734375 C 10.484375 -6.472656 11.78125 -5.34375 14.375 -5.34375 C 16.238281 -5.34375 17.722656 -5.875 18.828125 -6.9375 C 19.941406 -8.007812 20.5 -9.429688 20.5 -11.203125 Z M 20.5 -13.625 "/></g></g></g><g fill="#cc0829" fill-opacity="1"><g transform="translate(735.139339, 276.561448)"><g><path d="M 7.09375 -56.375 L 24.640625 -56.375 C 32.628906 -56.375 38.429688 -55.234375 42.046875 -52.953125 C 45.660156 -50.679688 47.46875 -47.066406 47.46875 -42.109375 C 47.46875 -38.742188 46.675781 -35.976562 45.09375 -33.8125 C 43.507812 -31.65625 41.410156 -30.359375 38.796875 -29.921875 L 38.796875 -29.53125 C 42.367188 -28.738281 44.941406 -27.25 46.515625 -25.0625 C 48.097656 -22.875 48.890625 -19.96875 48.890625 -16.34375 C 48.890625 -11.207031 47.03125 -7.195312 43.3125 -4.3125 C 39.601562 -1.4375 34.5625 0 28.1875 0 L 7.09375 0 Z M 19.046875 -34.046875 L 25.984375 -34.046875 C 29.222656 -34.046875 31.566406 -34.546875 33.015625 -35.546875 C 34.472656 -36.554688 35.203125 -38.21875 35.203125 -40.53125 C 35.203125 -42.6875 34.410156 -44.234375 32.828125 -45.171875 C 31.253906 -46.109375 28.753906 -46.578125 25.328125 -46.578125 L 19.046875 -46.578125 Z M 19.046875 -24.5625 L 19.046875 -9.875 L 26.84375 -9.875 C 30.125 -9.875 32.550781 -10.503906 34.125 -11.765625 C 35.695312 -13.023438 36.484375 -14.953125 36.484375 -17.546875 C 36.484375 -22.222656 33.140625 -24.5625 26.453125 -24.5625 Z M 19.046875 -24.5625 "/></g></g></g><g fill="#000000" fill-opacity="1"><g transform="translate(1259.179035, 584.667271)"><g><path d="M 36.265625 0 L 32.703125 -11.703125 L 14.78125 -11.703125 L 11.21875 0 L 0 0 L 17.34375 -49.328125 L 30.078125 -49.328125 L 47.484375 0 Z M 30.21875 -20.4375 C 26.914062 -31.03125 25.054688 -37.019531 24.640625 -38.40625 C 24.234375 -39.800781 23.941406 -40.898438 23.765625 -41.703125 C 23.023438 -38.835938 20.90625 -31.75 17.40625 -20.4375 Z M 30.21875 -20.4375 "/></g></g></g><g fill="#000000" fill-opacity="1"><g transform="translate(1358.255765, 584.667271)"><g><path d="M 6.1875 -49.140625 L 21.46875 -49.140625 C 28.4375 -49.140625 33.492188 -48.144531 36.640625 -46.15625 C 39.796875 -44.175781 41.375 -41.023438 41.375 -36.703125 C 41.375 -33.765625 40.679688 -31.351562 39.296875 -29.46875 C 37.921875 -27.59375 36.09375 -26.460938 33.8125 -26.078125 L 33.8125 -25.75 C 36.925781 -25.050781 39.171875 -23.75 40.546875 -21.84375 C 41.921875 -19.9375 42.609375 -17.40625 42.609375 -14.25 C 42.609375 -9.769531 40.988281 -6.273438 37.75 -3.765625 C 34.519531 -1.253906 30.125 0 24.5625 0 L 6.1875 0 Z M 16.609375 -29.671875 L 22.65625 -29.671875 C 25.476562 -29.671875 27.519531 -30.109375 28.78125 -30.984375 C 30.050781 -31.859375 30.6875 -33.304688 30.6875 -35.328125 C 30.6875 -37.203125 29.992188 -38.546875 28.609375 -39.359375 C 27.234375 -40.179688 25.054688 -40.59375 22.078125 -40.59375 L 16.609375 -40.59375 Z M 16.609375 -21.40625 L 16.609375 -8.609375 L 23.390625 -8.609375 C 26.253906 -8.609375 28.367188 -9.15625 29.734375 -10.25 C 31.109375 -11.34375 31.796875 -13.023438 31.796875 -15.296875 C 31.796875 -19.367188 28.882812 -21.40625 23.0625 -21.40625 Z M 16.609375 -21.40625 "/></g></g></g><g fill="#000000" fill-opacity="1"><g transform="translate(1356.197734, 538.822289)"><g><path d="M -41.53125 44.1875 L -41.53125 15.59375 C -41.53125 12.332031 -40.800781 9.472656 -39.34375 7.015625 C -37.882812 4.554688 -35.773438 2.671875 -33.015625 1.359375 C -30.253906 0.046875 -26.988281 -0.609375 -23.21875 -0.609375 C -17.53125 -0.609375 -13.113281 0.84375 -9.96875 3.75 C -6.832031 6.664062 -5.265625 10.65625 -5.265625 15.71875 L -5.265625 44.1875 L -14.59375 44.1875 L -14.59375 17.140625 C -14.59375 13.734375 -15.273438 11.234375 -16.640625 9.640625 C -18.015625 8.046875 -20.285156 7.25 -23.453125 7.25 C -26.515625 7.25 -28.734375 8.050781 -30.109375 9.65625 C -31.492188 11.257812 -32.1875 13.773438 -32.1875 17.203125 L -32.1875 44.1875 Z M -41.53125 44.1875 "/></g></g></g><g fill="#1e76e9" fill-opacity="1"><g transform="translate(293.261406, 166.735022)"><g><path d="M 41.59375 0 L 37.515625 -13.421875 L 16.96875 -13.421875 L 12.875 0 L 0 0 L 19.890625 -56.59375 L 34.5 -56.59375 L 54.46875 0 Z M 34.65625 -23.4375 C 30.875 -35.59375 28.742188 -42.46875 28.265625 -44.0625 C 27.796875 -45.65625 27.457031 -46.914062 27.25 -47.84375 C 26.40625 -44.550781 23.976562 -36.414062 19.96875 -23.4375 Z M 34.65625 -23.4375 "/></g></g></g><g clip-path="url(#746f2b8520)"><g clip-path="url(#504db08e2d)"><g clip-path="url(#0cad8946bc)"><path fill="#1e76e9" d="M 856.828125 402.917969 C 892.171875 417.621094 931.753906 446.707031 959.039062 479.25 C 969.039062 492.273438 977.617188 506.175781 984.773438 520.957031 C 984.257812 516.414062 983.589844 511.394531 982.839844 507.257812 C 982.128906 502.539062 982.125 502.683594 981.785156 499.703125 L 981.785156 499.769531 C 981.777344 499.726562 981.785156 499.679688 981.777344 499.636719 L 981.738281 499.289062 C 981.597656 498.121094 981.71875 499.003906 981.765625 499.496094 C 981.6875 499.023438 981.675781 498.550781 981.742188 498.078125 C 981.808594 497.605469 981.941406 497.152344 982.148438 496.722656 C 982.355469 496.292969 982.621094 495.902344 982.949219 495.554688 C 983.277344 495.207031 983.648438 494.914062 984.066406 494.683594 C 992.25 491.578125 991.84375 503.9375 993.335938 510.671875 C 993.496094 517.347656 1000.113281 539.882812 990.296875 540.746094 C 989.933594 540.964844 989.546875 541.132812 989.140625 541.261719 C 988.738281 541.386719 988.324219 541.464844 987.898438 541.492188 C 987.476562 541.519531 987.054688 541.5 986.636719 541.429688 C 986.21875 541.359375 985.8125 541.246094 985.421875 541.078125 C 985.03125 540.914062 984.664062 540.707031 984.320312 540.457031 C 983.976562 540.207031 983.667969 539.921875 983.394531 539.597656 C 983.117188 539.277344 982.882812 538.925781 982.691406 538.546875 C 982.496094 538.171875 982.347656 537.777344 982.246094 537.363281 C 973.355469 532.191406 964.550781 526.824219 955.707031 521.5625 C 955.304688 521.296875 954.945312 520.980469 954.632812 520.609375 C 954.320312 520.242188 954.066406 519.835938 953.875 519.390625 C 953.679688 518.949219 953.550781 518.488281 953.492188 518.007812 C 953.429688 517.527344 953.441406 517.046875 953.519531 516.570312 C 953.597656 516.09375 953.742188 515.636719 953.953125 515.199219 C 954.164062 514.765625 954.433594 514.367188 954.757812 514.011719 C 955.085938 513.652344 955.453125 513.351562 955.867188 513.097656 C 956.28125 512.847656 956.722656 512.664062 957.191406 512.539062 C 961.558594 511.933594 964.925781 516.164062 968.699219 517.839844 C 970.277344 518.777344 971.847656 519.726562 973.425781 520.664062 C 964.636719 504.199219 955.839844 489.054688 943.429688 476.414062 C 931.152344 463.574219 917.871094 451.867188 903.59375 441.296875 C 889.316406 430.726562 874.246094 421.441406 858.382812 413.441406 C 856.117188 411.910156 852.929688 411.300781 851.414062 408.910156 C 851.207031 408.503906 851.070312 408.074219 851 407.621094 C 850.929688 407.167969 850.929688 406.71875 851.003906 406.265625 C 851.074219 405.816406 851.21875 405.386719 851.425781 404.980469 C 851.636719 404.574219 851.902344 404.210938 852.226562 403.886719 C 852.550781 403.566406 852.917969 403.304688 853.328125 403.097656 C 853.734375 402.890625 854.164062 402.753906 854.617188 402.6875 C 855.070312 402.617188 855.519531 402.621094 855.972656 402.695312 C 856.421875 402.769531 856.851562 402.914062 857.257812 403.125 C 856.902344 402.964844 856.433594 402.75 856.828125 402.917969 Z M 856.828125 402.917969 " fill-opacity="1" fill-rule="nonzero"/></g></g></g><g clip-path="url(#749ab01f11)"><g clip-path="url(#f342543cbb)"><path stroke-linecap="butt" transform="matrix(0.75, 0, 0, 0.75, 898.33846, 561.751444)" fill="none" stroke-linejoin="miter" d="M 304.595621 -0.00192484 C 136.371648 -0.00192484 0.00184503 121.841836 0.00184503 272.138724 C 0.00184503 422.435612 136.371648 544.279372 304.595621 544.279372 C 472.814386 544.279372 609.189397 422.435612 609.189397 272.138724 C 609.189397 121.841836 472.814386 -0.00192484 304.595621 -0.00192484 Z M 304.595621 -0.00192484 " stroke="#000000" stroke-width="16" stroke-opacity="1" stroke-miterlimit="4"/></g></g><g fill="#000000" fill-opacity="1"><g transform="translate(1175.317329, 862.003034)"><g><path d="M 13.296875 0.515625 C 9.898438 0.515625 7.226562 -0.800781 5.28125 -3.4375 C 3.34375 -6.082031 2.375 -9.742188 2.375 -14.421875 C 2.375 -19.160156 3.363281 -22.851562 5.34375 -25.5 C 7.320312 -28.144531 10.046875 -29.46875 13.515625 -29.46875 C 17.148438 -29.46875 19.925781 -28.054688 21.84375 -25.234375 L 22.09375 -25.234375 C 21.695312 -27.390625 21.5 -29.3125 21.5 -31 L 21.5 -40.265625 L 29.421875 -40.265625 L 29.421875 0 L 23.375 0 L 21.84375 -3.75 L 21.5 -3.75 C 19.707031 -0.90625 16.972656 0.515625 13.296875 0.515625 Z M 16.078125 -5.765625 C 18.085938 -5.765625 19.5625 -6.351562 20.5 -7.53125 C 21.445312 -8.707031 21.960938 -10.703125 22.046875 -13.515625 L 22.046875 -14.359375 C 22.046875 -17.460938 21.566406 -19.6875 20.609375 -21.03125 C 19.648438 -22.382812 18.09375 -23.0625 15.9375 -23.0625 C 14.175781 -23.0625 12.804688 -22.3125 11.828125 -20.8125 C 10.859375 -19.320312 10.375 -17.15625 10.375 -14.3125 C 10.375 -11.46875 10.863281 -9.332031 11.84375 -7.90625 C 12.832031 -6.476562 14.242188 -5.765625 16.078125 -5.765625 Z M 16.078125 -5.765625 "/></g></g></g><g fill="#000000" fill-opacity="1"><g transform="translate(1092.732835, 682.156793)"><g><path d="M 22.515625 0 L 20.984375 -3.9375 L 20.78125 -3.9375 C 19.445312 -2.257812 18.078125 -1.097656 16.671875 -0.453125 C 15.265625 0.191406 13.4375 0.515625 11.1875 0.515625 C 8.40625 0.515625 6.210938 -0.273438 4.609375 -1.859375 C 3.015625 -3.453125 2.21875 -5.710938 2.21875 -8.640625 C 2.21875 -11.710938 3.289062 -13.976562 5.4375 -15.4375 C 7.59375 -16.894531 10.835938 -17.703125 15.171875 -17.859375 L 20.1875 -18.015625 L 20.1875 -19.28125 C 20.1875 -22.207031 18.6875 -23.671875 15.6875 -23.671875 C 13.375 -23.671875 10.65625 -22.972656 7.53125 -21.578125 L 4.921875 -26.921875 C 8.242188 -28.660156 11.9375 -29.53125 16 -29.53125 C 19.875 -29.53125 22.847656 -28.679688 24.921875 -26.984375 C 26.992188 -25.296875 28.03125 -22.726562 28.03125 -19.28125 L 28.03125 0 Z M 20.1875 -13.40625 L 17.125 -13.296875 C 14.832031 -13.234375 13.125 -12.820312 12 -12.0625 C 10.882812 -11.300781 10.328125 -10.144531 10.328125 -8.59375 C 10.328125 -6.363281 11.601562 -5.25 14.15625 -5.25 C 15.988281 -5.25 17.453125 -5.773438 18.546875 -6.828125 C 19.640625 -7.878906 20.1875 -9.28125 20.1875 -11.03125 Z M 20.1875 -13.40625 "/></g></g></g><g clip-path="url(#0a06d7b007)"><g clip-path="url(#ab5b882463)"><path fill="#000000" d="M 1066.5625 693.355469 L 1092.324219 693.355469 L 1092.324219 719.117188 L 1066.5625 719.117188 Z M 1066.5625 693.355469 " fill-opacity="1" fill-rule="nonzero"/></g></g><g clip-path="url(#2f0e190cd1)"><g clip-path="url(#11ca064606)"><path fill="#000000" d="M 1144.648438 873.203125 L 1170.410156 873.203125 L 1170.410156 898.964844 L 1144.648438 898.964844 Z M 1144.648438 873.203125 " fill-opacity="1" fill-rule="nonzero"/></g></g></svg>