<svg xmlns="http://www.w3.org/2000/svg" xmlns:xlink="http://www.w3.org/1999/xlink" width="2000" zoomAndPan="magnify" viewBox="0 0 1500 1124.99995" height="1500" preserveAspectRatio="xMidYMid meet" version="1.0"><defs><clipPath id="e1b7e04b77"><path d="M 822.054688 483.058594 L 847.746094 483.058594 L 847.746094 508.75 L 822.054688 508.75 Z M 822.054688 483.058594 " clip-rule="nonzero"/></clipPath><clipPath id="8e9f3884b1"><path d="M 834.898438 483.058594 C 827.804688 483.058594 822.054688 488.808594 822.054688 495.90625 C 822.054688 503 827.804688 508.75 834.898438 508.75 C 841.996094 508.75 847.746094 503 847.746094 495.90625 C 847.746094 488.808594 841.996094 483.058594 834.898438 483.058594 Z M 834.898438 483.058594 " clip-rule="nonzero"/></clipPath></defs><rect x="-150" width="1800" fill="#ffffff" y="-112.499995" height="1349.99994" fill-opacity="1"/><rect x="-150" width="1800" fill="#ffffff" y="-112.499995" height="1349.99994" fill-opacity="1"/><path stroke-linecap="round" transform="matrix(0.00442602, -0.587441, 0.587441, 0.00442602, 827.237434, 797.371327)" fill="none" stroke-linejoin="miter" d="M 8.998598 8.997048 L 775.325168 9.001731 " stroke="#1e76e9" stroke-width="18" stroke-opacity="1" stroke-miterlimit="4"/><path stroke-linecap="round" transform="matrix(0.495262, -0.315946, 0.315946, 0.495262, 359.253226, 793.654832)" fill="none" stroke-linejoin="miter" d="M 9.000057 9.00176 L 1101.41399 9.000748 " stroke="#1e76e9" stroke-width="18" stroke-opacity="1" stroke-miterlimit="4"/><path stroke-linecap="round" transform="matrix(0.417765, 0.413012, -0.413012, 0.417765, 752.498945, 408.441497)" fill="none" stroke-linejoin="miter" d="M 9.00088 8.997873 L 923.698502 8.997868 " stroke="#1e76e9" stroke-width="18" stroke-opacity="1" stroke-miterlimit="4"/><path stroke-linecap="round" transform="matrix(-0.409316, -0.628459, 0.628459, -0.409316, 1138.012087, 803.705767)" fill="none" stroke-linejoin="miter" d="M 6.999361 7.000832 L 750.081745 6.999205 " stroke="#000000" stroke-width="14" stroke-opacity="1" stroke-miterlimit="4"/><path stroke-linecap="round" transform="matrix(0.536294, -0.524298, 0.524298, 0.536294, 353.18599, 793.660928)" fill="none" stroke-linejoin="miter" d="M 6.998158 7.000434 L 893.954688 6.997955 " stroke="#000000" stroke-width="14" stroke-opacity="1" stroke-miterlimit="4"/><path stroke-linecap="round" transform="matrix(-0.75, 0, 0, -0.75, 1142.410831, 802.665151)" fill="none" stroke-linejoin="miter" d="M 7.0009 7.001452 L 1040.412448 7.001452 " stroke="#000000" stroke-width="14" stroke-opacity="1" stroke-miterlimit="4"/><g clip-path="url(#e1b7e04b77)"><g clip-path="url(#8e9f3884b1)"><path fill="#cc0829" d="M 822.054688 483.058594 L 847.746094 483.058594 L 847.746094 508.75 L 822.054688 508.75 Z M 822.054688 483.058594 " fill-opacity="1" fill-rule="nonzero"/></g></g></svg>