<svg xmlns="http://www.w3.org/2000/svg" xmlns:xlink="http://www.w3.org/1999/xlink" width="2000" zoomAndPan="magnify" viewBox="0 0 1500 1124.99995" height="1500" preserveAspectRatio="xMidYMid meet" version="1.0"><defs><clipPath id="cc2df6f298"><path d="M 850.792969 556.023438 L 883.59375 556.023438 L 883.59375 588.828125 L 850.792969 588.828125 Z M 850.792969 556.023438 " clip-rule="nonzero"/></clipPath><clipPath id="79b078039b"><path d="M 867.195312 556.023438 C 858.136719 556.023438 850.792969 563.367188 850.792969 572.425781 C 850.792969 581.484375 858.136719 588.828125 867.195312 588.828125 C 876.25 588.828125 883.59375 581.484375 883.59375 572.425781 C 883.59375 563.367188 876.25 556.023438 867.195312 556.023438 Z M 867.195312 556.023438 " clip-rule="nonzero"/></clipPath><clipPath id="cdecef9739"><path d="M 649.230469 353.566406 L 1084.980469 353.566406 L 1084.980469 789.3125 L 649.230469 789.3125 Z M 649.230469 353.566406 " clip-rule="nonzero"/></clipPath><clipPath id="26c4abcd2c"><path d="M 867.191406 353.566406 C 746.8125 353.566406 649.230469 451.148438 649.230469 571.527344 C 649.230469 691.90625 746.8125 789.488281 867.191406 789.488281 C 987.570312 789.488281 1085.15625 691.90625 1085.15625 571.527344 C 1085.15625 451.148438 987.570312 353.566406 867.191406 353.566406 Z M 867.191406 353.566406 " clip-rule="nonzero"/></clipPath></defs><rect x="-150" width="1800" fill="#ffffff" y="-112.499995" height="1349.99994" fill-opacity="1"/><rect x="-150" width="1800" fill="#ffffff" y="-112.499995" height="1349.99994" fill-opacity="1"/><path stroke-linecap="round" transform="matrix(-0.649519, -0.375, 0.375, -0.649519, 1240.124351, 795.339296)" fill="none" stroke-linejoin="miter" d="M 9.002501 9.000769 L 886.796711 8.999344 " stroke="#1e76e9" stroke-width="18" stroke-opacity="1" stroke-miterlimit="4"/><path stroke-linecap="round" transform="matrix(0.13155, -0.738373, 0.738373, 0.13155, 821.833955, 791.913656)" fill="none" stroke-linejoin="miter" d="M 8.999036 9.00126 L 753.218888 9.001768 " stroke="#1e76e9" stroke-width="18" stroke-opacity="1" stroke-miterlimit="4"/><path stroke-linecap="round" transform="matrix(0.706274, -0.252343, 0.252343, 0.706274, 247.360999, 786.740072)" fill="none" stroke-linejoin="miter" d="M 9.00021 8.998334 L 1164.108763 9.003042 " stroke="#1e76e9" stroke-width="18" stroke-opacity="1" stroke-miterlimit="4"/><path stroke-linecap="round" transform="matrix(0.577472, -0.478567, 0.478567, 0.577472, 245.325012, 787.900232)" fill="none" stroke-linejoin="miter" d="M 8.999852 8.997598 L 1167.016473 8.998803 " stroke="#000000" stroke-width="18" stroke-opacity="1" stroke-miterlimit="4"/><path stroke-linecap="round" transform="matrix(-0.371838, -0.651334, 0.651334, -0.371838, 1246.674766, 800.815687)" fill="none" stroke-linejoin="miter" d="M 9.001159 9.002457 L 861.794382 9.001099 " stroke="#000000" stroke-width="18" stroke-opacity="1" stroke-miterlimit="4"/><path stroke-linecap="round" transform="matrix(-0.75, 0, 0, -0.75, 1252.534605, 799.848199)" fill="none" stroke-linejoin="miter" d="M 8.999266 9.000725 L 1328.21813 9.000725 " stroke="#000000" stroke-width="18" stroke-opacity="1" stroke-miterlimit="4"/><g clip-path="url(#cc2df6f298)"><g clip-path="url(#79b078039b)"><path fill="#cc0829" d="M 850.792969 556.023438 L 883.59375 556.023438 L 883.59375 588.828125 L 850.792969 588.828125 Z M 850.792969 556.023438 " fill-opacity="1" fill-rule="nonzero"/></g></g><g clip-path="url(#cdecef9739)"><g clip-path="url(#26c4abcd2c)"><path stroke-linecap="butt" transform="matrix(0.75, 0, 0, 0.75, 649.228633, 353.564482)" fill="none" stroke-linejoin="miter" d="M 290.617055 0.00256626 C 130.111833 0.00256626 0.0024471 130.111952 0.0024471 290.617175 C 0.0024471 451.122397 130.111833 581.231783 290.617055 581.231783 C 451.122278 581.231783 581.236872 451.122397 581.236872 290.617175 C 581.236872 130.111952 451.122278 0.00256626 290.617055 0.00256626 Z M 290.617055 0.00256626 " stroke="#5e17eb" stroke-width="30" stroke-opacity="1" stroke-miterlimit="4"/></g></g></svg>