<svg xmlns="http://www.w3.org/2000/svg" xmlns:xlink="http://www.w3.org/1999/xlink" width="2000" zoomAndPan="magnify" viewBox="0 0 1500 1124.99995" height="1500" preserveAspectRatio="xMidYMid meet" version="1.0"><defs><clipPath id="e54789dce8"><path d="M 1279.074219 401.121094 L 1306.441406 401.121094 L 1306.441406 428.484375 L 1279.074219 428.484375 Z M 1279.074219 401.121094 " clip-rule="nonzero"/></clipPath><clipPath id="54830b0639"><path d="M 1292.757812 401.121094 C 1285.203125 401.121094 1279.074219 407.246094 1279.074219 414.800781 C 1279.074219 422.359375 1285.203125 428.484375 1292.757812 428.484375 C 1300.3125 428.484375 1306.441406 422.359375 1306.441406 414.800781 C 1306.441406 407.246094 1300.3125 401.121094 1292.757812 401.121094 Z M 1292.757812 401.121094 " clip-rule="nonzero"/></clipPath><clipPath id="ee84c45c47"><path d="M 763 316 L 800 316 L 800 395 L 763 395 Z M 763 316 " clip-rule="nonzero"/></clipPath><clipPath id="299880fb8c"><path d="M 813.769531 322.910156 L 791.164062 401.472656 L 760.894531 392.761719 L 783.5 314.199219 Z M 813.769531 322.910156 " clip-rule="nonzero"/></clipPath><clipPath id="9bc23af77e"><path d="M 813.769531 322.910156 L 791.164062 401.472656 L 760.894531 392.761719 L 783.5 314.199219 Z M 813.769531 322.910156 " clip-rule="nonzero"/></clipPath><clipPath id="6a6c2d2558"><path d="M 813.769531 322.910156 L 791.164062 401.472656 L 760.894531 392.761719 L 783.5 314.199219 Z M 813.769531 322.910156 " clip-rule="nonzero"/></clipPath><clipPath id="b74d124ea0"><path d="M 256 740 L 295 740 L 295 818 L 256 818 Z M 256 740 " clip-rule="nonzero"/></clipPath><clipPath id="c542f02b47"><path d="M 283.636719 732.382812 L 310.175781 809.707031 L 280.382812 819.933594 L 253.84375 742.609375 Z M 283.636719 732.382812 " clip-rule="nonzero"/></clipPath><clipPath id="6e0b3005b4"><path d="M 283.636719 732.382812 L 310.175781 809.707031 L 280.382812 819.933594 L 253.84375 742.609375 Z M 283.636719 732.382812 " clip-rule="nonzero"/></clipPath><clipPath id="0ebeb09c25"><path d="M 283.636719 732.382812 L 310.175781 809.707031 L 280.382812 819.933594 L 253.84375 742.609375 Z M 283.636719 732.382812 " clip-rule="nonzero"/></clipPath><clipPath id="b9c6386df9"><path d="M 989 764 L 1058 764 L 1058 817 L 989 817 Z M 989 764 " clip-rule="nonzero"/></clipPath><clipPath id="e2c6741ead"><path d="M 1004.441406 746.855469 L 1071.085938 794.199219 L 1052.839844 819.878906 L 986.195312 772.53125 Z M 1004.441406 746.855469 " clip-rule="nonzero"/></clipPath><clipPath id="c1fb1a1e08"><path d="M 1004.441406 746.855469 L 1071.085938 794.199219 L 1052.839844 819.878906 L 986.195312 772.53125 Z M 1004.441406 746.855469 " clip-rule="nonzero"/></clipPath><clipPath id="e674bfa297"><path d="M 1004.441406 746.855469 L 1071.085938 794.199219 L 1052.839844 819.878906 L 986.195312 772.53125 Z M 1004.441406 746.855469 " clip-rule="nonzero"/></clipPath></defs><rect x="-150" width="1800" fill="#ffffff" y="-112.499995" height="1349.99994" fill-opacity="1"/><rect x="-150" width="1800" fill="#ffffff" y="-112.499995" height="1349.99994" fill-opacity="1"/><path stroke-linecap="round" transform="matrix(0.435383, -0.610689, 0.610689, 0.435383, 1002.677755, 812.47491)" fill="none" stroke-linejoin="miter" d="M 7.50006 7.500185 L 761.283381 7.498761 " stroke="#1e76e9" stroke-width="15" stroke-opacity="1" stroke-miterlimit="4"/><path stroke-linecap="round" transform="matrix(-0.744006, -0.0946344, 0.0946344, -0.744006, 1386.787306, 434.063847)" fill="none" stroke-linejoin="miter" d="M 7.49885 7.500966 L 861.443846 7.500911 " stroke="#1e76e9" stroke-width="15" stroke-opacity="1" stroke-miterlimit="4"/><path stroke-linecap="round" transform="matrix(0.706432, -0.2519, 0.2519, 0.706432, 172.594502, 810.442878)" fill="none" stroke-linejoin="miter" d="M 7.499206 7.499281 L 1757.008292 7.501935 " stroke="#1e76e9" stroke-width="15" stroke-opacity="1" stroke-miterlimit="4"/><path stroke-linecap="round" transform="matrix(0.578225, -0.477656, 0.477656, 0.578225, 170.900848, 811.403358)" fill="none" stroke-linejoin="miter" d="M 7.501533 7.498884 L 1072.007441 7.497129 " stroke="#000000" stroke-width="15" stroke-opacity="1" stroke-miterlimit="4"/><path stroke-linecap="round" transform="matrix(-0.371838, -0.651334, 0.651334, -0.371838, 1006.221163, 822.177557)" fill="none" stroke-linejoin="miter" d="M 7.500487 7.49877 L 718.917989 7.499697 " stroke="#000000" stroke-width="15" stroke-opacity="1" stroke-miterlimit="4"/><path stroke-linecap="round" transform="matrix(-0.75, 0, 0, -0.75, 1080.31986, 821.366621)" fill="none" stroke-linejoin="miter" d="M 7.499398 7.499246 L 1200.291167 7.499246 " stroke="#000000" stroke-width="15" stroke-opacity="1" stroke-miterlimit="4"/><g clip-path="url(#e54789dce8)"><g clip-path="url(#54830b0639)"><path fill="#cc0829" d="M 1279.074219 401.121094 L 1306.441406 401.121094 L 1306.441406 428.484375 L 1279.074219 428.484375 Z M 1279.074219 401.121094 " fill-opacity="1" fill-rule="nonzero"/></g></g><g clip-path="url(#ee84c45c47)"><g clip-path="url(#299880fb8c)"><g clip-path="url(#9bc23af77e)"><g clip-path="url(#6a6c2d2558)"><path fill="#000000" d="M 763.25 387.613281 C 763.441406 386.949219 763.75 386.347656 764.179688 385.804688 C 764.609375 385.265625 765.125 384.828125 765.726562 384.492188 C 767.003906 383.78125 768.242188 383.011719 769.441406 382.183594 C 770.640625 381.355469 771.800781 380.46875 772.914062 379.523438 C 774.027344 378.582031 775.089844 377.585938 776.105469 376.539062 C 777.121094 375.492188 778.082031 374.398438 778.992188 373.257812 C 779.898438 372.117188 780.75 370.933594 781.542969 369.707031 C 782.335938 368.484375 783.066406 367.222656 783.734375 365.925781 C 784.402344 364.628906 785.003906 363.304688 785.542969 361.949219 C 786.082031 360.59375 786.554688 359.214844 786.957031 357.8125 C 787.359375 356.414062 787.695312 354.996094 787.957031 353.558594 C 788.222656 352.125 788.414062 350.683594 788.539062 349.230469 C 788.660156 347.777344 788.710938 346.320312 788.691406 344.859375 C 788.671875 343.402344 788.582031 341.949219 788.417969 340.5 C 788.253906 339.050781 788.019531 337.613281 787.71875 336.183594 C 787.414062 334.757812 787.042969 333.347656 786.597656 331.960938 C 786.15625 330.570312 785.648438 329.203125 785.074219 327.863281 C 784.496094 326.523438 783.855469 325.210938 783.152344 323.933594 C 782.988281 323.632812 782.851562 323.320312 782.746094 322.992188 C 782.644531 322.664062 782.574219 322.328125 782.535156 321.988281 C 782.496094 321.644531 782.492188 321.300781 782.523438 320.960938 C 782.550781 320.617188 782.613281 320.28125 782.710938 319.949219 C 782.804688 319.621094 782.933594 319.300781 783.089844 318.996094 C 783.25 318.691406 783.4375 318.40625 783.652344 318.136719 C 783.867188 317.867188 784.105469 317.625 784.367188 317.402344 C 784.632812 317.179688 784.914062 316.988281 785.214844 316.820312 C 785.515625 316.65625 785.832031 316.523438 786.160156 316.417969 C 786.488281 316.3125 786.824219 316.242188 787.164062 316.207031 C 787.507812 316.167969 787.851562 316.164062 788.191406 316.191406 C 788.535156 316.222656 788.871094 316.285156 789.203125 316.382812 C 789.535156 316.476562 789.851562 316.605469 790.15625 316.761719 C 790.460938 316.921875 790.75 317.109375 791.019531 317.324219 C 791.289062 317.539062 791.53125 317.777344 791.753906 318.039062 C 791.976562 318.304688 792.167969 318.585938 792.335938 318.886719 C 793.203125 320.464844 793.992188 322.082031 794.703125 323.734375 C 795.414062 325.390625 796.042969 327.078125 796.585938 328.792969 C 797.132812 330.507812 797.59375 332.246094 797.96875 334.007812 C 798.34375 335.769531 798.628906 337.542969 798.832031 339.335938 C 799.03125 341.125 799.144531 342.917969 799.167969 344.71875 C 799.191406 346.519531 799.128906 348.316406 798.976562 350.109375 C 798.828125 351.902344 798.589844 353.683594 798.261719 355.457031 C 797.9375 357.226562 797.523438 358.976562 797.027344 360.707031 C 796.527344 362.4375 795.945312 364.136719 795.28125 365.8125 C 794.617188 367.484375 793.871094 369.121094 793.046875 370.71875 C 792.222656 372.320312 791.320312 373.875 790.34375 375.386719 C 789.367188 376.898438 788.316406 378.359375 787.195312 379.769531 C 786.074219 381.175781 784.886719 382.527344 783.632812 383.820312 C 782.378906 385.113281 781.066406 386.34375 779.691406 387.507812 C 778.320312 388.671875 776.890625 389.765625 775.410156 390.789062 C 773.929688 391.8125 772.402344 392.761719 770.828125 393.636719 C 770.375 393.886719 769.894531 394.066406 769.386719 394.175781 C 768.878906 394.285156 768.367188 394.316406 767.851562 394.273438 C 767.335938 394.230469 766.835938 394.117188 766.355469 393.925781 C 765.871094 393.734375 765.429688 393.476562 765.023438 393.152344 C 764.617188 392.832031 764.269531 392.457031 763.972656 392.03125 C 763.679688 391.605469 763.453125 391.144531 763.292969 390.652344 C 763.136719 390.15625 763.054688 389.652344 763.046875 389.136719 C 763.039062 388.617188 763.105469 388.109375 763.25 387.613281 Z M 763.25 387.613281 " fill-opacity="1" fill-rule="nonzero"/></g></g></g></g><g clip-path="url(#b74d124ea0)"><g clip-path="url(#c542f02b47)"><g clip-path="url(#6e0b3005b4)"><g clip-path="url(#0ebeb09c25)"><path fill="#000000" d="M 279.359375 814.363281 C 279.136719 813.710938 279.042969 813.039062 279.085938 812.351562 C 279.128906 811.660156 279.300781 811.003906 279.601562 810.382812 C 280.238281 809.070312 280.8125 807.730469 281.320312 806.363281 C 281.828125 804.996094 282.265625 803.605469 282.636719 802.195312 C 283.007812 800.785156 283.308594 799.359375 283.539062 797.917969 C 283.773438 796.480469 283.933594 795.03125 284.023438 793.574219 C 284.113281 792.117188 284.128906 790.664062 284.078125 789.203125 C 284.023438 787.746094 283.898438 786.296875 283.703125 784.851562 C 283.507812 783.40625 283.242188 781.972656 282.90625 780.554688 C 282.566406 779.132812 282.164062 777.734375 281.691406 776.355469 C 281.214844 774.976562 280.675781 773.625 280.070312 772.296875 C 279.464844 770.96875 278.792969 769.675781 278.0625 768.414062 C 277.328125 767.15625 276.535156 765.933594 275.683594 764.75 C 274.828125 763.566406 273.921875 762.429688 272.957031 761.332031 C 271.992188 760.238281 270.976562 759.195312 269.910156 758.199219 C 268.839844 757.207031 267.726562 756.265625 266.570312 755.378906 C 265.410156 754.496094 264.210938 753.667969 262.96875 752.898438 C 261.726562 752.132812 260.453125 751.425781 259.144531 750.785156 C 258.835938 750.632812 258.542969 750.453125 258.269531 750.242188 C 257.996094 750.035156 257.746094 749.800781 257.519531 749.542969 C 257.292969 749.285156 257.09375 749.007812 256.921875 748.707031 C 256.746094 748.410156 256.605469 748.101562 256.496094 747.773438 C 256.382812 747.449219 256.304688 747.117188 256.261719 746.773438 C 256.214844 746.433594 256.203125 746.09375 256.226562 745.75 C 256.25 745.40625 256.304688 745.066406 256.394531 744.734375 C 256.480469 744.402344 256.601562 744.082031 256.753906 743.773438 C 256.90625 743.464844 257.085938 743.175781 257.296875 742.902344 C 257.503906 742.628906 257.738281 742.378906 257.996094 742.152344 C 258.253906 741.921875 258.535156 741.722656 258.832031 741.550781 C 259.128906 741.378906 259.441406 741.238281 259.765625 741.125 C 260.09375 741.015625 260.425781 740.9375 260.769531 740.890625 C 261.109375 740.847656 261.449219 740.835938 261.792969 740.855469 C 262.136719 740.878906 262.476562 740.933594 262.808594 741.023438 C 263.140625 741.109375 263.460938 741.230469 263.769531 741.382812 C 265.386719 742.175781 266.960938 743.046875 268.492188 743.996094 C 270.023438 744.945312 271.503906 745.964844 272.933594 747.058594 C 274.367188 748.152344 275.738281 749.3125 277.054688 750.539062 C 278.375 751.765625 279.628906 753.058594 280.816406 754.40625 C 282.007812 755.757812 283.128906 757.164062 284.183594 758.625 C 285.234375 760.085938 286.214844 761.59375 287.117188 763.148438 C 288.023438 764.707031 288.851562 766.300781 289.597656 767.941406 C 290.347656 769.578125 291.011719 771.246094 291.597656 772.949219 C 292.183594 774.652344 292.679688 776.378906 293.097656 778.132812 C 293.511719 779.882812 293.839844 781.652344 294.082031 783.433594 C 294.324219 785.21875 294.476562 787.011719 294.542969 788.808594 C 294.609375 790.609375 294.585938 792.40625 294.476562 794.203125 C 294.367188 796 294.167969 797.789062 293.882812 799.566406 C 293.597656 801.34375 293.226562 803.101562 292.769531 804.84375 C 292.3125 806.585938 291.769531 808.300781 291.144531 809.988281 C 290.515625 811.679688 289.808594 813.332031 289.023438 814.953125 C 288.792969 815.417969 288.503906 815.839844 288.152344 816.21875 C 287.800781 816.601562 287.398438 816.921875 286.953125 817.179688 C 286.503906 817.441406 286.027344 817.632812 285.523438 817.753906 C 285.019531 817.871094 284.507812 817.917969 283.992188 817.886719 C 283.472656 817.851562 282.972656 817.746094 282.488281 817.566406 C 282 817.386719 281.550781 817.140625 281.140625 816.828125 C 280.726562 816.511719 280.371094 816.144531 280.066406 815.726562 C 279.761719 815.308594 279.527344 814.851562 279.359375 814.363281 Z M 279.359375 814.363281 " fill-opacity="1" fill-rule="nonzero"/></g></g></g></g><g clip-path="url(#b9c6386df9)"><g clip-path="url(#e2c6741ead)"><g clip-path="url(#c1fb1a1e08)"><g clip-path="url(#e674bfa297)"><path fill="#000000" d="M 1048.761719 815.953125 C 1048.199219 815.550781 1047.734375 815.058594 1047.367188 814.476562 C 1047 813.890625 1046.753906 813.257812 1046.636719 812.578125 C 1046.390625 811.140625 1046.078125 809.71875 1045.691406 808.3125 C 1045.304688 806.902344 1044.851562 805.519531 1044.332031 804.15625 C 1043.8125 802.792969 1043.222656 801.460938 1042.574219 800.15625 C 1041.921875 798.847656 1041.207031 797.578125 1040.429688 796.34375 C 1039.65625 795.109375 1038.820312 793.914062 1037.925781 792.761719 C 1037.035156 791.609375 1036.085938 790.503906 1035.085938 789.441406 C 1034.082031 788.382812 1033.03125 787.375 1031.929688 786.417969 C 1030.832031 785.460938 1029.683594 784.558594 1028.496094 783.714844 C 1027.308594 782.871094 1026.082031 782.085938 1024.8125 781.359375 C 1023.546875 780.636719 1022.25 779.976562 1020.917969 779.378906 C 1019.589844 778.78125 1018.230469 778.25 1016.847656 777.789062 C 1015.464844 777.324219 1014.0625 776.929688 1012.640625 776.601562 C 1011.222656 776.273438 1009.785156 776.019531 1008.339844 775.832031 C 1006.894531 775.648438 1005.441406 775.53125 1003.980469 775.488281 C 1002.523438 775.445312 1001.066406 775.472656 999.609375 775.574219 C 998.15625 775.671875 996.707031 775.84375 995.269531 776.082031 C 994.929688 776.140625 994.589844 776.164062 994.246094 776.152344 C 993.902344 776.144531 993.5625 776.097656 993.226562 776.023438 C 992.890625 775.945312 992.566406 775.835938 992.253906 775.695312 C 991.941406 775.550781 991.644531 775.382812 991.363281 775.183594 C 991.082031 774.984375 990.824219 774.757812 990.589844 774.507812 C 990.355469 774.257812 990.144531 773.984375 989.964844 773.695312 C 989.78125 773.402344 989.628906 773.09375 989.507812 772.773438 C 989.386719 772.453125 989.296875 772.121094 989.242188 771.78125 C 989.183594 771.441406 989.160156 771.101562 989.171875 770.757812 C 989.183594 770.414062 989.226562 770.074219 989.304688 769.738281 C 989.382812 769.402344 989.492188 769.078125 989.632812 768.765625 C 989.773438 768.449219 989.945312 768.152344 990.144531 767.875 C 990.34375 767.59375 990.570312 767.335938 990.820312 767.101562 C 991.074219 766.863281 991.34375 766.65625 991.636719 766.472656 C 991.925781 766.289062 992.234375 766.136719 992.554688 766.015625 C 992.878906 765.894531 993.207031 765.804688 993.546875 765.746094 C 995.324219 765.449219 997.109375 765.242188 998.90625 765.117188 C 1000.703125 764.996094 1002.503906 764.960938 1004.300781 765.015625 C 1006.101562 765.070312 1007.894531 765.210938 1009.679688 765.441406 C 1011.464844 765.671875 1013.238281 765.988281 1014.992188 766.390625 C 1016.746094 766.792969 1018.476562 767.28125 1020.183594 767.855469 C 1021.890625 768.425781 1023.566406 769.082031 1025.207031 769.820312 C 1026.851562 770.554688 1028.453125 771.371094 1030.015625 772.265625 C 1031.578125 773.160156 1033.09375 774.128906 1034.558594 775.171875 C 1036.027344 776.214844 1037.441406 777.324219 1038.800781 778.507812 C 1040.15625 779.6875 1041.453125 780.933594 1042.691406 782.242188 C 1043.929688 783.550781 1045.097656 784.914062 1046.199219 786.339844 C 1047.300781 787.761719 1048.332031 789.234375 1049.292969 790.757812 C 1050.25 792.285156 1051.132812 793.851562 1051.9375 795.460938 C 1052.742188 797.074219 1053.464844 798.71875 1054.109375 800.402344 C 1054.75 802.082031 1055.3125 803.792969 1055.785156 805.527344 C 1056.261719 807.265625 1056.652344 809.023438 1056.957031 810.796875 C 1057.042969 811.308594 1057.054688 811.820312 1056.988281 812.335938 C 1056.921875 812.847656 1056.785156 813.34375 1056.574219 813.816406 C 1056.363281 814.289062 1056.085938 814.71875 1055.746094 815.113281 C 1055.40625 815.503906 1055.019531 815.835938 1054.578125 816.113281 C 1054.140625 816.390625 1053.671875 816.59375 1053.171875 816.730469 C 1052.671875 816.867188 1052.164062 816.929688 1051.644531 816.914062 C 1051.128906 816.902344 1050.621094 816.8125 1050.132812 816.648438 C 1049.640625 816.484375 1049.183594 816.25 1048.761719 815.953125 Z M 1048.761719 815.953125 " fill-opacity="1" fill-rule="nonzero"/></g></g></g></g></svg>