<svg xmlns="http://www.w3.org/2000/svg" xmlns:xlink="http://www.w3.org/1999/xlink" width="2000" zoomAndPan="magnify" viewBox="0 0 1500 1124.99995" height="1500" preserveAspectRatio="xMidYMid meet" version="1.0"><defs><clipPath id="a2b9df983a"><path d="M 353.523438 269.832031 L 375.742188 269.832031 L 375.742188 292.050781 L 353.523438 292.050781 Z M 353.523438 269.832031 " clip-rule="nonzero"/></clipPath><clipPath id="bc0515439c"><path d="M 364.632812 269.832031 C 358.5 269.832031 353.523438 274.804688 353.523438 280.941406 C 353.523438 287.074219 358.5 292.050781 364.632812 292.050781 C 370.769531 292.050781 375.742188 287.074219 375.742188 280.941406 C 375.742188 274.804688 370.769531 269.832031 364.632812 269.832031 Z M 364.632812 269.832031 " clip-rule="nonzero"/></clipPath><clipPath id="75b6ad299c"><path d="M 1170 722 L 1216 722 L 1216 796 L 1170 796 Z M 1170 722 " clip-rule="nonzero"/></clipPath><clipPath id="2ba5075cd1"><path d="M 1153.308594 784.40625 L 1190.203125 711.457031 L 1218.3125 725.671875 L 1181.417969 798.625 Z M 1153.308594 784.40625 " clip-rule="nonzero"/></clipPath><clipPath id="74d8735d14"><path d="M 1153.308594 784.40625 L 1190.203125 711.457031 L 1218.3125 725.671875 L 1181.417969 798.625 Z M 1153.308594 784.40625 " clip-rule="nonzero"/></clipPath><clipPath id="2237cffb48"><path d="M 1153.308594 784.40625 L 1190.203125 711.457031 L 1218.3125 725.671875 L 1181.417969 798.625 Z M 1153.308594 784.40625 " clip-rule="nonzero"/></clipPath><clipPath id="ab7b8a378c"><path d="M 530 757 L 608 757 L 608 796 L 530 796 Z M 530 757 " clip-rule="nonzero"/></clipPath><clipPath id="b3fcf25cae"><path d="M 522.3125 767.492188 L 599.988281 742.007812 L 609.808594 771.9375 L 532.132812 797.421875 Z M 522.3125 767.492188 " clip-rule="nonzero"/></clipPath><clipPath id="e5c35af221"><path d="M 522.3125 767.492188 L 599.988281 742.007812 L 609.808594 771.9375 L 532.132812 797.421875 Z M 522.3125 767.492188 " clip-rule="nonzero"/></clipPath><clipPath id="a4240c8fcf"><path d="M 522.3125 767.492188 L 599.988281 742.007812 L 609.808594 771.9375 L 532.132812 797.421875 Z M 522.3125 767.492188 " clip-rule="nonzero"/></clipPath><clipPath id="22be941ce5"><path d="M 980 367 L 1014 367 L 1014 447 L 980 447 Z M 980 367 " clip-rule="nonzero"/></clipPath><clipPath id="5515dd4a30"><path d="M 967.480469 441.820312 L 985.085938 361.988281 L 1015.847656 368.773438 L 998.242188 448.605469 Z M 967.480469 441.820312 " clip-rule="nonzero"/></clipPath><clipPath id="8f2d2a31b9"><path d="M 967.480469 441.820312 L 985.085938 361.988281 L 1015.847656 368.773438 L 998.242188 448.605469 Z M 967.480469 441.820312 " clip-rule="nonzero"/></clipPath><clipPath id="4900d1780d"><path d="M 967.480469 441.820312 L 985.085938 361.988281 L 1015.847656 368.773438 L 998.242188 448.605469 Z M 967.480469 441.820312 " clip-rule="nonzero"/></clipPath></defs><rect x="-150" width="1800" fill="#ffffff" y="-112.499995" height="1349.99994" fill-opacity="1"/><rect x="-150" width="1800" fill="#ffffff" y="-112.499995" height="1349.99994" fill-opacity="1"/><path stroke-linecap="round" transform="matrix(-0.648128, -0.3774, 0.3774, -0.648128, 1246.039846, 797.035759)" fill="none" stroke-linejoin="miter" d="M 6.001486 5.9988 L 1581.730437 5.998863 " stroke="#1e76e9" stroke-width="12" stroke-opacity="1" stroke-miterlimit="4"/><path stroke-linecap="round" transform="matrix(0.735015, 0.149175, -0.149175, 0.735015, 270.328925, 255.804275)" fill="none" stroke-linejoin="miter" d="M 5.999712 6.000005 L 1027.519712 6.001716 " stroke="#1e76e9" stroke-width="12" stroke-opacity="1" stroke-miterlimit="4"/><path stroke-linecap="round" transform="matrix(-0.284071, -0.694121, 0.694121, -0.284071, 570.967544, 797.289631)" fill="none" stroke-linejoin="miter" d="M 5.997347 6.001574 L 860.778171 5.999024 " stroke="#1e76e9" stroke-width="12" stroke-opacity="1" stroke-miterlimit="4"/><path stroke-linecap="round" transform="matrix(0.577472, -0.478567, 0.478567, 0.577472, 572.266448, 792.121496)" fill="none" stroke-linejoin="miter" d="M 5.998924 5.998964 L 790.545888 6.000734 " stroke="#000000" stroke-width="12" stroke-opacity="1" stroke-miterlimit="4"/><path stroke-linecap="round" transform="matrix(-0.374353, -0.649892, 0.649892, -0.374353, 1250.52871, 800.794999)" fill="none" stroke-linejoin="miter" d="M 6.000166 6.002629 L 696.264761 6.002666 " stroke="#000000" stroke-width="12" stroke-opacity="1" stroke-miterlimit="4"/><path stroke-linecap="round" transform="matrix(-0.75, -0.000000001309, 0.000000001309, -0.75, 1254.425421, 800.089903)" fill="none" stroke-linejoin="miter" d="M 5.999521 6.00008 L 1034.890234 6.000078 " stroke="#000000" stroke-width="12" stroke-opacity="1" stroke-miterlimit="4"/><g clip-path="url(#a2b9df983a)"><g clip-path="url(#bc0515439c)"><path fill="#cc0829" d="M 353.523438 269.832031 L 375.742188 269.832031 L 375.742188 292.050781 L 353.523438 292.050781 Z M 353.523438 269.832031 " fill-opacity="1" fill-rule="nonzero"/></g></g><g clip-path="url(#75b6ad299c)"><g clip-path="url(#2ba5075cd1)"><g clip-path="url(#74d8735d14)"><g clip-path="url(#2237cffb48)"><path fill="#000000" d="M 1215.035156 730.292969 C 1214.722656 730.90625 1214.304688 731.441406 1213.785156 731.890625 C 1213.261719 732.339844 1212.671875 732.675781 1212.015625 732.894531 C 1210.632812 733.351562 1209.269531 733.875 1207.9375 734.464844 C 1206.601562 735.054688 1205.300781 735.710938 1204.03125 736.429688 C 1202.761719 737.144531 1201.53125 737.925781 1200.335938 738.765625 C 1199.140625 739.601562 1197.992188 740.496094 1196.886719 741.449219 C 1195.78125 742.402344 1194.726562 743.402344 1193.71875 744.457031 C 1192.710938 745.515625 1191.757812 746.617188 1190.859375 747.765625 C 1189.960938 748.914062 1189.117188 750.101562 1188.335938 751.332031 C 1187.554688 752.5625 1186.832031 753.828125 1186.175781 755.132812 C 1185.515625 756.433594 1184.925781 757.761719 1184.398438 759.121094 C 1183.867188 760.484375 1183.410156 761.863281 1183.015625 763.269531 C 1182.625 764.675781 1182.300781 766.09375 1182.050781 767.53125 C 1181.796875 768.96875 1181.613281 770.414062 1181.503906 771.867188 C 1181.390625 773.320312 1181.351562 774.777344 1181.382812 776.238281 C 1181.414062 777.695312 1181.519531 779.148438 1181.691406 780.597656 C 1181.867188 782.046875 1182.113281 783.480469 1182.425781 784.90625 C 1182.742188 786.332031 1183.125 787.738281 1183.578125 789.125 C 1183.683594 789.453125 1183.757812 789.785156 1183.800781 790.128906 C 1183.839844 790.46875 1183.847656 790.8125 1183.820312 791.152344 C 1183.792969 791.496094 1183.734375 791.832031 1183.640625 792.164062 C 1183.550781 792.496094 1183.425781 792.816406 1183.269531 793.121094 C 1183.113281 793.425781 1182.929688 793.714844 1182.714844 793.984375 C 1182.503906 794.257812 1182.265625 794.503906 1182.003906 794.726562 C 1181.742188 794.949219 1181.460938 795.144531 1181.164062 795.3125 C 1180.863281 795.480469 1180.550781 795.621094 1180.222656 795.726562 C 1179.894531 795.832031 1179.5625 795.90625 1179.21875 795.945312 C 1178.878906 795.988281 1178.535156 795.992188 1178.191406 795.96875 C 1177.847656 795.941406 1177.511719 795.878906 1177.179688 795.789062 C 1176.847656 795.695312 1176.53125 795.570312 1176.222656 795.414062 C 1175.917969 795.257812 1175.628906 795.074219 1175.355469 794.859375 C 1175.085938 794.648438 1174.839844 794.410156 1174.617188 794.148438 C 1174.390625 793.886719 1174.195312 793.605469 1174.027344 793.308594 C 1173.859375 793.007812 1173.722656 792.695312 1173.613281 792.367188 C 1173.054688 790.652344 1172.582031 788.917969 1172.195312 787.160156 C 1171.804688 785.402344 1171.503906 783.628906 1171.289062 781.839844 C 1171.074219 780.054688 1170.949219 778.257812 1170.910156 776.457031 C 1170.871094 774.660156 1170.917969 772.859375 1171.054688 771.066406 C 1171.195312 769.269531 1171.417969 767.484375 1171.730469 765.714844 C 1172.042969 763.941406 1172.441406 762.1875 1172.925781 760.453125 C 1173.410156 758.71875 1173.976562 757.011719 1174.628906 755.335938 C 1175.28125 753.65625 1176.011719 752.015625 1176.824219 750.40625 C 1177.636719 748.800781 1178.527344 747.238281 1179.492188 745.71875 C 1180.457031 744.199219 1181.496094 742.730469 1182.605469 741.3125 C 1183.714844 739.894531 1184.890625 738.535156 1186.132812 737.234375 C 1187.375 735.933594 1188.679688 734.695312 1190.046875 733.519531 C 1191.410156 732.34375 1192.828125 731.238281 1194.300781 730.203125 C 1195.773438 729.167969 1197.292969 728.207031 1198.863281 727.320312 C 1200.429688 726.433594 1202.035156 725.625 1203.683594 724.898438 C 1205.328125 724.167969 1207.007812 723.519531 1208.71875 722.957031 C 1209.210938 722.792969 1209.714844 722.707031 1210.234375 722.695312 C 1210.75 722.683594 1211.261719 722.746094 1211.757812 722.882812 C 1212.257812 723.023438 1212.726562 723.230469 1213.164062 723.507812 C 1213.601562 723.785156 1213.992188 724.121094 1214.328125 724.515625 C 1214.667969 724.90625 1214.941406 725.339844 1215.148438 725.8125 C 1215.359375 726.289062 1215.496094 726.78125 1215.558594 727.296875 C 1215.621094 727.808594 1215.609375 728.324219 1215.519531 728.832031 C 1215.429688 729.34375 1215.269531 729.828125 1215.035156 730.292969 Z M 1215.035156 730.292969 " fill-opacity="1" fill-rule="nonzero"/></g></g></g></g><g clip-path="url(#ab7b8a378c)"><g clip-path="url(#b3fcf25cae)"><g clip-path="url(#e5c35af221)"><g clip-path="url(#a4240c8fcf)"><path fill="#000000" d="M 604.226562 772.886719 C 603.570312 773.101562 602.898438 773.183594 602.210938 773.132812 C 601.523438 773.082031 600.871094 772.898438 600.253906 772.589844 C 598.949219 771.933594 597.617188 771.34375 596.257812 770.816406 C 594.894531 770.289062 593.511719 769.832031 592.105469 769.441406 C 590.703125 769.050781 589.28125 768.730469 587.84375 768.480469 C 586.40625 768.230469 584.960938 768.050781 583.503906 767.941406 C 582.050781 767.832031 580.59375 767.792969 579.136719 767.828125 C 577.679688 767.859375 576.226562 767.964844 574.777344 768.140625 C 573.328125 768.316406 571.894531 768.5625 570.46875 768.878906 C 569.046875 769.199219 567.640625 769.582031 566.257812 770.039062 C 564.871094 770.492188 563.511719 771.015625 562.175781 771.601562 C 560.839844 772.191406 559.539062 772.84375 558.269531 773.558594 C 556.996094 774.273438 555.765625 775.050781 554.570312 775.886719 C 553.375 776.722656 552.222656 777.617188 551.117188 778.566406 C 550.011719 779.515625 548.953125 780.519531 547.941406 781.570312 C 546.933594 782.625 545.980469 783.726562 545.078125 784.871094 C 544.175781 786.019531 543.332031 787.207031 542.546875 788.4375 C 541.765625 789.667969 541.039062 790.933594 540.378906 792.234375 C 540.222656 792.542969 540.039062 792.832031 539.828125 793.101562 C 539.613281 793.371094 539.378906 793.617188 539.117188 793.839844 C 538.855469 794.066406 538.574219 794.261719 538.273438 794.429688 C 537.976562 794.597656 537.660156 794.734375 537.335938 794.84375 C 537.007812 794.949219 536.675781 795.023438 536.332031 795.0625 C 535.992188 795.101562 535.648438 795.109375 535.304688 795.082031 C 534.964844 795.054688 534.625 794.996094 534.296875 794.902344 C 533.964844 794.808594 533.644531 794.683594 533.339844 794.527344 C 533.03125 794.371094 532.742188 794.1875 532.472656 793.976562 C 532.203125 793.761719 531.957031 793.523438 531.734375 793.261719 C 531.507812 793.003906 531.3125 792.722656 531.144531 792.421875 C 530.976562 792.121094 530.839844 791.808594 530.730469 791.480469 C 530.625 791.152344 530.550781 790.816406 530.511719 790.476562 C 530.46875 790.132812 530.464844 789.792969 530.488281 789.449219 C 530.515625 789.105469 530.578125 788.769531 530.667969 788.4375 C 530.761719 788.105469 530.886719 787.789062 531.042969 787.480469 C 531.859375 785.875 532.75 784.3125 533.71875 782.796875 C 534.6875 781.277344 535.730469 779.808594 536.84375 778.394531 C 537.953125 776.976562 539.132812 775.621094 540.378906 774.320312 C 541.625 773.019531 542.929688 771.785156 544.296875 770.613281 C 545.664062 769.441406 547.085938 768.335938 548.558594 767.304688 C 550.035156 766.273438 551.554688 765.3125 553.125 764.429688 C 554.691406 763.546875 556.300781 762.742188 557.949219 762.015625 C 559.597656 761.289062 561.273438 760.648438 562.984375 760.085938 C 564.695312 759.523438 566.429688 759.046875 568.1875 758.65625 C 569.945312 758.265625 571.714844 757.960938 573.503906 757.742188 C 575.289062 757.527344 577.082031 757.398438 578.882812 757.355469 C 580.683594 757.3125 582.480469 757.359375 584.277344 757.496094 C 586.070312 757.628906 587.855469 757.851562 589.628906 758.160156 C 591.402344 758.46875 593.160156 758.867188 594.894531 759.347656 C 596.628906 759.828125 598.335938 760.394531 600.015625 761.042969 C 601.695312 761.691406 603.339844 762.421875 604.949219 763.230469 C 605.410156 763.464844 605.828125 763.761719 606.203125 764.117188 C 606.578125 764.476562 606.894531 764.878906 607.148438 765.332031 C 607.40625 765.78125 607.589844 766.261719 607.703125 766.765625 C 607.8125 767.273438 607.851562 767.785156 607.8125 768.300781 C 607.773438 768.816406 607.660156 769.316406 607.476562 769.800781 C 607.289062 770.285156 607.035156 770.730469 606.714844 771.136719 C 606.398438 771.546875 606.023438 771.898438 605.601562 772.195312 C 605.175781 772.496094 604.71875 772.722656 604.226562 772.886719 Z M 604.226562 772.886719 " fill-opacity="1" fill-rule="nonzero"/></g></g></g></g><g clip-path="url(#22be941ce5)"><g clip-path="url(#5515dd4a30)"><g clip-path="url(#8f2d2a31b9)"><g clip-path="url(#4900d1780d)"><path fill="#000000" d="M 1013.820312 374.0625 C 1013.671875 374.734375 1013.398438 375.355469 1013.007812 375.921875 C 1012.613281 376.488281 1012.125 376.957031 1011.542969 377.332031 C 1010.316406 378.117188 1009.128906 378.964844 1007.984375 379.867188 C 1006.835938 380.773438 1005.738281 381.730469 1004.6875 382.742188 C 1003.636719 383.75 1002.636719 384.8125 1001.6875 385.921875 C 1000.742188 387.03125 999.851562 388.183594 999.015625 389.378906 C 998.179688 390.574219 997.40625 391.808594 996.695312 393.082031 C 995.980469 394.355469 995.332031 395.660156 994.746094 396.996094 C 994.160156 398.332031 993.640625 399.691406 993.191406 401.078125 C 992.738281 402.464844 992.355469 403.871094 992.039062 405.292969 C 991.726562 406.71875 991.484375 408.15625 991.308594 409.601562 C 991.136719 411.050781 991.035156 412.503906 991.003906 413.960938 C 990.972656 415.421875 991.015625 416.878906 991.125 418.332031 C 991.238281 419.785156 991.421875 421.230469 991.675781 422.667969 C 991.929688 424.105469 992.253906 425.523438 992.644531 426.929688 C 993.039062 428.332031 993.5 429.714844 994.027344 431.074219 C 994.558594 432.433594 995.152344 433.765625 995.808594 435.066406 C 996.46875 436.371094 997.191406 437.636719 997.972656 438.867188 C 998.160156 439.15625 998.3125 439.460938 998.4375 439.78125 C 998.5625 440.105469 998.65625 440.433594 998.714844 440.773438 C 998.773438 441.109375 998.800781 441.453125 998.792969 441.796875 C 998.785156 442.140625 998.742188 442.480469 998.667969 442.816406 C 998.59375 443.148438 998.484375 443.476562 998.347656 443.789062 C 998.207031 444.105469 998.039062 444.402344 997.84375 444.683594 C 997.644531 444.964844 997.421875 445.226562 997.171875 445.460938 C 996.925781 445.699219 996.65625 445.910156 996.363281 446.09375 C 996.074219 446.28125 995.769531 446.433594 995.445312 446.558594 C 995.125 446.683594 994.796875 446.773438 994.457031 446.832031 C 994.117188 446.894531 993.777344 446.917969 993.433594 446.910156 C 993.089844 446.902344 992.75 446.859375 992.414062 446.785156 C 992.078125 446.710938 991.75 446.605469 991.4375 446.464844 C 991.121094 446.328125 990.824219 446.160156 990.542969 445.960938 C 990.257812 445.765625 990 445.539062 989.761719 445.292969 C 989.523438 445.042969 989.3125 444.773438 989.128906 444.484375 C 988.160156 442.964844 987.273438 441.402344 986.457031 439.792969 C 985.644531 438.1875 984.914062 436.542969 984.261719 434.867188 C 983.609375 433.1875 983.039062 431.480469 982.554688 429.746094 C 982.070312 428.011719 981.667969 426.261719 981.355469 424.488281 C 981.042969 422.714844 980.816406 420.929688 980.679688 419.136719 C 980.542969 417.339844 980.492188 415.542969 980.527344 413.742188 C 980.566406 411.941406 980.691406 410.148438 980.90625 408.363281 C 981.121094 406.574219 981.421875 404.800781 981.808594 403.042969 C 982.195312 401.285156 982.667969 399.550781 983.226562 397.839844 C 983.785156 396.128906 984.425781 394.449219 985.148438 392.796875 C 985.871094 391.148438 986.671875 389.539062 987.550781 387.96875 C 988.433594 386.398438 989.386719 384.875 990.417969 383.398438 C 991.445312 381.921875 992.546875 380.5 993.714844 379.128906 C 994.886719 377.761719 996.117188 376.453125 997.417969 375.203125 C 998.714844 373.957031 1000.070312 372.773438 1001.484375 371.65625 C 1002.898438 370.542969 1004.363281 369.496094 1005.878906 368.527344 C 1006.316406 368.246094 1006.78125 368.035156 1007.28125 367.894531 C 1007.78125 367.753906 1008.289062 367.691406 1008.804688 367.699219 C 1009.324219 367.710938 1009.832031 367.796875 1010.324219 367.957031 C 1010.816406 368.117188 1011.273438 368.34375 1011.699219 368.640625 C 1012.125 368.9375 1012.5 369.289062 1012.820312 369.695312 C 1013.140625 370.101562 1013.394531 370.546875 1013.582031 371.03125 C 1013.773438 371.511719 1013.886719 372.011719 1013.925781 372.527344 C 1013.96875 373.042969 1013.933594 373.554688 1013.820312 374.0625 Z M 1013.820312 374.0625 " fill-opacity="1" fill-rule="nonzero"/></g></g></g></g></svg>