<svg xmlns="http://www.w3.org/2000/svg" xmlns:xlink="http://www.w3.org/1999/xlink" width="2000" zoomAndPan="magnify" viewBox="0 0 1500 1124.99995" height="1500" preserveAspectRatio="xMidYMid meet" version="1.0"><defs><g/><clipPath id="523fa45552"><path d="M 850.792969 556.023438 L 883.59375 556.023438 L 883.59375 588.828125 L 850.792969 588.828125 Z M 850.792969 556.023438 " clip-rule="nonzero"/></clipPath><clipPath id="9c99fbe6c6"><path d="M 867.195312 556.023438 C 858.136719 556.023438 850.792969 563.367188 850.792969 572.425781 C 850.792969 581.484375 858.136719 588.828125 867.195312 588.828125 C 876.25 588.828125 883.59375 581.484375 883.59375 572.425781 C 883.59375 563.367188 876.25 556.023438 867.195312 556.023438 Z M 867.195312 556.023438 " clip-rule="nonzero"/></clipPath><clipPath id="e79a235032"><path d="M 649.230469 353.566406 L 1084.980469 353.566406 L 1084.980469 789.3125 L 649.230469 789.3125 Z M 649.230469 353.566406 " clip-rule="nonzero"/></clipPath><clipPath id="4230fca332"><path d="M 867.191406 353.566406 C 746.8125 353.566406 649.230469 451.148438 649.230469 571.527344 C 649.230469 691.90625 746.8125 789.488281 867.191406 789.488281 C 987.570312 789.488281 1085.15625 691.90625 1085.15625 571.527344 C 1085.15625 451.148438 987.570312 353.566406 867.191406 353.566406 Z M 867.191406 353.566406 " clip-rule="nonzero"/></clipPath></defs><rect x="-150" width="1800" fill="#ffffff" y="-112.499995" height="1349.99994" fill-opacity="1"/><rect x="-150" width="1800" fill="#ffffff" y="-112.499995" height="1349.99994" fill-opacity="1"/><path stroke-linecap="round" transform="matrix(-0.649519, -0.375, 0.375, -0.649519, 1240.124351, 795.339296)" fill="none" stroke-linejoin="miter" d="M 9.002501 9.000769 L 886.796711 8.999344 " stroke="#1e76e9" stroke-width="18" stroke-opacity="1" stroke-miterlimit="4"/><path stroke-linecap="round" transform="matrix(0.13155, -0.738373, 0.738373, 0.13155, 821.833955, 791.9132)" fill="none" stroke-linejoin="miter" d="M 8.998438 9.001367 L 753.223417 9.000961 " stroke="#1e76e9" stroke-width="18" stroke-opacity="1" stroke-miterlimit="4"/><path stroke-linecap="round" transform="matrix(0.706274, -0.252343, 0.252343, 0.706274, 247.360999, 786.739832)" fill="none" stroke-linejoin="miter" d="M 9.000103 8.998635 L 1164.110408 8.998439 " stroke="#1e76e9" stroke-width="18" stroke-opacity="1" stroke-miterlimit="4"/><path stroke-linecap="round" transform="matrix(0.577472, -0.478567, 0.478567, 0.577472, 245.325012, 787.900232)" fill="none" stroke-linejoin="miter" d="M 8.999852 8.997598 L 1167.016473 8.998803 " stroke="#000000" stroke-width="18" stroke-opacity="1" stroke-miterlimit="4"/><path stroke-linecap="round" transform="matrix(-0.371838, -0.651334, 0.651334, -0.371838, 1246.674766, 800.815687)" fill="none" stroke-linejoin="miter" d="M 9.001159 9.002457 L 861.794382 9.001099 " stroke="#000000" stroke-width="18" stroke-opacity="1" stroke-miterlimit="4"/><path stroke-linecap="round" transform="matrix(-0.75, 0, 0, -0.75, 1252.534605, 799.848199)" fill="none" stroke-linejoin="miter" d="M 8.999266 9.000725 L 1328.21813 9.000725 " stroke="#000000" stroke-width="18" stroke-opacity="1" stroke-miterlimit="4"/><g clip-path="url(#523fa45552)"><g clip-path="url(#9c99fbe6c6)"><path fill="#cc0829" d="M 850.792969 556.023438 L 883.59375 556.023438 L 883.59375 588.828125 L 850.792969 588.828125 Z M 850.792969 556.023438 " fill-opacity="1" fill-rule="nonzero"/></g></g><g clip-path="url(#e79a235032)"><g clip-path="url(#4230fca332)"><path stroke-linecap="butt" transform="matrix(0.75, 0, 0, 0.75, 649.228633, 353.564482)" fill="none" stroke-linejoin="miter" d="M 290.617055 0.00256626 C 130.111833 0.00256626 0.0024471 130.111952 0.0024471 290.617175 C 0.0024471 451.122397 130.111833 581.231783 290.617055 581.231783 C 451.122278 581.231783 581.236872 451.122397 581.236872 290.617175 C 581.236872 130.111952 451.122278 0.00256626 290.617055 0.00256626 Z M 290.617055 0.00256626 " stroke="#5e17eb" stroke-width="30" stroke-opacity="1" stroke-miterlimit="4"/></g></g><g fill="#000000" fill-opacity="1"><g transform="translate(900.959068, 212.85043)"><g><path d="M 42.4375 0 L 38.265625 -13.6875 L 17.3125 -13.6875 L 13.140625 0 L 0 0 L 20.296875 -57.734375 L 35.203125 -57.734375 L 55.578125 0 Z M 35.359375 -23.90625 C 31.503906 -36.3125 29.332031 -43.328125 28.84375 -44.953125 C 28.363281 -46.578125 28.019531 -47.863281 27.8125 -48.8125 C 26.945312 -45.457031 24.46875 -37.15625 20.375 -23.90625 Z M 35.359375 -23.90625 "/></g></g></g><g fill="#000000" fill-opacity="1"><g transform="translate(165.608925, 853.244211)"><g><path d="M 7.234375 -57.5 L 25.125 -57.5 C 33.28125 -57.5 39.203125 -56.335938 42.890625 -54.015625 C 46.578125 -51.691406 48.421875 -48.003906 48.421875 -42.953125 C 48.421875 -39.515625 47.613281 -36.691406 46 -34.484375 C 44.382812 -32.285156 42.238281 -30.960938 39.5625 -30.515625 L 39.5625 -30.125 C 43.207031 -29.3125 45.835938 -27.789062 47.453125 -25.5625 C 49.066406 -23.332031 49.875 -20.367188 49.875 -16.671875 C 49.875 -11.429688 47.976562 -7.34375 44.1875 -4.40625 C 40.394531 -1.46875 35.25 0 28.75 0 L 7.234375 0 Z M 19.421875 -34.734375 L 26.515625 -34.734375 C 29.816406 -34.734375 32.207031 -35.242188 33.6875 -36.265625 C 35.164062 -37.285156 35.90625 -38.972656 35.90625 -41.328125 C 35.90625 -43.535156 35.097656 -45.117188 33.484375 -46.078125 C 31.878906 -47.035156 29.332031 -47.515625 25.84375 -47.515625 L 19.421875 -47.515625 Z M 19.421875 -25.046875 L 19.421875 -10.0625 L 27.375 -10.0625 C 30.726562 -10.0625 33.203125 -10.703125 34.796875 -11.984375 C 36.398438 -13.273438 37.203125 -15.242188 37.203125 -17.890625 C 37.203125 -22.660156 33.796875 -25.046875 26.984375 -25.046875 Z M 19.421875 -25.046875 "/></g></g></g><g fill="#000000" fill-opacity="1"><g transform="translate(1283.184307, 853.244211)"><g><path d="M 31.65625 -48.171875 C 27.070312 -48.171875 23.519531 -46.445312 21 -43 C 18.476562 -39.550781 17.21875 -34.75 17.21875 -28.59375 C 17.21875 -15.769531 22.03125 -9.359375 31.65625 -9.359375 C 35.695312 -9.359375 40.585938 -10.367188 46.328125 -12.390625 L 46.328125 -2.15625 C 41.609375 -0.195312 36.335938 0.78125 30.515625 0.78125 C 22.148438 0.78125 15.753906 -1.753906 11.328125 -6.828125 C 6.898438 -11.898438 4.6875 -19.179688 4.6875 -28.671875 C 4.6875 -34.648438 5.769531 -39.882812 7.9375 -44.375 C 10.113281 -48.875 13.238281 -52.320312 17.3125 -54.71875 C 21.394531 -57.125 26.175781 -58.328125 31.65625 -58.328125 C 37.238281 -58.328125 42.851562 -56.976562 48.5 -54.28125 L 44.5625 -44.359375 C 42.40625 -45.378906 40.238281 -46.269531 38.0625 -47.03125 C 35.894531 -47.789062 33.757812 -48.171875 31.65625 -48.171875 Z M 31.65625 -48.171875 "/></g></g></g><g fill="#000000" fill-opacity="1"><g transform="translate(791.160973, 876.418273)"><g><path d="M 54.9375 -29.296875 C 54.9375 -19.835938 52.242188 -12.585938 46.859375 -7.546875 C 41.472656 -2.515625 33.691406 0 23.515625 0 L 7.234375 0 L 7.234375 -57.5 L 25.28125 -57.5 C 34.675781 -57.5 41.96875 -55.019531 47.15625 -50.0625 C 52.34375 -45.113281 54.9375 -38.191406 54.9375 -29.296875 Z M 42.28125 -28.984375 C 42.28125 -41.335938 36.828125 -47.515625 25.921875 -47.515625 L 19.421875 -47.515625 L 19.421875 -10.0625 L 24.65625 -10.0625 C 36.40625 -10.0625 42.28125 -16.367188 42.28125 -28.984375 Z M 42.28125 -28.984375 "/></g></g></g><g fill="#000000" fill-opacity="1"><g transform="translate(1100.897987, 484.31947)"><g><path d="M 40.359375 0 L 7.234375 0 L 7.234375 -57.5 L 40.359375 -57.5 L 40.359375 -47.515625 L 19.421875 -47.515625 L 19.421875 -34.890625 L 38.890625 -34.890625 L 38.890625 -24.890625 L 19.421875 -24.890625 L 19.421875 -10.0625 L 40.359375 -10.0625 Z M 40.359375 0 "/></g></g></g><g fill="#000000" fill-opacity="1"><g transform="translate(605.013797, 432.50924)"><g><path d="M 19.234375 0 L 7.234375 0 L 7.234375 -57.5 L 40.1875 -57.5 L 40.1875 -47.515625 L 19.234375 -47.515625 L 19.234375 -32.6875 L 38.734375 -32.6875 L 38.734375 -22.734375 L 19.234375 -22.734375 Z M 19.234375 0 "/></g></g></g><g fill="#000000" fill-opacity="1"><g transform="translate(819.438299, 508.733144)"><g><path d="M 28.75 0 L 2.59375 0 L 2.59375 -6.921875 L 9.59375 -10.140625 L 9.59375 -47.359375 L 2.59375 -50.578125 L 2.59375 -57.5 L 28.75 -57.5 L 28.75 -50.578125 L 21.75 -47.359375 L 21.75 -10.140625 L 28.75 -6.921875 Z M 28.75 0 "/></g></g></g></svg>