<svg xmlns="http://www.w3.org/2000/svg" xmlns:xlink="http://www.w3.org/1999/xlink" width="2000" zoomAndPan="magnify" viewBox="0 0 1500 1124.99995" height="1500" preserveAspectRatio="xMidYMid meet" version="1.0"><defs><clipPath id="8437fc7502"><path d="M 1016 403 L 1074 403 L 1074 460 L 1016 460 Z M 1016 403 " clip-rule="nonzero"/></clipPath><clipPath id="2f488a5cdc"><path d="M 1014.484375 421.910156 L 1058.101562 401.867188 L 1075.949219 440.714844 L 1032.332031 460.753906 Z M 1014.484375 421.910156 " clip-rule="nonzero"/></clipPath><clipPath id="2e98d7f195"><path d="M 1014.484375 421.910156 L 1062.394531 399.894531 L 1082.207031 443.011719 L 1034.296875 465.027344 Z M 1014.484375 421.910156 " clip-rule="nonzero"/></clipPath><clipPath id="38cee478f5"><path d="M 1019.9375 419.402344 L 1052.488281 404.445312 C 1055.5 403.0625 1059.0625 404.382812 1060.445312 407.394531 L 1073.390625 435.570312 C 1074.773438 438.582031 1073.457031 442.144531 1070.445312 443.527344 L 1037.894531 458.484375 C 1034.882812 459.867188 1031.320312 458.546875 1029.9375 455.535156 L 1016.992188 427.359375 C 1015.605469 424.347656 1016.925781 420.785156 1019.9375 419.402344 Z M 1019.9375 419.402344 " clip-rule="nonzero"/></clipPath><clipPath id="4f6b8b8f96"><path d="M 1232.984375 773.011719 L 1265.789062 773.011719 L 1265.789062 805.816406 L 1232.984375 805.816406 Z M 1232.984375 773.011719 " clip-rule="nonzero"/></clipPath><clipPath id="74697e44ac"><path d="M 1249.386719 773.011719 C 1240.328125 773.011719 1232.984375 780.355469 1232.984375 789.414062 C 1232.984375 798.472656 1240.328125 805.816406 1249.386719 805.816406 C 1258.445312 805.816406 1265.789062 798.472656 1265.789062 789.414062 C 1265.789062 780.355469 1258.445312 773.011719 1249.386719 773.011719 Z M 1249.386719 773.011719 " clip-rule="nonzero"/></clipPath></defs><rect x="-150" width="1800" fill="#ffffff" y="-112.499995" height="1349.99994" fill-opacity="1"/><rect x="-150" width="1800" fill="#ffffff" y="-112.499995" height="1349.99994" fill-opacity="1"/><path stroke-linecap="round" transform="matrix(-0.75, 0, 0, -0.75, 1252.534605, 799.848199)" fill="none" stroke-linejoin="miter" d="M 8.999266 9.000725 L 1328.21813 9.000725 " stroke="#000000" stroke-width="18" stroke-opacity="1" stroke-miterlimit="4"/><g clip-path="url(#8437fc7502)"><g clip-path="url(#2f488a5cdc)"><g clip-path="url(#2e98d7f195)"><g clip-path="url(#38cee478f5)"><path stroke-linecap="butt" transform="matrix(0.681498, -0.313145, 0.313145, 0.681498, 1014.485562, 421.908352)" fill="none" stroke-linejoin="miter" d="M 8.000412 -0.00105195 L 55.76402 -0.00117519 C 60.182691 0.000106607 63.763826 3.582988 63.762544 8.00166 L 63.760939 49.344795 C 63.759657 53.763467 60.181508 57.346776 55.762836 57.345494 L 7.999229 57.345618 C 3.580557 57.344336 -0.000578029 53.761454 0.000703764 49.342783 L 0.00230942 7.999647 C -0.00114141 3.578801 3.58174 -0.00233374 8.000412 -0.00105195 Z M 8.000412 -0.00105195 " stroke="#cc0829" stroke-width="24" stroke-opacity="1" stroke-miterlimit="4"/></g></g></g></g><path stroke-linecap="round" transform="matrix(-0.340015, -0.668498, 0.668498, -0.340015, 1246.519966, 800.528815)" fill="none" stroke-linejoin="miter" d="M 8.998745 8.999737 L 575.999859 8.999625 " stroke="#1e76e9" stroke-width="18" stroke-opacity="1" stroke-miterlimit="4"/><path stroke-linecap="round" transform="matrix(0.676132, -0.324569, 0.324569, 0.676132, 246.710813, 787.011008)" fill="none" stroke-linejoin="miter" d="M 9.001544 9.001788 L 1474.305155 9.000086 " stroke="#000000" stroke-width="18" stroke-opacity="1" stroke-miterlimit="4"/><path stroke-linecap="round" transform="matrix(0.000000001309, -0.75, 0.75, 0.000000001309, 1245.78895, 797.468359)" fill="none" stroke-linejoin="miter" d="M 8.99948 9.000151 L 638.749534 9.00015 " stroke="#000000" stroke-width="18" stroke-opacity="1" stroke-miterlimit="4"/><path stroke-linecap="round" transform="matrix(-0.75, 0, 0, -0.75, 1252.534605, 799.848199)" fill="none" stroke-linejoin="miter" d="M 8.999266 9.000725 L 1328.21813 9.000725 " stroke="#000000" stroke-width="18" stroke-opacity="1" stroke-miterlimit="4"/><g clip-path="url(#4f6b8b8f96)"><g clip-path="url(#74697e44ac)"><path fill="#cc0829" d="M 1232.984375 773.011719 L 1265.789062 773.011719 L 1265.789062 805.816406 L 1232.984375 805.816406 Z M 1232.984375 773.011719 " fill-opacity="1" fill-rule="nonzero"/></g></g></svg>