<svg xmlns="http://www.w3.org/2000/svg" xmlns:xlink="http://www.w3.org/1999/xlink" width="2000" zoomAndPan="magnify" viewBox="0 0 1500 1124.99995" height="1500" preserveAspectRatio="xMidYMid meet" version="1.0"><defs><g/><clipPath id="9934470f67"><path d="M 507.648438 444.171875 L 983.148438 444.171875 L 983.148438 919.671875 L 507.648438 919.671875 Z M 507.648438 444.171875 " clip-rule="nonzero"/></clipPath><clipPath id="9b26d77dc1"><path d="M 745.398438 444.171875 C 614.09375 444.171875 507.648438 550.617188 507.648438 681.921875 C 507.648438 813.226562 614.09375 919.671875 745.398438 919.671875 C 876.703125 919.671875 983.148438 813.226562 983.148438 681.921875 C 983.148438 550.617188 876.703125 444.171875 745.398438 444.171875 Z M 745.398438 444.171875 " clip-rule="nonzero"/></clipPath><clipPath id="d02f6a9af1"><path d="M 531.816406 544.804688 L 559.675781 544.804688 L 559.675781 572.664062 L 531.816406 572.664062 Z M 531.816406 544.804688 " clip-rule="nonzero"/></clipPath><clipPath id="8ab2fbd71f"><path d="M 545.746094 544.804688 C 538.054688 544.804688 531.816406 551.042969 531.816406 558.734375 C 531.816406 566.425781 538.054688 572.664062 545.746094 572.664062 C 553.4375 572.664062 559.675781 566.425781 559.675781 558.734375 C 559.675781 551.042969 553.4375 544.804688 545.746094 544.804688 Z M 545.746094 544.804688 " clip-rule="nonzero"/></clipPath><clipPath id="10370dc258"><path d="M 931.070312 544.804688 L 958.929688 544.804688 L 958.929688 572.664062 L 931.070312 572.664062 Z M 931.070312 544.804688 " clip-rule="nonzero"/></clipPath><clipPath id="26c498df21"><path d="M 945 544.804688 C 937.308594 544.804688 931.070312 551.042969 931.070312 558.734375 C 931.070312 566.425781 937.308594 572.664062 945 572.664062 C 952.691406 572.664062 958.929688 566.425781 958.929688 558.734375 C 958.929688 551.042969 952.691406 544.804688 945 544.804688 Z M 945 544.804688 " clip-rule="nonzero"/></clipPath><clipPath id="d1d3858943"><path d="M 750 645 L 817 645 L 817 683 L 750 683 Z M 750 645 " clip-rule="nonzero"/></clipPath><clipPath id="928573fc4b"><path d="M 755.867188 699.613281 L 745.300781 663.03125 L 806.070312 645.476562 L 816.636719 682.058594 Z M 755.867188 699.613281 " clip-rule="nonzero"/></clipPath><clipPath id="1ac513d119"><path d="M 750.585938 681.324219 L 806.070312 645.476562 L 816.636719 682.058594 Z M 750.585938 681.324219 " clip-rule="nonzero"/></clipPath></defs><rect x="-150" width="1800" fill="#ffffff" y="-112.499995" height="1349.99994" fill-opacity="1"/><rect x="-150" width="1800" fill="#ffffff" y="-112.499995" height="1349.99994" fill-opacity="1"/><path stroke-linecap="round" transform="matrix(0.750075, 0, 0, 0.75, 259.723986, 681.823049)" fill="none" stroke-linejoin="miter" d="M 4.997729 5.00156 L 1403.358506 5.00156 " stroke="#000000" stroke-width="10" stroke-opacity="1" stroke-miterlimit="4"/><path stroke-linecap="round" transform="matrix(0.750075, 0, 0, 0.75, 259.723986, 681.823049)" fill="none" stroke-linejoin="round" d="M 1385.860248 -9.998442 L 1405.858257 5.00156 L 1385.860248 20.001561 " stroke="#000000" stroke-width="10" stroke-opacity="1" stroke-miterlimit="4"/><path stroke-linecap="round" transform="matrix(-0.00312497, -0.749993, 0.749993, -0.00312497, 743.420585, 1012.495909)" fill="none" stroke-linejoin="miter" d="M 4.99979 5.001762 L 1192.510229 5.001763 " stroke="#000000" stroke-width="10" stroke-opacity="1" stroke-miterlimit="4"/><path stroke-linecap="round" transform="matrix(-0.00312497, -0.749993, 0.749993, -0.00312497, 743.420585, 1012.495909)" fill="none" stroke-linejoin="round" d="M 1175.010075 -9.998369 L 1195.010251 5.001763 L 1175.010075 20.001894 " stroke="#000000" stroke-width="10" stroke-opacity="1" stroke-miterlimit="4"/><g clip-path="url(#9934470f67)"><g clip-path="url(#9b26d77dc1)"><path stroke-linecap="butt" transform="matrix(0.750333, 0, 0, 0.750333, 507.649214, 444.17279)" fill="none" stroke-linejoin="miter" d="M 316.858368 -0.00121913 C 141.863101 -0.00121913 -0.00103437 141.862916 -0.00103437 316.858183 C -0.00103437 491.853451 141.863101 633.717586 316.858368 633.717586 C 491.853636 633.717586 633.717771 491.853451 633.717771 316.858183 C 633.717771 141.862916 491.853636 -0.00121913 316.858368 -0.00121913 Z M 316.858368 -0.00121913 " stroke="#222222" stroke-width="20" stroke-opacity="1" stroke-miterlimit="4"/></g></g><g fill="#1e76e9" fill-opacity="1"><g transform="translate(668.134776, 197.965571)"><g><path d="M -0.078125 -48.53125 L 17.5625 -48.53125 L 25.796875 -20.6875 C 26.191406 -19.226562 26.460938 -17.472656 26.609375 -15.421875 L 26.953125 -15.421875 C 27.171875 -17.390625 27.507812 -19.117188 27.96875 -20.609375 L 36.40625 -48.53125 L 53.5 -48.53125 L 34.3125 3.078125 C 31.851562 9.648438 28.832031 14.289062 25.25 17 C 21.664062 19.71875 16.988281 21.078125 11.21875 21.078125 C 8.988281 21.078125 6.707031 20.832031 4.375 20.34375 L 4.375 7.203125 C 5.882812 7.546875 7.609375 7.71875 9.546875 7.71875 C 11.035156 7.71875 12.335938 7.429688 13.453125 6.859375 C 14.566406 6.285156 15.535156 5.476562 16.359375 4.4375 C 17.191406 3.394531 18.078125 1.6875 19.015625 -0.6875 Z M -0.078125 -48.53125 "/></g></g></g><g fill="#1e76e9" fill-opacity="1"><g transform="translate(1226.489568, 752.71223)"><g><path d="M 16.0625 -24.765625 L 1.25 -48.53125 L 20.265625 -48.53125 L 27.625 -34.90625 L 35.171875 -48.53125 L 54.234375 -48.53125 L 39.03125 -24.765625 L 54.828125 0 L 35.8125 0 L 27.625 -14.734375 L 19.484375 0 L 0.421875 0 Z M 16.0625 -24.765625 "/></g></g></g><g clip-path="url(#d02f6a9af1)"><g clip-path="url(#8ab2fbd71f)"><path fill="#1e76e9" d="M 531.816406 544.804688 L 559.675781 544.804688 L 559.675781 572.664062 L 531.816406 572.664062 Z M 531.816406 544.804688 " fill-opacity="1" fill-rule="nonzero"/></g></g><g clip-path="url(#10370dc258)"><g clip-path="url(#26c498df21)"><path fill="#1e76e9" d="M 931.070312 544.804688 L 958.929688 544.804688 L 958.929688 572.664062 L 931.070312 572.664062 Z M 931.070312 544.804688 " fill-opacity="1" fill-rule="nonzero"/></g></g><g fill="#1e76e9" fill-opacity="1"><g transform="translate(822.634762, 669.693881)"><g><path d="M 9.65625 0.375 C 7.132812 0.375 5.160156 -0.585938 3.734375 -2.515625 C 2.316406 -4.441406 1.609375 -7.101562 1.609375 -10.5 C 1.609375 -14 2.359375 -16.707031 3.859375 -18.625 C 5.367188 -20.550781 7.472656 -21.515625 10.171875 -21.515625 C 11.617188 -21.515625 12.800781 -21.257812 13.71875 -20.75 C 14.644531 -20.238281 15.398438 -19.441406 15.984375 -18.359375 L 16.28125 -18.359375 C 16.644531 -19.671875 17.082031 -20.625 17.59375 -21.21875 L 23.734375 -21.21875 C 23.253906 -19.90625 22.875 -18.460938 22.59375 -16.890625 C 22.3125 -15.316406 22.171875 -13.832031 22.171875 -12.4375 L 22.171875 -7.640625 C 22.171875 -6.128906 22.679688 -5.375 23.703125 -5.375 C 24.097656 -5.375 24.46875 -5.4375 24.8125 -5.5625 L 24.8125 -0.109375 C 24.601562 0.015625 24.148438 0.125 23.453125 0.21875 C 22.765625 0.320312 22.242188 0.375 21.890625 0.375 C 20.273438 0.375 19.035156 0.132812 18.171875 -0.34375 C 17.304688 -0.832031 16.601562 -1.632812 16.0625 -2.75 L 15.609375 -2.75 C 14.242188 -0.664062 12.257812 0.375 9.65625 0.375 Z M 12.15625 -5.296875 C 13.257812 -5.296875 14.070312 -5.664062 14.59375 -6.40625 C 15.113281 -7.15625 15.382812 -8.472656 15.40625 -10.359375 L 15.40625 -10.546875 C 15.40625 -12.398438 15.132812 -13.742188 14.59375 -14.578125 C 14.0625 -15.421875 13.222656 -15.84375 12.078125 -15.84375 C 11.078125 -15.84375 10.320312 -15.378906 9.8125 -14.453125 C 9.300781 -13.523438 9.046875 -12.195312 9.046875 -10.46875 C 9.046875 -7.019531 10.082031 -5.296875 12.15625 -5.296875 Z M 12.15625 -5.296875 "/></g></g></g><g clip-path="url(#d1d3858943)"><g clip-path="url(#928573fc4b)"><g clip-path="url(#1ac513d119)"><path fill="#00ff4e" d="M 755.867188 699.613281 L 745.300781 663.03125 L 806.070312 645.476562 L 816.636719 682.058594 Z M 755.867188 699.613281 " fill-opacity="1" fill-rule="nonzero"/></g></g></g><path stroke-linecap="round" transform="matrix(0.638024, -0.393255, 0.393527, 0.638464, 743.331473, 678.629514)" fill="none" stroke-linejoin="miter" d="M 4.998993 4.999236 L 289.207323 5.000345 " stroke="#000000" stroke-width="10" stroke-opacity="1" stroke-miterlimit="4"/><path stroke-linecap="round" transform="matrix(-0.638267, -0.393695, 0.393737, -0.638334, 743.323337, 685.012601)" fill="none" stroke-linejoin="miter" d="M 4.999633 5.001619 L 289.043026 4.997883 " stroke="#000000" stroke-width="10" stroke-opacity="1" stroke-miterlimit="4"/><path fill="#000000" d="M 941.246094 678.054688 L 941.246094 663.007812 C 941.246094 662.507812 941.339844 662.027344 941.53125 661.566406 C 941.71875 661.105469 941.992188 660.699219 942.34375 660.347656 C 942.695312 659.992188 943.101562 659.722656 943.558594 659.53125 C 944.019531 659.339844 944.496094 659.246094 944.996094 659.246094 C 945.492188 659.246094 945.96875 659.339844 946.429688 659.53125 C 946.890625 659.722656 947.296875 659.992188 947.648438 660.347656 C 948 660.699219 948.269531 661.105469 948.460938 661.566406 C 948.648438 662.027344 948.746094 662.507812 948.746094 663.007812 L 948.746094 678.054688 C 948.746094 678.554688 948.648438 679.035156 948.460938 679.496094 C 948.269531 679.957031 948 680.363281 947.648438 680.714844 C 947.296875 681.066406 946.890625 681.339844 946.429688 681.53125 C 945.96875 681.722656 945.492188 681.816406 944.996094 681.816406 C 944.496094 681.816406 944.019531 681.722656 943.558594 681.53125 C 943.101562 681.339844 942.695312 681.066406 942.34375 680.714844 C 941.992188 680.363281 941.71875 679.957031 941.53125 679.496094 C 941.339844 679.035156 941.246094 678.554688 941.246094 678.054688 Z M 941.246094 647.957031 L 941.246094 632.910156 C 941.246094 632.410156 941.339844 631.929688 941.53125 631.46875 C 941.71875 631.007812 941.992188 630.601562 942.34375 630.25 C 942.695312 629.898438 943.101562 629.625 943.558594 629.433594 C 944.019531 629.242188 944.496094 629.148438 944.996094 629.148438 C 945.492188 629.148438 945.96875 629.242188 946.429688 629.433594 C 946.890625 629.625 947.296875 629.898438 947.648438 630.25 C 948 630.601562 948.269531 631.007812 948.460938 631.46875 C 948.648438 631.929688 948.746094 632.410156 948.746094 632.910156 L 948.746094 647.957031 C 948.746094 648.457031 948.648438 648.9375 948.460938 649.398438 C 948.269531 649.859375 948 650.265625 947.648438 650.617188 C 947.296875 650.972656 946.890625 651.242188 946.429688 651.433594 C 945.96875 651.625 945.492188 651.71875 944.996094 651.71875 C 944.496094 651.71875 944.019531 651.625 943.558594 651.433594 C 943.101562 651.242188 942.695312 650.972656 942.34375 650.617188 C 941.992188 650.265625 941.71875 649.859375 941.53125 649.398438 C 941.339844 648.9375 941.246094 648.457031 941.246094 647.957031 Z M 941.246094 617.863281 L 941.246094 602.8125 C 941.246094 602.316406 941.339844 601.835938 941.53125 601.375 C 941.71875 600.914062 941.992188 600.507812 942.34375 600.152344 C 942.695312 599.800781 943.101562 599.527344 943.558594 599.339844 C 944.019531 599.148438 944.496094 599.050781 944.996094 599.050781 C 945.492188 599.050781 945.96875 599.148438 946.429688 599.339844 C 946.890625 599.527344 947.296875 599.800781 947.648438 600.152344 C 948 600.507812 948.269531 600.914062 948.460938 601.375 C 948.648438 601.835938 948.746094 602.316406 948.746094 602.8125 L 948.746094 617.863281 C 948.746094 618.359375 948.648438 618.839844 948.460938 619.300781 C 948.269531 619.761719 948 620.167969 947.648438 620.523438 C 947.296875 620.875 946.890625 621.148438 946.429688 621.335938 C 945.96875 621.527344 945.492188 621.625 944.996094 621.625 C 944.496094 621.625 944.019531 621.527344 943.558594 621.335938 C 943.101562 621.148438 942.695312 620.875 942.34375 620.523438 C 941.992188 620.167969 941.71875 619.761719 941.53125 619.300781 C 941.339844 618.839844 941.246094 618.359375 941.246094 617.863281 Z M 941.246094 587.765625 L 941.246094 576.066406 C 941.246094 575.570312 941.339844 575.089844 941.53125 574.628906 C 941.71875 574.167969 941.992188 573.761719 942.34375 573.40625 C 942.695312 573.054688 943.101562 572.78125 943.558594 572.59375 C 944.019531 572.402344 944.496094 572.304688 944.996094 572.304688 C 945.492188 572.304688 945.96875 572.402344 946.429688 572.59375 C 946.890625 572.78125 947.296875 573.054688 947.648438 573.40625 C 948 573.761719 948.269531 574.167969 948.460938 574.628906 C 948.648438 575.089844 948.746094 575.570312 948.746094 576.066406 L 948.746094 587.765625 C 948.746094 588.265625 948.648438 588.742188 948.460938 589.203125 C 948.269531 589.664062 948 590.074219 947.648438 590.425781 C 947.296875 590.777344 946.890625 591.050781 946.429688 591.242188 C 945.96875 591.433594 945.492188 591.527344 944.996094 591.527344 C 944.496094 591.527344 944.019531 591.433594 943.558594 591.242188 C 943.101562 591.050781 942.695312 590.777344 942.34375 590.425781 C 941.992188 590.074219 941.71875 589.664062 941.53125 589.203125 C 941.339844 588.742188 941.246094 588.265625 941.246094 587.765625 Z M 941.246094 587.765625 " fill-opacity="1" fill-rule="nonzero"/><path fill="#000000" d="M 541.988281 678.054688 L 541.988281 663.007812 C 541.988281 662.507812 542.085938 662.027344 542.277344 661.566406 C 542.464844 661.105469 542.738281 660.699219 543.089844 660.347656 C 543.441406 659.992188 543.84375 659.722656 544.304688 659.53125 C 544.765625 659.339844 545.242188 659.246094 545.738281 659.246094 C 546.238281 659.246094 546.714844 659.339844 547.175781 659.53125 C 547.632812 659.722656 548.039062 659.992188 548.390625 660.347656 C 548.742188 660.699219 549.015625 661.105469 549.203125 661.566406 C 549.394531 662.027344 549.488281 662.507812 549.488281 663.007812 L 549.488281 678.054688 C 549.488281 678.554688 549.394531 679.035156 549.203125 679.496094 C 549.015625 679.957031 548.742188 680.363281 548.390625 680.714844 C 548.039062 681.066406 547.632812 681.339844 547.175781 681.53125 C 546.714844 681.722656 546.238281 681.816406 545.738281 681.816406 C 545.242188 681.816406 544.765625 681.722656 544.304688 681.53125 C 543.84375 681.339844 543.441406 681.066406 543.089844 680.714844 C 542.738281 680.363281 542.464844 679.957031 542.277344 679.496094 C 542.085938 679.035156 541.988281 678.554688 541.988281 678.054688 Z M 541.988281 647.957031 L 541.988281 632.910156 C 541.988281 632.410156 542.085938 631.929688 542.277344 631.46875 C 542.464844 631.007812 542.738281 630.601562 543.089844 630.25 C 543.441406 629.898438 543.84375 629.625 544.304688 629.433594 C 544.765625 629.242188 545.242188 629.148438 545.738281 629.148438 C 546.238281 629.148438 546.714844 629.242188 547.175781 629.433594 C 547.632812 629.625 548.039062 629.898438 548.390625 630.25 C 548.742188 630.601562 549.015625 631.007812 549.203125 631.46875 C 549.394531 631.929688 549.488281 632.410156 549.488281 632.910156 L 549.488281 647.957031 C 549.488281 648.457031 549.394531 648.9375 549.203125 649.398438 C 549.015625 649.859375 548.742188 650.265625 548.390625 650.617188 C 548.039062 650.972656 547.632812 651.242188 547.175781 651.433594 C 546.714844 651.625 546.238281 651.71875 545.738281 651.71875 C 545.242188 651.71875 544.765625 651.625 544.304688 651.433594 C 543.84375 651.242188 543.441406 650.972656 543.089844 650.617188 C 542.738281 650.265625 542.464844 649.859375 542.277344 649.398438 C 542.085938 648.9375 541.988281 648.457031 541.988281 647.957031 Z M 541.988281 617.863281 L 541.988281 602.8125 C 541.988281 602.316406 542.085938 601.835938 542.277344 601.375 C 542.464844 600.914062 542.738281 600.507812 543.089844 600.152344 C 543.441406 599.800781 543.84375 599.527344 544.304688 599.339844 C 544.765625 599.148438 545.242188 599.050781 545.738281 599.050781 C 546.238281 599.050781 546.714844 599.148438 547.175781 599.339844 C 547.632812 599.527344 548.039062 599.800781 548.390625 600.152344 C 548.742188 600.507812 549.015625 600.914062 549.203125 601.375 C 549.394531 601.835938 549.488281 602.316406 549.488281 602.8125 L 549.488281 617.863281 C 549.488281 618.359375 549.394531 618.839844 549.203125 619.300781 C 549.015625 619.761719 548.742188 620.167969 548.390625 620.523438 C 548.039062 620.875 547.632812 621.148438 547.175781 621.335938 C 546.714844 621.527344 546.238281 621.625 545.738281 621.625 C 545.242188 621.625 544.765625 621.527344 544.304688 621.335938 C 543.84375 621.148438 543.441406 620.875 543.089844 620.523438 C 542.738281 620.167969 542.464844 619.761719 542.277344 619.300781 C 542.085938 618.839844 541.988281 618.359375 541.988281 617.863281 Z M 541.988281 587.765625 L 541.988281 576.066406 C 541.988281 575.570312 542.085938 575.089844 542.277344 574.628906 C 542.464844 574.167969 542.738281 573.761719 543.089844 573.40625 C 543.441406 573.054688 543.84375 572.78125 544.304688 572.59375 C 544.765625 572.402344 545.242188 572.304688 545.738281 572.304688 C 546.238281 572.304688 546.714844 572.402344 547.175781 572.59375 C 547.632812 572.78125 548.039062 573.054688 548.390625 573.40625 C 548.742188 573.761719 549.015625 574.167969 549.203125 574.628906 C 549.394531 575.089844 549.488281 575.570312 549.488281 576.066406 L 549.488281 587.765625 C 549.488281 588.265625 549.394531 588.742188 549.203125 589.203125 C 549.015625 589.664062 548.742188 590.074219 548.390625 590.425781 C 548.039062 590.777344 547.632812 591.050781 547.175781 591.242188 C 546.714844 591.433594 546.238281 591.527344 545.738281 591.527344 C 545.242188 591.527344 544.765625 591.433594 544.304688 591.242188 C 543.84375 591.050781 543.441406 590.777344 543.089844 590.425781 C 542.738281 590.074219 542.464844 589.664062 542.277344 589.203125 C 542.085938 588.742188 541.988281 588.265625 541.988281 587.765625 Z M 541.988281 587.765625 " fill-opacity="1" fill-rule="nonzero"/><g fill="#000000" fill-opacity="1"><g transform="translate(816.634763, 722.887886)"><g><path d="M 10.125 0.3125 C 7.238281 0.3125 5.050781 -0.460938 3.5625 -2.015625 C 2.082031 -3.578125 1.34375 -5.8125 1.34375 -8.71875 C 1.34375 -11.644531 2.144531 -13.910156 3.75 -15.515625 C 5.351562 -17.117188 7.640625 -17.921875 10.609375 -17.921875 C 12.648438 -17.921875 14.570312 -17.476562 16.375 -16.59375 L 14.578125 -12.09375 C 13.847656 -12.414062 13.171875 -12.671875 12.546875 -12.859375 C 11.921875 -13.054688 11.273438 -13.15625 10.609375 -13.15625 C 9.617188 -13.15625 8.851562 -12.769531 8.3125 -12 C 7.78125 -11.238281 7.515625 -10.15625 7.515625 -8.75 C 7.515625 -5.9375 8.554688 -4.53125 10.640625 -4.53125 C 12.421875 -4.53125 14.128906 -5.046875 15.765625 -6.078125 L 15.765625 -1.25 C 14.203125 -0.207031 12.320312 0.3125 10.125 0.3125 Z M 10.125 0.3125 "/></g></g></g><g fill="#000000" fill-opacity="1"><g transform="translate(833.798428, 722.887886)"><g><path d="M 18.921875 -8.84375 C 18.921875 -5.96875 18.144531 -3.722656 16.59375 -2.109375 C 15.050781 -0.492188 12.882812 0.3125 10.09375 0.3125 C 7.414062 0.3125 5.285156 -0.507812 3.703125 -2.15625 C 2.128906 -3.8125 1.34375 -6.039062 1.34375 -8.84375 C 1.34375 -11.71875 2.113281 -13.945312 3.65625 -15.53125 C 5.207031 -17.125 7.382812 -17.921875 10.1875 -17.921875 C 11.914062 -17.921875 13.441406 -17.550781 14.765625 -16.8125 C 16.097656 -16.082031 17.125 -15.03125 17.84375 -13.65625 C 18.5625 -12.28125 18.921875 -10.675781 18.921875 -8.84375 Z M 7.515625 -8.84375 C 7.515625 -7.332031 7.710938 -6.179688 8.109375 -5.390625 C 8.515625 -4.597656 9.195312 -4.203125 10.15625 -4.203125 C 11.09375 -4.203125 11.753906 -4.597656 12.140625 -5.390625 C 12.535156 -6.179688 12.734375 -7.332031 12.734375 -8.84375 C 12.734375 -10.351562 12.535156 -11.488281 12.140625 -12.25 C 11.742188 -13.019531 11.070312 -13.40625 10.125 -13.40625 C 9.1875 -13.40625 8.515625 -13.023438 8.109375 -12.265625 C 7.710938 -11.503906 7.515625 -10.363281 7.515625 -8.84375 Z M 7.515625 -8.84375 "/></g></g></g><g fill="#000000" fill-opacity="1"><g transform="translate(854.087004, 722.887886)"><g><path d="M 15.703125 -5.40625 C 15.703125 -3.519531 15.054688 -2.09375 13.765625 -1.125 C 12.484375 -0.164062 10.640625 0.3125 8.234375 0.3125 C 6.929688 0.3125 5.796875 0.238281 4.828125 0.09375 C 3.867188 -0.0390625 2.882812 -0.296875 1.875 -0.671875 L 1.875 -5.53125 C 2.820312 -5.113281 3.859375 -4.769531 4.984375 -4.5 C 6.109375 -4.238281 7.109375 -4.109375 7.984375 -4.109375 C 9.304688 -4.109375 9.96875 -4.40625 9.96875 -5 C 9.96875 -5.3125 9.78125 -5.585938 9.40625 -5.828125 C 9.039062 -6.078125 7.972656 -6.554688 6.203125 -7.265625 C 4.585938 -7.921875 3.457031 -8.671875 2.8125 -9.515625 C 2.164062 -10.367188 1.84375 -11.441406 1.84375 -12.734375 C 1.84375 -14.367188 2.472656 -15.640625 3.734375 -16.546875 C 5.003906 -17.460938 6.796875 -17.921875 9.109375 -17.921875 C 10.273438 -17.921875 11.367188 -17.796875 12.390625 -17.546875 C 13.410156 -17.296875 14.46875 -16.925781 15.5625 -16.4375 L 13.921875 -12.515625 C 13.109375 -12.878906 12.25 -13.1875 11.34375 -13.4375 C 10.445312 -13.695312 9.710938 -13.828125 9.140625 -13.828125 C 8.148438 -13.828125 7.65625 -13.582031 7.65625 -13.09375 C 7.65625 -12.789062 7.828125 -12.53125 8.171875 -12.3125 C 8.515625 -12.101562 9.515625 -11.675781 11.171875 -11.03125 C 12.410156 -10.519531 13.332031 -10.019531 13.9375 -9.53125 C 14.539062 -9.039062 14.984375 -8.46875 15.265625 -7.8125 C 15.554688 -7.15625 15.703125 -6.351562 15.703125 -5.40625 Z M 15.703125 -5.40625 "/></g></g></g><g fill="#000000" fill-opacity="1"><g transform="translate(871.064106, 722.887886)"><g><path d="M 1.15625 -9.046875 C 1.15625 -12.054688 1.519531 -14.765625 2.25 -17.171875 C 2.988281 -19.585938 4.070312 -21.65625 5.5 -23.375 L 10.578125 -23.375 C 9.265625 -21.5625 8.253906 -19.425781 7.546875 -16.96875 C 6.847656 -14.507812 6.5 -11.878906 6.5 -9.078125 C 6.5 -6.367188 6.835938 -3.800781 7.515625 -1.375 C 8.203125 1.050781 9.210938 3.1875 10.546875 5.03125 L 5.5 5.03125 C 4.082031 3.394531 3.003906 1.382812 2.265625 -1 C 1.523438 -3.382812 1.15625 -6.066406 1.15625 -9.046875 Z M 7.671875 -23.09375 Z M 7.671875 -23.09375 "/></g></g></g><g fill="#1e76e9" fill-opacity="1"><g transform="translate(882.494132, 722.887886)"><g><path d="M 8.015625 0.3125 C 5.921875 0.3125 4.285156 -0.488281 3.109375 -2.09375 C 1.929688 -3.695312 1.34375 -5.90625 1.34375 -8.71875 C 1.34375 -11.625 1.960938 -13.875 3.203125 -15.46875 C 4.453125 -17.0625 6.195312 -17.859375 8.4375 -17.859375 C 9.644531 -17.859375 10.628906 -17.644531 11.390625 -17.21875 C 12.160156 -16.800781 12.789062 -16.144531 13.28125 -15.25 L 13.53125 -15.25 C 13.832031 -16.34375 14.191406 -17.128906 14.609375 -17.609375 L 19.71875 -17.609375 C 19.3125 -16.523438 18.988281 -15.328125 18.75 -14.015625 C 18.519531 -12.710938 18.40625 -11.484375 18.40625 -10.328125 L 18.40625 -6.34375 C 18.40625 -5.09375 18.832031 -4.46875 19.6875 -4.46875 C 20.019531 -4.46875 20.328125 -4.519531 20.609375 -4.625 L 20.609375 -0.09375 C 20.441406 0.0078125 20.066406 0.101562 19.484375 0.1875 C 18.910156 0.269531 18.472656 0.3125 18.171875 0.3125 C 16.835938 0.3125 15.8125 0.109375 15.09375 -0.296875 C 14.375 -0.703125 13.789062 -1.363281 13.34375 -2.28125 L 12.96875 -2.28125 C 11.820312 -0.550781 10.171875 0.3125 8.015625 0.3125 Z M 10.09375 -4.40625 C 11.007812 -4.40625 11.679688 -4.710938 12.109375 -5.328125 C 12.546875 -5.941406 12.773438 -7.03125 12.796875 -8.59375 L 12.796875 -8.75 C 12.796875 -10.300781 12.570312 -11.421875 12.125 -12.109375 C 11.675781 -12.804688 10.976562 -13.15625 10.03125 -13.15625 C 9.195312 -13.15625 8.566406 -12.769531 8.140625 -12 C 7.722656 -11.238281 7.515625 -10.132812 7.515625 -8.6875 C 7.515625 -5.832031 8.375 -4.40625 10.09375 -4.40625 Z M 10.09375 -4.40625 "/></g></g></g><g fill="#000000" fill-opacity="1"><g transform="translate(903.892568, 722.887886)"><g><path d="M 10.296875 -9.046875 C 10.296875 -6.117188 9.921875 -3.453125 9.171875 -1.046875 C 8.429688 1.347656 7.347656 3.375 5.921875 5.03125 L 0.890625 5.03125 C 2.191406 3.25 3.1875 1.132812 3.875 -1.3125 C 4.570312 -3.757812 4.921875 -6.347656 4.921875 -9.078125 C 4.921875 -11.828125 4.578125 -14.425781 3.890625 -16.875 C 3.210938 -19.332031 2.203125 -21.5 0.859375 -23.375 L 5.921875 -23.375 C 7.359375 -21.644531 8.445312 -19.554688 9.1875 -17.109375 C 9.925781 -14.671875 10.296875 -11.984375 10.296875 -9.046875 Z M 3.84375 -23.09375 Z M 3.84375 -23.09375 "/></g></g></g><g fill="#000000" fill-opacity="1"><g transform="translate(560.751784, 719.887886)"><g><path d="M 10.125 0.3125 C 7.238281 0.3125 5.050781 -0.460938 3.5625 -2.015625 C 2.082031 -3.578125 1.34375 -5.8125 1.34375 -8.71875 C 1.34375 -11.644531 2.144531 -13.910156 3.75 -15.515625 C 5.351562 -17.117188 7.640625 -17.921875 10.609375 -17.921875 C 12.648438 -17.921875 14.570312 -17.476562 16.375 -16.59375 L 14.578125 -12.09375 C 13.847656 -12.414062 13.171875 -12.671875 12.546875 -12.859375 C 11.921875 -13.054688 11.273438 -13.15625 10.609375 -13.15625 C 9.617188 -13.15625 8.851562 -12.769531 8.3125 -12 C 7.78125 -11.238281 7.515625 -10.15625 7.515625 -8.75 C 7.515625 -5.9375 8.554688 -4.53125 10.640625 -4.53125 C 12.421875 -4.53125 14.128906 -5.046875 15.765625 -6.078125 L 15.765625 -1.25 C 14.203125 -0.207031 12.320312 0.3125 10.125 0.3125 Z M 10.125 0.3125 "/></g></g></g><g fill="#000000" fill-opacity="1"><g transform="translate(577.915448, 719.887886)"><g><path d="M 18.921875 -8.84375 C 18.921875 -5.96875 18.144531 -3.722656 16.59375 -2.109375 C 15.050781 -0.492188 12.882812 0.3125 10.09375 0.3125 C 7.414062 0.3125 5.285156 -0.507812 3.703125 -2.15625 C 2.128906 -3.8125 1.34375 -6.039062 1.34375 -8.84375 C 1.34375 -11.71875 2.113281 -13.945312 3.65625 -15.53125 C 5.207031 -17.125 7.382812 -17.921875 10.1875 -17.921875 C 11.914062 -17.921875 13.441406 -17.550781 14.765625 -16.8125 C 16.097656 -16.082031 17.125 -15.03125 17.84375 -13.65625 C 18.5625 -12.28125 18.921875 -10.675781 18.921875 -8.84375 Z M 7.515625 -8.84375 C 7.515625 -7.332031 7.710938 -6.179688 8.109375 -5.390625 C 8.515625 -4.597656 9.195312 -4.203125 10.15625 -4.203125 C 11.09375 -4.203125 11.753906 -4.597656 12.140625 -5.390625 C 12.535156 -6.179688 12.734375 -7.332031 12.734375 -8.84375 C 12.734375 -10.351562 12.535156 -11.488281 12.140625 -12.25 C 11.742188 -13.019531 11.070312 -13.40625 10.125 -13.40625 C 9.1875 -13.40625 8.515625 -13.023438 8.109375 -12.265625 C 7.710938 -11.503906 7.515625 -10.363281 7.515625 -8.84375 Z M 7.515625 -8.84375 "/></g></g></g><g fill="#000000" fill-opacity="1"><g transform="translate(598.204024, 719.887886)"><g><path d="M 15.703125 -5.40625 C 15.703125 -3.519531 15.054688 -2.09375 13.765625 -1.125 C 12.484375 -0.164062 10.640625 0.3125 8.234375 0.3125 C 6.929688 0.3125 5.796875 0.238281 4.828125 0.09375 C 3.867188 -0.0390625 2.882812 -0.296875 1.875 -0.671875 L 1.875 -5.53125 C 2.820312 -5.113281 3.859375 -4.769531 4.984375 -4.5 C 6.109375 -4.238281 7.109375 -4.109375 7.984375 -4.109375 C 9.304688 -4.109375 9.96875 -4.40625 9.96875 -5 C 9.96875 -5.3125 9.78125 -5.585938 9.40625 -5.828125 C 9.039062 -6.078125 7.972656 -6.554688 6.203125 -7.265625 C 4.585938 -7.921875 3.457031 -8.671875 2.8125 -9.515625 C 2.164062 -10.367188 1.84375 -11.441406 1.84375 -12.734375 C 1.84375 -14.367188 2.472656 -15.640625 3.734375 -16.546875 C 5.003906 -17.460938 6.796875 -17.921875 9.109375 -17.921875 C 10.273438 -17.921875 11.367188 -17.796875 12.390625 -17.546875 C 13.410156 -17.296875 14.46875 -16.925781 15.5625 -16.4375 L 13.921875 -12.515625 C 13.109375 -12.878906 12.25 -13.1875 11.34375 -13.4375 C 10.445312 -13.695312 9.710938 -13.828125 9.140625 -13.828125 C 8.148438 -13.828125 7.65625 -13.582031 7.65625 -13.09375 C 7.65625 -12.789062 7.828125 -12.53125 8.171875 -12.3125 C 8.515625 -12.101562 9.515625 -11.675781 11.171875 -11.03125 C 12.410156 -10.519531 13.332031 -10.019531 13.9375 -9.53125 C 14.539062 -9.039062 14.984375 -8.46875 15.265625 -7.8125 C 15.554688 -7.15625 15.703125 -6.351562 15.703125 -5.40625 Z M 15.703125 -5.40625 "/></g></g></g><g fill="#000000" fill-opacity="1"><g transform="translate(615.181127, 719.887886)"><g><path d="M 1.15625 -9.046875 C 1.15625 -12.054688 1.519531 -14.765625 2.25 -17.171875 C 2.988281 -19.585938 4.070312 -21.65625 5.5 -23.375 L 10.578125 -23.375 C 9.265625 -21.5625 8.253906 -19.425781 7.546875 -16.96875 C 6.847656 -14.507812 6.5 -11.878906 6.5 -9.078125 C 6.5 -6.367188 6.835938 -3.800781 7.515625 -1.375 C 8.203125 1.050781 9.210938 3.1875 10.546875 5.03125 L 5.5 5.03125 C 4.082031 3.394531 3.003906 1.382812 2.265625 -1 C 1.523438 -3.382812 1.15625 -6.066406 1.15625 -9.046875 Z M 7.671875 -23.09375 Z M 7.671875 -23.09375 "/></g></g></g><g fill="#cc0829" fill-opacity="1"><g transform="translate(626.611153, 719.887886)"><g><path d="M 21.65625 -4.46875 C 22.007812 -4.46875 22.410156 -4.515625 22.859375 -4.609375 C 23.316406 -4.710938 23.71875 -4.84375 24.0625 -5 L 24.0625 -0.828125 C 23.539062 -0.492188 22.84375 -0.21875 21.96875 0 C 21.09375 0.207031 20.222656 0.3125 19.359375 0.3125 C 17.566406 0.3125 16.242188 -0.160156 15.390625 -1.109375 C 14.535156 -2.054688 14.109375 -3.507812 14.109375 -5.46875 L 14.109375 -13.09375 L 10.1875 -13.09375 L 10.1875 0 L 4.109375 0 L 4.109375 -13.09375 L 0.359375 -13.09375 L 0.359375 -15.671875 L 3.46875 -17.609375 L 24.0625 -17.609375 L 24.0625 -13.09375 L 20.1875 -13.09375 L 20.1875 -6.140625 C 20.1875 -5.609375 20.3125 -5.195312 20.5625 -4.90625 C 20.820312 -4.613281 21.1875 -4.46875 21.65625 -4.46875 Z M 21.65625 -4.46875 "/></g></g></g><g fill="#cc0829" fill-opacity="1"><g transform="translate(651.921339, 719.887886)"><g><path d="M 0.671875 -6.109375 L 0.671875 -10.96875 L 9.453125 -10.96875 L 9.453125 -6.109375 Z M 0.671875 -6.109375 "/></g></g></g><g fill="#cc0829" fill-opacity="1"><g transform="translate(662.04231, 719.887886)"><g><path d="M 8.015625 0.3125 C 5.921875 0.3125 4.285156 -0.488281 3.109375 -2.09375 C 1.929688 -3.695312 1.34375 -5.90625 1.34375 -8.71875 C 1.34375 -11.625 1.960938 -13.875 3.203125 -15.46875 C 4.453125 -17.0625 6.195312 -17.859375 8.4375 -17.859375 C 9.644531 -17.859375 10.628906 -17.644531 11.390625 -17.21875 C 12.160156 -16.800781 12.789062 -16.144531 13.28125 -15.25 L 13.53125 -15.25 C 13.832031 -16.34375 14.191406 -17.128906 14.609375 -17.609375 L 19.71875 -17.609375 C 19.3125 -16.523438 18.988281 -15.328125 18.75 -14.015625 C 18.519531 -12.710938 18.40625 -11.484375 18.40625 -10.328125 L 18.40625 -6.34375 C 18.40625 -5.09375 18.832031 -4.46875 19.6875 -4.46875 C 20.019531 -4.46875 20.328125 -4.519531 20.609375 -4.625 L 20.609375 -0.09375 C 20.441406 0.0078125 20.066406 0.101562 19.484375 0.1875 C 18.910156 0.269531 18.472656 0.3125 18.171875 0.3125 C 16.835938 0.3125 15.8125 0.109375 15.09375 -0.296875 C 14.375 -0.703125 13.789062 -1.363281 13.34375 -2.28125 L 12.96875 -2.28125 C 11.820312 -0.550781 10.171875 0.3125 8.015625 0.3125 Z M 10.09375 -4.40625 C 11.007812 -4.40625 11.679688 -4.710938 12.109375 -5.328125 C 12.546875 -5.941406 12.773438 -7.03125 12.796875 -8.59375 L 12.796875 -8.75 C 12.796875 -10.300781 12.570312 -11.421875 12.125 -12.109375 C 11.675781 -12.804688 10.976562 -13.15625 10.03125 -13.15625 C 9.195312 -13.15625 8.566406 -12.769531 8.140625 -12 C 7.722656 -11.238281 7.515625 -10.132812 7.515625 -8.6875 C 7.515625 -5.832031 8.375 -4.40625 10.09375 -4.40625 Z M 10.09375 -4.40625 "/></g></g></g><g fill="#000000" fill-opacity="1"><g transform="translate(683.435367, 719.887886)"><g><path d="M 10.296875 -9.046875 C 10.296875 -6.117188 9.921875 -3.453125 9.171875 -1.046875 C 8.429688 1.347656 7.347656 3.375 5.921875 5.03125 L 0.890625 5.03125 C 2.191406 3.25 3.1875 1.132812 3.875 -1.3125 C 4.570312 -3.757812 4.921875 -6.347656 4.921875 -9.078125 C 4.921875 -11.828125 4.578125 -14.425781 3.890625 -16.875 C 3.210938 -19.332031 2.203125 -21.5 0.859375 -23.375 L 5.921875 -23.375 C 7.359375 -21.644531 8.445312 -19.554688 9.1875 -17.109375 C 9.925781 -14.671875 10.296875 -11.984375 10.296875 -9.046875 Z M 3.84375 -23.09375 Z M 3.84375 -23.09375 "/></g></g></g><g fill="#cc0829" fill-opacity="1"><g transform="translate(653.372737, 581.517377)"><g><path d="M 26.015625 -5.359375 C 26.441406 -5.359375 26.925781 -5.414062 27.46875 -5.53125 C 28.007812 -5.65625 28.488281 -5.816406 28.90625 -6.015625 L 28.90625 -0.984375 C 28.269531 -0.585938 27.425781 -0.257812 26.375 0 C 25.320312 0.25 24.28125 0.375 23.25 0.375 C 21.09375 0.375 19.5 -0.191406 18.46875 -1.328125 C 17.445312 -2.472656 16.9375 -4.222656 16.9375 -6.578125 L 16.9375 -15.71875 L 12.234375 -15.71875 L 12.234375 0 L 4.9375 0 L 4.9375 -15.71875 L 0.421875 -15.71875 L 0.421875 -18.828125 L 4.171875 -21.15625 L 28.90625 -21.15625 L 28.90625 -15.71875 L 24.25 -15.71875 L 24.25 -7.375 C 24.25 -6.738281 24.398438 -6.242188 24.703125 -5.890625 C 25.015625 -5.535156 25.453125 -5.359375 26.015625 -5.359375 Z M 26.015625 -5.359375 "/></g></g></g><g fill="#cc0829" fill-opacity="1"><g transform="translate(683.77314, 581.517377)"><g><path d="M 0.796875 -7.34375 L 0.796875 -13.171875 L 11.359375 -13.171875 L 11.359375 -7.34375 Z M 0.796875 -7.34375 "/></g></g></g><g fill="#cc0829" fill-opacity="1"><g transform="translate(695.929573, 581.517377)"><g><path d="M 9.640625 0.375 C 7.117188 0.375 5.148438 -0.582031 3.734375 -2.5 C 2.316406 -4.425781 1.609375 -7.085938 1.609375 -10.484375 C 1.609375 -13.960938 2.359375 -16.660156 3.859375 -18.578125 C 5.359375 -20.492188 7.453125 -21.453125 10.140625 -21.453125 C 11.585938 -21.453125 12.769531 -21.195312 13.6875 -20.6875 C 14.613281 -20.175781 15.367188 -19.390625 15.953125 -18.328125 L 16.25 -18.328125 C 16.613281 -19.628906 17.050781 -20.570312 17.5625 -21.15625 L 23.6875 -21.15625 C 23.195312 -19.851562 22.8125 -18.414062 22.53125 -16.84375 C 22.25 -15.28125 22.109375 -13.800781 22.109375 -12.40625 L 22.109375 -7.625 C 22.109375 -6.113281 22.617188 -5.359375 23.640625 -5.359375 C 24.046875 -5.359375 24.414062 -5.421875 24.75 -5.546875 L 24.75 -0.109375 C 24.550781 0.015625 24.101562 0.125 23.40625 0.21875 C 22.71875 0.320312 22.191406 0.375 21.828125 0.375 C 20.222656 0.375 18.988281 0.132812 18.125 -0.34375 C 17.257812 -0.832031 16.5625 -1.632812 16.03125 -2.75 L 15.578125 -2.75 C 14.203125 -0.664062 12.222656 0.375 9.640625 0.375 Z M 12.125 -5.28125 C 13.226562 -5.28125 14.035156 -5.648438 14.546875 -6.390625 C 15.066406 -7.140625 15.34375 -8.453125 15.375 -10.328125 L 15.375 -10.515625 C 15.375 -12.367188 15.101562 -13.710938 14.5625 -14.546875 C 14.03125 -15.378906 13.191406 -15.796875 12.046875 -15.796875 C 11.046875 -15.796875 10.289062 -15.332031 9.78125 -14.40625 C 9.269531 -13.488281 9.015625 -12.164062 9.015625 -10.4375 C 9.015625 -7 10.050781 -5.28125 12.125 -5.28125 Z M 12.125 -5.28125 "/></g></g></g></svg>