<svg xmlns="http://www.w3.org/2000/svg" xmlns:xlink="http://www.w3.org/1999/xlink" width="2000" zoomAndPan="magnify" viewBox="0 0 1500 1124.99995" height="1500" preserveAspectRatio="xMidYMid meet" version="1.0"><defs><g/><clipPath id="b03488e09c"><path d="M 751 687 L 817 687 L 817 749 L 751 749 Z M 751 687 " clip-rule="nonzero"/></clipPath><clipPath id="5f306aa12b"><path d="M 732.917969 720.171875 L 769.960938 658.871094 L 816.585938 687.046875 L 779.542969 748.347656 Z M 732.917969 720.171875 " clip-rule="nonzero"/></clipPath><clipPath id="4c37248602"><path d="M 751.4375 689.523438 L 816.585938 687.046875 L 779.542969 748.347656 Z M 751.4375 689.523438 " clip-rule="nonzero"/></clipPath><clipPath id="e713611c71"><path d="M 507.648438 444.171875 L 983.148438 444.171875 L 983.148438 919.671875 L 507.648438 919.671875 Z M 507.648438 444.171875 " clip-rule="nonzero"/></clipPath><clipPath id="71d4a1cb02"><path d="M 745.398438 444.171875 C 614.09375 444.171875 507.648438 550.617188 507.648438 681.921875 C 507.648438 813.230469 614.09375 919.671875 745.398438 919.671875 C 876.703125 919.671875 983.148438 813.230469 983.148438 681.921875 C 983.148438 550.617188 876.703125 444.171875 745.398438 444.171875 Z M 745.398438 444.171875 " clip-rule="nonzero"/></clipPath><clipPath id="4227ca6e61"><path d="M 750 645 L 817 645 L 817 683 L 750 683 Z M 750 645 " clip-rule="nonzero"/></clipPath><clipPath id="ac0e8ee6e6"><path d="M 755.867188 699.613281 L 745.300781 663.03125 L 806.070312 645.476562 L 816.636719 682.058594 Z M 755.867188 699.613281 " clip-rule="nonzero"/></clipPath><clipPath id="66d46b0e8d"><path d="M 750.585938 681.324219 L 806.070312 645.476562 L 816.636719 682.058594 Z M 750.585938 681.324219 " clip-rule="nonzero"/></clipPath><clipPath id="64af92ba15"><path d="M 854.449219 870.421875 L 877.195312 870.421875 L 877.195312 893.171875 L 854.449219 893.171875 Z M 854.449219 870.421875 " clip-rule="nonzero"/></clipPath><clipPath id="8d4d319f0c"><path d="M 865.824219 870.421875 C 859.539062 870.421875 854.449219 875.515625 854.449219 881.796875 C 854.449219 888.078125 859.539062 893.171875 865.824219 893.171875 C 872.105469 893.171875 877.195312 888.078125 877.195312 881.796875 C 877.195312 875.515625 872.105469 870.421875 865.824219 870.421875 Z M 865.824219 870.421875 " clip-rule="nonzero"/></clipPath><clipPath id="cc34b5ef42"><path d="M 938.609375 558.765625 L 961.355469 558.765625 L 961.355469 581.515625 L 938.609375 581.515625 Z M 938.609375 558.765625 " clip-rule="nonzero"/></clipPath><clipPath id="e488cc2dc4"><path d="M 949.980469 558.765625 C 943.699219 558.765625 938.609375 563.859375 938.609375 570.140625 C 938.609375 576.421875 943.699219 581.515625 949.980469 581.515625 C 956.265625 581.515625 961.355469 576.421875 961.355469 570.140625 C 961.355469 563.859375 956.265625 558.765625 949.980469 558.765625 Z M 949.980469 558.765625 " clip-rule="nonzero"/></clipPath></defs><rect x="-150" width="1800" fill="#ffffff" y="-112.499995" height="1349.99994" fill-opacity="1"/><rect x="-150" width="1800" fill="#ffffff" y="-112.499995" height="1349.99994" fill-opacity="1"/><g clip-path="url(#b03488e09c)"><g clip-path="url(#5f306aa12b)"><g clip-path="url(#4c37248602)"><path fill="#00ff4e" d="M 732.917969 720.171875 L 769.960938 658.871094 L 816.585938 687.046875 L 779.542969 748.347656 Z M 732.917969 720.171875 " fill-opacity="1" fill-rule="nonzero"/></g></g></g><path stroke-linecap="round" transform="matrix(0.750075, 0, 0, 0.75, 259.723986, 681.823049)" fill="none" stroke-linejoin="miter" d="M 4.997729 5.00156 L 1403.358506 5.00156 " stroke="#000000" stroke-width="10" stroke-opacity="1" stroke-miterlimit="4"/><path stroke-linecap="round" transform="matrix(0.750075, 0, 0, 0.75, 259.723986, 681.823049)" fill="none" stroke-linejoin="round" d="M 1385.860248 -9.998442 L 1405.858257 5.00156 L 1385.860248 20.001561 " stroke="#000000" stroke-width="10" stroke-opacity="1" stroke-miterlimit="4"/><path stroke-linecap="round" transform="matrix(-0.00312497, -0.749993, 0.749993, -0.00312497, 743.420585, 1012.495909)" fill="none" stroke-linejoin="miter" d="M 4.99979 5.001762 L 1192.510229 5.001763 " stroke="#000000" stroke-width="10" stroke-opacity="1" stroke-miterlimit="4"/><path stroke-linecap="round" transform="matrix(-0.00312497, -0.749993, 0.749993, -0.00312497, 743.420585, 1012.495909)" fill="none" stroke-linejoin="round" d="M 1175.010075 -9.998369 L 1195.010251 5.001763 L 1175.010075 20.001894 " stroke="#000000" stroke-width="10" stroke-opacity="1" stroke-miterlimit="4"/><g clip-path="url(#e713611c71)"><g clip-path="url(#71d4a1cb02)"><path stroke-linecap="butt" transform="matrix(0.750333, 0, 0, 0.750333, 507.649214, 444.17291)" fill="none" stroke-linejoin="miter" d="M 316.858368 -0.00137906 C 141.863101 -0.00137906 -0.00103437 141.862756 -0.00103437 316.858024 C -0.00103437 491.858497 141.863101 633.717426 316.858368 633.717426 C 491.853636 633.717426 633.717771 491.858497 633.717771 316.858024 C 633.717771 141.862756 491.853636 -0.00137906 316.858368 -0.00137906 Z M 316.858368 -0.00137906 " stroke="#222222" stroke-width="20" stroke-opacity="1" stroke-miterlimit="4"/></g></g><g fill="#1e76e9" fill-opacity="1"><g transform="translate(668.134776, 197.965696)"><g><path d="M -0.078125 -48.53125 L 17.5625 -48.53125 L 25.796875 -20.6875 C 26.191406 -19.226562 26.460938 -17.472656 26.609375 -15.421875 L 26.953125 -15.421875 C 27.171875 -17.390625 27.507812 -19.117188 27.96875 -20.609375 L 36.40625 -48.53125 L 53.5 -48.53125 L 34.3125 3.078125 C 31.851562 9.648438 28.832031 14.289062 25.25 17 C 21.664062 19.71875 16.988281 21.078125 11.21875 21.078125 C 8.988281 21.078125 6.707031 20.832031 4.375 20.34375 L 4.375 7.203125 C 5.882812 7.546875 7.609375 7.71875 9.546875 7.71875 C 11.035156 7.71875 12.335938 7.429688 13.453125 6.859375 C 14.566406 6.285156 15.535156 5.476562 16.359375 4.4375 C 17.191406 3.394531 18.078125 1.6875 19.015625 -0.6875 Z M -0.078125 -48.53125 "/></g></g></g><g fill="#1e76e9" fill-opacity="1"><g transform="translate(1226.489568, 752.712278)"><g><path d="M 16.0625 -24.765625 L 1.25 -48.53125 L 20.265625 -48.53125 L 27.625 -34.90625 L 35.171875 -48.53125 L 54.234375 -48.53125 L 39.03125 -24.765625 L 54.828125 0 L 35.8125 0 L 27.625 -14.734375 L 19.484375 0 L 0.421875 0 Z M 16.0625 -24.765625 "/></g></g></g><g fill="#1e76e9" fill-opacity="1"><g transform="translate(828.684802, 668.584481)"><g><path d="M 9.65625 0.375 C 7.132812 0.375 5.160156 -0.585938 3.734375 -2.515625 C 2.316406 -4.441406 1.609375 -7.101562 1.609375 -10.5 C 1.609375 -14 2.359375 -16.707031 3.859375 -18.625 C 5.367188 -20.550781 7.472656 -21.515625 10.171875 -21.515625 C 11.617188 -21.515625 12.800781 -21.257812 13.71875 -20.75 C 14.644531 -20.238281 15.398438 -19.441406 15.984375 -18.359375 L 16.28125 -18.359375 C 16.644531 -19.671875 17.082031 -20.625 17.59375 -21.21875 L 23.734375 -21.21875 C 23.253906 -19.90625 22.875 -18.460938 22.59375 -16.890625 C 22.3125 -15.316406 22.171875 -13.832031 22.171875 -12.4375 L 22.171875 -7.640625 C 22.171875 -6.128906 22.679688 -5.375 23.703125 -5.375 C 24.097656 -5.375 24.46875 -5.4375 24.8125 -5.5625 L 24.8125 -0.109375 C 24.601562 0.015625 24.148438 0.125 23.453125 0.21875 C 22.765625 0.320312 22.242188 0.375 21.890625 0.375 C 20.273438 0.375 19.035156 0.132812 18.171875 -0.34375 C 17.304688 -0.832031 16.601562 -1.632812 16.0625 -2.75 L 15.609375 -2.75 C 14.242188 -0.664062 12.257812 0.375 9.65625 0.375 Z M 12.15625 -5.296875 C 13.257812 -5.296875 14.070312 -5.664062 14.59375 -6.40625 C 15.113281 -7.15625 15.382812 -8.472656 15.40625 -10.359375 L 15.40625 -10.546875 C 15.40625 -12.398438 15.132812 -13.742188 14.59375 -14.578125 C 14.0625 -15.421875 13.222656 -15.84375 12.078125 -15.84375 C 11.078125 -15.84375 10.320312 -15.378906 9.8125 -14.453125 C 9.300781 -13.523438 9.046875 -12.195312 9.046875 -10.46875 C 9.046875 -7.019531 10.082031 -5.296875 12.15625 -5.296875 Z M 12.15625 -5.296875 "/></g></g></g><g clip-path="url(#4227ca6e61)"><g clip-path="url(#ac0e8ee6e6)"><g clip-path="url(#66d46b0e8d)"><path fill="#00ff4e" d="M 755.867188 699.613281 L 745.300781 663.03125 L 806.070312 645.476562 L 816.636719 682.058594 Z M 755.867188 699.613281 " fill-opacity="1" fill-rule="nonzero"/></g></g></g><path stroke-linecap="round" transform="matrix(0.654515, -0.364965, 0.365261, 0.655046, 748.756673, 678.052194)" fill="none" stroke-linejoin="miter" d="M 4.999056 5.00147 L 284.23869 4.999191 " stroke="#000000" stroke-width="10" stroke-opacity="1" stroke-miterlimit="4"/><path stroke-linecap="round" transform="matrix(0.389719, 0.639834, -0.640535, 0.390147, 751.788953, 687.374921)" fill="none" stroke-linejoin="miter" d="M 4.998618 4.998716 L 280.319448 5.000212 " stroke="#000000" stroke-width="10" stroke-opacity="1" stroke-miterlimit="4"/><g fill="#cc0829" fill-opacity="1"><g transform="translate(804.24618, 743.295459)"><g><path d="M 9.640625 0.375 C 7.117188 0.375 5.148438 -0.582031 3.734375 -2.5 C 2.316406 -4.425781 1.609375 -7.085938 1.609375 -10.484375 C 1.609375 -13.960938 2.359375 -16.660156 3.859375 -18.578125 C 5.359375 -20.492188 7.453125 -21.453125 10.140625 -21.453125 C 11.585938 -21.453125 12.769531 -21.195312 13.6875 -20.6875 C 14.613281 -20.175781 15.367188 -19.390625 15.953125 -18.328125 L 16.25 -18.328125 C 16.613281 -19.628906 17.050781 -20.570312 17.5625 -21.15625 L 23.6875 -21.15625 C 23.195312 -19.851562 22.8125 -18.414062 22.53125 -16.84375 C 22.25 -15.28125 22.109375 -13.800781 22.109375 -12.40625 L 22.109375 -7.625 C 22.109375 -6.113281 22.617188 -5.359375 23.640625 -5.359375 C 24.046875 -5.359375 24.414062 -5.421875 24.75 -5.546875 L 24.75 -0.109375 C 24.550781 0.015625 24.101562 0.125 23.40625 0.21875 C 22.71875 0.320312 22.191406 0.375 21.828125 0.375 C 20.222656 0.375 18.988281 0.132812 18.125 -0.34375 C 17.257812 -0.832031 16.5625 -1.632812 16.03125 -2.75 L 15.578125 -2.75 C 14.203125 -0.664062 12.222656 0.375 9.640625 0.375 Z M 12.125 -5.28125 C 13.226562 -5.28125 14.035156 -5.648438 14.546875 -6.390625 C 15.066406 -7.140625 15.34375 -8.453125 15.375 -10.328125 L 15.375 -10.515625 C 15.375 -12.367188 15.101562 -13.710938 14.5625 -14.546875 C 14.03125 -15.378906 13.191406 -15.796875 12.046875 -15.796875 C 11.046875 -15.796875 10.289062 -15.332031 9.78125 -14.40625 C 9.269531 -13.488281 9.015625 -12.164062 9.015625 -10.4375 C 9.015625 -7 10.050781 -5.28125 12.125 -5.28125 Z M 12.125 -5.28125 "/></g></g></g><g fill="#cc0829" fill-opacity="1"><g transform="translate(829.940869, 743.295459)"><g><path d="M 0.796875 -7.34375 L 0.796875 -13.171875 L 11.359375 -13.171875 L 11.359375 -7.34375 Z M 0.796875 -7.34375 "/></g></g></g><g clip-path="url(#64af92ba15)"><g clip-path="url(#8d4d319f0c)"><path fill="#cc0829" d="M 854.449219 870.421875 L 877.195312 870.421875 L 877.195312 893.171875 L 854.449219 893.171875 Z M 854.449219 870.421875 " fill-opacity="1" fill-rule="nonzero"/></g></g><g clip-path="url(#cc34b5ef42)"><g clip-path="url(#e488cc2dc4)"><path fill="#1e76e9" d="M 938.609375 558.765625 L 961.355469 558.765625 L 961.355469 581.515625 L 938.609375 581.515625 Z M 938.609375 558.765625 " fill-opacity="1" fill-rule="nonzero"/></g></g><g fill="#cc0829" fill-opacity="1"><g transform="translate(845.314593, 726.391718)"><g><path d="M 20.640625 -4.25 C 20.972656 -4.25 21.351562 -4.296875 21.78125 -4.390625 C 22.21875 -4.484375 22.601562 -4.609375 22.9375 -4.765625 L 22.9375 -0.78125 C 22.4375 -0.46875 21.765625 -0.207031 20.921875 0 C 20.085938 0.195312 19.265625 0.296875 18.453125 0.296875 C 16.742188 0.296875 15.476562 -0.15625 14.65625 -1.0625 C 13.84375 -1.96875 13.4375 -3.351562 13.4375 -5.21875 L 13.4375 -12.46875 L 9.703125 -12.46875 L 9.703125 0 L 3.90625 0 L 3.90625 -12.46875 L 0.34375 -12.46875 L 0.34375 -14.9375 L 3.296875 -16.78125 L 22.9375 -16.78125 L 22.9375 -12.46875 L 19.234375 -12.46875 L 19.234375 -5.859375 C 19.234375 -5.347656 19.351562 -4.953125 19.59375 -4.671875 C 19.84375 -4.390625 20.191406 -4.25 20.640625 -4.25 Z M 20.640625 -4.25 "/></g></g></g><g fill="#cc0829" fill-opacity="1"><g transform="translate(848.288984, 728.437189)"><g><path d="M 18.25 6.734375 L -0.078125 6.734375 L -0.078125 2.359375 L 18.25 2.359375 Z M 18.25 6.734375 "/></g></g></g><g fill="#cc0829" fill-opacity="1"><g transform="translate(849.167888, 758.477963)"><g><path d="M 14.4375 0 L 0.78125 0 L 0.78125 -3.34375 L 5.375 -8 C 6.6875 -9.363281 7.546875 -10.296875 7.953125 -10.796875 C 8.359375 -11.304688 8.640625 -11.738281 8.796875 -12.09375 C 8.953125 -12.457031 9.03125 -12.835938 9.03125 -13.234375 C 9.03125 -13.722656 8.867188 -14.109375 8.546875 -14.390625 C 8.234375 -14.671875 7.789062 -14.8125 7.21875 -14.8125 C 6.625 -14.8125 6.023438 -14.640625 5.421875 -14.296875 C 4.816406 -13.960938 4.132812 -13.46875 3.375 -12.8125 L 0.578125 -16.078125 C 1.546875 -16.941406 2.359375 -17.5625 3.015625 -17.9375 C 3.679688 -18.3125 4.398438 -18.597656 5.171875 -18.796875 C 5.953125 -18.992188 6.828125 -19.09375 7.796875 -19.09375 C 9.015625 -19.09375 10.101562 -18.875 11.0625 -18.4375 C 12.019531 -18.007812 12.757812 -17.398438 13.28125 -16.609375 C 13.8125 -15.816406 14.078125 -14.925781 14.078125 -13.9375 C 14.078125 -13.195312 13.984375 -12.515625 13.796875 -11.890625 C 13.617188 -11.265625 13.335938 -10.648438 12.953125 -10.046875 C 12.566406 -9.441406 12.050781 -8.800781 11.40625 -8.125 C 10.769531 -7.457031 9.410156 -6.191406 7.328125 -4.328125 L 7.328125 -4.203125 L 14.4375 -4.203125 Z M 14.4375 0 "/></g></g></g></svg>