<?xml version="1.0" encoding="UTF-8"?>
<!DOCTYPE svg PUBLIC "-//W3C//DTD SVG 1.1//EN" "http://www.w3.org/Graphics/SVG/1.1/DTD/svg11.dtd">
<svg xmlns="http://www.w3.org/2000/svg" version="1.1" width="512px" height="512px" style="shape-rendering:geometricPrecision; text-rendering:geometricPrecision; image-rendering:optimizeQuality; fill-rule:evenodd; clip-rule:evenodd" xmlns:xlink="http://www.w3.org/1999/xlink">
<g><path style="opacity:0.976" fill="#000000" d="M 233.5,15.5 C 336.655,10.9799 414.488,52.6466 467,140.5C 497.57,199.298 503.903,260.631 486,324.5C 459.5,405.667 405.667,459.5 324.5,486C 235.316,509.369 156.65,490.369 88.5,429C 22.1129,360.296 0.946228,279.463 25,186.5C 51.5,105.333 105.333,51.5 186.5,25C 202.057,20.5889 217.723,17.4223 233.5,15.5 Z M 241.5,62.5 C 330.353,61.1517 394.187,100.152 433,179.5C 461.355,254.033 450.355,322.033 400,383.5C 344.057,441.696 276.89,460.529 198.5,440C 130.963,416.464 87.4632,370.297 68,301.5C 52.4677,226.773 72.301,163.273 127.5,111C 160.328,82.6686 198.328,66.502 241.5,62.5 Z"/></g>
<g><path style="opacity:0.969" fill="#000000" d="M 217.5,154.5 C 237.658,153.161 247.491,162.494 247,182.5C 242.34,198.808 237.84,215.142 233.5,231.5C 245.5,231.5 257.5,231.5 269.5,231.5C 269.047,210.78 269.547,190.113 271,169.5C 277.717,156.396 288.217,151.896 302.5,156C 310.719,159.898 315.552,166.398 317,175.5C 317.667,228.833 317.667,282.167 317,335.5C 313.484,351.341 303.651,358.174 287.5,356C 277.888,353.389 272.055,347.222 270,337.5C 269.5,318.17 269.333,298.836 269.5,279.5C 245.498,279.667 221.498,279.5 197.5,279C 182.673,275.176 176.173,265.676 178,250.5C 185.87,221.561 194.536,192.894 204,164.5C 207.579,159.731 212.079,156.397 217.5,154.5 Z"/></g>
</svg>
