<svg xmlns="http://www.w3.org/2000/svg" xmlns:xlink="http://www.w3.org/1999/xlink" width="2000" zoomAndPan="magnify" viewBox="0 0 1500 1124.99995" height="1500" preserveAspectRatio="xMidYMid meet" version="1.0"><defs><g/><clipPath id="5958f726c3"><path d="M 0 112.5 L 920.25 112.5 L 920.25 1125 L 0 1125 Z M 0 112.5 " clip-rule="nonzero"/></clipPath><clipPath id="64cca190d7"><path d="M 0 949.5 L 1285.484375 949.5 L 1285.484375 1125 L 0 1125 Z M 0 949.5 " clip-rule="nonzero"/></clipPath></defs><rect x="-150" width="1800" fill="#ffffff" y="-112.499995" height="1349.99994" fill-opacity="1"/><rect x="-150" width="1800" fill="#ffffff" y="-112.499995" height="1349.99994" fill-opacity="1"/><g clip-path="url(#5958f726c3)"><path fill="#000000" d="M -98.484375 1131.808594 L 920.828125 1131.808594 L 920.828125 112.5 L 745.007812 112.5 L 745.007812 280.734375 L 576.324219 280.734375 L 576.324219 448.945312 L 407.617188 448.945312 L 407.617188 617.183594 L 238.90625 617.183594 L 238.90625 785.417969 L 70.222656 785.417969 L 70.222656 953.628906 L -98.484375 953.628906 Z M 910.882812 1121.867188 L -88.539062 1121.867188 L -88.539062 963.574219 L 80.167969 963.574219 L 80.167969 795.363281 L 248.851562 795.363281 L 248.851562 627.128906 L 417.5625 627.128906 L 417.5625 458.890625 L 586.269531 458.890625 L 586.269531 290.679688 L 754.953125 290.679688 L 754.953125 122.445312 L 910.882812 122.445312 Z M 910.882812 1121.867188 " fill-opacity="1" fill-rule="nonzero"/></g><path stroke-linecap="butt" transform="matrix(-1.192035, -0.00764603, 0.00763785, -1.190759, 920.767394, 291.752768)" fill="none" stroke-linejoin="miter" d="M 0.000905766 4.001213 L 145.848567 3.999638 " stroke="#000000" stroke-width="8" stroke-opacity="1" stroke-miterlimit="4"/><path stroke-linecap="butt" transform="matrix(-1.191734, -0.00382104, 0.00381798, -1.190777, 920.815274, 459.978924)" fill="none" stroke-linejoin="miter" d="M -0.00124371 4.00082 L 291.767707 3.999492 " stroke="#000000" stroke-width="8" stroke-opacity="1" stroke-miterlimit="4"/><path stroke-linecap="butt" transform="matrix(-1.190712, 0.00691067, -0.00691097, -1.190763, 920.842466, 959.002865)" fill="none" stroke-linejoin="miter" d="M -0.00133779 4.001278 L 720.034856 4.000749 " stroke="#000000" stroke-width="8" stroke-opacity="1" stroke-miterlimit="4"/><path stroke-linecap="butt" transform="matrix(-1.190784, 0.00871508, -0.00871484, -1.190751, 920.853002, 791.156168)" fill="none" stroke-linejoin="miter" d="M 0.00146655 3.998861 L 570.998007 3.998625 " stroke="#000000" stroke-width="8" stroke-opacity="1" stroke-miterlimit="4"/><path stroke-linecap="butt" transform="matrix(-1.190132, 0, 0, -1.190783, 920.820602, 627.209926)" fill="none" stroke-linejoin="miter" d="M 0.000243284 4.001243 L 428.245277 4.001243 " stroke="#000000" stroke-width="8" stroke-opacity="1" stroke-miterlimit="4"/><path stroke-linecap="butt" transform="matrix(-0.005486, 1.190174, -1.190771, -0.00548875, 754.958584, 281.137924)" fill="none" stroke-linejoin="miter" d="M 0.00102468 4.000154 L 561.286416 3.999242 " stroke="#000000" stroke-width="8" stroke-opacity="1" stroke-miterlimit="4"/><path stroke-linecap="butt" transform="matrix(-0.005486, 1.190174, -1.190771, -0.00548875, 585.991159, 291.799642)" fill="none" stroke-linejoin="miter" d="M -0.000282601 4.001272 L 561.285109 4.00036 " stroke="#000000" stroke-width="8" stroke-opacity="1" stroke-miterlimit="4"/><path stroke-linecap="butt" transform="matrix(-0.00541845, 1.192275, -1.190771, -0.00541162, 415.647766, 622.470406)" fill="none" stroke-linejoin="miter" d="M 0.000391947 4.001568 L 284.64211 3.998835 " stroke="#000000" stroke-width="8" stroke-opacity="1" stroke-miterlimit="4"/><path stroke-linecap="butt" transform="matrix(0.000000000000000864, 1.187422, -1.190783, 0.000000000000000866, 245.638534, 791.927264)" fill="none" stroke-linejoin="miter" d="M -0.00124855 4.000336 L 138.402548 4.000336 " stroke="#000000" stroke-width="8" stroke-opacity="1" stroke-miterlimit="4"/><g clip-path="url(#64cca190d7)"><path fill="#ffffff" d="M -113.496094 949.5 L 1285.484375 949.5 L 1285.484375 1485.351562 L -113.496094 1485.351562 Z M -113.496094 949.5 " fill-opacity="1" fill-rule="nonzero"/></g><path stroke-linecap="butt" transform="matrix(-1.191434, 0, 0, -1.190783, 920.827802, 954.239418)" fill="none" stroke-linejoin="miter" d="M -0.000271068 3.999766 L 714.612457 3.999766 " stroke="#000000" stroke-width="8" stroke-opacity="1" stroke-miterlimit="4"/><g fill="#5e17eb" fill-opacity="1"><g transform="translate(1091.182032, 243.829828)"><g><path d="M 4.03125 0 L 4.03125 -12.515625 L 22.53125 -12.515625 L 22.53125 -60.1875 L 21.3125 -60.5 C 18.695312 -59.238281 16.125 -58.242188 13.59375 -57.515625 C 11.0625 -56.785156 8.171875 -56.207031 4.921875 -55.78125 L 4.921875 -68.734375 C 13.410156 -70.515625 20.273438 -73.128906 25.515625 -76.578125 L 37.5 -76.578125 L 37.5 -12.515625 L 54 -12.515625 L 54 0 Z M 4.03125 0 "/></g></g></g><g fill="#5e17eb" fill-opacity="1"><g transform="translate(1147.700764, 243.829828)"><g/></g></g><g fill="#5e17eb" fill-opacity="1"><g transform="translate(1173.000622, 243.829828)"><g><path d="M 34.515625 -44.3125 L 51.859375 -44.3125 L 51.859375 -32.265625 L 34.515625 -32.265625 L 34.515625 -14.671875 L 21.953125 -14.671875 L 21.953125 -32.265625 L 4.5625 -32.265625 L 4.5625 -44.3125 L 21.953125 -44.3125 L 21.953125 -61.921875 L 34.515625 -61.921875 Z M 34.515625 -44.3125 "/></g></g></g><g fill="#5e17eb" fill-opacity="1"><g transform="translate(1089.563539, 411.174268)"><g><path d="M 3.71875 -6.078125 C 3.71875 -10.304688 4.179688 -13.867188 5.109375 -16.765625 C 6.035156 -19.660156 7.546875 -22.300781 9.640625 -24.6875 C 11.734375 -27.082031 14.703125 -29.660156 18.546875 -32.421875 L 28.765625 -39.8125 C 31.554688 -41.800781 33.726562 -43.53125 35.28125 -45 C 36.832031 -46.46875 38 -48.003906 38.78125 -49.609375 C 39.570312 -51.210938 39.96875 -53.046875 39.96875 -55.109375 C 39.96875 -58.210938 39.023438 -60.609375 37.140625 -62.296875 C 35.253906 -63.992188 32.425781 -64.84375 28.65625 -64.84375 C 25.019531 -64.84375 21.785156 -63.976562 18.953125 -62.25 C 16.128906 -60.53125 13.789062 -58.164062 11.9375 -55.15625 L 10.953125 -54.890625 L 2.625 -64.21875 C 5.34375 -68.269531 8.894531 -71.523438 13.28125 -73.984375 C 17.664062 -76.453125 22.984375 -77.6875 29.234375 -77.6875 C 34.960938 -77.6875 39.753906 -76.742188 43.609375 -74.859375 C 47.460938 -72.972656 50.320312 -70.394531 52.1875 -67.125 C 54.0625 -63.863281 55 -60.117188 55 -55.890625 C 55 -52.253906 54.238281 -48.9375 52.71875 -45.9375 C 51.195312 -42.9375 49.09375 -40.160156 46.40625 -37.609375 C 43.71875 -35.054688 40.28125 -32.316406 36.09375 -29.390625 L 27.03125 -23.046875 C 24.300781 -21.085938 22.394531 -19.347656 21.3125 -17.828125 C 20.238281 -16.316406 19.703125 -14.597656 19.703125 -12.671875 L 54.265625 -12.671875 L 54.265625 0 L 3.71875 0 Z M 3.71875 -6.078125 "/></g></g></g><g fill="#5e17eb" fill-opacity="1"><g transform="translate(1149.329872, 411.174268)"><g/></g></g><g fill="#5e17eb" fill-opacity="1"><g transform="translate(1174.62973, 411.174268)"><g><path d="M 34.515625 -44.3125 L 51.859375 -44.3125 L 51.859375 -32.265625 L 34.515625 -32.265625 L 34.515625 -14.671875 L 21.953125 -14.671875 L 21.953125 -32.265625 L 4.5625 -32.265625 L 4.5625 -44.3125 L 21.953125 -44.3125 L 21.953125 -61.921875 L 34.515625 -61.921875 Z M 34.515625 -44.3125 "/></g></g></g><g fill="#5e17eb" fill-opacity="1"><g transform="translate(1087.757774, 578.907073)"><g><path d="M 31.21875 1.09375 C 23.007812 1.09375 16.492188 -0.640625 11.671875 -4.109375 C 6.859375 -7.585938 3.804688 -12.503906 2.515625 -18.859375 L 13.984375 -24.203125 L 15.1875 -23.984375 C 16.476562 -19.765625 18.320312 -16.6875 20.71875 -14.75 C 23.113281 -12.8125 26.441406 -11.84375 30.703125 -11.84375 C 34.816406 -11.84375 37.957031 -12.800781 40.125 -14.71875 C 42.289062 -16.632812 43.375 -19.425781 43.375 -23.09375 C 43.375 -26.695312 42.300781 -29.457031 40.15625 -31.375 C 38.007812 -33.300781 34.859375 -34.265625 30.703125 -34.265625 L 19.171875 -34.265625 L 19.171875 -46.046875 L 29.234375 -46.046875 C 32.648438 -46.046875 35.367188 -46.898438 37.390625 -48.609375 C 39.421875 -50.316406 40.4375 -52.765625 40.4375 -55.953125 C 40.4375 -59.085938 39.484375 -61.445312 37.578125 -63.03125 C 35.679688 -64.625 33.054688 -65.421875 29.703125 -65.421875 C 26.273438 -65.421875 23.242188 -64.617188 20.609375 -63.015625 C 17.972656 -61.410156 15.851562 -59.242188 14.25 -56.515625 L 13.046875 -56.3125 L 5.078125 -65.578125 C 7.765625 -69.210938 11.222656 -72.140625 15.453125 -74.359375 C 19.679688 -76.578125 24.710938 -77.6875 30.546875 -77.6875 C 38.578125 -77.6875 44.703125 -76.007812 48.921875 -72.65625 C 53.148438 -69.300781 55.265625 -64.585938 55.265625 -58.515625 C 55.265625 -54.847656 54.40625 -51.710938 52.6875 -49.109375 C 50.976562 -46.503906 48.519531 -44.257812 45.3125 -42.375 L 45.3125 -41.28125 C 54.144531 -38.164062 58.5625 -31.878906 58.5625 -22.421875 C 58.5625 -17.671875 57.546875 -13.53125 55.515625 -10 C 53.492188 -6.476562 50.441406 -3.75 46.359375 -1.8125 C 42.273438 0.125 37.226562 1.09375 31.21875 1.09375 Z M 31.21875 1.09375 "/></g></g></g><g fill="#5e17eb" fill-opacity="1"><g transform="translate(1151.138372, 578.907073)"><g/></g></g><g fill="#5e17eb" fill-opacity="1"><g transform="translate(1176.43823, 578.907073)"><g><path d="M 34.515625 -44.3125 L 51.859375 -44.3125 L 51.859375 -32.265625 L 34.515625 -32.265625 L 34.515625 -14.671875 L 21.953125 -14.671875 L 21.953125 -32.265625 L 4.5625 -32.265625 L 4.5625 -44.3125 L 21.953125 -44.3125 L 21.953125 -61.921875 L 34.515625 -61.921875 Z M 34.515625 -44.3125 "/></g></g></g><g fill="#5e17eb" fill-opacity="1"><g transform="translate(1086.085777, 746.639867)"><g><path d="M 52.015625 0 L 37.5 0 L 37.5 -16.65625 L 2.625 -16.65625 L 2.625 -28.859375 L 32.640625 -76.578125 L 52.015625 -76.578125 L 52.015625 -28.859375 L 63.796875 -28.859375 L 63.796875 -16.65625 L 52.015625 -16.65625 Z M 18.125 -29.96875 L 18.59375 -28.859375 L 37.5 -28.859375 L 37.5 -58.515625 L 36.296875 -58.71875 Z M 18.125 -29.96875 "/></g></g></g><g fill="#5e17eb" fill-opacity="1"><g transform="translate(1152.818737, 746.639867)"><g/></g></g><g fill="#5e17eb" fill-opacity="1"><g transform="translate(1178.118596, 746.639867)"><g><path d="M 34.515625 -44.3125 L 51.859375 -44.3125 L 51.859375 -32.265625 L 34.515625 -32.265625 L 34.515625 -14.671875 L 21.953125 -14.671875 L 21.953125 -32.265625 L 4.5625 -32.265625 L 4.5625 -44.3125 L 21.953125 -44.3125 L 21.953125 -61.921875 L 34.515625 -61.921875 Z M 34.515625 -44.3125 "/></g></g></g><g fill="#5e17eb" fill-opacity="1"><g transform="translate(1094.034421, 914.372204)"><g><path d="M 31.90625 1.09375 C 24.25 1.09375 18.175781 -0.507812 13.6875 -3.71875 C 9.207031 -6.925781 6.285156 -11.414062 4.921875 -17.1875 L 16.390625 -22.265625 L 17.59375 -22.046875 C 18.71875 -18.660156 20.390625 -16.113281 22.609375 -14.40625 C 24.828125 -12.695312 27.875 -11.84375 31.75 -11.84375 C 35.726562 -11.84375 38.800781 -12.976562 40.96875 -15.25 C 43.132812 -17.519531 44.21875 -20.90625 44.21875 -25.40625 C 44.21875 -29.875 43.140625 -33.257812 40.984375 -35.5625 C 38.835938 -37.875 35.914062 -39.03125 32.21875 -39.03125 C 29.382812 -39.03125 27.003906 -38.414062 25.078125 -37.1875 C 23.160156 -35.96875 21.554688 -34.15625 20.265625 -31.75 L 7.75 -32.640625 L 9.328125 -76.578125 L 54.890625 -76.578125 L 54.890625 -63.859375 L 22.046875 -63.859375 L 21.3125 -44.3125 L 22.421875 -44.109375 C 24.203125 -46.441406 26.332031 -48.210938 28.8125 -49.421875 C 31.289062 -50.628906 34.273438 -51.234375 37.765625 -51.234375 C 42.128906 -51.234375 45.941406 -50.265625 49.203125 -48.328125 C 52.472656 -46.390625 55 -43.503906 56.78125 -39.671875 C 58.5625 -35.847656 59.453125 -31.179688 59.453125 -25.671875 C 59.453125 -20.046875 58.378906 -15.234375 56.234375 -11.234375 C 54.085938 -7.234375 50.953125 -4.175781 46.828125 -2.0625 C 42.710938 0.0390625 37.738281 1.09375 31.90625 1.09375 Z M 31.90625 1.09375 "/></g></g></g><g fill="#5e17eb" fill-opacity="1"><g transform="translate(1158.567394, 914.372204)"><g/></g></g><g fill="#5e17eb" fill-opacity="1"><g transform="translate(1183.867252, 914.372204)"><g><path d="M 53.171875 -43.21875 L 5.875 -43.21875 L 5.875 -55.265625 L 53.171875 -55.265625 Z M 53.171875 -21.3125 L 5.875 -21.3125 L 5.875 -33.359375 L 53.171875 -33.359375 Z M 53.171875 -21.3125 "/></g></g></g><g fill="#5e17eb" fill-opacity="1"><g transform="translate(1243.005017, 914.372204)"><g/></g></g><g fill="#5e17eb" fill-opacity="1"><g transform="translate(1268.304875, 914.372204)"><g><path d="M 4.03125 0 L 4.03125 -12.515625 L 22.53125 -12.515625 L 22.53125 -60.1875 L 21.3125 -60.5 C 18.695312 -59.238281 16.125 -58.242188 13.59375 -57.515625 C 11.0625 -56.785156 8.171875 -56.207031 4.921875 -55.78125 L 4.921875 -68.734375 C 13.410156 -70.515625 20.273438 -73.128906 25.515625 -76.578125 L 37.5 -76.578125 L 37.5 -12.515625 L 54 -12.515625 L 54 0 Z M 4.03125 0 "/></g></g></g><g fill="#5e17eb" fill-opacity="1"><g transform="translate(1324.823607, 914.372204)"><g><path d="M 31.90625 1.09375 C 24.25 1.09375 18.175781 -0.507812 13.6875 -3.71875 C 9.207031 -6.925781 6.285156 -11.414062 4.921875 -17.1875 L 16.390625 -22.265625 L 17.59375 -22.046875 C 18.71875 -18.660156 20.390625 -16.113281 22.609375 -14.40625 C 24.828125 -12.695312 27.875 -11.84375 31.75 -11.84375 C 35.726562 -11.84375 38.800781 -12.976562 40.96875 -15.25 C 43.132812 -17.519531 44.21875 -20.90625 44.21875 -25.40625 C 44.21875 -29.875 43.140625 -33.257812 40.984375 -35.5625 C 38.835938 -37.875 35.914062 -39.03125 32.21875 -39.03125 C 29.382812 -39.03125 27.003906 -38.414062 25.078125 -37.1875 C 23.160156 -35.96875 21.554688 -34.15625 20.265625 -31.75 L 7.75 -32.640625 L 9.328125 -76.578125 L 54.890625 -76.578125 L 54.890625 -63.859375 L 22.046875 -63.859375 L 21.3125 -44.3125 L 22.421875 -44.109375 C 24.203125 -46.441406 26.332031 -48.210938 28.8125 -49.421875 C 31.289062 -50.628906 34.273438 -51.234375 37.765625 -51.234375 C 42.128906 -51.234375 45.941406 -50.265625 49.203125 -48.328125 C 52.472656 -46.390625 55 -43.503906 56.78125 -39.671875 C 58.5625 -35.847656 59.453125 -31.179688 59.453125 -25.671875 C 59.453125 -20.046875 58.378906 -15.234375 56.234375 -11.234375 C 54.085938 -7.234375 50.953125 -4.175781 46.828125 -2.0625 C 42.710938 0.0390625 37.738281 1.09375 31.90625 1.09375 Z M 31.90625 1.09375 "/></g></g></g></svg>