<?xml version="1.0" encoding="UTF-8"?>
<!DOCTYPE svg PUBLIC "-//W3C//DTD SVG 1.1//EN" "http://www.w3.org/Graphics/SVG/1.1/DTD/svg11.dtd">
<svg xmlns="http://www.w3.org/2000/svg" version="1.1" width="512px" height="512px" style="shape-rendering:geometricPrecision; text-rendering:geometricPrecision; image-rendering:optimizeQuality; fill-rule:evenodd; clip-rule:evenodd" xmlns:xlink="http://www.w3.org/1999/xlink">
<g><path style="opacity:0.976" fill="#000000" d="M 233.5,15.5 C 336.655,10.9799 414.488,52.6466 467,140.5C 497.57,199.298 503.903,260.631 486,324.5C 459.5,405.667 405.667,459.5 324.5,486C 235.316,509.369 156.65,490.369 88.5,429C 22.1129,360.296 0.946228,279.463 25,186.5C 51.5,105.333 105.333,51.5 186.5,25C 202.057,20.5889 217.723,17.4223 233.5,15.5 Z M 241.5,62.5 C 330.353,61.1517 394.187,100.152 433,179.5C 461.355,254.033 450.355,322.033 400,383.5C 344.057,441.696 276.89,460.529 198.5,440C 130.963,416.464 87.4632,370.297 68,301.5C 52.4677,226.773 72.301,163.273 127.5,111C 160.328,82.6686 198.328,66.502 241.5,62.5 Z"/></g>
<g><path style="opacity:0.972" fill="#000000" d="M 228.5,150.5 C 247.503,150.333 266.503,150.5 285.5,151C 300.884,153.72 308.051,162.887 307,178.5C 304.5,189 298,195.5 287.5,198C 275.153,198.167 262.82,198.667 250.5,199.5C 249.407,204.484 248.407,209.484 247.5,214.5C 285.55,219.053 308.383,240.053 316,277.5C 318.604,313.469 303.771,339.302 271.5,355C 247.718,363.355 225.051,361.022 203.5,348C 194.884,340.146 192.384,330.646 196,319.5C 202.059,307.889 211.559,303.389 224.5,306C 229.167,308 233.833,310 238.5,312C 256.076,313.429 266.41,305.429 269.5,288C 267.032,270.526 257.032,262.193 239.5,263C 234.397,264.717 229.397,266.717 224.5,269C 207.281,270.784 197.281,263.117 194.5,246C 198.661,220.213 202.828,194.379 207,168.5C 210.577,158.138 217.744,152.138 228.5,150.5 Z"/></g>
</svg>
