<?xml version="1.0" standalone="no"?>
<!DOCTYPE svg PUBLIC "-//W3C//DTD SVG 20010904//EN"
 "http://www.w3.org/TR/2001/REC-SVG-20010904/DTD/svg10.dtd">
<svg version="1.0" xmlns="http://www.w3.org/2000/svg"
 width="512.000000pt" height="512.000000pt" viewBox="0 0 512.000000 512.000000"
 preserveAspectRatio="xMidYMid meet">

<g transform="translate(0.000000,512.000000) scale(0.100000,-0.100000)"
fill="#000000" stroke="none">
<path d="M2325 4949 c-211 -20 -499 -94 -702 -181 -1136 -487 -1721 -1750
-1352 -2922 402 -1276 1768 -1983 3029 -1566 628 207 1115 629 1410 1222 590
1186 98 2624 -1100 3214 -390 193 -841 274 -1285 233z m410 -464 c251 -15 580
-121 810 -260 791 -478 1141 -1429 845 -2290 -349 -1011 -1436 -1545 -2452
-1205 -734 245 -1260 931 -1307 1702 -34 571 164 1096 563 1493 277 276 608
455 986 531 126 26 322 44 415 38 28 -2 90 -6 140 -9z"/>
<path d="M2682 3555 c-74 -23 -251 -169 -370 -305 -144 -165 -262 -368 -327
-563 -57 -173 -70 -252 -70 -437 1 -152 3 -171 28 -247 98 -295 397 -484 699
-443 215 30 397 157 496 347 52 101 72 182 72 303 0 314 -222 580 -532 637
l-88 16 39 46 c56 66 167 170 233 219 31 23 65 54 76 69 95 137 21 328 -139
362 -60 13 -63 13 -117 -4z m-69 -1166 c86 -24 146 -116 133 -206 -20 -146
-195 -215 -303 -120 -95 83 -94 219 1 292 54 41 107 52 169 34z"/>
</g>
</svg>
