<?xml version="1.0" encoding="UTF-8"?>
<!DOCTYPE svg PUBLIC "-//W3C//DTD SVG 1.1//EN" "http://www.w3.org/Graphics/SVG/1.1/DTD/svg11.dtd">
<svg xmlns="http://www.w3.org/2000/svg" version="1.1" width="512px" height="512px" style="shape-rendering:geometricPrecision; text-rendering:geometricPrecision; image-rendering:optimizeQuality; fill-rule:evenodd; clip-rule:evenodd" xmlns:xlink="http://www.w3.org/1999/xlink">
<g><path style="opacity:0.976" fill="#000000" d="M 233.5,15.5 C 336.655,10.9799 414.488,52.6466 467,140.5C 497.57,199.298 503.903,260.631 486,324.5C 459.5,405.667 405.667,459.5 324.5,486C 235.316,509.369 156.65,490.369 88.5,429C 22.1129,360.296 0.946228,279.463 25,186.5C 51.5,105.333 105.333,51.5 186.5,25C 202.057,20.5889 217.723,17.4223 233.5,15.5 Z M 241.5,62.5 C 330.353,61.1517 394.187,100.152 433,179.5C 461.355,254.033 450.355,322.033 400,383.5C 344.057,441.696 276.89,460.529 198.5,440C 130.963,416.464 87.4632,370.297 68,301.5C 52.4677,226.773 72.301,163.273 127.5,111C 160.328,82.6686 198.328,66.502 241.5,62.5 Z"/></g>
<g><path style="opacity:0.975" fill="#000000" d="M 216.5,154.5 C 242.502,154.333 268.502,154.5 294.5,155C 308.901,159.622 314.734,169.456 312,184.5C 294.667,237.833 277.333,291.167 260,344.5C 251.748,356.136 240.915,359.303 227.5,354C 217.249,347.592 213.415,338.426 216,326.5C 229.308,284.911 242.808,243.411 256.5,202C 242.833,201.667 229.167,201.333 215.5,201C 200.55,194.931 195.383,184.098 200,168.5C 203.593,161.394 209.093,156.727 216.5,154.5 Z"/></g>
</svg>
