<?xml version="1.0" standalone="no"?>
<!DOCTYPE svg PUBLIC "-//W3C//DTD SVG 20010904//EN"
 "http://www.w3.org/TR/2001/REC-SVG-20010904/DTD/svg10.dtd">
<svg version="1.0" xmlns="http://www.w3.org/2000/svg"
 width="512.000000pt" height="512.000000pt" viewBox="0 0 512.000000 512.000000"
 preserveAspectRatio="xMidYMid meet">

<g transform="translate(0.000000,512.000000) scale(0.100000,-0.100000)"
fill="#000000" stroke="none">
<path d="M2325 4949 c-211 -20 -499 -94 -702 -181 -1136 -487 -1721 -1750
-1352 -2922 402 -1276 1768 -1983 3029 -1566 628 207 1115 629 1410 1222 590
1186 98 2624 -1100 3214 -390 193 -841 274 -1285 233z m410 -464 c251 -15 580
-121 810 -260 791 -478 1141 -1429 845 -2290 -349 -1011 -1436 -1545 -2452
-1205 -734 245 -1260 931 -1307 1702 -34 571 164 1096 563 1493 277 276 608
455 986 531 126 26 322 44 415 38 28 -2 90 -6 140 -9z"/>
<path d="M2414 3575 c-144 -31 -266 -98 -362 -200 -110 -116 -162 -239 -162
-387 0 -114 45 -250 108 -328 l19 -24 -50 -60 c-134 -161 -179 -381 -116 -570
54 -161 190 -312 353 -391 136 -65 197 -79 356 -79 159 0 220 14 359 81 79 37
108 59 181 131 128 128 183 240 196 398 11 147 -43 309 -145 432 l-48 58 19
24 c64 79 108 214 108 330 0 153 -54 276 -174 396 -67 67 -97 89 -176 127
-151 73 -316 95 -466 62z m244 -467 c41 -12 99 -66 107 -100 16 -62 -62 -140
-152 -154 -107 -16 -215 24 -247 90 -20 43 -20 54 3 92 47 77 171 108 289 72z
m55 -762 c102 -49 145 -144 103 -224 -58 -111 -256 -160 -393 -97 -95 43 -133
91 -133 166 0 73 50 131 148 170 73 30 199 23 275 -15z"/>
</g>
</svg>
