<?xml version="1.0" standalone="no"?>
<!DOCTYPE svg PUBLIC "-//W3C//DTD SVG 20010904//EN"
 "http://www.w3.org/TR/2001/REC-SVG-20010904/DTD/svg10.dtd">
<svg version="1.0" xmlns="http://www.w3.org/2000/svg"
 width="512.000000pt" height="512.000000pt" viewBox="0 0 512.000000 512.000000"
 preserveAspectRatio="xMidYMid meet">

<g transform="translate(0.000000,512.000000) scale(0.100000,-0.100000)"
fill="#000000" stroke="none">
<path d="M2325 5029 c-312 -32 -570 -106 -850 -244 -513 -253 -889 -628 -1140
-1140 -185 -375 -267 -755 -252 -1165 15 -389 96 -704 272 -1050 351 -689
1028 -1186 1790 -1314 417 -71 871 -31 1252 109 346 128 653 324 913 585 394
393 634 881 711 1440 17 124 17 496 0 620 -100 726 -486 1348 -1089 1754 -129
86 -383 215 -535 271 -320 117 -733 169 -1072 134z m426 -479 c703 -70 1312
-498 1616 -1137 153 -322 218 -692 183 -1044 -97 -956 -843 -1702 -1799 -1799
-822 -82 -1619 365 -1986 1115 -492 1003 -65 2206 953 2687 315 149 684 212
1033 178z"/>
<path d="M2425 3586 c-153 -36 -254 -94 -361 -209 -120 -129 -177 -273 -177
-452 0 -118 19 -199 70 -303 44 -89 146 -202 238 -262 66 -43 210 -100 255
-100 34 0 70 -11 70 -20 0 -17 -169 -185 -251 -250 -50 -39 -99 -86 -109 -103
-112 -184 60 -414 266 -357 87 25 303 206 426 359 181 224 290 448 354 726 26
111 27 382 1 475 -80 296 -324 495 -622 506 -63 2 -122 -1 -160 -10z m221
-491 c189 -95 109 -380 -101 -363 -246 21 -232 381 16 387 19 1 57 -10 85 -24z"/>
</g>
</svg>
