<?xml version="1.0" encoding="UTF-8"?>
<!DOCTYPE svg PUBLIC "-//W3C//DTD SVG 1.1//EN" "http://www.w3.org/Graphics/SVG/1.1/DTD/svg11.dtd">
<svg xmlns="http://www.w3.org/2000/svg" version="1.1" width="512px" height="512px" style="shape-rendering:geometricPrecision; text-rendering:geometricPrecision; image-rendering:optimizeQuality; fill-rule:evenodd; clip-rule:evenodd" xmlns:xlink="http://www.w3.org/1999/xlink">
<g><path style="opacity:0.957" fill="#000000" d="M 59.5,4.5 C 132.834,4.33334 206.167,4.5 279.5,5C 306.669,10.5012 323.836,26.6679 331,53.5C 332.461,96.1367 332.961,138.803 332.5,181.5C 374.206,181.028 415.873,181.528 457.5,183C 484.509,191.343 500.009,209.509 504,237.5C 504.667,286.167 504.667,334.833 504,383.5C 497.21,420.459 475.043,439.125 437.5,439.5C 437.938,455.557 437.438,471.557 436,487.5C 429.17,502.167 417.67,508.334 401.5,506C 397.462,505.101 393.795,503.434 390.5,501C 370.167,480.667 349.833,460.333 329.5,440C 296.5,439.667 263.5,439.333 230.5,439C 203.884,433.051 187.05,416.884 180,390.5C 178.701,349.199 178.034,307.866 178,266.5C 158.833,285.667 139.667,304.833 120.5,324C 108.512,331.332 96.5125,331.332 84.5,324C 79.9804,320.464 76.8137,315.964 75,310.5C 73.5631,294.891 73.0631,279.224 73.5,263.5C 36.0415,262.201 13.8748,243.201 7,206.5C 6.33333,157.833 6.33333,109.167 7,60.5C 12.0225,29.9816 29.5225,11.3149 59.5,4.5 Z M 62.5,29.5 C 133.834,29.3333 205.167,29.5 276.5,30C 293.555,34.3881 303.722,45.2214 307,62.5C 307.667,109.833 307.667,157.167 307,204.5C 303.172,224.162 291.339,235.329 271.5,238C 238.167,238.333 204.833,238.667 171.5,239C 149.167,260.667 126.833,282.333 104.5,304C 102.299,304.825 100.466,304.325 99,302.5C 98.6667,283.833 98.3333,265.167 98,246.5C 96.8333,242.667 94.3333,240.167 90.5,239C 80.4631,238.796 70.4631,238.129 60.5,237C 44.4095,232.008 34.9095,221.174 32,204.5C 31.3333,157.167 31.3333,109.833 32,62.5C 35.4641,45.206 45.6307,34.206 62.5,29.5 Z M 331.5,206.5 C 370.835,206.333 410.168,206.5 449.5,207C 463.921,211.088 473.421,220.254 478,234.5C 479.143,259.794 479.643,285.127 479.5,310.5C 479.643,335.873 479.143,361.206 478,386.5C 473.421,400.746 463.921,409.912 449.5,414C 440.833,414.333 432.167,414.667 423.5,415C 418.217,415.615 414.717,418.449 413,423.5C 412.667,442.167 412.333,460.833 412,479.5C 410.534,481.325 408.701,481.825 406.5,481C 384.775,458.607 362.442,436.94 339.5,416C 304.227,414.686 268.893,414.02 233.5,414C 217.002,409.171 207.169,398.338 204,381.5C 203.5,342.168 203.333,302.835 203.5,263.5C 225.836,263.667 248.169,263.5 270.5,263C 297.795,261.607 316.962,248.44 328,223.5C 330.128,218.025 331.295,212.358 331.5,206.5 Z"/></g>
<g><path style="opacity:0.942" fill="#000000" d="M 158.5,67.5 C 175.772,64.8704 190.605,69.537 203,81.5C 211.052,95.7715 210.052,109.438 200,122.5C 192.527,129.061 185.527,136.061 179,143.5C 177.675,149.432 176.675,155.432 176,161.5C 173.185,164.496 169.685,165.829 165.5,165.5C 160.532,165.936 157.032,163.936 155,159.5C 153.166,148.672 155.166,138.672 161,129.5C 168.356,123.143 175.356,116.476 182,109.5C 185.807,96.4921 180.807,89.8255 167,89.5C 157.772,90.0609 151.272,94.5609 147.5,103C 137.692,106.52 132.025,103.187 130.5,93C 130.956,85.4228 134.289,79.4228 140.5,75C 146.24,71.6227 152.24,69.1227 158.5,67.5 Z"/></g>
<g><path style="opacity:0.91" fill="#000000" d="M 162.5,173.5 C 174.651,173.485 179.818,179.485 178,191.5C 175.586,196.802 171.419,199.802 165.5,200.5C 153.295,197.402 149.795,190.068 155,178.5C 157.17,176.177 159.67,174.51 162.5,173.5 Z"/></g>
<g><path style="opacity:0.935" fill="#000000" d="M 262.5,292.5 C 278.108,291.608 285.608,298.942 285,314.5C 281.328,326.09 273.495,330.59 261.5,328C 249.964,322.396 246.464,313.563 251,301.5C 254.045,297.406 257.878,294.406 262.5,292.5 Z"/></g>
<g><path style="opacity:0.942" fill="#000000" d="M 336.5,292.5 C 347.599,290.794 355.099,295.128 359,305.5C 361.199,316.606 357.032,324.106 346.5,328C 335.394,330.199 327.894,326.032 324,315.5C 321.928,304.303 326.095,296.637 336.5,292.5 Z"/></g>
<g><path style="opacity:0.938" fill="#000000" d="M 410.5,292.5 C 429.566,291.951 436.733,300.951 432,319.5C 425.052,328.842 416.219,331.009 405.5,326C 396.86,318.378 395.36,309.544 401,299.5C 403.825,296.524 406.992,294.191 410.5,292.5 Z"/></g>
</svg>
