<?xml version="1.0" encoding="UTF-8"?>
<!DOCTYPE svg PUBLIC "-//W3C//DTD SVG 1.1//EN" "http://www.w3.org/Graphics/SVG/1.1/DTD/svg11.dtd">
<svg xmlns="http://www.w3.org/2000/svg" version="1.1" width="512px" height="512px" style="shape-rendering:geometricPrecision; text-rendering:geometricPrecision; image-rendering:optimizeQuality; fill-rule:evenodd; clip-rule:evenodd" xmlns:xlink="http://www.w3.org/1999/xlink">
<g><path style="opacity:0.972" fill="#1b3b69" d="M 85.5,16.5 C 193.501,16.3333 301.501,16.5 409.5,17C 431.82,20.9863 446.32,33.8197 453,55.5C 454.644,106.796 454.977,158.129 454,209.5C 448.705,219.723 440.872,222.223 430.5,217C 427.75,214.33 425.917,211.164 425,207.5C 424.667,159.167 424.333,110.833 424,62.5C 421.401,54.2343 415.901,49.0677 407.5,47C 300.5,46.3333 193.5,46.3333 86.5,47C 77.8946,49.9379 72.3946,55.7712 70,64.5C 69.0071,193.209 69.3404,321.876 71,450.5C 74.3141,457.149 79.4808,461.649 86.5,464C 120.227,464.021 153.894,464.687 187.5,466C 196.198,472.392 197.698,480.225 192,489.5C 189.749,491.377 187.249,492.877 184.5,494C 151.5,494.667 118.5,494.667 85.5,494C 61.7681,490.268 46.9348,476.768 41,453.5C 39.3456,323.859 39.0123,194.192 40,64.5C 43.7764,37.56 58.943,21.56 85.5,16.5 Z"/></g>
<g><path style="opacity:0.99" fill="#1b3a69" d="M 138.5,104.5 C 211.167,104.333 283.834,104.5 356.5,105C 365.985,110.089 368.485,117.589 364,127.5C 362.062,130.106 359.562,131.939 356.5,133C 283.5,133.667 210.5,133.667 137.5,133C 131.24,130.489 128.24,125.822 128.5,119C 128.913,112.097 132.246,107.264 138.5,104.5 Z"/></g>
<g><path style="opacity:0.972" fill="#1a3a69" d="M 138.5,185.5 C 210.834,185.333 283.167,185.5 355.5,186C 362.396,188.258 366.063,193.092 366.5,200.5C 365.486,208.345 361.153,213.179 353.5,215C 282.5,215.667 211.5,215.667 140.5,215C 128.673,210.831 125.507,202.997 131,191.5C 133.114,188.879 135.614,186.879 138.5,185.5 Z"/></g>
<g><path style="opacity:0.98" fill="#1b3a69" d="M 416.5,253.5 C 439.859,254.592 456.693,265.592 467,286.5C 474.096,306.063 471.763,324.397 460,341.5C 413.167,388.333 366.333,435.167 319.5,482C 315.469,484.455 311.136,486.121 306.5,487C 290.865,489.717 275.198,492.217 259.5,494.5C 242.171,492.505 232.505,482.838 230.5,465.5C 233.117,448.464 235.95,431.464 239,414.5C 240.139,410.888 241.806,407.554 244,404.5C 290.167,358.333 336.333,312.167 382.5,266C 392.566,258.158 403.899,253.992 416.5,253.5 Z M 413.5,283.5 C 429.985,283.566 439.318,291.733 441.5,308C 441.09,314.237 438.923,319.737 435,324.5C 429.333,330.167 423.667,335.833 418,341.5C 406.5,330 395,318.5 383.5,307C 388.833,301.667 394.167,296.333 399.5,291C 403.826,287.673 408.492,285.173 413.5,283.5 Z M 361.5,328.5 C 373.298,339.798 384.965,351.298 396.5,363C 365.167,394.333 333.833,425.667 302.5,457C 288.567,460.379 274.567,462.546 260.5,463.5C 262.998,449.845 265.498,436.179 268,422.5C 299.368,391.299 330.535,359.965 361.5,328.5 Z"/></g>
<g><path style="opacity:0.961" fill="#1b3b69" d="M 139.5,266.5 C 176.835,266.333 214.168,266.5 251.5,267C 260.608,270.379 264.108,276.879 262,286.5C 260.073,291.428 256.573,294.594 251.5,296C 214.167,296.667 176.833,296.667 139.5,296C 128.398,291.277 125.564,283.444 131,272.5C 133.322,269.605 136.155,267.605 139.5,266.5 Z"/></g>
</svg>
