<svg xmlns="http://www.w3.org/2000/svg" xmlns:xlink="http://www.w3.org/1999/xlink" width="2000" zoomAndPan="magnify" viewBox="0 0 1500 1124.99995" height="1500" preserveAspectRatio="xMidYMid meet" version="1.0"><defs><g/><clipPath id="a1eb7cfbc5"><path d="M 751 685 L 819 685 L 819 727 L 751 727 Z M 751 685 " clip-rule="nonzero"/></clipPath><clipPath id="9e2b0389e0"><path d="M 745.210938 708.953125 L 757.480469 667.226562 L 818.164062 685.074219 L 805.890625 726.800781 Z M 745.210938 708.953125 " clip-rule="nonzero"/></clipPath><clipPath id="7ead910f15"><path d="M 751.347656 688.089844 L 818.164062 685.074219 L 805.890625 726.800781 Z M 751.347656 688.089844 " clip-rule="nonzero"/></clipPath><clipPath id="3b3f74d0ac"><path d="M 507.648438 444.171875 L 983.148438 444.171875 L 983.148438 919.671875 L 507.648438 919.671875 Z M 507.648438 444.171875 " clip-rule="nonzero"/></clipPath><clipPath id="66d36d34ad"><path d="M 745.398438 444.171875 C 614.09375 444.171875 507.648438 550.617188 507.648438 681.921875 C 507.648438 813.226562 614.09375 919.671875 745.398438 919.671875 C 876.703125 919.671875 983.148438 813.226562 983.148438 681.921875 C 983.148438 550.617188 876.703125 444.171875 745.398438 444.171875 Z M 745.398438 444.171875 " clip-rule="nonzero"/></clipPath><clipPath id="257a4cd724"><path d="M 750 645 L 817 645 L 817 683 L 750 683 Z M 750 645 " clip-rule="nonzero"/></clipPath><clipPath id="014904e718"><path d="M 755.867188 699.613281 L 745.300781 663.03125 L 806.070312 645.476562 L 816.636719 682.058594 Z M 755.867188 699.613281 " clip-rule="nonzero"/></clipPath><clipPath id="34d37fecc4"><path d="M 750.585938 681.324219 L 806.070312 645.476562 L 816.636719 682.058594 Z M 750.585938 681.324219 " clip-rule="nonzero"/></clipPath><clipPath id="2acfbcfad1"><path d="M 971.574219 840.046875 L 994.324219 840.046875 L 994.324219 862.792969 L 971.574219 862.792969 Z M 971.574219 840.046875 " clip-rule="nonzero"/></clipPath><clipPath id="7b7b882bc0"><path d="M 982.949219 840.046875 C 976.667969 840.046875 971.574219 845.136719 971.574219 851.421875 C 971.574219 857.703125 976.667969 862.792969 982.949219 862.792969 C 989.230469 862.792969 994.324219 857.703125 994.324219 851.421875 C 994.324219 845.136719 989.230469 840.046875 982.949219 840.046875 Z M 982.949219 840.046875 " clip-rule="nonzero"/></clipPath><clipPath id="2456fd4939"><path d="M 971.574219 524.742188 L 994.324219 524.742188 L 994.324219 547.492188 L 971.574219 547.492188 Z M 971.574219 524.742188 " clip-rule="nonzero"/></clipPath><clipPath id="fb5d1d3828"><path d="M 982.949219 524.742188 C 976.667969 524.742188 971.574219 529.835938 971.574219 536.117188 C 971.574219 542.398438 976.667969 547.492188 982.949219 547.492188 C 989.230469 547.492188 994.324219 542.398438 994.324219 536.117188 C 994.324219 529.835938 989.230469 524.742188 982.949219 524.742188 Z M 982.949219 524.742188 " clip-rule="nonzero"/></clipPath></defs><rect x="-150" width="1800" fill="#ffffff" y="-112.499995" height="1349.99994" fill-opacity="1"/><rect x="-150" width="1800" fill="#ffffff" y="-112.499995" height="1349.99994" fill-opacity="1"/><g clip-path="url(#a1eb7cfbc5)"><g clip-path="url(#9e2b0389e0)"><g clip-path="url(#7ead910f15)"><path fill="#00ff4e" d="M 745.210938 708.953125 L 757.480469 667.226562 L 818.164062 685.074219 L 805.890625 726.800781 Z M 745.210938 708.953125 " fill-opacity="1" fill-rule="nonzero"/></g></g></g><path stroke-linecap="round" transform="matrix(0.750075, 0, 0, 0.75, 259.723986, 681.822929)" fill="none" stroke-linejoin="miter" d="M 4.997729 5.00172 L 1403.358506 5.00172 " stroke="#000000" stroke-width="10" stroke-opacity="1" stroke-miterlimit="4"/><path stroke-linecap="round" transform="matrix(0.750075, 0, 0, 0.75, 259.723986, 681.822929)" fill="none" stroke-linejoin="round" d="M 1385.860248 -9.998282 L 1405.858257 5.00172 L 1385.860248 20.001721 " stroke="#000000" stroke-width="10" stroke-opacity="1" stroke-miterlimit="4"/><path stroke-linecap="round" transform="matrix(-0.00312497, -0.749993, 0.749993, -0.00312497, 743.420585, 1012.496149)" fill="none" stroke-linejoin="miter" d="M 5.00011 5.001764 L 1192.510549 5.001764 " stroke="#000000" stroke-width="10" stroke-opacity="1" stroke-miterlimit="4"/><path stroke-linecap="round" transform="matrix(-0.00312497, -0.749993, 0.749993, -0.00312497, 743.420585, 1012.496149)" fill="none" stroke-linejoin="round" d="M 1175.010395 -9.998368 L 1195.010571 5.001764 L 1175.010395 20.001896 " stroke="#000000" stroke-width="10" stroke-opacity="1" stroke-miterlimit="4"/><g clip-path="url(#3b3f74d0ac)"><g clip-path="url(#66d36d34ad)"><path stroke-linecap="butt" transform="matrix(0.750333, 0, 0, 0.750333, 507.649214, 444.17279)" fill="none" stroke-linejoin="miter" d="M 316.858368 -0.00121913 C 141.863101 -0.00121913 -0.00103437 141.862916 -0.00103437 316.858183 C -0.00103437 491.853451 141.863101 633.717586 316.858368 633.717586 C 491.853636 633.717586 633.717771 491.853451 633.717771 316.858183 C 633.717771 141.862916 491.853636 -0.00121913 316.858368 -0.00121913 Z M 316.858368 -0.00121913 " stroke="#222222" stroke-width="20" stroke-opacity="1" stroke-miterlimit="4"/></g></g><g fill="#1e76e9" fill-opacity="1"><g transform="translate(668.134776, 197.965461)"><g><path d="M -0.078125 -48.53125 L 17.5625 -48.53125 L 25.796875 -20.6875 C 26.191406 -19.226562 26.460938 -17.472656 26.609375 -15.421875 L 26.953125 -15.421875 C 27.171875 -17.390625 27.507812 -19.117188 27.96875 -20.609375 L 36.40625 -48.53125 L 53.5 -48.53125 L 34.3125 3.078125 C 31.851562 9.648438 28.832031 14.289062 25.25 17 C 21.664062 19.71875 16.988281 21.078125 11.21875 21.078125 C 8.988281 21.078125 6.707031 20.832031 4.375 20.34375 L 4.375 7.203125 C 5.882812 7.546875 7.609375 7.71875 9.546875 7.71875 C 11.035156 7.71875 12.335938 7.429688 13.453125 6.859375 C 14.566406 6.285156 15.535156 5.476562 16.359375 4.4375 C 17.191406 3.394531 18.078125 1.6875 19.015625 -0.6875 Z M -0.078125 -48.53125 "/></g></g></g><g fill="#1e76e9" fill-opacity="1"><g transform="translate(1226.489568, 752.712278)"><g><path d="M 16.0625 -24.765625 L 1.25 -48.53125 L 20.265625 -48.53125 L 27.625 -34.90625 L 35.171875 -48.53125 L 54.234375 -48.53125 L 39.03125 -24.765625 L 54.828125 0 L 35.8125 0 L 27.625 -14.734375 L 19.484375 0 L 0.421875 0 Z M 16.0625 -24.765625 "/></g></g></g><g fill="#1e76e9" fill-opacity="1"><g transform="translate(828.684802, 668.584577)"><g><path d="M 9.65625 0.375 C 7.132812 0.375 5.160156 -0.585938 3.734375 -2.515625 C 2.316406 -4.441406 1.609375 -7.101562 1.609375 -10.5 C 1.609375 -14 2.359375 -16.707031 3.859375 -18.625 C 5.367188 -20.550781 7.472656 -21.515625 10.171875 -21.515625 C 11.617188 -21.515625 12.800781 -21.257812 13.71875 -20.75 C 14.644531 -20.238281 15.398438 -19.441406 15.984375 -18.359375 L 16.28125 -18.359375 C 16.644531 -19.671875 17.082031 -20.625 17.59375 -21.21875 L 23.734375 -21.21875 C 23.253906 -19.90625 22.875 -18.460938 22.59375 -16.890625 C 22.3125 -15.316406 22.171875 -13.832031 22.171875 -12.4375 L 22.171875 -7.640625 C 22.171875 -6.128906 22.679688 -5.375 23.703125 -5.375 C 24.097656 -5.375 24.46875 -5.4375 24.8125 -5.5625 L 24.8125 -0.109375 C 24.601562 0.015625 24.148438 0.125 23.453125 0.21875 C 22.765625 0.320312 22.242188 0.375 21.890625 0.375 C 20.273438 0.375 19.035156 0.132812 18.171875 -0.34375 C 17.304688 -0.832031 16.601562 -1.632812 16.0625 -2.75 L 15.609375 -2.75 C 14.242188 -0.664062 12.257812 0.375 9.65625 0.375 Z M 12.15625 -5.296875 C 13.257812 -5.296875 14.070312 -5.664062 14.59375 -6.40625 C 15.113281 -7.15625 15.382812 -8.472656 15.40625 -10.359375 L 15.40625 -10.546875 C 15.40625 -12.398438 15.132812 -13.742188 14.59375 -14.578125 C 14.0625 -15.421875 13.222656 -15.84375 12.078125 -15.84375 C 11.078125 -15.84375 10.320312 -15.378906 9.8125 -14.453125 C 9.300781 -13.523438 9.046875 -12.195312 9.046875 -10.46875 C 9.046875 -7.019531 10.082031 -5.296875 12.15625 -5.296875 Z M 12.15625 -5.296875 "/></g></g></g><g clip-path="url(#257a4cd724)"><g clip-path="url(#014904e718)"><g clip-path="url(#34d37fecc4)"><path fill="#00ff4e" d="M 755.867188 699.613281 L 745.300781 663.03125 L 806.070312 645.476562 L 816.636719 682.058594 Z M 755.867188 699.613281 " fill-opacity="1" fill-rule="nonzero"/></g></g></g><path stroke-linecap="round" transform="matrix(0.63518, -0.399167, 0.399065, 0.635017, 748.586873, 678.149682)" fill="none" stroke-linejoin="miter" d="M 5.000248 4.998888 L 360.920391 5.001148 " stroke="#000000" stroke-width="10" stroke-opacity="1" stroke-miterlimit="4"/><path stroke-linecap="round" transform="matrix(0.615022, 0.429134, -0.429169, 0.615072, 750.733553, 686.247689)" fill="none" stroke-linejoin="miter" d="M 5.001384 4.999085 L 376.032117 5.000598 " stroke="#000000" stroke-width="10" stroke-opacity="1" stroke-miterlimit="4"/><g fill="#000000" fill-opacity="1"><g transform="translate(1002.671546, 622.86907)"><g><path d="M 13.265625 -5.5625 C 14.285156 -5.5625 15.5 -5.8125 16.90625 -6.3125 L 16.90625 -0.828125 C 15.894531 -0.390625 14.929688 -0.078125 14.015625 0.109375 C 13.097656 0.296875 12.023438 0.390625 10.796875 0.390625 C 8.265625 0.390625 6.441406 -0.226562 5.328125 -1.46875 C 4.210938 -2.707031 3.65625 -4.609375 3.65625 -7.171875 L 3.65625 -16.15625 L 1.015625 -16.15625 L 1.015625 -19.21875 L 4.359375 -21.578125 L 6.3125 -26.15625 L 11.234375 -26.15625 L 11.234375 -21.796875 L 16.578125 -21.796875 L 16.578125 -16.15625 L 11.234375 -16.15625 L 11.234375 -7.671875 C 11.234375 -6.265625 11.910156 -5.5625 13.265625 -5.5625 Z M 13.265625 -5.5625 "/></g></g></g><g fill="#000000" fill-opacity="1"><g transform="translate(1020.787896, 622.86907)"><g><path d="M 16.8125 0 L 15.375 -2.890625 L 15.21875 -2.890625 C 14.195312 -1.628906 13.160156 -0.765625 12.109375 -0.296875 C 11.066406 0.160156 9.710938 0.390625 8.046875 0.390625 C 5.992188 0.390625 4.375 -0.222656 3.1875 -1.453125 C 2.007812 -2.691406 1.421875 -4.425781 1.421875 -6.65625 C 1.421875 -8.976562 2.226562 -10.707031 3.84375 -11.84375 C 5.457031 -12.976562 7.796875 -13.613281 10.859375 -13.75 L 14.5 -13.875 L 14.5 -14.171875 C 14.5 -15.972656 13.613281 -16.875 11.84375 -16.875 C 10.257812 -16.875 8.242188 -16.332031 5.796875 -15.25 L 3.609375 -20.21875 C 6.148438 -21.519531 9.359375 -22.171875 13.234375 -22.171875 C 16.023438 -22.171875 18.1875 -21.476562 19.71875 -20.09375 C 21.25 -18.707031 22.015625 -16.773438 22.015625 -14.296875 L 22.015625 0 Z M 11.234375 -4.921875 C 12.140625 -4.921875 12.914062 -5.207031 13.5625 -5.78125 C 14.21875 -6.363281 14.546875 -7.117188 14.546875 -8.046875 L 14.546875 -9.734375 L 12.8125 -9.65625 C 10.332031 -9.5625 9.09375 -8.648438 9.09375 -6.921875 C 9.09375 -5.585938 9.804688 -4.921875 11.234375 -4.921875 Z M 11.234375 -4.921875 "/></g></g></g><g fill="#000000" fill-opacity="1"><g transform="translate(1045.327666, 622.86907)"><g><path d="M 16.34375 0 L 16.34375 -11.890625 C 16.34375 -13.335938 16.132812 -14.425781 15.71875 -15.15625 C 15.300781 -15.894531 14.632812 -16.265625 13.71875 -16.265625 C 12.445312 -16.265625 11.523438 -15.757812 10.953125 -14.75 C 10.390625 -13.738281 10.109375 -12.003906 10.109375 -9.546875 L 10.109375 0 L 2.59375 0 L 2.59375 -21.796875 L 8.265625 -21.796875 L 9.21875 -19.09375 L 9.65625 -19.09375 C 10.289062 -20.125 11.175781 -20.894531 12.3125 -21.40625 C 13.445312 -21.914062 14.753906 -22.171875 16.234375 -22.171875 C 18.640625 -22.171875 20.515625 -21.472656 21.859375 -20.078125 C 23.203125 -18.679688 23.875 -16.710938 23.875 -14.171875 L 23.875 0 Z M 16.34375 0 "/></g></g></g><g fill="#000000" fill-opacity="1"><g transform="translate(1071.713688, 622.86907)"><g><path d="M 1.421875 -11.1875 C 1.421875 -14.90625 1.875 -18.257812 2.78125 -21.25 C 3.695312 -24.238281 5.039062 -26.789062 6.8125 -28.90625 L 13.078125 -28.90625 C 11.460938 -26.664062 10.21875 -24.023438 9.34375 -20.984375 C 8.476562 -17.941406 8.046875 -14.691406 8.046875 -11.234375 C 8.046875 -7.890625 8.46875 -4.710938 9.3125 -1.703125 C 10.15625 1.304688 11.398438 3.953125 13.046875 6.234375 L 6.8125 6.234375 C 5.050781 4.203125 3.710938 1.710938 2.796875 -1.234375 C 1.878906 -4.179688 1.421875 -7.5 1.421875 -11.1875 Z M 9.484375 -28.5625 Z M 9.484375 -28.5625 "/></g></g></g><g fill="#1e76e9" fill-opacity="1"><g transform="translate(1085.851226, 622.86907)"><g><path d="M 9.921875 0.390625 C 7.335938 0.390625 5.3125 -0.597656 3.84375 -2.578125 C 2.382812 -4.566406 1.65625 -7.304688 1.65625 -10.796875 C 1.65625 -14.378906 2.425781 -17.15625 3.96875 -19.125 C 5.519531 -21.101562 7.675781 -22.09375 10.4375 -22.09375 C 11.925781 -22.09375 13.144531 -21.828125 14.09375 -21.296875 C 15.039062 -20.773438 15.816406 -19.96875 16.421875 -18.875 L 16.734375 -18.875 C 17.109375 -20.21875 17.554688 -21.191406 18.078125 -21.796875 L 24.390625 -21.796875 C 23.890625 -20.441406 23.492188 -18.957031 23.203125 -17.34375 C 22.910156 -15.726562 22.765625 -14.203125 22.765625 -12.765625 L 22.765625 -7.84375 C 22.765625 -6.289062 23.289062 -5.515625 24.34375 -5.515625 C 24.757812 -5.515625 25.140625 -5.582031 25.484375 -5.71875 L 25.484375 -0.109375 C 25.273438 0.015625 24.816406 0.128906 24.109375 0.234375 C 23.398438 0.335938 22.859375 0.390625 22.484375 0.390625 C 20.828125 0.390625 19.550781 0.140625 18.65625 -0.359375 C 17.769531 -0.859375 17.050781 -1.679688 16.5 -2.828125 L 16.046875 -2.828125 C 14.628906 -0.679688 12.585938 0.390625 9.921875 0.390625 Z M 12.484375 -5.4375 C 13.617188 -5.4375 14.453125 -5.816406 14.984375 -6.578125 C 15.523438 -7.347656 15.804688 -8.703125 15.828125 -10.640625 L 15.828125 -10.828125 C 15.828125 -12.734375 15.550781 -14.113281 15 -14.96875 C 14.445312 -15.832031 13.582031 -16.265625 12.40625 -16.265625 C 11.375 -16.265625 10.597656 -15.789062 10.078125 -14.84375 C 9.554688 -13.894531 9.296875 -12.53125 9.296875 -10.75 C 9.296875 -7.207031 10.359375 -5.4375 12.484375 -5.4375 Z M 12.484375 -5.4375 "/></g></g></g><g fill="#000000" fill-opacity="1"><g transform="translate(1112.32388, 622.86907)"><g><path d="M 12.734375 -11.1875 C 12.734375 -7.5625 12.273438 -4.265625 11.359375 -1.296875 C 10.441406 1.671875 9.097656 4.179688 7.328125 6.234375 L 1.09375 6.234375 C 2.707031 4.023438 3.941406 1.40625 4.796875 -1.625 C 5.660156 -4.65625 6.09375 -7.859375 6.09375 -11.234375 C 6.09375 -14.628906 5.671875 -17.84375 4.828125 -20.875 C 3.984375 -23.90625 2.726562 -26.582031 1.0625 -28.90625 L 7.328125 -28.90625 C 9.109375 -26.78125 10.453125 -24.203125 11.359375 -21.171875 C 12.273438 -18.148438 12.734375 -14.820312 12.734375 -11.1875 Z M 4.75 -28.5625 Z M 4.75 -28.5625 "/></g></g></g><g fill="#000000" fill-opacity="1"><g transform="translate(1002.507595, 786.198214)"><g><path d="M 13.28125 -5.5625 C 14.289062 -5.5625 15.503906 -5.8125 16.921875 -6.3125 L 16.921875 -0.828125 C 15.910156 -0.390625 14.941406 -0.078125 14.015625 0.109375 C 13.097656 0.296875 12.023438 0.390625 10.796875 0.390625 C 8.265625 0.390625 6.441406 -0.226562 5.328125 -1.46875 C 4.210938 -2.707031 3.65625 -4.613281 3.65625 -7.1875 L 3.65625 -16.171875 L 1.015625 -16.171875 L 1.015625 -19.234375 L 4.375 -21.59375 L 6.3125 -26.171875 L 11.234375 -26.171875 L 11.234375 -21.8125 L 16.59375 -21.8125 L 16.59375 -16.171875 L 11.234375 -16.171875 L 11.234375 -7.6875 C 11.234375 -6.269531 11.914062 -5.5625 13.28125 -5.5625 Z M 13.28125 -5.5625 "/></g></g></g><g fill="#000000" fill-opacity="1"><g transform="translate(1020.639791, 786.198214)"><g><path d="M 16.828125 0 L 15.375 -2.890625 L 15.21875 -2.890625 C 14.207031 -1.628906 13.175781 -0.765625 12.125 -0.296875 C 11.070312 0.160156 9.710938 0.390625 8.046875 0.390625 C 5.992188 0.390625 4.375 -0.222656 3.1875 -1.453125 C 2.007812 -2.691406 1.421875 -4.425781 1.421875 -6.65625 C 1.421875 -8.976562 2.226562 -10.707031 3.84375 -11.84375 C 5.46875 -12.976562 7.8125 -13.617188 10.875 -13.765625 L 14.515625 -13.875 L 14.515625 -14.1875 C 14.515625 -15.976562 13.628906 -16.875 11.859375 -16.875 C 10.265625 -16.875 8.242188 -16.335938 5.796875 -15.265625 L 3.625 -20.234375 C 6.164062 -21.535156 9.375 -22.1875 13.25 -22.1875 C 16.039062 -22.1875 18.203125 -21.492188 19.734375 -20.109375 C 21.273438 -18.722656 22.046875 -16.785156 22.046875 -14.296875 L 22.046875 0 Z M 11.234375 -4.921875 C 12.148438 -4.921875 12.929688 -5.207031 13.578125 -5.78125 C 14.222656 -6.363281 14.546875 -7.117188 14.546875 -8.046875 L 14.546875 -9.734375 L 12.8125 -9.65625 C 10.34375 -9.570312 9.109375 -8.660156 9.109375 -6.921875 C 9.109375 -5.585938 9.816406 -4.921875 11.234375 -4.921875 Z M 11.234375 -4.921875 "/></g></g></g><g fill="#000000" fill-opacity="1"><g transform="translate(1045.201026, 786.198214)"><g><path d="M 16.359375 0 L 16.359375 -11.890625 C 16.359375 -13.347656 16.148438 -14.441406 15.734375 -15.171875 C 15.316406 -15.910156 14.644531 -16.28125 13.71875 -16.28125 C 12.445312 -16.28125 11.53125 -15.773438 10.96875 -14.765625 C 10.40625 -13.753906 10.125 -12.015625 10.125 -9.546875 L 10.125 0 L 2.59375 0 L 2.59375 -21.8125 L 8.28125 -21.8125 L 9.21875 -19.109375 L 9.65625 -19.109375 C 10.300781 -20.140625 11.191406 -20.910156 12.328125 -21.421875 C 13.460938 -21.929688 14.769531 -22.1875 16.25 -22.1875 C 18.65625 -22.1875 20.53125 -21.488281 21.875 -20.09375 C 23.21875 -18.695312 23.890625 -16.726562 23.890625 -14.1875 L 23.890625 0 Z M 16.359375 0 "/></g></g></g><g fill="#000000" fill-opacity="1"><g transform="translate(1071.610127, 786.198214)"><g><path d="M 1.421875 -11.203125 C 1.421875 -14.921875 1.875 -18.273438 2.78125 -21.265625 C 3.695312 -24.253906 5.039062 -26.8125 6.8125 -28.9375 L 13.09375 -28.9375 C 11.46875 -26.6875 10.21875 -24.039062 9.34375 -21 C 8.476562 -17.957031 8.046875 -14.703125 8.046875 -11.234375 C 8.046875 -7.890625 8.46875 -4.710938 9.3125 -1.703125 C 10.164062 1.304688 11.410156 3.953125 13.046875 6.234375 L 6.8125 6.234375 C 5.050781 4.210938 3.710938 1.726562 2.796875 -1.21875 C 1.878906 -4.175781 1.421875 -7.503906 1.421875 -11.203125 Z M 9.484375 -28.578125 Z M 9.484375 -28.578125 "/></g></g></g><g fill="#cc0829" fill-opacity="1"><g transform="translate(1085.760687, 786.198214)"><g><path d="M 0.828125 -7.5625 L 0.828125 -13.578125 L 11.703125 -13.578125 L 11.703125 -7.5625 Z M 0.828125 -7.5625 "/></g></g></g><g fill="#cc0829" fill-opacity="1"><g transform="translate(1098.291543, 786.198214)"><g><path d="M 9.9375 0.390625 C 7.34375 0.390625 5.3125 -0.597656 3.84375 -2.578125 C 2.382812 -4.566406 1.65625 -7.304688 1.65625 -10.796875 C 1.65625 -14.390625 2.425781 -17.171875 3.96875 -19.140625 C 5.519531 -21.117188 7.679688 -22.109375 10.453125 -22.109375 C 11.941406 -22.109375 13.160156 -21.84375 14.109375 -21.3125 C 15.054688 -20.789062 15.832031 -19.984375 16.4375 -18.890625 L 16.75 -18.890625 C 17.125 -20.234375 17.570312 -21.207031 18.09375 -21.8125 L 24.40625 -21.8125 C 23.90625 -20.457031 23.507812 -18.972656 23.21875 -17.359375 C 22.9375 -15.742188 22.796875 -14.21875 22.796875 -12.78125 L 22.796875 -7.859375 C 22.796875 -6.304688 23.320312 -5.53125 24.375 -5.53125 C 24.78125 -5.53125 25.15625 -5.59375 25.5 -5.71875 L 25.5 -0.109375 C 25.300781 0.015625 24.84375 0.128906 24.125 0.234375 C 23.414062 0.335938 22.875 0.390625 22.5 0.390625 C 20.84375 0.390625 19.566406 0.140625 18.671875 -0.359375 C 17.785156 -0.859375 17.066406 -1.679688 16.515625 -2.828125 L 16.046875 -2.828125 C 14.640625 -0.679688 12.601562 0.390625 9.9375 0.390625 Z M 12.5 -5.453125 C 13.632812 -5.453125 14.46875 -5.832031 15 -6.59375 C 15.53125 -7.351562 15.8125 -8.703125 15.84375 -10.640625 L 15.84375 -10.84375 C 15.84375 -12.75 15.566406 -14.128906 15.015625 -14.984375 C 14.460938 -15.847656 13.597656 -16.28125 12.421875 -16.28125 C 11.390625 -16.28125 10.609375 -15.804688 10.078125 -14.859375 C 9.554688 -13.910156 9.296875 -12.546875 9.296875 -10.765625 C 9.296875 -7.222656 10.363281 -5.453125 12.5 -5.453125 Z M 12.5 -5.453125 "/></g></g></g><g fill="#000000" fill-opacity="1"><g transform="translate(1124.790108, 786.198214)"><g><path d="M 12.75 -11.203125 C 12.75 -7.566406 12.285156 -4.265625 11.359375 -1.296875 C 10.441406 1.671875 9.097656 4.179688 7.328125 6.234375 L 1.09375 6.234375 C 2.707031 4.023438 3.945312 1.40625 4.8125 -1.625 C 5.675781 -4.65625 6.109375 -7.859375 6.109375 -11.234375 C 6.109375 -14.640625 5.679688 -17.859375 4.828125 -20.890625 C 3.984375 -23.929688 2.726562 -26.613281 1.0625 -28.9375 L 7.328125 -28.9375 C 9.117188 -26.800781 10.46875 -24.21875 11.375 -21.1875 C 12.289062 -18.164062 12.75 -14.835938 12.75 -11.203125 Z M 4.75 -28.578125 Z M 4.75 -28.578125 "/></g></g></g><g fill="#cc0829" fill-opacity="1"><g transform="translate(816.584795, 722.959685)"><g><path d="M 0.796875 -7.34375 L 0.796875 -13.171875 L 11.359375 -13.171875 L 11.359375 -7.34375 Z M 0.796875 -7.34375 "/></g></g></g><g fill="#cc0829" fill-opacity="1"><g transform="translate(828.741228, 722.959685)"><g><path d="M 9.640625 0.375 C 7.117188 0.375 5.148438 -0.582031 3.734375 -2.5 C 2.316406 -4.425781 1.609375 -7.085938 1.609375 -10.484375 C 1.609375 -13.960938 2.359375 -16.660156 3.859375 -18.578125 C 5.359375 -20.492188 7.453125 -21.453125 10.140625 -21.453125 C 11.585938 -21.453125 12.769531 -21.195312 13.6875 -20.6875 C 14.613281 -20.175781 15.367188 -19.390625 15.953125 -18.328125 L 16.25 -18.328125 C 16.613281 -19.628906 17.050781 -20.570312 17.5625 -21.15625 L 23.6875 -21.15625 C 23.195312 -19.851562 22.8125 -18.414062 22.53125 -16.84375 C 22.25 -15.28125 22.109375 -13.800781 22.109375 -12.40625 L 22.109375 -7.625 C 22.109375 -6.113281 22.617188 -5.359375 23.640625 -5.359375 C 24.046875 -5.359375 24.414062 -5.421875 24.75 -5.546875 L 24.75 -0.109375 C 24.550781 0.015625 24.101562 0.125 23.40625 0.21875 C 22.71875 0.320312 22.191406 0.375 21.828125 0.375 C 20.222656 0.375 18.988281 0.132812 18.125 -0.34375 C 17.257812 -0.832031 16.5625 -1.632812 16.03125 -2.75 L 15.578125 -2.75 C 14.203125 -0.664062 12.222656 0.375 9.640625 0.375 Z M 12.125 -5.28125 C 13.226562 -5.28125 14.035156 -5.648438 14.546875 -6.390625 C 15.066406 -7.140625 15.34375 -8.453125 15.375 -10.328125 L 15.375 -10.515625 C 15.375 -12.367188 15.101562 -13.710938 14.5625 -14.546875 C 14.03125 -15.378906 13.191406 -15.796875 12.046875 -15.796875 C 11.046875 -15.796875 10.289062 -15.332031 9.78125 -14.40625 C 9.269531 -13.488281 9.015625 -12.164062 9.015625 -10.4375 C 9.015625 -7 10.050781 -5.28125 12.125 -5.28125 Z M 12.125 -5.28125 "/></g></g></g><path stroke-linecap="round" transform="matrix(0, 0.75016, -0.75, 0, 986.697596, 261.756519)" fill="none" stroke-linejoin="miter" d="M 5.000661 4.997837 L 949.804927 4.997837 " stroke="#000000" stroke-width="10" stroke-opacity="1" stroke-miterlimit="4"/><g clip-path="url(#2acfbcfad1)"><g clip-path="url(#7b7b882bc0)"><path fill="#cc0829" d="M 971.574219 840.046875 L 994.324219 840.046875 L 994.324219 862.792969 L 971.574219 862.792969 Z M 971.574219 840.046875 " fill-opacity="1" fill-rule="nonzero"/></g></g><g clip-path="url(#2456fd4939)"><g clip-path="url(#fb5d1d3828)"><path fill="#1e76e9" d="M 971.574219 524.742188 L 994.324219 524.742188 L 994.324219 547.492188 L 971.574219 547.492188 Z M 971.574219 524.742188 " fill-opacity="1" fill-rule="nonzero"/></g></g></svg>