<svg xmlns="http://www.w3.org/2000/svg" xmlns:xlink="http://www.w3.org/1999/xlink" width="2000" zoomAndPan="magnify" viewBox="0 0 1500 1124.99995" height="1500" preserveAspectRatio="xMidYMid meet" version="1.0"><defs><g/><clipPath id="652ac81956"><path d="M 746.40625 603.714844 L 779.207031 603.714844 L 779.207031 636.515625 L 746.40625 636.515625 Z M 746.40625 603.714844 " clip-rule="nonzero"/></clipPath><clipPath id="bfbcd5401f"><path d="M 762.808594 603.714844 C 753.75 603.714844 746.40625 611.054688 746.40625 620.113281 C 746.40625 629.171875 753.75 636.515625 762.808594 636.515625 C 771.867188 636.515625 779.207031 629.171875 779.207031 620.113281 C 779.207031 611.054688 771.867188 603.714844 762.808594 603.714844 Z M 762.808594 603.714844 " clip-rule="nonzero"/></clipPath><clipPath id="a397cbc71e"><path d="M 513.1875 684.511719 L 545.992188 684.511719 L 545.992188 717.316406 L 513.1875 717.316406 Z M 513.1875 684.511719 " clip-rule="nonzero"/></clipPath><clipPath id="fd29c4ea08"><path d="M 529.589844 684.511719 C 520.53125 684.511719 513.1875 691.855469 513.1875 700.914062 C 513.1875 709.972656 520.53125 717.316406 529.589844 717.316406 C 538.648438 717.316406 545.992188 709.972656 545.992188 700.914062 C 545.992188 691.855469 538.648438 684.511719 529.589844 684.511719 Z M 529.589844 684.511719 " clip-rule="nonzero"/></clipPath><clipPath id="5c8270fbca"><path d="M 773.394531 441.738281 L 806.195312 441.738281 L 806.195312 474.542969 L 773.394531 474.542969 Z M 773.394531 441.738281 " clip-rule="nonzero"/></clipPath><clipPath id="25ef3d427b"><path d="M 789.796875 441.738281 C 780.738281 441.738281 773.394531 449.082031 773.394531 458.140625 C 773.394531 467.199219 780.738281 474.542969 789.796875 474.542969 C 798.851562 474.542969 806.195312 467.199219 806.195312 458.140625 C 806.195312 449.082031 798.851562 441.738281 789.796875 441.738281 Z M 789.796875 441.738281 " clip-rule="nonzero"/></clipPath><clipPath id="c21dd8c327"><path d="M 967.960938 682.871094 L 1000.765625 682.871094 L 1000.765625 715.675781 L 967.960938 715.675781 Z M 967.960938 682.871094 " clip-rule="nonzero"/></clipPath><clipPath id="f33c0870d7"><path d="M 984.363281 682.871094 C 975.304688 682.871094 967.960938 690.214844 967.960938 699.273438 C 967.960938 708.332031 975.304688 715.675781 984.363281 715.675781 C 993.421875 715.675781 1000.765625 708.332031 1000.765625 699.273438 C 1000.765625 690.214844 993.421875 682.871094 984.363281 682.871094 Z M 984.363281 682.871094 " clip-rule="nonzero"/></clipPath></defs><rect x="-150" width="1800" fill="#ffffff" y="-112.499995" height="1349.99994" fill-opacity="1"/><rect x="-150" width="1800" fill="#ffffff" y="-112.499995" height="1349.99994" fill-opacity="1"/><path stroke-linecap="round" transform="matrix(0.120572, -0.740245, 0.740245, 0.120572, 728.115787, 792.902264)" fill="none" stroke-linejoin="miter" d="M 9.001339 8.999971 L 678.068691 9.001017 " stroke="#1e76e9" stroke-width="18" stroke-opacity="1" stroke-miterlimit="4"/><path stroke-linecap="round" transform="matrix(0.70948, -0.243182, 0.243182, 0.70948, 254.134348, 787.602104)" fill="none" stroke-linejoin="miter" d="M 8.999215 8.997032 L 1075.342593 9.001252 " stroke="#1e76e9" stroke-width="18" stroke-opacity="1" stroke-miterlimit="4"/><path stroke-linecap="round" transform="matrix(0.706044, 0.252984, -0.252984, 0.706044, 539.195675, 532.149438)" fill="none" stroke-linejoin="miter" d="M 9.000526 9.000595 L 997.369472 9.00225 " stroke="#1e76e9" stroke-width="18" stroke-opacity="1" stroke-miterlimit="4"/><path stroke-linecap="round" transform="matrix(0.561304, -0.497431, 0.497431, 0.561304, 245.155486, 788.046248)" fill="none" stroke-linejoin="miter" d="M 8.999497 8.999545 L 1014.639919 8.997519 " stroke="#000000" stroke-width="18" stroke-opacity="1" stroke-miterlimit="4"/><path stroke-linecap="round" transform="matrix(-0.48617, -0.571086, 0.571086, -0.48617, 1247.39851, 801.846367)" fill="none" stroke-linejoin="miter" d="M 8.997889 9.000498 L 882.62256 8.999678 " stroke="#000000" stroke-width="18" stroke-opacity="1" stroke-miterlimit="4"/><path stroke-linecap="round" transform="matrix(-0.75, 0, 0, -0.75, 1252.534605, 799.848199)" fill="none" stroke-linejoin="miter" d="M 8.999266 9.000725 L 1328.21813 9.000725 " stroke="#000000" stroke-width="18" stroke-opacity="1" stroke-miterlimit="4"/><g clip-path="url(#652ac81956)"><g clip-path="url(#bfbcd5401f)"><path fill="#cc0829" d="M 746.40625 603.714844 L 779.207031 603.714844 L 779.207031 636.515625 L 746.40625 636.515625 Z M 746.40625 603.714844 " fill-opacity="1" fill-rule="nonzero"/></g></g><g fill="#000000" fill-opacity="1"><g transform="translate(789.795013, 257.315816)"><g><path d="M 42.4375 0 L 38.265625 -13.6875 L 17.3125 -13.6875 L 13.140625 0 L 0 0 L 20.296875 -57.734375 L 35.203125 -57.734375 L 55.578125 0 Z M 35.359375 -23.90625 C 31.503906 -36.3125 29.332031 -43.328125 28.84375 -44.953125 C 28.363281 -46.578125 28.019531 -47.863281 27.8125 -48.8125 C 26.945312 -45.457031 24.46875 -37.15625 20.375 -23.90625 Z M 35.359375 -23.90625 "/></g></g></g><g fill="#000000" fill-opacity="1"><g transform="translate(165.608925, 853.244331)"><g><path d="M 7.234375 -57.5 L 25.125 -57.5 C 33.28125 -57.5 39.203125 -56.335938 42.890625 -54.015625 C 46.578125 -51.691406 48.421875 -48.003906 48.421875 -42.953125 C 48.421875 -39.515625 47.613281 -36.691406 46 -34.484375 C 44.382812 -32.285156 42.238281 -30.960938 39.5625 -30.515625 L 39.5625 -30.125 C 43.207031 -29.3125 45.835938 -27.789062 47.453125 -25.5625 C 49.066406 -23.332031 49.875 -20.367188 49.875 -16.671875 C 49.875 -11.429688 47.976562 -7.34375 44.1875 -4.40625 C 40.394531 -1.46875 35.25 0 28.75 0 L 7.234375 0 Z M 19.421875 -34.734375 L 26.515625 -34.734375 C 29.816406 -34.734375 32.207031 -35.242188 33.6875 -36.265625 C 35.164062 -37.285156 35.90625 -38.972656 35.90625 -41.328125 C 35.90625 -43.535156 35.097656 -45.117188 33.484375 -46.078125 C 31.878906 -47.035156 29.332031 -47.515625 25.84375 -47.515625 L 19.421875 -47.515625 Z M 19.421875 -25.046875 L 19.421875 -10.0625 L 27.375 -10.0625 C 30.726562 -10.0625 33.203125 -10.703125 34.796875 -11.984375 C 36.398438 -13.273438 37.203125 -15.242188 37.203125 -17.890625 C 37.203125 -22.660156 33.796875 -25.046875 26.984375 -25.046875 Z M 19.421875 -25.046875 "/></g></g></g><g fill="#000000" fill-opacity="1"><g transform="translate(1283.184307, 853.244331)"><g><path d="M 31.65625 -48.171875 C 27.070312 -48.171875 23.519531 -46.445312 21 -43 C 18.476562 -39.550781 17.21875 -34.75 17.21875 -28.59375 C 17.21875 -15.769531 22.03125 -9.359375 31.65625 -9.359375 C 35.695312 -9.359375 40.585938 -10.367188 46.328125 -12.390625 L 46.328125 -2.15625 C 41.609375 -0.195312 36.335938 0.78125 30.515625 0.78125 C 22.148438 0.78125 15.753906 -1.753906 11.328125 -6.828125 C 6.898438 -11.898438 4.6875 -19.179688 4.6875 -28.671875 C 4.6875 -34.648438 5.769531 -39.882812 7.9375 -44.375 C 10.113281 -48.875 13.238281 -52.320312 17.3125 -54.71875 C 21.394531 -57.125 26.175781 -58.328125 31.65625 -58.328125 C 37.238281 -58.328125 42.851562 -56.976562 48.5 -54.28125 L 44.5625 -44.359375 C 42.40625 -45.378906 40.238281 -46.269531 38.0625 -47.03125 C 35.894531 -47.789062 33.757812 -48.171875 31.65625 -48.171875 Z M 31.65625 -48.171875 "/></g></g></g><path stroke-linecap="round" transform="matrix(-0.219191, -0.717255, 0.717255, -0.219191, 392.223544, 780.813417)" fill="none" stroke-linejoin="miter" d="M 8.997969 9.00064 L 88.511582 8.999179 " stroke="#5e17eb" stroke-width="18" stroke-opacity="1" stroke-miterlimit="4"/><path stroke-linecap="round" transform="matrix(-0.219191, -0.717255, 0.717255, -0.219191, 414.431158, 774.795489)" fill="none" stroke-linejoin="miter" d="M 9.000241 9.000522 L 88.508873 8.99754 " stroke="#5e17eb" stroke-width="18" stroke-opacity="1" stroke-miterlimit="4"/><path stroke-linecap="round" transform="matrix(-0.219191, -0.717255, 0.717255, -0.219191, 437.86394, 768.039514)" fill="none" stroke-linejoin="miter" d="M 8.997286 9.000751 L 88.510899 8.999291 " stroke="#5e17eb" stroke-width="18" stroke-opacity="1" stroke-miterlimit="4"/><path stroke-linecap="round" transform="matrix(-0.219191, -0.717255, 0.717255, -0.219191, 629.769579, 702.882807)" fill="none" stroke-linejoin="miter" d="M 9.001447 9.002874 L 88.51008 8.999892 " stroke="#5e17eb" stroke-width="18" stroke-opacity="1" stroke-miterlimit="4"/><path stroke-linecap="round" transform="matrix(-0.219191, -0.717255, 0.717255, -0.219191, 651.977209, 696.86488)" fill="none" stroke-linejoin="miter" d="M 8.998745 9.001213 L 88.512358 8.999753 " stroke="#5e17eb" stroke-width="18" stroke-opacity="1" stroke-miterlimit="4"/><path stroke-linecap="round" transform="matrix(-0.219191, -0.717255, 0.717255, -0.219191, 675.410015, 690.109025)" fill="none" stroke-linejoin="miter" d="M 9.000933 9.00298 L 88.509566 8.999998 " stroke="#5e17eb" stroke-width="18" stroke-opacity="1" stroke-miterlimit="4"/><path stroke-linecap="round" transform="matrix(0.252671, -0.706157, 0.706157, 0.252671, 829.473706, 681.904841)" fill="none" stroke-linejoin="miter" d="M 8.998342 8.998341 L 88.510741 8.997473 " stroke="#5e17eb" stroke-width="18" stroke-opacity="1" stroke-miterlimit="4"/><path stroke-linecap="round" transform="matrix(0.252671, -0.706157, 0.706157, 0.252671, 850.878536, 690.344345)" fill="none" stroke-linejoin="miter" d="M 9.001494 8.999223 L 88.50899 9.000111 " stroke="#5e17eb" stroke-width="18" stroke-opacity="1" stroke-miterlimit="4"/><path stroke-linecap="round" transform="matrix(0.252671, -0.706157, 0.706157, 0.252671, 1080.495756, 765.853042)" fill="none" stroke-linejoin="miter" d="M 8.997687 9.000539 L 88.510086 8.999672 " stroke="#5e17eb" stroke-width="18" stroke-opacity="1" stroke-miterlimit="4"/><path stroke-linecap="round" transform="matrix(0.252671, -0.706157, 0.706157, 0.252671, 1101.900634, 774.292641)" fill="none" stroke-linejoin="miter" d="M 9.000938 9.001318 L 88.508434 9.002206 " stroke="#5e17eb" stroke-width="18" stroke-opacity="1" stroke-miterlimit="4"/><path stroke-linecap="round" transform="matrix(0.742125, 0.1084, -0.1084, 0.742125, 744.001961, 518.412583)" fill="none" stroke-linejoin="miter" d="M 9.001869 8.99851 L 88.509069 9.001869 " stroke="#5e17eb" stroke-width="18" stroke-opacity="1" stroke-miterlimit="4"/><path stroke-linecap="round" transform="matrix(0.742125, 0.1084, -0.1084, 0.742125, 764.758503, 373.93987)" fill="none" stroke-linejoin="miter" d="M 8.998402 8.999093 L 88.510756 9.001699 " stroke="#5e17eb" stroke-width="18" stroke-opacity="1" stroke-miterlimit="4"/><g clip-path="url(#a397cbc71e)"><g clip-path="url(#fd29c4ea08)"><path fill="#ff914d" d="M 513.1875 684.511719 L 545.992188 684.511719 L 545.992188 717.316406 L 513.1875 717.316406 Z M 513.1875 684.511719 " fill-opacity="1" fill-rule="nonzero"/></g></g><g clip-path="url(#5c8270fbca)"><g clip-path="url(#25ef3d427b)"><path fill="#ff914d" d="M 773.394531 441.738281 L 806.195312 441.738281 L 806.195312 474.542969 L 773.394531 474.542969 Z M 773.394531 441.738281 " fill-opacity="1" fill-rule="nonzero"/></g></g><g clip-path="url(#c21dd8c327)"><g clip-path="url(#f33c0870d7)"><path fill="#ff914d" d="M 967.960938 682.871094 L 1000.765625 682.871094 L 1000.765625 715.675781 L 967.960938 715.675781 Z M 967.960938 682.871094 " fill-opacity="1" fill-rule="nonzero"/></g></g><path stroke-linecap="round" transform="matrix(-0.219191, -0.717255, 0.717255, -0.219191, 881.838125, 618.196439)" fill="none" stroke-linejoin="miter" d="M 8.998743 8.999064 L 88.510834 9.002585 " stroke="#5e17eb" stroke-width="18" stroke-opacity="1" stroke-miterlimit="4"/><path stroke-linecap="round" transform="matrix(-0.219191, -0.717255, 0.717255, -0.219191, 904.045683, 612.178415)" fill="none" stroke-linejoin="miter" d="M 9.000871 8.99898 L 88.507981 9.000978 " stroke="#5e17eb" stroke-width="18" stroke-opacity="1" stroke-miterlimit="4"/><path stroke-linecap="round" transform="matrix(-0.219191, -0.717255, 0.717255, -0.219191, 927.478489, 605.422536)" fill="none" stroke-linejoin="miter" d="M 8.998048 8.999215 L 88.511661 8.997755 " stroke="#5e17eb" stroke-width="18" stroke-opacity="1" stroke-miterlimit="4"/><path stroke-linecap="round" transform="matrix(0.252671, -0.706157, 0.706157, 0.252671, 607.684781, 602.333592)" fill="none" stroke-linejoin="miter" d="M 8.997104 8.998589 L 88.509503 8.997721 " stroke="#5e17eb" stroke-width="18" stroke-opacity="1" stroke-miterlimit="4"/><path stroke-linecap="round" transform="matrix(0.252671, -0.706157, 0.706157, 0.252671, 629.089539, 610.773095)" fill="none" stroke-linejoin="miter" d="M 9.000289 8.999562 L 88.512688 8.998694 " stroke="#5e17eb" stroke-width="18" stroke-opacity="1" stroke-miterlimit="4"/><path stroke-linecap="round" transform="matrix(0.742125, 0.1084, -0.1084, 0.742125, 714.7931, 696.940936)" fill="none" stroke-linejoin="miter" d="M 8.998936 8.997579 L 88.51129 9.000185 " stroke="#5e17eb" stroke-width="18" stroke-opacity="1" stroke-miterlimit="4"/></svg>