<?xml version="1.0" encoding="UTF-8"?>
<!DOCTYPE svg PUBLIC "-//W3C//DTD SVG 1.1//EN" "http://www.w3.org/Graphics/SVG/1.1/DTD/svg11.dtd">
<svg xmlns="http://www.w3.org/2000/svg" version="1.1" width="3873px" height="542px" style="shape-rendering:geometricPrecision; text-rendering:geometricPrecision; image-rendering:optimizeQuality; fill-rule:evenodd; clip-rule:evenodd" xmlns:xlink="http://www.w3.org/1999/xlink">
<g><path style="opacity:1" fill="#0a0a0a" d="M -0.5,-0.5 C 1290.5,-0.5 2581.5,-0.5 3872.5,-0.5C 3872.5,180.167 3872.5,360.833 3872.5,541.5C 2581.5,541.5 1290.5,541.5 -0.5,541.5C -0.5,360.833 -0.5,180.167 -0.5,-0.5 Z"/></g>
<g><path style="opacity:1" fill="#fefefe" d="M 349.5,10.5 C 367.833,10.5 386.167,10.5 404.5,10.5C 404.167,60.8377 404.5,111.171 405.5,161.5C 406.107,161.376 406.44,161.043 406.5,160.5C 422.498,132.047 446.831,115.547 479.5,111C 504.505,107.615 528.505,110.949 551.5,121C 579.908,137.955 594.908,163.121 596.5,196.5C 596.5,254.167 596.5,311.833 596.5,369.5C 578.167,369.5 559.833,369.5 541.5,369.5C 541.667,318.166 541.5,266.832 541,215.5C 535.506,180.51 515.006,162.843 479.5,162.5C 437.574,164.919 413.074,186.919 406,228.5C 405.5,275.832 405.333,323.165 405.5,370.5C 386.833,370.5 368.167,370.5 349.5,370.5C 349.5,250.5 349.5,130.5 349.5,10.5 Z"/></g>
<g><path style="opacity:1" fill="#d5d5d5" d="M 349.5,10.5 C 367.993,9.5031 386.659,9.16976 405.5,9.5C 405.168,60.0028 405.501,110.336 406.5,160.5C 406.44,161.043 406.107,161.376 405.5,161.5C 404.5,111.171 404.167,60.8377 404.5,10.5C 386.167,10.5 367.833,10.5 349.5,10.5 Z"/></g>
<g><path style="opacity:1" fill="#fefefe" d="M 301.5,81.5 C 265.5,81.5 229.5,81.5 193.5,81.5C 193.5,177.5 193.5,273.5 193.5,369.5C 174.5,370.833 155.5,370.833 136.5,369.5C 136.5,273.5 136.5,177.5 136.5,81.5C 100.833,81.5 65.1667,81.5 29.5,81.5C 29.5,64.5 29.5,47.5 29.5,30.5C 120.167,30.5 210.833,30.5 301.5,30.5C 301.5,47.5 301.5,64.5 301.5,81.5 Z"/></g>
<g><path style="opacity:1" fill="#373737" d="M 29.5,81.5 C 65.1667,81.5 100.833,81.5 136.5,81.5C 136.5,177.5 136.5,273.5 136.5,369.5C 135.501,274.001 135.167,178.335 135.5,82.5C 99.9961,82.8317 64.6627,82.4984 29.5,81.5 Z"/></g>
<g><path style="opacity:1" fill="#272727" d="M 301.5,81.5 C 266.004,82.4984 230.337,82.8317 194.5,82.5C 194.833,178.335 194.499,274.001 193.5,369.5C 193.5,273.5 193.5,177.5 193.5,81.5C 229.5,81.5 265.5,81.5 301.5,81.5 Z"/></g>
<g><path style="opacity:1" fill="#fdfdfd" d="M 899.5,255.5 C 898.539,257.265 898.205,259.265 898.5,261.5C 833.5,261.5 768.5,261.5 703.5,261.5C 703.263,262.791 703.596,263.791 704.5,264.5C 715.921,304.981 742.754,325.647 785,326.5C 813.335,326.618 837.335,316.618 857,296.5C 866.833,307 876.667,317.5 886.5,328C 862.777,353.527 833.444,367.86 798.5,371C 764.663,374.986 732.996,368.653 703.5,352C 670.233,328.993 651.733,297.16 648,256.5C 643.756,215.913 654.756,180.247 681,149.5C 712.547,118.761 750.38,105.928 794.5,111C 848.297,114.468 881.797,142.301 895,194.5C 898.966,214.624 900.466,234.957 899.5,255.5 Z"/></g>
<g><path style="opacity:1" fill="#fdfdfd" d="M 1050.5,110.5 C 1084.81,106.943 1116.81,113.777 1146.5,131C 1184,157.169 1202.67,193.336 1202.5,239.5C 1202.6,296.165 1177.27,336.665 1126.5,361C 1091.26,373.388 1055.59,374.721 1019.5,365C 968.914,346.368 940.414,310.201 934,256.5C 927.956,202.882 946.789,160.716 990.5,130C 1009.19,119.157 1029.19,112.657 1050.5,110.5 Z"/></g>
<g><path style="opacity:1" fill="#fefefe" d="M 1395.5,110.5 C 1398.83,110.5 1402.17,110.5 1405.5,110.5C 1405.5,127.833 1405.5,145.167 1405.5,162.5C 1400.31,162.179 1395.31,162.513 1390.5,163.5C 1348.85,167.655 1324.35,190.321 1317,231.5C 1316.5,277.499 1316.33,323.499 1316.5,369.5C 1298.17,369.5 1279.83,369.5 1261.5,369.5C 1261.5,283.833 1261.5,198.167 1261.5,112.5C 1279.83,112.5 1298.17,112.5 1316.5,112.5C 1316.33,129.17 1316.5,145.837 1317,162.5C 1333.4,130.633 1359.56,113.3 1395.5,110.5 Z"/></g>
<g><path style="opacity:1" fill="#fdfdfd" d="M 1539.5,110.5 C 1558.65,109.67 1577.65,110.836 1596.5,114C 1639.96,125.463 1666.46,153.296 1676,197.5C 1680.35,218.994 1681.51,240.661 1679.5,262.5C 1614.5,262.167 1549.5,262.5 1484.5,263.5C 1492.64,296.142 1512.98,316.642 1545.5,325C 1580.94,330.692 1611.44,321.192 1637,296.5C 1647.02,307.017 1656.85,317.683 1666.5,328.5C 1636.92,358.481 1600.92,372.814 1558.5,371.5C 1503.55,372.126 1463.72,348.126 1439,299.5C 1422.82,258.097 1423.82,217.097 1442,176.5C 1463.83,138.849 1496.33,116.849 1539.5,110.5 Z"/></g>
<g><path style="opacity:1" fill="#fefefe" d="M 2168.5,196.5 C 2168.5,254.167 2168.5,311.833 2168.5,369.5C 2150.17,369.5 2131.83,369.5 2113.5,369.5C 2113.67,318.166 2113.5,266.832 2113,215.5C 2108.14,180.478 2087.97,162.478 2052.5,161.5C 2011.7,165.467 1988.2,187.801 1982,228.5C 1981.5,275.832 1981.33,323.165 1981.5,370.5C 1962.83,370.5 1944.17,370.5 1925.5,370.5C 1925.67,318.499 1925.5,266.499 1925,214.5C 1920.83,183.664 1903.33,166.164 1872.5,162C 1831.5,161.329 1805.66,180.829 1795,220.5C 1793.98,224.44 1793.48,228.44 1793.5,232.5C 1792.5,277.997 1792.17,323.664 1792.5,369.5C 1774.5,369.5 1756.5,369.5 1738.5,369.5C 1738.5,283.833 1738.5,198.167 1738.5,112.5C 1756.5,112.5 1774.5,112.5 1792.5,112.5C 1792.33,128.837 1792.5,145.17 1793,161.5C 1793.72,160.956 1794.22,160.289 1794.5,159.5C 1809.81,131.483 1833.48,115.316 1865.5,111C 1887.45,108.437 1908.78,110.77 1929.5,118C 1952.74,128.736 1968.4,146.236 1976.5,170.5C 1991.07,135.775 2017.07,115.942 2054.5,111C 2081.54,107.061 2106.88,111.727 2130.5,125C 2154.31,142.772 2166.97,166.605 2168.5,196.5 Z"/></g>
<g><path style="opacity:1" fill="#b4b4b4" d="M 1316.5,112.5 C 1298.17,112.5 1279.83,112.5 1261.5,112.5C 1261.5,198.167 1261.5,283.833 1261.5,369.5C 1279.83,369.5 1298.17,369.5 1316.5,369.5C 1298.01,370.497 1279.34,370.83 1260.5,370.5C 1260.5,284.167 1260.5,197.833 1260.5,111.5C 1279.34,111.17 1298.01,111.503 1316.5,112.5 Z"/></g>
<g><path style="opacity:1" fill="#eaeaea" d="M 1792.5,111.5 C 1792.5,111.833 1792.5,112.167 1792.5,112.5C 1774.5,112.5 1756.5,112.5 1738.5,112.5C 1738.5,198.167 1738.5,283.833 1738.5,369.5C 1738.17,369.5 1737.83,369.5 1737.5,369.5C 1737.5,283.5 1737.5,197.5 1737.5,111.5C 1755.83,111.5 1774.17,111.5 1792.5,111.5 Z"/></g>
<g><path style="opacity:1" fill="#737373" d="M 1792.5,111.5 C 1793.17,127.5 1793.83,143.5 1794.5,159.5C 1794.22,160.289 1793.72,160.956 1793,161.5C 1792.5,145.17 1792.33,128.837 1792.5,112.5C 1792.5,112.167 1792.5,111.833 1792.5,111.5 Z"/></g>
<g><path style="opacity:1" fill="#a0a0a0" d="M 2318.5,111.5 C 2318.5,111.833 2318.5,112.167 2318.5,112.5C 2288.83,112.5 2259.17,112.5 2229.5,112.5C 2229.5,127.5 2229.5,142.5 2229.5,157.5C 2228.5,142.342 2228.17,127.009 2228.5,111.5C 2258.5,111.5 2288.5,111.5 2318.5,111.5 Z"/></g>
<g><path style="opacity:1" fill="#fdfdfd" d="M 2318.5,112.5 C 2359.17,112.5 2399.83,112.5 2440.5,112.5C 2440.5,124.833 2440.5,137.167 2440.5,149.5C 2392.09,208.087 2343.09,266.254 2293.5,324C 2344.17,324.5 2394.83,324.667 2445.5,324.5C 2445.5,339.833 2445.5,355.167 2445.5,370.5C 2371.83,370.5 2298.17,370.5 2224.5,370.5C 2224.33,357.496 2224.5,344.496 2225,331.5C 2274.21,273.96 2323.04,216.127 2371.5,158C 2324.17,157.5 2276.83,157.333 2229.5,157.5C 2229.5,142.5 2229.5,127.5 2229.5,112.5C 2259.17,112.5 2288.83,112.5 2318.5,112.5 Z"/></g>
<g><path style="opacity:1" fill="#858585" d="M 2318.5,112.5 C 2318.5,112.167 2318.5,111.833 2318.5,111.5C 2359.5,111.5 2400.5,111.5 2441.5,111.5C 2441.83,124.344 2441.5,137.011 2440.5,149.5C 2440.5,137.167 2440.5,124.833 2440.5,112.5C 2399.83,112.5 2359.17,112.5 2318.5,112.5 Z"/></g>
<g><path style="opacity:1" fill="#828282" d="M 1395.5,110.5 C 1398.96,109.518 1402.63,109.185 1406.5,109.5C 1406.5,127.5 1406.5,145.5 1406.5,163.5C 1401.17,163.5 1395.83,163.5 1390.5,163.5C 1395.31,162.513 1400.31,162.179 1405.5,162.5C 1405.5,145.167 1405.5,127.833 1405.5,110.5C 1402.17,110.5 1398.83,110.5 1395.5,110.5 Z"/></g>
<g><path style="opacity:1" fill="#fcc914" d="M 2634.5,139.5 C 2660.02,137.273 2684.69,140.773 2708.5,150C 2756.4,174.966 2775.57,214.132 2766,267.5C 2755.23,305.935 2734.39,337.769 2703.5,363C 2675.45,385.523 2643.78,400.857 2608.5,409C 2590.25,411.805 2574.42,406.972 2561,394.5C 2551.34,430.441 2543.34,466.774 2537,503.5C 2534.85,505.444 2532.35,505.944 2529.5,505C 2520.55,501.06 2514.89,494.393 2512.5,485C 2528.23,387.561 2556.73,294.061 2598,204.5C 2601.92,199.711 2606.42,199.211 2611.5,203C 2617.85,206.666 2621.85,212 2623.5,219C 2612.5,245.984 2601.5,272.984 2590.5,300C 2595.05,297.518 2599.72,294.851 2604.5,292C 2615.62,293.274 2622.62,299.44 2625.5,310.5C 2625.44,313.111 2624.44,315.278 2622.5,317C 2605.4,326.766 2591.57,339.932 2581,356.5C 2576.32,364.222 2574.32,372.556 2575,381.5C 2575.75,382.126 2576.58,382.626 2577.5,383C 2590.93,383.981 2603.93,381.981 2616.5,377C 2658.98,361.691 2693.48,335.858 2720,299.5C 2734.12,278.318 2741.95,254.985 2743.5,229.5C 2743.6,196.769 2727.93,175.936 2696.5,167C 2670.93,161.621 2645.6,162.621 2620.5,170C 2580.6,182.116 2544.26,200.783 2511.5,226C 2496.31,239.34 2483.98,254.84 2474.5,272.5C 2480.69,282.717 2478.03,287.55 2466.5,287C 2457.53,282.244 2452.7,274.744 2452,264.5C 2450.84,255.127 2452.84,246.46 2458,238.5C 2468.75,223.079 2481.59,209.579 2496.5,198C 2537.93,167.784 2583.93,148.284 2634.5,139.5 Z"/></g>
<g><path style="opacity:1" fill="#0b0b0b" d="M 768.5,154.5 C 793.797,151.988 815.631,159.321 834,176.5C 844.548,189.605 850.048,204.605 850.5,221.5C 801.5,221.5 752.5,221.5 703.5,221.5C 709.373,183.63 731.04,161.296 768.5,154.5 Z"/></g>
<g><path style="opacity:1" fill="#0b0b0b" d="M 1547.5,154.5 C 1570.04,152.381 1590.37,157.881 1608.5,171C 1622.79,184.756 1630.13,201.589 1630.5,221.5C 1581.5,221.5 1532.5,221.5 1483.5,221.5C 1489.26,184.077 1510.59,161.743 1547.5,154.5 Z"/></g>
<g><path style="opacity:1" fill="#0a0a0a" d="M 1052.5,158.5 C 1085.95,154.023 1112.78,165.023 1133,191.5C 1146.82,216.051 1150.15,242.051 1143,269.5C 1130.86,305.916 1105.53,324.583 1067,325.5C 1032.4,324.543 1008.4,308.21 995,276.5C 988.489,255.03 987.822,233.364 993,211.5C 1003.32,183.001 1023.16,165.334 1052.5,158.5 Z"/></g>
<g><path style="opacity:1" fill="#a1a1a1" d="M 596.5,196.5 C 597.499,254.331 597.832,312.331 597.5,370.5C 578.659,370.83 559.993,370.497 541.5,369.5C 559.833,369.5 578.167,369.5 596.5,369.5C 596.5,311.833 596.5,254.167 596.5,196.5 Z"/></g>
<g><path style="opacity:1" fill="#a6a6a6" d="M 2168.5,196.5 C 2169.5,254.331 2169.83,312.331 2169.5,370.5C 2150.66,370.83 2131.99,370.497 2113.5,369.5C 2131.83,369.5 2150.17,369.5 2168.5,369.5C 2168.5,311.833 2168.5,254.167 2168.5,196.5 Z"/></g>
<g><path style="opacity:1" fill="#777777" d="M 1793.5,232.5 C 1793.5,278.5 1793.5,324.5 1793.5,370.5C 1774.66,370.83 1755.99,370.497 1737.5,369.5C 1737.83,369.5 1738.17,369.5 1738.5,369.5C 1756.5,369.5 1774.5,369.5 1792.5,369.5C 1792.17,323.664 1792.5,277.997 1793.5,232.5 Z"/></g>
<g><path style="opacity:1" fill="#c1c1c1" d="M 899.5,255.5 C 899.5,257.833 899.5,260.167 899.5,262.5C 834.158,261.837 769.158,262.503 704.5,264.5C 703.596,263.791 703.263,262.791 703.5,261.5C 768.5,261.5 833.5,261.5 898.5,261.5C 898.205,259.265 898.539,257.265 899.5,255.5 Z"/></g>
<g><path style="opacity:1" fill="#fbc814" d="M 3326.5,264.5 C 3337.2,264.606 3344.7,269.606 3349,279.5C 3349.67,281.167 3349.67,282.833 3349,284.5C 3345.8,291.738 3341.97,298.571 3337.5,305C 3327.64,304.979 3320.48,300.479 3316,291.5C 3316.66,281.49 3320.16,272.49 3326.5,264.5 Z"/></g>
<g><path style="opacity:1" fill="#fbc914" d="M 2788.5,326.5 C 2792.91,326.203 2796.91,327.369 2800.5,330C 2804.39,333.39 2807.73,337.223 2810.5,341.5C 2819.56,334.136 2829.89,329.803 2841.5,328.5C 2857.63,330.126 2868.29,338.626 2873.5,354C 2873.01,358.755 2870.34,360.922 2865.5,360.5C 2860.7,359.884 2856.7,357.717 2853.5,354C 2848.79,354.463 2844.45,356.13 2840.5,359C 2812.84,377.667 2792,402.167 2778,432.5C 2774.97,436.774 2771.13,437.607 2766.5,435C 2759.2,431.08 2754.53,425.08 2752.5,417C 2762.8,389.102 2773.3,361.269 2784,333.5C 2785.01,330.798 2786.51,328.465 2788.5,326.5 Z"/></g>
<g><path style="opacity:1" fill="#fcc914" d="M 3202.5,393.5 C 3202.19,395.924 3202.53,398.257 3203.5,400.5C 3204.11,400.376 3204.44,400.043 3204.5,399.5C 3229.26,389.787 3252.93,377.953 3275.5,364C 3281.87,352.751 3288.37,341.585 3295,330.5C 3299.79,327.941 3304.62,328.108 3309.5,331C 3312,333.5 3314.5,336 3317,338.5C 3319.3,342.218 3319.97,346.218 3319,350.5C 3309.6,365.627 3302.1,381.627 3296.5,398.5C 3324.55,389.307 3350.55,376.14 3374.5,359C 3379.17,353.667 3383.83,348.333 3388.5,343C 3397.23,342.791 3403.73,346.625 3408,354.5C 3410,358.833 3410,363.167 3408,367.5C 3398.97,378.887 3392.64,391.554 3389,405.5C 3418.55,384.964 3446.05,361.798 3471.5,336C 3479.98,328.348 3487.81,329.181 3495,338.5C 3497.61,341.72 3499.11,345.387 3499.5,349.5C 3494.86,365.376 3490.86,381.376 3487.5,397.5C 3492.81,396.563 3497.81,394.729 3502.5,392C 3519.54,381.884 3535.04,369.717 3549,355.5C 3550.87,350.919 3553.37,346.752 3556.5,343C 3568.85,342.522 3576.51,348.356 3579.5,360.5C 3578.06,365.378 3576.06,370.045 3573.5,374.5C 3573.83,374.833 3574.17,375.167 3574.5,375.5C 3595.7,359.394 3618.37,345.561 3642.5,334C 3659.61,328.304 3671.44,333.804 3678,350.5C 3678.17,353.167 3678.33,355.833 3678.5,358.5C 3677.96,364.931 3677.12,371.264 3676,377.5C 3681.79,373.353 3687.96,369.853 3694.5,367C 3713.63,363.487 3726.46,370.987 3733,389.5C 3733.5,392.817 3733.67,396.15 3733.5,399.5C 3748.4,394.805 3762.74,388.638 3776.5,381C 3793.51,372.502 3809.51,362.502 3824.5,351C 3831.62,348.485 3836.79,350.651 3840,357.5C 3840.96,361.421 3839.79,364.588 3836.5,367C 3809.29,390.524 3779.62,410.524 3747.5,427C 3719.62,435.058 3705.29,424.558 3704.5,395.5C 3690.03,405.472 3675.69,415.639 3661.5,426C 3648.81,425.82 3641.47,419.32 3639.5,406.5C 3642.49,392.03 3645.66,377.696 3649,363.5C 3614.72,382.772 3583.55,406.272 3555.5,434C 3547.51,435.937 3541.01,433.437 3536,426.5C 3534.41,424.33 3533.08,421.996 3532,419.5C 3531.92,413.027 3532.58,406.694 3534,400.5C 3522.56,411.607 3509.73,420.773 3495.5,428C 3478.6,431.968 3467.1,425.802 3461,409.5C 3459.39,402.855 3459.06,396.189 3460,389.5C 3442.8,406.367 3423.64,420.533 3402.5,432C 3382.18,439.424 3368.35,432.924 3361,412.5C 3360.67,407.167 3360.33,401.833 3360,396.5C 3346.05,407.565 3330.88,416.731 3314.5,424C 3298.68,430.73 3285.51,427.23 3275,413.5C 3271.94,408.044 3269.44,402.377 3267.5,396.5C 3251.49,408.177 3234.49,418.343 3216.5,427C 3197.8,434.558 3183.97,429.391 3175,411.5C 3174.48,405.782 3174.48,400.115 3175,394.5C 3161.55,403.613 3148.39,413.113 3135.5,423C 3128.17,428.121 3121.5,427.287 3115.5,420.5C 3111.72,416.773 3109.39,412.273 3108.5,407C 3111.68,392.413 3114.85,377.913 3118,363.5C 3083.36,383.082 3051.86,406.915 3023.5,435C 3014.58,435.119 3007.75,431.285 3003,423.5C 3000.57,411.845 3001.74,400.512 3006.5,389.5C 3006.17,389.167 3005.83,388.833 3005.5,388.5C 2976.61,409.112 2945.28,425.278 2911.5,437C 2894.6,441.596 2881.77,436.429 2873,421.5C 2868.68,411.667 2868.35,401.667 2872,391.5C 2880.14,371.708 2892.31,354.875 2908.5,341C 2913.51,337.493 2918.84,334.493 2924.5,332C 2941.33,327.275 2953.5,332.775 2961,348.5C 2962.34,354.776 2961,360.443 2957,365.5C 2952.8,370.034 2948.3,374.201 2943.5,378C 2929.76,386.539 2915.42,394.039 2900.5,400.5C 2898.72,403.779 2898.05,407.112 2898.5,410.5C 2941.25,398.454 2980.92,379.954 3017.5,355C 3019.92,350.828 3022.59,346.828 3025.5,343C 3037.85,342.522 3045.51,348.356 3048.5,360.5C 3046.33,365.816 3044.49,371.15 3043,376.5C 3064.95,359.099 3088.78,344.599 3114.5,333C 3135.39,329.45 3146.39,338.283 3147.5,359.5C 3147.28,365.675 3146.45,371.675 3145,377.5C 3150.76,373.367 3156.93,369.867 3163.5,367C 3181.08,363.541 3193.58,370.041 3201,386.5C 3201.98,388.74 3202.48,391.073 3202.5,393.5 Z"/></g>
<g><path style="opacity:1" fill="#6b560f" d="M 3202.5,393.5 C 3203.17,395.5 3203.83,397.5 3204.5,399.5C 3204.44,400.043 3204.11,400.376 3203.5,400.5C 3202.53,398.257 3202.19,395.924 3202.5,393.5 Z"/></g>
</svg>
