<?xml version="1.0" encoding="UTF-8"?>
<!DOCTYPE svg PUBLIC "-//W3C//DTD SVG 1.1//EN" "http://www.w3.org/Graphics/SVG/1.1/DTD/svg11.dtd">
<svg xmlns="http://www.w3.org/2000/svg" version="1.1" width="3780px" height="588px" style="shape-rendering:geometricPrecision; text-rendering:geometricPrecision; image-rendering:optimizeQuality; fill-rule:evenodd; clip-rule:evenodd" xmlns:xlink="http://www.w3.org/1999/xlink">
<g><path style="opacity:1" fill="#0a0a0a" d="M -0.5,-0.5 C 1259.5,-0.5 2519.5,-0.5 3779.5,-0.5C 3779.5,195.5 3779.5,391.5 3779.5,587.5C 2519.5,587.5 1259.5,587.5 -0.5,587.5C -0.5,391.5 -0.5,195.5 -0.5,-0.5 Z"/></g>
<g><path style="opacity:1" fill="#909090" d="M 446.5,4.5 C 446.167,4.5 445.833,4.5 445.5,4.5C 424.833,4.5 404.167,4.5 383.5,4.5C 383.5,140.167 383.5,275.833 383.5,411.5C 404.167,411.5 424.833,411.5 445.5,411.5C 445.168,361.664 445.501,311.997 446.5,262.5C 446.5,312.5 446.5,362.5 446.5,412.5C 425.167,412.5 403.833,412.5 382.5,412.5C 382.5,276.167 382.5,139.833 382.5,3.5C 404.007,3.16936 425.34,3.5027 446.5,4.5 Z"/></g>
<g><path style="opacity:1" fill="#fefefe" d="M 445.5,4.5 C 445.333,61.8343 445.5,119.168 446,176.5C 446.717,175.956 447.217,175.289 447.5,174.5C 464.597,143.251 490.93,124.751 526.5,119C 547.282,116.546 567.949,117.213 588.5,121C 621.412,129.58 643.912,149.746 656,181.5C 659.484,191.919 661.817,202.586 663,213.5C 663.5,279.499 663.667,345.499 663.5,411.5C 642.5,411.5 621.5,411.5 600.5,411.5C 600.832,352.998 600.499,294.664 599.5,236.5C 593.13,196.645 569.63,176.645 529,176.5C 488.579,178.548 462.246,198.881 450,237.5C 447.913,245.696 446.747,254.029 446.5,262.5C 445.501,311.997 445.168,361.664 445.5,411.5C 424.833,411.5 404.167,411.5 383.5,411.5C 383.5,275.833 383.5,140.167 383.5,4.5C 404.167,4.5 424.833,4.5 445.5,4.5 Z"/></g>
<g><path style="opacity:1" fill="#bcbcbc" d="M 445.5,4.5 C 445.833,4.5 446.167,4.5 446.5,4.5C 446.168,61.3358 446.501,118.002 447.5,174.5C 447.217,175.289 446.717,175.956 446,176.5C 445.5,119.168 445.333,61.8343 445.5,4.5 Z"/></g>
<g><path style="opacity:1" fill="#838383" d="M 328.5,27.5 C 225.833,27.5 123.167,27.5 20.5,27.5C 20.5,46.8333 20.5,66.1667 20.5,85.5C 19.5029,66.0071 19.1696,46.3404 19.5,26.5C 122.668,26.1672 225.668,26.5005 328.5,27.5 Z"/></g>
<g><path style="opacity:1" fill="#fefefe" d="M 328.5,27.5 C 328.5,46.8333 328.5,66.1667 328.5,85.5C 287.833,85.5 247.167,85.5 206.5,85.5C 206.5,194.5 206.5,303.5 206.5,412.5C 184.833,412.5 163.167,412.5 141.5,412.5C 141.5,303.5 141.5,194.5 141.5,85.5C 101.167,85.5 60.8333,85.5 20.5,85.5C 20.5,66.1667 20.5,46.8333 20.5,27.5C 123.167,27.5 225.833,27.5 328.5,27.5 Z"/></g>
<g><path style="opacity:1" fill="#fcfcfc" d="M 3644.5,450.5 C 3644.81,448.076 3644.47,445.743 3643.5,443.5C 3642.89,443.624 3642.56,443.957 3642.5,444.5C 3634.4,455.691 3627.57,467.691 3622,480.5C 3620.28,482.444 3618.11,483.444 3615.5,483.5C 3599.93,479.635 3593.43,469.968 3596,454.5C 3601.07,441.127 3606.24,427.794 3611.5,414.5C 3578.29,427.42 3545.29,441.586 3512.5,457C 3501.52,461.827 3490.19,465.494 3478.5,468C 3454.64,470.241 3437.97,460.407 3428.5,438.5C 3410.65,453.167 3391.31,465.667 3370.5,476C 3339.64,488.317 3318.81,478.817 3308,447.5C 3307.34,439.397 3307.67,431.397 3309,423.5C 3290.56,437.304 3272.4,451.471 3254.5,466C 3245.82,472.345 3236.48,477.678 3226.5,482C 3219.24,483.781 3213.07,481.948 3208,476.5C 3205.16,472.828 3202.83,468.828 3201,464.5C 3200.46,459.363 3200.8,454.363 3202,449.5C 3183.66,460.176 3163.99,466.843 3143,469.5C 3133.61,469.445 3125.94,465.778 3120,458.5C 3109.94,445.556 3105.94,430.89 3108,414.5C 3109.88,403.309 3112.55,392.309 3116,381.5C 3127.71,347.712 3139.37,314.045 3151,280.5C 3113.75,321.724 3068.92,351.89 3016.5,371C 3028.83,377.987 3039.33,387.154 3048,398.5C 3064.28,424.554 3064.61,450.887 3049,477.5C 3036.47,494.696 3021.3,509.196 3003.5,521C 2977.06,538.052 2948.73,551.052 2918.5,560C 2890.93,566.497 2864.93,562.831 2840.5,549C 2836.15,545.663 2832.99,541.496 2831,536.5C 2829.49,527.008 2833.32,523.508 2842.5,526C 2853.13,532.321 2864.63,535.154 2877,534.5C 2897.58,533.418 2917.08,528.252 2935.5,519C 2965.39,505.65 2991.89,487.484 3015,464.5C 3023.92,453.659 3029.92,441.326 3033,427.5C 3034.74,414.141 3029.9,403.974 3018.5,397C 3008.64,392.381 2998.31,389.381 2987.5,388C 2974.84,387.152 2962.18,386.485 2949.5,386C 2941.19,381.569 2935.03,375.069 2931,366.5C 2929.96,363.364 2930.79,360.864 2933.5,359C 3000.57,347.961 3058.9,319.628 3108.5,274C 3126.14,257.367 3140.3,238.2 3151,216.5C 3159.24,196.475 3153.07,183.308 3132.5,177C 3110.5,173.704 3088.5,173.704 3066.5,177C 3005.3,190.604 2947.3,212.604 2892.5,243C 2870.72,256.113 2850.06,270.78 2830.5,287C 2815,301.017 2804.67,318.017 2799.5,338C 2788.86,338.592 2781.03,334.092 2776,324.5C 2773.94,314.756 2775.28,305.423 2780,296.5C 2789.96,277.102 2803.8,260.935 2821.5,248C 2889.83,198.872 2965.5,166.205 3048.5,150C 3071.73,145.115 3095.07,144.448 3118.5,148C 3142.1,152.634 3160.6,164.801 3174,184.5C 3177.17,189.834 3179.5,195.501 3181,201.5C 3194.45,166.607 3208.45,131.94 3223,97.5C 3227.54,93.8367 3232.37,93.6701 3237.5,97C 3246.08,102.201 3250.25,109.701 3250,119.5C 3207.66,220.52 3169.66,323.186 3136,427.5C 3135.5,431.486 3135.33,435.486 3135.5,439.5C 3162.58,434.418 3188.24,425.252 3212.5,412C 3216.61,409.552 3220.45,406.719 3224,403.5C 3234.87,385.286 3250.04,372.119 3269.5,364C 3288.11,360.324 3303.45,365.657 3315.5,380C 3319.64,379.428 3323.8,378.595 3328,377.5C 3335.92,379.401 3342.25,383.734 3347,390.5C 3348.76,393.449 3349.93,396.616 3350.5,400C 3348.15,411.063 3344.98,421.896 3341,432.5C 3339.3,438.76 3338.13,445.093 3337.5,451.5C 3345.02,450.62 3352.35,448.787 3359.5,446C 3385.19,433.938 3409.03,419.105 3431,401.5C 3438.22,382.282 3451.38,369.115 3470.5,362C 3486.9,359.687 3500.73,364.521 3512,376.5C 3519.12,388.335 3515.95,393.835 3502.5,393C 3492.51,387.433 3483.51,388.767 3475.5,397C 3465.11,408.603 3459.28,422.103 3458,437.5C 3458.96,438.894 3460.29,439.561 3462,439.5C 3513.59,426.86 3563.75,410.027 3612.5,389C 3615.82,388.121 3619.15,387.287 3622.5,386.5C 3653.71,308.081 3688.21,231.081 3726,155.5C 3730.88,151.815 3736.04,151.649 3741.5,155C 3749.08,159.878 3753.24,166.711 3754,175.5C 3722.47,238.878 3693.47,303.212 3667,368.5C 3674.79,361.385 3683.62,355.885 3693.5,352C 3709.56,347.681 3721.39,352.848 3729,367.5C 3728.21,382.87 3722.87,396.537 3713,408.5C 3702.73,421.289 3689.9,430.289 3674.5,435.5C 3675.86,451.379 3682.86,464.212 3695.5,474C 3701.59,477.46 3707.42,481.294 3713,485.5C 3713.74,489.402 3713.07,493.068 3711,496.5C 3706.92,501.964 3701.75,506.131 3695.5,509C 3692.83,509.667 3690.17,509.667 3687.5,509C 3662.55,497.26 3648.22,477.76 3644.5,450.5 Z"/></g>
<g><path style="opacity:1" fill="#fdfdfd" d="M 849.5,117.5 C 884.399,113.982 917.399,120.149 948.5,136C 968.85,149.175 983.684,167.008 993,189.5C 1005.1,221.792 1009.27,255.125 1005.5,289.5C 931.83,289.167 858.164,289.5 784.5,290.5C 796.542,337.383 826.709,361.383 875,362.5C 906.829,363.009 933.995,352.176 956.5,330C 957.167,329.333 957.833,329.333 958.5,330C 969,341.167 979.5,352.333 990,363.5C 990.667,364.5 990.667,365.5 990,366.5C 957.981,398.075 919.314,414.075 874,414.5C 827.517,416.239 788.184,400.572 756,367.5C 727.808,332.904 716.142,293.237 721,248.5C 731.746,173.255 774.579,129.589 849.5,117.5 Z"/></g>
<g><path style="opacity:1" fill="#fdfdfd" d="M 1176.5,117.5 C 1215.44,113.763 1251.78,121.596 1285.5,141C 1327.58,170.48 1348.91,211.147 1349.5,263C 1347.85,342.626 1308.52,391.959 1231.5,411C 1210.2,413.811 1188.86,414.145 1167.5,412C 1114.66,403.475 1077.16,374.975 1055,326.5C 1039.49,284.679 1039.82,243.012 1056,201.5C 1080.7,151.393 1120.87,123.393 1176.5,117.5 Z"/></g>
<g><path style="opacity:1" fill="#fefefe" d="M 1478.5,411.5 C 1457.5,411.5 1436.5,411.5 1415.5,411.5C 1415.5,314.167 1415.5,216.833 1415.5,119.5C 1436.17,119.5 1456.83,119.5 1477.5,119.5C 1477.17,138.845 1477.5,158.178 1478.5,177.5C 1479.11,177.376 1479.44,177.043 1479.5,176.5C 1493.69,146.543 1517.03,127.71 1549.5,120C 1559.39,117.95 1569.39,117.117 1579.5,117.5C 1579.5,137.5 1579.5,157.5 1579.5,177.5C 1543.59,174.617 1514.76,187.284 1493,215.5C 1485.57,227.121 1480.9,239.787 1479,253.5C 1478.5,306.166 1478.33,358.832 1478.5,411.5 Z"/></g>
<g><path style="opacity:1" fill="#fdfdfd" d="M 1733.5,117.5 C 1767.56,114.224 1799.9,120.057 1830.5,135C 1850.98,147.816 1866.14,165.316 1876,187.5C 1888.32,220.371 1892.82,254.371 1889.5,289.5C 1815.83,289.5 1742.17,289.5 1668.5,289.5C 1677.6,331.365 1703.27,355.532 1745.5,362C 1782.62,365.794 1814.62,354.961 1841.5,329.5C 1852.84,340.838 1863.84,352.505 1874.5,364.5C 1848.95,392.277 1817.28,408.444 1779.5,413C 1749.02,416.364 1719.36,413.031 1690.5,403C 1632.36,375.935 1603.69,330.102 1604.5,265.5C 1604.58,199.64 1634.58,153.473 1694.5,127C 1707.28,122.388 1720.28,119.221 1733.5,117.5 Z"/></g>
<g><path style="opacity:1" fill="#fefefe" d="M 2443.5,221.5 C 2443.5,284.833 2443.5,348.167 2443.5,411.5C 2422.5,411.5 2401.5,411.5 2380.5,411.5C 2380.67,352.499 2380.5,293.499 2380,234.5C 2375.46,200.63 2356.3,181.463 2322.5,177C 2276.48,174.346 2246.98,195.179 2234,239.5C 2232.74,246.793 2231.91,254.126 2231.5,261.5C 2230.5,311.331 2230.17,361.331 2230.5,411.5C 2209.83,411.5 2189.17,411.5 2168.5,411.5C 2168.83,355.331 2168.5,299.331 2167.5,243.5C 2165.32,200.32 2142.65,177.987 2099.5,176.5C 2061.93,177.892 2036.43,196.225 2023,231.5C 2020.9,239.407 2019.24,247.407 2018,255.5C 2017.5,307.499 2017.33,359.499 2017.5,411.5C 1996.83,411.5 1976.17,411.5 1955.5,411.5C 1955.5,314.167 1955.5,216.833 1955.5,119.5C 1976.17,119.5 1996.83,119.5 2017.5,119.5C 2017.33,138.17 2017.5,156.836 2018,175.5C 2018.51,174.473 2019.01,173.473 2019.5,172.5C 2036.39,142.362 2062.06,124.528 2096.5,119C 2121.32,115.464 2145.65,117.464 2169.5,125C 2197.78,136.775 2216.44,157.275 2225.5,186.5C 2241.15,148.694 2269.15,126.194 2309.5,119C 2335.91,114.96 2361.58,117.626 2386.5,127C 2417.81,143.078 2436.31,168.578 2442,203.5C 2442.7,209.489 2443.2,215.489 2443.5,221.5 Z"/></g>
<g><path style="opacity:1" fill="#797979" d="M 1415.5,119.5 C 1415.5,216.833 1415.5,314.167 1415.5,411.5C 1436.5,411.5 1457.5,411.5 1478.5,411.5C 1457.34,412.497 1436.01,412.831 1414.5,412.5C 1414.17,314.665 1414.5,216.999 1415.5,119.5 Z"/></g>
<g><path style="opacity:1" fill="#cdcdcd" d="M 1477.5,119.5 C 1478.17,138.5 1478.83,157.5 1479.5,176.5C 1479.44,177.043 1479.11,177.376 1478.5,177.5C 1477.5,158.178 1477.17,138.845 1477.5,119.5 Z"/></g>
<g><path style="opacity:1" fill="#7a7a7a" d="M 1955.5,119.5 C 1955.5,216.833 1955.5,314.167 1955.5,411.5C 1976.17,411.5 1996.83,411.5 2017.5,411.5C 1996.67,412.497 1975.67,412.831 1954.5,412.5C 1954.17,314.665 1954.5,216.999 1955.5,119.5 Z"/></g>
<g><path style="opacity:1" fill="#474747" d="M 2017.5,119.5 C 2018.17,137.167 2018.83,154.833 2019.5,172.5C 2019.01,173.473 2018.51,174.473 2018,175.5C 2017.5,156.836 2017.33,138.17 2017.5,119.5 Z"/></g>
<g><path style="opacity:1" fill="#fdfdfd" d="M 2672.5,172.5 C 2673.04,172.44 2673.38,172.107 2673.5,171.5C 2619.5,170.5 2565.5,170.167 2511.5,170.5C 2511.5,153.5 2511.5,136.5 2511.5,119.5C 2591.5,119.5 2671.5,119.5 2751.5,119.5C 2751.67,134.17 2751.5,148.837 2751,163.5C 2695.65,228.687 2640.48,294.02 2585.5,359.5C 2642.5,360.5 2699.5,360.833 2756.5,360.5C 2756.5,377.833 2756.5,395.167 2756.5,412.5C 2673.17,412.5 2589.83,412.5 2506.5,412.5C 2506.33,397.83 2506.5,383.163 2507,368.5C 2562.38,303.294 2617.54,237.961 2672.5,172.5 Z"/></g>
<g><path style="opacity:1" fill="#0b0b0b" d="M 949.5,236.5 C 949.5,238.833 949.5,241.167 949.5,243.5C 894.167,243.5 838.833,243.5 783.5,243.5C 791.653,195.844 819.82,170.51 868,167.5C 894.243,167.128 916.243,176.461 934,195.5C 943.206,207.614 948.372,221.28 949.5,236.5 Z"/></g>
<g><path style="opacity:1" fill="#0b0b0b" d="M 1833.5,240.5 C 1833.5,241.5 1833.5,242.5 1833.5,243.5C 1777.82,244.163 1722.49,243.496 1667.5,241.5C 1674.06,202.775 1696.39,178.608 1734.5,169C 1756.98,165.142 1778.31,168.476 1798.5,179C 1820.63,193.412 1832.3,213.912 1833.5,240.5 Z"/></g>
<g><path style="opacity:1" fill="#848484" d="M 2511.5,170.5 C 2565.5,170.167 2619.5,170.5 2673.5,171.5C 2673.38,172.107 2673.04,172.44 2672.5,172.5C 2618.83,171.833 2565.17,171.167 2511.5,170.5 Z"/></g>
<g><path style="opacity:1" fill="#0a0a0a" d="M 1184.5,171.5 C 1237.23,168.754 1270.39,192.754 1284,243.5C 1288.77,271.421 1284.44,297.755 1271,322.5C 1249.92,352.105 1221.09,364.938 1184.5,361C 1139.46,352.29 1113.96,325.124 1108,279.5C 1102.95,240.129 1116.12,208.629 1147.5,185C 1159.02,177.995 1171.36,173.495 1184.5,171.5 Z"/></g>
<g><path style="opacity:1" fill="#6e6e6e" d="M 2443.5,221.5 C 2444.5,284.998 2444.83,348.664 2444.5,412.5C 2422.99,412.831 2401.66,412.497 2380.5,411.5C 2401.5,411.5 2422.5,411.5 2443.5,411.5C 2443.5,348.167 2443.5,284.833 2443.5,221.5 Z"/></g>
<g><path style="opacity:1" fill="#bfbfbf" d="M 949.5,236.5 C 950.473,238.948 950.806,241.615 950.5,244.5C 894.664,244.832 838.998,244.499 783.5,243.5C 838.833,243.5 894.167,243.5 949.5,243.5C 949.5,241.167 949.5,238.833 949.5,236.5 Z"/></g>
<g><path style="opacity:1" fill="#c1c1c1" d="M 1833.5,240.5 C 1834.43,241.568 1834.77,242.901 1834.5,244.5C 1778.5,244.5 1722.5,244.5 1666.5,244.5C 1666.26,243.209 1666.6,242.209 1667.5,241.5C 1722.49,243.496 1777.82,244.163 1833.5,243.5C 1833.5,242.5 1833.5,241.5 1833.5,240.5 Z"/></g>
<g><path style="opacity:1" fill="#fcfcfc" d="M 2944.5,244.5 C 2956.68,244.827 2964.85,250.827 2969,262.5C 2969.67,264.833 2969.67,267.167 2969,269.5C 2919.98,346.231 2894.98,430.231 2894,521.5C 2891.84,525.124 2888.67,526.291 2884.5,525C 2876.44,521.611 2870.28,516.111 2866,508.5C 2866.03,412.591 2892.2,324.591 2944.5,244.5 Z"/></g>
<g><path style="opacity:1" fill="#9b9b9b" d="M 2167.5,243.5 C 2168.5,299.331 2168.83,355.331 2168.5,411.5C 2189.17,411.5 2209.83,411.5 2230.5,411.5C 2230.17,361.331 2230.5,311.331 2231.5,261.5C 2231.5,311.833 2231.5,362.167 2231.5,412.5C 2210.17,412.5 2188.83,412.5 2167.5,412.5C 2167.5,356.167 2167.5,299.833 2167.5,243.5 Z"/></g>
<g><path style="opacity:1" fill="#1b1b1b" d="M 3291.5,390.5 C 3292.87,390.343 3294.21,390.51 3295.5,391C 3282.99,398.511 3271.32,407.177 3260.5,417C 3259.67,417.688 3259,417.521 3258.5,416.5C 3267.25,404.725 3278.25,396.058 3291.5,390.5 Z"/></g>
<g><path style="opacity:1" fill="#6d6d6d" d="M 599.5,236.5 C 600.499,294.664 600.832,352.998 600.5,411.5C 621.5,411.5 642.5,411.5 663.5,411.5C 642.34,412.497 621.007,412.831 599.5,412.5C 599.5,353.833 599.5,295.167 599.5,236.5 Z"/></g>
<g><path style="opacity:1" fill="#878787" d="M 3642.5,444.5 C 3642.56,443.957 3642.89,443.624 3643.5,443.5C 3644.47,445.743 3644.81,448.076 3644.5,450.5C 3643.83,448.5 3643.17,446.5 3642.5,444.5 Z"/></g>
</svg>
