<?xml version="1.0" encoding="UTF-8"?>
<!DOCTYPE svg PUBLIC "-//W3C//DTD SVG 1.1//EN" "http://www.w3.org/Graphics/SVG/1.1/DTD/svg11.dtd">
<svg xmlns="http://www.w3.org/2000/svg" version="1.1" width="512px" height="512px" style="shape-rendering:geometricPrecision; text-rendering:geometricPrecision; image-rendering:optimizeQuality; fill-rule:evenodd; clip-rule:evenodd" xmlns:xlink="http://www.w3.org/1999/xlink">
<g><path style="opacity:0.995" fill="#fe9737" d="M 236.5,-0.5 C 249.167,-0.5 261.833,-0.5 274.5,-0.5C 348.823,10.319 400.656,50.319 430,119.5C 436.977,138.217 440.81,157.55 441.5,177.5C 435.368,241.618 405.368,291.118 351.5,326C 288.297,360.843 224.964,361.176 161.5,327C 105.981,292.145 75.3138,241.978 69.5,176.5C 74.3755,109.856 105.042,59.0225 161.5,24C 185.06,11.0353 210.06,2.86865 236.5,-0.5 Z"/></g>
<g><path style="opacity:1" fill="#ce7430" d="M 401.5,192.5 C 401.664,189.813 401.497,187.146 401,184.5C 388.527,254.304 347.694,296.471 278.5,311C 214.8,318.347 165.3,295.514 130,242.5C 119.367,224.602 112.7,205.269 110,184.5C 109.503,187.146 109.336,189.813 109.5,192.5C 108.778,132.11 134.445,86.6102 186.5,56C 217.838,39.9641 250.838,35.2974 285.5,42C 337.095,54.5998 372.928,85.4331 393,134.5C 399.956,153.403 402.79,172.737 401.5,192.5 Z"/></g>
<g><path style="opacity:1" fill="#fea95b" d="M 311.5,212.5 C 307.779,237.398 293.779,253.565 269.5,261C 239.015,266.151 216.848,254.984 203,227.5C 201.438,223.986 200.605,220.319 200.5,216.5C 206.934,205.193 215.934,202.693 227.5,209C 234.359,215.282 237.526,223.116 237,232.5C 242.877,243.24 251.71,246.74 263.5,243C 274.291,236.81 277.958,227.643 274.5,215.5C 278.862,196.715 271.528,186.548 252.5,185C 246.825,183.813 242.825,180.647 240.5,175.5C 242.725,172.111 245.725,169.611 249.5,168C 268.661,167.846 277.161,158.346 275,139.5C 267.502,126.445 257.002,123.279 243.5,130C 236.643,136.295 233.476,144.129 234,153.5C 229.061,163.157 221.228,166.657 210.5,164C 200.011,158.178 196.178,149.345 199,137.5C 204.13,113.705 218.297,98.2047 241.5,91C 275.766,85.6224 298.933,99.1224 311,131.5C 315.539,151.463 311.373,169.296 298.5,185C 301.651,190.156 304.818,195.323 308,200.5C 309.79,204.327 310.956,208.327 311.5,212.5 Z"/></g>
<g><path style="opacity:1" fill="#e99856" d="M 240.5,175.5 C 242.825,180.647 246.825,183.813 252.5,185C 271.528,186.548 278.862,196.715 274.5,215.5C 268.731,206.615 260.398,202.448 249.5,203C 237.93,196.46 234.93,187.293 240.5,175.5 Z"/></g>
<g><path style="opacity:0.98" fill="#fe870c" d="M 69.5,176.5 C 75.3138,241.978 105.981,292.145 161.5,327C 224.964,361.176 288.297,360.843 351.5,326C 405.368,291.118 435.368,241.618 441.5,177.5C 443.064,241.356 419.064,293.022 369.5,332.5C 311.149,374.127 248.483,381.961 181.5,356C 167.317,349.416 153.983,341.582 141.5,332.5C 91.6359,292.754 67.6359,240.754 69.5,176.5 Z"/></g>
<g><path style="opacity:1" fill="#bc672e" d="M 401.5,192.5 C 395.751,255.402 363.751,298.902 305.5,323C 235.425,343.857 178.258,325.357 134,267.5C 119.127,244.715 110.961,219.715 109.5,192.5C 109.336,189.813 109.503,187.146 110,184.5C 112.7,205.269 119.367,224.602 130,242.5C 165.3,295.514 214.8,318.347 278.5,311C 347.694,296.471 388.527,254.304 401,184.5C 401.497,187.146 401.664,189.813 401.5,192.5 Z"/></g>
<g><path style="opacity:1" fill="#e99856" d="M 311.5,212.5 C 315.528,246.596 301.195,269.096 268.5,280C 236.026,284.505 213.526,271.672 201,241.5C 199.604,236.419 198.771,231.253 198.5,226C 198.328,222.523 198.994,219.356 200.5,216.5C 200.605,220.319 201.438,223.986 203,227.5C 216.848,254.984 239.015,266.151 269.5,261C 293.779,253.565 307.779,237.398 311.5,212.5 Z"/></g>
<g><path style="opacity:0.993" fill="#0a72fa" d="M 141.5,332.5 C 153.983,341.582 167.317,349.416 181.5,356C 248.483,381.961 311.149,374.127 369.5,332.5C 372.168,340.172 374.835,347.838 377.5,355.5C 343.295,379.236 305.295,392.236 263.5,394.5C 260.882,387.913 258.215,381.247 255.5,374.5C 252.785,381.247 250.118,387.913 247.5,394.5C 205.705,392.236 167.705,379.236 133.5,355.5C 136.165,347.838 138.832,340.172 141.5,332.5 Z"/></g>
<g><path style="opacity:0.989" fill="#0083fd" d="M 133.5,355.5 C 167.705,379.236 205.705,392.236 247.5,394.5C 234.654,433.843 220.988,472.843 206.5,511.5C 204.167,511.5 201.833,511.5 199.5,511.5C 185.728,498.229 172.062,484.729 158.5,471C 139.079,471.843 119.745,473.676 100.5,476.5C 94.909,475.341 93.0757,472.008 95,466.5C 107.847,429.479 120.681,392.479 133.5,355.5 Z"/></g>
<g><path style="opacity:0.99" fill="#0083fd" d="M 377.5,355.5 C 390.319,392.479 403.153,429.479 416,466.5C 417.805,471.69 416.138,475.024 411,476.5C 391.573,473.711 372.073,471.878 352.5,471C 338.938,484.729 325.272,498.229 311.5,511.5C 309.167,511.5 306.833,511.5 304.5,511.5C 290.012,472.843 276.346,433.843 263.5,394.5C 305.295,392.236 343.295,379.236 377.5,355.5 Z"/></g>
</svg>
