<?xml version="1.0" encoding="UTF-8"?>
<!DOCTYPE svg PUBLIC "-//W3C//DTD SVG 1.1//EN" "http://www.w3.org/Graphics/SVG/1.1/DTD/svg11.dtd">
<svg xmlns="http://www.w3.org/2000/svg" version="1.1" width="1280px" height="960px" style="shape-rendering:geometricPrecision; text-rendering:geometricPrecision; image-rendering:optimizeQuality; fill-rule:evenodd; clip-rule:evenodd" xmlns:xlink="http://www.w3.org/1999/xlink">
<g><path style="opacity:0.848" fill="#06080b" d="M 355.5,88.5 C 406.168,88.3333 456.834,88.5 507.5,89C 522.072,92.647 530.905,101.814 534,116.5C 534.667,166.833 534.667,217.167 534,267.5C 533.101,280.194 529.768,292.194 524,303.5C 521.031,308.473 516.864,311.973 511.5,314C 502.84,314.5 494.173,314.666 485.5,314.5C 485.5,377.5 485.5,440.5 485.5,503.5C 500.5,503.5 515.5,503.5 530.5,503.5C 530.333,451.832 530.5,400.166 531,348.5C 532.97,333.529 541.136,323.696 555.5,319C 576.455,317.558 597.455,317.058 618.5,317.5C 618.827,312.786 618.493,308.12 617.5,303.5C 612.167,299.833 612.167,296.167 617.5,292.5C 618.667,257.838 618.833,223.171 618,188.5C 617.5,185.333 615.667,183.5 612.5,183C 603.814,182.168 595.147,182.335 586.5,183.5C 582.682,194.169 575.349,197.669 564.5,194C 557.46,189.745 554.96,183.578 557,175.5C 562.37,165.6 570.203,163.1 580.5,168C 583.637,170.44 585.637,173.607 586.5,177.5C 595.816,178.332 605.149,178.832 614.5,179C 617.667,180.833 620.167,183.333 622,186.5C 622.333,221.833 622.667,257.167 623,292.5C 627.667,296.167 627.667,299.833 623,303.5C 622.501,308.155 622.334,312.821 622.5,317.5C 684.834,317.333 747.168,317.5 809.5,318C 825.452,321.619 834.952,331.452 838,347.5C 838.5,394.165 838.667,440.832 838.5,487.5C 904.532,487.021 970.532,487.521 1036.5,489C 1054.82,495.173 1063.48,508.007 1062.5,527.5C 1084.17,527.333 1105.84,527.5 1127.5,528C 1141.23,531.4 1150.07,539.9 1154,553.5C 1155.13,573.631 1155.63,593.798 1155.5,614C 1155.63,634.202 1155.13,654.369 1154,674.5C 1150.18,687.658 1141.68,696.158 1128.5,700C 1106.5,700.5 1084.5,700.667 1062.5,700.5C 1062.67,738.501 1062.5,776.501 1062,814.5C 1059.02,828.813 1050.52,837.98 1036.5,842C 997.858,843.142 959.192,843.642 920.5,843.5C 881.808,843.642 843.142,843.142 804.5,842C 791.333,838.167 782.833,829.667 779,816.5C 778.5,806.172 778.334,795.839 778.5,785.5C 736.832,785.667 695.165,785.5 653.5,785C 645.176,783.675 638.676,779.508 634,772.5C 633.529,770.754 632.862,769.087 632,767.5C 631.5,747.836 631.333,728.169 631.5,708.5C 626.167,707.833 623.167,704.833 622.5,699.5C 603.833,699.5 585.167,699.5 566.5,699.5C 569.11,724.483 558.11,738.983 533.5,743C 502.168,743.5 470.835,743.667 439.5,743.5C 439.667,777.502 439.5,811.502 439,845.5C 435.473,859.693 426.64,868.527 412.5,872C 361.833,872.667 311.167,872.667 260.5,872C 244.227,867.726 235.06,857.226 233,840.5C 232.333,786.833 232.333,733.167 233,679.5C 234.679,661.821 244.179,650.987 261.5,647C 283.164,646.5 304.831,646.333 326.5,646.5C 326.5,620.167 326.5,593.833 326.5,567.5C 269.832,567.667 213.166,567.5 156.5,567C 142.933,563.024 134.433,554.191 131,540.5C 130.333,457.833 130.333,375.167 131,292.5C 135.123,274.71 146.289,265.21 164.5,264C 218.832,263.5 273.166,263.333 327.5,263.5C 327.5,222.833 327.5,182.167 327.5,141.5C 306.164,141.333 284.831,141.5 263.5,142C 257.631,143.558 254.464,147.391 254,153.5C 253.5,168.83 253.333,184.163 253.5,199.5C 267.481,201.65 275.147,209.816 276.5,224C 273.162,244.496 261.495,252.162 241.5,247C 225.866,237.296 222.699,224.463 232,208.5C 236.66,203.253 242.493,200.253 249.5,199.5C 249.333,183.497 249.5,167.497 250,151.5C 251.736,144.763 255.903,140.263 262.5,138C 284.164,137.5 305.831,137.333 327.5,137.5C 324.641,120.699 329.308,106.532 341.5,95C 345.877,91.9748 350.544,89.8081 355.5,88.5 Z M 566.5,644.5 C 637.167,644.5 707.833,644.5 778.5,644.5C 778.5,651.5 778.5,658.5 778.5,665.5C 761.366,668.301 751.699,678.301 749.5,695.5C 714.832,695.667 680.165,695.5 645.5,695C 640.129,684.413 632.962,682.913 624,690.5C 622.991,692.025 622.491,693.692 622.5,695.5C 603.833,695.5 585.167,695.5 566.5,695.5C 566.5,678.5 566.5,661.5 566.5,644.5 Z M 645.5,699.5 C 680.167,699.5 714.833,699.5 749.5,699.5C 751.621,716.455 761.121,726.455 778,729.5C 778.5,746.83 778.667,764.163 778.5,781.5C 737.499,781.667 696.499,781.5 655.5,781C 645.444,780.274 638.944,775.108 636,765.5C 635.5,746.503 635.333,727.503 635.5,708.5C 640.698,707.638 644.031,704.638 645.5,699.5 Z"/></g>
<g><path style="opacity:1" fill="#7efdd2" d="M 506.5,290.5 C 457.166,290.667 407.832,290.5 358.5,290C 354.969,288.594 351.302,287.76 347.5,287.5C 341.347,284.531 337.014,279.864 334.5,273.5C 334.207,269.563 334.54,265.73 335.5,262C 334.551,261.383 333.718,261.549 333,262.5C 332.333,214.5 332.333,166.5 333,118.5C 334.375,116.063 334.875,113.397 334.5,110.5C 339.419,99.196 348.086,93.0293 360.5,92C 407.5,91.3333 454.5,91.3333 501.5,92C 517.766,94.2662 527.6,103.433 531,119.5C 531.667,167.833 531.667,216.167 531,264.5C 528.422,278.575 520.255,287.241 506.5,290.5 Z"/></g>
<g><path style="opacity:1" fill="#8eefce" d="M 334.5,110.5 C 334.875,113.397 334.375,116.063 333,118.5C 332.333,166.5 332.333,214.5 333,262.5C 333.718,261.549 334.551,261.383 335.5,262C 334.54,265.73 334.207,269.563 334.5,273.5C 333.073,271.852 332.24,269.852 332,267.5C 331.333,216.833 331.333,166.167 332,115.5C 332.374,113.509 333.207,111.842 334.5,110.5 Z"/></g>
<g><path style="opacity:0.81" fill="#010207" d="M 910.5,152.5 C 972.501,152.333 1034.5,152.5 1096.5,153C 1114.71,154.21 1125.88,163.71 1130,181.5C 1130.67,254.5 1130.67,327.5 1130,400.5C 1126.02,414.067 1117.19,422.567 1103.5,426C 1037.17,426.667 970.833,426.667 904.5,426C 888.682,421.848 879.515,411.681 877,395.5C 876.333,323.833 876.333,252.167 877,180.5C 881.91,163.487 893.077,154.154 910.5,152.5 Z"/></g>
<g><path style="opacity:1" fill="#22a1f4" d="M 1121.5,170.5 C 1121.59,174.509 1122.75,178.176 1125,181.5C 1125.5,247.832 1125.67,314.166 1125.5,380.5C 1123.76,387.882 1119.76,393.549 1113.5,397.5C 1109.59,399.247 1105.59,400.747 1101.5,402C 1034.48,402.82 967.478,402.653 900.5,401.5C 888.783,396.777 881.783,388.111 879.5,375.5C 879.181,310.144 879.514,244.811 880.5,179.5C 884.39,167.781 892.39,160.281 904.5,157C 970.167,156.333 1035.83,156.333 1101.5,157C 1110.1,158.788 1116.76,163.288 1121.5,170.5 Z"/></g>
<g><path style="opacity:1" fill="#212121" d="M 566.5,169.5 C 578.675,168.233 583.842,173.566 582,185.5C 574.877,193.448 567.877,193.448 561,185.5C 560.333,182.167 560.333,178.833 561,175.5C 563.04,173.63 564.873,171.63 566.5,169.5 Z"/></g>
<g><path style="opacity:1" fill="#101512" d="M 380.5,147.5 C 414.31,160.407 448.31,172.74 482.5,184.5C 482.719,185.675 482.386,186.675 481.5,187.5C 472.425,191.244 463.425,195.078 454.5,199C 461.302,206.803 468.469,214.303 476,221.5C 476.667,222.167 476.667,222.833 476,223.5C 467.988,230.846 459.988,238.18 452,245.5C 444.042,238.544 436.376,231.211 429,223.5C 424.723,233.051 420.223,242.384 415.5,251.5C 414.914,251.291 414.414,250.957 414,250.5C 402.853,217.392 391.52,184.392 380,151.5C 379.421,150.072 379.588,148.738 380.5,147.5 Z"/></g>
<g><path style="opacity:1" fill="#fcfcfc" d="M 384.5,152.5 C 414.836,163.558 445.17,174.724 475.5,186C 467.395,190.053 459.062,193.553 450.5,196.5C 450.343,197.873 450.51,199.207 451,200.5C 458.167,207.667 465.333,214.833 472.5,222C 465.667,228.833 458.833,235.667 452,242.5C 444.291,234.456 436.291,226.79 428,219.5C 423.558,227.636 419.391,235.969 415.5,244.5C 404.853,213.899 394.52,183.233 384.5,152.5 Z"/></g>
<g><path style="opacity:1" fill="#000416" d="M 880.5,179.5 C 879.514,244.811 879.181,310.144 879.5,375.5C 878.335,310.668 878.168,245.668 879,180.5C 879.383,179.944 879.883,179.611 880.5,179.5 Z"/></g>
<g><path style="opacity:1" fill="#2980ba" d="M 1121.5,170.5 C 1123.99,174.458 1125.83,178.791 1127,183.5C 1127.67,247.5 1127.67,311.5 1127,375.5C 1126.8,377.382 1126.3,379.048 1125.5,380.5C 1125.67,314.166 1125.5,247.832 1125,181.5C 1122.75,178.176 1121.59,174.509 1121.5,170.5 Z"/></g>
<g><path style="opacity:1" fill="#338fcd" d="M 1031.5,201.5 C 1017.04,197.6 1002.37,196.6 987.5,198.5C 987.611,197.883 987.944,197.383 988.5,197C 993.5,196.833 998.5,196.667 1003.5,196.5C 1012.92,196.457 1022.25,197.124 1031.5,198.5C 1031.5,199.5 1031.5,200.5 1031.5,201.5 Z"/></g>
<g><path style="opacity:1" fill="#101114" d="M 1031.5,201.5 C 1070.95,218.472 1089.79,248.472 1088,291.5C 1079.58,334.474 1053.74,359.641 1010.5,367C 962.8,368.627 932.633,346.46 920,300.5C 913.642,260.396 927.476,229.563 961.5,208C 969.867,203.714 978.533,200.547 987.5,198.5C 1002.37,196.6 1017.04,197.6 1031.5,201.5 Z"/></g>
<g><path style="opacity:1" fill="#f8f8f8" d="M 966.5,236.5 C 956.319,236.827 946.319,236.494 936.5,235.5C 951.483,214.672 971.816,203.172 997.5,201C 985.437,211.547 975.104,223.38 966.5,236.5 Z"/></g>
<g><path style="opacity:1" fill="#f9f9f9" d="M 1070.5,235.5 C 1060.35,236.494 1050.01,236.828 1039.5,236.5C 1030.84,223.329 1020.5,211.496 1008.5,201C 1034.64,202.896 1055.3,214.396 1070.5,235.5 Z"/></g>
<g><path style="opacity:1" fill="#212121" d="M 245.5,203.5 C 263.347,202.518 272.181,210.851 272,228.5C 267.149,242.176 257.649,247.343 243.5,244C 232.103,238.036 228.27,228.869 232,216.5C 234.747,210.252 239.247,205.918 245.5,203.5 Z"/></g>
<g><path style="opacity:1" fill="#fafafa" d="M 1000.5,202.5 C 1001.49,213.654 1001.83,224.988 1001.5,236.5C 991.161,236.666 980.828,236.5 970.5,236C 978.912,223.421 988.912,212.254 1000.5,202.5 Z"/></g>
<g><path style="opacity:1" fill="#fbfbfb" d="M 1006.5,203.5 C 1017.61,212.61 1026.94,223.276 1034.5,235.5C 1024.68,236.494 1014.68,236.827 1004.5,236.5C 1004.5,231.5 1004.5,226.5 1004.5,221.5C 1005.17,215.5 1005.83,209.5 1006.5,203.5 Z"/></g>
<g><path style="opacity:1" fill="#b3b3b3" d="M 1006.5,203.5 C 1005.83,209.5 1005.17,215.5 1004.5,221.5C 1004.33,214.825 1004.5,208.158 1005,201.5C 1005.72,202.044 1006.22,202.711 1006.5,203.5 Z"/></g>
<g><path style="opacity:1" fill="#4b4b4b" d="M 936.5,235.5 C 946.319,236.494 956.319,236.827 966.5,236.5C 956.326,237.823 945.993,237.823 935.5,236.5C 935.624,235.893 935.957,235.56 936.5,235.5 Z"/></g>
<g><path style="opacity:1" fill="#4f4f4f" d="M 1034.5,235.5 C 1035.04,235.56 1035.38,235.893 1035.5,236.5C 1025.01,237.823 1014.67,237.823 1004.5,236.5C 1014.68,236.827 1024.68,236.494 1034.5,235.5 Z"/></g>
<g><path style="opacity:1" fill="#4e4e4e" d="M 1070.5,235.5 C 1071.04,235.56 1071.38,235.893 1071.5,236.5C 1060.67,237.823 1050.01,237.823 1039.5,236.5C 1050.01,236.828 1060.35,236.494 1070.5,235.5 Z"/></g>
<g><path style="opacity:1" fill="#787878" d="M 968.5,240.5 C 979.321,239.505 990.321,239.172 1001.5,239.5C 1001.83,251.678 1001.5,263.678 1000.5,275.5C 1000.5,263.833 1000.5,252.167 1000.5,240.5C 989.833,240.5 979.167,240.5 968.5,240.5 Z"/></g>
<g><path style="opacity:1" fill="#7d7d7d" d="M 1073.5,240.5 C 1062.65,240.172 1051.99,240.506 1041.5,241.5C 1040.96,241.44 1040.62,241.107 1040.5,240.5C 1051.66,239.176 1062.66,239.176 1073.5,240.5 Z"/></g>
<g><path style="opacity:1" fill="#f8f8f8" d="M 933.5,239.5 C 943.855,239.168 954.188,239.501 964.5,240.5C 957.547,252.93 953.881,266.263 953.5,280.5C 942.833,280.5 932.167,280.5 921.5,280.5C 921.629,265.641 925.629,251.975 933.5,239.5 Z"/></g>
<g><path style="opacity:1" fill="#fdfdfd" d="M 968.5,240.5 C 979.167,240.5 989.833,240.5 1000.5,240.5C 1000.5,252.167 1000.5,263.833 1000.5,275.5C 1000.5,277.167 1000.5,278.833 1000.5,280.5C 985.833,280.5 971.167,280.5 956.5,280.5C 956.796,265.969 960.796,252.636 968.5,240.5 Z"/></g>
<g><path style="opacity:1" fill="#fafafa" d="M 1047.5,280.5 C 1033.17,280.5 1018.83,280.5 1004.5,280.5C 1004.5,268.167 1004.5,255.833 1004.5,243.5C 1004.5,242.167 1004.5,240.833 1004.5,239.5C 1015.52,239.168 1026.52,239.501 1037.5,240.5C 1044.52,252.92 1047.85,266.253 1047.5,280.5 Z"/></g>
<g><path style="opacity:1" fill="#fbfbfb" d="M 1073.5,240.5 C 1081.3,252.574 1085.3,265.908 1085.5,280.5C 1073.83,280.5 1062.17,280.5 1050.5,280.5C 1050.42,266.754 1047.42,253.754 1041.5,241.5C 1051.99,240.506 1062.65,240.172 1073.5,240.5 Z"/></g>
<g><path style="opacity:1" fill="#2d81b9" d="M 328.5,283.5 C 327.513,278.695 327.179,273.695 327.5,268.5C 270.144,268.183 212.81,268.516 155.5,269.5C 156.263,268.732 157.263,268.232 158.5,268C 215.166,267.5 271.832,267.333 328.5,267.5C 328.5,272.833 328.5,278.167 328.5,283.5 Z"/></g>
<g><path style="opacity:1" fill="#21a2f6" d="M 328.5,283.5 C 329.481,291.84 331.981,299.84 336,307.5C 338.529,310.885 341.696,313.218 345.5,314.5C 390.33,315.499 435.33,315.832 480.5,315.5C 480.5,383.833 480.5,452.167 480.5,520.5C 479.26,527.644 475.927,533.644 470.5,538.5C 468.118,539.351 466.118,540.684 464.5,542.5C 462.435,542.517 460.435,542.85 458.5,543.5C 358.833,543.667 259.166,543.5 159.5,543C 156.883,542.178 154.216,541.678 151.5,541.5C 143.599,537.931 138.599,531.931 136.5,523.5C 135.178,444.51 135.178,365.51 136.5,286.5C 140.18,277.833 146.513,272.166 155.5,269.5C 212.81,268.516 270.144,268.183 327.5,268.5C 327.179,273.695 327.513,278.695 328.5,283.5 Z"/></g>
<g><path style="opacity:1" fill="#535453" d="M 1004.5,243.5 C 1004.5,255.833 1004.5,268.167 1004.5,280.5C 1018.83,280.5 1033.17,280.5 1047.5,280.5C 1033.01,281.496 1018.34,281.829 1003.5,281.5C 1003.17,268.656 1003.5,255.989 1004.5,243.5 Z"/></g>
<g><path style="opacity:1" fill="#808080" d="M 1000.5,284.5 C 986.167,284.5 971.833,284.5 957.5,284.5C 957.5,287.167 957.5,289.833 957.5,292.5C 956.523,289.713 956.19,286.713 956.5,283.5C 971.343,283.171 986.01,283.504 1000.5,284.5 Z"/></g>
<g><path style="opacity:1" fill="#7c7c7c" d="M 1003.5,284.5 C 1017.99,283.504 1032.66,283.171 1047.5,283.5C 1047.79,285.735 1047.46,287.735 1046.5,289.5C 1046.5,287.833 1046.5,286.167 1046.5,284.5C 1032.17,284.5 1017.83,284.5 1003.5,284.5 Z"/></g>
<g><path style="opacity:1" fill="#818181" d="M 1050.5,284.5 C 1061.99,283.505 1073.65,283.172 1085.5,283.5C 1085.81,286.385 1085.47,289.052 1084.5,291.5C 1084.5,289.167 1084.5,286.833 1084.5,284.5C 1073.17,284.5 1061.83,284.5 1050.5,284.5 Z"/></g>
<g><path style="opacity:1" fill="#fcfcfc" d="M 963.5,323.5 C 953.347,324.494 943.014,324.828 932.5,324.5C 925.718,312.042 922.052,298.708 921.5,284.5C 932.167,284.5 942.833,284.5 953.5,284.5C 954.391,298.164 957.724,311.164 963.5,323.5 Z"/></g>
<g><path style="opacity:1" fill="#fdfdfd" d="M 1000.5,284.5 C 1000.5,293.5 1000.5,302.5 1000.5,311.5C 999.515,315.634 999.182,319.968 999.5,324.5C 989.167,324.5 978.833,324.5 968.5,324.5C 962.095,314.86 958.428,304.194 957.5,292.5C 957.5,289.833 957.5,287.167 957.5,284.5C 971.833,284.5 986.167,284.5 1000.5,284.5 Z"/></g>
<g><path style="opacity:1" fill="#fdfdfd" d="M 1003.5,284.5 C 1017.83,284.5 1032.17,284.5 1046.5,284.5C 1046.5,286.167 1046.5,287.833 1046.5,289.5C 1044.77,301.631 1040.77,312.964 1034.5,323.5C 1024.19,324.499 1013.85,324.832 1003.5,324.5C 1003.5,311.167 1003.5,297.833 1003.5,284.5 Z"/></g>
<g><path style="opacity:1" fill="#fdfdfd" d="M 1050.5,284.5 C 1061.83,284.5 1073.17,284.5 1084.5,284.5C 1084.5,286.833 1084.5,289.167 1084.5,291.5C 1083.24,303.614 1079.24,314.614 1072.5,324.5C 1060.99,324.828 1049.65,324.495 1038.5,323.5C 1044.92,311.238 1048.92,298.238 1050.5,284.5 Z"/></g>
<g><path style="opacity:1" fill="#212121" d="M 331.5,276.5 C 336.686,285.511 344.353,291.344 354.5,294C 405.833,294.667 457.167,294.667 508.5,294C 512.286,292.607 515.952,290.941 519.5,289C 522.333,286.167 525.167,283.333 528,280.5C 526.402,288.953 523.402,296.953 519,304.5C 517.062,307.106 514.562,308.939 511.5,310C 455.833,310.667 400.167,310.667 344.5,310C 340.183,307.685 337.35,304.185 336,299.5C 332.88,292.167 331.38,284.5 331.5,276.5 Z"/></g>
<g><path style="opacity:1" fill="#91f1d1" d="M 347.5,287.5 C 351.302,287.76 354.969,288.594 358.5,290C 407.832,290.5 457.166,290.667 506.5,290.5C 456.002,291.665 405.335,291.832 354.5,291C 352.03,289.979 349.696,288.812 347.5,287.5 Z"/></g>
<g><path style="opacity:1" fill="#287fb9" d="M 136.5,286.5 C 135.178,365.51 135.178,444.51 136.5,523.5C 134.932,521.189 134.098,518.522 134,515.5C 133.333,441.5 133.333,367.5 134,293.5C 134.698,290.996 135.531,288.663 136.5,286.5 Z"/></g>
<g><path style="opacity:1" fill="#0d1826" d="M 481.5,314.5 C 483.165,377.495 484.165,440.828 484.5,504.5C 499.961,505.152 515.294,505.819 530.5,506.5C 515.324,506.171 500.324,506.504 485.5,507.5C 485.95,519.918 485.283,532.251 483.5,544.5C 479.833,554.167 473.167,560.833 463.5,564.5C 463.5,563.5 463.5,562.5 463.5,561.5C 476.334,555.156 482.167,544.823 481,530.5C 479.629,533.266 477.796,535.599 475.5,537.5C 473.784,537.629 472.117,537.962 470.5,538.5C 475.927,533.644 479.26,527.644 480.5,520.5C 481.499,452.002 481.833,383.335 481.5,314.5 Z"/></g>
<g><path style="opacity:1" fill="#379cde" d="M 345.5,314.5 C 390.833,314.5 436.167,314.5 481.5,314.5C 481.833,383.335 481.499,452.002 480.5,520.5C 480.5,452.167 480.5,383.833 480.5,315.5C 435.33,315.832 390.33,315.499 345.5,314.5 Z"/></g>
<g><path style="opacity:1" fill="#fefefe" d="M 557.5,321.5 C 642.167,321.333 726.834,321.5 811.5,322C 823,325.5 830.5,333 834,344.5C 834.667,428.833 834.667,513.167 834,597.5C 830.941,609.559 823.441,617.392 811.5,621C 727.167,621.667 642.833,621.667 558.5,621C 546,617.833 538.167,610 535,597.5C 534.333,513.167 534.333,428.833 535,344.5C 538.684,332.984 546.184,325.317 557.5,321.5 Z"/></g>
<g><path style="opacity:1" fill="#797979" d="M 963.5,323.5 C 964.043,323.56 964.376,323.893 964.5,324.5C 953.674,325.823 943.007,325.823 932.5,324.5C 943.014,324.828 953.347,324.494 963.5,323.5 Z"/></g>
<g><path style="opacity:1" fill="#737373" d="M 1000.5,311.5 C 1000.5,316.167 1000.5,320.833 1000.5,325.5C 989.654,325.828 978.987,325.494 968.5,324.5C 978.833,324.5 989.167,324.5 999.5,324.5C 999.182,319.968 999.515,315.634 1000.5,311.5 Z"/></g>
<g><path style="opacity:1" fill="#484847" d="M 1038.5,323.5 C 1049.65,324.495 1060.99,324.828 1072.5,324.5C 1060.99,325.824 1049.33,325.824 1037.5,324.5C 1037.62,323.893 1037.96,323.56 1038.5,323.5 Z"/></g>
<g><path style="opacity:1" fill="#474746" d="M 966.5,328.5 C 955.986,328.172 945.653,328.506 935.5,329.5C 934.957,329.44 934.624,329.107 934.5,328.5C 945.326,327.177 955.993,327.177 966.5,328.5 Z"/></g>
<g><path style="opacity:1" fill="#565756" d="M 999.5,350.5 C 999.5,343.167 999.5,335.833 999.5,328.5C 989.985,328.173 980.652,328.506 971.5,329.5C 970.957,329.44 970.624,329.107 970.5,328.5C 980.478,327.501 990.478,327.168 1000.5,327.5C 1000.83,335.352 1000.49,343.018 999.5,350.5 Z"/></g>
<g><path style="opacity:1" fill="#686868" d="M 1003.5,328.5 C 1012.67,327.178 1022.01,327.178 1031.5,328.5C 1031.38,329.107 1031.04,329.44 1030.5,329.5C 1021.68,328.507 1012.68,328.173 1003.5,328.5 Z"/></g>
<g><path style="opacity:1" fill="#737473" d="M 1035.5,328.5 C 1047.01,327.176 1058.67,327.176 1070.5,328.5C 1070.38,329.107 1070.04,329.44 1069.5,329.5C 1058.35,328.505 1047.01,328.172 1035.5,328.5 Z"/></g>
<g><path style="opacity:1" fill="#f9f9f9" d="M 966.5,328.5 C 974.938,341.468 984.938,353.301 996.5,364C 970.501,362.339 950.168,350.839 935.5,329.5C 945.653,328.506 955.986,328.172 966.5,328.5 Z"/></g>
<g><path style="opacity:1" fill="#fbfbfb" d="M 999.5,350.5 C 999.823,354.226 999.489,357.893 998.5,361.5C 988.004,352.011 979.004,341.345 971.5,329.5C 980.652,328.506 989.985,328.173 999.5,328.5C 999.5,335.833 999.5,343.167 999.5,350.5 Z"/></g>
<g><path style="opacity:1" fill="#fbfbfb" d="M 1003.5,328.5 C 1012.68,328.173 1021.68,328.507 1030.5,329.5C 1023.33,341.009 1014.66,351.343 1004.5,360.5C 1003.51,350.013 1003.17,339.346 1003.5,328.5 Z"/></g>
<g><path style="opacity:1" fill="#f9f9f9" d="M 1035.5,328.5 C 1047.01,328.172 1058.35,328.505 1069.5,329.5C 1053.47,350.685 1032.13,362.185 1005.5,364C 1017.05,353.341 1027.05,341.508 1035.5,328.5 Z"/></g>
<g><path style="opacity:1" fill="#080f1c" d="M 236.5,329.5 C 267.158,332.43 297.992,335.097 329,337.5C 334.634,338.451 338.468,336.451 340.5,331.5C 347.793,327.777 353.96,329.11 359,335.5C 359.434,339.548 359.434,343.548 359,347.5C 369.534,357.703 380.368,367.536 391.5,377C 398.7,373.954 404.867,375.454 410,381.5C 411.457,384.366 411.79,387.366 411,390.5C 408.597,393.722 406.097,396.722 403.5,399.5C 405.643,408.746 407.477,418.079 409,427.5C 418.108,429.04 421.774,434.373 420,443.5C 418.542,445.96 416.709,448.127 414.5,450C 411.833,450.667 409.167,450.667 406.5,450C 404.431,448.126 402.098,447.126 399.5,447C 364.667,468.584 329.667,489.918 294.5,511C 294.52,524.329 288.187,529.329 275.5,526C 274.213,524.59 273.046,523.09 272,521.5C 271.543,517.118 271.543,512.784 272,508.5C 246.53,484.698 221.363,460.531 196.5,436C 189.911,438.873 184.077,437.706 179,432.5C 175.085,420.912 179.252,414.912 191.5,414.5C 200.537,389.891 209.87,365.391 219.5,341C 211.254,333.507 211.588,326.507 220.5,320C 226.284,318.491 231.117,319.991 235,324.5C 236.009,326.025 236.509,327.692 236.5,329.5 Z"/></g>
<g><path style="opacity:1" fill="#f6f6f6" d="M 221.5,322.5 C 229.879,321.715 233.712,325.381 233,333.5C 230.459,338.069 226.625,339.569 221.5,338C 216.208,332.835 216.208,327.668 221.5,322.5 Z"/></g>
<g><path style="opacity:1" fill="#3093d4" d="M 236.5,329.5 C 254.757,329.916 272.923,330.916 291,332.5C 295.704,332.459 300.37,332.126 305,331.5C 306.28,331.613 307.113,332.28 307.5,333.5C 317.244,334.089 326.91,335.089 336.5,336.5C 336.34,334.801 336.506,333.134 337,331.5C 337.986,332.171 339.153,332.171 340.5,331.5C 338.468,336.451 334.634,338.451 329,337.5C 297.992,335.097 267.158,332.43 236.5,329.5 Z"/></g>
<g><path style="opacity:1" fill="#f5f6f6" d="M 344.5,332.5 C 356.133,332.267 359.133,337.1 353.5,347C 343.899,350.07 339.733,346.57 341,336.5C 342.376,335.295 343.542,333.962 344.5,332.5 Z"/></g>
<g><path style="opacity:1" fill="#23a1f3" d="M 269.5,336.5 C 291.842,337.81 314.176,339.31 336.5,341C 337.833,343 337.833,345 336.5,347C 317.347,362.076 298.014,376.909 278.5,391.5C 275.121,389.42 271.621,389.087 268,390.5C 257.231,374.614 246.731,358.614 236.5,342.5C 236.5,339.833 236.5,337.167 236.5,334.5C 247.435,336.064 258.435,336.73 269.5,336.5 Z"/></g>
<g><path style="opacity:1" fill="#328ecb" d="M 269.5,336.5 C 258.435,336.73 247.435,336.064 236.5,334.5C 236.5,337.167 236.5,339.833 236.5,342.5C 233.067,340.276 232.733,337.609 235.5,334.5C 237.167,334.167 238.833,333.833 240.5,333.5C 250.372,333.965 260.039,334.965 269.5,336.5 Z"/></g>
<g><path style="opacity:1" fill="#24a1f2" d="M 229.5,340.5 C 241.695,356.512 253.195,373.179 264,390.5C 264.667,391.5 264.667,392.5 264,393.5C 262.453,396.701 260.953,399.868 259.5,403C 239.637,408.757 219.803,414.591 200,420.5C 194.551,418.385 193.218,414.719 196,409.5C 204.944,387.278 213.611,364.945 222,342.5C 224.607,341.877 227.107,341.21 229.5,340.5 Z"/></g>
<g><path style="opacity:1" fill="#7b7b7b" d="M 1003.5,328.5 C 1003.17,339.346 1003.51,350.013 1004.5,360.5C 1004.44,361.043 1004.11,361.376 1003.5,361.5C 1002.18,350.34 1002.18,339.34 1003.5,328.5 Z"/></g>
<g><path style="opacity:1" fill="#24a1f2" d="M 338.5,348.5 C 341.312,349.958 344.312,350.958 347.5,351.5C 350.605,351.061 353.605,350.561 356.5,350C 368.133,359.964 379.466,370.298 390.5,381C 389.139,382.584 388.472,384.418 388.5,386.5C 353.5,390.239 318.5,393.739 283.5,397C 280.79,394.649 281.123,392.649 284.5,391C 302.751,377.055 320.751,362.888 338.5,348.5 Z"/></g>
<g><path style="opacity:1" fill="#7e7e7e" d="M 745.5,371.5 C 720.167,371.5 694.833,371.5 669.5,371.5C 669.783,370.711 670.283,370.044 671,369.5C 695.931,370.162 720.764,370.829 745.5,371.5 Z"/></g>
<g><path style="opacity:1" fill="#f0f1f1" d="M 397.5,378.5 C 405.642,378.481 408.808,382.481 407,390.5C 401.67,397.311 396.67,396.977 392,389.5C 391.176,384.482 393.009,380.815 397.5,378.5 Z"/></g>
<g><path style="opacity:1" fill="#090d13" d="M 669.5,371.5 C 694.833,371.5 720.167,371.5 745.5,371.5C 753.352,372.175 758.852,376.175 762,383.5C 762.667,443.5 762.667,503.5 762,563.5C 759.833,569.667 755.667,573.833 749.5,576C 703.167,576.667 656.833,576.667 610.5,576C 604.912,573.414 601.079,569.247 599,563.5C 598.333,523.167 598.333,482.833 599,442.5C 621.898,418.435 645.398,394.768 669.5,371.5 Z"/></g>
<g><path style="opacity:1" fill="#61c9fe" d="M 752.5,377.5 C 755.908,378.578 757.908,380.911 758.5,384.5C 758.822,444.529 758.489,504.529 757.5,564.5C 756.06,568.408 753.393,571.241 749.5,573C 703.5,573.667 657.5,573.667 611.5,573C 606.843,570.856 603.676,567.356 602,562.5C 601.169,522.998 601.335,483.665 602.5,444.5C 621.547,444.935 640.547,444.435 659.5,443C 666.798,439.906 670.798,434.406 671.5,426.5C 672.497,409.675 672.83,392.675 672.5,375.5C 696.836,375.333 721.169,375.5 745.5,376C 747.866,376.44 750.199,376.94 752.5,377.5 Z"/></g>
<g><path style="opacity:1" fill="#74c1e7" d="M 671.5,374.5 C 697.169,374.333 722.835,374.5 748.5,375C 750.32,375.2 751.653,376.034 752.5,377.5C 750.199,376.94 747.866,376.44 745.5,376C 721.169,375.5 696.836,375.333 672.5,375.5C 672.83,392.675 672.497,409.675 671.5,426.5C 671.5,409.167 671.5,391.833 671.5,374.5 Z"/></g>
<g><path style="opacity:1" fill="#1e75e8" d="M 664.5,435.5 C 663.004,438.328 660.671,439.994 657.5,440.5C 640.83,440.667 624.163,440.5 607.5,440C 609.141,438.871 610.141,437.371 610.5,435.5C 617.833,427.5 625.5,419.833 633.5,412.5C 639.09,408.251 644.423,403.584 649.5,398.5C 652.594,395.417 655.261,392.084 657.5,388.5C 660.731,386.78 663.564,384.447 666,381.5C 666.667,398.167 666.667,414.833 666,431.5C 664.812,432.563 664.312,433.897 664.5,435.5 Z"/></g>
<g><path style="opacity:1" fill="#75c1e7" d="M 758.5,384.5 C 759.665,443.665 759.832,502.999 759,562.5C 758.722,563.416 758.222,564.082 757.5,564.5C 758.489,504.529 758.822,444.529 758.5,384.5 Z"/></g>
<g><path style="opacity:1" fill="#212121" d="M 1126.5,386.5 C 1128.61,404.402 1120.95,416.235 1103.5,422C 1036.83,422.667 970.167,422.667 903.5,422C 887.634,416.465 880.134,405.299 881,388.5C 885.695,397.179 892.861,403.012 902.5,406C 969.833,406.667 1037.17,406.667 1104.5,406C 1114.91,402.747 1122.24,396.247 1126.5,386.5 Z"/></g>
<g><path style="opacity:1" fill="#24a0f2" d="M 285.5,404.5 C 287.732,402.805 290.399,401.638 293.5,401C 305.167,400 316.833,399 328.5,398C 333.868,397.338 338.868,396.172 343.5,394.5C 358.669,392.482 374.003,390.816 389.5,389.5C 390.545,395.541 394.212,398.541 400.5,398.5C 402.981,408.382 404.481,418.382 405,428.5C 403.281,430.557 401.281,432.224 399,433.5C 360.958,424.365 323.125,414.698 285.5,404.5 Z"/></g>
<g><path style="opacity:1" fill="#2c6abd" d="M 666.5,378.5 C 667.117,378.611 667.617,378.944 668,379.5C 668.667,396.5 668.667,413.5 668,430.5C 666.97,432.346 665.804,434.013 664.5,435.5C 664.312,433.897 664.812,432.563 666,431.5C 666.667,414.833 666.667,398.167 666,381.5C 663.564,384.447 660.731,386.78 657.5,388.5C 660.5,385.167 663.5,381.833 666.5,378.5 Z"/></g>
<g><path style="opacity:1" fill="#f5f5f5" d="M 269.5,392.5 C 278.153,391.987 281.653,395.987 280,404.5C 275,409.833 270,409.833 265,404.5C 263.474,399.239 264.974,395.239 269.5,392.5 Z"/></g>
<g><path style="opacity:1" fill="#2a6abd" d="M 657.5,388.5 C 655.261,392.084 652.594,395.417 649.5,398.5C 644.423,403.584 639.09,408.251 633.5,412.5C 641.167,404.167 649.167,396.167 657.5,388.5 Z"/></g>
<g><path style="opacity:1" fill="#318ac4" d="M 343.5,394.5 C 338.868,396.172 333.868,397.338 328.5,398C 316.833,399 305.167,400 293.5,401C 290.399,401.638 287.732,402.805 285.5,404.5C 283.824,403.817 283.157,402.483 283.5,400.5C 303.508,398.573 323.508,396.573 343.5,394.5 Z"/></g>
<g><path style="opacity:1" fill="#3998d6" d="M 1113.5,397.5 C 1110.91,399.961 1107.91,401.628 1104.5,402.5C 1039.21,403.493 973.875,403.826 908.5,403.5C 905.505,403.706 902.838,403.04 900.5,401.5C 967.478,402.653 1034.48,402.82 1101.5,402C 1105.59,400.747 1109.59,399.247 1113.5,397.5 Z"/></g>
<g><path style="opacity:1" fill="#011029" d="M 1104.5,402.5 C 1104.39,403.117 1104.06,403.617 1103.5,404C 1038.33,404.832 973.332,404.665 908.5,403.5C 973.875,403.826 1039.21,403.493 1104.5,402.5 Z"/></g>
<g><path style="opacity:1" fill="#23a1f4" d="M 270.5,412.5 C 273.114,443.421 275.781,474.421 278.5,505.5C 277.473,506.848 276.14,507.348 274.5,507C 248.985,481.985 223.319,457.152 197.5,432.5C 198.813,429.752 199.813,426.919 200.5,424C 220.858,417.936 241.191,411.77 261.5,405.5C 263.612,408.941 266.612,411.275 270.5,412.5 Z"/></g>
<g><path style="opacity:1" fill="#23a1f4" d="M 281.5,407.5 C 320.507,416.943 359.507,426.61 398.5,436.5C 398.777,439.448 398.444,442.281 397.5,445C 362.333,466.082 327.333,487.416 292.5,509C 289.578,507.882 286.578,506.715 283.5,505.5C 280.751,475.522 278.084,445.522 275.5,415.5C 275.833,414.167 276.167,412.833 276.5,411.5C 278.786,410.867 280.452,409.534 281.5,407.5 Z"/></g>
<g><path style="opacity:1" fill="#f5f5f5" d="M 184.5,418.5 C 193.158,417.327 196.992,420.994 196,429.5C 193.72,433.768 190.22,435.268 185.5,434C 180.931,431.459 179.431,427.625 181,422.5C 182.376,421.295 183.542,419.962 184.5,418.5 Z"/></g>
<g><path style="opacity:1" fill="#f6f6f6" d="M 405.5,431.5 C 416.055,430.871 419.388,435.371 415.5,445C 407.789,449.463 403.123,447.297 401.5,438.5C 402.429,435.912 403.762,433.579 405.5,431.5 Z"/></g>
<g><path style="opacity:1" fill="#2865b4" d="M 610.5,435.5 C 610.141,437.371 609.141,438.871 607.5,440C 624.163,440.5 640.83,440.667 657.5,440.5C 640.341,441.497 623.008,441.83 605.5,441.5C 606.091,439.181 607.758,437.181 610.5,435.5 Z"/></g>
<g><path style="opacity:1" fill="#3090d0" d="M 270.5,412.5 C 271.787,413.871 272.453,415.705 272.5,418C 274.514,441.182 276.681,464.348 279,487.5C 279.819,493.681 279.653,499.681 278.5,505.5C 275.781,474.421 273.114,443.421 270.5,412.5 Z"/></g>
<g><path style="opacity:1" fill="#030819" d="M 671.5,374.5 C 671.5,391.833 671.5,409.167 671.5,426.5C 670.798,434.406 666.798,439.906 659.5,443C 640.547,444.435 621.547,444.935 602.5,444.5C 611.324,443.67 620.324,443.17 629.5,443C 621.323,442.829 613.323,442.329 605.5,441.5C 623.008,441.83 640.341,441.497 657.5,440.5C 660.671,439.994 663.004,438.328 664.5,435.5C 665.804,434.013 666.97,432.346 668,430.5C 668.667,413.5 668.667,396.5 668,379.5C 667.617,378.944 667.117,378.611 666.5,378.5C 667.945,376.937 669.611,375.604 671.5,374.5 Z"/></g>
<g><path style="opacity:1" fill="#2667bd" d="M 1045.5,497.5 C 1041.75,496.268 1038.09,494.768 1034.5,493C 969.501,492.5 904.501,492.333 839.5,492.5C 839.23,529.008 839.563,565.508 840.5,602C 840.162,611.196 838.162,620.029 834.5,628.5C 834.043,629.298 833.376,629.631 832.5,629.5C 834.271,625.621 835.771,621.621 837,617.5C 837.5,575.501 837.667,533.501 837.5,491.5C 903.501,491.333 969.501,491.5 1035.5,492C 1039.35,493.086 1042.68,494.919 1045.5,497.5 Z"/></g>
<g><path style="opacity:1" fill="#1e75e9" d="M 534.5,625.5 C 540.298,636.298 549.298,642.298 561.5,643.5C 562.489,666.092 562.822,688.758 562.5,711.5C 560.873,726.129 552.873,735.129 538.5,738.5C 505.833,738.5 473.167,738.5 440.5,738.5C 440.812,716.14 440.479,693.807 439.5,671.5C 440.187,669.823 440.854,668.156 441.5,666.5C 448.376,659.054 455.709,652.054 463.5,645.5C 470.85,651.521 477.85,657.854 484.5,664.5C 485.739,658.684 487.072,653.018 488.5,647.5C 489.616,644.656 490.616,641.656 491.5,638.5C 494.239,623.055 497.073,607.722 500,592.5C 500.526,585.829 501.026,579.163 501.5,572.5C 497.486,572.334 493.486,572.501 489.5,573C 470.226,576.811 450.892,580.144 431.5,583C 429.498,584.019 427.498,584.852 425.5,585.5C 419.609,586.989 413.609,588.156 407.5,589C 415.407,595.405 422.407,602.572 428.5,610.5C 418.479,620.854 408.479,631.187 398.5,641.5C 397.833,641.833 397.167,642.167 396.5,642.5C 375.292,644.43 353.959,645.097 332.5,644.5C 332.5,619.167 332.5,593.833 332.5,568.5C 374.67,568.832 416.67,568.499 458.5,567.5C 459.913,566.065 461.58,565.065 463.5,564.5C 473.167,560.833 479.833,554.167 483.5,544.5C 484.79,543.942 485.623,542.942 486,541.5C 486.5,530.505 486.667,519.505 486.5,508.5C 500.5,508.5 514.5,508.5 528.5,508.5C 528.333,543.168 528.5,577.835 529,612.5C 529.988,615.424 530.654,618.424 531,621.5C 531.949,623.093 533.115,624.426 534.5,625.5 Z"/></g>
<g><path style="opacity:1" fill="#164988" d="M 485.5,507.5 C 500.324,506.504 515.324,506.171 530.5,506.5C 531.167,506.5 531.5,506.833 531.5,507.5C 531.5,542.5 531.5,577.5 531.5,612.5C 530.502,577.671 530.168,542.671 530.5,507.5C 515.5,507.5 500.5,507.5 485.5,507.5 Z"/></g>
<g><path style="opacity:1" fill="#f5f6f5" d="M 279.5,508.5 C 286.831,508 290.331,511.333 290,518.5C 288.171,524.158 284.337,525.992 278.5,524C 272.939,518.353 273.272,513.186 279.5,508.5 Z"/></g>
<g><path style="opacity:1" fill="#032449" d="M 1058.5,519.5 C 1059.48,522.287 1059.81,525.287 1059.5,528.5C 1048.83,528.5 1038.17,528.5 1027.5,528.5C 1037.65,527.506 1047.99,527.172 1058.5,527.5C 1058.5,524.833 1058.5,522.167 1058.5,519.5 Z"/></g>
<g><path style="opacity:1" fill="#212121" d="M 475.5,537.5 C 477.796,535.599 479.629,533.266 481,530.5C 482.167,544.823 476.334,555.156 463.5,561.5C 460.657,562.771 457.657,563.604 454.5,564C 356.833,564.667 259.167,564.667 161.5,564C 143.312,560.153 134.479,548.987 135,530.5C 140.89,540.713 149.723,546.546 161.5,548C 258.833,548.667 356.167,548.667 453.5,548C 462.335,547.414 469.669,543.914 475.5,537.5 Z"/></g>
<g><path style="opacity:1" fill="#7ffdd2" d="M 1139.5,537.5 C 1141.24,541.985 1143.74,545.985 1147,549.5C 1148,552.5 1149,555.5 1150,558.5C 1150.5,590.498 1150.67,622.498 1150.5,654.5C 1148.49,663.501 1143.49,670.168 1135.5,674.5C 1130.37,676.018 1125.04,676.851 1119.5,677C 1087.49,677.773 1055.49,677.606 1023.5,676.5C 1019.48,675.409 1015.98,673.409 1013,670.5C 1008.82,665.811 1005.99,660.478 1004.5,654.5C 1004.17,621.827 1004.5,589.16 1005.5,556.5C 1006.72,553.191 1007.72,549.858 1008.5,546.5C 1013.02,538.168 1020.02,533.002 1029.5,531C 1060.5,530.333 1091.5,530.333 1122.5,531C 1128.71,531.901 1134.38,534.068 1139.5,537.5 Z"/></g>
<g><path style="opacity:1" fill="#3998d8" d="M 151.5,541.5 C 154.216,541.678 156.883,542.178 159.5,543C 259.166,543.5 358.833,543.667 458.5,543.5C 358.668,544.499 258.668,544.833 158.5,544.5C 155.843,544.065 153.509,543.065 151.5,541.5 Z"/></g>
<g><path style="opacity:1" fill="#0b1a2d" d="M 464.5,542.5 C 462.52,544.105 460.187,545.272 457.5,546C 358.167,546.667 258.833,546.667 159.5,546C 158.944,545.617 158.611,545.117 158.5,544.5C 258.668,544.833 358.668,544.499 458.5,543.5C 460.435,542.85 462.435,542.517 464.5,542.5 Z"/></g>
<g><path style="opacity:1" fill="#2673d8" d="M 485.5,507.5 C 500.5,507.5 515.5,507.5 530.5,507.5C 530.168,542.671 530.502,577.671 531.5,612.5C 531.126,616.647 532.126,620.314 534.5,623.5C 534.5,624.167 534.5,624.833 534.5,625.5C 533.115,624.426 531.949,623.093 531,621.5C 530.654,618.424 529.988,615.424 529,612.5C 528.5,577.835 528.333,543.168 528.5,508.5C 514.5,508.5 500.5,508.5 486.5,508.5C 486.667,519.505 486.5,530.505 486,541.5C 485.623,542.942 484.79,543.942 483.5,544.5C 485.283,532.251 485.95,519.918 485.5,507.5 Z"/></g>
<g><path style="opacity:1" fill="#000518" d="M 531.5,507.5 C 532.333,543.331 532.833,579.331 533,615.5C 533.278,616.416 533.778,617.082 534.5,617.5C 534.5,619.5 534.5,621.5 534.5,623.5C 532.126,620.314 531.126,616.647 531.5,612.5C 531.5,577.5 531.5,542.5 531.5,507.5 Z"/></g>
<g><path style="opacity:1" fill="#88e9c8" d="M 1139.5,537.5 C 1145.07,541.915 1148.9,547.582 1151,554.5C 1151.83,588.003 1151.66,621.336 1150.5,654.5C 1150.67,622.498 1150.5,590.498 1150,558.5C 1149,555.5 1148,552.5 1147,549.5C 1143.74,545.985 1141.24,541.985 1139.5,537.5 Z"/></g>
<g><path style="opacity:1" fill="#71c8ab" d="M 1008.5,546.5 C 1007.72,549.858 1006.72,553.191 1005.5,556.5C 1004.5,589.16 1004.17,621.827 1004.5,654.5C 1003.34,621.669 1003.17,588.669 1004,555.5C 1004.66,551.965 1006.16,548.965 1008.5,546.5 Z"/></g>
<g><path style="opacity:1" fill="#111814" d="M 1067.5,560.5 C 1095.84,558.023 1114,570.357 1122,597.5C 1122.29,631.539 1105.46,648.705 1071.5,649C 1043.08,642.028 1030.58,623.862 1034,594.5C 1039.38,577.291 1050.54,565.958 1067.5,560.5 Z"/></g>
<g><path style="opacity:1" fill="#fbfbfb" d="M 1068.5,563.5 C 1093.17,561.073 1109.67,571.406 1118,594.5C 1121.39,622.227 1109.56,639.394 1082.5,646C 1058.98,646.827 1043.82,635.994 1037,613.5C 1034.13,588.219 1044.63,571.552 1068.5,563.5 Z"/></g>
<g><path style="opacity:1" fill="#fcfcfc" d="M 438.5,665.5 C 437.85,665.804 437.183,666.137 436.5,666.5C 430.032,654.599 420.032,648.265 406.5,647.5C 403.833,646.833 401.167,646.167 398.5,645.5C 400.167,644.5 401.5,643.167 402.5,641.5C 413.146,631.521 423.479,621.188 433.5,610.5C 427.348,603.848 421.015,597.348 414.5,591C 442.137,585.949 469.804,581.116 497.5,576.5C 492.512,604.125 487.678,631.791 483,659.5C 476.652,652.985 470.152,646.652 463.5,640.5C 454.812,648.521 446.479,656.854 438.5,665.5 Z"/></g>
<g><path style="opacity:1" fill="#121212" d="M 1074.5,579.5 C 1082.29,582.903 1089.29,587.569 1095.5,593.5C 1090.17,597.167 1084.83,600.833 1079.5,604.5C 1083.99,607.914 1088.66,611.081 1093.5,614C 1094.52,615.049 1094.68,616.216 1094,617.5C 1089.17,621 1084.33,624.5 1079.5,628C 1077.98,629.009 1076.31,629.509 1074.5,629.5C 1074.83,622.468 1074.5,615.468 1073.5,608.5C 1069.83,611 1066.17,613.5 1062.5,616C 1059.98,615.291 1059.98,613.957 1062.5,612C 1066.17,609.667 1069.83,607.333 1073.5,605C 1069.68,601.921 1065.68,599.088 1061.5,596.5C 1060.61,595.675 1060.28,594.675 1060.5,593.5C 1065.33,595.471 1069.83,598.138 1074,601.5C 1074.5,594.174 1074.67,586.841 1074.5,579.5 Z"/></g>
<g><path style="opacity:1" fill="#ebebeb" d="M 1077.5,584.5 C 1081.93,587.084 1086.27,589.918 1090.5,593C 1086.05,595.783 1081.88,598.95 1078,602.5C 1077.5,596.509 1077.33,590.509 1077.5,584.5 Z"/></g>
<g><path style="opacity:1" fill="#2a68bb" d="M 488.5,647.5 C 492.368,622.825 496.368,598.158 500.5,573.5C 475.472,577.314 450.472,581.314 425.5,585.5C 427.498,584.852 429.498,584.019 431.5,583C 450.892,580.144 470.226,576.811 489.5,573C 493.486,572.501 497.486,572.334 501.5,572.5C 501.026,579.163 500.526,585.829 500,592.5C 497.073,607.722 494.239,623.055 491.5,638.5C 490.616,641.656 489.616,644.656 488.5,647.5 Z"/></g>
<g><path style="opacity:1" fill="#0e0f18" d="M 488.5,647.5 C 487.072,653.018 485.739,658.684 484.5,664.5C 477.85,657.854 470.85,651.521 463.5,645.5C 455.709,652.054 448.376,659.054 441.5,666.5C 441.167,666.5 440.833,666.5 440.5,666.5C 440.158,665.662 439.492,665.328 438.5,665.5C 446.479,656.854 454.812,648.521 463.5,640.5C 470.152,646.652 476.652,652.985 483,659.5C 487.678,631.791 492.512,604.125 497.5,576.5C 469.804,581.116 442.137,585.949 414.5,591C 421.015,597.348 427.348,603.848 433.5,610.5C 423.479,621.188 413.146,631.521 402.5,641.5C 401.368,640.646 400.035,640.646 398.5,641.5C 408.479,631.187 418.479,620.854 428.5,610.5C 422.407,602.572 415.407,595.405 407.5,589C 413.609,588.156 419.609,586.989 425.5,585.5C 450.472,581.314 475.472,577.314 500.5,573.5C 496.368,598.158 492.368,622.825 488.5,647.5 Z"/></g>
<g><path style="opacity:1" fill="#fcfcfc" d="M 860.5,596.5 C 870.833,596.5 881.167,596.5 891.5,596.5C 891.172,608.678 891.505,620.678 892.5,632.5C 892.859,634.371 893.859,635.871 895.5,637C 912.5,637.667 929.5,637.667 946.5,637C 948.141,635.871 949.141,634.371 949.5,632.5C 950.495,620.678 950.828,608.678 950.5,596.5C 951.5,596.5 952.5,596.5 953.5,596.5C 956.016,596.755 958.35,597.589 960.5,599C 970.667,609.167 980.833,619.333 991,629.5C 991.333,630.5 991.667,631.5 992,632.5C 992.667,664.167 992.667,695.833 992,727.5C 989.484,734.52 984.651,738.854 977.5,740.5C 972.833,740.5 968.167,740.5 963.5,740.5C 963.667,720.164 963.5,699.831 963,679.5C 961.833,678.333 960.667,677.167 959.5,676C 933.833,675.333 908.167,675.333 882.5,676C 881.333,677.167 880.167,678.333 879,679.5C 878.5,699.831 878.333,720.164 878.5,740.5C 870.948,741.127 863.615,740.294 856.5,738C 852.072,734.908 849.239,730.741 848,725.5C 847.333,687.167 847.333,648.833 848,610.5C 849.892,603.776 854.059,599.109 860.5,596.5 Z"/></g>
<g><path style="opacity:1" fill="#0a1a3d" d="M 895.5,596.5 C 895.5,596.167 895.5,595.833 895.5,595.5C 912.5,595.5 929.5,595.5 946.5,595.5C 946.5,607.833 946.5,620.167 946.5,632.5C 946.389,633.117 946.056,633.617 945.5,634C 929.167,634.667 912.833,634.667 896.5,634C 895.748,633.329 895.414,632.496 895.5,631.5C 896.289,631.783 896.956,632.283 897.5,633C 913.167,633.667 928.833,633.667 944.5,633C 945.488,620.914 945.822,608.747 945.5,596.5C 928.833,596.5 912.167,596.5 895.5,596.5 Z"/></g>
<g><path style="opacity:1" fill="#0c0e18" d="M 863.5,594.5 C 894.329,593.502 925.329,593.169 956.5,593.5C 958.14,594.32 959.807,595.153 961.5,596C 969.702,604.369 978.035,612.536 986.5,620.5C 989.498,623.667 992.331,627 995,630.5C 995.819,664.208 995.653,697.875 994.5,731.5C 991.451,736.216 987.451,739.882 982.5,742.5C 942.373,743.824 902.373,743.824 862.5,742.5C 900.168,742.667 937.835,742.5 975.5,742C 976.416,741.722 977.082,741.222 977.5,740.5C 984.651,738.854 989.484,734.52 992,727.5C 992.667,695.833 992.667,664.167 992,632.5C 991.667,631.5 991.333,630.5 991,629.5C 980.833,619.333 970.667,609.167 960.5,599C 958.35,597.589 956.016,596.755 953.5,596.5C 952.167,595.167 950.833,595.167 949.5,596.5C 947.84,608.299 946.84,620.299 946.5,632.5C 946.5,620.167 946.5,607.833 946.5,595.5C 929.5,595.5 912.5,595.5 895.5,595.5C 885.013,594.506 874.346,594.172 863.5,594.5 Z"/></g>
<g><path style="opacity:1" fill="#212121" d="M 534.5,617.5 C 534.335,613.818 534.501,610.152 535,606.5C 541.066,617.793 550.566,623.96 563.5,625C 644.167,625.667 724.833,625.667 805.5,625C 817.989,623.848 827.489,618.014 834,607.5C 835.04,624.254 827.54,635.087 811.5,640C 726.833,640.667 642.167,640.667 557.5,640C 546.026,636.359 538.359,628.859 534.5,617.5 Z"/></g>
<g><path style="opacity:1" fill="#bebfbe" d="M 953.5,596.5 C 952.5,596.5 951.5,596.5 950.5,596.5C 950.828,608.678 950.495,620.678 949.5,632.5C 949.5,620.5 949.5,608.5 949.5,596.5C 950.833,595.167 952.167,595.167 953.5,596.5 Z"/></g>
<g><path style="opacity:1" fill="#ededed" d="M 1077.5,607.5 C 1081.95,610.111 1086.28,612.944 1090.5,616C 1086.24,619.045 1082.08,622.212 1078,625.5C 1077.5,619.509 1077.33,613.509 1077.5,607.5 Z"/></g>
<g><path style="opacity:1" fill="#1e75e9" d="M 1045.5,497.5 C 1053.42,502.661 1057.75,509.994 1058.5,519.5C 1058.5,522.167 1058.5,524.833 1058.5,527.5C 1047.99,527.172 1037.65,527.506 1027.5,528.5C 1013.05,532.615 1004.05,541.949 1000.5,556.5C 999.883,556.611 999.383,556.944 999,557.5C 998.5,580.164 998.333,602.831 998.5,625.5C 996.099,624.951 993.765,624.118 991.5,623C 991.906,621.197 991.406,619.364 990,617.5C 989.517,618.448 989.351,619.448 989.5,620.5C 988.5,620.5 987.5,620.5 986.5,620.5C 978.035,612.536 969.702,604.369 961.5,596C 959.807,595.153 958.14,594.32 956.5,593.5C 924.669,592.336 892.669,592.169 860.5,593C 859.263,593.232 858.263,593.732 857.5,594.5C 852.754,596.697 849.087,600.03 846.5,604.5C 845.521,605.765 844.521,607.099 843.5,608.5C 842.167,648.167 842.167,687.833 843.5,727.5C 844.778,731.043 846.778,734.043 849.5,736.5C 849.539,737.583 849.873,738.583 850.5,739.5C 853.534,741.597 856.868,743.097 860.5,744C 900.833,744.667 941.167,744.667 981.5,744C 982.056,743.617 982.389,743.117 982.5,742.5C 987.451,739.882 991.451,736.216 994.5,731.5C 996.195,729.268 997.362,726.601 998,723.5C 998.167,711.486 998.667,699.486 999.5,687.5C 1001.32,686.253 1003.32,685.586 1005.5,685.5C 1008.88,688.878 1012.54,691.878 1016.5,694.5C 1017.43,695.315 1018.43,696.148 1019.5,697C 1023.19,698.182 1026.85,699.348 1030.5,700.5C 1039.23,701.179 1048.07,701.846 1057,702.5C 1057.81,741.189 1057.64,779.856 1056.5,818.5C 1056.24,821.016 1055.41,823.35 1054,825.5C 1051.22,829.453 1047.72,832.453 1043.5,834.5C 1039.17,835.62 1034.83,836.787 1030.5,838C 957.833,838.667 885.167,838.667 812.5,838C 807.856,836.971 803.19,836.138 798.5,835.5C 788.688,830.556 783.354,822.556 782.5,811.5C 782.5,784.167 782.5,756.833 782.5,729.5C 787.034,729.733 791.368,728.9 795.5,727C 797.544,726.502 798.878,725.335 799.5,723.5C 803.1,721.08 806.6,718.413 810,715.5C 810.945,715.905 811.612,716.572 812,717.5C 812.442,715.321 813.442,714.655 815,715.5C 815.167,715.167 815.333,714.833 815.5,714.5C 814.311,713.571 812.978,713.238 811.5,713.5C 812.86,708.591 813.86,703.591 814.5,698.5C 814.471,695.731 813.805,693.397 812.5,691.5C 809.661,679.798 802.661,671.798 791.5,667.5C 788.877,665.735 785.877,665.068 782.5,665.5C 782.5,658.833 782.5,652.167 782.5,645.5C 793.544,645.819 804.544,645.319 815.5,644C 818.999,642.335 822.666,641.002 826.5,640C 827.277,637.372 828.277,634.872 829.5,632.5C 830.167,631.167 831.167,630.167 832.5,629.5C 833.376,629.631 834.043,629.298 834.5,628.5C 838.162,620.029 840.162,611.196 840.5,602C 839.563,565.508 839.23,529.008 839.5,492.5C 904.501,492.333 969.501,492.5 1034.5,493C 1038.09,494.768 1041.75,496.268 1045.5,497.5 Z"/></g>
<g><path style="opacity:1" fill="#010d2e" d="M 956.5,593.5 C 925.329,593.169 894.329,593.502 863.5,594.5C 861.5,594.5 859.5,594.5 857.5,594.5C 858.263,593.732 859.263,593.232 860.5,593C 892.669,592.169 924.669,592.336 956.5,593.5 Z"/></g>
<g><path style="opacity:1" fill="#2a71d0" d="M 846.5,604.5 C 846.162,606.854 845.662,609.187 845,611.5C 844.333,649.167 844.333,686.833 845,724.5C 846.219,728.662 847.719,732.662 849.5,736.5C 846.778,734.043 844.778,731.043 843.5,727.5C 842.167,687.833 842.167,648.167 843.5,608.5C 844.521,607.099 845.521,605.765 846.5,604.5 Z"/></g>
<g><path style="opacity:1" fill="#286cc8" d="M 1000.5,556.5 C 1000.33,595.501 1000.5,634.501 1001,673.5C 1002.51,677.566 1004.01,681.566 1005.5,685.5C 1003.32,685.586 1001.32,686.253 999.5,687.5C 998.667,699.486 998.167,711.486 998,723.5C 997.362,726.601 996.195,729.268 994.5,731.5C 995.653,697.875 995.819,664.208 995,630.5C 992.331,627 989.498,623.667 986.5,620.5C 987.5,620.5 988.5,620.5 989.5,620.5C 989.351,619.448 989.517,618.448 990,617.5C 991.406,619.364 991.906,621.197 991.5,623C 993.765,624.118 996.099,624.951 998.5,625.5C 998.333,602.831 998.5,580.164 999,557.5C 999.383,556.944 999.883,556.611 1000.5,556.5 Z"/></g>
<g><path style="opacity:1" fill="#2868bd" d="M 458.5,567.5 C 416.67,568.499 374.67,568.832 332.5,568.5C 332.5,593.833 332.5,619.167 332.5,644.5C 353.959,645.097 375.292,644.43 396.5,642.5C 395.524,643.815 394.524,645.148 393.5,646.5C 372.511,647.5 351.511,647.833 330.5,647.5C 330.5,620.833 330.5,594.167 330.5,567.5C 373.167,567.5 415.833,567.5 458.5,567.5 Z"/></g>
<g><path style="opacity:1" fill="#235ca9" d="M 829.5,632.5 C 828.277,634.872 827.277,637.372 826.5,640C 822.666,641.002 818.999,642.335 815.5,644C 804.544,645.319 793.544,645.819 782.5,645.5C 782.5,652.167 782.5,658.833 782.5,665.5C 785.877,665.068 788.877,665.735 791.5,667.5C 788.193,666.949 784.86,666.616 781.5,666.5C 781.5,658.833 781.5,651.167 781.5,643.5C 791.839,643.666 802.172,643.5 812.5,643C 819.168,641.005 824.834,637.505 829.5,632.5 Z"/></g>
<g><path style="opacity:1" fill="#595a59" d="M 398.5,645.5 C 401.167,646.167 403.833,646.833 406.5,647.5C 403.428,647.817 400.428,647.484 397.5,646.5C 397.624,645.893 397.957,645.56 398.5,645.5 Z"/></g>
<g><path style="opacity:1" fill="#144a8e" d="M 561.5,643.5 C 562.832,654.48 563.499,665.813 563.5,677.5C 563.5,689.005 563.167,700.338 562.5,711.5C 562.822,688.758 562.489,666.092 561.5,643.5 Z"/></g>
<g><path style="opacity:1" fill="#7ffdd2" d="M 434.5,672.5 C 434.667,723.501 434.5,774.501 434,825.5C 432.041,829.837 430.208,834.17 428.5,838.5C 426.363,841.973 423.363,844.306 419.5,845.5C 415.476,845.948 411.476,846.614 407.5,847.5C 360.17,848.667 312.837,848.833 265.5,848C 261.833,847 258.167,846 254.5,845C 253.853,843.391 253.02,841.891 252,840.5C 251.29,841.973 250.124,842.64 248.5,842.5C 242.709,838.28 238.876,832.614 237,825.5C 236.333,774.833 236.333,724.167 237,673.5C 241.155,660.342 249.989,652.509 263.5,650C 311.5,649.333 359.5,649.333 407.5,650C 419.669,651.519 428.503,657.685 434,668.5C 434.49,669.793 434.657,671.127 434.5,672.5 Z"/></g>
<g><path style="opacity:1" fill="#212121" d="M 1003.5,663.5 C 1009.95,673.901 1019.29,680.068 1031.5,682C 1062.17,682.667 1092.83,682.667 1123.5,682C 1135.99,680.68 1145.15,674.513 1151,663.5C 1151.26,680.235 1143.42,691.068 1127.5,696C 1094.17,696.667 1060.83,696.667 1027.5,696C 1011.71,691.033 1003.71,680.199 1003.5,663.5 Z"/></g>
<g><path style="opacity:1" fill="#212121" d="M 774.5,669.5 C 792.154,667.4 803.654,674.734 809,691.5C 809.7,715.133 798.2,726.3 774.5,725C 755.749,717.327 749.582,703.827 756,684.5C 760.567,677.424 766.733,672.424 774.5,669.5 Z"/></g>
<g><path style="opacity:1" fill="#090a13" d="M 857.5,594.5 C 859.5,594.5 861.5,594.5 863.5,594.5C 874.346,594.172 885.013,594.506 895.5,595.5C 895.5,595.833 895.5,596.167 895.5,596.5C 895.5,608.167 895.5,619.833 895.5,631.5C 895.414,632.496 895.748,633.329 896.5,634C 912.833,634.667 929.167,634.667 945.5,634C 946.056,633.617 946.389,633.117 946.5,632.5C 946.84,620.299 947.84,608.299 949.5,596.5C 949.5,608.5 949.5,620.5 949.5,632.5C 949.141,634.371 948.141,635.871 946.5,637C 929.5,637.667 912.5,637.667 895.5,637C 893.859,635.871 892.859,634.371 892.5,632.5C 892.5,620.167 892.5,607.833 892.5,595.5C 881.654,595.172 870.987,595.506 860.5,596.5C 854.059,599.109 849.892,603.776 848,610.5C 847.333,648.833 847.333,687.167 848,725.5C 849.239,730.741 852.072,734.908 856.5,738C 863.615,740.294 870.948,741.127 878.5,740.5C 878.333,720.164 878.5,699.831 879,679.5C 880.167,678.333 881.333,677.167 882.5,676C 908.167,675.333 933.833,675.333 959.5,676C 960.667,677.167 961.833,678.333 963,679.5C 963.5,699.831 963.667,720.164 963.5,740.5C 968.167,740.5 972.833,740.5 977.5,740.5C 977.082,741.222 976.416,741.722 975.5,742C 937.835,742.5 900.168,742.667 862.5,742.5C 857.303,742.287 852.969,740.287 849.5,736.5C 847.719,732.662 846.219,728.662 845,724.5C 844.333,686.833 844.333,649.167 845,611.5C 845.662,609.187 846.162,606.854 846.5,604.5C 849.087,600.03 852.754,596.697 857.5,594.5 Z"/></g>
<g><path style="opacity:1" fill="#051d59" d="M 895.5,596.5 C 912.167,596.5 928.833,596.5 945.5,596.5C 945.822,608.747 945.488,620.914 944.5,633C 928.833,633.667 913.167,633.667 897.5,633C 896.956,632.283 896.289,631.783 895.5,631.5C 895.5,619.833 895.5,608.167 895.5,596.5 Z"/></g>
<g><path style="opacity:1" fill="#c3c3c3" d="M 860.5,596.5 C 870.987,595.506 881.654,595.172 892.5,595.5C 892.5,607.833 892.5,620.167 892.5,632.5C 891.505,620.678 891.172,608.678 891.5,596.5C 881.167,596.5 870.833,596.5 860.5,596.5 Z"/></g>
<g><path style="opacity:1" fill="#91efcf" d="M 1135.5,674.5 C 1133.27,676.446 1130.6,677.613 1127.5,678C 1094.17,678.667 1060.83,678.667 1027.5,678C 1025.94,677.79 1024.61,677.29 1023.5,676.5C 1055.49,677.606 1087.49,677.773 1119.5,677C 1125.04,676.851 1130.37,676.018 1135.5,674.5 Z"/></g>
<g><path style="opacity:1" fill="#2371d9" d="M 629.5,689.5 C 642.15,689.652 644.817,694.818 637.5,705C 628.475,706.481 624.641,702.648 626,693.5C 627.376,692.295 628.542,690.962 629.5,689.5 Z"/></g>
<g><path style="opacity:1" fill="#235eac" d="M 1030.5,700.5 C 1040.17,700.5 1049.83,700.5 1059.5,700.5C 1059.5,737.5 1059.5,774.5 1059.5,811.5C 1058.65,813.888 1057.65,816.221 1056.5,818.5C 1057.64,779.856 1057.81,741.189 1057,702.5C 1048.07,701.846 1039.23,701.179 1030.5,700.5 Z"/></g>
<g><path style="opacity:1" fill="#060a1f" d="M 1016.5,694.5 C 1019.86,695.285 1023.19,696.285 1026.5,697.5C 1037.73,698.177 1048.89,698.843 1060,699.5C 1060.83,737.002 1060.66,774.336 1059.5,811.5C 1059.5,774.5 1059.5,737.5 1059.5,700.5C 1049.83,700.5 1040.17,700.5 1030.5,700.5C 1026.85,699.348 1023.19,698.182 1019.5,697C 1018.43,696.148 1017.43,695.315 1016.5,694.5 Z"/></g>
<g><path style="opacity:1" fill="#266dcc" d="M 812.5,691.5 C 813.805,693.397 814.471,695.731 814.5,698.5C 813.86,703.591 812.86,708.591 811.5,713.5C 812.978,713.238 814.311,713.571 815.5,714.5C 815.333,714.833 815.167,715.167 815,715.5C 813.442,714.655 812.442,715.321 812,717.5C 811.612,716.572 810.945,715.905 810,715.5C 806.6,718.413 803.1,721.08 799.5,723.5C 809.357,715.113 813.691,704.447 812.5,691.5 Z"/></g>
<g><path style="opacity:1" fill="#070e0e" d="M 370.5,806.5 C 346.134,806.804 321.801,806.471 297.5,805.5C 294.444,803.737 292.611,801.07 292,797.5C 291.333,776.167 291.333,754.833 292,733.5C 305.027,721.561 317.527,709.061 329.5,696C 343.833,695.333 358.167,695.333 372.5,696C 375.562,697.061 378.062,698.894 380,701.5C 380.667,733.833 380.667,766.167 380,798.5C 378.535,803.154 375.368,805.821 370.5,806.5 Z"/></g>
<g><path style="opacity:1" fill="#65c7f8" d="M 323.5,732.5 C 315.316,732.826 307.316,732.492 299.5,731.5C 308.798,721.702 318.298,712.035 328,702.5C 328.667,711.5 328.667,720.5 328,729.5C 327.082,731.376 325.582,732.376 323.5,732.5 Z"/></g>
<g><path style="opacity:1" fill="#fefefe" d="M 371.5,699.5 C 374.148,699.738 375.982,701.072 377,703.5C 377.667,735.5 377.667,767.5 377,799.5C 375.833,800.667 374.667,801.833 373.5,803C 348.493,803.833 323.493,803.666 298.5,802.5C 296.364,801.528 295.197,799.861 295,797.5C 294.5,777.169 294.333,756.836 294.5,736.5C 303.839,736.666 313.173,736.5 322.5,736C 327.739,735.404 330.739,732.57 331.5,727.5C 332.494,718.348 332.827,709.015 332.5,699.5C 345.5,699.5 358.5,699.5 371.5,699.5 Z"/></g>
<g><path style="opacity:1" fill="#747474" d="M 371.5,699.5 C 358.5,699.5 345.5,699.5 332.5,699.5C 332.827,709.015 332.494,718.348 331.5,727.5C 331.5,717.833 331.5,708.167 331.5,698.5C 345.01,698.171 358.344,698.504 371.5,699.5 Z"/></g>
<g><path style="opacity:1" fill="#1f59a4" d="M 799.5,723.5 C 798.878,725.335 797.544,726.502 795.5,727C 791.368,728.9 787.034,729.733 782.5,729.5C 782.5,756.833 782.5,784.167 782.5,811.5C 781.502,784.005 781.169,756.338 781.5,728.5C 787.951,728.388 793.951,726.721 799.5,723.5 Z"/></g>
<g><path style="opacity:1" fill="#35749d" d="M 299.5,731.5 C 307.316,732.492 315.316,732.826 323.5,732.5C 315.01,733.657 306.343,733.824 297.5,733C 298.044,732.283 298.711,731.783 299.5,731.5 Z"/></g>
<g><path style="opacity:1" fill="#7dd5b7" d="M 434.5,672.5 C 435.268,673.263 435.768,674.263 436,675.5C 436.667,724.833 436.667,774.167 436,823.5C 435.056,829.389 432.556,834.389 428.5,838.5C 430.208,834.17 432.041,829.837 434,825.5C 434.5,774.501 434.667,723.501 434.5,672.5 Z"/></g>
<g><path style="opacity:1" fill="#2867b9" d="M 440.5,666.5 C 440.833,666.5 441.167,666.5 441.5,666.5C 440.854,668.156 440.187,669.823 439.5,671.5C 440.479,693.807 440.812,716.14 440.5,738.5C 473.167,738.5 505.833,738.5 538.5,738.5C 505.671,739.498 472.671,739.832 439.5,739.5C 439.667,719.831 439.5,700.164 439,680.5C 438.639,677.475 438.139,674.475 437.5,671.5C 438.092,669.577 439.092,667.911 440.5,666.5 Z"/></g>
<g><path style="opacity:1" fill="#061838" d="M 958.5,679.5 C 933.592,679.172 908.759,679.506 884,680.5C 882.371,699.768 882.038,719.102 883,738.5C 895.593,739.162 908.26,739.495 921,739.5C 933.74,739.495 946.407,739.162 959,738.5C 959.5,718.836 959.667,699.169 959.5,679.5C 960.497,699.66 960.83,719.993 960.5,740.5C 934.259,740.828 908.092,740.495 882,739.5C 881.333,719.833 881.333,700.167 882,680.5C 882.5,680 883,679.5 883.5,679C 908.67,678.17 933.67,678.337 958.5,679.5 Z"/></g>
<g><path style="opacity:1" fill="#051d59" d="M 958.5,679.5 C 958.833,679.5 959.167,679.5 959.5,679.5C 959.667,699.169 959.5,718.836 959,738.5C 946.407,739.162 933.74,739.495 921,739.5C 908.26,739.495 895.593,739.162 883,738.5C 882.038,719.102 882.371,699.768 884,680.5C 908.759,679.506 933.592,679.172 958.5,679.5 Z"/></g>
<g><path style="opacity:1" fill="#2a69bc" d="M 849.5,736.5 C 852.969,740.287 857.303,742.287 862.5,742.5C 902.373,743.824 942.373,743.824 982.5,742.5C 982.389,743.117 982.056,743.617 981.5,744C 941.167,744.667 900.833,744.667 860.5,744C 856.868,743.097 853.534,741.597 850.5,739.5C 849.873,738.583 849.539,737.583 849.5,736.5 Z"/></g>
<g><path style="opacity:1" fill="#74b39d" d="M 297.5,805.5 C 321.801,806.471 346.134,806.804 370.5,806.5C 347.004,807.663 323.337,807.83 299.5,807C 298.584,806.722 297.918,806.222 297.5,805.5 Z"/></g>
<g><path style="opacity:1" fill="#212121" d="M 236.5,834.5 C 243.066,845.962 253.066,852.129 266.5,853C 312.833,853.667 359.167,853.667 405.5,853C 413.399,852.758 420.399,850.258 426.5,845.5C 430.139,842.207 433.306,838.54 436,834.5C 436.819,851.688 428.986,862.855 412.5,868C 361.5,868.667 310.5,868.667 259.5,868C 243.816,862.462 236.149,851.295 236.5,834.5 Z"/></g>
<g><path style="opacity:1" fill="#2560b1" d="M 1043.5,834.5 C 1040.9,836.669 1037.9,838.169 1034.5,839C 957.833,839.667 881.167,839.667 804.5,839C 802.382,837.918 800.382,836.751 798.5,835.5C 803.19,836.138 807.856,836.971 812.5,838C 885.167,838.667 957.833,838.667 1030.5,838C 1034.83,836.787 1039.17,835.62 1043.5,834.5 Z"/></g>
<g><path style="opacity:1" fill="#8df0ce" d="M 419.5,845.5 C 417.507,847.163 415.174,848.33 412.5,849C 361.833,849.667 311.167,849.667 260.5,849C 255.701,848.104 251.701,845.937 248.5,842.5C 250.124,842.64 251.29,841.973 252,840.5C 253.02,841.891 253.853,843.391 254.5,845C 258.167,846 261.833,847 265.5,848C 312.837,848.833 360.17,848.667 407.5,847.5C 411.476,846.614 415.476,845.948 419.5,845.5 Z"/></g>
</svg>
