<svg xmlns="http://www.w3.org/2000/svg" xmlns:xlink="http://www.w3.org/1999/xlink" width="2000" zoomAndPan="magnify" viewBox="0 0 1500 1124.99995" height="1500" preserveAspectRatio="xMidYMid meet" version="1.0"><defs><g/><clipPath id="c7d9890d83"><path d="M 351 173 L 1139 173 L 1139 962 L 351 962 Z M 351 173 " clip-rule="nonzero"/></clipPath><clipPath id="b6e6d07dfb"><path d="M 426.867188 1024.378906 L 288.164062 249.1875 L 1063.351562 110.484375 L 1202.058594 885.671875 Z M 426.867188 1024.378906 " clip-rule="nonzero"/></clipPath><clipPath id="7c3d416203"><path d="M 426.867188 1024.378906 L 288.167969 249.210938 L 1063.332031 110.511719 L 1202.035156 885.675781 Z M 426.867188 1024.378906 " clip-rule="nonzero"/></clipPath><clipPath id="1d6e9fe7d0"><path d="M 357.519531 636.792969 C 395.820312 850.851562 600.394531 993.328125 814.449219 955.027344 C 1028.507812 916.726562 1170.984375 712.148438 1132.683594 498.09375 C 1094.382812 284.039062 889.804688 141.5625 675.75 179.863281 C 461.695312 218.164062 319.21875 422.738281 357.519531 636.792969 Z M 357.519531 636.792969 " clip-rule="nonzero"/></clipPath><clipPath id="20c455fbf2"><path d="M 732 553 L 761 553 L 761 583 L 732 583 Z M 732 553 " clip-rule="nonzero"/></clipPath><clipPath id="cb9415755b"><path d="M 734.960938 584.328125 L 729.890625 555.996094 L 758.222656 550.925781 L 763.292969 579.261719 Z M 734.960938 584.328125 " clip-rule="nonzero"/></clipPath><clipPath id="a8cf677f18"><path d="M 732.425781 570.164062 C 733.824219 577.988281 741.300781 583.195312 749.125 581.792969 C 756.949219 580.394531 762.15625 572.917969 760.757812 565.09375 C 759.359375 557.269531 751.878906 552.0625 744.058594 553.460938 C 736.234375 554.863281 731.023438 562.339844 732.425781 570.164062 Z M 732.425781 570.164062 " clip-rule="nonzero"/></clipPath><clipPath id="7bf237086e"><path d="M 1070 743 L 1100 743 L 1100 773 L 1070 773 Z M 1070 743 " clip-rule="nonzero"/></clipPath><clipPath id="2ecc096411"><path d="M 1073.726562 774.960938 L 1068.65625 746.628906 L 1096.992188 741.558594 L 1102.058594 769.890625 Z M 1073.726562 774.960938 " clip-rule="nonzero"/></clipPath><clipPath id="009dcabe79"><path d="M 1071.191406 760.796875 C 1072.59375 768.617188 1080.070312 773.828125 1087.894531 772.425781 C 1095.71875 771.027344 1100.925781 763.550781 1099.523438 755.726562 C 1098.125 747.902344 1090.648438 742.695312 1082.824219 744.09375 C 1075 745.492188 1069.792969 752.972656 1071.191406 760.796875 Z M 1071.191406 760.796875 " clip-rule="nonzero"/></clipPath><clipPath id="75f591e27a"><path d="M 984 258 L 1013 258 L 1013 288 L 984 288 Z M 984 258 " clip-rule="nonzero"/></clipPath><clipPath id="a9791f0133"><path d="M 986.871094 289.542969 L 981.800781 261.210938 L 1010.132812 256.140625 L 1015.203125 284.472656 Z M 986.871094 289.542969 " clip-rule="nonzero"/></clipPath><clipPath id="e67d45b5cb"><path d="M 984.335938 275.375 C 985.734375 283.199219 993.214844 288.40625 1001.039062 287.007812 C 1008.863281 285.609375 1014.070312 278.128906 1012.667969 270.304688 C 1011.269531 262.480469 1003.792969 257.273438 995.96875 258.675781 C 988.144531 260.074219 982.9375 267.550781 984.335938 275.375 Z M 984.335938 275.375 " clip-rule="nonzero"/></clipPath><clipPath id="1dad92a21d"><path d="M 661 170 L 691 170 L 691 200 L 661 200 Z M 661 170 " clip-rule="nonzero"/></clipPath><clipPath id="2fa9291394"><path d="M 664.121094 201.992188 L 659.050781 173.660156 L 687.382812 168.589844 L 692.453125 196.921875 Z M 664.121094 201.992188 " clip-rule="nonzero"/></clipPath><clipPath id="827a55936d"><path d="M 661.585938 187.824219 C 662.984375 195.648438 670.464844 200.855469 678.289062 199.457031 C 686.109375 198.058594 691.320312 190.578125 689.917969 182.753906 C 688.519531 174.933594 681.042969 169.722656 673.21875 171.125 C 665.394531 172.523438 660.1875 180 661.585938 187.824219 Z M 661.585938 187.824219 " clip-rule="nonzero"/></clipPath><clipPath id="f218d83cba"><path d="M 800 934 L 829 934 L 829 964 L 800 964 Z M 800 934 " clip-rule="nonzero"/></clipPath><clipPath id="1419533295"><path d="M 802.820312 965.78125 L 797.753906 937.445312 L 826.085938 932.375 L 831.15625 960.710938 Z M 802.820312 965.78125 " clip-rule="nonzero"/></clipPath><clipPath id="32964c8e3d"><path d="M 800.285156 951.613281 C 801.6875 959.4375 809.164062 964.644531 816.988281 963.246094 C 824.8125 961.84375 830.019531 954.367188 828.621094 946.542969 C 827.21875 938.71875 819.742188 933.511719 811.917969 934.910156 C 804.09375 936.3125 798.886719 943.789062 800.285156 951.613281 Z M 800.285156 951.613281 " clip-rule="nonzero"/></clipPath></defs><rect x="-150" width="1800" fill="#ffffff" y="-112.499995" height="1349.99994" fill-opacity="1"/><rect x="-150" width="1800" fill="#ffffff" y="-112.499995" height="1349.99994" fill-opacity="1"/><g clip-path="url(#c7d9890d83)"><g clip-path="url(#b6e6d07dfb)"><g clip-path="url(#7c3d416203)"><g clip-path="url(#1d6e9fe7d0)"><path stroke-linecap="butt" transform="matrix(-0.132099, -0.738275, 0.738275, -0.132099, 426.868245, 1024.377324)" fill="none" stroke-linejoin="miter" d="M 524.986223 0.00228615 C 235.042025 0.00134708 0.000192081 235.043012 0.00017037 524.982083 C -0.000768699 814.926282 235.046023 1049.969032 524.985095 1049.969054 C 814.924166 1049.969075 1049.966916 814.922284 1049.966938 524.983212 C 1049.96696 235.044141 814.925295 0.00230786 524.986223 0.00228615 Z M 524.986223 0.00228615 " stroke="#000000" stroke-width="22" stroke-opacity="1" stroke-miterlimit="4"/></g></g></g></g><path stroke-linecap="butt" transform="matrix(-0.132099, -0.738275, 0.738275, -0.132099, 809.652156, 955.887786)" fill="none" stroke-linejoin="miter" d="M 0.00276106 6.49816 L 1049.974556 6.500189 " stroke="#000000" stroke-width="13" stroke-opacity="1" stroke-miterlimit="4"/><path stroke-linecap="butt" transform="matrix(-0.653619, -0.367807, 0.367807, -0.653619, 1070.418805, 755.450771)" fill="none" stroke-linejoin="miter" d="M 0.000535056 6.498354 L 479.913005 6.499257 " stroke="#000000" stroke-width="13" stroke-opacity="1" stroke-miterlimit="4"/><g clip-path="url(#20c455fbf2)"><g clip-path="url(#cb9415755b)"><g clip-path="url(#a8cf677f18)"><path fill="#222222" d="M 734.960938 584.328125 L 729.890625 555.996094 L 758.222656 550.925781 L 763.292969 579.261719 Z M 734.960938 584.328125 " fill-opacity="1" fill-rule="nonzero"/></g></g></g><g clip-path="url(#7bf237086e)"><g clip-path="url(#2ecc096411)"><g clip-path="url(#009dcabe79)"><path fill="#1e76e9" d="M 1073.726562 774.960938 L 1068.65625 746.628906 L 1096.992188 741.558594 L 1102.058594 769.890625 Z M 1073.726562 774.960938 " fill-opacity="1" fill-rule="nonzero"/></g></g></g><path stroke-linecap="butt" transform="matrix(-0.487241, 0.570172, -0.570172, -0.487241, 992.85206, 286.954174)" fill="none" stroke-linejoin="miter" d="M -0.000751812 6.50312 L 478.636527 6.501411 " stroke="#000000" stroke-width="13" stroke-opacity="1" stroke-miterlimit="4"/><g clip-path="url(#75f591e27a)"><g clip-path="url(#a9791f0133)"><g clip-path="url(#e67d45b5cb)"><path fill="#1e76e9" d="M 986.871094 289.542969 L 981.800781 261.210938 L 1010.132812 256.140625 L 1015.203125 284.472656 Z M 986.871094 289.542969 " fill-opacity="1" fill-rule="nonzero"/></g></g></g><g fill="#000000" fill-opacity="1"><g transform="translate(718.343467, 549.719701)"><g><path d="M -54.984375 26.671875 C -54.984375 17.867188 -52.800781 11.097656 -48.4375 6.359375 C -44.070312 1.628906 -37.8125 -0.734375 -29.65625 -0.734375 C -21.507812 -0.734375 -15.25 1.628906 -10.875 6.359375 C -6.507812 11.097656 -4.328125 17.894531 -4.328125 26.75 C -4.328125 35.601562 -6.515625 42.363281 -10.890625 47.03125 C -15.273438 51.707031 -21.554688 54.046875 -29.734375 54.046875 C -37.910156 54.046875 -44.160156 51.691406 -48.484375 46.984375 C -52.816406 42.273438 -54.984375 35.503906 -54.984375 26.671875 Z M -16.15625 26.671875 C -16.15625 20.734375 -17.28125 16.257812 -19.53125 13.25 C -21.789062 10.238281 -25.164062 8.734375 -29.65625 8.734375 C -38.65625 8.734375 -43.15625 14.710938 -43.15625 26.671875 C -43.15625 38.660156 -38.679688 44.65625 -29.734375 44.65625 C -25.242188 44.65625 -21.859375 43.144531 -19.578125 40.125 C -17.296875 37.101562 -16.15625 32.617188 -16.15625 26.671875 Z M -16.15625 26.671875 "/></g></g></g><g fill="#000000" fill-opacity="1"><g transform="translate(1006.943586, 256.671998)"><g><path d="M 29.296875 -44.578125 C 25.046875 -44.578125 21.753906 -42.984375 19.421875 -39.796875 C 17.097656 -36.609375 15.9375 -32.160156 15.9375 -26.453125 C 15.9375 -14.585938 20.390625 -8.65625 29.296875 -8.65625 C 33.035156 -8.65625 37.5625 -9.59375 42.875 -11.46875 L 42.875 -2 C 38.5 -0.175781 33.617188 0.734375 28.234375 0.734375 C 20.492188 0.734375 14.570312 -1.613281 10.46875 -6.3125 C 6.375 -11.007812 4.328125 -17.75 4.328125 -26.53125 C 4.328125 -32.0625 5.332031 -36.90625 7.34375 -41.0625 C 9.363281 -45.226562 12.257812 -48.421875 16.03125 -50.640625 C 19.800781 -52.859375 24.222656 -53.96875 29.296875 -53.96875 C 34.460938 -53.96875 39.65625 -52.71875 44.875 -50.21875 L 41.234375 -41.046875 C 39.242188 -41.992188 37.238281 -42.816406 35.21875 -43.515625 C 33.207031 -44.222656 31.234375 -44.578125 29.296875 -44.578125 Z M 29.296875 -44.578125 "/></g></g></g><g fill="#000000" fill-opacity="1"><g transform="translate(821.281173, 417.243939)"><g><path d="M 28.53125 -41.453125 C 30.03125 -41.453125 31.28125 -41.34375 32.28125 -41.125 L 31.4375 -30.71875 C 30.539062 -30.957031 29.453125 -31.078125 28.171875 -31.078125 C 24.628906 -31.078125 21.867188 -30.164062 19.890625 -28.34375 C 17.910156 -26.53125 16.921875 -23.984375 16.921875 -20.703125 L 16.921875 0 L 5.828125 0 L 5.828125 -40.6875 L 14.234375 -40.6875 L 15.859375 -33.84375 L 16.40625 -33.84375 C 17.675781 -36.125 19.382812 -37.960938 21.53125 -39.359375 C 23.675781 -40.753906 26.007812 -41.453125 28.53125 -41.453125 Z M 28.53125 -41.453125 "/></g></g></g><path stroke-linecap="butt" transform="matrix(-0.132099, -0.738275, 0.738275, -0.132099, 1078.024045, 744.953124)" fill="none" stroke-linejoin="miter" d="M 0.000628582 6.501993 L 619.128378 6.49845 " stroke="#000000" stroke-width="13" stroke-opacity="1" stroke-miterlimit="4"/><g fill="#000000" fill-opacity="1"><g transform="translate(1104.129752, 830.961596)"><g><path d="M 50.84375 -27.109375 C 50.84375 -18.347656 48.347656 -11.640625 43.359375 -6.984375 C 38.367188 -2.328125 31.171875 0 21.765625 0 L 6.703125 0 L 6.703125 -53.203125 L 23.40625 -53.203125 C 32.082031 -53.203125 38.820312 -50.910156 43.625 -46.328125 C 48.4375 -41.742188 50.84375 -35.335938 50.84375 -27.109375 Z M 39.125 -26.828125 C 39.125 -38.253906 34.078125 -43.96875 23.984375 -43.96875 L 17.984375 -43.96875 L 17.984375 -9.3125 L 22.8125 -9.3125 C 33.6875 -9.3125 39.125 -15.148438 39.125 -26.828125 Z M 39.125 -26.828125 "/></g></g></g><g fill="#000000" fill-opacity="1"><g transform="translate(633.303085, 152.42025)"><g><path d="M 39.265625 0 L 35.40625 -12.671875 L 16.015625 -12.671875 L 12.15625 0 L 0 0 L 18.78125 -53.421875 L 32.578125 -53.421875 L 51.421875 0 Z M 32.71875 -22.125 C 29.144531 -33.601562 27.132812 -40.09375 26.6875 -41.59375 C 26.238281 -43.101562 25.921875 -44.289062 25.734375 -45.15625 C 24.929688 -42.050781 22.632812 -34.375 18.84375 -22.125 Z M 32.71875 -22.125 "/></g></g></g><g fill="#000000" fill-opacity="1"><g transform="translate(813.160435, 1027.731219)"><g><path d="M 6.703125 -53.203125 L 23.25 -53.203125 C 30.800781 -53.203125 36.28125 -52.128906 39.6875 -49.984375 C 43.09375 -47.835938 44.796875 -44.421875 44.796875 -39.734375 C 44.796875 -36.554688 44.050781 -33.945312 42.5625 -31.90625 C 41.070312 -29.875 39.085938 -28.648438 36.609375 -28.234375 L 36.609375 -27.875 C 39.984375 -27.125 42.414062 -25.71875 43.90625 -23.65625 C 45.394531 -21.59375 46.140625 -18.851562 46.140625 -15.4375 C 46.140625 -10.582031 44.382812 -6.796875 40.875 -4.078125 C 37.375 -1.359375 32.617188 0 26.609375 0 L 6.703125 0 Z M 17.984375 -32.140625 L 24.53125 -32.140625 C 27.582031 -32.140625 29.789062 -32.609375 31.15625 -33.546875 C 32.53125 -34.492188 33.21875 -36.0625 33.21875 -38.25 C 33.21875 -40.289062 32.472656 -41.753906 30.984375 -42.640625 C 29.492188 -43.523438 27.132812 -43.96875 23.90625 -43.96875 L 17.984375 -43.96875 Z M 17.984375 -23.1875 L 17.984375 -9.3125 L 25.328125 -9.3125 C 28.429688 -9.3125 30.722656 -9.90625 32.203125 -11.09375 C 33.679688 -12.289062 34.421875 -14.113281 34.421875 -16.5625 C 34.421875 -20.976562 31.269531 -23.1875 24.96875 -23.1875 Z M 17.984375 -23.1875 "/></g></g></g><g clip-path="url(#1dad92a21d)"><g clip-path="url(#2fa9291394)"><g clip-path="url(#827a55936d)"><path fill="#1e76e9" d="M 664.121094 201.992188 L 659.050781 173.660156 L 687.382812 168.589844 L 692.453125 196.921875 Z M 664.121094 201.992188 " fill-opacity="1" fill-rule="nonzero"/></g></g></g><g clip-path="url(#f218d83cba)"><g clip-path="url(#1419533295)"><g clip-path="url(#32964c8e3d)"><path fill="#1e76e9" d="M 802.820312 965.78125 L 797.753906 937.445312 L 826.085938 932.375 L 831.15625 960.710938 Z M 802.820312 965.78125 " fill-opacity="1" fill-rule="nonzero"/></g></g></g><g fill="#000000" fill-opacity="1"><g transform="translate(843.889555, 713.063478)"><g><path d="M 28.53125 -41.453125 C 30.03125 -41.453125 31.28125 -41.34375 32.28125 -41.125 L 31.4375 -30.71875 C 30.539062 -30.957031 29.453125 -31.078125 28.171875 -31.078125 C 24.628906 -31.078125 21.867188 -30.164062 19.890625 -28.34375 C 17.910156 -26.53125 16.921875 -23.984375 16.921875 -20.703125 L 16.921875 0 L 5.828125 0 L 5.828125 -40.6875 L 14.234375 -40.6875 L 15.859375 -33.84375 L 16.40625 -33.84375 C 17.675781 -36.125 19.382812 -37.960938 21.53125 -39.359375 C 23.675781 -40.753906 26.007812 -41.453125 28.53125 -41.453125 Z M 28.53125 -41.453125 "/></g></g></g></svg>