<svg xmlns="http://www.w3.org/2000/svg" xmlns:xlink="http://www.w3.org/1999/xlink" width="2000" zoomAndPan="magnify" viewBox="0 0 1500 1124.99995" height="1500" preserveAspectRatio="xMidYMid meet" version="1.0"><defs><g/><clipPath id="b8ba191291"><path d="M 648 571 L 745 571 L 745 673 L 648 673 Z M 648 571 " clip-rule="nonzero"/></clipPath><clipPath id="ae8eb365ed"><path d="M 703.476562 712.441406 L 594.652344 514.652344 L 785.871094 409.445312 L 894.695312 607.234375 Z M 703.476562 712.441406 " clip-rule="nonzero"/></clipPath><clipPath id="c6a95dd7a0"><path d="M 703.476562 712.441406 L 594.652344 514.652344 L 785.871094 409.445312 L 894.695312 607.234375 Z M 703.476562 712.441406 " clip-rule="nonzero"/></clipPath><clipPath id="8095f0e9a4"><path d="M 634 526 L 732 526 L 732 601 L 634 601 Z M 634 526 " clip-rule="nonzero"/></clipPath><clipPath id="f17944a6d5"><path d="M 703.476562 712.441406 L 594.652344 514.652344 L 785.871094 409.445312 L 894.695312 607.234375 Z M 703.476562 712.441406 " clip-rule="nonzero"/></clipPath><clipPath id="1daa2af751"><path d="M 703.476562 712.441406 L 594.652344 514.652344 L 785.871094 409.445312 L 894.695312 607.234375 Z M 703.476562 712.441406 " clip-rule="nonzero"/></clipPath><clipPath id="059abec7b7"><path d="M 643 448 L 747 448 L 747 553 L 643 553 Z M 643 448 " clip-rule="nonzero"/></clipPath><clipPath id="ce18bfef46"><path d="M 703.476562 712.441406 L 594.652344 514.652344 L 785.871094 409.445312 L 894.695312 607.234375 Z M 703.476562 712.441406 " clip-rule="nonzero"/></clipPath><clipPath id="2a955c0db6"><path d="M 703.476562 712.441406 L 594.652344 514.652344 L 785.871094 409.445312 L 894.695312 607.234375 Z M 703.476562 712.441406 " clip-rule="nonzero"/></clipPath><clipPath id="f76ac33fbf"><path d="M 755 450 L 844 450 L 844 553 L 755 553 Z M 755 450 " clip-rule="nonzero"/></clipPath><clipPath id="0135c7471d"><path d="M 703.476562 712.441406 L 594.652344 514.652344 L 785.871094 409.445312 L 894.695312 607.234375 Z M 703.476562 712.441406 " clip-rule="nonzero"/></clipPath><clipPath id="3e12a9aa0c"><path d="M 703.476562 712.441406 L 594.652344 514.652344 L 785.871094 409.445312 L 894.695312 607.234375 Z M 703.476562 712.441406 " clip-rule="nonzero"/></clipPath><clipPath id="a4064d7944"><path d="M 753 570 L 847 570 L 847 673 L 753 673 Z M 753 570 " clip-rule="nonzero"/></clipPath><clipPath id="dcd6a8c0a6"><path d="M 703.476562 712.441406 L 594.652344 514.652344 L 785.871094 409.445312 L 894.695312 607.234375 Z M 703.476562 712.441406 " clip-rule="nonzero"/></clipPath><clipPath id="33b73a0c66"><path d="M 703.476562 712.441406 L 594.652344 514.652344 L 785.871094 409.445312 L 894.695312 607.234375 Z M 703.476562 712.441406 " clip-rule="nonzero"/></clipPath><clipPath id="8aed12408a"><path d="M 767 526 L 855 526 L 855 594 L 767 594 Z M 767 526 " clip-rule="nonzero"/></clipPath><clipPath id="c42ff115d1"><path d="M 703.476562 712.441406 L 594.652344 514.652344 L 785.871094 409.445312 L 894.695312 607.234375 Z M 703.476562 712.441406 " clip-rule="nonzero"/></clipPath><clipPath id="3285807078"><path d="M 703.476562 712.441406 L 594.652344 514.652344 L 785.871094 409.445312 L 894.695312 607.234375 Z M 703.476562 712.441406 " clip-rule="nonzero"/></clipPath><clipPath id="3738ba30e7"><path d="M 356.703125 167.328125 L 1144.179688 167.328125 L 1144.179688 954.804688 L 356.703125 954.804688 Z M 356.703125 167.328125 " clip-rule="nonzero"/></clipPath><clipPath id="143fcf412f"><path d="M 750.441406 167.328125 C 532.984375 167.328125 356.703125 343.609375 356.703125 561.066406 C 356.703125 778.519531 532.984375 954.804688 750.441406 954.804688 C 967.894531 954.804688 1144.179688 778.519531 1144.179688 561.066406 C 1144.179688 343.609375 967.894531 167.328125 750.441406 167.328125 Z M 750.441406 167.328125 " clip-rule="nonzero"/></clipPath><clipPath id="cecdb29aff"><path d="M 735.609375 548.109375 L 764.390625 548.109375 L 764.390625 576.890625 L 735.609375 576.890625 Z M 735.609375 548.109375 " clip-rule="nonzero"/></clipPath><clipPath id="f1921278fb"><path d="M 750 548.109375 C 742.050781 548.109375 735.609375 554.550781 735.609375 562.5 C 735.609375 570.449219 742.050781 576.890625 750 576.890625 C 757.949219 576.890625 764.390625 570.449219 764.390625 562.5 C 764.390625 554.550781 757.949219 548.109375 750 548.109375 Z M 750 548.109375 " clip-rule="nonzero"/></clipPath><clipPath id="c0b995da9b"><path d="M 1094.261719 698.054688 L 1123.042969 698.054688 L 1123.042969 726.839844 L 1094.261719 726.839844 Z M 1094.261719 698.054688 " clip-rule="nonzero"/></clipPath><clipPath id="caaebefcd4"><path d="M 1108.652344 698.054688 C 1100.703125 698.054688 1094.261719 704.5 1094.261719 712.445312 C 1094.261719 720.394531 1100.703125 726.839844 1108.652344 726.839844 C 1116.597656 726.839844 1123.042969 720.394531 1123.042969 712.445312 C 1123.042969 704.5 1116.597656 698.054688 1108.652344 698.054688 Z M 1108.652344 698.054688 " clip-rule="nonzero"/></clipPath><clipPath id="48ae1c209c"><path d="M 764.390625 921.753906 L 793.175781 921.753906 L 793.175781 950.535156 L 764.390625 950.535156 Z M 764.390625 921.753906 " clip-rule="nonzero"/></clipPath><clipPath id="3568d9ba3d"><path d="M 778.78125 921.753906 C 770.835938 921.753906 764.390625 928.195312 764.390625 936.144531 C 764.390625 944.09375 770.835938 950.535156 778.78125 950.535156 C 786.730469 950.535156 793.175781 944.09375 793.175781 936.144531 C 793.175781 928.195312 786.730469 921.753906 778.78125 921.753906 Z M 778.78125 921.753906 " clip-rule="nonzero"/></clipPath><clipPath id="890767f648"><path d="M 1079.867188 364.703125 L 1108.652344 364.703125 L 1108.652344 393.488281 L 1079.867188 393.488281 Z M 1079.867188 364.703125 " clip-rule="nonzero"/></clipPath><clipPath id="748a762e78"><path d="M 1094.261719 364.703125 C 1086.3125 364.703125 1079.867188 371.148438 1079.867188 379.09375 C 1079.867188 387.042969 1086.3125 393.488281 1094.261719 393.488281 C 1102.207031 393.488281 1108.652344 387.042969 1108.652344 379.09375 C 1108.652344 371.148438 1102.207031 364.703125 1094.261719 364.703125 Z M 1094.261719 364.703125 " clip-rule="nonzero"/></clipPath><clipPath id="63e8eacd9d"><path d="M 777.421875 157.5 L 806.207031 157.5 L 806.207031 186.285156 L 777.421875 186.285156 Z M 777.421875 157.5 " clip-rule="nonzero"/></clipPath><clipPath id="365cfe7e64"><path d="M 791.8125 157.5 C 783.867188 157.5 777.421875 163.945312 777.421875 171.890625 C 777.421875 179.839844 783.867188 186.285156 791.8125 186.285156 C 799.761719 186.285156 806.207031 179.839844 806.207031 171.890625 C 806.207031 163.945312 799.761719 157.5 791.8125 157.5 Z M 791.8125 157.5 " clip-rule="nonzero"/></clipPath></defs><rect x="-150" width="1800" fill="#ffffff" y="-112.499995" height="1349.99994" fill-opacity="1"/><rect x="-150" width="1800" fill="#ffffff" y="-112.499995" height="1349.99994" fill-opacity="1"/><g clip-path="url(#b8ba191291)"><g clip-path="url(#ae8eb365ed)"><g clip-path="url(#c6a95dd7a0)"><path fill="#ffffff" d="M 740.820312 571.210938 L 650.273438 610.097656 C 648.941406 610.664062 648.359375 612.261719 649.054688 613.53125 L 649.066406 613.554688 C 668.472656 648.824219 703.40625 669.914062 739.949219 672.574219 C 741.378906 672.675781 742.589844 671.539062 742.613281 670.109375 L 744.320312 573.558594 C 744.351562 571.738281 742.492188 570.492188 740.820312 571.210938 Z M 740.820312 571.210938 " fill-opacity="1" fill-rule="nonzero"/></g></g></g><g clip-path="url(#8095f0e9a4)"><g clip-path="url(#f17944a6d5)"><g clip-path="url(#1daa2af751)"><path fill="#ffffff" d="M 729.992188 559.734375 L 642.09375 526.265625 C 640.722656 525.742188 639.175781 526.5 638.785156 527.917969 C 632.480469 550.703125 633.351562 575.710938 642.417969 599.210938 C 642.929688 600.53125 644.449219 601.152344 645.75 600.59375 L 730.089844 564.378906 C 732.164062 563.492188 732.097656 560.53125 729.992188 559.734375 Z M 729.992188 559.734375 " fill-opacity="1" fill-rule="nonzero"/></g></g></g><g clip-path="url(#059abec7b7)"><g clip-path="url(#ce18bfef46)"><g clip-path="url(#2a955c0db6)"><path fill="#ffffff" d="M 744.726562 550.492188 L 746.46875 451.574219 C 746.492188 450.203125 745.414062 449.046875 744.042969 449.015625 C 725.8125 448.605469 707.351562 452.789062 690.371094 462.132812 C 669.003906 473.890625 653.277344 491.992188 644.085938 512.988281 C 643.515625 514.292969 644.175781 515.808594 645.503906 516.3125 L 741.328125 552.792969 C 742.953125 553.410156 744.699219 552.234375 744.730469 550.496094 Z M 744.726562 550.492188 " fill-opacity="1" fill-rule="nonzero"/></g></g></g><g clip-path="url(#f76ac33fbf)"><g clip-path="url(#0135c7471d)"><g clip-path="url(#3e12a9aa0c)"><path fill="#1e76e9" d="M 758.75 552.074219 L 841.585938 516.503906 C 842.890625 515.945312 843.480469 514.40625 842.867188 513.125 C 842.078125 511.507812 841.257812 509.898438 840.378906 508.300781 C 822.816406 476.378906 792.539062 456.085938 759.863281 450.535156 C 758.359375 450.277344 756.992188 451.449219 756.960938 452.972656 L 755.253906 549.726562 C 755.222656 551.546875 757.082031 552.789062 758.75 552.074219 Z M 758.75 552.074219 " fill-opacity="1" fill-rule="nonzero"/></g></g></g><g clip-path="url(#a4064d7944)"><g clip-path="url(#dcd6a8c0a6)"><g clip-path="url(#33b73a0c66)"><path fill="#1e76e9" d="M 754.851562 572.789062 L 753.136719 670.015625 C 753.109375 671.484375 754.34375 672.679688 755.804688 672.570312 C 770.59375 671.46875 785.324219 667.285156 799.082031 659.71875 C 821.167969 647.5625 837.242188 628.636719 846.289062 606.738281 C 846.824219 605.441406 846.160156 603.953125 844.847656 603.453125 L 758.25 570.484375 C 756.628906 569.867188 754.882812 571.046875 754.851562 572.785156 Z M 754.851562 572.789062 " fill-opacity="1" fill-rule="nonzero"/></g></g></g><g clip-path="url(#8aed12408a)"><g clip-path="url(#c42ff115d1)"><g clip-path="url(#3285807078)"><path fill="#ffffff" d="M 769.582031 563.550781 L 847.949219 593.382812 C 849.339844 593.910156 850.90625 593.128906 851.273438 591.683594 C 856.488281 571.164062 855.929688 548.960938 848.867188 527.753906 C 848.40625 526.371094 846.839844 525.6875 845.496094 526.261719 L 769.484375 558.898438 C 767.414062 559.789062 767.476562 562.746094 769.582031 563.546875 Z M 769.582031 563.550781 " fill-opacity="1" fill-rule="nonzero"/></g></g></g><g clip-path="url(#3738ba30e7)"><g clip-path="url(#143fcf412f)"><path stroke-linecap="butt" transform="matrix(0.75, 0, 0, 0.75, 356.702141, 167.326372)" fill="none" stroke-linejoin="miter" d="M 524.985732 0.00233735 C 235.042999 0.00233735 0.00131198 235.044024 0.00131198 524.986758 C 0.00131198 814.924283 235.042999 1049.971178 524.985732 1049.971178 C 814.923257 1049.971178 1049.970152 814.924283 1049.970152 524.986758 C 1049.970152 235.044024 814.923257 0.00233735 524.985732 0.00233735 Z M 524.985732 0.00233735 " stroke="#000000" stroke-width="22" stroke-opacity="1" stroke-miterlimit="4"/></g></g><path stroke-linecap="butt" transform="matrix(-0.691958, -0.289298, 0.289298, -0.691958, 1093.486571, 711.391551)" fill="none" stroke-linejoin="miter" d="M -0.00058453 6.499218 L 479.927691 6.501206 " stroke="#cc0829" stroke-width="13" stroke-opacity="1" stroke-miterlimit="4"/><g clip-path="url(#cecdb29aff)"><g clip-path="url(#f1921278fb)"><path fill="#222222" d="M 735.609375 548.109375 L 764.390625 548.109375 L 764.390625 576.890625 L 735.609375 576.890625 Z M 735.609375 548.109375 " fill-opacity="1" fill-rule="nonzero"/></g></g><g clip-path="url(#c0b995da9b)"><g clip-path="url(#caaebefcd4)"><path fill="#222222" d="M 1094.261719 698.054688 L 1123.042969 698.054688 L 1123.042969 726.839844 L 1094.261719 726.839844 Z M 1094.261719 698.054688 " fill-opacity="1" fill-rule="nonzero"/></g></g><path stroke-linecap="butt" transform="matrix(-0.0576038, -0.747785, 0.747785, -0.0576038, 772.813455, 922.165917)" fill="none" stroke-linejoin="miter" d="M -0.00214046 6.502145 L 461.287802 6.499268 " stroke="#cc0829" stroke-width="13" stroke-opacity="1" stroke-miterlimit="4"/><g clip-path="url(#48ae1c209c)"><g clip-path="url(#3568d9ba3d)"><path fill="#222222" d="M 764.390625 921.753906 L 793.175781 921.753906 L 793.175781 950.535156 L 764.390625 950.535156 Z M 764.390625 921.753906 " fill-opacity="1" fill-rule="nonzero"/></g></g><g fill="#000000" fill-opacity="1"><g transform="translate(791.814397, 140.76443)"><g><path d="M 39.265625 0 L 35.40625 -12.671875 L 16.015625 -12.671875 L 12.15625 0 L 0 0 L 18.78125 -53.421875 L 32.578125 -53.421875 L 51.421875 0 Z M 32.71875 -22.125 C 29.144531 -33.601562 27.132812 -40.09375 26.6875 -41.59375 C 26.238281 -43.101562 25.921875 -44.289062 25.734375 -45.15625 C 24.929688 -42.050781 22.632812 -34.375 18.84375 -22.125 Z M 32.71875 -22.125 "/></g></g></g><g fill="#000000" fill-opacity="1"><g transform="translate(788.070445, 1026.985203)"><g><path d="M 50.84375 -27.109375 C 50.84375 -18.347656 48.347656 -11.640625 43.359375 -6.984375 C 38.367188 -2.328125 31.171875 0 21.765625 0 L 6.703125 0 L 6.703125 -53.203125 L 23.40625 -53.203125 C 32.082031 -53.203125 38.820312 -50.910156 43.625 -46.328125 C 48.4375 -41.742188 50.84375 -35.335938 50.84375 -27.109375 Z M 39.125 -26.828125 C 39.125 -38.253906 34.078125 -43.96875 23.984375 -43.96875 L 17.984375 -43.96875 L 17.984375 -9.3125 L 22.8125 -9.3125 C 33.6875 -9.3125 39.125 -15.148438 39.125 -26.828125 Z M 39.125 -26.828125 "/></g></g></g><g fill="#000000" fill-opacity="1"><g transform="translate(676.284983, 560.720563)"><g><path d="M 54.984375 -26.671875 C 54.984375 -17.867188 52.800781 -11.097656 48.4375 -6.359375 C 44.070312 -1.628906 37.8125 0.734375 29.65625 0.734375 C 21.507812 0.734375 15.25 -1.628906 10.875 -6.359375 C 6.507812 -11.097656 4.328125 -17.894531 4.328125 -26.75 C 4.328125 -35.601562 6.515625 -42.363281 10.890625 -47.03125 C 15.273438 -51.707031 21.554688 -54.046875 29.734375 -54.046875 C 37.910156 -54.046875 44.160156 -51.691406 48.484375 -46.984375 C 52.816406 -42.273438 54.984375 -35.503906 54.984375 -26.671875 Z M 16.15625 -26.671875 C 16.15625 -20.734375 17.28125 -16.257812 19.53125 -13.25 C 21.789062 -10.238281 25.164062 -8.734375 29.65625 -8.734375 C 38.65625 -8.734375 43.15625 -14.710938 43.15625 -26.671875 C 43.15625 -38.660156 38.679688 -44.65625 29.734375 -44.65625 C 25.242188 -44.65625 21.859375 -43.144531 19.578125 -40.125 C 17.296875 -37.101562 16.15625 -32.617188 16.15625 -26.671875 Z M 16.15625 -26.671875 "/></g></g></g><g clip-path="url(#890767f648)"><g clip-path="url(#748a762e78)"><path fill="#222222" d="M 1079.867188 364.703125 L 1108.652344 364.703125 L 1108.652344 393.488281 L 1079.867188 393.488281 Z M 1079.867188 364.703125 " fill-opacity="1" fill-rule="nonzero"/></g></g><g clip-path="url(#63e8eacd9d)"><g clip-path="url(#365cfe7e64)"><path fill="#222222" d="M 777.421875 157.5 L 806.207031 157.5 L 806.207031 186.285156 L 777.421875 186.285156 Z M 777.421875 157.5 " fill-opacity="1" fill-rule="nonzero"/></g></g><g fill="#000000" fill-opacity="1"><g transform="translate(1128.079616, 777.320544)"><g><path d="M 29.296875 -44.578125 C 25.046875 -44.578125 21.753906 -42.984375 19.421875 -39.796875 C 17.097656 -36.609375 15.9375 -32.160156 15.9375 -26.453125 C 15.9375 -14.585938 20.390625 -8.65625 29.296875 -8.65625 C 33.035156 -8.65625 37.5625 -9.59375 42.875 -11.46875 L 42.875 -2 C 38.5 -0.175781 33.617188 0.734375 28.234375 0.734375 C 20.492188 0.734375 14.570312 -1.613281 10.46875 -6.3125 C 6.375 -11.007812 4.328125 -17.75 4.328125 -26.53125 C 4.328125 -32.0625 5.332031 -36.90625 7.34375 -41.0625 C 9.363281 -45.226562 12.257812 -48.421875 16.03125 -50.640625 C 19.800781 -52.859375 24.222656 -53.96875 29.296875 -53.96875 C 34.460938 -53.96875 39.65625 -52.71875 44.875 -50.21875 L 41.234375 -41.046875 C 39.242188 -41.992188 37.238281 -42.816406 35.21875 -43.515625 C 33.207031 -44.222656 31.234375 -44.578125 29.296875 -44.578125 Z M 29.296875 -44.578125 "/></g></g></g><g fill="#000000" fill-opacity="1"><g transform="translate(1123.042785, 377.315581)"><g><path d="M 6.703125 -53.203125 L 23.25 -53.203125 C 30.800781 -53.203125 36.28125 -52.128906 39.6875 -49.984375 C 43.09375 -47.835938 44.796875 -44.421875 44.796875 -39.734375 C 44.796875 -36.554688 44.050781 -33.945312 42.5625 -31.90625 C 41.070312 -29.875 39.085938 -28.648438 36.609375 -28.234375 L 36.609375 -27.875 C 39.984375 -27.125 42.414062 -25.71875 43.90625 -23.65625 C 45.394531 -21.59375 46.140625 -18.851562 46.140625 -15.4375 C 46.140625 -10.582031 44.382812 -6.796875 40.875 -4.078125 C 37.375 -1.359375 32.617188 0 26.609375 0 L 6.703125 0 Z M 17.984375 -32.140625 L 24.53125 -32.140625 C 27.582031 -32.140625 29.789062 -32.609375 31.15625 -33.546875 C 32.53125 -34.492188 33.21875 -36.0625 33.21875 -38.25 C 33.21875 -40.289062 32.472656 -41.753906 30.984375 -42.640625 C 29.492188 -43.523438 27.132812 -43.96875 23.90625 -43.96875 L 17.984375 -43.96875 Z M 17.984375 -23.1875 L 17.984375 -9.3125 L 25.328125 -9.3125 C 28.429688 -9.3125 30.722656 -9.90625 32.203125 -11.09375 C 33.679688 -12.289062 34.421875 -14.113281 34.421875 -16.5625 C 34.421875 -20.976562 31.269531 -23.1875 24.96875 -23.1875 Z M 17.984375 -23.1875 "/></g></g></g><path stroke-linecap="butt" transform="matrix(-0.661925, 0.352641, -0.352641, -0.661925, 1083.847092, 390.165885)" fill="none" stroke-linejoin="miter" d="M 0.000220558 6.500259 L 481.703122 6.501854 " stroke="#cc0829" stroke-width="13" stroke-opacity="1" stroke-miterlimit="4"/><path stroke-linecap="butt" transform="matrix(-0.0798312, 0.745739, -0.745739, -0.0798312, 795.123661, 186.727699)" fill="none" stroke-linejoin="miter" d="M -0.00248008 6.498941 L 485.406097 6.497925 " stroke="#cc0829" stroke-width="13" stroke-opacity="1" stroke-miterlimit="4"/></svg>