<svg xmlns="http://www.w3.org/2000/svg" xmlns:xlink="http://www.w3.org/1999/xlink" width="2000" zoomAndPan="magnify" viewBox="0 0 1500 1124.99995" height="1500" preserveAspectRatio="xMidYMid meet" version="1.0"><defs><clipPath id="855df5a191"><path d="M 712.089844 749.46875 L 754.839844 749.46875 L 754.839844 797.464844 L 712.089844 797.464844 Z M 712.089844 749.46875 " clip-rule="nonzero"/></clipPath><clipPath id="27e169c779"><path d="M 712.089844 791.464844 L 712.089844 755.644531 C 712.089844 752.328125 714.777344 749.644531 718.089844 749.644531 L 749.101562 749.644531 C 752.414062 749.644531 755.097656 752.328125 755.097656 755.644531 L 755.097656 791.464844 C 755.097656 794.78125 752.414062 797.464844 749.101562 797.464844 L 718.089844 797.464844 C 714.777344 797.464844 712.089844 794.78125 712.089844 791.464844 Z M 712.089844 791.464844 " clip-rule="nonzero"/></clipPath><clipPath id="476c16534c"><path d="M 618 527 L 676 527 L 676 586 L 618 586 Z M 618 527 " clip-rule="nonzero"/></clipPath><clipPath id="26e2d706cb"><path d="M 642.0625 588.269531 L 615.878906 548.042969 L 651.707031 524.722656 L 677.890625 564.949219 Z M 642.0625 588.269531 " clip-rule="nonzero"/></clipPath><clipPath id="9bcd1697d1"><path d="M 642.0625 588.269531 L 613.296875 544.082031 L 653.066406 518.195312 L 681.832031 562.382812 Z M 642.0625 588.269531 " clip-rule="nonzero"/></clipPath><clipPath id="c695e2c974"><path d="M 638.789062 583.242188 L 619.246094 553.21875 C 617.4375 550.441406 618.226562 546.726562 621 544.917969 L 646.992188 528 C 649.765625 526.195312 653.484375 526.980469 655.289062 529.757812 L 674.832031 559.78125 C 676.640625 562.558594 675.855469 566.273438 673.078125 568.082031 L 647.089844 584.996094 C 644.3125 586.804688 640.597656 586.019531 638.789062 583.242188 Z M 638.789062 583.242188 " clip-rule="nonzero"/></clipPath><clipPath id="6055a4c3fb"><path d="M 1100 526 L 1158 526 L 1158 581 L 1100 581 Z M 1100 526 " clip-rule="nonzero"/></clipPath><clipPath id="73f5a82ba7"><path d="M 1159.800781 564.460938 L 1115.453125 582.832031 L 1099.09375 543.335938 L 1143.441406 524.964844 Z M 1159.800781 564.460938 " clip-rule="nonzero"/></clipPath><clipPath id="04983c1d19"><path d="M 1159.796875 564.464844 L 1111.085938 584.640625 L 1092.925781 540.796875 L 1141.640625 520.621094 Z M 1159.796875 564.464844 " clip-rule="nonzero"/></clipPath><clipPath id="fe30686cef"><path d="M 1154.257812 566.757812 L 1121.160156 580.46875 C 1118.097656 581.734375 1114.589844 580.28125 1113.320312 577.21875 L 1101.453125 548.570312 C 1100.1875 545.511719 1101.640625 542 1104.703125 540.734375 L 1137.796875 527.023438 C 1140.859375 525.757812 1144.367188 527.210938 1145.636719 530.269531 L 1157.503906 558.921875 C 1158.769531 561.980469 1157.316406 565.492188 1154.257812 566.757812 Z M 1154.257812 566.757812 " clip-rule="nonzero"/></clipPath><clipPath id="f9282c4a79"><path d="M 733.597656 667.101562 L 766.402344 667.101562 L 766.402344 699.90625 L 733.597656 699.90625 Z M 733.597656 667.101562 " clip-rule="nonzero"/></clipPath><clipPath id="2939a785e1"><path d="M 750 667.101562 C 740.941406 667.101562 733.597656 674.445312 733.597656 683.503906 C 733.597656 692.5625 740.941406 699.90625 750 699.90625 C 759.058594 699.90625 766.402344 692.5625 766.402344 683.503906 C 766.402344 674.445312 759.058594 667.101562 750 667.101562 Z M 750 667.101562 " clip-rule="nonzero"/></clipPath></defs><rect x="-150" width="1800" fill="#ffffff" y="-112.499995" height="1349.99994" fill-opacity="1"/><rect x="-150" width="1800" fill="#ffffff" y="-112.499995" height="1349.99994" fill-opacity="1"/><g clip-path="url(#855df5a191)"><g clip-path="url(#27e169c779)"><path stroke-linecap="butt" transform="matrix(0, -0.75, 0.75, 0, 712.091756, 797.465647)" fill="none" stroke-linejoin="miter" d="M 8.001072 -0.00254969 L 55.761489 -0.00254969 C 60.183364 -0.00254969 63.76149 3.580784 63.76149 7.99745 L 63.76149 49.34641 C 63.76149 53.763077 60.183364 57.341202 55.761489 57.341202 L 8.001072 57.341202 C 3.579197 57.341202 0.00107144 53.763077 0.00107144 49.34641 L 0.00107144 7.99745 C 0.00107144 3.580784 3.579197 -0.00254969 8.001072 -0.00254969 Z M 8.001072 -0.00254969 " stroke="#cc0829" stroke-width="24" stroke-opacity="1" stroke-miterlimit="4"/></g></g><path stroke-linecap="round" transform="matrix(-0.75, 0, 0, -0.75, 1252.534605, 799.848079)" fill="none" stroke-linejoin="miter" d="M 8.999266 9.000565 L 1328.21813 9.000565 " stroke="#000000" stroke-width="18" stroke-opacity="1" stroke-miterlimit="4"/><g clip-path="url(#476c16534c)"><g clip-path="url(#26e2d706cb)"><g clip-path="url(#9bcd1697d1)"><g clip-path="url(#c695e2c974)"><path stroke-linecap="butt" transform="matrix(-0.409148, -0.628568, 0.628568, -0.409148, 642.061922, 588.270049)" fill="none" stroke-linejoin="miter" d="M 7.999 -0.000129289 L 55.763876 -0.000201876 C 60.182956 -0.00105196 63.760178 3.582773 63.76387 7.997488 L 63.762856 49.348268 C 63.762182 53.760141 60.179881 57.34457 55.763642 57.341055 L 7.998767 57.341128 C 3.579687 57.341978 -0.000377076 53.762518 -0.00122716 49.343438 L 0.00131053 7.999864 C 0.000460451 3.580785 3.579921 0.000720791 7.999 -0.000129289 Z M 7.999 -0.000129289 " stroke="#cc0829" stroke-width="24" stroke-opacity="1" stroke-miterlimit="4"/></g></g></g></g><path stroke-linecap="round" transform="matrix(0.627219, -0.411212, 0.411212, 0.627219, 245.930724, 787.45076)" fill="none" stroke-linejoin="miter" d="M 9.00103 9.00021 L 1257.243503 9.000083 " stroke="#000000" stroke-width="18" stroke-opacity="1" stroke-miterlimit="4"/><g clip-path="url(#6055a4c3fb)"><g clip-path="url(#73f5a82ba7)"><g clip-path="url(#04983c1d19)"><g clip-path="url(#fe30686cef)"><path stroke-linecap="butt" transform="matrix(-0.692913, 0.287004, -0.287004, -0.692913, 1159.798301, 564.462987)" fill="none" stroke-linejoin="miter" d="M 7.995915 0.000054734 L 55.762844 -0.00227861 C 60.181131 0.00124687 63.760786 3.581064 63.762072 8.001344 L 63.763316 49.346787 C 63.761784 53.760261 60.179973 57.344728 55.761687 57.341202 L 7.999569 57.345529 C 3.581282 57.342003 0.00162794 53.762186 -0.00165156 49.346718 L -0.000902391 7.996463 C 0.000630006 3.582989 3.58244 -0.00147766 7.995915 0.000054734 Z M 7.995915 0.000054734 " stroke="#cc0829" stroke-width="24" stroke-opacity="1" stroke-miterlimit="4"/></g></g></g></g><path stroke-linecap="round" transform="matrix(-0.285338, -0.693601, 0.693601, -0.285338, 1246.298374, 800.039143)" fill="none" stroke-linejoin="miter" d="M 8.997859 8.998991 L 748.024254 9.000267 " stroke="#000000" stroke-width="18" stroke-opacity="1" stroke-miterlimit="4"/><path stroke-linecap="round" transform="matrix(-0.75, 0, 0, -0.75, 1252.534605, 799.848079)" fill="none" stroke-linejoin="miter" d="M 8.999266 9.000565 L 1328.21813 9.000565 " stroke="#000000" stroke-width="18" stroke-opacity="1" stroke-miterlimit="4"/><path stroke-linecap="round" transform="matrix(0, -0.75, 0.75, 0, 743.248505, 946.055587)" fill="none" stroke-linejoin="miter" d="M 9.001199 9.001994 L 889.2044 9.001994 " stroke="#1e76e9" stroke-width="18" stroke-opacity="1" stroke-miterlimit="4"/><path stroke-linecap="round" transform="matrix(-0.696265, 0.278774, -0.278774, -0.696265, 1359.310452, 449.200213)" fill="none" stroke-linejoin="miter" d="M 8.99925 9.001685 L 1453.688866 9.000363 " stroke="#1e76e9" stroke-width="18" stroke-opacity="1" stroke-miterlimit="4"/><path stroke-linecap="round" transform="matrix(-0.405434, -0.63097, 0.63097, -0.405434, 956.317031, 1016.147244)" fill="none" stroke-linejoin="miter" d="M 8.998639 9.000385 L 1044.957956 9.00188 " stroke="#1e76e9" stroke-width="18" stroke-opacity="1" stroke-miterlimit="4"/><g clip-path="url(#f9282c4a79)"><g clip-path="url(#2939a785e1)"><path fill="#cc0829" d="M 733.597656 667.101562 L 766.402344 667.101562 L 766.402344 699.90625 L 733.597656 699.90625 Z M 733.597656 667.101562 " fill-opacity="1" fill-rule="nonzero"/></g></g></svg>