<?xml version="1.0" encoding="UTF-8"?>
<!DOCTYPE svg PUBLIC "-//W3C//DTD SVG 1.1//EN" "http://www.w3.org/Graphics/SVG/1.1/DTD/svg11.dtd">
<svg xmlns="http://www.w3.org/2000/svg" version="1.1" width="512px" height="512px" style="shape-rendering:geometricPrecision; text-rendering:geometricPrecision; image-rendering:optimizeQuality; fill-rule:evenodd; clip-rule:evenodd" xmlns:xlink="http://www.w3.org/1999/xlink">
<g><path style="opacity:0.975" fill="#000000" d="M 152.5,59.5 C 196.943,56.9312 236.943,68.7645 272.5,95C 302.359,119.912 313.526,151.412 306,189.5C 345.168,181.161 383.334,184.661 420.5,200C 444.344,210.665 463.51,226.832 478,248.5C 498.886,292.799 490.719,330.966 453.5,363C 448.179,367.328 442.512,371.162 436.5,374.5C 425.397,399.041 414.563,423.707 404,448.5C 399.667,452.5 395.333,452.5 391,448.5C 383.496,431.316 375.996,414.15 368.5,397C 328.897,401.48 291.564,394.146 256.5,375C 231.251,360.414 214.084,339.248 205,311.5C 201.614,297.12 201.781,282.787 205.5,268.5C 184.636,272.209 163.636,273.376 142.5,272C 134.871,288.759 127.371,305.592 120,322.5C 112.123,327.906 106.79,325.906 104,316.5C 94.6085,294.05 84.9419,271.717 75,249.5C 51.1521,236.321 34.4855,216.988 25,191.5C 16.3152,158.908 23.3152,130.241 46,105.5C 75.8579,77.2642 111.358,61.9309 152.5,59.5 Z M 147.5,75.5 C 187.974,72.0343 224.974,81.5343 258.5,104C 276.089,117.016 287.255,134.182 292,155.5C 294.215,169.444 292.048,182.61 285.5,195C 254.779,204.744 230.779,223.077 213.5,250C 188.463,256.751 163.13,258.251 137.5,254.5C 132.491,256.011 129.324,259.344 128,264.5C 123.528,275.582 118.862,286.582 114,297.5C 104.953,278.368 96.2865,259.035 88,239.5C 71.4709,229.973 57.8042,217.306 47,201.5C 32.1057,175.001 33.439,149.334 51,124.5C 70.0002,101.409 94.1668,86.5756 123.5,80C 131.619,78.3719 139.619,76.8719 147.5,75.5 Z M 293.5,265.5 C 328.835,265.333 364.168,265.5 399.5,266C 405.089,270.795 404.756,275.128 398.5,279C 363.833,279.667 329.167,279.667 294.5,279C 289.709,277.588 287.876,274.421 289,269.5C 290.397,267.93 291.897,266.596 293.5,265.5 Z M 293.5,312.5 C 310.17,312.333 326.837,312.5 343.5,313C 350.167,317.333 350.167,321.667 343.5,326C 326.833,326.667 310.167,326.667 293.5,326C 286.875,321.417 286.875,316.917 293.5,312.5 Z"/></g>
<g><path style="opacity:0.96" fill="#000000" d="M 110.5,139.5 C 146.835,139.333 183.168,139.5 219.5,140C 224.812,144.572 224.812,149.239 219.5,154C 183.167,154.667 146.833,154.667 110.5,154C 107.634,152.607 106.301,150.274 106.5,147C 106.43,143.634 107.763,141.134 110.5,139.5 Z"/></g>
<g><path style="opacity:0.95" fill="#000000" d="M 110.5,186.5 C 128.503,186.333 146.503,186.5 164.5,187C 169.833,191.667 169.833,196.333 164.5,201C 146.5,201.667 128.5,201.667 110.5,201C 107.634,199.607 106.301,197.274 106.5,194C 106.43,190.634 107.763,188.134 110.5,186.5 Z"/></g>
</svg>
