<svg xmlns="http://www.w3.org/2000/svg" xmlns:xlink="http://www.w3.org/1999/xlink" width="2000" zoomAndPan="magnify" viewBox="0 0 1500 1124.99995" height="1500" preserveAspectRatio="xMidYMid meet" version="1.0"><defs><clipPath id="ab80b6b450"><path d="M 341.953125 154.453125 L 1157.953125 154.453125 L 1157.953125 970.453125 L 341.953125 970.453125 Z M 341.953125 154.453125 " clip-rule="nonzero"/></clipPath></defs><rect x="-150" width="1800" fill="#ffffff" y="-112.499995" height="1349.99994" fill-opacity="1"/><rect x="-150" width="1800" fill="#ffffff" y="-112.499995" height="1349.99994" fill-opacity="1"/><rect x="-150" width="1800" fill="#ffffff" y="-112.499995" height="1349.99994" fill-opacity="1"/><path fill="#000000" d="M 670.621094 781.1875 L 723.511719 781.1875 C 729.554688 781.1875 734.84375 775.898438 734.84375 769.855469 C 734.84375 763.808594 729.554688 758.523438 723.511719 758.523438 L 670.621094 758.523438 C 664.578125 758.523438 659.289062 763.808594 659.289062 769.855469 C 659.289062 775.898438 664.578125 781.1875 670.621094 781.1875 Z M 670.621094 781.1875 " fill-opacity="1" fill-rule="nonzero"/><path fill="#000000" d="M 776.398438 781.1875 L 829.289062 781.1875 C 835.332031 781.1875 840.621094 775.898438 840.621094 769.855469 C 840.621094 763.808594 835.332031 758.523438 829.289062 758.523438 L 776.398438 758.523438 C 770.355469 758.523438 765.066406 763.808594 765.066406 769.855469 C 765.066406 775.898438 770.355469 781.1875 776.398438 781.1875 Z M 776.398438 781.1875 " fill-opacity="1" fill-rule="nonzero"/><path fill="#000000" d="M 542.175781 539.410156 C 548.222656 539.410156 553.511719 534.121094 553.511719 528.078125 L 553.511719 475.1875 C 553.511719 469.144531 548.222656 463.855469 542.175781 463.855469 C 536.132812 463.855469 530.84375 469.144531 530.84375 475.1875 L 530.84375 528.078125 C 530.84375 534.121094 536.132812 539.410156 542.175781 539.410156 Z M 542.175781 539.410156 " fill-opacity="1" fill-rule="nonzero"/><path fill="#000000" d="M 935.066406 758.523438 L 882.175781 758.523438 C 876.132812 758.523438 870.84375 763.808594 870.84375 769.855469 C 870.84375 775.898438 876.132812 781.1875 882.175781 781.1875 L 935.066406 781.1875 C 941.109375 781.1875 946.398438 775.898438 946.398438 769.855469 C 946.398438 763.808594 941.109375 758.523438 935.066406 758.523438 Z M 935.066406 758.523438 " fill-opacity="1" fill-rule="nonzero"/><path fill="#000000" d="M 530.84375 316.523438 C 530.84375 322.566406 536.132812 327.855469 542.175781 327.855469 C 548.222656 327.855469 553.511719 322.566406 553.511719 316.523438 L 553.511719 263.632812 C 553.511719 257.589844 548.222656 252.300781 542.175781 252.300781 C 536.132812 252.300781 530.84375 257.589844 530.84375 263.632812 Z M 530.84375 316.523438 " fill-opacity="1" fill-rule="nonzero"/><path fill="#000000" d="M 542.175781 750.964844 C 548.222656 750.964844 553.511719 745.675781 553.511719 739.632812 L 553.511719 686.742188 C 553.511719 680.699219 548.222656 675.410156 542.175781 675.410156 C 536.132812 675.410156 530.84375 680.699219 530.84375 686.742188 L 530.84375 739.632812 C 530.84375 745.675781 536.132812 750.964844 542.175781 750.964844 Z M 542.175781 750.964844 " fill-opacity="1" fill-rule="nonzero"/><path fill="#000000" d="M 1040.84375 758.523438 L 987.953125 758.523438 C 981.910156 758.523438 976.621094 763.808594 976.621094 769.855469 C 976.621094 775.898438 981.910156 781.1875 987.953125 781.1875 L 1040.84375 781.1875 C 1046.886719 781.1875 1052.175781 775.898438 1052.175781 769.855469 C 1052.175781 763.808594 1046.886719 758.523438 1040.84375 758.523438 Z M 1040.84375 758.523438 " fill-opacity="1" fill-rule="nonzero"/><path fill="#000000" d="M 564.84375 781.1875 L 617.734375 781.1875 C 623.777344 781.1875 629.066406 775.898438 629.066406 769.855469 C 629.066406 763.808594 623.777344 758.523438 617.734375 758.523438 L 564.84375 758.523438 C 558.800781 758.523438 553.511719 763.808594 553.511719 769.855469 C 553.511719 775.898438 558.800781 781.1875 564.84375 781.1875 Z M 564.84375 781.1875 " fill-opacity="1" fill-rule="nonzero"/><path fill="#000000" d="M 542.175781 645.1875 C 548.222656 645.1875 553.511719 639.898438 553.511719 633.855469 L 553.511719 580.964844 C 553.511719 574.921875 548.222656 569.632812 542.175781 569.632812 C 536.132812 569.632812 530.84375 574.921875 530.84375 580.964844 L 530.84375 633.855469 C 530.84375 639.898438 536.132812 645.1875 542.175781 645.1875 Z M 542.175781 645.1875 " fill-opacity="1" fill-rule="nonzero"/><g clip-path="url(#ab80b6b450)"><path fill="#000000" d="M 1157.953125 769.855469 L 1157.953125 165.410156 C 1157.953125 163.898438 1157.953125 162.386719 1157.199219 161.632812 C 1155.6875 158.609375 1154.175781 156.34375 1151.15625 155.589844 C 1149.644531 154.832031 1148.132812 154.832031 1147.378906 154.832031 L 542.933594 154.832031 C 541.421875 154.832031 539.910156 154.832031 539.15625 155.589844 C 537.644531 156.34375 536.132812 157.097656 535.378906 157.855469 L 346.488281 346.742188 C 345.734375 347.5 344.222656 349.011719 344.222656 350.523438 C 341.953125 351.277344 341.953125 352.789062 341.953125 354.300781 L 341.953125 958.742188 C 341.953125 964.789062 347.242188 970.078125 353.289062 970.078125 L 957.734375 970.078125 C 959.242188 970.078125 960.753906 970.078125 961.511719 969.320312 C 963.023438 968.566406 964.53125 967.808594 965.289062 967.054688 L 1154.175781 778.164062 C 1154.933594 777.410156 1156.445312 775.898438 1156.445312 774.386719 C 1157.953125 772.878906 1157.953125 771.367188 1157.953125 769.855469 Z M 542.175781 222.078125 C 548.222656 222.078125 553.511719 216.789062 553.511719 210.742188 L 553.511719 176.742188 L 1119.421875 176.742188 L 953.199219 342.964844 L 380.488281 342.964844 L 530.84375 192.609375 L 530.84375 210.742188 C 530.84375 216.789062 536.132812 222.078125 542.175781 222.078125 Z M 400.886719 911.144531 C 396.355469 906.609375 389.554688 906.609375 385.023438 911.144531 L 365.378906 930.789062 L 365.378906 365.632812 L 532.355469 365.632812 C 530.84375 367.144531 530.84375 367.898438 530.84375 369.410156 L 530.84375 422.300781 C 530.84375 428.34375 536.132812 433.632812 542.175781 433.632812 C 548.222656 433.632812 553.511719 428.34375 553.511719 422.300781 L 553.511719 369.410156 C 553.511719 367.898438 553.511719 367.144531 552.753906 365.632812 L 946.398438 365.632812 L 946.398438 947.410156 L 380.488281 947.410156 L 400.132812 927.765625 C 404.667969 923.234375 404.667969 915.675781 400.886719 911.144531 Z M 969.066406 358.832031 L 1135.289062 192.609375 L 1135.289062 758.523438 L 1093.734375 758.523438 C 1087.6875 758.523438 1082.398438 763.808594 1082.398438 769.855469 C 1082.398438 775.898438 1087.6875 781.1875 1093.734375 781.1875 L 1119.421875 781.1875 L 969.066406 931.542969 Z M 969.066406 358.832031 " fill-opacity="1" fill-rule="nonzero"/></g><path fill="#000000" d="M 430.355469 893.011719 C 433.378906 893.011719 436.398438 892.253906 438.667969 889.988281 L 475.6875 852.210938 C 480.222656 847.675781 480.222656 840.878906 475.6875 836.34375 C 471.15625 831.808594 464.355469 831.808594 459.820312 836.34375 L 422.800781 874.121094 C 418.265625 878.65625 418.265625 885.453125 422.800781 889.988281 C 424.308594 892.253906 427.332031 893.011719 430.355469 893.011719 Z M 430.355469 893.011719 " fill-opacity="1" fill-rule="nonzero"/><path fill="#000000" d="M 505.15625 818.964844 C 508.175781 818.964844 511.199219 818.210938 513.464844 815.945312 L 550.488281 778.167969 C 552.753906 775.898438 553.511719 772.878906 553.511719 769.855469 C 553.511719 766.832031 552.753906 763.808594 550.488281 761.542969 C 545.953125 757.011719 539.15625 757.011719 534.621094 761.542969 L 497.597656 799.320312 C 493.066406 803.855469 493.066406 810.65625 497.597656 815.1875 C 499.109375 817.453125 502.132812 818.964844 505.15625 818.964844 Z M 505.15625 818.964844 " fill-opacity="1" fill-rule="nonzero"/></svg>