<?xml version="1.0" encoding="UTF-8"?>
<!DOCTYPE svg PUBLIC "-//W3C//DTD SVG 1.1//EN" "http://www.w3.org/Graphics/SVG/1.1/DTD/svg11.dtd">
<svg xmlns="http://www.w3.org/2000/svg" version="1.1" width="2000px" height="1500px" style="shape-rendering:geometricPrecision; text-rendering:geometricPrecision; image-rendering:optimizeQuality; fill-rule:evenodd; clip-rule:evenodd" xmlns:xlink="http://www.w3.org/1999/xlink">
<g><path style="opacity:1" fill="#fefefe" d="M -0.5,-0.5 C 666.167,-0.5 1332.83,-0.5 1999.5,-0.5C 1999.5,499.5 1999.5,999.5 1999.5,1499.5C 1332.83,1499.5 666.167,1499.5 -0.5,1499.5C -0.5,999.5 -0.5,499.5 -0.5,-0.5 Z"/></g>
<g><path style="opacity:1" fill="#0a090a" d="M 921.5,175.5 C 921.217,174.711 920.717,174.044 920,173.5C 919.17,198.67 919.337,223.67 920.5,248.5C 920.979,322.5 921.479,396.5 922,470.5C 950.56,441.921 984.394,422.754 1023.5,413C 1030.47,412.003 1037.47,411.503 1044.5,411.5C 1044.5,414.167 1044.5,416.833 1044.5,419.5C 1034.66,419.791 1025.33,421.791 1016.5,425.5C 1013.43,425.547 1010.43,426.047 1007.5,427C 1002.32,430.105 996.99,432.605 991.5,434.5C 984.514,436.709 978.181,440.042 972.5,444.5C 965.89,447.808 959.556,451.642 953.5,456C 943.333,464.833 933.167,473.667 923,482.5C 921.531,498.071 921.031,513.737 921.5,529.5C 921.5,541.833 921.5,554.167 921.5,566.5C 918.29,570.921 914.623,574.921 910.5,578.5C 910.833,551.159 910.5,523.825 909.5,496.5C 908.893,496.624 908.56,496.957 908.5,497.5C 904.76,501.233 901.427,505.233 898.5,509.5C 894.197,514.809 889.863,520.142 885.5,525.5C 881.925,529.653 878.591,533.986 875.5,538.5C 871.427,543.906 867.761,549.572 864.5,555.5C 860.301,561.586 856.134,567.92 852,574.5C 851.392,576.154 850.892,577.821 850.5,579.5C 847.011,583.046 844.678,587.379 843.5,592.5C 841.755,594.033 840.755,596.033 840.5,598.5C 838.755,600.033 837.755,602.033 837.5,604.5C 835.628,607.583 834.295,610.916 833.5,614.5C 832.069,615.903 830.902,617.569 830,619.5C 827.549,625.767 825.382,632.1 823.5,638.5C 817.863,652.38 812.53,666.38 807.5,680.5C 803.862,685.466 801.529,691.133 800.5,697.5C 798.603,699.698 797.603,702.364 797.5,705.5C 795.12,707.582 793.454,710.249 792.5,713.5C 783.867,724.135 774.867,734.468 765.5,744.5C 765.351,743.448 765.517,742.448 766,741.5C 771.249,735.098 775.415,728.098 778.5,720.5C 782.052,715.218 785.052,709.552 787.5,703.5C 788.054,700.254 789.054,697.254 790.5,694.5C 793.276,689.792 795.609,684.792 797.5,679.5C 797.833,678.167 798.167,676.833 798.5,675.5C 800.739,671.351 802.739,667.018 804.5,662.5C 811.712,641.761 819.712,621.427 828.5,601.5C 831.25,597.613 833.25,593.28 834.5,588.5C 836.322,584.338 838.322,580.338 840.5,576.5C 842.943,573.948 844.61,570.948 845.5,567.5C 848.255,563.745 850.589,559.745 852.5,555.5C 854.822,554.198 856.155,552.198 856.5,549.5C 859.225,545.159 861.892,540.826 864.5,536.5C 864.957,535.702 865.624,535.369 866.5,535.5C 870.237,531.698 873.237,527.365 875.5,522.5C 879.746,519.391 883.08,515.391 885.5,510.5C 892.392,500.743 900.225,491.743 909,483.5C 909.128,405.167 908.961,326.834 908.5,248.5C 908.667,223.498 908.5,198.498 908,173.5C 907.283,174.044 906.783,174.711 906.5,175.5C 904.113,180.055 900.613,183.388 896,185.5C 890.977,184.458 889.31,181.458 891,176.5C 897.167,168.167 903.333,159.833 909.5,151.5C 911.527,149.661 913.86,149.161 916.5,150C 923.938,158.382 930.771,167.215 937,176.5C 938.098,183.743 935.265,186.243 928.5,184C 925.8,181.412 923.467,178.579 921.5,175.5 Z"/></g>
<g><path style="opacity:1" fill="#621feb" d="M 1073.5,407.5 C 1071.09,405.084 1068.43,403.084 1065.5,401.5C 1133.6,323.564 1201.93,245.73 1270.5,168C 1275.98,166.974 1278.14,169.141 1277,174.5C 1275,177.167 1273,179.833 1271,182.5C 1205.3,257.693 1139.47,332.693 1073.5,407.5 Z"/></g>
<g><path style="opacity:1" fill="#2477e9" d="M 809.5,290.5 C 809.178,284.642 809.511,278.975 810.5,273.5C 820.268,275.454 826.268,271.621 828.5,262C 820.265,241.127 811.931,220.293 803.5,199.5C 811.392,198.186 819.225,198.186 827,199.5C 831.613,213.672 835.613,228.005 839,242.5C 842.66,228.019 846.827,213.685 851.5,199.5C 859.167,198.167 866.833,198.167 874.5,199.5C 864.628,225.951 854.461,252.284 844,278.5C 839.382,285.562 832.882,289.728 824.5,291C 819.316,291.816 814.316,291.65 809.5,290.5 Z"/></g>
<g><path style="opacity:1" fill="#404040" d="M 921.5,175.5 C 920.502,199.661 920.169,223.994 920.5,248.5C 919.337,223.67 919.17,198.67 920,173.5C 920.717,174.044 921.217,174.711 921.5,175.5 Z"/></g>
<g><path style="opacity:1" fill="#bdbdbd" d="M 908.5,248.5 C 907.833,224.167 907.167,199.833 906.5,175.5C 906.783,174.711 907.283,174.044 908,173.5C 908.5,198.498 908.667,223.498 908.5,248.5 Z"/></g>
<g><path style="opacity:1" fill="#9fc4f5" d="M 810.5,273.5 C 809.511,278.975 809.178,284.642 809.5,290.5C 808.183,284.654 808.183,278.654 809.5,272.5C 810.107,272.624 810.44,272.957 810.5,273.5 Z"/></g>
<g><path style="opacity:1" fill="#621feb" d="M 1183.5,536.5 C 1181.83,533.833 1180.17,531.167 1178.5,528.5C 1276.26,473.946 1374.42,419.946 1473,366.5C 1479.08,370.481 1478.91,374.315 1472.5,378C 1376.11,430.858 1279.78,483.691 1183.5,536.5 Z"/></g>
<g><path style="opacity:1" fill="#cb0e2b" d="M 1065.5,401.5 C 1068.43,403.084 1071.09,405.084 1073.5,407.5C 1075.06,409.954 1076.06,412.62 1076.5,415.5C 1076.69,419.032 1076.02,422.365 1074.5,425.5C 1068.68,432.4 1061.35,434.4 1052.5,431.5C 1049.83,429.5 1047.5,427.167 1045.5,424.5C 1045.57,423.041 1045.23,421.708 1044.5,420.5C 1044.5,420.167 1044.5,419.833 1044.5,419.5C 1044.5,416.833 1044.5,414.167 1044.5,411.5C 1048.93,403.12 1055.93,399.787 1065.5,401.5 Z"/></g>
<g><path style="opacity:1" fill="#101010" d="M 1076.5,415.5 C 1096.2,423.353 1113.04,435.353 1127,451.5C 1135.81,463.951 1144.14,476.618 1152,489.5C 1154.95,496.362 1158.29,503.029 1162,509.5C 1164.3,514.693 1166.13,520.026 1167.5,525.5C 1163.66,525.022 1160.33,526.022 1157.5,528.5C 1155.45,522.977 1153.62,517.311 1152,511.5C 1142.55,491.174 1130.88,472.174 1117,454.5C 1105.32,440.951 1091.15,431.284 1074.5,425.5C 1076.02,422.365 1076.69,419.032 1076.5,415.5 Z"/></g>
<g><path style="opacity:1" fill="#fcfcfc" d="M 1044.5,420.5 C 1045.23,421.708 1045.57,423.041 1045.5,424.5C 1005.18,471.488 964.511,518.154 923.5,564.5C 922.833,552.833 922.167,541.167 921.5,529.5C 921.031,513.737 921.531,498.071 923,482.5C 933.167,473.667 943.333,464.833 953.5,456C 959.556,451.642 965.89,447.808 972.5,444.5C 974.482,444.005 976.482,443.505 978.5,443C 982.731,439.922 987.064,437.089 991.5,434.5C 996.99,432.605 1002.32,430.105 1007.5,427C 1010.43,426.047 1013.43,425.547 1016.5,425.5C 1025.86,423.811 1035.19,422.144 1044.5,420.5 Z"/></g>
<g><path style="opacity:1" fill="#7c7c7c" d="M 1044.5,419.5 C 1044.5,419.833 1044.5,420.167 1044.5,420.5C 1035.19,422.144 1025.86,423.811 1016.5,425.5C 1025.33,421.791 1034.66,419.791 1044.5,419.5 Z"/></g>
<g><path style="opacity:1" fill="#621feb" d="M 1045.5,424.5 C 1047.5,427.167 1049.83,429.5 1052.5,431.5C 1009.17,481.5 965.833,531.5 922.5,581.5C 918.155,585.847 914.155,590.514 910.5,595.5C 865.164,646.313 820.164,697.48 775.5,749C 820.667,725.078 865.667,700.578 910.5,675.5C 914.864,673.656 918.864,671.323 922.5,668.5C 999.323,627.258 1075.66,585.258 1151.5,542.5C 1152.19,546.225 1153.85,549.559 1156.5,552.5C 1078.34,594.409 1000.68,637.075 923.5,680.5C 923.167,680.5 922.833,680.5 922.5,680.5C 918.465,682.848 914.465,685.182 910.5,687.5C 865.727,711.721 821.06,736.221 776.5,761C 821.35,755.811 866.016,749.978 910.5,743.5C 914.5,743.167 918.5,742.833 922.5,742.5C 923.791,742.737 924.791,742.404 925.5,741.5C 1011.46,730.172 1097.46,719.172 1183.5,708.5C 1183.31,712.032 1183.98,715.365 1185.5,718.5C 1098.06,729.185 1010.73,740.519 923.5,752.5C 919.316,752.851 915.316,753.518 911.5,754.5C 911.167,754.5 910.833,754.5 910.5,754.5C 862.088,760.323 813.754,766.657 765.5,773.5C 764.961,766.048 761.294,761.048 754.5,758.5C 756.787,754.878 759.453,751.545 762.5,748.5C 763.974,747.564 764.974,746.23 765.5,744.5C 774.867,734.468 783.867,724.135 792.5,713.5C 794.833,711.833 796.833,709.833 798.5,707.5C 835.844,665.488 872.844,623.155 909.5,580.5C 910.338,580.158 910.672,579.492 910.5,578.5C 914.623,574.921 918.29,570.921 921.5,566.5C 922.5,566.167 923.167,565.5 923.5,564.5C 964.511,518.154 1005.18,471.488 1045.5,424.5 Z"/></g>
<g><path style="opacity:1" fill="#fefefe" d="M 1074.5,425.5 C 1091.15,431.284 1105.32,440.951 1117,454.5C 1130.88,472.174 1142.55,491.174 1152,511.5C 1153.62,517.311 1155.45,522.977 1157.5,528.5C 1153.32,532.205 1151.32,536.872 1151.5,542.5C 1075.66,585.258 999.323,627.258 922.5,668.5C 922.5,639.5 922.5,610.5 922.5,581.5C 965.833,531.5 1009.17,481.5 1052.5,431.5C 1061.35,434.4 1068.68,432.4 1074.5,425.5 Z"/></g>
<g><path style="opacity:1" fill="#a7a7a7" d="M 991.5,434.5 C 987.064,437.089 982.731,439.922 978.5,443C 976.482,443.505 974.482,444.005 972.5,444.5C 978.181,440.042 984.514,436.709 991.5,434.5 Z"/></g>
<g><path style="opacity:1" fill="#fcfcfc" d="M 908.5,497.5 C 909.498,524.995 909.831,552.662 909.5,580.5C 872.844,623.155 835.844,665.488 798.5,707.5C 797.662,707.158 797.328,706.492 797.5,705.5C 797.603,702.364 798.603,699.698 800.5,697.5C 802.52,694.38 804.354,691.046 806,687.5C 806.44,685.134 806.94,682.801 807.5,680.5C 812.53,666.38 817.863,652.38 823.5,638.5C 824.79,637.942 825.623,636.942 826,635.5C 828.347,628.448 830.847,621.448 833.5,614.5C 834.295,610.916 835.628,607.583 837.5,604.5C 839.245,602.967 840.245,600.967 840.5,598.5C 840.755,596.033 841.755,594.033 843.5,592.5C 846.645,588.666 848.979,584.333 850.5,579.5C 850.892,577.821 851.392,576.154 852,574.5C 856.134,567.92 860.301,561.586 864.5,555.5C 867.576,551.244 870.909,547.077 874.5,543C 875.148,541.56 875.481,540.06 875.5,538.5C 878.591,533.986 881.925,529.653 885.5,525.5C 891.296,521.369 895.629,516.036 898.5,509.5C 901.427,505.233 904.76,501.233 908.5,497.5 Z"/></g>
<g><path style="opacity:1" fill="#b1b1b1" d="M 898.5,509.5 C 895.629,516.036 891.296,521.369 885.5,525.5C 889.863,520.142 894.197,514.809 898.5,509.5 Z"/></g>
<g><path style="opacity:1" fill="#585858" d="M 885.5,510.5 C 883.08,515.391 879.746,519.391 875.5,522.5C 878.386,518.02 881.719,514.02 885.5,510.5 Z"/></g>
<g><path style="opacity:1" fill="#cb0e2b" d="M 1167.5,525.5 C 1171.57,525.12 1175.24,526.12 1178.5,528.5C 1180.17,531.167 1181.83,533.833 1183.5,536.5C 1184.04,542.865 1182.38,548.532 1178.5,553.5C 1175.45,555.292 1172.12,556.292 1168.5,556.5C 1163.73,557.258 1159.73,555.925 1156.5,552.5C 1153.85,549.559 1152.19,546.225 1151.5,542.5C 1151.32,536.872 1153.32,532.205 1157.5,528.5C 1160.33,526.022 1163.66,525.022 1167.5,525.5 Z"/></g>
<g><path style="opacity:1" fill="#6b6b6b" d="M 875.5,522.5 C 873.237,527.365 870.237,531.698 866.5,535.5C 868.763,530.635 871.763,526.302 875.5,522.5 Z"/></g>
<g><path style="opacity:1" fill="#a5a5a5" d="M 875.5,538.5 C 875.481,540.06 875.148,541.56 874.5,543C 870.909,547.077 867.576,551.244 864.5,555.5C 867.761,549.572 871.427,543.906 875.5,538.5 Z"/></g>
<g><path style="opacity:1" fill="#717171" d="M 856.5,549.5 C 856.155,552.198 854.822,554.198 852.5,555.5C 853.34,553.147 854.674,551.147 856.5,549.5 Z"/></g>
<g><path style="opacity:1" fill="#fefefe" d="M 1156.5,552.5 C 1159.73,555.925 1163.73,557.258 1168.5,556.5C 1173.79,573.246 1178.13,590.246 1181.5,607.5C 1182,615.195 1182.84,622.861 1184,630.5C 1184.28,631.416 1184.78,632.082 1185.5,632.5C 1185.98,638.66 1186.65,644.66 1187.5,650.5C 1186.87,657.913 1187.54,664.913 1189.5,671.5C 1189.22,673.415 1189.55,675.081 1190.5,676.5C 1190.5,683.5 1190.5,690.5 1190.5,697.5C 1187.02,700.337 1184.69,704.004 1183.5,708.5C 1097.46,719.172 1011.46,730.172 925.5,741.5C 923.512,721.527 922.845,701.194 923.5,680.5C 1000.68,637.075 1078.34,594.409 1156.5,552.5 Z"/></g>
<g><path style="opacity:1" fill="#99989a" d="M 921.5,529.5 C 922.167,541.167 922.833,552.833 923.5,564.5C 923.167,565.5 922.5,566.167 921.5,566.5C 921.5,554.167 921.5,541.833 921.5,529.5 Z"/></g>
<g><path style="opacity:1" fill="#0c0c0c" d="M 1178.5,553.5 C 1178.67,555.861 1179.01,558.194 1179.5,560.5C 1180.06,562.801 1180.56,565.134 1181,567.5C 1181.38,568.056 1181.88,568.389 1182.5,568.5C 1185.14,578.385 1187.47,588.385 1189.5,598.5C 1190,602.49 1190.5,606.49 1191,610.5C 1191.28,611.416 1191.78,612.082 1192.5,612.5C 1192.5,613.167 1192.5,613.833 1192.5,614.5C 1192.78,621.084 1193.78,627.417 1195.5,633.5C 1195.5,634.5 1195.5,635.5 1195.5,636.5C 1195.59,644.238 1196.59,651.571 1198.5,658.5C 1198.5,664.523 1198.84,670.523 1199.5,676.5C 1199.97,682.491 1200.3,688.491 1200.5,694.5C 1197.58,694.283 1194.91,694.949 1192.5,696.5C 1192.11,689.661 1191.44,682.994 1190.5,676.5C 1189.55,675.081 1189.22,673.415 1189.5,671.5C 1189.23,664.317 1188.57,657.317 1187.5,650.5C 1186.65,644.66 1185.98,638.66 1185.5,632.5C 1184.53,623.999 1183.19,615.665 1181.5,607.5C 1178.13,590.246 1173.79,573.246 1168.5,556.5C 1172.12,556.292 1175.45,555.292 1178.5,553.5 Z"/></g>
<g><path style="opacity:1" fill="#7a7a7a" d="M 1179.5,560.5 C 1180.12,560.611 1180.62,560.944 1181,561.5C 1181.44,563.866 1181.94,566.199 1182.5,568.5C 1181.88,568.389 1181.38,568.056 1181,567.5C 1180.56,565.134 1180.06,562.801 1179.5,560.5 Z"/></g>
<g><path style="opacity:1" fill="#626263" d="M 908.5,497.5 C 908.56,496.957 908.893,496.624 909.5,496.5C 910.5,523.825 910.833,551.159 910.5,578.5C 910.672,579.492 910.338,580.158 909.5,580.5C 909.831,552.662 909.498,524.995 908.5,497.5 Z"/></g>
<g><path style="opacity:1" fill="#767676" d="M 845.5,567.5 C 844.61,570.948 842.943,573.948 840.5,576.5C 841.41,573.008 843.076,570.008 845.5,567.5 Z"/></g>
<g><path style="opacity:1" fill="#060607" d="M 922.5,581.5 C 922.5,610.5 922.5,639.5 922.5,668.5C 918.864,671.323 914.864,673.656 910.5,675.5C 910.5,648.833 910.5,622.167 910.5,595.5C 914.155,590.514 918.155,585.847 922.5,581.5 Z"/></g>
<g><path style="opacity:1" fill="#9a9a9a" d="M 850.5,579.5 C 848.979,584.333 846.645,588.666 843.5,592.5C 844.678,587.379 847.011,583.046 850.5,579.5 Z"/></g>
<g><path style="opacity:1" fill="#818181" d="M 834.5,588.5 C 833.25,593.28 831.25,597.613 828.5,601.5C 828.343,600.127 828.51,598.793 829,597.5C 830.576,594.165 832.409,591.165 834.5,588.5 Z"/></g>
<g><path style="opacity:1" fill="#fdfcfe" d="M 910.5,595.5 C 910.5,622.167 910.5,648.833 910.5,675.5C 865.667,700.578 820.667,725.078 775.5,749C 820.164,697.48 865.164,646.313 910.5,595.5 Z"/></g>
<g><path style="opacity:1" fill="#7d7d7d" d="M 840.5,598.5 C 840.245,600.967 839.245,602.967 837.5,604.5C 837.755,602.033 838.755,600.033 840.5,598.5 Z"/></g>
<g><path style="opacity:1" fill="#621feb" d="M 738.5,762.5 C 737.164,764.01 735.997,765.677 735,767.5C 734.333,771.833 734.333,776.167 735,780.5C 737.001,783.331 739.167,785.997 741.5,788.5C 661.274,879.939 581.274,971.606 501.5,1063.5C 497.528,1067.81 493.528,1072.14 489.5,1076.5C 468.708,1100.46 447.708,1124.3 426.5,1148C 419.608,1148.69 417.775,1145.86 421,1139.5C 439.376,1118.63 457.543,1097.63 475.5,1076.5C 479.723,1072.4 483.723,1068.06 487.5,1063.5C 562.393,978.061 637.059,892.394 711.5,806.5C 716.967,800.862 722.301,795.029 727.5,789C 711.808,796.348 696.475,804.515 681.5,813.5C 575.723,871.438 470.057,929.604 364.5,988C 357.539,991.971 350.372,995.471 343,998.5C 341.289,998.561 339.956,997.894 339,996.5C 338.242,994.231 338.409,992.064 339.5,990C 446.389,931.392 553.056,872.559 659.5,813.5C 660.167,813.5 660.5,813.167 660.5,812.5C 665.984,810.593 670.984,807.927 675.5,804.5C 690.766,796.866 705.766,788.7 720.5,780C 685.615,783.532 650.948,788.032 616.5,793.5C 610.453,793.904 604.453,794.571 598.5,795.5C 503.786,807.672 409.119,820.172 314.5,833C 298.188,835.221 281.855,836.887 265.5,838C 262.595,834.626 262.928,831.626 266.5,829C 371.517,815.166 476.517,801.332 581.5,787.5C 586.96,786.492 592.293,785.492 597.5,784.5C 640.554,779.436 683.554,773.936 726.5,768C 610.446,718.22 494.613,668.053 379,617.5C 377.664,613.168 379.164,610.501 383.5,609.5C 501.971,660.237 620.304,711.237 738.5,762.5 Z"/></g>
<g><path style="opacity:1" fill="#676767" d="M 1189.5,598.5 C 1191.42,602.718 1192.42,607.385 1192.5,612.5C 1191.78,612.082 1191.28,611.416 1191,610.5C 1190.5,606.49 1190,602.49 1189.5,598.5 Z"/></g>
<g><path style="opacity:1" fill="#b0b0b0" d="M 1181.5,607.5 C 1183.19,615.665 1184.53,623.999 1185.5,632.5C 1184.78,632.082 1184.28,631.416 1184,630.5C 1182.84,622.861 1182,615.195 1181.5,607.5 Z"/></g>
<g><path style="opacity:1" fill="#7f7f7f" d="M 833.5,614.5 C 830.847,621.448 828.347,628.448 826,635.5C 825.623,636.942 824.79,637.942 823.5,638.5C 825.382,632.1 827.549,625.767 830,619.5C 830.902,617.569 832.069,615.903 833.5,614.5 Z"/></g>
<g><path style="opacity:1" fill="#868686" d="M 1192.5,614.5 C 1194.67,620.52 1195.67,626.853 1195.5,633.5C 1193.78,627.417 1192.78,621.084 1192.5,614.5 Z"/></g>
<g><path style="opacity:1" fill="#a3a3a3" d="M 1195.5,636.5 C 1196.8,638.397 1197.47,640.731 1197.5,643.5C 1197.92,648.499 1198.25,653.499 1198.5,658.5C 1196.59,651.571 1195.59,644.238 1195.5,636.5 Z"/></g>
<g><path style="opacity:1" fill="#6421eb" d="M 1215.5,713.5 C 1215.66,710.098 1215.32,706.764 1214.5,703.5C 1322.53,689.589 1430.53,675.422 1538.5,661C 1542.17,660.333 1545.83,660.333 1549.5,661C 1553.7,664.523 1553.37,667.523 1548.5,670C 1437.57,685.159 1326.57,699.659 1215.5,713.5 Z"/></g>
<g><path style="opacity:1" fill="#b3b3b3" d="M 1187.5,650.5 C 1188.57,657.317 1189.23,664.317 1189.5,671.5C 1187.54,664.913 1186.87,657.913 1187.5,650.5 Z"/></g>
<g><path style="opacity:1" fill="#828282" d="M 804.5,662.5 C 802.739,667.018 800.739,671.351 798.5,675.5C 799.233,670.379 801.233,666.045 804.5,662.5 Z"/></g>
<g><path style="opacity:1" fill="#616161" d="M 1199.5,676.5 C 1201.06,682.261 1201.72,688.261 1201.5,694.5C 1201.17,694.5 1200.83,694.5 1200.5,694.5C 1200.3,688.491 1199.97,682.491 1199.5,676.5 Z"/></g>
<g><path style="opacity:1" fill="#070607" d="M 922.5,680.5 C 922.5,701.167 922.5,721.833 922.5,742.5C 918.5,742.833 914.5,743.167 910.5,743.5C 910.5,724.833 910.5,706.167 910.5,687.5C 914.465,685.182 918.465,682.848 922.5,680.5 Z"/></g>
<g><path style="opacity:1" fill="#a3a3a3" d="M 797.5,679.5 C 795.609,684.792 793.276,689.792 790.5,694.5C 791.291,691.465 792.291,688.465 793.5,685.5C 794.579,683.214 795.913,681.214 797.5,679.5 Z"/></g>
<g><path style="opacity:1" fill="#a1a1a1" d="M 807.5,680.5 C 806.94,682.801 806.44,685.134 806,687.5C 804.354,691.046 802.52,694.38 800.5,697.5C 801.529,691.133 803.862,685.466 807.5,680.5 Z"/></g>
<g><path style="opacity:1" fill="#fefdfe" d="M 910.5,687.5 C 910.5,706.167 910.5,724.833 910.5,743.5C 866.016,749.978 821.35,755.811 776.5,761C 821.06,736.221 865.727,711.721 910.5,687.5 Z"/></g>
<g><path style="opacity:1" fill="#a2a1a1" d="M 1190.5,676.5 C 1191.44,682.994 1192.11,689.661 1192.5,696.5C 1191.83,696.833 1191.17,697.167 1190.5,697.5C 1190.5,690.5 1190.5,683.5 1190.5,676.5 Z"/></g>
<g><path style="opacity:1" fill="#111111" d="M 409.5,693.5 C 414.332,694.4 419.332,695.066 424.5,695.5C 447.825,700.256 469.825,708.423 490.5,720C 518.269,733.097 544.269,749.097 568.5,768C 578.023,773.782 587.69,779.282 597.5,784.5C 592.293,785.492 586.96,786.492 581.5,787.5C 564.133,776.153 547.133,764.32 530.5,752C 528.5,751.333 526.5,750.667 524.5,750C 514.652,743.621 504.652,737.621 494.5,732C 485.859,727.68 477.193,723.346 468.5,719C 458.23,715.41 447.896,711.91 437.5,708.5C 423.896,703.689 409.729,701.356 395,701.5C 387.504,702.062 380.004,702.562 372.5,703C 369.543,703.279 366.877,704.113 364.5,705.5C 348.667,708.167 333.667,713.333 319.5,721C 310.369,727.739 300.703,733.739 290.5,739C 276.968,749.38 263.968,760.214 251.5,771.5C 247.9,773.43 244.9,776.097 242.5,779.5C 238.167,783.167 234.167,787.167 230.5,791.5C 225.77,795.227 221.77,799.56 218.5,804.5C 212.193,809.649 206.86,815.649 202.5,822.5C 199.119,824.88 196.453,827.88 194.5,831.5C 167.773,865.007 144.106,900.341 123.5,937.5C 119.444,942.592 116.111,948.259 113.5,954.5C 111.461,955.911 110.461,957.911 110.5,960.5C 106.1,966.285 102.433,972.619 99.5,979.5C 98.3263,980.514 97.6596,981.847 97.5,983.5C 94.011,988.47 91.011,993.803 88.5,999.5C 83.4202,1008.26 78.7535,1017.26 74.5,1026.5C 72.7549,1028.03 71.7549,1030.03 71.5,1032.5C 69.4079,1037.76 67.7413,1043.09 66.5,1048.5C 64.8333,1048.5 63.1667,1048.5 61.5,1048.5C 60.135,1042.1 60.4684,1035.77 62.5,1029.5C 65.6892,1023.56 68.6892,1017.56 71.5,1011.5C 73.6855,1008.46 75.3521,1005.13 76.5,1001.5C 89.9431,977.728 102.943,953.728 115.5,929.5C 116.833,928.167 118.167,926.833 119.5,925.5C 155.191,859.623 201.191,801.789 257.5,752C 273.268,739.569 289.602,727.902 306.5,717C 312.555,715.278 317.888,712.278 322.5,708C 330.419,706.14 337.919,703.307 345,699.5C 366.082,693.065 387.582,691.065 409.5,693.5 Z"/></g>
<g><path style="opacity:1" fill="#848484" d="M 409.5,693.5 C 413.846,693.334 418.179,693.501 422.5,694C 423.416,694.278 424.082,694.778 424.5,695.5C 419.332,695.066 414.332,694.4 409.5,693.5 Z"/></g>
<g><path style="opacity:1" fill="#cb0b2b" d="M 1200.5,694.5 C 1200.83,694.5 1201.17,694.5 1201.5,694.5C 1207.01,695.759 1211.34,698.759 1214.5,703.5C 1215.32,706.764 1215.66,710.098 1215.5,713.5C 1214,718.658 1211,722.658 1206.5,725.5C 1206.17,725.5 1205.83,725.5 1205.5,725.5C 1202.9,726.265 1200.24,726.599 1197.5,726.5C 1197.17,726.5 1196.83,726.5 1196.5,726.5C 1191.68,725.341 1188.02,722.674 1185.5,718.5C 1183.98,715.365 1183.31,712.032 1183.5,708.5C 1184.69,704.004 1187.02,700.337 1190.5,697.5C 1191.17,697.167 1191.83,696.833 1192.5,696.5C 1194.91,694.949 1197.58,694.283 1200.5,694.5 Z"/></g>
<g><path style="opacity:1" fill="#b0b0b0" d="M 437.5,708.5 C 413.398,703.13 389.065,702.13 364.5,705.5C 366.877,704.113 369.543,703.279 372.5,703C 380.004,702.562 387.504,702.062 395,701.5C 409.729,701.356 423.896,703.689 437.5,708.5 Z"/></g>
<g><path style="opacity:1" fill="#a19fa4" d="M 797.5,705.5 C 797.328,706.492 797.662,707.158 798.5,707.5C 796.833,709.833 794.833,711.833 792.5,713.5C 793.454,710.249 795.12,707.582 797.5,705.5 Z"/></g>
<g><path style="opacity:1" fill="#797979" d="M 787.5,703.5 C 785.052,709.552 782.052,715.218 778.5,720.5C 779.787,715.927 781.62,711.594 784,707.5C 784.74,705.681 785.907,704.348 787.5,703.5 Z"/></g>
<g><path style="opacity:1" fill="#c8c8c9" d="M 922.5,680.5 C 922.833,680.5 923.167,680.5 923.5,680.5C 922.845,701.194 923.512,721.527 925.5,741.5C 924.791,742.404 923.791,742.737 922.5,742.5C 922.5,721.833 922.5,701.167 922.5,680.5 Z"/></g>
<g><path style="opacity:1" fill="#fefefe" d="M 1185.5,718.5 C 1188.02,722.674 1191.68,725.341 1196.5,726.5C 1196.33,732.176 1196.5,737.843 1197,743.5C 1197.23,744.737 1197.73,745.737 1198.5,746.5C 1199.67,758.377 1201.34,770.211 1203.5,782C 1208.53,805.217 1213.2,828.383 1217.5,851.5C 1217.23,857.657 1218.56,863.323 1221.5,868.5C 1221.83,870.5 1222.17,872.5 1222.5,874.5C 1222.26,876.898 1222.93,878.898 1224.5,880.5C 1232.24,914.383 1240.58,948.05 1249.5,981.5C 1249.17,981.5 1248.83,981.5 1248.5,981.5C 1139.76,935.626 1031.43,888.96 923.5,841.5C 923.5,811.833 923.5,782.167 923.5,752.5C 1010.73,740.519 1098.06,729.185 1185.5,718.5 Z"/></g>
<g><path style="opacity:1" fill="#0f0f0f" d="M 1205.5,725.5 C 1205.38,731.069 1206.04,736.402 1207.5,741.5C 1209.93,758.675 1212.6,776.008 1215.5,793.5C 1216.04,797.819 1216.54,802.152 1217,806.5C 1217.28,807.416 1217.78,808.082 1218.5,808.5C 1218.5,808.833 1218.5,809.167 1218.5,809.5C 1218.76,814.124 1219.76,818.458 1221.5,822.5C 1223.31,829.402 1224.64,836.402 1225.5,843.5C 1226.57,850.448 1228.24,857.114 1230.5,863.5C 1232.33,871.134 1233.99,878.8 1235.5,886.5C 1235.41,889.152 1236.08,891.485 1237.5,893.5C 1242.22,914.168 1247.06,934.834 1252,955.5C 1252.94,958.374 1254.11,961.04 1255.5,963.5C 1255.34,965.527 1255.5,967.527 1256,969.5C 1256.38,970.056 1256.88,970.389 1257.5,970.5C 1258.09,973.127 1258.42,975.794 1258.5,978.5C 1255,978.129 1252,979.129 1249.5,981.5C 1240.58,948.05 1232.24,914.383 1224.5,880.5C 1224.74,878.102 1224.07,876.102 1222.5,874.5C 1222.17,872.5 1221.83,870.5 1221.5,868.5C 1220.74,862.582 1219.41,856.915 1217.5,851.5C 1213.2,828.383 1208.53,805.217 1203.5,782C 1201.34,770.211 1199.67,758.377 1198.5,746.5C 1198.05,739.841 1197.71,733.174 1197.5,726.5C 1200.24,726.599 1202.9,726.265 1205.5,725.5 Z"/></g>
<g><path style="opacity:1" fill="#616161" d="M 1205.5,725.5 C 1205.83,725.5 1206.17,725.5 1206.5,725.5C 1207.19,730.805 1207.53,736.138 1207.5,741.5C 1206.04,736.402 1205.38,731.069 1205.5,725.5 Z"/></g>
<g><path style="opacity:1" fill="#959595" d="M 1196.5,726.5 C 1196.83,726.5 1197.17,726.5 1197.5,726.5C 1197.71,733.174 1198.05,739.841 1198.5,746.5C 1197.73,745.737 1197.23,744.737 1197,743.5C 1196.5,737.843 1196.33,732.176 1196.5,726.5 Z"/></g>
<g><path style="opacity:1" fill="#5d526e" d="M 765.5,744.5 C 764.974,746.23 763.974,747.564 762.5,748.5C 762.554,746.368 763.554,745.035 765.5,744.5 Z"/></g>
<g><path style="opacity:1" fill="#0a090a" d="M 923.5,752.5 C 923.5,782.167 923.5,811.833 923.5,841.5C 919.203,840.345 915.203,838.679 911.5,836.5C 911.5,809.167 911.5,781.833 911.5,754.5C 915.316,753.518 919.316,752.851 923.5,752.5 Z"/></g>
<g><path style="opacity:1" fill="#fdfdfe" d="M 910.5,754.5 C 910.831,781.672 910.498,808.672 909.5,835.5C 861.5,815.167 813.5,794.833 765.5,774.5C 765.5,774.167 765.5,773.833 765.5,773.5C 813.754,766.657 862.088,760.323 910.5,754.5 Z"/></g>
<g><path style="opacity:1" fill="#cb0b2b" d="M 754.5,758.5 C 761.294,761.048 764.961,766.048 765.5,773.5C 765.5,773.833 765.5,774.167 765.5,774.5C 765.259,777.815 764.259,780.815 762.5,783.5C 760.737,786.556 758.07,788.389 754.5,789C 750.113,789.706 745.78,789.54 741.5,788.5C 739.167,785.997 737.001,783.331 735,780.5C 734.333,776.167 734.333,771.833 735,767.5C 735.997,765.677 737.164,764.01 738.5,762.5C 743.111,758.849 748.444,757.516 754.5,758.5 Z"/></g>
<g><path style="opacity:1" fill="#621eeb" d="M 765.5,774.5 C 813.5,794.833 861.5,815.167 909.5,835.5C 909.842,836.338 910.508,836.672 911.5,836.5C 915.203,838.679 919.203,840.345 923.5,841.5C 1031.43,888.96 1139.76,935.626 1248.5,981.5C 1246.59,984.312 1244.93,987.312 1243.5,990.5C 1136.83,944.833 1030.17,899.167 923.5,853.5C 919.797,851.321 915.797,849.655 911.5,848.5C 862.014,826.594 812.347,804.928 762.5,783.5C 764.259,780.815 765.259,777.815 765.5,774.5 Z"/></g>
<g><path style="opacity:1" fill="#a3a3a3" d="M 251.5,771.5 C 249.1,774.903 246.1,777.57 242.5,779.5C 244.9,776.097 247.9,773.43 251.5,771.5 Z"/></g>
<g><path style="opacity:1" fill="#f6f5f9" d="M 675.5,804.5 C 654.986,804.706 635.32,801.039 616.5,793.5C 650.948,788.032 685.615,783.532 720.5,780C 705.766,788.7 690.766,796.866 675.5,804.5 Z"/></g>
<g><path style="opacity:1" fill="#fefefe" d="M 762.5,783.5 C 812.347,804.928 862.014,826.594 911.5,848.5C 911.725,920.167 912.058,991.834 912.5,1063.5C 775.5,1063.5 638.5,1063.5 501.5,1063.5C 581.274,971.606 661.274,879.939 741.5,788.5C 745.78,789.54 750.113,789.706 754.5,789C 758.07,788.389 760.737,786.556 762.5,783.5 Z"/></g>
<g><path style="opacity:1" fill="#0c0910" d="M 711.5,806.5 C 701.737,809.588 691.737,811.921 681.5,813.5C 696.475,804.515 711.808,796.348 727.5,789C 722.301,795.029 716.967,800.862 711.5,806.5 Z"/></g>
<g><path style="opacity:1" fill="#111112" d="M 616.5,793.5 C 635.32,801.039 654.986,804.706 675.5,804.5C 670.984,807.927 665.984,810.593 660.5,812.5C 655.507,812.084 650.507,811.751 645.5,811.5C 637.327,810.026 629.16,808.026 621,805.5C 613.358,802.258 605.858,798.924 598.5,795.5C 604.453,794.571 610.453,793.904 616.5,793.5 Z"/></g>
<g><path style="opacity:1" fill="#a0a0a0" d="M 230.5,791.5 C 227.23,796.44 223.23,800.773 218.5,804.5C 221.77,799.56 225.77,795.227 230.5,791.5 Z"/></g>
<g><path style="opacity:1" fill="#6d6d6d" d="M 1215.5,793.5 C 1216.12,793.611 1216.62,793.944 1217,794.5C 1217.43,799.184 1217.93,803.851 1218.5,808.5C 1217.78,808.082 1217.28,807.416 1217,806.5C 1216.54,802.152 1216.04,797.819 1215.5,793.5 Z"/></g>
<g><path style="opacity:1" fill="#787878" d="M 645.5,811.5 C 650.507,811.751 655.507,812.084 660.5,812.5C 660.5,813.167 660.167,813.5 659.5,813.5C 654.609,813.468 649.943,812.801 645.5,811.5 Z"/></g>
<g><path style="opacity:1" fill="#787878" d="M 1218.5,809.5 C 1219.22,809.918 1219.72,810.584 1220,811.5C 1220.55,815.17 1221.05,818.837 1221.5,822.5C 1219.76,818.458 1218.76,814.124 1218.5,809.5 Z"/></g>
<g><path style="opacity:1" fill="#a2a2a2" d="M 202.5,822.5 C 200.913,825.268 199.08,827.935 197,830.5C 196.329,831.252 195.496,831.586 194.5,831.5C 196.453,827.88 199.119,824.88 202.5,822.5 Z"/></g>
<g><path style="opacity:1" fill="#aeaeae" d="M 910.5,754.5 C 910.833,754.5 911.167,754.5 911.5,754.5C 911.5,781.833 911.5,809.167 911.5,836.5C 910.508,836.672 909.842,836.338 909.5,835.5C 910.498,808.672 910.831,781.672 910.5,754.5 Z"/></g>
<g><path style="opacity:1" fill="#050505" d="M 911.5,848.5 C 915.797,849.655 919.797,851.321 923.5,853.5C 923.697,923.501 924.03,993.501 924.5,1063.5C 1045.17,1063.67 1165.83,1063.5 1286.5,1063C 1276.62,1045.74 1267.96,1027.91 1260.5,1009.5C 1264,1009.87 1267,1008.87 1269.5,1006.5C 1272.82,1013.28 1275.65,1020.28 1278,1027.5C 1284.26,1039.46 1290.43,1051.46 1296.5,1063.5C 1334.5,1063.5 1372.5,1063.5 1410.5,1063.5C 1420.8,1067.32 1430.8,1071.66 1440.5,1076.5C 1395.5,1076.5 1350.5,1076.5 1305.5,1076.5C 1305.49,1078.31 1305.99,1079.98 1307,1081.5C 1320.89,1105.59 1336.56,1128.59 1354,1150.5C 1382.58,1179.33 1414.08,1204.16 1448.5,1225C 1468.94,1235.28 1490.27,1243.28 1512.5,1249C 1525.48,1251.28 1538.48,1253.11 1551.5,1254.5C 1558.98,1255.49 1566.65,1255.83 1574.5,1255.5C 1576.29,1256.31 1578.29,1256.81 1580.5,1257C 1589.16,1257.5 1597.83,1257.67 1606.5,1257.5C 1607.95,1258.13 1608.61,1259.3 1608.5,1261C 1608.14,1263.19 1607.14,1265.03 1605.5,1266.5C 1595.16,1266.28 1584.83,1265.95 1574.5,1265.5C 1569.83,1265.5 1565.17,1265.5 1560.5,1265.5C 1557.66,1263.6 1554.33,1262.93 1550.5,1263.5C 1539.05,1262.98 1527.71,1261.48 1516.5,1259C 1510.33,1257.42 1504,1256.26 1497.5,1255.5C 1494.8,1254.48 1492.14,1253.48 1489.5,1252.5C 1487.15,1250.9 1484.49,1249.9 1481.5,1249.5C 1480.83,1249.5 1480.17,1249.5 1479.5,1249.5C 1477.97,1247.75 1475.97,1246.75 1473.5,1246.5C 1470.62,1246.06 1467.95,1245.06 1465.5,1243.5C 1463.52,1241.55 1461.19,1240.05 1458.5,1239C 1457.21,1238.51 1455.87,1238.34 1454.5,1238.5C 1442.38,1232.85 1430.71,1226.35 1419.5,1219C 1399.37,1204.03 1380.04,1188.2 1361.5,1171.5C 1355.47,1165.14 1349.47,1158.81 1343.5,1152.5C 1324.61,1128.78 1307.94,1103.61 1293.5,1077C 1170.5,1076.5 1047.5,1076.33 924.5,1076.5C 925.549,1163.16 925.716,1249.83 925,1336.5C 920.272,1340.9 916.605,1340.23 914,1334.5C 913.488,1248.5 912.988,1162.5 912.5,1076.5C 771.5,1076.5 630.5,1076.5 489.5,1076.5C 493.528,1072.14 497.528,1067.81 501.5,1063.5C 638.5,1063.5 775.5,1063.5 912.5,1063.5C 912.058,991.834 911.725,920.167 911.5,848.5 Z"/></g>
<g><path style="opacity:1" fill="#fefefe" d="M 923.5,853.5 C 1030.17,899.167 1136.83,944.833 1243.5,990.5C 1242.99,1002.53 1248.66,1008.86 1260.5,1009.5C 1267.96,1027.91 1276.62,1045.74 1286.5,1063C 1165.83,1063.5 1045.17,1063.67 924.5,1063.5C 924.03,993.501 923.697,923.501 923.5,853.5 Z"/></g>
<g><path style="opacity:1" fill="#a0a0a0" d="M 1225.5,843.5 C 1228.62,849.679 1230.28,856.346 1230.5,863.5C 1228.24,857.114 1226.57,850.448 1225.5,843.5 Z"/></g>
<g><path style="opacity:1" fill="#9c9c9c" d="M 1217.5,851.5 C 1219.41,856.915 1220.74,862.582 1221.5,868.5C 1218.56,863.323 1217.23,857.657 1217.5,851.5 Z"/></g>
<g><path style="opacity:1" fill="#797979" d="M 1222.5,874.5 C 1224.07,876.102 1224.74,878.102 1224.5,880.5C 1222.93,878.898 1222.26,876.898 1222.5,874.5 Z"/></g>
<g><path style="opacity:1" fill="#787878" d="M 1235.5,886.5 C 1236.92,888.515 1237.59,890.848 1237.5,893.5C 1236.08,891.485 1235.41,889.152 1235.5,886.5 Z"/></g>
<g><path style="opacity:1" fill="#b9b9b9" d="M 123.5,937.5 C 121.2,942.962 118.533,948.295 115.5,953.5C 115.043,954.298 114.376,954.631 113.5,954.5C 116.111,948.259 119.444,942.592 123.5,937.5 Z"/></g>
<g><path style="opacity:1" fill="#a4a4a4" d="M 110.5,960.5 C 108.103,967.635 104.436,973.969 99.5,979.5C 102.433,972.619 106.1,966.285 110.5,960.5 Z"/></g>
<g><path style="opacity:1" fill="#7f7f7f" d="M 1255.5,963.5 C 1256.41,965.657 1257.07,967.99 1257.5,970.5C 1256.88,970.389 1256.38,970.056 1256,969.5C 1255.5,967.527 1255.34,965.527 1255.5,963.5 Z"/></g>
<g><path style="opacity:1" fill="#cb0e2b" d="M 1258.5,978.5 C 1269.34,978.336 1275,983.669 1275.5,994.5C 1275.1,997.715 1274.1,1000.71 1272.5,1003.5C 1271.5,1004.5 1270.5,1005.5 1269.5,1006.5C 1267,1008.87 1264,1009.87 1260.5,1009.5C 1248.66,1008.86 1242.99,1002.53 1243.5,990.5C 1244.93,987.312 1246.59,984.312 1248.5,981.5C 1248.83,981.5 1249.17,981.5 1249.5,981.5C 1252,979.129 1255,978.129 1258.5,978.5 Z"/></g>
<g><path style="opacity:1" fill="#acacac" d="M 97.5,983.5 C 96.2432,987.845 94.5765,992.011 92.5,996C 91.3551,997.402 90.0217,998.569 88.5,999.5C 91.011,993.803 94.011,988.47 97.5,983.5 Z"/></g>
<g><path style="opacity:1" fill="#621eea" d="M 1275.5,994.5 C 1329.75,1017.69 1384.09,1040.69 1438.5,1063.5C 1448.2,1068.34 1458.2,1072.68 1468.5,1076.5C 1502.27,1091.6 1536.27,1106.43 1570.5,1121C 1573.71,1125.46 1572.71,1128.62 1567.5,1130.5C 1525.26,1112.21 1482.92,1094.21 1440.5,1076.5C 1430.8,1071.66 1420.8,1067.32 1410.5,1063.5C 1364.8,1042.99 1318.8,1022.99 1272.5,1003.5C 1274.1,1000.71 1275.1,997.715 1275.5,994.5 Z"/></g>
<g><path style="opacity:1" fill="#fdfcfd" d="M 1272.5,1003.5 C 1318.8,1022.99 1364.8,1042.99 1410.5,1063.5C 1372.5,1063.5 1334.5,1063.5 1296.5,1063.5C 1290.43,1051.46 1284.26,1039.46 1278,1027.5C 1275.65,1020.28 1272.82,1013.28 1269.5,1006.5C 1270.5,1005.5 1271.5,1004.5 1272.5,1003.5 Z"/></g>
<g><path style="opacity:1" fill="#787878" d="M 76.5,1001.5 C 75.3521,1005.13 73.6855,1008.46 71.5,1011.5C 72.1322,1007.57 73.7989,1004.24 76.5,1001.5 Z"/></g>
<g><path style="opacity:1" fill="#7b7b7b" d="M 74.5,1026.5 C 74.2451,1028.97 73.2451,1030.97 71.5,1032.5C 71.7549,1030.03 72.7549,1028.03 74.5,1026.5 Z"/></g>
<g><path style="opacity:1" fill="#010101" d="M 1468.5,1076.5 C 1458.2,1072.68 1448.2,1068.34 1438.5,1063.5C 1552.83,1063.67 1667.17,1063.5 1781.5,1063C 1777.4,1060.53 1773.57,1057.7 1770,1054.5C 1767.66,1046.51 1770.49,1043.35 1778.5,1045C 1788.28,1051.78 1797.78,1058.95 1807,1066.5C 1808.18,1070.27 1807.35,1073.44 1804.5,1076C 1796.5,1082 1788.5,1088 1780.5,1094C 1773.01,1097.65 1769.17,1095.48 1769,1087.5C 1772.53,1083.31 1776.7,1079.81 1781.5,1077C 1677.17,1076.5 1572.83,1076.33 1468.5,1076.5 Z"/></g>
<g><path style="opacity:1" fill="#7e7e7e" d="M 61.5,1048.5 C 63.1667,1048.5 64.8333,1048.5 66.5,1048.5C 64.8333,1051.17 63.1667,1051.17 61.5,1048.5 Z"/></g>
<g><path style="opacity:1" fill="#000000" d="M 487.5,1063.5 C 483.723,1068.06 479.723,1072.4 475.5,1076.5C 366.166,1076.67 256.833,1076.5 147.5,1076C 143.371,1073.37 142.538,1069.87 145,1065.5C 145.75,1064.87 146.584,1064.37 147.5,1064C 260.833,1063.5 374.166,1063.33 487.5,1063.5 Z"/></g>
<g><path style="opacity:1" fill="#2377e9" d="M 1697.5,1112.5 C 1705.84,1112.33 1714.17,1112.5 1722.5,1113C 1725.72,1118.62 1729.06,1124.12 1732.5,1129.5C 1735.96,1124.08 1739.29,1118.58 1742.5,1113C 1750.85,1112.17 1759.19,1112.33 1767.5,1113.5C 1760.83,1123.83 1754.17,1134.17 1747.5,1144.5C 1754.62,1155.25 1761.62,1166.08 1768.5,1177C 1759.81,1177.83 1751.15,1177.67 1742.5,1176.5C 1739.25,1170.34 1735.75,1164.34 1732,1158.5C 1728.63,1164.75 1725.13,1170.91 1721.5,1177C 1713.15,1177.83 1704.81,1177.67 1696.5,1176.5C 1703.6,1166.08 1710.27,1155.41 1716.5,1144.5C 1710.16,1133.82 1703.83,1123.15 1697.5,1112.5 Z"/></g>
<g><path style="opacity:1" fill="#9c9c9c" d="M 1343.5,1152.5 C 1349.47,1158.81 1355.47,1165.14 1361.5,1171.5C 1355.59,1167.1 1350.09,1162.1 1345,1156.5C 1344.21,1155.26 1343.71,1153.92 1343.5,1152.5 Z"/></g>
<g><path style="opacity:1" fill="#565656" d="M 1454.5,1238.5 C 1455.87,1238.34 1457.21,1238.51 1458.5,1239C 1461.19,1240.05 1463.52,1241.55 1465.5,1243.5C 1461.38,1242.6 1457.71,1240.93 1454.5,1238.5 Z"/></g>
<g><path style="opacity:1" fill="#757575" d="M 1473.5,1246.5 C 1475.97,1246.75 1477.97,1247.75 1479.5,1249.5C 1477.03,1249.25 1475.03,1248.25 1473.5,1246.5 Z"/></g>
<g><path style="opacity:1" fill="#797979" d="M 1481.5,1249.5 C 1484.49,1249.9 1487.15,1250.9 1489.5,1252.5C 1486.28,1252.65 1483.62,1251.65 1481.5,1249.5 Z"/></g>
<g><path style="opacity:1" fill="#b5b5b5" d="M 1551.5,1254.5 C 1564.54,1253.85 1577.21,1254.52 1589.5,1256.5C 1584.51,1256.08 1579.51,1255.75 1574.5,1255.5C 1566.65,1255.83 1558.98,1255.49 1551.5,1254.5 Z"/></g>
<g><path style="opacity:1" fill="#4b4b4b" d="M 1574.5,1255.5 C 1579.51,1255.75 1584.51,1256.08 1589.5,1256.5C 1595.36,1256.18 1601.02,1256.51 1606.5,1257.5C 1597.83,1257.67 1589.16,1257.5 1580.5,1257C 1578.29,1256.81 1576.29,1256.31 1574.5,1255.5 Z"/></g>
<g><path style="opacity:1" fill="#9b9b9b" d="M 1550.5,1263.5 C 1554.33,1262.93 1557.66,1263.6 1560.5,1265.5C 1556.67,1266.07 1553.34,1265.4 1550.5,1263.5 Z"/></g>
<g><path style="opacity:1" fill="#a0a0a0" d="M 1574.5,1265.5 C 1584.83,1265.95 1595.16,1266.28 1605.5,1266.5C 1603.71,1268 1601.54,1268.66 1599,1268.5C 1590.69,1267.42 1582.53,1266.42 1574.5,1265.5 Z"/></g>
</svg>
