<?xml version="1.0" encoding="UTF-8"?>
<!DOCTYPE svg PUBLIC "-//W3C//DTD SVG 1.1//EN" "http://www.w3.org/Graphics/SVG/1.1/DTD/svg11.dtd">
<svg xmlns="http://www.w3.org/2000/svg" version="1.1" width="512px" height="512px" style="shape-rendering:geometricPrecision; text-rendering:geometricPrecision; image-rendering:optimizeQuality; fill-rule:evenodd; clip-rule:evenodd" xmlns:xlink="http://www.w3.org/1999/xlink">
<g><path style="opacity:0.996" fill="#5764f3" d="M 225.5,-0.5 C 245.5,-0.5 265.5,-0.5 285.5,-0.5C 377.975,13.1671 445.475,61.5005 488,144.5C 500.027,170.4 507.86,197.4 511.5,225.5C 511.5,245.5 511.5,265.5 511.5,285.5C 497.833,377.975 449.5,445.475 366.5,488C 340.6,500.027 313.6,507.86 285.5,511.5C 265.5,511.5 245.5,511.5 225.5,511.5C 150.84,500.954 91.0065,465.62 46,405.5C 21.0166,369.534 5.51657,329.867 -0.5,286.5C -0.5,265.833 -0.5,245.167 -0.5,224.5C 13.6311,132.562 61.9645,65.395 144.5,23C 170.4,10.9733 197.4,3.14001 225.5,-0.5 Z M 200.5,114.5 C 202.017,114.511 203.184,115.177 204,116.5C 206.773,123.064 210.273,129.064 214.5,134.5C 241.833,130.5 269.167,130.5 296.5,134.5C 297.442,134.392 298.275,134.059 299,133.5C 301.567,126.696 304.901,120.363 309,114.5C 334.849,119.17 359.683,127.003 383.5,138C 427.532,201.286 446.032,271.453 439,348.5C 410.845,369.746 379.845,385.746 346,396.5C 338.5,386.841 332,376.508 326.5,365.5C 336.571,360.976 346.405,355.976 356,350.5C 356.667,349.5 356.667,348.5 356,347.5C 353.667,345.833 351.333,344.167 349,342.5C 286.538,370.493 224.038,370.493 161.5,342.5C 159.424,344.288 157.257,345.954 155,347.5C 154.316,348.784 154.483,349.951 155.5,351C 164.77,356.468 174.436,361.135 184.5,365C 178.787,376.191 172.12,386.691 164.5,396.5C 130.884,385.611 100.051,369.611 72,348.5C 64.9689,271.45 83.4689,201.284 127.5,138C 151,127.221 175.333,119.388 200.5,114.5 Z"/></g>
<g><path style="opacity:0.989" fill="#5864f3" d="M 189.5,231.5 C 209.699,231.198 222.199,240.865 227,260.5C 230.072,276.617 225.572,290.117 213.5,301C 194.846,311.878 179.012,308.711 166,291.5C 158.667,276.833 158.667,262.167 166,247.5C 171.825,239.02 179.658,233.686 189.5,231.5 Z"/></g>
<g><path style="opacity:0.989" fill="#5865f3" d="M 312.5,231.5 C 336.374,232.538 349.374,245.038 351.5,269C 351.211,288.942 341.545,301.608 322.5,307C 300.987,307.974 288.154,297.808 284,276.5C 281.461,253.526 290.961,238.526 312.5,231.5 Z"/></g>
</svg>
