<svg xmlns="http://www.w3.org/2000/svg" xmlns:xlink="http://www.w3.org/1999/xlink" width="2000" zoomAndPan="magnify" viewBox="0 0 1500 1124.99995" height="1500" preserveAspectRatio="xMidYMid meet" version="1.0"><defs><g/><clipPath id="a46580f2c0"><path d="M 507.648438 444.171875 L 983.148438 444.171875 L 983.148438 919.671875 L 507.648438 919.671875 Z M 507.648438 444.171875 " clip-rule="nonzero"/></clipPath><clipPath id="c080c830ff"><path d="M 745.398438 444.171875 C 614.09375 444.171875 507.648438 550.617188 507.648438 681.921875 C 507.648438 813.230469 614.09375 919.671875 745.398438 919.671875 C 876.703125 919.671875 983.148438 813.230469 983.148438 681.921875 C 983.148438 550.617188 876.703125 444.171875 745.398438 444.171875 " clip-rule="nonzero"/></clipPath><clipPath id="0899e729e3"><path d="M 572 445 L 918.996094 445 L 918.996094 526 L 572 526 Z M 572 445 " clip-rule="nonzero"/></clipPath><clipPath id="c61f11ea0a"><path d="M 561.761719 508.710938 L 589.621094 508.710938 L 589.621094 536.566406 L 561.761719 536.566406 Z M 561.761719 508.710938 " clip-rule="nonzero"/></clipPath><clipPath id="798d68a5f3"><path d="M 575.691406 508.710938 C 568 508.710938 561.761719 514.945312 561.761719 522.636719 C 561.761719 530.332031 568 536.566406 575.691406 536.566406 C 583.382812 536.566406 589.621094 530.332031 589.621094 522.636719 C 589.621094 514.945312 583.382812 508.710938 575.691406 508.710938 " clip-rule="nonzero"/></clipPath><clipPath id="09f6f90bf9"><path d="M 900.925781 508.710938 L 928.78125 508.710938 L 928.78125 536.566406 L 900.925781 536.566406 Z M 900.925781 508.710938 " clip-rule="nonzero"/></clipPath><clipPath id="cd66e10e49"><path d="M 914.851562 508.710938 C 907.160156 508.710938 900.925781 514.945312 900.925781 522.636719 C 900.925781 530.332031 907.160156 536.566406 914.851562 536.566406 C 922.546875 536.566406 928.78125 530.332031 928.78125 522.636719 C 928.78125 514.945312 922.546875 508.710938 914.851562 508.710938 " clip-rule="nonzero"/></clipPath></defs><rect x="-150" width="1800" fill="#ffffff" y="-112.499995" height="1349.99994" fill-opacity="1"/><rect x="-150" width="1800" fill="#ffffff" y="-112.499995" height="1349.99994" fill-opacity="1"/><path stroke-linecap="round" transform="matrix(0.750075, 0, 0, 0.75, 259.723986, 681.823049)" fill="none" stroke-linejoin="miter" d="M 4.997729 5.00156 L 1403.358506 5.00156 " stroke="#000000" stroke-width="10" stroke-opacity="1" stroke-miterlimit="4"/><path stroke-linecap="round" transform="matrix(0.750075, 0, 0, 0.75, 259.723986, 681.823049)" fill="none" stroke-linejoin="round" d="M 1385.860248 -9.998442 L 1405.858257 5.00156 L 1385.860248 20.001561 " stroke="#000000" stroke-width="10" stroke-opacity="1" stroke-miterlimit="4"/><path stroke-linecap="round" transform="matrix(-0.00312497, -0.749993, 0.749993, -0.00312497, 743.420585, 1012.495669)" fill="none" stroke-linejoin="miter" d="M 4.99947 5.001761 L 1192.509909 5.001761 " stroke="#000000" stroke-width="10" stroke-opacity="1" stroke-miterlimit="4"/><path stroke-linecap="round" transform="matrix(-0.00312497, -0.749993, 0.749993, -0.00312497, 743.420585, 1012.495669)" fill="none" stroke-linejoin="round" d="M 1175.009755 -9.998371 L 1195.009931 5.001761 L 1175.009755 20.001893 " stroke="#000000" stroke-width="10" stroke-opacity="1" stroke-miterlimit="4"/><g clip-path="url(#a46580f2c0)"><g clip-path="url(#c080c830ff)"><path stroke-linecap="butt" transform="matrix(0.750333, 0, 0, 0.750333, 507.649214, 444.17291)" fill="none" stroke-linejoin="miter" d="M 316.858368 -0.00137906 C 141.863101 -0.00137906 -0.00103437 141.862756 -0.00103437 316.858024 C -0.00103437 491.858497 141.863101 633.717426 316.858368 633.717426 C 491.853636 633.717426 633.717771 491.858497 633.717771 316.858024 C 633.717771 141.862756 491.853636 -0.00137906 316.858368 -0.00137906 " stroke="#222222" stroke-width="20" stroke-opacity="1" stroke-miterlimit="4"/></g></g><path stroke-linecap="round" transform="matrix(0.750075, 0, 0, 0.75, 216.2267, 518.888383)" fill="none" stroke-linejoin="miter" d="M 4.99932 4.997781 L 1405.859847 4.997781 " stroke="#000000" stroke-width="10" stroke-opacity="1" stroke-miterlimit="4"/><g clip-path="url(#0899e729e3)"><path fill="#00ff4e" d="M 913.742188 525.148438 C 913.085938 525.144531 912.453125 525.015625 911.847656 524.765625 C 911.242188 524.511719 910.703125 524.15625 910.238281 523.691406 C 907.539062 520.996094 904.773438 518.371094 901.945312 515.8125 C 899.117188 513.253906 896.226562 510.765625 893.277344 508.351562 C 890.328125 505.933594 887.320312 503.589844 884.253906 501.320312 C 881.191406 499.050781 878.070312 496.859375 874.898438 494.742188 C 871.730469 492.625 868.507812 490.589844 865.234375 488.632812 C 861.964844 486.671875 858.648438 484.796875 855.285156 483 C 851.921875 481.207031 848.519531 479.492188 845.070312 477.863281 C 841.625 476.238281 838.140625 474.695312 834.621094 473.238281 C 831.097656 471.777344 827.542969 470.410156 823.957031 469.125 C 820.367188 467.84375 816.75 466.648438 813.101562 465.542969 C 809.457031 464.4375 805.785156 463.421875 802.085938 462.496094 C 798.390625 461.574219 794.675781 460.738281 790.9375 459.996094 C 787.199219 459.253906 783.449219 458.601562 779.679688 458.042969 C 775.910156 457.484375 772.128906 457.019531 768.339844 456.644531 C 764.546875 456.273438 760.75 455.992188 756.941406 455.804688 C 753.136719 455.617188 749.332031 455.523438 745.519531 455.523438 C 741.710938 455.523438 737.902344 455.617188 734.097656 455.804688 C 730.292969 455.992188 726.492188 456.273438 722.703125 456.644531 C 718.910156 457.019531 715.128906 457.484375 711.363281 458.042969 C 707.59375 458.601562 703.839844 459.253906 700.101562 459.996094 C 696.367188 460.738281 692.648438 461.574219 688.953125 462.496094 C 685.257812 463.421875 681.585938 464.4375 677.9375 465.542969 C 674.292969 466.648438 670.671875 467.84375 667.085938 469.125 C 663.496094 470.410156 659.941406 471.777344 656.421875 473.238281 C 652.898438 474.695312 649.414062 476.238281 645.96875 477.863281 C 642.523438 479.492188 639.117188 481.207031 635.753906 483 C 632.390625 484.796875 629.074219 486.671875 625.804688 488.632812 C 622.535156 490.589844 619.3125 492.625 616.140625 494.742188 C 612.96875 496.859375 609.851562 499.050781 606.785156 501.320312 C 603.722656 503.589844 600.714844 505.933594 597.765625 508.351562 C 594.8125 510.765625 591.925781 513.253906 589.09375 515.8125 C 586.265625 518.371094 583.503906 520.996094 580.800781 523.691406 C 580.570312 523.925781 580.316406 524.132812 580.039062 524.320312 C 579.765625 524.503906 579.476562 524.65625 579.171875 524.785156 C 578.867188 524.910156 578.554688 525.007812 578.230469 525.070312 C 577.90625 525.136719 577.578125 525.167969 577.25 525.167969 C 576.917969 525.167969 576.59375 525.136719 576.269531 525.070312 C 575.945312 525.007812 575.632812 524.910156 575.328125 524.785156 C 575.023438 524.65625 574.730469 524.503906 574.457031 524.320312 C 574.183594 524.132812 573.929688 523.925781 573.695312 523.691406 C 573.464844 523.457031 573.253906 523.203125 573.070312 522.929688 C 572.886719 522.652344 572.734375 522.363281 572.609375 522.058594 C 572.480469 521.753906 572.386719 521.4375 572.320312 521.113281 C 572.257812 520.789062 572.226562 520.460938 572.226562 520.128906 C 572.226562 519.800781 572.257812 519.472656 572.320312 519.148438 C 572.386719 518.824219 572.480469 518.507812 572.609375 518.203125 C 572.734375 517.898438 572.886719 517.605469 573.070312 517.332031 C 573.253906 517.058594 573.464844 516.800781 573.695312 516.570312 C 576.511719 513.757812 579.398438 511.019531 582.347656 508.351562 C 585.296875 505.683594 588.3125 503.089844 591.390625 500.570312 C 594.464844 498.046875 597.601562 495.605469 600.800781 493.238281 C 603.996094 490.871094 607.246094 488.585938 610.554688 486.378906 C 613.863281 484.171875 617.222656 482.046875 620.636719 480.003906 C 624.046875 477.960938 627.507812 476.003906 631.011719 474.132812 C 634.519531 472.261719 638.070312 470.476562 641.664062 468.777344 C 645.261719 467.078125 648.894531 465.46875 652.566406 463.949219 C 656.238281 462.429688 659.949219 461 663.691406 459.664062 C 667.433594 458.324219 671.207031 457.082031 675.007812 455.925781 C 678.8125 454.773438 682.640625 453.714844 686.496094 452.75 C 690.351562 451.785156 694.230469 450.917969 698.125 450.140625 C 702.023438 449.367188 705.9375 448.6875 709.871094 448.105469 C 713.800781 447.523438 717.742188 447.039062 721.695312 446.648438 C 725.652344 446.257812 729.613281 445.964844 733.582031 445.773438 C 737.550781 445.578125 741.523438 445.480469 745.496094 445.480469 C 749.46875 445.480469 753.441406 445.578125 757.410156 445.773438 C 761.378906 445.964844 765.339844 446.257812 769.292969 446.648438 C 773.246094 447.039062 777.191406 447.523438 781.121094 448.105469 C 785.050781 448.6875 788.964844 449.367188 792.863281 450.140625 C 796.761719 450.917969 800.636719 451.785156 804.492188 452.75 C 808.347656 453.714844 812.175781 454.773438 815.980469 455.925781 C 819.785156 457.082031 823.558594 458.324219 827.300781 459.664062 C 831.042969 461 834.75 462.429688 838.421875 463.949219 C 842.097656 465.46875 845.730469 467.078125 849.324219 468.777344 C 852.917969 470.476562 856.46875 472.261719 859.976562 474.132812 C 863.484375 476.003906 866.945312 477.960938 870.355469 480.003906 C 873.765625 482.046875 877.125 484.171875 880.433594 486.378906 C 883.742188 488.585938 886.996094 490.871094 890.191406 493.238281 C 893.386719 495.605469 896.523438 498.046875 899.601562 500.570312 C 902.679688 503.089844 905.691406 505.683594 908.644531 508.351562 C 911.59375 511.019531 914.476562 513.757812 917.292969 516.570312 C 917.648438 516.917969 917.941406 517.3125 918.175781 517.753906 C 918.410156 518.191406 918.578125 518.65625 918.675781 519.144531 C 918.773438 519.632812 918.796875 520.125 918.75 520.621094 C 918.703125 521.117188 918.582031 521.59375 918.390625 522.054688 C 918.199219 522.515625 917.949219 522.9375 917.632812 523.320312 C 917.316406 523.707031 916.949219 524.035156 916.535156 524.3125 C 916.121094 524.585938 915.675781 524.796875 915.199219 524.9375 C 914.726562 525.078125 914.238281 525.148438 913.742188 525.148438 Z M 913.742188 525.148438 " fill-opacity="1" fill-rule="nonzero"/></g><g clip-path="url(#c61f11ea0a)"><g clip-path="url(#798d68a5f3)"><path fill="#1e76e9" d="M 561.761719 508.710938 L 589.621094 508.710938 L 589.621094 536.566406 L 561.761719 536.566406 Z M 561.761719 508.710938 " fill-opacity="1" fill-rule="nonzero"/></g></g><g clip-path="url(#09f6f90bf9)"><g clip-path="url(#cd66e10e49)"><path fill="#1e76e9" d="M 900.925781 508.710938 L 928.78125 508.710938 L 928.78125 536.566406 L 900.925781 536.566406 Z M 900.925781 508.710938 " fill-opacity="1" fill-rule="nonzero"/></g></g><g fill="#1e76e9" fill-opacity="1"><g transform="translate(668.134776, 197.965226)"><g><path d="M -0.078125 -48.53125 L 17.5625 -48.53125 L 25.796875 -20.6875 C 26.191406 -19.226562 26.460938 -17.472656 26.609375 -15.421875 L 26.953125 -15.421875 C 27.171875 -17.390625 27.507812 -19.117188 27.96875 -20.609375 L 36.40625 -48.53125 L 53.5 -48.53125 L 34.3125 3.078125 C 31.851562 9.648438 28.832031 14.289062 25.25 17 C 21.664062 19.71875 16.988281 21.078125 11.21875 21.078125 C 8.988281 21.078125 6.707031 20.832031 4.375 20.34375 L 4.375 7.203125 C 5.882812 7.546875 7.609375 7.71875 9.546875 7.71875 C 11.035156 7.71875 12.335938 7.429688 13.453125 6.859375 C 14.566406 6.285156 15.535156 5.476562 16.359375 4.4375 C 17.191406 3.394531 18.078125 1.6875 19.015625 -0.6875 Z M -0.078125 -48.53125 "/></g></g></g><g fill="#1e76e9" fill-opacity="1"><g transform="translate(1226.489568, 752.712062)"><g><path d="M 16.0625 -24.765625 L 1.25 -48.53125 L 20.265625 -48.53125 L 27.625 -34.90625 L 35.171875 -48.53125 L 54.234375 -48.53125 L 39.03125 -24.765625 L 54.828125 0 L 35.8125 0 L 27.625 -14.734375 L 19.484375 0 L 0.421875 0 Z M 16.0625 -24.765625 "/></g></g></g><g fill="#050959" fill-opacity="1"><g transform="translate(303.967186, 448.164316)"><g><path d="M 24.71875 0 L 14.1875 0 L 14.1875 -20.3125 C 14.1875 -22.769531 14.242188 -25.023438 14.359375 -27.078125 C 13.703125 -26.285156 12.894531 -25.460938 11.9375 -24.609375 L 7.578125 -21.015625 L 2.203125 -27.625 L 15.375 -38.359375 L 24.71875 -38.359375 Z M 24.71875 0 "/></g></g></g><g fill="#050959" fill-opacity="1"><g transform="translate(198.190842, 475.760565)"><g><path d="M -0.078125 -41.890625 L 15.15625 -41.890625 L 22.265625 -17.859375 C 22.609375 -16.597656 22.84375 -15.082031 22.96875 -13.3125 L 23.265625 -13.3125 C 23.460938 -15.007812 23.753906 -16.5 24.140625 -17.78125 L 31.4375 -41.890625 L 46.1875 -41.890625 L 29.625 2.65625 C 27.5 8.332031 24.890625 12.335938 21.796875 14.671875 C 18.703125 17.015625 14.664062 18.1875 9.6875 18.1875 C 7.757812 18.1875 5.785156 17.976562 3.765625 17.5625 L 3.765625 6.21875 C 5.078125 6.507812 6.570312 6.65625 8.25 6.65625 C 9.53125 6.65625 10.648438 6.40625 11.609375 5.90625 C 12.566406 5.414062 13.40625 4.722656 14.125 3.828125 C 14.84375 2.929688 15.609375 1.457031 16.421875 -0.59375 Z M -0.078125 -41.890625 "/></g></g></g><g fill="#050959" fill-opacity="1"><g transform="translate(251.874415, 492.283066)"><g><path d="M 2.65625 -30.140625 L 2.65625 -40.046875 L 40.203125 -40.046875 L 40.203125 -30.140625 Z M 2.65625 -13.234375 L 2.65625 -23.265625 L 40.203125 -23.265625 L 40.203125 -13.234375 Z M 2.65625 -13.234375 "/></g></g></g><g fill="#050959" fill-opacity="1"><g transform="translate(308.100974, 509.10932)"><g><path d="M 29.4375 0 L 1.59375 0 L 1.59375 -6.828125 L 10.96875 -16.296875 C 13.644531 -19.085938 15.394531 -20.992188 16.21875 -22.015625 C 17.039062 -23.046875 17.613281 -23.925781 17.9375 -24.65625 C 18.257812 -25.394531 18.421875 -26.164062 18.421875 -26.96875 C 18.421875 -27.96875 18.097656 -28.753906 17.453125 -29.328125 C 16.804688 -29.910156 15.894531 -30.203125 14.71875 -30.203125 C 13.507812 -30.203125 12.285156 -29.851562 11.046875 -29.15625 C 9.816406 -28.46875 8.425781 -27.453125 6.875 -26.109375 L 1.1875 -32.765625 C 3.15625 -34.535156 4.8125 -35.800781 6.15625 -36.5625 C 7.507812 -37.320312 8.976562 -37.898438 10.5625 -38.296875 C 12.144531 -38.703125 13.925781 -38.90625 15.90625 -38.90625 C 18.382812 -38.90625 20.597656 -38.46875 22.546875 -37.59375 C 24.503906 -36.71875 26.019531 -35.472656 27.09375 -33.859375 C 28.164062 -32.242188 28.703125 -30.429688 28.703125 -28.421875 C 28.703125 -26.910156 28.515625 -25.515625 28.140625 -24.234375 C 27.765625 -22.960938 27.179688 -21.707031 26.390625 -20.46875 C 25.609375 -19.238281 24.566406 -17.941406 23.265625 -16.578125 C 21.960938 -15.210938 19.179688 -12.625 14.921875 -8.8125 L 14.921875 -8.546875 L 29.4375 -8.546875 Z M 29.4375 0 "/></g></g></g><g fill="#050959" fill-opacity="1"><g transform="translate(310.409567, 452.282286)"><g><path d="M 26.96875 9.9375 L -0.109375 9.9375 L -0.109375 3.484375 L 26.96875 3.484375 Z M 26.96875 9.9375 "/></g></g></g></svg>