<svg xmlns="http://www.w3.org/2000/svg" xmlns:xlink="http://www.w3.org/1999/xlink" width="2000" zoomAndPan="magnify" viewBox="0 0 1500 1124.99995" height="1500" preserveAspectRatio="xMidYMid meet" version="1.0"><defs><g/><clipPath id="0310bf9c44"><path d="M 507.648438 444.171875 L 983.148438 444.171875 L 983.148438 919.671875 L 507.648438 919.671875 Z M 507.648438 444.171875 " clip-rule="nonzero"/></clipPath><clipPath id="2f7e635f3b"><path d="M 745.398438 444.171875 C 614.09375 444.171875 507.648438 550.617188 507.648438 681.921875 C 507.648438 813.230469 614.09375 919.671875 745.398438 919.671875 C 876.703125 919.671875 983.148438 813.230469 983.148438 681.921875 C 983.148438 550.617188 876.703125 444.171875 745.398438 444.171875 " clip-rule="nonzero"/></clipPath><clipPath id="70b7d9eddc"><path d="M 561.761719 508.710938 L 589.621094 508.710938 L 589.621094 536.566406 L 561.761719 536.566406 Z M 561.761719 508.710938 " clip-rule="nonzero"/></clipPath><clipPath id="97b74aa2b6"><path d="M 575.691406 508.710938 C 568 508.710938 561.761719 514.945312 561.761719 522.636719 C 561.761719 530.332031 568 536.566406 575.691406 536.566406 C 583.382812 536.566406 589.621094 530.332031 589.621094 522.636719 C 589.621094 514.945312 583.382812 508.710938 575.691406 508.710938 " clip-rule="nonzero"/></clipPath><clipPath id="9b125d1228"><path d="M 900.925781 508.710938 L 928.78125 508.710938 L 928.78125 536.566406 L 900.925781 536.566406 Z M 900.925781 508.710938 " clip-rule="nonzero"/></clipPath><clipPath id="3e1850587c"><path d="M 914.851562 508.710938 C 907.160156 508.710938 900.925781 514.945312 900.925781 522.636719 C 900.925781 530.332031 907.160156 536.566406 914.851562 536.566406 C 922.546875 536.566406 928.78125 530.332031 928.78125 522.636719 C 928.78125 514.945312 922.546875 508.710938 914.851562 508.710938 " clip-rule="nonzero"/></clipPath></defs><rect x="-150" width="1800" fill="#ffffff" y="-112.499995" height="1349.99994" fill-opacity="1"/><rect x="-150" width="1800" fill="#ffffff" y="-112.499995" height="1349.99994" fill-opacity="1"/><path stroke-linecap="round" transform="matrix(0.750075, 0, 0, 0.75, 259.723986, 681.823049)" fill="none" stroke-linejoin="miter" d="M 4.997729 5.00156 L 1403.358506 5.00156 " stroke="#000000" stroke-width="10" stroke-opacity="1" stroke-miterlimit="4"/><path stroke-linecap="round" transform="matrix(0.750075, 0, 0, 0.75, 259.723986, 681.823049)" fill="none" stroke-linejoin="round" d="M 1385.860248 -9.998442 L 1405.858257 5.00156 L 1385.860248 20.001561 " stroke="#000000" stroke-width="10" stroke-opacity="1" stroke-miterlimit="4"/><path stroke-linecap="round" transform="matrix(-0.00312497, -0.749993, 0.749993, -0.00312497, 743.420585, 1012.495909)" fill="none" stroke-linejoin="miter" d="M 4.99979 5.001762 L 1192.510229 5.001763 " stroke="#000000" stroke-width="10" stroke-opacity="1" stroke-miterlimit="4"/><path stroke-linecap="round" transform="matrix(-0.00312497, -0.749993, 0.749993, -0.00312497, 743.420585, 1012.495909)" fill="none" stroke-linejoin="round" d="M 1175.010075 -9.998369 L 1195.010251 5.001763 L 1175.010075 20.001894 " stroke="#000000" stroke-width="10" stroke-opacity="1" stroke-miterlimit="4"/><g clip-path="url(#0310bf9c44)"><g clip-path="url(#2f7e635f3b)"><path stroke-linecap="butt" transform="matrix(0.750333, 0, 0, 0.750333, 507.649214, 444.17291)" fill="none" stroke-linejoin="miter" d="M 316.858368 -0.00137906 C 141.863101 -0.00137906 -0.00103437 141.862756 -0.00103437 316.858024 C -0.00103437 491.858497 141.863101 633.717426 316.858368 633.717426 C 491.853636 633.717426 633.717771 491.858497 633.717771 316.858024 C 633.717771 141.862756 491.853636 -0.00137906 316.858368 -0.00137906 " stroke="#222222" stroke-width="20" stroke-opacity="1" stroke-miterlimit="4"/></g></g><g fill="#1e76e9" fill-opacity="1"><g transform="translate(668.134776, 197.965696)"><g><path d="M -0.078125 -48.53125 L 17.5625 -48.53125 L 25.796875 -20.6875 C 26.191406 -19.226562 26.460938 -17.472656 26.609375 -15.421875 L 26.953125 -15.421875 C 27.171875 -17.390625 27.507812 -19.117188 27.96875 -20.609375 L 36.40625 -48.53125 L 53.5 -48.53125 L 34.3125 3.078125 C 31.851562 9.648438 28.832031 14.289062 25.25 17 C 21.664062 19.71875 16.988281 21.078125 11.21875 21.078125 C 8.988281 21.078125 6.707031 20.832031 4.375 20.34375 L 4.375 7.203125 C 5.882812 7.546875 7.609375 7.71875 9.546875 7.71875 C 11.035156 7.71875 12.335938 7.429688 13.453125 6.859375 C 14.566406 6.285156 15.535156 5.476562 16.359375 4.4375 C 17.191406 3.394531 18.078125 1.6875 19.015625 -0.6875 Z M -0.078125 -48.53125 "/></g></g></g><g fill="#1e76e9" fill-opacity="1"><g transform="translate(1226.489568, 752.712278)"><g><path d="M 16.0625 -24.765625 L 1.25 -48.53125 L 20.265625 -48.53125 L 27.625 -34.90625 L 35.171875 -48.53125 L 54.234375 -48.53125 L 39.03125 -24.765625 L 54.828125 0 L 35.8125 0 L 27.625 -14.734375 L 19.484375 0 L 0.421875 0 Z M 16.0625 -24.765625 "/></g></g></g><path stroke-linecap="round" transform="matrix(0.750075, 0, 0, 0.75, 220.927222, 518.888143)" fill="none" stroke-linejoin="miter" d="M 4.997582 4.998101 L 1405.863318 4.998101 " stroke="#000000" stroke-width="10" stroke-opacity="1" stroke-miterlimit="4"/><g fill="#050959" fill-opacity="1"><g transform="translate(304.383202, 499.911729)"><g><path d="M 37.4375 0 L 34.234375 -6.421875 L 33.890625 -6.421875 C 31.628906 -3.628906 29.328125 -1.71875 26.984375 -0.6875 C 24.640625 0.34375 21.613281 0.859375 17.90625 0.859375 C 13.332031 0.859375 9.734375 -0.507812 7.109375 -3.25 C 4.484375 -6 3.171875 -9.859375 3.171875 -14.828125 C 3.171875 -19.992188 4.96875 -23.835938 8.5625 -26.359375 C 12.164062 -28.890625 17.378906 -30.3125 24.203125 -30.625 L 32.296875 -30.890625 L 32.296875 -31.578125 C 32.296875 -35.566406 30.328125 -37.5625 26.390625 -37.5625 C 22.847656 -37.5625 18.347656 -36.363281 12.890625 -33.96875 L 8.046875 -45.03125 C 13.703125 -47.9375 20.84375 -49.390625 29.46875 -49.390625 C 35.695312 -49.390625 40.515625 -47.847656 43.921875 -44.765625 C 47.335938 -41.679688 49.046875 -37.367188 49.046875 -31.828125 L 49.046875 0 Z M 25.015625 -10.96875 C 27.046875 -10.96875 28.78125 -11.609375 30.21875 -12.890625 C 31.664062 -14.179688 32.390625 -15.851562 32.390625 -17.90625 L 32.390625 -21.671875 L 28.53125 -21.5 C 23.019531 -21.300781 20.265625 -19.273438 20.265625 -15.421875 C 20.265625 -12.453125 21.847656 -10.96875 25.015625 -10.96875 Z M 25.015625 -10.96875 "/></g></g></g><g fill="#050959" fill-opacity="1"><g transform="translate(197.841285, 488.489458)"><g><path d="M -0.078125 -41.890625 L 15.15625 -41.890625 L 22.265625 -17.859375 C 22.609375 -16.597656 22.84375 -15.082031 22.96875 -13.3125 L 23.265625 -13.3125 C 23.460938 -15.007812 23.753906 -16.5 24.140625 -17.78125 L 31.4375 -41.890625 L 46.1875 -41.890625 L 29.625 2.65625 C 27.5 8.332031 24.890625 12.335938 21.796875 14.671875 C 18.703125 17.015625 14.664062 18.1875 9.6875 18.1875 C 7.757812 18.1875 5.785156 17.976562 3.765625 17.5625 L 3.765625 6.21875 C 5.078125 6.507812 6.570312 6.65625 8.25 6.65625 C 9.53125 6.65625 10.648438 6.40625 11.609375 5.90625 C 12.566406 5.414062 13.40625 4.722656 14.125 3.828125 C 14.84375 2.929688 15.609375 1.457031 16.421875 -0.59375 Z M -0.078125 -41.890625 "/></g></g></g><g fill="#050959" fill-opacity="1"><g transform="translate(251.886134, 502.461969)"><g><path d="M 2.65625 -30.140625 L 2.65625 -40.046875 L 40.203125 -40.046875 L 40.203125 -30.140625 Z M 2.65625 -13.234375 L 2.65625 -23.265625 L 40.203125 -23.265625 L 40.203125 -13.234375 Z M 2.65625 -13.234375 "/></g></g></g><g clip-path="url(#70b7d9eddc)"><g clip-path="url(#97b74aa2b6)"><path fill="#1e76e9" d="M 561.761719 508.710938 L 589.621094 508.710938 L 589.621094 536.566406 L 561.761719 536.566406 Z M 561.761719 508.710938 " fill-opacity="1" fill-rule="nonzero"/></g></g><g clip-path="url(#9b125d1228)"><g clip-path="url(#3e1850587c)"><path fill="#1e76e9" d="M 900.925781 508.710938 L 928.78125 508.710938 L 928.78125 536.566406 L 900.925781 536.566406 Z M 900.925781 508.710938 " fill-opacity="1" fill-rule="nonzero"/></g></g></svg>