<svg xmlns="http://www.w3.org/2000/svg" xmlns:xlink="http://www.w3.org/1999/xlink" width="2000" zoomAndPan="magnify" viewBox="0 0 1500 1124.99995" height="1500" preserveAspectRatio="xMidYMid meet" version="1.0"><defs><g/><clipPath id="ada11deeef"><path d="M 507.648438 444.171875 L 983.148438 444.171875 L 983.148438 919.671875 L 507.648438 919.671875 Z M 507.648438 444.171875 " clip-rule="nonzero"/></clipPath><clipPath id="ed91cd523a"><path d="M 745.398438 444.171875 C 614.09375 444.171875 507.648438 550.617188 507.648438 681.921875 C 507.648438 813.226562 614.09375 919.671875 745.398438 919.671875 C 876.703125 919.671875 983.148438 813.226562 983.148438 681.921875 C 983.148438 550.617188 876.703125 444.171875 745.398438 444.171875 " clip-rule="nonzero"/></clipPath><clipPath id="6b5311f4b3"><path d="M 531.816406 544.804688 L 559.675781 544.804688 L 559.675781 572.664062 L 531.816406 572.664062 Z M 531.816406 544.804688 " clip-rule="nonzero"/></clipPath><clipPath id="a40f9ec094"><path d="M 545.746094 544.804688 C 538.054688 544.804688 531.816406 551.042969 531.816406 558.734375 C 531.816406 566.425781 538.054688 572.664062 545.746094 572.664062 C 553.4375 572.664062 559.675781 566.425781 559.675781 558.734375 C 559.675781 551.042969 553.4375 544.804688 545.746094 544.804688 " clip-rule="nonzero"/></clipPath><clipPath id="33efb334eb"><path d="M 931.070312 544.804688 L 958.929688 544.804688 L 958.929688 572.664062 L 931.070312 572.664062 Z M 931.070312 544.804688 " clip-rule="nonzero"/></clipPath><clipPath id="7a4231c333"><path d="M 945 544.804688 C 937.308594 544.804688 931.070312 551.042969 931.070312 558.734375 C 931.070312 566.425781 937.308594 572.664062 945 572.664062 C 952.691406 572.664062 958.929688 566.425781 958.929688 558.734375 C 958.929688 551.042969 952.691406 544.804688 945 544.804688 " clip-rule="nonzero"/></clipPath><clipPath id="8e45a2e7a2"><path d="M 750 645 L 817 645 L 817 683 L 750 683 Z M 750 645 " clip-rule="nonzero"/></clipPath><clipPath id="076b2cfc7f"><path d="M 755.867188 699.613281 L 745.300781 663.03125 L 806.070312 645.476562 L 816.636719 682.058594 Z M 755.867188 699.613281 " clip-rule="nonzero"/></clipPath><clipPath id="01b47f50a5"><path d="M 750.585938 681.324219 L 806.070312 645.476562 L 816.636719 682.058594 L 750.585938 681.324219 " clip-rule="nonzero"/></clipPath></defs><rect x="-150" width="1800" fill="#ffffff" y="-112.499995" height="1349.99994" fill-opacity="1"/><rect x="-150" width="1800" fill="#ffffff" y="-112.499995" height="1349.99994" fill-opacity="1"/><rect x="-150" width="1800" fill="#ffffff" y="-112.499995" height="1349.99994" fill-opacity="1"/><path stroke-linecap="round" transform="matrix(0.750075, 0, 0, 0.75, 259.723986, 681.823049)" fill="none" stroke-linejoin="miter" d="M 4.997729 5.00156 L 1403.358506 5.00156 " stroke="#000000" stroke-width="10" stroke-opacity="1" stroke-miterlimit="4"/><path stroke-linecap="round" transform="matrix(0.750075, 0, 0, 0.75, 259.723986, 681.823049)" fill="none" stroke-linejoin="round" d="M 1385.860248 -9.998442 L 1405.858257 5.00156 L 1385.860248 20.001561 " stroke="#000000" stroke-width="10" stroke-opacity="1" stroke-miterlimit="4"/><path stroke-linecap="round" transform="matrix(-0.00312497, -0.749993, 0.749993, -0.00312497, 743.420585, 1012.495909)" fill="none" stroke-linejoin="miter" d="M 4.99979 5.001762 L 1192.510229 5.001763 " stroke="#000000" stroke-width="10" stroke-opacity="1" stroke-miterlimit="4"/><path stroke-linecap="round" transform="matrix(-0.00312497, -0.749993, 0.749993, -0.00312497, 743.420585, 1012.495909)" fill="none" stroke-linejoin="round" d="M 1175.010075 -9.998369 L 1195.010251 5.001763 L 1175.010075 20.001894 " stroke="#000000" stroke-width="10" stroke-opacity="1" stroke-miterlimit="4"/><g clip-path="url(#ada11deeef)"><g clip-path="url(#ed91cd523a)"><path stroke-linecap="butt" transform="matrix(0.750333, 0, 0, 0.750333, 507.649214, 444.17279)" fill="none" stroke-linejoin="miter" d="M 316.858368 -0.00121913 C 141.863101 -0.00121913 -0.00103437 141.862916 -0.00103437 316.858183 C -0.00103437 491.853451 141.863101 633.717586 316.858368 633.717586 C 491.853636 633.717586 633.717771 491.853451 633.717771 316.858183 C 633.717771 141.862916 491.853636 -0.00121913 316.858368 -0.00121913 " stroke="#222222" stroke-width="20" stroke-opacity="1" stroke-miterlimit="4"/></g></g><g fill="#1e76e9" fill-opacity="1"><g transform="translate(668.134776, 197.965571)"><g><path d="M -0.078125 -48.53125 L 17.5625 -48.53125 L 25.796875 -20.6875 C 26.191406 -19.226562 26.460938 -17.472656 26.609375 -15.421875 L 26.953125 -15.421875 C 27.171875 -17.390625 27.507812 -19.117188 27.96875 -20.609375 L 36.40625 -48.53125 L 53.5 -48.53125 L 34.3125 3.078125 C 31.851562 9.648438 28.832031 14.289062 25.25 17 C 21.664062 19.71875 16.988281 21.078125 11.21875 21.078125 C 8.988281 21.078125 6.707031 20.832031 4.375 20.34375 L 4.375 7.203125 C 5.882812 7.546875 7.609375 7.71875 9.546875 7.71875 C 11.035156 7.71875 12.335938 7.429688 13.453125 6.859375 C 14.566406 6.285156 15.535156 5.476562 16.359375 4.4375 C 17.191406 3.394531 18.078125 1.6875 19.015625 -0.6875 Z M -0.078125 -48.53125 "/></g></g></g><g fill="#1e76e9" fill-opacity="1"><g transform="translate(1226.489568, 752.71223)"><g><path d="M 16.0625 -24.765625 L 1.25 -48.53125 L 20.265625 -48.53125 L 27.625 -34.90625 L 35.171875 -48.53125 L 54.234375 -48.53125 L 39.03125 -24.765625 L 54.828125 0 L 35.8125 0 L 27.625 -14.734375 L 19.484375 0 L 0.421875 0 Z M 16.0625 -24.765625 "/></g></g></g><path stroke-linecap="round" transform="matrix(0.750075, 0, 0, 0.75, 220.927222, 554.984356)" fill="none" stroke-linejoin="miter" d="M 4.997582 5.000025 L 1405.863318 5.000025 " stroke="#000000" stroke-width="10" stroke-opacity="1" stroke-miterlimit="4"/><g fill="#050959" fill-opacity="1"><g transform="translate(366.277619, 536.007894)"><g><path d="M 37.4375 0 L 34.234375 -6.421875 L 33.890625 -6.421875 C 31.628906 -3.628906 29.328125 -1.71875 26.984375 -0.6875 C 24.640625 0.34375 21.613281 0.859375 17.90625 0.859375 C 13.332031 0.859375 9.734375 -0.507812 7.109375 -3.25 C 4.484375 -6 3.171875 -9.859375 3.171875 -14.828125 C 3.171875 -19.992188 4.96875 -23.835938 8.5625 -26.359375 C 12.164062 -28.890625 17.378906 -30.3125 24.203125 -30.625 L 32.296875 -30.890625 L 32.296875 -31.578125 C 32.296875 -35.566406 30.328125 -37.5625 26.390625 -37.5625 C 22.847656 -37.5625 18.347656 -36.363281 12.890625 -33.96875 L 8.046875 -45.03125 C 13.703125 -47.9375 20.84375 -49.390625 29.46875 -49.390625 C 35.695312 -49.390625 40.515625 -47.847656 43.921875 -44.765625 C 47.335938 -41.679688 49.046875 -37.367188 49.046875 -31.828125 L 49.046875 0 Z M 25.015625 -10.96875 C 27.046875 -10.96875 28.78125 -11.609375 30.21875 -12.890625 C 31.664062 -14.179688 32.390625 -15.851562 32.390625 -17.90625 L 32.390625 -21.671875 L 28.53125 -21.5 C 23.019531 -21.300781 20.265625 -19.273438 20.265625 -15.421875 C 20.265625 -12.453125 21.847656 -10.96875 25.015625 -10.96875 Z M 25.015625 -10.96875 "/></g></g></g><g fill="#050959" fill-opacity="1"><g transform="translate(259.735705, 524.585479)"><g><path d="M -0.078125 -41.890625 L 15.15625 -41.890625 L 22.265625 -17.859375 C 22.609375 -16.597656 22.84375 -15.082031 22.96875 -13.3125 L 23.265625 -13.3125 C 23.460938 -15.007812 23.753906 -16.5 24.140625 -17.78125 L 31.4375 -41.890625 L 46.1875 -41.890625 L 29.625 2.65625 C 27.5 8.332031 24.890625 12.335938 21.796875 14.671875 C 18.703125 17.015625 14.664062 18.1875 9.6875 18.1875 C 7.757812 18.1875 5.785156 17.976562 3.765625 17.5625 L 3.765625 6.21875 C 5.078125 6.507812 6.570312 6.65625 8.25 6.65625 C 9.53125 6.65625 10.648438 6.40625 11.609375 5.90625 C 12.566406 5.414062 13.40625 4.722656 14.125 3.828125 C 14.84375 2.929688 15.609375 1.457031 16.421875 -0.59375 Z M -0.078125 -41.890625 "/></g></g></g><g fill="#050959" fill-opacity="1"><g transform="translate(313.780554, 538.558182)"><g><path d="M 2.65625 -30.140625 L 2.65625 -40.046875 L 40.203125 -40.046875 L 40.203125 -30.140625 Z M 2.65625 -13.234375 L 2.65625 -23.265625 L 40.203125 -23.265625 L 40.203125 -13.234375 Z M 2.65625 -13.234375 "/></g></g></g><g clip-path="url(#6b5311f4b3)"><g clip-path="url(#a40f9ec094)"><path fill="#1e76e9" d="M 531.816406 544.804688 L 559.675781 544.804688 L 559.675781 572.664062 L 531.816406 572.664062 Z M 531.816406 544.804688 " fill-opacity="1" fill-rule="nonzero"/></g></g><g clip-path="url(#33efb334eb)"><g clip-path="url(#7a4231c333)"><path fill="#1e76e9" d="M 931.070312 544.804688 L 958.929688 544.804688 L 958.929688 572.664062 L 931.070312 572.664062 Z M 931.070312 544.804688 " fill-opacity="1" fill-rule="nonzero"/></g></g><g fill="#000000" fill-opacity="1"><g transform="translate(853.609712, 640.942893)"><g><path d="M 21.65625 -4.46875 C 22.007812 -4.46875 22.410156 -4.515625 22.859375 -4.609375 C 23.316406 -4.710938 23.71875 -4.84375 24.0625 -5 L 24.0625 -0.828125 C 23.539062 -0.492188 22.84375 -0.21875 21.96875 0 C 21.09375 0.207031 20.222656 0.3125 19.359375 0.3125 C 17.566406 0.3125 16.242188 -0.160156 15.390625 -1.109375 C 14.535156 -2.054688 14.109375 -3.507812 14.109375 -5.46875 L 14.109375 -13.09375 L 10.1875 -13.09375 L 10.1875 0 L 4.109375 0 L 4.109375 -13.09375 L 0.359375 -13.09375 L 0.359375 -15.671875 L 3.46875 -17.609375 L 24.0625 -17.609375 L 24.0625 -13.09375 L 20.1875 -13.09375 L 20.1875 -6.140625 C 20.1875 -5.609375 20.3125 -5.195312 20.5625 -4.90625 C 20.820312 -4.613281 21.1875 -4.46875 21.65625 -4.46875 Z M 21.65625 -4.46875 "/></g></g></g><g fill="#000000" fill-opacity="1"><g transform="translate(856.93784, 673.27341)"><g><path d="M 16.6875 -17.796875 C 16.6875 -16.390625 16.253906 -15.179688 15.390625 -14.171875 C 14.535156 -13.160156 13.289062 -12.425781 11.65625 -11.96875 L 11.65625 -11.875 C 15.457031 -11.394531 17.359375 -9.601562 17.359375 -6.5 C 17.359375 -4.382812 16.519531 -2.71875 14.84375 -1.5 C 13.164062 -0.289062 10.84375 0.3125 7.875 0.3125 C 6.644531 0.3125 5.507812 0.222656 4.46875 0.046875 C 3.425781 -0.128906 2.300781 -0.453125 1.09375 -0.921875 L 1.09375 -6.015625 C 2.082031 -5.503906 3.09375 -5.128906 4.125 -4.890625 C 5.15625 -4.648438 6.109375 -4.53125 6.984375 -4.53125 C 8.328125 -4.53125 9.304688 -4.71875 9.921875 -5.09375 C 10.546875 -5.46875 10.859375 -6.0625 10.859375 -6.875 C 10.859375 -7.5 10.695312 -7.976562 10.375 -8.3125 C 10.050781 -8.644531 9.53125 -8.894531 8.8125 -9.0625 C 8.101562 -9.238281 7.171875 -9.328125 6.015625 -9.328125 L 4.625 -9.328125 L 4.625 -13.953125 L 6.046875 -13.953125 C 9.171875 -13.953125 10.734375 -14.75 10.734375 -16.34375 C 10.734375 -16.945312 10.5 -17.390625 10.03125 -17.671875 C 9.570312 -17.960938 8.953125 -18.109375 8.171875 -18.109375 C 6.722656 -18.109375 5.222656 -17.625 3.671875 -16.65625 L 1.125 -20.75 C 2.320312 -21.582031 3.550781 -22.175781 4.8125 -22.53125 C 6.070312 -22.882812 7.515625 -23.0625 9.140625 -23.0625 C 11.492188 -23.0625 13.335938 -22.59375 14.671875 -21.65625 C 16.015625 -20.726562 16.6875 -19.441406 16.6875 -17.796875 Z M 16.6875 -17.796875 "/></g></g></g><g fill="#000000" fill-opacity="1"><g transform="translate(858.305983, 640.942893)"><g><path d="M 15.984375 5.890625 L -0.0625 5.890625 L -0.0625 2.0625 L 15.984375 2.0625 Z M 15.984375 5.890625 "/></g></g></g><g clip-path="url(#8e45a2e7a2)"><g clip-path="url(#076b2cfc7f)"><g clip-path="url(#01b47f50a5)"><path fill="#00ff4e" d="M 755.867188 699.613281 L 745.300781 663.03125 L 806.070312 645.476562 L 816.636719 682.058594 Z M 755.867188 699.613281 " fill-opacity="1" fill-rule="nonzero"/></g></g></g><path stroke-linecap="round" transform="matrix(0.638024, -0.393255, 0.393527, 0.638464, 743.331473, 678.629514)" fill="none" stroke-linejoin="miter" d="M 4.998993 4.999236 L 289.207323 5.000345 " stroke="#000000" stroke-width="10" stroke-opacity="1" stroke-miterlimit="4"/><path stroke-linecap="round" transform="matrix(-0.638267, -0.393695, 0.393737, -0.638334, 743.323337, 685.012601)" fill="none" stroke-linejoin="miter" d="M 4.999633 5.001619 L 289.043026 4.997883 " stroke="#000000" stroke-width="10" stroke-opacity="1" stroke-miterlimit="4"/></svg>