<svg xmlns="http://www.w3.org/2000/svg" xmlns:xlink="http://www.w3.org/1999/xlink" width="2000" zoomAndPan="magnify" viewBox="0 0 1500 1124.99995" height="1500" preserveAspectRatio="xMidYMid meet" version="1.0"><defs><g/><clipPath id="5c441e7c8b"><path d="M 507.648438 444.171875 L 983.148438 444.171875 L 983.148438 919.671875 L 507.648438 919.671875 Z M 507.648438 444.171875 " clip-rule="nonzero"/></clipPath><clipPath id="0e7607e7ae"><path d="M 745.398438 444.171875 C 614.09375 444.171875 507.648438 550.617188 507.648438 681.921875 C 507.648438 813.226562 614.09375 919.671875 745.398438 919.671875 C 876.703125 919.671875 983.148438 813.226562 983.148438 681.921875 C 983.148438 550.617188 876.703125 444.171875 745.398438 444.171875 " clip-rule="nonzero"/></clipPath><clipPath id="99a18ce4e9"><path d="M 900.925781 508.710938 L 928.78125 508.710938 L 928.78125 536.566406 L 900.925781 536.566406 Z M 900.925781 508.710938 " clip-rule="nonzero"/></clipPath><clipPath id="044cdae6ab"><path d="M 914.851562 508.710938 C 907.160156 508.710938 900.925781 514.945312 900.925781 522.636719 C 900.925781 530.332031 907.160156 536.566406 914.851562 536.566406 C 922.546875 536.566406 928.78125 530.332031 928.78125 522.636719 C 928.78125 514.945312 922.546875 508.710938 914.851562 508.710938 " clip-rule="nonzero"/></clipPath><clipPath id="7ad1b59e7c"><path d="M 477.449219 413.972656 L 1012.949219 413.972656 L 1012.949219 949.472656 L 477.449219 949.472656 Z M 477.449219 413.972656 " clip-rule="nonzero"/></clipPath><clipPath id="fb2a21e325"><path d="M 745.199219 413.972656 C 597.324219 413.972656 477.449219 533.847656 477.449219 681.722656 C 477.449219 829.597656 597.324219 949.472656 745.199219 949.472656 C 893.074219 949.472656 1012.949219 829.597656 1012.949219 681.722656 C 1012.949219 533.847656 893.074219 413.972656 745.199219 413.972656 " clip-rule="nonzero"/></clipPath></defs><rect x="-150" width="1800" fill="#ffffff" y="-112.499995" height="1349.99994" fill-opacity="1"/><rect x="-150" width="1800" fill="#ffffff" y="-112.499995" height="1349.99994" fill-opacity="1"/><path stroke-linecap="round" transform="matrix(0.750075, 0, 0, 0.75, 259.723986, 681.822929)" fill="none" stroke-linejoin="miter" d="M 4.997729 5.00172 L 1403.358506 5.00172 " stroke="#000000" stroke-width="10" stroke-opacity="1" stroke-miterlimit="4"/><path stroke-linecap="round" transform="matrix(0.750075, 0, 0, 0.75, 259.723986, 681.822929)" fill="none" stroke-linejoin="round" d="M 1385.860248 -9.998282 L 1405.858257 5.00172 L 1385.860248 20.001721 " stroke="#000000" stroke-width="10" stroke-opacity="1" stroke-miterlimit="4"/><path stroke-linecap="round" transform="matrix(-0.00312497, -0.749993, 0.749993, -0.00312497, 743.420585, 1012.496149)" fill="none" stroke-linejoin="miter" d="M 5.00011 5.001764 L 1192.510549 5.001764 " stroke="#000000" stroke-width="10" stroke-opacity="1" stroke-miterlimit="4"/><path stroke-linecap="round" transform="matrix(-0.00312497, -0.749993, 0.749993, -0.00312497, 743.420585, 1012.496149)" fill="none" stroke-linejoin="round" d="M 1175.010395 -9.998368 L 1195.010571 5.001764 L 1175.010395 20.001896 " stroke="#000000" stroke-width="10" stroke-opacity="1" stroke-miterlimit="4"/><g clip-path="url(#5c441e7c8b)"><g clip-path="url(#0e7607e7ae)"><path stroke-linecap="butt" transform="matrix(0.750333, 0, 0, 0.750333, 507.649214, 444.17279)" fill="none" stroke-linejoin="miter" d="M 316.858368 -0.00121913 C 141.863101 -0.00121913 -0.00103437 141.862916 -0.00103437 316.858183 C -0.00103437 491.853451 141.863101 633.717586 316.858368 633.717586 C 491.853636 633.717586 633.717771 491.853451 633.717771 316.858183 C 633.717771 141.862916 491.853636 -0.00121913 316.858368 -0.00121913 " stroke="#222222" stroke-width="20" stroke-opacity="1" stroke-miterlimit="4"/></g></g><g fill="#1e76e9" fill-opacity="1"><g transform="translate(668.134776, 197.965461)"><g><path d="M -0.078125 -48.53125 L 17.5625 -48.53125 L 25.796875 -20.6875 C 26.191406 -19.226562 26.460938 -17.472656 26.609375 -15.421875 L 26.953125 -15.421875 C 27.171875 -17.390625 27.507812 -19.117188 27.96875 -20.609375 L 36.40625 -48.53125 L 53.5 -48.53125 L 34.3125 3.078125 C 31.851562 9.648438 28.832031 14.289062 25.25 17 C 21.664062 19.71875 16.988281 21.078125 11.21875 21.078125 C 8.988281 21.078125 6.707031 20.832031 4.375 20.34375 L 4.375 7.203125 C 5.882812 7.546875 7.609375 7.71875 9.546875 7.71875 C 11.035156 7.71875 12.335938 7.429688 13.453125 6.859375 C 14.566406 6.285156 15.535156 5.476562 16.359375 4.4375 C 17.191406 3.394531 18.078125 1.6875 19.015625 -0.6875 Z M -0.078125 -48.53125 "/></g></g></g><g fill="#1e76e9" fill-opacity="1"><g transform="translate(1226.489568, 752.712278)"><g><path d="M 16.0625 -24.765625 L 1.25 -48.53125 L 20.265625 -48.53125 L 27.625 -34.90625 L 35.171875 -48.53125 L 54.234375 -48.53125 L 39.03125 -24.765625 L 54.828125 0 L 35.8125 0 L 27.625 -14.734375 L 19.484375 0 L 0.421875 0 Z M 16.0625 -24.765625 "/></g></g></g><g clip-path="url(#99a18ce4e9)"><g clip-path="url(#044cdae6ab)"><path fill="#1e76e9" d="M 900.925781 508.710938 L 928.78125 508.710938 L 928.78125 536.566406 L 900.925781 536.566406 Z M 900.925781 508.710938 " fill-opacity="1" fill-rule="nonzero"/></g></g><g clip-path="url(#7ad1b59e7c)"><g clip-path="url(#fb2a21e325)"><path stroke-linecap="butt" transform="matrix(0.749721, 0, 0, 0.749721, 477.44944, 413.972872)" fill="none" stroke-linejoin="miter" d="M 357.132543 -0.000288244 C 159.892511 -0.000288244 -0.000295403 159.892519 -0.000295403 357.13255 C -0.000295403 554.372582 159.892511 714.265389 357.132543 714.265389 C 554.372575 714.265389 714.265381 554.372582 714.265381 357.13255 C 714.265381 159.892519 554.372575 -0.000288244 357.132543 -0.000288244 " stroke="#5e17eb" stroke-width="20" stroke-opacity="1" stroke-miterlimit="4"/></g></g><path stroke-linecap="round" transform="matrix(-0.444725, -0.60392, 0.60392, -0.444725, 953.453567, 528.90099)" fill="none" stroke-linejoin="miter" d="M 6.498818 6.499039 L 6.252976 6.49911 " stroke="#5e17eb" stroke-width="13" stroke-opacity="1" stroke-miterlimit="4"/><path stroke-linecap="round" transform="matrix(-0.444725, -0.60392, 0.60392, -0.444725, 953.453567, 528.90099)" fill="none" stroke-linejoin="round" d="M -16.494819 -13.001264 L 9.5052 6.50082 L -16.496806 26.000254 " stroke="#5e17eb" stroke-width="13" stroke-opacity="1" stroke-miterlimit="4"/></svg>