<svg xmlns="http://www.w3.org/2000/svg" xmlns:xlink="http://www.w3.org/1999/xlink" width="2000" zoomAndPan="magnify" viewBox="0 0 1500 1124.99995" height="1500" preserveAspectRatio="xMidYMid meet" version="1.0"><defs><clipPath id="8d315d31f9"><path d="M 688.316406 942.617188 L 708.265625 942.617188 L 708.265625 962.566406 L 688.316406 962.566406 Z M 688.316406 942.617188 " clip-rule="nonzero"/></clipPath><clipPath id="4933ddb7a7"><path d="M 698.292969 942.617188 C 692.78125 942.617188 688.316406 947.082031 688.316406 952.589844 C 688.316406 958.101562 692.78125 962.566406 698.292969 962.566406 C 703.800781 962.566406 708.265625 958.101562 708.265625 952.589844 C 708.265625 947.082031 703.800781 942.617188 698.292969 942.617188 Z M 698.292969 942.617188 " clip-rule="nonzero"/></clipPath><clipPath id="6588f5ffd1"><path d="M 421 370 L 498 370 L 498 412 L 421 412 Z M 421 370 " clip-rule="nonzero"/></clipPath><clipPath id="ba8c20c8ca"><path d="M 506.976562 396.828125 L 431.210938 427.535156 L 419.378906 398.34375 L 495.144531 367.636719 Z M 506.976562 396.828125 " clip-rule="nonzero"/></clipPath><clipPath id="4d54f2e0a7"><path d="M 506.976562 396.828125 L 431.210938 427.535156 L 419.378906 398.34375 L 495.144531 367.636719 Z M 506.976562 396.828125 " clip-rule="nonzero"/></clipPath><clipPath id="98c0a204de"><path d="M 506.976562 396.828125 L 431.210938 427.535156 L 419.378906 398.34375 L 495.144531 367.636719 Z M 506.976562 396.828125 " clip-rule="nonzero"/></clipPath><clipPath id="57b5c4b1ee"><path d="M 1013 371 L 1087 371 L 1087 417 L 1013 417 Z M 1013 371 " clip-rule="nonzero"/></clipPath><clipPath id="a50cacf462"><path d="M 1074.113281 434.753906 L 1002 396.246094 L 1016.839844 368.457031 L 1088.953125 406.96875 Z M 1074.113281 434.753906 " clip-rule="nonzero"/></clipPath><clipPath id="fb9957fcfe"><path d="M 1074.113281 434.753906 L 1002 396.246094 L 1016.839844 368.457031 L 1088.953125 406.96875 Z M 1074.113281 434.753906 " clip-rule="nonzero"/></clipPath><clipPath id="08da6ec75b"><path d="M 1074.113281 434.753906 L 1002 396.246094 L 1016.839844 368.457031 L 1088.953125 406.96875 Z M 1074.113281 434.753906 " clip-rule="nonzero"/></clipPath><clipPath id="07dd33fd01"><path d="M 817 62 L 898 62 L 898 94 L 817 94 Z M 817 62 " clip-rule="nonzero"/></clipPath><clipPath id="b2d6be68af"><path d="M 893.789062 105.378906 L 813.1875 91.726562 L 818.449219 60.667969 L 899.050781 74.320312 Z M 893.789062 105.378906 " clip-rule="nonzero"/></clipPath><clipPath id="6453fe031d"><path d="M 893.789062 105.378906 L 813.1875 91.726562 L 818.449219 60.667969 L 899.050781 74.320312 Z M 893.789062 105.378906 " clip-rule="nonzero"/></clipPath><clipPath id="34dd1c8e67"><path d="M 893.789062 105.378906 L 813.1875 91.726562 L 818.449219 60.667969 L 899.050781 74.320312 Z M 893.789062 105.378906 " clip-rule="nonzero"/></clipPath></defs><rect x="-150" width="1800" fill="#ffffff" y="-112.499995" height="1349.99994" fill-opacity="1"/><rect x="-150" width="1800" fill="#ffffff" y="-112.499995" height="1349.99994" fill-opacity="1"/><path stroke-linecap="round" transform="matrix(-0.397882, 0.635759, -0.635759, -0.397882, 1065.694166, 375.575573)" fill="none" stroke-linejoin="miter" d="M 5.499713 5.502265 L 1097.456808 5.499842 " stroke="#1e76e9" stroke-width="11" stroke-opacity="1" stroke-miterlimit="4"/><path stroke-linecap="round" transform="matrix(0.133624, -0.738, 0.738, 0.133624, 672.260423, 1073.86208)" fill="none" stroke-linejoin="miter" d="M 5.4987 5.500679 L 1408.477141 5.501185 " stroke="#1e76e9" stroke-width="11" stroke-opacity="1" stroke-miterlimit="4"/><path stroke-linecap="round" transform="matrix(0.293159, 0.690332, -0.690332, 0.293159, 456.012522, 371.778932)" fill="none" stroke-linejoin="miter" d="M 5.499254 5.499607 L 1010.263696 5.501149 " stroke="#1e76e9" stroke-width="11" stroke-opacity="1" stroke-miterlimit="4"/><path stroke-linecap="round" transform="matrix(0.576475, -0.479768, 0.479768, 0.576475, 398.097832, 414.51112)" fill="none" stroke-linejoin="miter" d="M 5.499096 5.499181 L 800.308897 5.499004 " stroke="#000000" stroke-width="11" stroke-opacity="1" stroke-miterlimit="4"/><path stroke-linecap="round" transform="matrix(-0.375, -0.649519, 0.649519, -0.375, 1094.754323, 436.823606)" fill="none" stroke-linejoin="miter" d="M 5.500481 5.502506 L 616.003 5.497916 " stroke="#000000" stroke-width="11" stroke-opacity="1" stroke-miterlimit="4"/><path stroke-linecap="round" transform="matrix(-0.75, 0.000000001309, -0.000000001309, -0.75, 1062.191894, 377.511041)" fill="none" stroke-linejoin="miter" d="M 5.500651 5.499097 L 807.808011 5.499098 " stroke="#000000" stroke-width="11" stroke-opacity="1" stroke-miterlimit="4"/><g clip-path="url(#8d315d31f9)"><g clip-path="url(#4933ddb7a7)"><path fill="#cc0829" d="M 688.316406 942.617188 L 708.265625 942.617188 L 708.265625 962.566406 L 688.316406 962.566406 Z M 688.316406 942.617188 " fill-opacity="1" fill-rule="nonzero"/></g></g><g clip-path="url(#6588f5ffd1)"><g clip-path="url(#ba8c20c8ca)"><g clip-path="url(#4d54f2e0a7)"><g clip-path="url(#98c0a204de)"><path fill="#000000" d="M 424.886719 397.015625 C 425.523438 396.757812 426.191406 396.632812 426.878906 396.636719 C 427.570312 396.640625 428.234375 396.773438 428.871094 397.042969 C 430.214844 397.609375 431.585938 398.105469 432.976562 398.539062 C 434.371094 398.972656 435.78125 399.335938 437.210938 399.628906 C 438.640625 399.921875 440.082031 400.144531 441.53125 400.296875 C 442.980469 400.453125 444.4375 400.53125 445.894531 400.542969 C 447.355469 400.554688 448.808594 400.492188 450.261719 400.359375 C 451.714844 400.226562 453.15625 400.023438 454.589844 399.75 C 456.023438 399.476562 457.4375 399.132812 458.835938 398.71875 C 460.234375 398.304688 461.609375 397.824219 462.960938 397.277344 C 464.3125 396.730469 465.636719 396.117188 466.925781 395.441406 C 468.21875 394.761719 469.472656 394.023438 470.691406 393.222656 C 471.910156 392.421875 473.089844 391.5625 474.222656 390.648438 C 475.359375 389.730469 476.445312 388.761719 477.488281 387.738281 C 478.527344 386.714844 479.515625 385.644531 480.449219 384.527344 C 481.382812 383.40625 482.261719 382.242188 483.082031 381.039062 C 483.90625 379.832031 484.664062 378.589844 485.363281 377.308594 C 486.0625 376.027344 486.699219 374.714844 487.269531 373.371094 C 487.40625 373.054688 487.570312 372.757812 487.761719 372.472656 C 487.957031 372.1875 488.175781 371.925781 488.421875 371.683594 C 488.667969 371.441406 488.933594 371.230469 489.222656 371.039062 C 489.507812 370.851562 489.8125 370.695312 490.128906 370.566406 C 490.449219 370.4375 490.777344 370.339844 491.117188 370.277344 C 491.453125 370.214844 491.792969 370.183594 492.140625 370.1875 C 492.484375 370.191406 492.824219 370.226562 493.160156 370.296875 C 493.496094 370.367188 493.824219 370.472656 494.140625 370.605469 C 494.457031 370.742188 494.753906 370.90625 495.039062 371.097656 C 495.324219 371.292969 495.585938 371.511719 495.828125 371.757812 C 496.066406 372.003906 496.28125 372.273438 496.472656 372.558594 C 496.660156 372.847656 496.816406 373.152344 496.945312 373.472656 C 497.074219 373.789062 497.171875 374.117188 497.234375 374.457031 C 497.300781 374.796875 497.328125 375.136719 497.328125 375.480469 C 497.324219 375.824219 497.285156 376.164062 497.214844 376.5 C 497.144531 376.839844 497.042969 377.164062 496.910156 377.480469 C 496.203125 379.140625 495.417969 380.757812 494.554688 382.339844 C 493.691406 383.917969 492.753906 385.453125 491.738281 386.941406 C 490.726562 388.429688 489.640625 389.863281 488.488281 391.246094 C 487.332031 392.628906 486.113281 393.949219 484.832031 395.210938 C 483.546875 396.476562 482.203125 397.671875 480.804688 398.800781 C 479.402344 399.933594 477.949219 400.992188 476.445312 401.980469 C 474.941406 402.96875 473.390625 403.878906 471.796875 404.714844 C 470.203125 405.550781 468.570312 406.308594 466.902344 406.984375 C 465.234375 407.660156 463.535156 408.253906 461.808594 408.761719 C 460.082031 409.273438 458.335938 409.699219 456.566406 410.035156 C 454.800781 410.375 453.019531 410.625 451.226562 410.789062 C 449.433594 410.953125 447.636719 411.027344 445.835938 411.015625 C 444.035156 411.003906 442.242188 410.902344 440.449219 410.714844 C 438.660156 410.527344 436.882812 410.253906 435.117188 409.890625 C 433.355469 409.527344 431.613281 409.078125 429.890625 408.546875 C 428.171875 408.011719 426.480469 407.398438 424.820312 406.699219 C 424.34375 406.496094 423.90625 406.230469 423.507812 405.898438 C 423.109375 405.566406 422.769531 405.183594 422.484375 404.753906 C 422.199219 404.320312 421.980469 403.855469 421.835938 403.355469 C 421.6875 402.859375 421.617188 402.351562 421.621094 401.835938 C 421.621094 401.316406 421.703125 400.808594 421.855469 400.316406 C 422.007812 399.820312 422.230469 399.359375 422.523438 398.929688 C 422.8125 398.5 423.160156 398.125 423.5625 397.796875 C 423.964844 397.472656 424.40625 397.210938 424.886719 397.015625 Z M 424.886719 397.015625 " fill-opacity="1" fill-rule="nonzero"/></g></g></g></g><g clip-path="url(#57b5c4b1ee)"><g clip-path="url(#a50cacf462)"><g clip-path="url(#fb9957fcfe)"><g clip-path="url(#08da6ec75b)"><path fill="#000000" d="M 1021.382812 371.835938 C 1021.992188 372.164062 1022.515625 372.589844 1022.957031 373.125 C 1023.394531 373.65625 1023.714844 374.253906 1023.917969 374.914062 C 1024.34375 376.308594 1024.839844 377.679688 1025.398438 379.027344 C 1025.960938 380.375 1026.585938 381.691406 1027.273438 382.976562 C 1027.964844 384.261719 1028.714844 385.507812 1029.527344 386.722656 C 1030.339844 387.933594 1031.207031 389.101562 1032.136719 390.230469 C 1033.0625 391.355469 1034.042969 392.433594 1035.074219 393.464844 C 1036.105469 394.496094 1037.1875 395.472656 1038.3125 396.398438 C 1039.441406 397.320312 1040.613281 398.1875 1041.824219 398.996094 C 1043.039062 399.808594 1044.289062 400.554688 1045.574219 401.242188 C 1046.863281 401.929688 1048.179688 402.550781 1049.527344 403.109375 C 1050.875 403.667969 1052.246094 404.160156 1053.640625 404.582031 C 1055.039062 405.003906 1056.449219 405.359375 1057.878906 405.644531 C 1059.3125 405.929688 1060.753906 406.144531 1062.203125 406.285156 C 1063.65625 406.429688 1065.109375 406.5 1066.570312 406.503906 C 1068.027344 406.503906 1069.484375 406.433594 1070.933594 406.292969 C 1072.386719 406.148438 1073.828125 405.9375 1075.261719 405.652344 C 1076.691406 405.371094 1078.105469 405.019531 1079.503906 404.597656 C 1079.832031 404.496094 1080.167969 404.429688 1080.511719 404.398438 C 1080.851562 404.363281 1081.195312 404.363281 1081.535156 404.398438 C 1081.878906 404.433594 1082.214844 404.5 1082.542969 404.601562 C 1082.871094 404.699219 1083.1875 404.832031 1083.492188 404.996094 C 1083.792969 405.15625 1084.078125 405.347656 1084.34375 405.566406 C 1084.609375 405.785156 1084.851562 406.027344 1085.066406 406.292969 C 1085.285156 406.558594 1085.476562 406.84375 1085.636719 407.148438 C 1085.796875 407.453125 1085.929688 407.769531 1086.027344 408.097656 C 1086.125 408.429688 1086.191406 408.765625 1086.226562 409.105469 C 1086.257812 409.449219 1086.257812 409.792969 1086.222656 410.132812 C 1086.1875 410.476562 1086.121094 410.8125 1086.019531 411.140625 C 1085.921875 411.46875 1085.789062 411.785156 1085.625 412.089844 C 1085.464844 412.394531 1085.273438 412.675781 1085.054688 412.941406 C 1084.835938 413.207031 1084.59375 413.449219 1084.328125 413.667969 C 1084.058594 413.886719 1083.773438 414.078125 1083.472656 414.238281 C 1083.167969 414.398438 1082.851562 414.53125 1082.523438 414.628906 C 1080.796875 415.148438 1079.050781 415.585938 1077.285156 415.933594 C 1075.519531 416.285156 1073.738281 416.546875 1071.945312 416.71875 C 1070.15625 416.894531 1068.359375 416.980469 1066.558594 416.980469 C 1064.757812 416.980469 1062.960938 416.890625 1061.167969 416.714844 C 1059.378906 416.535156 1057.597656 416.269531 1055.832031 415.917969 C 1054.066406 415.566406 1052.324219 415.132812 1050.601562 414.609375 C 1048.878906 414.085938 1047.183594 413.480469 1045.523438 412.792969 C 1043.859375 412.101562 1042.234375 411.335938 1040.644531 410.488281 C 1039.058594 409.636719 1037.515625 408.714844 1036.015625 407.714844 C 1034.519531 406.714844 1033.074219 405.644531 1031.683594 404.503906 C 1030.289062 403.363281 1028.957031 402.15625 1027.683594 400.886719 C 1026.40625 399.613281 1025.199219 398.285156 1024.054688 396.894531 C 1022.910156 395.503906 1021.835938 394.058594 1020.835938 392.5625 C 1019.832031 391.066406 1018.90625 389.527344 1018.054688 387.941406 C 1017.203125 386.355469 1016.429688 384.730469 1015.738281 383.066406 C 1015.046875 381.40625 1014.4375 379.710938 1013.910156 377.988281 C 1013.757812 377.492188 1013.683594 376.988281 1013.683594 376.46875 C 1013.683594 375.949219 1013.757812 375.445312 1013.90625 374.949219 C 1014.054688 374.453125 1014.273438 373.988281 1014.5625 373.554688 C 1014.847656 373.125 1015.191406 372.746094 1015.59375 372.414062 C 1015.992188 372.085938 1016.433594 371.820312 1016.910156 371.621094 C 1017.390625 371.421875 1017.886719 371.296875 1018.402344 371.246094 C 1018.917969 371.195312 1019.429688 371.21875 1019.9375 371.320312 C 1020.445312 371.421875 1020.925781 371.59375 1021.382812 371.835938 Z M 1021.382812 371.835938 " fill-opacity="1" fill-rule="nonzero"/></g></g></g></g><g clip-path="url(#07dd33fd01)"><g clip-path="url(#b2d6be68af)"><g clip-path="url(#6453fe031d)"><g clip-path="url(#34dd1c8e67)"><path fill="#000000" d="M 823.828125 62.433594 C 824.511719 62.546875 825.144531 62.789062 825.726562 63.152344 C 826.3125 63.519531 826.808594 63.984375 827.210938 64.546875 C 828.054688 65.734375 828.960938 66.878906 829.917969 67.976562 C 830.878906 69.078125 831.886719 70.125 832.949219 71.125 C 834.011719 72.128906 835.117188 73.074219 836.273438 73.964844 C 837.429688 74.855469 838.625 75.691406 839.859375 76.464844 C 841.09375 77.238281 842.367188 77.949219 843.671875 78.601562 C 844.976562 79.25 846.3125 79.835938 847.675781 80.355469 C 849.039062 80.871094 850.421875 81.324219 851.832031 81.707031 C 853.238281 82.089844 854.660156 82.402344 856.097656 82.648438 C 857.535156 82.890625 858.984375 83.0625 860.4375 83.164062 C 861.894531 83.265625 863.347656 83.296875 864.808594 83.253906 C 866.265625 83.214844 867.71875 83.101562 869.164062 82.917969 C 870.613281 82.734375 872.046875 82.480469 873.46875 82.15625 C 874.890625 81.832031 876.292969 81.4375 877.675781 80.976562 C 879.058594 80.515625 880.417969 79.988281 881.75 79.390625 C 883.082031 78.796875 884.382812 78.136719 885.648438 77.414062 C 886.917969 76.691406 888.148438 75.910156 889.335938 75.066406 C 889.617188 74.867188 889.914062 74.699219 890.230469 74.558594 C 890.542969 74.417969 890.867188 74.3125 891.203125 74.234375 C 891.539062 74.160156 891.878906 74.117188 892.222656 74.105469 C 892.566406 74.097656 892.90625 74.121094 893.246094 74.179688 C 893.585938 74.238281 893.914062 74.328125 894.238281 74.453125 C 894.558594 74.574219 894.863281 74.730469 895.15625 74.914062 C 895.445312 75.097656 895.714844 75.304688 895.964844 75.542969 C 896.214844 75.78125 896.4375 76.039062 896.636719 76.320312 C 896.835938 76.601562 897.003906 76.898438 897.144531 77.210938 C 897.285156 77.527344 897.390625 77.851562 897.46875 78.1875 C 897.542969 78.523438 897.585938 78.863281 897.59375 79.207031 C 897.605469 79.550781 897.578125 79.894531 897.523438 80.230469 C 897.464844 80.570312 897.371094 80.902344 897.25 81.222656 C 897.125 81.542969 896.972656 81.851562 896.789062 82.140625 C 896.605469 82.433594 896.394531 82.703125 896.160156 82.953125 C 895.921875 83.203125 895.664062 83.425781 895.382812 83.625 C 893.914062 84.667969 892.394531 85.632812 890.832031 86.523438 C 889.265625 87.414062 887.660156 88.226562 886.015625 88.960938 C 884.375 89.695312 882.695312 90.347656 880.988281 90.917969 C 879.28125 91.488281 877.550781 91.972656 875.792969 92.375 C 874.039062 92.773438 872.269531 93.085938 870.480469 93.3125 C 868.695312 93.539062 866.902344 93.679688 865.101562 93.730469 C 863.304688 93.78125 861.507812 93.742188 859.710938 93.617188 C 857.914062 93.492188 856.128906 93.277344 854.355469 92.976562 C 852.578125 92.675781 850.824219 92.289062 849.085938 91.816406 C 847.347656 91.34375 845.640625 90.789062 843.957031 90.148438 C 842.273438 89.507812 840.628906 88.785156 839.015625 87.984375 C 837.402344 87.183594 835.835938 86.304688 834.308594 85.347656 C 832.785156 84.390625 831.308594 83.363281 829.882812 82.261719 C 828.457031 81.160156 827.089844 79.996094 825.777344 78.757812 C 824.46875 77.523438 823.222656 76.230469 822.039062 74.871094 C 820.851562 73.515625 819.738281 72.101562 818.691406 70.636719 C 818.390625 70.214844 818.160156 69.757812 817.996094 69.265625 C 817.828125 68.777344 817.738281 68.269531 817.726562 67.753906 C 817.710938 67.234375 817.769531 66.726562 817.90625 66.226562 C 818.042969 65.726562 818.246094 65.253906 818.523438 64.816406 C 818.796875 64.378906 819.128906 63.988281 819.519531 63.648438 C 819.910156 63.304688 820.34375 63.03125 820.816406 62.816406 C 821.285156 62.605469 821.78125 62.464844 822.292969 62.402344 C 822.808594 62.335938 823.320312 62.34375 823.828125 62.433594 Z M 823.828125 62.433594 " fill-opacity="1" fill-rule="nonzero"/></g></g></g></g></svg>