<?xml version="1.0" encoding="UTF-8"?>
<!DOCTYPE svg PUBLIC "-//W3C//DTD SVG 1.1//EN" "http://www.w3.org/Graphics/SVG/1.1/DTD/svg11.dtd">
<svg xmlns="http://www.w3.org/2000/svg" version="1.1" width="512px" height="512px" style="shape-rendering:geometricPrecision; text-rendering:geometricPrecision; image-rendering:optimizeQuality; fill-rule:evenodd; clip-rule:evenodd" xmlns:xlink="http://www.w3.org/1999/xlink">
<g><path style="opacity:0.947" fill="#000000" d="M 511.5,245.5 C 511.5,252.167 511.5,258.833 511.5,265.5C 506.599,283.273 496.932,298.107 482.5,310C 461.225,325.974 437.891,338.307 412.5,347C 421.33,380.421 420.497,413.587 410,446.5C 394.836,478.83 369.669,490.996 334.5,483C 317.719,478.442 302.052,471.442 287.5,462C 276.293,454.56 265.626,446.394 255.5,437.5C 235.079,455.717 212.079,469.884 186.5,480C 138.602,494.475 108.435,477.642 96,429.5C 91.2997,401.814 92.1331,374.314 98.5,347C 73.1086,338.307 49.7752,325.974 28.5,310C 14.0681,298.107 4.40145,283.273 -0.5,265.5C -0.5,258.833 -0.5,252.167 -0.5,245.5C 4.40145,227.727 14.0681,212.893 28.5,201C 49.7752,185.026 73.1086,172.693 98.5,164C 89.6696,130.579 90.503,97.4125 101,64.5C 115.885,32.4752 140.719,20.3085 175.5,28C 197.876,34.0217 218.209,44.0217 236.5,58C 242.833,63.1667 249.167,68.3333 255.5,73.5C 272.616,58.7688 291.283,46.2688 311.5,36C 329.262,27.1798 347.929,24.1798 367.5,27C 388.206,32.0366 402.373,44.5366 410,64.5C 420.497,97.4125 421.33,130.579 412.5,164C 437.891,172.693 461.225,185.026 482.5,201C 496.932,212.893 506.599,227.727 511.5,245.5 Z M 151.5,45.5 C 167.817,45.3267 183.151,49.16 197.5,57C 212.95,65.7837 227.284,76.117 240.5,88C 222.517,105.356 206.184,124.022 191.5,144C 166.868,147.328 142.535,152.161 118.5,158.5C 110.004,129.396 110.504,100.396 120,71.5C 125.919,57.0645 136.419,48.3979 151.5,45.5 Z M 349.5,45.5 C 369.405,44.5866 383.238,53.2532 391,71.5C 400.496,100.396 400.996,129.396 392.5,158.5C 368.465,152.161 344.132,147.328 319.5,144C 304.964,124.804 289.131,106.638 272,89.5C 271.731,86.7202 272.898,84.5536 275.5,83C 292.075,69.2065 310.408,58.2065 330.5,50C 336.89,48.1601 343.224,46.6601 349.5,45.5 Z M 254.5,101.5 C 268.176,113.512 280.509,126.846 291.5,141.5C 267.203,141.344 242.87,141.51 218.5,142C 229.965,128.034 241.965,114.534 254.5,101.5 Z M 226.5,161.5 C 253.883,160.943 281.217,161.777 308.5,164C 328.818,192.782 346.485,223.282 361.5,255.5C 346.485,287.718 328.818,318.218 308.5,347C 273.167,350.333 237.833,350.333 202.5,347C 182.182,318.218 164.515,287.718 149.5,255.5C 164.474,223.533 181.974,193.199 202,164.5C 210.247,163.333 218.414,162.333 226.5,161.5 Z M 170.5,167.5 C 172.199,167.34 173.866,167.506 175.5,168C 162.198,188.095 150.031,208.928 139,230.5C 132.163,213.656 126.33,196.489 121.5,179C 137.692,174.033 154.026,170.2 170.5,167.5 Z M 335.5,168.5 C 353.757,169.493 371.757,172.993 389.5,179C 384.67,196.489 378.837,213.656 372,230.5C 361.067,208.947 348.901,188.28 335.5,168.5 Z M 100.5,184.5 C 101.496,184.414 102.329,184.748 103,185.5C 109.283,209.516 117.449,232.849 127.5,255.5C 117.612,278.843 108.945,302.509 101.5,326.5C 79.8894,318.863 59.8894,308.363 41.5,295C 12.1667,268.667 12.1667,242.333 41.5,216C 59.6815,202.769 79.3482,192.269 100.5,184.5 Z M 408.5,184.5 C 436.329,192.825 460.496,207.158 481,227.5C 495,246.167 495,264.833 481,283.5C 460.415,304.284 436.082,318.284 408,325.5C 401.717,301.484 393.551,278.151 383.5,255.5C 393.627,232.451 401.96,208.785 408.5,184.5 Z M 251.5,227.5 C 270.347,227.577 281.013,236.911 283.5,255.5C 279.601,277.897 266.601,286.397 244.5,281C 229.678,272.876 224.844,260.709 230,244.5C 234.695,235.631 241.862,229.965 251.5,227.5 Z M 138.5,280.5 C 149.925,301.847 162.259,322.681 175.5,343C 157.621,341.492 140.121,337.992 123,332.5C 124.174,325.466 125.841,318.466 128,311.5C 131.808,301.243 135.308,290.91 138.5,280.5 Z M 371.5,280.5 C 378.767,297.129 384.767,314.296 389.5,332C 371.901,337.821 353.901,341.487 335.5,343C 348.913,323.01 360.913,302.177 371.5,280.5 Z M 117.5,352.5 C 141.884,358.731 166.551,363.564 191.5,367C 206.184,386.978 222.517,405.644 240.5,423C 220.545,442.315 197.212,455.982 170.5,464C 139.099,468.524 120.599,455.024 115,423.5C 111.416,399.68 112.249,376.013 117.5,352.5 Z M 391.5,352.5 C 392.75,352.577 393.583,353.244 394,354.5C 399.315,378.793 399.648,403.126 395,427.5C 387.514,458.328 368.347,470.161 337.5,463C 312.185,454.515 289.852,441.182 270.5,423C 288.483,405.644 304.816,386.978 319.5,367C 343.942,363.764 367.942,358.93 391.5,352.5 Z M 218.5,369.5 C 242.705,369.484 267.038,369.484 291.5,369.5C 280.582,383.754 268.582,397.088 255.5,409.5C 242.409,396.748 230.076,383.414 218.5,369.5 Z"/></g>
<g><path style="opacity:0.941" fill="#000000" d="M 251.5,207.5 C 282.605,208.606 299.938,224.606 303.5,255.5C 300.5,284.5 284.5,300.5 255.5,303.5C 226.5,300.5 210.5,284.5 207.5,255.5C 210.095,228.245 224.762,212.245 251.5,207.5 Z M 251.5,227.5 C 241.862,229.965 234.695,235.631 230,244.5C 224.844,260.709 229.678,272.876 244.5,281C 266.601,286.397 279.601,277.897 283.5,255.5C 281.013,236.911 270.347,227.577 251.5,227.5 Z"/></g>
</svg>
