<?xml version="1.0" encoding="UTF-8"?>
<!DOCTYPE svg PUBLIC "-//W3C//DTD SVG 1.1//EN" "http://www.w3.org/Graphics/SVG/1.1/DTD/svg11.dtd">
<svg xmlns="http://www.w3.org/2000/svg" version="1.1" width="512px" height="512px" style="shape-rendering:geometricPrecision; text-rendering:geometricPrecision; image-rendering:optimizeQuality; fill-rule:evenodd; clip-rule:evenodd" xmlns:xlink="http://www.w3.org/1999/xlink">
<g><path style="opacity:0.994" fill="#fee179" d="M 236.5,-0.5 C 249.167,-0.5 261.833,-0.5 274.5,-0.5C 348.823,10.319 400.656,50.319 430,119.5C 436.977,138.217 440.81,157.55 441.5,177.5C 435.388,241.571 405.388,291.071 351.5,326C 287.484,361.332 223.484,361.332 159.5,326C 105.612,291.07 75.612,241.57 69.5,177.5C 73.9638,110.372 104.631,59.2057 161.5,24C 185.06,11.0353 210.06,2.86865 236.5,-0.5 Z"/></g>
<g><path style="opacity:1" fill="#ffba57" d="M 401.5,185.5 C 391.963,240.196 361.963,279.03 311.5,302C 245.383,325.179 188.883,311.013 142,259.5C 124.651,237.275 113.818,212.275 109.5,184.5C 109.621,133.09 130.288,92.2562 171.5,62C 227.463,26.7966 283.463,26.7966 339.5,62C 381.009,92.5171 401.676,133.684 401.5,185.5 Z"/></g>
<g><path style="opacity:1" fill="#fee179" d="M 282.5,247.5 C 276.755,262.2 266.755,266.033 252.5,259C 248.979,255.775 246.646,251.942 245.5,247.5C 245.5,215.5 245.5,183.5 245.5,151.5C 245.946,145.979 245.446,140.645 244,135.5C 237.591,144.562 229.091,147.395 218.5,144C 215.261,142.264 212.927,139.764 211.5,136.5C 218.977,123.555 226.477,110.555 234,97.5C 236.205,94.9598 238.705,92.7932 241.5,91C 250.089,89.4238 258.756,89.0905 267.5,90C 275.22,91.3858 280.053,95.8858 282,103.5C 282.5,151.499 282.667,199.499 282.5,247.5 Z"/></g>
<g><path style="opacity:1" fill="#f9ce58" d="M 245.5,151.5 C 238.438,164.021 228.438,167.188 215.5,161C 208.025,153.673 206.691,145.507 211.5,136.5C 212.927,139.764 215.261,142.264 218.5,144C 229.091,147.395 237.591,144.562 244,135.5C 245.446,140.645 245.946,145.979 245.5,151.5 Z"/></g>
<g><path style="opacity:0.993" fill="#f9ce58" d="M 69.5,177.5 C 75.612,241.57 105.612,291.07 159.5,326C 223.484,361.332 287.484,361.332 351.5,326C 405.388,291.071 435.388,241.571 441.5,177.5C 443.064,241.356 419.064,293.022 369.5,332.5C 314.889,371.579 255.555,380.746 191.5,360C 173.424,353.134 156.758,343.968 141.5,332.5C 91.935,293.021 67.935,241.354 69.5,177.5 Z"/></g>
<g><path style="opacity:1" fill="#ffac3e" d="M 109.5,184.5 C 113.818,212.275 124.651,237.275 142,259.5C 188.883,311.013 245.383,325.179 311.5,302C 361.963,279.03 391.963,240.196 401.5,185.5C 399.642,241.401 374.975,283.901 327.5,313C 285.201,334.958 241.868,337.291 197.5,320C 140.907,292.671 111.574,247.505 109.5,184.5 Z"/></g>
<g><path style="opacity:1" fill="#f9ce58" d="M 245.5,247.5 C 246.646,251.942 248.979,255.775 252.5,259C 266.755,266.033 276.755,262.2 282.5,247.5C 282.666,253.842 282.5,260.175 282,266.5C 276.925,279.789 267.759,283.955 254.5,279C 250.61,276.404 247.777,272.904 246,268.5C 245.5,261.508 245.334,254.508 245.5,247.5 Z"/></g>
<g><path style="opacity:0.996" fill="#fc2c3a" d="M 141.5,332.5 C 156.758,343.968 173.424,353.134 191.5,360C 255.555,380.746 314.889,371.579 369.5,332.5C 372.168,340.172 374.835,347.838 377.5,355.5C 343.115,379.294 305.115,392.294 263.5,394.5C 260.882,387.913 258.215,381.247 255.5,374.5C 252.785,381.247 250.118,387.913 247.5,394.5C 205.616,392.538 167.616,379.538 133.5,355.5C 136.165,347.838 138.832,340.172 141.5,332.5 Z"/></g>
<g><path style="opacity:0.989" fill="#ff4654" d="M 133.5,355.5 C 167.616,379.538 205.616,392.538 247.5,394.5C 234.654,433.843 220.988,472.843 206.5,511.5C 204.167,511.5 201.833,511.5 199.5,511.5C 185.728,498.229 172.062,484.729 158.5,471C 139.079,471.843 119.745,473.676 100.5,476.5C 94.909,475.341 93.0757,472.008 95,466.5C 107.847,429.479 120.681,392.479 133.5,355.5 Z"/></g>
<g><path style="opacity:0.989" fill="#ff4654" d="M 377.5,355.5 C 390.319,392.479 403.153,429.479 416,466.5C 417.924,472.008 416.091,475.341 410.5,476.5C 391.255,473.676 371.921,471.843 352.5,471C 338.938,484.729 325.272,498.229 311.5,511.5C 309.167,511.5 306.833,511.5 304.5,511.5C 290.012,472.843 276.346,433.843 263.5,394.5C 305.115,392.294 343.115,379.294 377.5,355.5 Z"/></g>
</svg>
