<svg xmlns="http://www.w3.org/2000/svg" xmlns:xlink="http://www.w3.org/1999/xlink" width="2000" zoomAndPan="magnify" viewBox="0 0 1500 1124.99995" height="1500" preserveAspectRatio="xMidYMid meet" version="1.0"><defs><clipPath id="db964628cc"><path d="M 850.792969 556.023438 L 883.59375 556.023438 L 883.59375 588.828125 L 850.792969 588.828125 Z M 850.792969 556.023438 " clip-rule="nonzero"/></clipPath><clipPath id="26ced7f2f6"><path d="M 867.195312 556.023438 C 858.136719 556.023438 850.792969 563.367188 850.792969 572.425781 C 850.792969 581.484375 858.136719 588.828125 867.195312 588.828125 C 876.25 588.828125 883.59375 581.484375 883.59375 572.425781 C 883.59375 563.367188 876.25 556.023438 867.195312 556.023438 Z M 867.195312 556.023438 " clip-rule="nonzero"/></clipPath></defs><rect x="-150" width="1800" fill="#ffffff" y="-112.499995" height="1349.99994" fill-opacity="1"/><rect x="-150" width="1800" fill="#ffffff" y="-112.499995" height="1349.99994" fill-opacity="1"/><path stroke-linecap="round" transform="matrix(-0.649519, -0.375, 0.375, -0.649519, 1240.124351, 795.339296)" fill="none" stroke-linejoin="miter" d="M 9.002501 9.000769 L 886.796711 8.999344 " stroke="#1e76e9" stroke-width="18" stroke-opacity="1" stroke-miterlimit="4"/><path stroke-linecap="round" transform="matrix(0.13155, -0.738373, 0.738373, 0.13155, 821.833955, 791.9132)" fill="none" stroke-linejoin="miter" d="M 8.998438 9.001367 L 753.223417 9.000961 " stroke="#1e76e9" stroke-width="18" stroke-opacity="1" stroke-miterlimit="4"/><path stroke-linecap="round" transform="matrix(0.706274, -0.252343, 0.252343, 0.706274, 247.360999, 786.739832)" fill="none" stroke-linejoin="miter" d="M 9.000103 8.998635 L 1164.110408 8.998439 " stroke="#1e76e9" stroke-width="18" stroke-opacity="1" stroke-miterlimit="4"/><path stroke-linecap="round" transform="matrix(0.577472, -0.478567, 0.478567, 0.577472, 245.325012, 787.900232)" fill="none" stroke-linejoin="miter" d="M 8.999852 8.997598 L 1167.016473 8.998803 " stroke="#000000" stroke-width="18" stroke-opacity="1" stroke-miterlimit="4"/><path stroke-linecap="round" transform="matrix(-0.371838, -0.651334, 0.651334, -0.371838, 1246.674766, 800.815687)" fill="none" stroke-linejoin="miter" d="M 9.001159 9.002457 L 861.794382 9.001099 " stroke="#000000" stroke-width="18" stroke-opacity="1" stroke-miterlimit="4"/><path stroke-linecap="round" transform="matrix(-0.75, 0, 0, -0.75, 1252.534605, 799.848199)" fill="none" stroke-linejoin="miter" d="M 8.999266 9.000725 L 1328.21813 9.000725 " stroke="#000000" stroke-width="18" stroke-opacity="1" stroke-miterlimit="4"/><g clip-path="url(#db964628cc)"><g clip-path="url(#26ced7f2f6)"><path fill="#cc0829" d="M 850.792969 556.023438 L 883.59375 556.023438 L 883.59375 588.828125 L 850.792969 588.828125 Z M 850.792969 556.023438 " fill-opacity="1" fill-rule="nonzero"/></g></g></svg>