<?xml version="1.0" encoding="UTF-8"?>
<!DOCTYPE svg PUBLIC "-//W3C//DTD SVG 1.1//EN" "http://www.w3.org/Graphics/SVG/1.1/DTD/svg11.dtd">
<svg xmlns="http://www.w3.org/2000/svg" version="1.1" width="2000px" height="1500px" style="shape-rendering:geometricPrecision; text-rendering:geometricPrecision; image-rendering:optimizeQuality; fill-rule:evenodd; clip-rule:evenodd" xmlns:xlink="http://www.w3.org/1999/xlink">
<g><path style="opacity:1" fill="#fefefe" d="M -0.5,-0.5 C 666.167,-0.5 1332.83,-0.5 1999.5,-0.5C 1999.5,499.5 1999.5,999.5 1999.5,1499.5C 1332.83,1499.5 666.167,1499.5 -0.5,1499.5C -0.5,999.5 -0.5,499.5 -0.5,-0.5 Z"/></g>
<g><path style="opacity:1" fill="#0c0c0c" d="M 1033.5,463.5 C 1032.17,467.5 1032.17,471.5 1033.5,475.5C 1018.83,475.667 1004.16,475.5 989.5,475C 986.832,474.433 984.166,473.933 981.5,473.5C 981.5,472.5 981.5,471.5 981.5,470.5C 980.5,470.5 979.5,470.5 978.5,470.5C 973.219,469.218 967.886,469.218 962.5,470.5C 967.428,471.886 972.428,472.886 977.5,473.5C 981.112,475.725 985.112,477.059 989.5,477.5C 993.971,478.96 997.971,481.293 1001.5,484.5C 1003.39,486.241 1005.73,487.241 1008.5,487.5C 1014.12,491.115 1019.45,495.115 1024.5,499.5C 1025.35,501.893 1027.02,503.226 1029.5,503.5C 1031.26,504.262 1032.26,505.596 1032.5,507.5C 1034.52,509.19 1036.52,510.856 1038.5,512.5C 1039.79,513.29 1040.96,514.29 1042,515.5C 1042.5,504.839 1042.67,494.172 1042.5,483.5C 1045.17,483.5 1047.83,483.5 1050.5,483.5C 1050.33,497.504 1050.5,511.504 1051,525.5C 1053.13,527.114 1054.63,529.114 1055.5,531.5C 1057.43,535.1 1060.1,538.1 1063.5,540.5C 1066.92,543.251 1069.59,546.584 1071.5,550.5C 1072.3,552.966 1073.63,554.966 1075.5,556.5C 1075.67,559.204 1077,560.871 1079.5,561.5C 1088.42,574.998 1097.08,588.664 1105.5,602.5C 1105.29,606.085 1106.63,608.751 1109.5,610.5C 1123.81,636.114 1136.81,662.447 1148.5,689.5C 1148.8,698.086 1151.8,705.42 1157.5,711.5C 1161.6,719.451 1164.93,727.784 1167.5,736.5C 1167.49,740.45 1168.82,743.784 1171.5,746.5C 1173.31,749.145 1174.31,752.145 1174.5,755.5C 1174.69,760.212 1176.36,764.212 1179.5,767.5C 1183.77,777.644 1187.44,787.977 1190.5,798.5C 1191.14,801.865 1191.97,805.198 1193,808.5C 1193.38,809.056 1193.88,809.389 1194.5,809.5C 1196.45,813.732 1198.12,818.066 1199.5,822.5C 1199.62,827.004 1200.95,831.004 1203.5,834.5C 1203.56,835.609 1203.89,836.609 1204.5,837.5C 1204.01,841.951 1205.34,845.617 1208.5,848.5C 1208.5,848.833 1208.5,849.167 1208.5,849.5C 1208.41,852.152 1209.08,854.485 1210.5,856.5C 1211.83,859.5 1213.17,862.5 1214.5,865.5C 1214.99,867.806 1215.33,870.139 1215.5,872.5C 1215.17,875.228 1215.84,877.562 1217.5,879.5C 1217.83,879.5 1218.17,879.5 1218.5,879.5C 1223.13,895.717 1228.13,911.717 1233.5,927.5C 1233.04,932.791 1234.37,937.458 1237.5,941.5C 1238.77,943.905 1239.43,946.572 1239.5,949.5C 1239.34,951.199 1239.51,952.866 1240,954.5C 1240.98,955.774 1241.81,955.774 1242.5,954.5C 1244.96,957.992 1246.12,961.992 1246,966.5C 1246.76,968.315 1247.59,969.981 1248.5,971.5C 1248.5,974.5 1248.5,977.5 1248.5,980.5C 1248.41,983.152 1249.08,985.485 1250.5,987.5C 1256.51,1007.37 1261.84,1027.53 1266.5,1048C 1267.75,1051.64 1269.08,1055.14 1270.5,1058.5C 1270.76,1063.9 1272.1,1068.9 1274.5,1073.5C 1276.36,1081.94 1278.36,1090.27 1280.5,1098.5C 1280.34,1101.19 1280.5,1103.85 1281,1106.5C 1281.82,1110.84 1283.32,1114.84 1285.5,1118.5C 1296.14,1159.73 1306.14,1201.06 1315.5,1242.5C 1315.34,1245.52 1315.5,1248.52 1316,1251.5C 1317.06,1254.17 1317.89,1256.83 1318.5,1259.5C 1318.5,1260.17 1318.83,1260.5 1319.5,1260.5C 1319.33,1263.85 1319.5,1267.18 1320,1270.5C 1321.85,1276.14 1323.35,1281.81 1324.5,1287.5C 1333.71,1323.01 1341.71,1359.01 1348.5,1395.5C 1348.34,1398.52 1348.5,1401.52 1349,1404.5C 1349.38,1405.06 1349.88,1405.39 1350.5,1405.5C 1353.48,1418.75 1356.14,1432.08 1358.5,1445.5C 1358.11,1449.88 1358.78,1454.04 1360.5,1458C 1359.94,1458.38 1359.61,1458.88 1359.5,1459.5C 1357.83,1459.5 1356.17,1459.5 1354.5,1459.5C 1354.41,1453.2 1353.41,1447.2 1351.5,1441.5C 1351.17,1441.5 1350.83,1441.5 1350.5,1441.5C 1350.67,1436.82 1350.5,1432.15 1350,1427.5C 1349.29,1426.62 1348.46,1425.95 1347.5,1425.5C 1343.29,1404.75 1339.12,1384.08 1335,1363.5C 1334.62,1362.94 1334.12,1362.61 1333.5,1362.5C 1333.67,1358.49 1333.5,1354.49 1333,1350.5C 1332.48,1347.72 1331.31,1345.39 1329.5,1343.5C 1329.72,1340.72 1329.39,1338.05 1328.5,1335.5C 1326.82,1328.27 1325.65,1320.94 1325,1313.5C 1324.24,1311.69 1323.41,1310.02 1322.5,1308.5C 1322.17,1307.17 1321.83,1305.83 1321.5,1304.5C 1321.67,1301.15 1321.5,1297.82 1321,1294.5C 1320.62,1293.94 1320.12,1293.61 1319.5,1293.5C 1319.5,1293.17 1319.5,1292.83 1319.5,1292.5C 1318.28,1287.5 1317.28,1282.5 1316.5,1277.5C 1316.67,1276.51 1316.34,1275.84 1315.5,1275.5C 1314.27,1270.67 1313.43,1265.67 1313,1260.5C 1312.72,1259.58 1312.22,1258.92 1311.5,1258.5C 1309.31,1248.57 1306.98,1238.57 1304.5,1228.5C 1304.66,1226.14 1304.5,1223.81 1304,1221.5C 1303.62,1220.94 1303.12,1220.61 1302.5,1220.5C 1301.83,1217.5 1301.17,1214.5 1300.5,1211.5C 1300.66,1209.14 1300.5,1206.81 1300,1204.5C 1299.62,1203.94 1299.12,1203.61 1298.5,1203.5C 1296.97,1194.67 1294.97,1186.01 1292.5,1177.5C 1292.66,1175.14 1292.5,1172.81 1292,1170.5C 1291.62,1169.94 1291.12,1169.61 1290.5,1169.5C 1289.34,1164.82 1288.34,1160.16 1287.5,1155.5C 1285.88,1151.68 1284.88,1147.68 1284.5,1143.5C 1284.66,1141.14 1284.5,1138.81 1284,1136.5C 1283.62,1135.94 1283.12,1135.61 1282.5,1135.5C 1281.98,1133.69 1281.31,1132.03 1280.5,1130.5C 1280.95,1125.34 1279.95,1120.67 1277.5,1116.5C 1275.04,1106.34 1272.37,1096.34 1269.5,1086.5C 1269.83,1083.77 1269.16,1081.44 1267.5,1079.5C 1267.66,1077.14 1267.5,1074.81 1267,1072.5C 1264.29,1064.16 1261.79,1055.83 1259.5,1047.5C 1259.97,1044.92 1259.31,1042.92 1257.5,1041.5C 1256.51,1033.18 1254.51,1025.18 1251.5,1017.5C 1252.01,1014.61 1251.34,1012.28 1249.5,1010.5C 1249.5,1010.17 1249.5,1009.83 1249.5,1009.5C 1248.57,1004.17 1246.9,999.171 1244.5,994.5C 1244.01,992.194 1243.67,989.861 1243.5,987.5C 1244.01,984.612 1243.34,982.279 1241.5,980.5C 1239.59,976.009 1238.26,971.343 1237.5,966.5C 1236.93,961.987 1235.93,957.654 1234.5,953.5C 1233.88,953.389 1233.38,953.056 1233,952.5C 1230.06,943.054 1227.22,933.72 1224.5,924.5C 1224.03,918.369 1222.86,912.369 1221,906.5C 1220.29,905.619 1219.46,904.953 1218.5,904.5C 1214.29,890.191 1210.12,875.858 1206,861.5C 1199.54,845.297 1193.71,828.631 1188.5,811.5C 1188.74,809.102 1188.07,807.102 1186.5,805.5C 1186.17,805.5 1185.83,805.5 1185.5,805.5C 1185.54,801.267 1184.21,797.6 1181.5,794.5C 1181.27,790.708 1180.44,787.041 1179,783.5C 1178.62,782.944 1178.12,782.611 1177.5,782.5C 1174.25,775.426 1171.59,768.093 1169.5,760.5C 1169.51,756.55 1168.18,753.216 1165.5,750.5C 1164.77,749.292 1164.43,747.959 1164.5,746.5C 1164.24,743.728 1163.24,741.395 1161.5,739.5C 1162.34,735.425 1161.01,732.425 1157.5,730.5C 1154.38,722.894 1151.38,715.227 1148.5,707.5C 1147.65,702.535 1146.15,697.868 1144,693.5C 1143.29,692.619 1142.46,691.953 1141.5,691.5C 1140.34,687.853 1138.68,684.52 1136.5,681.5C 1135.83,679.5 1135.17,677.5 1134.5,675.5C 1133.73,669.967 1131.4,665.3 1127.5,661.5C 1107.93,618.343 1083.76,578.01 1055,540.5C 1048.54,534.252 1042.54,527.585 1037,520.5C 1018.84,502.169 997.671,488.503 973.5,479.5C 969.282,477.584 964.615,476.584 959.5,476.5C 958.173,480.951 957.506,485.784 957.5,491C 959.27,735.83 960.436,980.664 961,1225.5C 957.234,1230.8 953.567,1230.8 950,1225.5C 948.358,976.167 946.858,726.833 945.5,477.5C 942.36,476.359 939.027,476.192 935.5,477C 930.834,479.348 926.167,481.515 921.5,483.5C 911.75,488.048 902.083,493.215 892.5,499C 883.344,506.491 874.511,514.324 866,522.5C 842.026,549.142 821.526,578.142 804.5,609.5C 802.229,611.612 800.896,614.279 800.5,617.5C 796.948,622.782 793.948,628.448 791.5,634.5C 789.755,636.033 788.755,638.033 788.5,640.5C 784.441,647.614 780.608,654.948 777,662.5C 770.903,676.987 764.737,691.32 758.5,705.5C 756.552,707.32 755.552,709.654 755.5,712.5C 746.653,733.697 737.986,755.03 729.5,776.5C 727.72,777.99 727.054,779.99 727.5,782.5C 727.5,783.167 727.5,783.833 727.5,784.5C 725.896,785.287 725.229,786.62 725.5,788.5C 725.5,788.833 725.5,789.167 725.5,789.5C 723.787,790.635 723.12,792.302 723.5,794.5C 721.897,800.309 719.897,805.976 717.5,811.5C 715.72,812.99 715.054,814.99 715.5,817.5C 713.926,819.102 713.259,821.102 713.5,823.5C 696.68,871.947 681.347,920.613 667.5,969.5C 666.883,969.611 666.383,969.944 666,970.5C 665.503,972.81 665.337,975.143 665.5,977.5C 663.656,979.279 662.99,981.612 663.5,984.5C 661.656,988.901 660.323,993.567 659.5,998.5C 658.883,998.611 658.383,998.944 658,999.5C 657.505,1001.47 657.338,1003.47 657.5,1005.5C 656.883,1005.61 656.383,1005.94 656,1006.5C 655.503,1008.81 655.337,1011.14 655.5,1013.5C 653.939,1018.51 652.272,1023.51 650.5,1028.5C 649.439,1032.05 648.439,1035.72 647.5,1039.5C 639.836,1067.51 632.836,1095.51 626.5,1123.5C 624.837,1125.44 624.171,1127.77 624.5,1130.5C 623.14,1135.94 621.806,1141.27 620.5,1146.5C 619.883,1146.61 619.383,1146.94 619,1147.5C 618.502,1150.48 618.335,1153.48 618.5,1156.5C 616.486,1161.57 615.153,1166.9 614.5,1172.5C 612.631,1174.64 611.964,1177.3 612.5,1180.5C 612.672,1181.49 612.338,1182.16 611.5,1182.5C 610.598,1186.76 609.598,1191.09 608.5,1195.5C 602.697,1221.07 596.697,1246.74 590.5,1272.5C 587.983,1277.01 586.983,1282.01 587.5,1287.5C 586.379,1294 585.046,1300.34 583.5,1306.5C 582.883,1306.61 582.383,1306.94 582,1307.5C 581.503,1310.15 581.336,1312.81 581.5,1315.5C 579.612,1317.99 578.945,1320.99 579.5,1324.5C 577.93,1327.87 576.763,1331.54 576,1335.5C 575.502,1338.48 575.335,1341.48 575.5,1344.5C 573.735,1347.12 573.068,1350.12 573.5,1353.5C 571.735,1356.12 571.068,1359.12 571.5,1362.5C 564.556,1394.19 558.056,1425.86 552,1457.5C 549.894,1459.29 547.394,1459.96 544.5,1459.5C 544.5,1457.5 544.5,1455.5 544.5,1453.5C 546.369,1451.36 547.036,1448.7 546.5,1445.5C 547.117,1445.39 547.617,1445.06 548,1444.5C 548.497,1441.85 548.664,1439.19 548.5,1436.5C 551.432,1426.04 553.432,1415.37 554.5,1404.5C 555.117,1404.39 555.617,1404.06 556,1403.5C 556.497,1401.19 556.663,1398.86 556.5,1396.5C 557.008,1392.8 557.674,1389.14 558.5,1385.5C 559.117,1385.39 559.617,1385.06 560,1384.5C 560.495,1382.53 560.662,1380.53 560.5,1378.5C 560.783,1377.71 561.283,1377.04 562,1376.5C 564.28,1359.27 567.78,1342.27 572.5,1325.5C 573.344,1322.66 574.01,1319.66 574.5,1316.5C 575.192,1310.34 576.525,1304.34 578.5,1298.5C 580.681,1291.86 582.015,1284.86 582.5,1277.5C 582.216,1275.59 582.549,1273.92 583.5,1272.5C 584.117,1272.39 584.617,1272.06 585,1271.5C 585.498,1268.18 585.665,1264.85 585.5,1261.5C 587.168,1259.52 587.834,1257.19 587.5,1254.5C 588.117,1254.39 588.617,1254.06 589,1253.5C 589.495,1251.53 589.662,1249.53 589.5,1247.5C 589.659,1243.71 590.325,1240.04 591.5,1236.5C 592.117,1236.39 592.617,1236.06 593,1235.5C 593.497,1233.19 593.663,1230.86 593.5,1228.5C 600.491,1198.52 607.491,1168.86 614.5,1139.5C 616.09,1137.53 617.257,1135.19 618,1132.5C 618.497,1130.19 618.663,1127.86 618.5,1125.5C 620.181,1122.42 620.848,1119.08 620.5,1115.5C 622.388,1113.01 623.055,1110.01 622.5,1106.5C 623.114,1103.69 624.281,1101.02 626,1098.5C 630.623,1076.26 636.123,1054.26 642.5,1032.5C 643.117,1032.39 643.617,1032.06 644,1031.5C 644.495,1029.53 644.662,1027.53 644.5,1025.5C 645.545,1019.99 646.879,1014.65 648.5,1009.5C 650.986,1006.39 652.319,1002.72 652.5,998.5C 653.693,998.03 654.36,997.03 654.5,995.5C 655.264,989.025 656.264,982.691 657.5,976.5C 659.163,974.562 659.829,972.228 659.5,969.5C 662.234,964.247 663.901,958.581 664.5,952.5C 665.315,951.571 666.148,950.571 667,949.5C 667.14,946.957 667.806,944.623 669,942.5C 669.497,939.854 669.664,937.187 669.5,934.5C 670.117,934.389 670.617,934.056 671,933.5C 671.293,929.132 672.46,925.132 674.5,921.5C 677.528,917.409 678.862,912.743 678.5,907.5C 678.595,905.214 679.262,903.214 680.5,901.5C 681.924,899.485 682.59,897.152 682.5,894.5C 682.5,894.167 682.5,893.833 682.5,893.5C 684.245,891.967 685.245,889.967 685.5,887.5C 685.21,884.215 685.877,881.215 687.5,878.5C 689.976,875.712 690.976,872.378 690.5,868.5C 693.203,864.718 694.536,860.385 694.5,855.5C 695.497,855.53 696.164,855.03 696.5,854C 697.489,850.553 698.156,847.053 698.5,843.5C 699.11,842.609 699.443,841.609 699.5,840.5C 701.868,838.044 702.868,835.044 702.5,831.5C 704.494,826.177 706.494,820.843 708.5,815.5C 709.117,815.389 709.617,815.056 710,814.5C 710.497,812.19 710.663,809.857 710.5,807.5C 714.989,796.047 719.323,784.381 723.5,772.5C 726.683,770.08 728.016,766.747 727.5,762.5C 727.796,760.597 728.463,758.93 729.5,757.5C 732.149,754.496 733.482,750.829 733.5,746.5C 734.458,746.047 735.292,745.381 736,744.5C 736.567,741.832 737.067,739.166 737.5,736.5C 737.5,736.167 737.5,735.833 737.5,735.5C 739.559,733.74 740.892,731.406 741.5,728.5C 742.384,724.608 743.717,720.941 745.5,717.5C 748.615,713.72 750.282,709.387 750.5,704.5C 751.404,703.791 751.737,702.791 751.5,701.5C 755.861,697.127 758.528,691.794 759.5,685.5C 759.263,684.209 759.596,683.209 760.5,682.5C 761.931,681.097 763.098,679.431 764,677.5C 764.49,676.207 764.657,674.873 764.5,673.5C 766.411,667.413 769.077,661.747 772.5,656.5C 773.931,655.097 775.098,653.431 776,651.5C 776.49,650.207 776.657,648.873 776.5,647.5C 776.989,646.005 777.655,644.671 778.5,643.5C 781.893,641.974 783.226,639.307 782.5,635.5C 782.992,633.181 783.992,631.181 785.5,629.5C 786.376,629.631 787.043,629.298 787.5,628.5C 789.036,625.222 790.369,621.889 791.5,618.5C 794.766,616.544 796.432,613.544 796.5,609.5C 798.597,604.968 800.931,600.635 803.5,596.5C 805.982,595.337 807.316,593.337 807.5,590.5C 813.852,578.444 821.186,567.111 829.5,556.5C 831.587,555.415 832.92,553.749 833.5,551.5C 842.652,537.008 853.652,524.008 866.5,512.5C 868.671,510.5 871.004,508.666 873.5,507C 874.823,506.184 875.489,505.017 875.5,503.5C 881.659,497.343 888.659,492.343 896.5,488.5C 899.671,487.564 902.338,485.897 904.5,483.5C 908.167,481.5 911.833,479.5 915.5,477.5C 918.746,476.946 921.746,475.946 924.5,474.5C 926.786,474.405 928.786,473.738 930.5,472.5C 932.042,471.699 933.708,471.366 935.5,471.5C 937.564,471.313 939.564,470.813 941.5,470C 936.136,469.171 930.802,469.337 925.5,470.5C 924.66,471.735 923.66,472.735 922.5,473.5C 920.073,473.523 917.74,474.023 915.5,475C 734.167,475.5 552.834,475.667 371.5,475.5C 367.519,471.786 367.519,467.953 371.5,464C 562.833,463.5 754.166,463.333 945.5,463.5C 945.238,330.163 944.405,196.829 943,63.5C 940.588,67.9159 937.422,71.7492 933.5,75C 925.429,74.3568 923.596,70.5235 928,63.5C 933.805,55.3942 939.972,47.5609 946.5,40C 950.582,38.7069 953.749,39.8735 956,43.5C 960.615,50.4495 965.615,57.1162 971,63.5C 975.423,71.077 973.257,74.577 964.5,74C 961.067,70.9578 958.234,67.4578 956,63.5C 956.443,196.831 956.943,330.164 957.5,463.5C 982.833,463.5 1008.17,463.5 1033.5,463.5 Z"/></g>
<g><path style="opacity:1" fill="#649fef" d="M 862.5,89.5 C 854.648,89.1746 846.982,89.508 839.5,90.5C 838.957,90.44 838.624,90.1067 838.5,89.5C 846.657,88.1796 854.657,88.1796 862.5,89.5 Z"/></g>
<g><path style="opacity:1" fill="#2377e9" d="M 839.5,90.5 C 846.982,89.508 854.648,89.1746 862.5,89.5C 866.631,102.357 870.298,115.357 873.5,128.5C 874.167,133.833 874.833,133.833 875.5,128.5C 878.864,115.383 882.697,102.383 887,89.5C 894.413,88.5192 901.913,88.1858 909.5,88.5C 900.389,116.385 889.889,143.719 878,170.5C 869.561,179.866 859.061,183.366 846.5,181C 844.575,175.464 843.908,169.631 844.5,163.5C 854.433,165.709 860.766,162.042 863.5,152.5C 855.696,131.754 847.696,111.087 839.5,90.5 Z"/></g>
<g><path style="opacity:1" fill="#87b4f3" d="M 873.5,128.5 C 874.167,128.5 874.833,128.5 875.5,128.5C 874.833,133.833 874.167,133.833 873.5,128.5 Z"/></g>
<g><path style="opacity:1" fill="#090909" d="M 1233.5,384.5 C 1240.49,383.907 1247.16,385.074 1253.5,388C 1259.63,393.597 1260.13,399.764 1255,406.5C 1252.53,408.652 1249.7,410.152 1246.5,411C 1260.37,414.687 1263.37,422.687 1255.5,435C 1244.99,441.061 1233.99,442.061 1222.5,438C 1221.37,433.921 1221.2,429.755 1222,425.5C 1227.83,428.362 1234,429.196 1240.5,428C 1244.87,425.805 1245.54,422.805 1242.5,419C 1238.3,417.633 1233.97,417.133 1229.5,417.5C 1229.5,413.833 1229.5,410.167 1229.5,406.5C 1232.85,406.665 1236.18,406.498 1239.5,406C 1243.67,404.55 1245,401.883 1243.5,398C 1238.07,395.824 1232.91,396.324 1228,399.5C 1225.67,396.659 1223.5,393.659 1221.5,390.5C 1225.32,387.921 1229.32,385.921 1233.5,384.5 Z"/></g>
<g><path style="opacity:1" fill="#070707" d="M 1041.5,385.5 C 1046.17,385.5 1050.83,385.5 1055.5,385.5C 1055.5,403.5 1055.5,421.5 1055.5,439.5C 1050.5,439.5 1045.5,439.5 1040.5,439.5C 1040.67,427.162 1040.5,414.829 1040,402.5C 1037.07,404.714 1034.24,407.047 1031.5,409.5C 1029.04,406.542 1026.38,403.709 1023.5,401C 1029.76,396.052 1035.76,390.885 1041.5,385.5 Z"/></g>
<g><path style="opacity:1" fill="#070707" d="M 1257.5,476.5 C 1258.7,472.12 1258.7,467.787 1257.5,463.5C 1404.5,463.667 1551.5,463.5 1698.5,463C 1694.3,459.831 1690.47,456.331 1687,452.5C 1687.22,443.946 1691.05,441.779 1698.5,446C 1706.83,452.333 1715.17,458.667 1723.5,465C 1726.71,469.959 1725.71,473.959 1720.5,477C 1712.83,482.667 1705.17,488.333 1697.5,494C 1689.76,497.248 1686.26,494.748 1687,486.5C 1690.56,482.975 1694.39,479.809 1698.5,477C 1551.5,476.5 1404.5,476.333 1257.5,476.5 Z"/></g>
<g><path style="opacity:1" fill="#ca0d2a" d="M 1059.5,463.5 C 1060.83,467.833 1060.83,472.167 1059.5,476.5C 1056.74,479.274 1053.74,481.608 1050.5,483.5C 1047.83,483.5 1045.17,483.5 1042.5,483.5C 1039.26,481.608 1036.26,479.274 1033.5,476.5C 1033.5,476.167 1033.5,475.833 1033.5,475.5C 1032.17,471.5 1032.17,467.5 1033.5,463.5C 1042.17,452.833 1050.83,452.833 1059.5,463.5 Z"/></g>
<g><path style="opacity:1" fill="#cb0e2b" d="M 1257.5,463.5 C 1258.7,467.787 1258.7,472.12 1257.5,476.5C 1255.41,479.917 1252.41,482.25 1248.5,483.5C 1246.17,483.5 1243.83,483.5 1241.5,483.5C 1241.17,483.5 1240.83,483.5 1240.5,483.5C 1237.24,481.912 1234.57,479.579 1232.5,476.5C 1231.56,472.265 1231.23,467.931 1231.5,463.5C 1240.09,452.944 1248.76,452.944 1257.5,463.5 Z"/></g>
<g><path style="opacity:1" fill="#080707" d="M 1059.5,463.5 C 1116.83,463.5 1174.17,463.5 1231.5,463.5C 1231.23,467.931 1231.56,472.265 1232.5,476.5C 1174.83,476.5 1117.17,476.5 1059.5,476.5C 1060.83,472.167 1060.83,467.833 1059.5,463.5 Z"/></g>
<g><path style="opacity:1" fill="#797979" d="M 978.5,470.5 C 978.953,471.458 979.619,472.292 980.5,473C 979.552,473.483 978.552,473.649 977.5,473.5C 972.428,472.886 967.428,471.886 962.5,470.5C 967.886,469.218 973.219,469.218 978.5,470.5 Z"/></g>
<g><path style="opacity:1" fill="#737373" d="M 935.5,471.5 C 932.976,470.2 930.309,470.2 927.5,471.5C 928.325,472.386 929.325,472.719 930.5,472.5C 928.786,473.738 926.786,474.405 924.5,474.5C 923.508,474.672 922.842,474.338 922.5,473.5C 923.66,472.735 924.66,471.735 925.5,470.5C 930.802,469.337 936.136,469.171 941.5,470C 939.564,470.813 937.564,471.313 935.5,471.5 Z"/></g>
<g><path style="opacity:1" fill="#e2e2e2" d="M 935.5,471.5 C 933.708,471.366 932.042,471.699 930.5,472.5C 929.325,472.719 928.325,472.386 927.5,471.5C 930.309,470.2 932.976,470.2 935.5,471.5 Z"/></g>
<g><path style="opacity:1" fill="#414141" d="M 922.5,473.5 C 922.842,474.338 923.508,474.672 924.5,474.5C 921.746,475.946 918.746,476.946 915.5,477.5C 734.167,476.833 552.833,476.167 371.5,475.5C 552.834,475.667 734.167,475.5 915.5,475C 917.74,474.023 920.073,473.523 922.5,473.5 Z"/></g>
<g><path style="opacity:1" fill="#414141" d="M 978.5,470.5 C 979.5,470.5 980.5,470.5 981.5,470.5C 981.5,471.5 981.5,472.5 981.5,473.5C 984.166,473.933 986.832,474.433 989.5,475C 1004.16,475.5 1018.83,475.667 1033.5,475.5C 1033.5,475.833 1033.5,476.167 1033.5,476.5C 1018.66,476.171 1003.99,476.504 989.5,477.5C 985.112,477.059 981.112,475.725 977.5,473.5C 978.552,473.649 979.552,473.483 980.5,473C 979.619,472.292 978.953,471.458 978.5,470.5 Z"/></g>
<g><path style="opacity:1" fill="#fbfbfb" d="M 1033.5,476.5 C 1036.26,479.274 1039.26,481.608 1042.5,483.5C 1042.67,494.172 1042.5,504.839 1042,515.5C 1040.96,514.29 1039.79,513.29 1038.5,512.5C 1037.71,509.379 1035.71,507.712 1032.5,507.5C 1032.26,505.596 1031.26,504.262 1029.5,503.5C 1028.42,501.413 1026.75,500.08 1024.5,499.5C 1019.45,495.115 1014.12,491.115 1008.5,487.5C 1006.61,485.759 1004.27,484.759 1001.5,484.5C 997.971,481.293 993.971,478.96 989.5,477.5C 1003.99,476.504 1018.66,476.171 1033.5,476.5 Z"/></g>
<g><path style="opacity:1" fill="#fefdfd" d="M 1059.5,476.5 C 1117.17,476.5 1174.83,476.5 1232.5,476.5C 1234.57,479.579 1237.24,481.912 1240.5,483.5C 1240.83,639.001 1240.5,794.334 1239.5,949.5C 1239.43,946.572 1238.77,943.905 1237.5,941.5C 1235.56,936.938 1234.23,932.271 1233.5,927.5C 1228.13,911.717 1223.13,895.717 1218.5,879.5C 1223.21,872.446 1227.71,865.113 1232,857.5C 1232.67,848.167 1232.67,838.833 1232,829.5C 1230.37,830.532 1229.21,831.866 1228.5,833.5C 1227.55,836.14 1226.55,838.807 1225.5,841.5C 1223.56,844.456 1221.56,847.456 1219.5,850.5C 1215.24,854.489 1213.58,859.489 1214.5,865.5C 1213.17,862.5 1211.83,859.5 1210.5,856.5C 1210.59,853.848 1209.92,851.515 1208.5,849.5C 1208.5,849.167 1208.5,848.833 1208.5,848.5C 1207.54,844.605 1206.2,840.939 1204.5,837.5C 1203.89,836.609 1203.56,835.609 1203.5,834.5C 1202.74,830.216 1201.41,826.216 1199.5,822.5C 1198.12,818.066 1196.45,813.732 1194.5,809.5C 1193.49,806.279 1192.66,802.946 1192,799.5C 1191.62,798.944 1191.12,798.611 1190.5,798.5C 1187.44,787.977 1183.77,777.644 1179.5,767.5C 1178.32,763.162 1176.66,759.162 1174.5,755.5C 1174.31,752.145 1173.31,749.145 1171.5,746.5C 1170.52,742.91 1169.18,739.577 1167.5,736.5C 1164.93,727.784 1161.6,719.451 1157.5,711.5C 1153.93,704.362 1150.93,697.029 1148.5,689.5C 1136.81,662.447 1123.81,636.114 1109.5,610.5C 1108.67,607.515 1107.34,604.849 1105.5,602.5C 1097.08,588.664 1088.42,574.998 1079.5,561.5C 1078.92,559.251 1077.59,557.585 1075.5,556.5C 1075.16,553.802 1073.82,551.802 1071.5,550.5C 1069.59,546.584 1066.92,543.251 1063.5,540.5C 1061.57,536.9 1058.9,533.9 1055.5,531.5C 1054.63,529.114 1053.13,527.114 1051,525.5C 1050.5,511.504 1050.33,497.504 1050.5,483.5C 1053.74,481.608 1056.74,479.274 1059.5,476.5 Z"/></g>
<g><path style="opacity:1" fill="#bcbcbc" d="M 945.5,477.5 C 943.143,477.337 940.81,477.503 938.5,478C 933.142,480.73 927.476,482.564 921.5,483.5C 926.167,481.515 930.834,479.348 935.5,477C 939.027,476.192 942.36,476.359 945.5,477.5 Z"/></g>
<g><path style="opacity:1" fill="#3f3f3f" d="M 959.5,476.5 C 964.615,476.584 969.282,477.584 973.5,479.5C 969.491,479.142 965.491,478.642 961.5,478C 960.584,477.722 959.918,477.222 959.5,476.5 Z"/></g>
<g><path style="opacity:1" fill="#5d5d5d" d="M 1240.5,483.5 C 1240.83,483.5 1241.17,483.5 1241.5,483.5C 1241.17,640.57 1241.5,797.57 1242.5,954.5C 1241.81,955.774 1240.98,955.774 1240,954.5C 1239.51,952.866 1239.34,951.199 1239.5,949.5C 1240.5,794.334 1240.83,639.001 1240.5,483.5 Z"/></g>
<g><path style="opacity:1" fill="#010101" d="M 1241.5,483.5 C 1243.83,483.5 1246.17,483.5 1248.5,483.5C 1248.5,646.167 1248.5,808.833 1248.5,971.5C 1247.59,969.981 1246.76,968.315 1246,966.5C 1246.12,961.992 1244.96,957.992 1242.5,954.5C 1241.5,797.57 1241.17,640.57 1241.5,483.5 Z"/></g>
<g><path style="opacity:1" fill="#e0627d" d="M 1219.5,489.5 C 1219.41,488.504 1219.75,487.671 1220.5,487C 1211.33,484.198 1205.49,487.364 1203,496.5C 1201.89,497.305 1200.72,497.972 1199.5,498.5C 1200.98,493.559 1203.64,489.393 1207.5,486C 1212.15,485.501 1216.82,485.334 1221.5,485.5C 1221.77,487.38 1221.1,488.713 1219.5,489.5 Z"/></g>
<g><path style="opacity:1" fill="#5b5b5b" d="M 904.5,483.5 C 902.338,485.897 899.671,487.564 896.5,488.5C 898.662,486.103 901.329,484.436 904.5,483.5 Z"/></g>
<g><path style="opacity:1" fill="#9b9b9b" d="M 1001.5,484.5 C 1004.27,484.759 1006.61,485.759 1008.5,487.5C 1005.73,487.241 1003.39,486.241 1001.5,484.5 Z"/></g>
<g><path style="opacity:1" fill="#cf163d" d="M 1128.5,487.5 C 1128.5,487.833 1128.5,488.167 1128.5,488.5C 1127.5,488.414 1126.67,488.748 1126,489.5C 1124.23,492.08 1122.73,494.747 1121.5,497.5C 1121.17,498.833 1120.83,500.167 1120.5,501.5C 1117.15,505.532 1114.15,509.865 1111.5,514.5C 1110.5,514.5 1109.5,514.5 1108.5,514.5C 1107.37,518.101 1105.7,521.435 1103.5,524.5C 1102.24,526.687 1101.24,529.02 1100.5,531.5C 1097.34,535.148 1094.67,539.148 1092.5,543.5C 1088.48,544.226 1085.48,542.559 1083.5,538.5C 1083.4,535.892 1084.07,533.558 1085.5,531.5C 1088.42,525.314 1092.09,519.648 1096.5,514.5C 1097.72,513.972 1098.89,513.305 1100,512.5C 1101.51,509.476 1103.51,506.809 1106,504.5C 1107.08,501.733 1108.25,499.067 1109.5,496.5C 1111.92,493.411 1113.92,490.078 1115.5,486.5C 1117.95,485.958 1120.45,485.625 1123,485.5C 1125.3,485.547 1127.13,486.213 1128.5,487.5 Z"/></g>
<g><path style="opacity:1" fill="#d0193e" d="M 1219.5,489.5 C 1219.5,490.167 1219.5,490.833 1219.5,491.5C 1216.68,494.475 1214.34,497.808 1212.5,501.5C 1211.17,503.833 1209.83,506.167 1208.5,508.5C 1205.23,511.791 1202.39,515.458 1200,519.5C 1193.56,529.389 1187.39,539.389 1181.5,549.5C 1179.8,551.566 1178.47,553.9 1177.5,556.5C 1172.68,560.652 1169.01,565.652 1166.5,571.5C 1162.45,576.892 1158.78,582.559 1155.5,588.5C 1151.72,592.624 1148.72,597.291 1146.5,602.5C 1143.58,604.877 1141.58,607.877 1140.5,611.5C 1138.25,614.334 1136.08,617.334 1134,620.5C 1132.36,618.16 1130.86,615.827 1129.5,613.5C 1129.42,611.334 1128.75,609.334 1127.5,607.5C 1127.69,606.416 1128.02,605.416 1128.5,604.5C 1132.13,601.905 1134.79,598.572 1136.5,594.5C 1136.5,593.833 1136.5,593.167 1136.5,592.5C 1137.83,591.5 1139.17,590.5 1140.5,589.5C 1144.41,587.35 1146.58,584.016 1147,579.5C 1152.99,575.365 1156.49,569.699 1157.5,562.5C 1159.16,559.88 1160.83,557.213 1162.5,554.5C 1167.75,545.909 1173.42,537.575 1179.5,529.5C 1182.11,528.723 1183.95,527.056 1185,524.5C 1187.08,520.664 1189.42,516.997 1192,513.5C 1192.49,512.207 1192.66,510.873 1192.5,509.5C 1196.38,507.281 1198.71,503.948 1199.5,499.5C 1199.5,499.167 1199.5,498.833 1199.5,498.5C 1200.72,497.972 1201.89,497.305 1203,496.5C 1205.49,487.364 1211.33,484.198 1220.5,487C 1219.75,487.671 1219.41,488.504 1219.5,489.5 Z"/></g>
<g><path style="opacity:1" fill="#f3c7d2" d="M 1126.5,493.5 C 1126.89,491.716 1127.56,490.05 1128.5,488.5C 1128.5,488.167 1128.5,487.833 1128.5,487.5C 1129.4,486.791 1129.74,485.791 1129.5,484.5C 1124.38,483.897 1119.71,484.564 1115.5,486.5C 1114.5,487.167 1113.5,487.833 1112.5,488.5C 1112.7,486.956 1113.37,485.622 1114.5,484.5C 1120.13,483.505 1125.79,483.171 1131.5,483.5C 1131.53,487.773 1129.86,491.107 1126.5,493.5 Z"/></g>
<g><path style="opacity:1" fill="#db4d70" d="M 1128.5,487.5 C 1127.13,486.213 1125.3,485.547 1123,485.5C 1120.45,485.625 1117.95,485.958 1115.5,486.5C 1119.71,484.564 1124.38,483.897 1129.5,484.5C 1129.74,485.791 1129.4,486.791 1128.5,487.5 Z"/></g>
<g><path style="opacity:1" fill="#de5675" d="M 1128.5,488.5 C 1127.56,490.05 1126.89,491.716 1126.5,493.5C 1124.85,494.75 1123.18,496.084 1121.5,497.5C 1122.73,494.747 1124.23,492.08 1126,489.5C 1126.67,488.748 1127.5,488.414 1128.5,488.5 Z"/></g>
<g><path style="opacity:1" fill="#e47991" d="M 1115.5,486.5 C 1113.92,490.078 1111.92,493.411 1109.5,496.5C 1108.83,496.833 1108.17,497.167 1107.5,497.5C 1107.56,496.391 1107.89,495.391 1108.5,494.5C 1109.53,492.285 1110.87,490.285 1112.5,488.5C 1113.5,487.833 1114.5,487.167 1115.5,486.5 Z"/></g>
<g><path style="opacity:1" fill="#ed99ab" d="M 1219.5,491.5 C 1218.15,495.542 1215.82,498.875 1212.5,501.5C 1214.34,497.808 1216.68,494.475 1219.5,491.5 Z"/></g>
<g><path style="opacity:1" fill="#f0bdca" d="M 1108.5,494.5 C 1107.89,495.391 1107.56,496.391 1107.5,497.5C 1106.2,500.432 1104.2,502.766 1101.5,504.5C 1103.37,500.732 1105.7,497.398 1108.5,494.5 Z"/></g>
<g><path style="opacity:1" fill="#767676" d="M 1024.5,499.5 C 1026.75,500.08 1028.42,501.413 1029.5,503.5C 1027.02,503.226 1025.35,501.893 1024.5,499.5 Z"/></g>
<g><path style="opacity:1" fill="#de5470" d="M 1199.5,499.5 C 1198.71,503.948 1196.38,507.281 1192.5,509.5C 1193.85,505.458 1196.18,502.125 1199.5,499.5 Z"/></g>
<g><path style="opacity:1" fill="#d94262" d="M 1109.5,496.5 C 1108.25,499.067 1107.08,501.733 1106,504.5C 1103.51,506.809 1101.51,509.476 1100,512.5C 1098.89,513.305 1097.72,513.972 1096.5,514.5C 1098.17,511.167 1099.83,507.833 1101.5,504.5C 1104.2,502.766 1106.2,500.432 1107.5,497.5C 1108.17,497.167 1108.83,496.833 1109.5,496.5 Z"/></g>
<g><path style="opacity:1" fill="#525252" d="M 875.5,503.5 C 875.489,505.017 874.823,506.184 873.5,507C 871.004,508.666 868.671,510.5 866.5,512.5C 868.478,508.522 871.478,505.522 875.5,503.5 Z"/></g>
<g><path style="opacity:1" fill="#7e7e7e" d="M 1032.5,507.5 C 1035.71,507.712 1037.71,509.379 1038.5,512.5C 1036.52,510.856 1034.52,509.19 1032.5,507.5 Z"/></g>
<g><path style="opacity:1" fill="#f3c7d1" d="M 1120.5,501.5 C 1120.55,504.967 1119.05,507.634 1116,509.5C 1115.67,510.833 1115.33,512.167 1115,513.5C 1111.52,516.977 1108.85,520.977 1107,525.5C 1104.66,527.4 1102.5,529.4 1100.5,531.5C 1101.24,529.02 1102.24,526.687 1103.5,524.5C 1106.64,521.54 1109.31,518.207 1111.5,514.5C 1114.15,509.865 1117.15,505.532 1120.5,501.5 Z"/></g>
<g><path style="opacity:1" fill="#5d9cef" d="M 1624.5,513.5 C 1616.32,513.174 1608.32,513.508 1600.5,514.5C 1599.96,514.44 1599.62,514.107 1599.5,513.5C 1607.99,512.179 1616.32,512.179 1624.5,513.5 Z"/></g>
<g><path style="opacity:1" fill="#5e9cef" d="M 1644.5,513.5 C 1652.68,512.179 1661.01,512.179 1669.5,513.5C 1669.38,514.107 1669.04,514.44 1668.5,514.5C 1660.68,513.508 1652.68,513.174 1644.5,513.5 Z"/></g>
<g><path style="opacity:1" fill="#2177e9" d="M 1624.5,513.5 C 1627.82,518.805 1631.16,524.139 1634.5,529.5C 1637.86,524.102 1641.19,518.769 1644.5,513.5C 1652.68,513.174 1660.68,513.508 1668.5,514.5C 1662.19,524.482 1655.86,534.482 1649.5,544.5C 1656.62,555.248 1663.62,566.082 1670.5,577C 1661.81,577.832 1653.15,577.665 1644.5,576.5C 1641.25,570.336 1637.75,564.336 1634,558.5C 1630.63,564.748 1627.13,570.915 1623.5,577C 1615.15,577.832 1606.81,577.665 1598.5,576.5C 1605.6,566.075 1612.27,555.409 1618.5,544.5C 1612.5,534.51 1606.5,524.51 1600.5,514.5C 1608.32,513.508 1616.32,513.174 1624.5,513.5 Z"/></g>
<g><path style="opacity:1" fill="#de5876" d="M 1111.5,514.5 C 1109.31,518.207 1106.64,521.54 1103.5,524.5C 1105.7,521.435 1107.37,518.101 1108.5,514.5C 1109.5,514.5 1110.5,514.5 1111.5,514.5 Z"/></g>
<g><path style="opacity:1" fill="#d94564" d="M 1192.5,509.5 C 1192.66,510.873 1192.49,512.207 1192,513.5C 1189.42,516.997 1187.08,520.664 1185,524.5C 1183.95,527.056 1182.11,528.723 1179.5,529.5C 1183.05,522.289 1187.39,515.622 1192.5,509.5 Z"/></g>
<g><path style="opacity:1" fill="#f2c4cf" d="M 1208.5,508.5 C 1208.26,513.256 1206.09,516.922 1202,519.5C 1201.33,521.5 1200.67,523.5 1200,525.5C 1194.61,532.559 1189.61,539.893 1185,547.5C 1183.89,548.305 1182.72,548.972 1181.5,549.5C 1187.39,539.389 1193.56,529.389 1200,519.5C 1202.39,515.458 1205.23,511.791 1208.5,508.5 Z"/></g>
<g><path style="opacity:1" fill="#606060" d="M 1055.5,531.5 C 1058.9,533.9 1061.57,536.9 1063.5,540.5C 1060.1,538.1 1057.43,535.1 1055.5,531.5 Z"/></g>
<g><path style="opacity:1" fill="#e26f8a" d="M 1085.5,531.5 C 1084.07,533.558 1083.4,535.892 1083.5,538.5C 1082.83,538.167 1082.17,537.833 1081.5,537.5C 1081.62,534.708 1082.96,532.708 1085.5,531.5 Z"/></g>
<g><path style="opacity:1" fill="#f2c3ce" d="M 1100.5,531.5 C 1099.84,536.825 1097.17,540.825 1092.5,543.5C 1094.67,539.148 1097.34,535.148 1100.5,531.5 Z"/></g>
<g><path style="opacity:1" fill="#f2bac8" d="M 1081.5,537.5 C 1082.17,537.833 1082.83,538.167 1083.5,538.5C 1085.48,542.559 1088.48,544.226 1092.5,543.5C 1092.28,546.076 1090.94,546.91 1088.5,546C 1085.2,543.88 1082.87,541.046 1081.5,537.5 Z"/></g>
<g><path style="opacity:1" fill="#818181" d="M 1071.5,550.5 C 1073.82,551.802 1075.16,553.802 1075.5,556.5C 1073.63,554.966 1072.3,552.966 1071.5,550.5 Z"/></g>
<g><path style="opacity:1" fill="#606060" d="M 833.5,551.5 C 832.92,553.749 831.587,555.415 829.5,556.5C 830.08,554.251 831.413,552.585 833.5,551.5 Z"/></g>
<g><path style="opacity:1" fill="#e689a0" d="M 1162.5,554.5 C 1160.83,557.213 1159.16,559.88 1157.5,562.5C 1157.7,558.87 1159.37,556.203 1162.5,554.5 Z"/></g>
<g><path style="opacity:1" fill="#5d5d5d" d="M 1075.5,556.5 C 1077.59,557.585 1078.92,559.251 1079.5,561.5C 1077,560.871 1075.67,559.204 1075.5,556.5 Z"/></g>
<g><path style="opacity:1" fill="#efbac6" d="M 1156.5,562.5 C 1154.88,566.391 1152.55,569.724 1149.5,572.5C 1150.84,570.303 1152.01,567.97 1153,565.5C 1153.76,563.937 1154.93,562.937 1156.5,562.5 Z"/></g>
<g><path style="opacity:1" fill="#f1c0cb" d="M 1177.5,556.5 C 1177.43,560.181 1175.76,562.514 1172.5,563.5C 1171.69,566.989 1169.69,569.656 1166.5,571.5C 1169.01,565.652 1172.68,560.652 1177.5,556.5 Z"/></g>
<g><path style="opacity:1" fill="#d83c5c" d="M 1156.5,562.5 C 1156.83,562.5 1157.17,562.5 1157.5,562.5C 1156.49,569.699 1152.99,575.365 1147,579.5C 1146.58,584.016 1144.41,587.35 1140.5,589.5C 1141.69,587.278 1142.69,584.945 1143.5,582.5C 1145.89,579.434 1147.89,576.1 1149.5,572.5C 1152.55,569.724 1154.88,566.391 1156.5,562.5 Z"/></g>
<g><path style="opacity:1" fill="#f4c7d0" d="M 1166.5,571.5 C 1165.56,579.057 1161.89,584.723 1155.5,588.5C 1158.78,582.559 1162.45,576.892 1166.5,571.5 Z"/></g>
<g><path style="opacity:1" fill="#f1b2bf" d="M 1143.5,582.5 C 1142.69,584.945 1141.69,587.278 1140.5,589.5C 1139.17,590.5 1137.83,591.5 1136.5,592.5C 1137.38,588.039 1139.72,584.705 1143.5,582.5 Z"/></g>
<g><path style="opacity:1" fill="#e3708b" d="M 1230.5,608.5 C 1230.67,602.158 1230.5,595.825 1230,589.5C 1229.29,590.381 1228.46,591.047 1227.5,591.5C 1227.83,588.419 1229.33,586.086 1232,584.5C 1232.67,591.833 1232.67,599.167 1232,606.5C 1231.72,607.416 1231.22,608.082 1230.5,608.5 Z"/></g>
<g><path style="opacity:1" fill="#cf143c" d="M 1230.5,608.5 C 1230.17,609.833 1229.83,611.167 1229.5,612.5C 1226.5,617.12 1223.5,621.786 1220.5,626.5C 1218.67,628.147 1217.34,630.147 1216.5,632.5C 1213.5,637.12 1210.5,641.786 1207.5,646.5C 1204.44,650.57 1201.77,654.903 1199.5,659.5C 1197.75,660.659 1196.75,662.326 1196.5,664.5C 1192.43,668.976 1189.09,673.976 1186.5,679.5C 1183.83,683.167 1181.17,686.833 1178.5,690.5C 1175.54,693.317 1173.04,696.651 1171,700.5C 1170.62,699.944 1170.12,699.611 1169.5,699.5C 1168.77,698.292 1168.43,696.959 1168.5,695.5C 1167.17,691.797 1167.34,688.13 1169,684.5C 1173.62,680.921 1176.46,676.254 1177.5,670.5C 1179.16,667.88 1180.83,665.213 1182.5,662.5C 1182.5,661.833 1182.5,661.167 1182.5,660.5C 1184.59,659.415 1185.92,657.749 1186.5,655.5C 1189.61,653.766 1191.27,651.1 1191.5,647.5C 1192.17,646.167 1192.83,644.833 1193.5,643.5C 1194.17,643.167 1194.83,642.833 1195.5,642.5C 1200.52,636.967 1205.02,630.967 1209,624.5C 1210.92,621.765 1212.08,618.765 1212.5,615.5C 1213.84,614.685 1214.84,613.518 1215.5,612C 1216.45,611.517 1217.45,611.351 1218.5,611.5C 1219.68,608.619 1220.68,605.619 1221.5,602.5C 1221.5,601.833 1221.5,601.167 1221.5,600.5C 1223.16,597.912 1224.82,595.245 1226.5,592.5C 1226.5,591.833 1226.83,591.5 1227.5,591.5C 1228.46,591.047 1229.29,590.381 1230,589.5C 1230.5,595.825 1230.67,602.158 1230.5,608.5 Z"/></g>
<g><path style="opacity:1" fill="#5c5c5c" d="M 807.5,590.5 C 807.316,593.337 805.982,595.337 803.5,596.5C 804.475,594.205 805.808,592.205 807.5,590.5 Z"/></g>
<g><path style="opacity:1" fill="#efa9b8" d="M 1226.5,592.5 C 1224.82,595.245 1223.16,597.912 1221.5,600.5C 1221.71,596.792 1223.38,594.126 1226.5,592.5 Z"/></g>
<g><path style="opacity:1" fill="#f7cad1" d="M 1155.5,588.5 C 1154.56,591.803 1153.56,595.136 1152.5,598.5C 1151.45,598.351 1150.45,598.517 1149.5,599C 1149.03,600.729 1148.03,601.895 1146.5,602.5C 1148.72,597.291 1151.72,592.624 1155.5,588.5 Z"/></g>
<g><path style="opacity:1" fill="#eea3b2" d="M 1136.5,594.5 C 1134.79,598.572 1132.13,601.905 1128.5,604.5C 1129.71,600.018 1132.38,596.685 1136.5,594.5 Z"/></g>
<g><path style="opacity:1" fill="#eca9b9" d="M 1221.5,600.5 C 1221.5,601.167 1221.5,601.833 1221.5,602.5C 1220.17,603.5 1218.83,604.5 1217.5,605.5C 1218.08,603.251 1219.41,601.585 1221.5,600.5 Z"/></g>
<g><path style="opacity:1" fill="#646464" d="M 1105.5,602.5 C 1107.34,604.849 1108.67,607.515 1109.5,610.5C 1106.63,608.751 1105.29,606.085 1105.5,602.5 Z"/></g>
<g><path style="opacity:1" fill="#f1b9c5" d="M 1146.5,602.5 C 1145.8,606.239 1143.8,609.239 1140.5,611.5C 1141.58,607.877 1143.58,604.877 1146.5,602.5 Z"/></g>
<g><path style="opacity:1" fill="#d94462" d="M 1221.5,602.5 C 1220.68,605.619 1219.68,608.619 1218.5,611.5C 1217.45,611.351 1216.45,611.517 1215.5,612C 1214.84,613.518 1213.84,614.685 1212.5,615.5C 1214.17,612.167 1215.83,608.833 1217.5,605.5C 1218.83,604.5 1220.17,603.5 1221.5,602.5 Z"/></g>
<g><path style="opacity:1" fill="#404040" d="M 796.5,609.5 C 796.432,613.544 794.766,616.544 791.5,618.5C 792.933,615.294 794.6,612.294 796.5,609.5 Z"/></g>
<g><path style="opacity:1" fill="#969696" d="M 804.5,609.5 C 803.73,612.496 802.396,615.163 800.5,617.5C 800.896,614.279 802.229,611.612 804.5,609.5 Z"/></g>
<g><path style="opacity:1" fill="#f3c3cd" d="M 1229.5,612.5 C 1229.68,616.847 1227.85,620.181 1224,622.5C 1223.94,624.91 1222.78,626.244 1220.5,626.5C 1223.5,621.786 1226.5,617.12 1229.5,612.5 Z"/></g>
<g><path style="opacity:1" fill="#f5ccd7" d="M 1140.5,611.5 C 1139.71,615.778 1137.54,619.112 1134,621.5C 1130.96,619.852 1129.46,617.185 1129.5,613.5C 1130.86,615.827 1132.36,618.16 1134,620.5C 1136.08,617.334 1138.25,614.334 1140.5,611.5 Z"/></g>
<g><path style="opacity:1" fill="#db4b6a" d="M 1212.5,615.5 C 1212.08,618.765 1210.92,621.765 1209,624.5C 1205.02,630.967 1200.52,636.967 1195.5,642.5C 1196.78,638.986 1198.45,635.653 1200.5,632.5C 1204.27,626.624 1208.27,620.957 1212.5,615.5 Z"/></g>
<g><path style="opacity:1" fill="#414141" d="M 791.5,618.5 C 790.369,621.889 789.036,625.222 787.5,628.5C 787.043,629.298 786.376,629.631 785.5,629.5C 786.742,625.345 788.742,621.678 791.5,618.5 Z"/></g>
<g><path style="opacity:1" fill="#9d9d9d" d="M 791.5,634.5 C 791.245,636.967 790.245,638.967 788.5,640.5C 788.755,638.033 789.755,636.033 791.5,634.5 Z"/></g>
<g><path style="opacity:1" fill="#f2bcc8" d="M 1200.5,632.5 C 1198.45,635.653 1196.78,638.986 1195.5,642.5C 1194.83,642.833 1194.17,643.167 1193.5,643.5C 1194.44,640.731 1195.6,638.064 1197,635.5C 1197.76,633.937 1198.93,632.937 1200.5,632.5 Z"/></g>
<g><path style="opacity:1" fill="#434343" d="M 782.5,635.5 C 783.226,639.307 781.893,641.974 778.5,643.5C 779.326,640.515 780.659,637.849 782.5,635.5 Z"/></g>
<g><path style="opacity:1" fill="#f3c5d0" d="M 1216.5,632.5 C 1216.37,639.074 1213.37,643.741 1207.5,646.5C 1210.5,641.786 1213.5,637.12 1216.5,632.5 Z"/></g>
<g><path style="opacity:1" fill="#6c6c6c" d="M 776.5,647.5 C 776.657,648.873 776.49,650.207 776,651.5C 775.098,653.431 773.931,655.097 772.5,656.5C 773.083,653.053 774.416,650.053 776.5,647.5 Z"/></g>
<g><path style="opacity:1" fill="#f2cbd4" d="M 1207.5,646.5 C 1207.66,648.527 1207.5,650.527 1207,652.5C 1204.3,654.7 1201.8,657.033 1199.5,659.5C 1201.77,654.903 1204.44,650.57 1207.5,646.5 Z"/></g>
<g><path style="opacity:1" fill="#e68299" d="M 1191.5,647.5 C 1191.27,651.1 1189.61,653.766 1186.5,655.5C 1186.71,651.792 1188.38,649.126 1191.5,647.5 Z"/></g>
<g><path style="opacity:1" fill="#eea6b6" d="M 1186.5,655.5 C 1185.92,657.749 1184.59,659.415 1182.5,660.5C 1182.73,657.937 1184.06,656.27 1186.5,655.5 Z"/></g>
<g><path style="opacity:1" fill="#4b4b4b" d="M 1127.5,661.5 C 1131.4,665.3 1133.73,669.967 1134.5,675.5C 1131.11,671.388 1128.78,666.721 1127.5,661.5 Z"/></g>
<g><path style="opacity:1" fill="#f2becb" d="M 1196.5,664.5 C 1194.92,670.671 1191.58,675.671 1186.5,679.5C 1189.09,673.976 1192.43,668.976 1196.5,664.5 Z"/></g>
<g><path style="opacity:1" fill="#eba2b3" d="M 1182.5,662.5 C 1180.83,665.213 1179.16,667.88 1177.5,670.5C 1176.17,671.833 1174.83,673.167 1173.5,674.5C 1175.35,669.646 1178.35,665.646 1182.5,662.5 Z"/></g>
<g><path style="opacity:1" fill="#da4967" d="M 1177.5,670.5 C 1176.46,676.254 1173.62,680.921 1169,684.5C 1167.34,688.13 1167.17,691.797 1168.5,695.5C 1166.33,694.339 1164.99,692.505 1164.5,690C 1167.64,684.876 1170.64,679.71 1173.5,674.5C 1174.83,673.167 1176.17,671.833 1177.5,670.5 Z"/></g>
<g><path style="opacity:1" fill="#585858" d="M 764.5,673.5 C 764.657,674.873 764.49,676.207 764,677.5C 763.098,679.431 761.931,681.097 760.5,682.5C 761.083,679.053 762.416,676.053 764.5,673.5 Z"/></g>
<g><path style="opacity:1" fill="#a9a9a9" d="M 1136.5,681.5 C 1138.68,684.52 1140.34,687.853 1141.5,691.5C 1141.5,691.833 1141.5,692.167 1141.5,692.5C 1138.56,689.514 1136.89,685.847 1136.5,681.5 Z"/></g>
<g><path style="opacity:1" fill="#585858" d="M 759.5,685.5 C 758.528,691.794 755.861,697.127 751.5,701.5C 754.186,696.128 756.853,690.795 759.5,685.5 Z"/></g>
<g><path style="opacity:1" fill="#de5c78" d="M 1178.5,690.5 C 1177.01,695.148 1174.51,699.148 1171,702.5C 1169.96,701.756 1169.46,700.756 1169.5,699.5C 1170.12,699.611 1170.62,699.944 1171,700.5C 1173.04,696.651 1175.54,693.317 1178.5,690.5 Z"/></g>
<g><path style="opacity:1" fill="#505050" d="M 1141.5,691.5 C 1142.46,691.953 1143.29,692.619 1144,693.5C 1146.15,697.868 1147.65,702.535 1148.5,707.5C 1147.43,704.941 1145.93,702.608 1144,700.5C 1143.73,697.618 1142.89,694.951 1141.5,692.5C 1141.5,692.167 1141.5,691.833 1141.5,691.5 Z"/></g>
<g><path style="opacity:1" fill="#3c3c3c" d="M 1148.5,689.5 C 1150.93,697.029 1153.93,704.362 1157.5,711.5C 1151.8,705.42 1148.8,698.086 1148.5,689.5 Z"/></g>
<g><path style="opacity:1" fill="#828282" d="M 758.5,705.5 C 758.065,708.157 757.065,710.491 755.5,712.5C 755.552,709.654 756.552,707.32 758.5,705.5 Z"/></g>
<g><path style="opacity:1" fill="#424242" d="M 750.5,704.5 C 750.282,709.387 748.615,713.72 745.5,717.5C 746.36,712.793 748.027,708.459 750.5,704.5 Z"/></g>
<g><path style="opacity:1" fill="#e26d89" d="M 1230.5,730.5 C 1230.67,723.825 1230.5,717.158 1230,710.5C 1228.76,712.859 1227.26,714.859 1225.5,716.5C 1226.9,712.712 1229.07,709.379 1232,706.5C 1232.67,713.833 1232.67,721.167 1232,728.5C 1231.72,729.416 1231.22,730.082 1230.5,730.5 Z"/></g>
<g><path style="opacity:1" fill="#d11e41" d="M 1230.5,730.5 C 1230.17,731.833 1229.83,733.167 1229.5,734.5C 1222.35,743.981 1216.02,753.981 1210.5,764.5C 1209.09,764.973 1208.43,765.973 1208.5,767.5C 1206.14,769.713 1204.31,772.379 1203,775.5C 1201.99,776.337 1200.82,776.67 1199.5,776.5C 1199.87,772.353 1198.87,768.686 1196.5,765.5C 1196.34,763.801 1196.51,762.134 1197,760.5C 1199.49,757.858 1201.32,754.858 1202.5,751.5C 1202.83,751.5 1203.17,751.5 1203.5,751.5C 1205.46,749.037 1207.63,746.703 1210,744.5C 1210.49,743.207 1210.66,741.873 1210.5,740.5C 1211.04,738.407 1211.88,736.407 1213,734.5C 1217.27,728.436 1221.43,722.436 1225.5,716.5C 1227.26,714.859 1228.76,712.859 1230,710.5C 1230.5,717.158 1230.67,723.825 1230.5,730.5 Z"/></g>
<g><path style="opacity:1" fill="#676767" d="M 741.5,728.5 C 740.892,731.406 739.559,733.74 737.5,735.5C 738.108,732.594 739.441,730.26 741.5,728.5 Z"/></g>
<g><path style="opacity:1" fill="#474747" d="M 1157.5,730.5 C 1161.01,732.425 1162.34,735.425 1161.5,739.5C 1159.93,736.686 1158.6,733.686 1157.5,730.5 Z"/></g>
<g><path style="opacity:1" fill="#5a5a5a" d="M 1167.5,736.5 C 1169.18,739.577 1170.52,742.91 1171.5,746.5C 1168.82,743.784 1167.49,740.45 1167.5,736.5 Z"/></g>
<g><path style="opacity:1" fill="#404040" d="M 737.5,736.5 C 737.067,739.166 736.567,741.832 736,744.5C 735.292,745.381 734.458,746.047 733.5,746.5C 734.267,742.851 735.6,739.518 737.5,736.5 Z"/></g>
<g><path style="opacity:1" fill="#575757" d="M 1161.5,739.5 C 1163.24,741.395 1164.24,743.728 1164.5,746.5C 1162.76,744.605 1161.76,742.272 1161.5,739.5 Z"/></g>
<g><path style="opacity:1" fill="#e26580" d="M 1210.5,740.5 C 1210.66,741.873 1210.49,743.207 1210,744.5C 1207.63,746.703 1205.46,749.037 1203.5,751.5C 1205.09,747.317 1207.42,743.65 1210.5,740.5 Z"/></g>
<g><path style="opacity:1" fill="#f2c2cd" d="M 1229.5,734.5 C 1229.66,736.199 1229.49,737.866 1229,739.5C 1226.32,741.527 1224.65,744.193 1224,747.5C 1219.61,753.376 1215.11,759.043 1210.5,764.5C 1216.02,753.981 1222.35,743.981 1229.5,734.5 Z"/></g>
<g><path style="opacity:1" fill="#757575" d="M 1165.5,750.5 C 1168.18,753.216 1169.51,756.55 1169.5,760.5C 1167.6,757.482 1166.27,754.149 1165.5,750.5 Z"/></g>
<g><path style="opacity:1" fill="#484848" d="M 733.5,746.5 C 733.482,750.829 732.149,754.496 729.5,757.5C 730.089,753.421 731.422,749.754 733.5,746.5 Z"/></g>
<g><path style="opacity:1" fill="#efb9c6" d="M 1202.5,751.5 C 1201.32,754.858 1199.49,757.858 1197,760.5C 1196.51,762.134 1196.34,763.801 1196.5,765.5C 1195.38,763.712 1195.21,761.712 1196,759.5C 1198.09,756.595 1200.26,753.928 1202.5,751.5 Z"/></g>
<g><path style="opacity:1" fill="#4a4a4a" d="M 1174.5,755.5 C 1176.66,759.162 1178.32,763.162 1179.5,767.5C 1176.36,764.212 1174.69,760.212 1174.5,755.5 Z"/></g>
<g><path style="opacity:1" fill="#454545" d="M 727.5,762.5 C 728.016,766.747 726.683,770.08 723.5,772.5C 724.658,769.011 725.991,765.678 727.5,762.5 Z"/></g>
<g><path style="opacity:1" fill="#f1c0cb" d="M 1208.5,767.5 C 1206.64,770.551 1205.47,773.885 1205,777.5C 1203.74,779.607 1201.9,780.607 1199.5,780.5C 1199.5,779.167 1199.5,777.833 1199.5,776.5C 1200.82,776.67 1201.99,776.337 1203,775.5C 1204.31,772.379 1206.14,769.713 1208.5,767.5 Z"/></g>
<g><path style="opacity:1" fill="#5a5a5a" d="M 729.5,776.5 C 729.741,778.898 729.074,780.898 727.5,782.5C 727.054,779.99 727.72,777.99 729.5,776.5 Z"/></g>
<g><path style="opacity:1" fill="#737373" d="M 1177.5,782.5 C 1178.12,782.611 1178.62,782.944 1179,783.5C 1180.44,787.041 1181.27,790.708 1181.5,794.5C 1179.59,790.785 1178.26,786.785 1177.5,782.5 Z"/></g>
<g><path style="opacity:1" fill="#777777" d="M 727.5,784.5 C 727.34,786.153 726.674,787.486 725.5,788.5C 725.229,786.62 725.896,785.287 727.5,784.5 Z"/></g>
<g><path style="opacity:1" fill="#787878" d="M 725.5,789.5 C 725.204,791.403 724.537,793.07 723.5,794.5C 723.12,792.302 723.787,790.635 725.5,789.5 Z"/></g>
<g><path style="opacity:1" fill="#b3b3b3" d="M 1181.5,794.5 C 1184.21,797.6 1185.54,801.267 1185.5,805.5C 1183.36,802.2 1182.02,798.533 1181.5,794.5 Z"/></g>
<g><path style="opacity:1" fill="#595959" d="M 1190.5,798.5 C 1191.12,798.611 1191.62,798.944 1192,799.5C 1192.66,802.946 1193.49,806.279 1194.5,809.5C 1193.88,809.389 1193.38,809.056 1193,808.5C 1191.97,805.198 1191.14,801.865 1190.5,798.5 Z"/></g>
<g><path style="opacity:1" fill="#5d5d5d" d="M 1186.5,805.5 C 1188.07,807.102 1188.74,809.102 1188.5,811.5C 1186.93,809.898 1186.26,807.898 1186.5,805.5 Z"/></g>
<g><path style="opacity:1" fill="#686868" d="M 717.5,811.5 C 717.405,813.786 716.738,815.786 715.5,817.5C 715.054,814.99 715.72,812.99 717.5,811.5 Z"/></g>
<g><path style="opacity:1" fill="#818181" d="M 710.5,807.5 C 710.663,809.857 710.497,812.19 710,814.5C 709.617,815.056 709.117,815.389 708.5,815.5C 708.963,812.67 709.629,810.003 710.5,807.5 Z"/></g>
<g><path style="opacity:1" fill="#9e9e9e" d="M 715.5,817.5 C 715.741,819.898 715.074,821.898 713.5,823.5C 713.259,821.102 713.926,819.102 715.5,817.5 Z"/></g>
<g><path style="opacity:1" fill="#626262" d="M 1199.5,822.5 C 1201.41,826.216 1202.74,830.216 1203.5,834.5C 1200.95,831.004 1199.62,827.004 1199.5,822.5 Z"/></g>
<g><path style="opacity:1" fill="#7a7a7a" d="M 702.5,831.5 C 702.868,835.044 701.868,838.044 699.5,840.5C 699.928,837.215 700.928,834.215 702.5,831.5 Z"/></g>
<g><path style="opacity:1" fill="#e3738d" d="M 1228.5,833.5 C 1229.5,833.5 1230.5,833.5 1231.5,833.5C 1231.83,841.352 1231.49,849.018 1230.5,856.5C 1230.67,849.825 1230.5,843.158 1230,836.5C 1228.58,838.398 1227.08,840.064 1225.5,841.5C 1226.55,838.807 1227.55,836.14 1228.5,833.5 Z"/></g>
<g><path style="opacity:1" fill="#d0173e" d="M 1230.5,856.5 C 1227.8,860.707 1225.3,865.04 1223,869.5C 1220.91,871.475 1219.08,873.475 1217.5,875.5C 1216.6,874.791 1216.26,873.791 1216.5,872.5C 1215.71,867.851 1215.54,863.184 1216,858.5C 1217.84,856.133 1219.01,853.467 1219.5,850.5C 1221.56,847.456 1223.56,844.456 1225.5,841.5C 1227.08,840.064 1228.58,838.398 1230,836.5C 1230.5,843.158 1230.67,849.825 1230.5,856.5 Z"/></g>
<g><path style="opacity:1" fill="#5b5b5b" d="M 1204.5,837.5 C 1206.2,840.939 1207.54,844.605 1208.5,848.5C 1205.34,845.617 1204.01,841.951 1204.5,837.5 Z"/></g>
<g><path style="opacity:1" fill="#4b4b4b" d="M 698.5,843.5 C 698.156,847.053 697.489,850.553 696.5,854C 696.164,855.03 695.497,855.53 694.5,855.5C 695.262,851.215 696.595,847.215 698.5,843.5 Z"/></g>
<g><path style="opacity:1" fill="#626262" d="M 1208.5,849.5 C 1209.92,851.515 1210.59,853.848 1210.5,856.5C 1209.08,854.485 1208.41,852.152 1208.5,849.5 Z"/></g>
<g><path style="opacity:1" fill="#e27991" d="M 1219.5,850.5 C 1219.01,853.467 1217.84,856.133 1216,858.5C 1215.54,863.184 1215.71,867.851 1216.5,872.5C 1216.17,872.5 1215.83,872.5 1215.5,872.5C 1215.33,870.139 1214.99,867.806 1214.5,865.5C 1213.58,859.489 1215.24,854.489 1219.5,850.5 Z"/></g>
<g><path style="opacity:1" fill="#efb6c3" d="M 1218.5,879.5 C 1218.17,879.5 1217.83,879.5 1217.5,879.5C 1217.5,878.167 1217.5,876.833 1217.5,875.5C 1219.08,873.475 1220.91,871.475 1223,869.5C 1225.3,865.04 1227.8,860.707 1230.5,856.5C 1231.49,849.018 1231.83,841.352 1231.5,833.5C 1230.5,833.5 1229.5,833.5 1228.5,833.5C 1229.21,831.866 1230.37,830.532 1232,829.5C 1232.67,838.833 1232.67,848.167 1232,857.5C 1227.71,865.113 1223.21,872.446 1218.5,879.5 Z"/></g>
<g><path style="opacity:1" fill="#8a8a8a" d="M 694.5,855.5 C 694.536,860.385 693.203,864.718 690.5,868.5C 691.463,863.951 692.796,859.617 694.5,855.5 Z"/></g>
<g><path style="opacity:1" fill="#595959" d="M 690.5,868.5 C 690.976,872.378 689.976,875.712 687.5,878.5C 687.975,874.916 688.975,871.583 690.5,868.5 Z"/></g>
<g><path style="opacity:1" fill="#632231" d="M 1215.5,872.5 C 1215.83,872.5 1216.17,872.5 1216.5,872.5C 1216.26,873.791 1216.6,874.791 1217.5,875.5C 1217.5,876.833 1217.5,878.167 1217.5,879.5C 1215.84,877.562 1215.17,875.228 1215.5,872.5 Z"/></g>
<g><path style="opacity:1" fill="#6f6f6f" d="M 685.5,887.5 C 685.245,889.967 684.245,891.967 682.5,893.5C 682.755,891.033 683.755,889.033 685.5,887.5 Z"/></g>
<g><path style="opacity:1" fill="#656565" d="M 682.5,894.5 C 682.59,897.152 681.924,899.485 680.5,901.5C 680.41,898.848 681.076,896.515 682.5,894.5 Z"/></g>
<g><path style="opacity:1" fill="#404040" d="M 1218.5,904.5 C 1219.46,904.953 1220.29,905.619 1221,906.5C 1222.86,912.369 1224.03,918.369 1224.5,924.5C 1223.02,917.685 1221.02,911.019 1218.5,904.5 Z"/></g>
<g><path style="opacity:1" fill="#808080" d="M 678.5,907.5 C 678.862,912.743 677.528,917.409 674.5,921.5C 675.231,916.562 676.565,911.895 678.5,907.5 Z"/></g>
<g><path style="opacity:1" fill="#737373" d="M 1233.5,927.5 C 1234.23,932.271 1235.56,936.938 1237.5,941.5C 1234.37,937.458 1233.04,932.791 1233.5,927.5 Z"/></g>
<g><path style="opacity:1" fill="#858585" d="M 669.5,934.5 C 669.664,937.187 669.497,939.854 669,942.5C 667.806,944.623 667.14,946.957 667,949.5C 666.148,950.571 665.315,951.571 664.5,952.5C 666.105,946.386 667.772,940.386 669.5,934.5 Z"/></g>
<g><path style="opacity:1" fill="#555555" d="M 1234.5,953.5 C 1235.93,957.654 1236.93,961.987 1237.5,966.5C 1236.85,964.502 1236.02,962.502 1235,960.5C 1234.5,958.19 1234.34,955.857 1234.5,953.5 Z"/></g>
<g><path style="opacity:1" fill="#999999" d="M 659.5,969.5 C 659.829,972.228 659.163,974.562 657.5,976.5C 657.721,973.933 658.388,971.599 659.5,969.5 Z"/></g>
<g><path style="opacity:1" fill="#6a6a6a" d="M 667.5,969.5 C 667.435,972.428 666.768,975.095 665.5,977.5C 665.337,975.143 665.503,972.81 666,970.5C 666.383,969.944 666.883,969.611 667.5,969.5 Z"/></g>
<g><path style="opacity:1" fill="#9a9a9a" d="M 665.5,977.5 C 665.59,980.152 664.924,982.485 663.5,984.5C 662.99,981.612 663.656,979.279 665.5,977.5 Z"/></g>
<g><path style="opacity:1" fill="#5f5f5f" d="M 1241.5,980.5 C 1243.34,982.279 1244.01,984.612 1243.5,987.5C 1242.08,985.485 1241.41,983.152 1241.5,980.5 Z"/></g>
<g><path style="opacity:1" fill="#5b5b5b" d="M 1248.5,980.5 C 1249.92,982.515 1250.59,984.848 1250.5,987.5C 1249.08,985.485 1248.41,983.152 1248.5,980.5 Z"/></g>
<g><path style="opacity:1" fill="#3f3f3f" d="M 657.5,976.5 C 656.264,982.691 655.264,989.025 654.5,995.5C 654.36,997.03 653.693,998.03 652.5,998.5C 653.435,990.897 655.102,983.563 657.5,976.5 Z"/></g>
<g><path style="opacity:1" fill="#636363" d="M 659.5,998.5 C 659.073,1001.01 658.407,1003.34 657.5,1005.5C 657.338,1003.47 657.505,1001.47 658,999.5C 658.383,998.944 658.883,998.611 659.5,998.5 Z"/></g>
<g><path style="opacity:1" fill="#b3b3b3" d="M 1244.5,994.5 C 1246.9,999.171 1248.57,1004.17 1249.5,1009.5C 1246.22,1005.16 1244.55,1000.16 1244.5,994.5 Z"/></g>
<g><path style="opacity:1" fill="#4c4c4c" d="M 652.5,998.5 C 652.319,1002.72 650.986,1006.39 648.5,1009.5C 649.18,1005.41 650.514,1001.74 652.5,998.5 Z"/></g>
<g><path style="opacity:1" fill="#909090" d="M 657.5,1005.5 C 657.037,1008.33 656.371,1011 655.5,1013.5C 655.337,1011.14 655.503,1008.81 656,1006.5C 656.383,1005.94 656.883,1005.61 657.5,1005.5 Z"/></g>
<g><path style="opacity:1" fill="#676767" d="M 1249.5,1010.5 C 1251.34,1012.28 1252.01,1014.61 1251.5,1017.5C 1250.73,1015.29 1250.07,1012.95 1249.5,1010.5 Z"/></g>
<g><path style="opacity:1" fill="#6b6b6b" d="M 644.5,1025.5 C 644.662,1027.53 644.495,1029.53 644,1031.5C 643.617,1032.06 643.117,1032.39 642.5,1032.5C 642.41,1029.85 643.076,1027.51 644.5,1025.5 Z"/></g>
<g><path style="opacity:1" fill="#9d9d9d" d="M 650.5,1028.5 C 651.193,1032.79 650.193,1036.46 647.5,1039.5C 648.439,1035.72 649.439,1032.05 650.5,1028.5 Z"/></g>
<g><path style="opacity:1" fill="#848484" d="M 1257.5,1041.5 C 1259.31,1042.92 1259.97,1044.92 1259.5,1047.5C 1258.54,1045.7 1257.88,1043.7 1257.5,1041.5 Z"/></g>
<g><path style="opacity:1" fill="#a6a6a6" d="M 1270.5,1058.5 C 1272.28,1063.27 1273.61,1068.27 1274.5,1073.5C 1272.1,1068.9 1270.76,1063.9 1270.5,1058.5 Z"/></g>
<g><path style="opacity:1" fill="#888888" d="M 1267.5,1079.5 C 1269.16,1081.44 1269.83,1083.77 1269.5,1086.5C 1268.39,1084.4 1267.72,1082.07 1267.5,1079.5 Z"/></g>
<g><path style="opacity:1" fill="#4d4d4d" d="M 1280.5,1098.5 C 1282.53,1104.96 1284.2,1111.63 1285.5,1118.5C 1283.32,1114.84 1281.82,1110.84 1281,1106.5C 1280.5,1103.85 1280.34,1101.19 1280.5,1098.5 Z"/></g>
<g><path style="opacity:1" fill="#5e5e5e" d="M 622.5,1106.5 C 623.055,1110.01 622.388,1113.01 620.5,1115.5C 620.99,1112.34 621.656,1109.34 622.5,1106.5 Z"/></g>
<g><path style="opacity:1" fill="#aaaaaa" d="M 620.5,1115.5 C 620.848,1119.08 620.181,1122.42 618.5,1125.5C 618.167,1125.5 617.833,1125.5 617.5,1125.5C 618.007,1121.92 619.007,1118.58 620.5,1115.5 Z"/></g>
<g><path style="opacity:1" fill="#acacac" d="M 1277.5,1116.5 C 1279.95,1120.67 1280.95,1125.34 1280.5,1130.5C 1278.44,1126.2 1277.44,1121.53 1277.5,1116.5 Z"/></g>
<g><path style="opacity:1" fill="#6d6d6d" d="M 626.5,1123.5 C 626.59,1126.15 625.924,1128.49 624.5,1130.5C 624.171,1127.77 624.837,1125.44 626.5,1123.5 Z"/></g>
<g><path style="opacity:1" fill="#414141" d="M 617.5,1125.5 C 617.833,1125.5 618.167,1125.5 618.5,1125.5C 618.663,1127.86 618.497,1130.19 618,1132.5C 617.257,1135.19 616.09,1137.53 614.5,1139.5C 615.71,1134.87 616.71,1130.21 617.5,1125.5 Z"/></g>
<g><path style="opacity:1" fill="#5d5d5d" d="M 1282.5,1135.5 C 1283.12,1135.61 1283.62,1135.94 1284,1136.5C 1284.5,1138.81 1284.66,1141.14 1284.5,1143.5C 1283.63,1141 1282.96,1138.33 1282.5,1135.5 Z"/></g>
<g><path style="opacity:1" fill="#757575" d="M 620.5,1146.5 C 619.99,1149.98 619.323,1153.32 618.5,1156.5C 618.335,1153.48 618.502,1150.48 619,1147.5C 619.383,1146.94 619.883,1146.61 620.5,1146.5 Z"/></g>
<g><path style="opacity:1" fill="#a6a6a6" d="M 1287.5,1155.5 C 1288.34,1160.16 1289.34,1164.82 1290.5,1169.5C 1287.91,1165.36 1286.91,1160.69 1287.5,1155.5 Z"/></g>
<g><path style="opacity:1" fill="#6c6c6c" d="M 1290.5,1169.5 C 1291.12,1169.61 1291.62,1169.94 1292,1170.5C 1292.5,1172.81 1292.66,1175.14 1292.5,1177.5C 1291.63,1175 1290.96,1172.33 1290.5,1169.5 Z"/></g>
<g><path style="opacity:1" fill="#828282" d="M 614.5,1172.5 C 613.922,1175.28 613.255,1177.95 612.5,1180.5C 611.964,1177.3 612.631,1174.64 614.5,1172.5 Z"/></g>
<g><path style="opacity:1" fill="#a5a5a5" d="M 611.5,1182.5 C 612.161,1187.36 611.161,1191.69 608.5,1195.5C 609.598,1191.09 610.598,1186.76 611.5,1182.5 Z"/></g>
<g><path style="opacity:1" fill="#939393" d="M 1298.5,1203.5 C 1299.12,1203.61 1299.62,1203.94 1300,1204.5C 1300.5,1206.81 1300.66,1209.14 1300.5,1211.5C 1299.23,1209.09 1298.57,1206.43 1298.5,1203.5 Z"/></g>
<g><path style="opacity:1" fill="#797979" d="M 1302.5,1220.5 C 1303.12,1220.61 1303.62,1220.94 1304,1221.5C 1304.5,1223.81 1304.66,1226.14 1304.5,1228.5C 1303.23,1226.09 1302.57,1223.43 1302.5,1220.5 Z"/></g>
<g><path style="opacity:1" fill="#767676" d="M 593.5,1228.5 C 593.663,1230.86 593.497,1233.19 593,1235.5C 592.617,1236.06 592.117,1236.39 591.5,1236.5C 591.963,1233.67 592.629,1231 593.5,1228.5 Z"/></g>
<g><path style="opacity:1" fill="#6b6b6b" d="M 1315.5,1242.5 C 1316.93,1248 1317.93,1253.67 1318.5,1259.5C 1317.89,1256.83 1317.06,1254.17 1316,1251.5C 1315.5,1248.52 1315.34,1245.52 1315.5,1242.5 Z"/></g>
<g><path style="opacity:1" fill="#6d6d6d" d="M 589.5,1247.5 C 589.662,1249.53 589.495,1251.53 589,1253.5C 588.617,1254.06 588.117,1254.39 587.5,1254.5C 587.927,1251.99 588.593,1249.66 589.5,1247.5 Z"/></g>
<g><path style="opacity:1" fill="#818181" d="M 585.5,1261.5 C 585.665,1264.85 585.498,1268.18 585,1271.5C 584.617,1272.06 584.117,1272.39 583.5,1272.5C 584.026,1268.69 584.693,1265.02 585.5,1261.5 Z"/></g>
<g><path style="opacity:1" fill="#4a4a4a" d="M 1319.5,1260.5 C 1320.67,1266.52 1322.17,1272.52 1324,1278.5C 1324.5,1281.48 1324.66,1284.48 1324.5,1287.5C 1323.35,1281.81 1321.85,1276.14 1320,1270.5C 1319.5,1267.18 1319.33,1263.85 1319.5,1260.5 Z"/></g>
<g><path style="opacity:1" fill="#636363" d="M 1311.5,1258.5 C 1312.22,1258.92 1312.72,1259.58 1313,1260.5C 1313.43,1265.67 1314.27,1270.67 1315.5,1275.5C 1313.07,1270.28 1311.74,1264.61 1311.5,1258.5 Z"/></g>
<g><path style="opacity:1" fill="#464646" d="M 590.5,1272.5 C 589.417,1277.53 588.417,1282.53 587.5,1287.5C 586.983,1282.01 587.983,1277.01 590.5,1272.5 Z"/></g>
<g><path style="opacity:1" fill="#767676" d="M 582.5,1277.5 C 582.015,1284.86 580.681,1291.86 578.5,1298.5C 579.492,1291.94 580.325,1285.27 581,1278.5C 581.383,1277.94 581.883,1277.61 582.5,1277.5 Z"/></g>
<g><path style="opacity:1" fill="#696969" d="M 1316.5,1277.5 C 1317.28,1282.5 1318.28,1287.5 1319.5,1292.5C 1316.87,1288.02 1315.87,1283.02 1316.5,1277.5 Z"/></g>
<g><path style="opacity:1" fill="#636363" d="M 1319.5,1293.5 C 1320.12,1293.61 1320.62,1293.94 1321,1294.5C 1321.5,1297.82 1321.67,1301.15 1321.5,1304.5C 1320.69,1300.98 1320.03,1297.31 1319.5,1293.5 Z"/></g>
<g><path style="opacity:1" fill="#6a6a6a" d="M 583.5,1306.5 C 583.324,1309.73 582.657,1312.73 581.5,1315.5C 581.336,1312.81 581.503,1310.15 582,1307.5C 582.383,1306.94 582.883,1306.61 583.5,1306.5 Z"/></g>
<g><path style="opacity:1" fill="#5a5a5a" d="M 574.5,1316.5 C 574.01,1319.66 573.344,1322.66 572.5,1325.5C 571.945,1321.99 572.612,1318.99 574.5,1316.5 Z"/></g>
<g><path style="opacity:1" fill="#7e7e7e" d="M 581.5,1315.5 C 581.324,1318.73 580.657,1321.73 579.5,1324.5C 578.945,1320.99 579.612,1317.99 581.5,1315.5 Z"/></g>
<g><path style="opacity:1" fill="#a3a3a3" d="M 1322.5,1308.5 C 1323.41,1310.02 1324.24,1311.69 1325,1313.5C 1325.65,1320.94 1326.82,1328.27 1328.5,1335.5C 1327.88,1335.39 1327.38,1335.06 1327,1334.5C 1325.3,1325.87 1323.8,1317.21 1322.5,1308.5 Z"/></g>
<g><path style="opacity:1" fill="#8a8a8a" d="M 575.5,1344.5 C 575.324,1347.73 574.657,1350.73 573.5,1353.5C 573.068,1350.12 573.735,1347.12 575.5,1344.5 Z"/></g>
<g><path style="opacity:1" fill="#9d9d9d" d="M 573.5,1353.5 C 573.324,1356.73 572.657,1359.73 571.5,1362.5C 571.068,1359.12 571.735,1356.12 573.5,1353.5 Z"/></g>
<g><path style="opacity:1" fill="#a6a6a6" d="M 1329.5,1343.5 C 1331.31,1345.39 1332.48,1347.72 1333,1350.5C 1333.5,1354.49 1333.67,1358.49 1333.5,1362.5C 1333,1356.11 1331.66,1349.78 1329.5,1343.5 Z"/></g>
<g><path style="opacity:1" fill="#9b9b9b" d="M 560.5,1378.5 C 560.662,1380.53 560.495,1382.53 560,1384.5C 559.617,1385.06 559.117,1385.39 558.5,1385.5C 558.927,1382.99 559.593,1380.66 560.5,1378.5 Z"/></g>
<g><path style="opacity:1" fill="#9e9e9e" d="M 556.5,1396.5 C 556.663,1398.86 556.497,1401.19 556,1403.5C 555.617,1404.06 555.117,1404.39 554.5,1404.5C 554.963,1401.67 555.629,1399 556.5,1396.5 Z"/></g>
<g><path style="opacity:1" fill="#7a7a7a" d="M 1348.5,1395.5 C 1349.32,1398.68 1349.99,1402.02 1350.5,1405.5C 1349.88,1405.39 1349.38,1405.06 1349,1404.5C 1348.5,1401.52 1348.34,1398.52 1348.5,1395.5 Z"/></g>
<g><path style="opacity:1" fill="#606060" d="M 1347.5,1425.5 C 1348.46,1425.95 1349.29,1426.62 1350,1427.5C 1350.5,1432.15 1350.67,1436.82 1350.5,1441.5C 1349.65,1436.18 1348.65,1430.85 1347.5,1425.5 Z"/></g>
<g><path style="opacity:1" fill="#737373" d="M 548.5,1436.5 C 548.664,1439.19 548.497,1441.85 548,1444.5C 547.617,1445.06 547.117,1445.39 546.5,1445.5C 546.99,1442.34 547.656,1439.34 548.5,1436.5 Z"/></g>
<g><path style="opacity:1" fill="#565656" d="M 1351.5,1441.5 C 1353.41,1447.2 1354.41,1453.2 1354.5,1459.5C 1352.93,1457.19 1352.1,1454.52 1352,1451.5C 1351.5,1448.18 1351.33,1444.85 1351.5,1441.5 Z"/></g>
<g><path style="opacity:1" fill="#7d7d7d" d="M 546.5,1445.5 C 547.036,1448.7 546.369,1451.36 544.5,1453.5C 545.078,1450.72 545.745,1448.05 546.5,1445.5 Z"/></g>
<g><path style="opacity:1" fill="#a0a0a0" d="M 1358.5,1445.5 C 1360.11,1449.37 1361.11,1453.54 1361.5,1458C 1361.16,1459.03 1360.5,1459.53 1359.5,1459.5C 1359.61,1458.88 1359.94,1458.38 1360.5,1458C 1358.78,1454.04 1358.11,1449.88 1358.5,1445.5 Z"/></g>
</svg>
