<?xml version="1.0" encoding="UTF-8"?>
<!DOCTYPE svg PUBLIC "-//W3C//DTD SVG 1.1//EN" "http://www.w3.org/Graphics/SVG/1.1/DTD/svg11.dtd">
<svg xmlns="http://www.w3.org/2000/svg" version="1.1" width="2000px" height="1500px" style="shape-rendering:geometricPrecision; text-rendering:geometricPrecision; image-rendering:optimizeQuality; fill-rule:evenodd; clip-rule:evenodd" xmlns:xlink="http://www.w3.org/1999/xlink">
<g><path style="opacity:1" fill="#fefefe" d="M -0.5,-0.5 C 666.167,-0.5 1332.83,-0.5 1999.5,-0.5C 1999.5,499.5 1999.5,999.5 1999.5,1499.5C 1332.83,1499.5 666.167,1499.5 -0.5,1499.5C -0.5,999.5 -0.5,499.5 -0.5,-0.5 Z"/></g>
<g><path style="opacity:1" fill="#070707" d="M 1873.5,114.5 C 1874.19,119.107 1874.19,123.774 1873.5,128.5C 1873.17,128.5 1872.83,128.5 1872.5,128.5C 1870.79,132.635 1869.46,136.968 1868.5,141.5C 1867.31,144.451 1866.31,147.451 1865.5,150.5C 1863.54,153.178 1861.88,156.178 1860.5,159.5C 1857.15,167.189 1853.81,174.856 1850.5,182.5C 1848.05,185.737 1846.38,189.403 1845.5,193.5C 1845.5,194.167 1845.17,194.5 1844.5,194.5C 1841.94,198.158 1839.94,202.158 1838.5,206.5C 1837.21,211.748 1834.88,216.414 1831.5,220.5C 1826.8,229.586 1822.46,238.919 1818.5,248.5C 1812.54,261.412 1806.2,274.079 1799.5,286.5C 1796.44,289.925 1794.11,293.925 1792.5,298.5C 1791.19,301.78 1789.53,304.78 1787.5,307.5C 1784.1,311.369 1781.43,315.703 1779.5,320.5C 1778.11,325.349 1775.77,329.682 1772.5,333.5C 1768.79,338.896 1765.45,344.562 1762.5,350.5C 1762.57,352.027 1761.91,353.027 1760.5,353.5C 1756.9,358.574 1753.56,363.908 1750.5,369.5C 1748.05,371.629 1746.38,374.296 1745.5,377.5C 1744.19,380.135 1742.52,382.469 1740.5,384.5C 1738.45,386.55 1736.79,388.883 1735.5,391.5C 1735.5,391.833 1735.5,392.167 1735.5,392.5C 1732.74,393.948 1731.07,396.281 1730.5,399.5C 1727.74,400.948 1726.07,403.281 1725.5,406.5C 1721.45,410.224 1718.12,414.557 1715.5,419.5C 1712.74,420.948 1711.07,423.281 1710.5,426.5C 1707.24,428.336 1704.91,431.003 1703.5,434.5C 1695.83,441.5 1688.5,448.833 1681.5,456.5C 1679.15,457.34 1677.15,458.674 1675.5,460.5C 1675.5,460.833 1675.5,461.167 1675.5,461.5C 1671.98,462.759 1668.98,464.759 1666.5,467.5C 1663.53,469.988 1660.2,471.988 1656.5,473.5C 1653.22,474.807 1650.22,476.473 1647.5,478.5C 1640.59,482.023 1633.26,484.357 1625.5,485.5C 1611.53,486.429 1597.53,486.762 1583.5,486.5C 1579.48,485.962 1575.48,485.295 1571.5,484.5C 1568.32,482.991 1564.99,481.658 1561.5,480.5C 1557.43,479.949 1553.76,478.616 1550.5,476.5C 1549.74,475.609 1548.74,474.942 1547.5,474.5C 1546.17,671 1546.17,867.333 1547.5,1063.5C 1625.5,1063.67 1703.5,1063.5 1781.5,1063C 1777.4,1060.53 1773.57,1057.7 1770,1054.5C 1768.1,1045.07 1771.6,1042.24 1780.5,1046C 1789.33,1052.83 1798.17,1059.67 1807,1066.5C 1808.18,1070.27 1807.35,1073.44 1804.5,1076C 1796.5,1082 1788.5,1088 1780.5,1094C 1773.01,1097.65 1769.17,1095.48 1769,1087.5C 1772.53,1083.31 1776.7,1079.81 1781.5,1077C 1495.83,1076.5 1210.17,1076.33 924.5,1076.5C 925.549,1163.16 925.716,1249.83 925,1336.5C 920.272,1340.9 916.605,1340.23 914,1334.5C 913.806,1248.49 913.306,1162.49 912.5,1076.5C 657.5,1076.67 402.5,1076.5 147.5,1076C 143.371,1073.37 142.538,1069.87 145,1065.5C 145.75,1064.87 146.584,1064.37 147.5,1064C 324.5,1063.5 501.5,1063.33 678.5,1063.5C 678.333,989.499 678.5,915.499 679,841.5C 680.022,840.646 680.855,839.646 681.5,838.5C 674.843,832.502 668.176,826.502 661.5,820.5C 660.167,818.5 658.5,816.833 656.5,815.5C 653.833,812.167 650.833,809.167 647.5,806.5C 642.874,799.874 637.541,793.874 631.5,788.5C 629.528,784.895 626.861,781.895 623.5,779.5C 622.581,776.911 620.914,774.911 618.5,773.5C 617.55,770.885 615.883,768.885 613.5,767.5C 612.581,764.911 610.914,762.911 608.5,761.5C 607.308,759.122 605.641,757.122 603.5,755.5C 600.445,750.08 596.445,745.413 591.5,741.5C 591.5,741.167 591.5,740.833 591.5,740.5C 589.189,737.337 587.022,734.003 585,730.5C 584.329,729.748 583.496,729.414 582.5,729.5C 582.291,728.078 581.791,726.745 581,725.5C 577.301,720.973 573.468,716.639 569.5,712.5C 566.281,706.609 561.948,701.609 556.5,697.5C 548.066,688.909 539.066,680.742 529.5,673C 522.706,668.034 515.706,663.534 508.5,659.5C 506.879,657.058 504.546,655.725 501.5,655.5C 498.331,654.083 495.331,652.417 492.5,650.5C 488.938,647.977 484.938,646.31 480.5,645.5C 472.614,643.195 464.614,641.195 456.5,639.5C 455.791,638.596 454.791,638.263 453.5,638.5C 452.737,637.732 451.737,637.232 450.5,637C 442.323,636.177 434.323,636.344 426.5,637.5C 421.819,637.669 417.152,638.002 412.5,638.5C 408.51,638.999 404.51,639.499 400.5,640C 399.944,640.383 399.611,640.883 399.5,641.5C 395.298,642.132 391.298,643.132 387.5,644.5C 383.453,645.018 379.453,645.852 375.5,647C 374.944,647.383 374.611,647.883 374.5,648.5C 371.284,648.345 368.617,649.345 366.5,651.5C 362.657,652.924 358.99,654.591 355.5,656.5C 352.401,656.092 350.067,657.259 348.5,660C 345.172,660.495 342.172,661.662 339.5,663.5C 336.249,664.454 333.582,666.12 331.5,668.5C 331.167,668.5 330.833,668.5 330.5,668.5C 327.249,669.454 324.582,671.12 322.5,673.5C 320.611,674.604 318.945,675.937 317.5,677.5C 311.858,678.648 307.192,681.315 303.5,685.5C 303.167,685.5 302.833,685.5 302.5,685.5C 299.883,686.786 297.55,688.453 295.5,690.5C 292.281,691.069 289.948,692.736 288.5,695.5C 285.281,696.069 282.948,697.736 281.5,700.5C 272.966,704.749 265.633,710.416 259.5,717.5C 255.251,719.088 251.918,721.755 249.5,725.5C 246.19,727.146 243.523,729.48 241.5,732.5C 239.251,733.08 237.585,734.413 236.5,736.5C 231.159,740.177 226.492,744.51 222.5,749.5C 221.761,749.369 221.094,749.536 220.5,750C 219.252,751.4 218.252,752.9 217.5,754.5C 216.761,754.369 216.094,754.536 215.5,755C 214.252,756.4 213.252,757.9 212.5,759.5C 211.833,760.833 210.833,761.833 209.5,762.5C 203.845,767.157 198.845,772.491 194.5,778.5C 191.129,781.871 188.129,785.537 185.5,789.5C 181.755,791.918 179.088,795.251 177.5,799.5C 174.083,801.592 171.75,804.592 170.5,808.5C 165.616,813.089 161.616,818.423 158.5,824.5C 158.5,824.833 158.5,825.167 158.5,825.5C 156.518,827.502 154.852,829.835 153.5,832.5C 153.5,832.833 153.5,833.167 153.5,833.5C 150.736,834.948 149.069,837.281 148.5,840.5C 148.5,840.833 148.5,841.167 148.5,841.5C 145.736,842.948 144.069,845.281 143.5,848.5C 141.984,852.542 139.818,856.209 137,859.5C 136.658,863.542 134.992,866.875 132,869.5C 131.495,871.518 130.995,873.518 130.5,875.5C 130.5,875.833 130.5,876.167 130.5,876.5C 126.394,880.976 124.06,886.309 123.5,892.5C 123.167,893.167 122.833,893.833 122.5,894.5C 119.926,901.644 117.592,908.977 115.5,916.5C 113.373,918.876 110.707,919.876 107.5,919.5C 107.505,915.466 107.838,911.466 108.5,907.5C 108.5,906.5 108.5,905.5 108.5,904.5C 109.117,904.389 109.617,904.056 110,903.5C 110.452,898.316 111.619,893.316 113.5,888.5C 113.5,887.833 113.5,887.167 113.5,886.5C 114.905,882.217 117.071,878.217 120,874.5C 120.494,872.866 120.66,871.199 120.5,869.5C 122.245,867.967 123.245,865.967 123.5,863.5C 124.885,862.426 126.051,861.093 127,859.5C 129.608,853.392 132.442,847.392 135.5,841.5C 141.652,830.534 148.318,819.868 155.5,809.5C 159.576,805.755 162.909,801.421 165.5,796.5C 167.555,794.445 169.221,792.112 170.5,789.5C 174.776,786.279 178.109,782.279 180.5,777.5C 183.55,775.451 185.883,772.784 187.5,769.5C 189.5,768.167 191.167,766.5 192.5,764.5C 195.2,762.766 197.2,760.432 198.5,757.5C 207.22,749.111 215.886,740.778 224.5,732.5C 224.5,730.5 225.5,729.5 227.5,729.5C 231.423,727.248 234.756,724.248 237.5,720.5C 239.23,719.974 240.564,718.974 241.5,717.5C 244.463,715.539 247.129,713.206 249.5,710.5C 252.81,708.518 255.81,706.185 258.5,703.5C 258.5,702.833 258.833,702.5 259.5,702.5C 261.754,701.876 263.421,700.543 264.5,698.5C 267.4,697.557 269.733,695.89 271.5,693.5C 274.4,692.557 276.733,690.89 278.5,688.5C 280.754,687.876 282.421,686.543 283.5,684.5C 283.842,683.662 284.508,683.328 285.5,683.5C 291.019,680.91 296.019,677.576 300.5,673.5C 304.215,671.419 307.882,669.419 311.5,667.5C 315.302,664.044 319.635,661.377 324.5,659.5C 327.326,659.002 329.66,657.669 331.5,655.5C 333.482,655.005 335.482,654.505 337.5,654C 340.865,652.656 343.865,650.823 346.5,648.5C 348.967,648.245 350.967,647.245 352.5,645.5C 352.833,645.5 353.167,645.5 353.5,645.5C 357.329,644.633 360.663,642.967 363.5,640.5C 374.72,635.73 386.387,632.397 398.5,630.5C 410.528,628.381 422.694,627.047 435,626.5C 443.52,627.057 452.02,627.723 460.5,628.5C 461.5,628.5 462.5,628.5 463.5,628.5C 465.102,630.074 467.102,630.741 469.5,630.5C 476.784,632.261 483.784,634.595 490.5,637.5C 495.551,639.928 500.551,642.595 505.5,645.5C 505.833,645.5 506.167,645.5 506.5,645.5C 508.566,647.199 510.9,648.532 513.5,649.5C 515.635,651.071 517.968,652.404 520.5,653.5C 528.294,659.53 536.294,665.196 544.5,670.5C 547.833,673.5 551.167,676.5 554.5,679.5C 558.167,683.833 562.167,687.833 566.5,691.5C 572.555,697.222 577.889,703.556 582.5,710.5C 583.08,712.749 584.413,714.415 586.5,715.5C 588.252,717.246 589.585,719.246 590.5,721.5C 594.056,727.736 598.056,733.736 602.5,739.5C 603.577,740.705 604.91,741.372 606.5,741.5C 609.046,746.719 612.713,751.052 617.5,754.5C 621.845,758.847 625.845,763.514 629.5,768.5C 630.08,770.749 631.413,772.415 633.5,773.5C 634.419,776.089 636.086,778.089 638.5,779.5C 642.048,782.895 645.381,786.562 648.5,790.5C 649.75,792.932 651.25,795.266 653,797.5C 654.129,799.141 655.629,800.141 657.5,800.5C 662.167,807.167 667.833,812.833 674.5,817.5C 676.48,818.484 678.147,819.817 679.5,821.5C 680.585,823.587 682.251,824.92 684.5,825.5C 686.656,827.155 688.656,828.989 690.5,831C 695.22,831.221 699.887,831.721 704.5,832.5C 706.229,834.851 706.896,837.518 706.5,840.5C 705.957,840.56 705.624,840.893 705.5,841.5C 706.94,842.952 708.606,843.952 710.5,844.5C 711.514,845.674 712.847,846.34 714.5,846.5C 717.675,849.328 721.342,851.328 725.5,852.5C 728.991,854.108 732.658,855.108 736.5,855.5C 738.913,857.051 741.579,857.717 744.5,857.5C 744.918,858.222 745.584,858.722 746.5,859C 755.833,859.667 765.167,859.667 774.5,859C 777.476,858.295 780.142,857.129 782.5,855.5C 788.548,853.598 794.215,850.931 799.5,847.5C 806.964,844.37 813.297,839.703 818.5,833.5C 824.5,829.5 829.5,824.5 833.5,818.5C 835.5,817.167 837.167,815.5 838.5,813.5C 841.185,810.81 843.518,807.81 845.5,804.5C 846.906,804.027 847.573,803.027 847.5,801.5C 851.117,798.936 853.784,795.603 855.5,791.5C 857.522,789.469 859.189,787.135 860.5,784.5C 863.364,781.883 865.697,778.883 867.5,775.5C 868.471,773.517 869.471,771.517 870.5,769.5C 872.522,767.469 874.189,765.135 875.5,762.5C 877.167,759.833 878.833,757.167 880.5,754.5C 882.522,752.469 884.189,750.135 885.5,747.5C 885.5,747.167 885.5,746.833 885.5,746.5C 889.193,742.642 892.693,738.642 896,734.5C 896.608,732.846 897.108,731.179 897.5,729.5C 899.522,727.469 901.189,725.135 902.5,722.5C 904.522,720.469 906.189,718.135 907.5,715.5C 908.478,715.189 909.145,714.522 909.5,713.5C 901.528,712.502 893.528,712.169 885.5,712.5C 883.983,712.489 882.816,711.823 882,710.5C 881.022,707.331 881.522,704.497 883.5,702C 892.494,701.5 901.494,701.334 910.5,701.5C 910.268,537.831 909.601,374.165 908.5,210.5C 908.667,198.162 908.5,185.829 908,173.5C 907.283,174.044 906.783,174.711 906.5,175.5C 904.113,180.055 900.613,183.388 896,185.5C 890.977,184.458 889.31,181.458 891,176.5C 897.167,168.167 903.333,159.833 909.5,151.5C 911.527,149.661 913.86,149.161 916.5,150C 923.938,158.382 930.771,167.215 937,176.5C 938.098,183.743 935.265,186.243 928.5,184C 925.8,181.412 923.467,178.579 921.5,175.5C 921.217,174.711 920.717,174.044 920,173.5C 919.174,185.674 919.34,197.674 920.5,209.5C 921.017,301.499 921.35,393.499 921.5,485.5C 921.5,508.833 921.5,532.167 921.5,555.5C 922.5,555.5 923.5,555.5 924.5,555.5C 929.728,556.623 931.228,559.623 929,564.5C 928.184,565.823 927.017,566.489 925.5,566.5C 924.167,566.5 922.833,566.5 921.5,566.5C 921.171,580.01 921.504,593.344 922.5,606.5C 922.167,634.508 922.5,662.508 923.5,690.5C 924.182,689.757 924.849,689.091 925.5,688.5C 928.857,684.465 931.857,680.132 934.5,675.5C 935.904,673.745 936.904,671.745 937.5,669.5C 940.547,667.082 942.88,664.082 944.5,660.5C 945.167,659.5 945.833,658.5 946.5,657.5C 949.575,655.09 951.908,652.09 953.5,648.5C 960.09,637.575 967.09,626.908 974.5,616.5C 976.89,614.733 978.557,612.4 979.5,609.5C 981.5,607.167 983.5,604.833 985.5,602.5C 987.324,600.263 988.991,597.929 990.5,595.5C 993.281,593.046 995.281,590.046 996.5,586.5C 1000.82,580.145 1005.48,573.978 1010.5,568C 1004.39,567.912 998.39,567.245 992.5,566C 989.175,561.081 990.175,557.581 995.5,555.5C 1003.83,555.5 1012.17,555.5 1020.5,555.5C 1020.5,548.833 1020.5,542.167 1020.5,535.5C 1022.39,531.832 1025.39,530.665 1029.5,532C 1030.82,532.816 1031.49,533.983 1031.5,535.5C 1031.21,537.288 1031.55,538.955 1032.5,540.5C 1035.34,537.162 1038.5,534.162 1042,531.5C 1042.49,530.207 1042.66,528.873 1042.5,527.5C 1043.97,526.564 1044.97,525.23 1045.5,523.5C 1048.55,521.451 1050.88,518.784 1052.5,515.5C 1052.77,513.57 1053.77,512.236 1055.5,511.5C 1058.62,509.459 1060.96,506.792 1062.5,503.5C 1067.18,498.821 1071.51,493.821 1075.5,488.5C 1077.54,487.421 1078.88,485.754 1079.5,483.5C 1080.71,482.766 1082.04,482.433 1083.5,482.5C 1083.43,481.041 1083.77,479.708 1084.5,478.5C 1087.22,476.781 1089.22,474.447 1090.5,471.5C 1091.5,471.167 1092.17,470.5 1092.5,469.5C 1096.87,465.467 1100.87,461.134 1104.5,456.5C 1107.17,455.833 1108.83,454.167 1109.5,451.5C 1112.32,451.011 1113.66,449.344 1113.5,446.5C 1111.5,446.5 1109.5,446.5 1107.5,446.5C 1104.86,445.758 1103.53,443.925 1103.5,441C 1103.61,439.105 1104.28,437.438 1105.5,436C 1111.83,435.667 1118.17,435.333 1124.5,435C 1125.77,434.691 1126.93,434.191 1128,433.5C 1127.4,422.554 1127.4,411.554 1128,400.5C 1131.85,396.498 1135.35,396.831 1138.5,401.5C 1138.17,408.2 1138.5,414.866 1139.5,421.5C 1140.52,421.145 1141.19,420.478 1141.5,419.5C 1144.17,418.833 1145.83,417.167 1146.5,414.5C 1149.45,412.885 1152.12,410.885 1154.5,408.5C 1158.12,406.215 1161.12,403.215 1163.5,399.5C 1166.78,397.883 1169.45,395.55 1171.5,392.5C 1173.23,391.974 1174.56,390.974 1175.5,389.5C 1177.75,388.876 1179.42,387.543 1180.5,385.5C 1180.5,384.833 1180.83,384.5 1181.5,384.5C 1183.75,383.876 1185.42,382.543 1186.5,380.5C 1187.17,380.167 1187.83,379.833 1188.5,379.5C 1190.75,378.876 1192.42,377.543 1193.5,375.5C 1197.75,373.575 1201.42,370.908 1204.5,367.5C 1204.83,367.5 1205.17,367.5 1205.5,367.5C 1208.32,365.588 1211.32,363.921 1214.5,362.5C 1214.14,361.478 1213.48,360.811 1212.5,360.5C 1208.52,357.123 1208.52,353.623 1212.5,350C 1220.49,349.5 1228.49,349.334 1236.5,349.5C 1236.33,344.821 1236.5,340.155 1237,335.5C 1240.62,330.185 1244.28,330.185 1248,335.5C 1248.5,337.473 1248.66,339.473 1248.5,341.5C 1248.56,342.043 1248.89,342.376 1249.5,342.5C 1251.99,340.942 1254.66,339.942 1257.5,339.5C 1261.01,337.84 1264.34,336.173 1267.5,334.5C 1269.81,333.68 1272.15,332.847 1274.5,332C 1272.53,331.505 1270.53,331.338 1268.5,331.5C 1263.42,329.666 1262.26,326.333 1265,321.5C 1265.75,320.874 1266.58,320.374 1267.5,320C 1276.83,319.333 1286.17,319.333 1295.5,320C 1296.71,321.039 1297.71,322.206 1298.5,323.5C 1298.79,324.649 1299.62,325.316 1301,325.5C 1304.99,325.35 1308.49,324.35 1311.5,322.5C 1312.68,321.496 1314.02,320.662 1315.5,320C 1320.17,319.833 1324.83,319.667 1329.5,319.5C 1335.92,319.959 1342.26,319.959 1348.5,319.5C 1351.25,319.714 1353.59,320.714 1355.5,322.5C 1355.61,323.117 1355.94,323.617 1356.5,324C 1360.69,324.812 1364.69,324.645 1368.5,323.5C 1369.64,322.199 1370.97,321.032 1372.5,320C 1381.5,319.333 1390.5,319.333 1399.5,320C 1403.77,321.366 1405.27,324.199 1404,328.5C 1402.87,330.141 1401.37,331.141 1399.5,331.5C 1396.48,331.335 1393.48,331.502 1390.5,332C 1394.16,334.827 1398.16,336.993 1402.5,338.5C 1406.61,341.057 1410.94,343.39 1415.5,345.5C 1416.29,346.794 1417.29,347.961 1418.5,349C 1421.65,350.657 1424.65,352.491 1427.5,354.5C 1432.46,358.122 1437.12,362.122 1441.5,366.5C 1443.9,369.903 1446.9,372.57 1450.5,374.5C 1451.17,375.5 1451.83,376.5 1452.5,377.5C 1455.44,382.105 1459.1,386.105 1463.5,389.5C 1463.83,389.5 1464.17,389.5 1464.5,389.5C 1465.08,391.749 1466.41,393.415 1468.5,394.5C 1480.2,405.533 1491.53,416.866 1502.5,428.5C 1509.16,433.169 1515.49,438.169 1521.5,443.5C 1524.29,447.632 1527.96,450.632 1532.5,452.5C 1532.82,454.048 1533.82,454.715 1535.5,454.5C 1535.5,446.167 1535.5,437.833 1535.5,429.5C 1538.47,424.557 1541.97,424.224 1546,428.5C 1546.81,438.88 1546.64,449.214 1545.5,459.5C 1548.99,464.208 1553.66,466.875 1559.5,467.5C 1561.18,469.834 1563.51,470.834 1566.5,470.5C 1573.18,473.166 1580.18,474.832 1587.5,475.5C 1587.61,476.117 1587.94,476.617 1588.5,477C 1597.49,477.5 1606.49,477.666 1615.5,477.5C 1624.44,476.264 1633.11,474.097 1641.5,471C 1642.71,469.961 1643.71,468.794 1644.5,467.5C 1649.83,464.502 1655.16,461.502 1660.5,458.5C 1666.66,456.011 1671.66,452.011 1675.5,446.5C 1681.5,442.5 1686.5,437.5 1690.5,431.5C 1693.86,429.105 1696.53,426.105 1698.5,422.5C 1700.89,421.109 1702.56,419.109 1703.5,416.5C 1704.83,415.167 1706.17,413.833 1707.5,412.5C 1711.01,409.643 1713.34,405.976 1714.5,401.5C 1716.98,398.571 1719.48,395.571 1722,392.5C 1722.79,391.255 1723.29,389.922 1723.5,388.5C 1726.55,386.082 1728.88,383.082 1730.5,379.5C 1737.46,369.065 1744.12,358.398 1750.5,347.5C 1753.32,344.525 1755.66,341.192 1757.5,337.5C 1758.34,335.147 1759.67,333.147 1761.5,331.5C 1764.78,327.56 1767.61,323.226 1770,318.5C 1770.61,316.846 1771.11,315.179 1771.5,313.5C 1776.32,305.369 1780.65,297.035 1784.5,288.5C 1788.04,285.621 1790.37,281.954 1791.5,277.5C 1793.97,274.663 1795.63,271.329 1796.5,267.5C 1798.2,265.434 1799.53,263.1 1800.5,260.5C 1801.17,258.5 1801.83,256.5 1802.5,254.5C 1804.26,253.738 1805.26,252.404 1805.5,250.5C 1807.61,249.093 1809.11,247.093 1810,244.5C 1810.44,242.134 1810.94,239.801 1811.5,237.5C 1811.73,235.938 1812.4,234.605 1813.5,233.5C 1815.25,231.967 1816.25,229.967 1816.5,227.5C 1816.5,227.167 1816.5,226.833 1816.5,226.5C 1820.29,221.684 1823.29,216.35 1825.5,210.5C 1825.33,209.508 1825.66,208.842 1826.5,208.5C 1829.49,204.787 1831.16,200.453 1831.5,195.5C 1832.8,193.588 1833.8,191.588 1834.5,189.5C 1836.87,185.414 1838.87,181.081 1840.5,176.5C 1841.47,174.517 1842.47,172.517 1843.5,170.5C 1846.45,167.512 1848.11,163.845 1848.5,159.5C 1848.5,158.833 1848.5,158.167 1848.5,157.5C 1850.33,155.853 1851.66,153.853 1852.5,151.5C 1853,149.518 1853.5,147.518 1854,145.5C 1856.66,140.216 1859.33,134.883 1862,129.5C 1865,124.833 1868,120.167 1871,115.5C 1871.67,114.748 1872.5,114.414 1873.5,114.5 Z"/></g>
<g><path style="opacity:1" fill="#727272" d="M 1873.5,114.5 C 1874.12,114.611 1874.62,114.944 1875,115.5C 1875.72,120.092 1875.22,124.425 1873.5,128.5C 1874.19,123.774 1874.19,119.107 1873.5,114.5 Z"/></g>
<g><path style="opacity:1" fill="#8b8b8b" d="M 1872.5,128.5 C 1873.07,133.534 1871.73,137.867 1868.5,141.5C 1869.46,136.968 1870.79,132.635 1872.5,128.5 Z"/></g>
<g><path style="opacity:1" fill="#b8b8b8" d="M 1865.5,150.5 C 1865.09,154.33 1863.42,157.33 1860.5,159.5C 1861.88,156.178 1863.54,153.178 1865.5,150.5 Z"/></g>
<g><path style="opacity:1" fill="#777777" d="M 1852.5,151.5 C 1851.66,153.853 1850.33,155.853 1848.5,157.5C 1848.84,154.802 1850.18,152.802 1852.5,151.5 Z"/></g>
<g><path style="opacity:1" fill="#464646" d="M 1848.5,159.5 C 1848.11,163.845 1846.45,167.512 1843.5,170.5C 1844.42,167.204 1845.42,163.871 1846.5,160.5C 1846.84,159.662 1847.51,159.328 1848.5,159.5 Z"/></g>
<g><path style="opacity:1" fill="#c9c9c9" d="M 1846.5,160.5 C 1845.42,163.871 1844.42,167.204 1843.5,170.5C 1842.47,172.517 1841.47,174.517 1840.5,176.5C 1840.17,176.5 1839.83,176.5 1839.5,176.5C 1840.04,170.254 1842.38,164.92 1846.5,160.5 Z"/></g>
<g><path style="opacity:1" fill="#878787" d="M 1839.5,176.5 C 1839.83,176.5 1840.17,176.5 1840.5,176.5C 1838.87,181.081 1836.87,185.414 1834.5,189.5C 1835.57,184.956 1837.24,180.623 1839.5,176.5 Z"/></g>
<g><path style="opacity:1" fill="#b9b9b9" d="M 1850.5,182.5 C 1850.03,186.89 1848.37,190.557 1845.5,193.5C 1846.38,189.403 1848.05,185.737 1850.5,182.5 Z"/></g>
<g><path style="opacity:1" fill="#5f9def" d="M 851.5,199.5 C 859.01,198.18 866.677,198.18 874.5,199.5C 874.376,200.107 874.043,200.44 873.5,200.5C 866.352,199.508 859.019,199.175 851.5,199.5 Z"/></g>
<g><path style="opacity:1" fill="#2377e9" d="M 851.5,199.5 C 859.019,199.175 866.352,199.508 873.5,200.5C 864.361,226.749 854.528,252.749 844,278.5C 839.382,285.562 832.882,289.728 824.5,291C 819.316,291.816 814.316,291.65 809.5,290.5C 809.178,284.642 809.511,278.975 810.5,273.5C 820.268,275.454 826.268,271.621 828.5,262C 820.265,241.127 811.931,220.293 803.5,199.5C 811.392,198.186 819.225,198.186 827,199.5C 831.613,213.672 835.613,228.005 839,242.5C 842.671,227.991 846.838,213.657 851.5,199.5 Z"/></g>
<g><path style="opacity:1" fill="#626262" d="M 921.5,175.5 C 920.505,186.654 920.172,197.988 920.5,209.5C 919.34,197.674 919.174,185.674 920,173.5C 920.717,174.044 921.217,174.711 921.5,175.5 Z"/></g>
<g><path style="opacity:1" fill="#9d9d9d" d="M 908.5,210.5 C 907.833,198.833 907.167,187.167 906.5,175.5C 906.783,174.711 907.283,174.044 908,173.5C 908.5,185.829 908.667,198.162 908.5,210.5 Z"/></g>
<g><path style="opacity:1" fill="#5d5d5d" d="M 1844.5,194.5 C 1843.75,199.216 1841.75,203.216 1838.5,206.5C 1839.94,202.158 1841.94,198.158 1844.5,194.5 Z"/></g>
<g><path style="opacity:1" fill="#545454" d="M 1831.5,195.5 C 1831.16,200.453 1829.49,204.787 1826.5,208.5C 1827.35,204.447 1828.52,200.447 1830,196.5C 1830.38,195.944 1830.88,195.611 1831.5,195.5 Z"/></g>
<g><path style="opacity:1" fill="#626262" d="M 1825.5,210.5 C 1823.29,216.35 1820.29,221.684 1816.5,226.5C 1818.56,221.815 1820.73,217.149 1823,212.5C 1823.71,211.619 1824.54,210.953 1825.5,210.5 Z"/></g>
<g><path style="opacity:1" fill="#707070" d="M 1816.5,227.5 C 1816.25,229.967 1815.25,231.967 1813.5,233.5C 1813.75,231.033 1814.75,229.033 1816.5,227.5 Z"/></g>
<g><path style="opacity:1" fill="#5f5f5f" d="M 1831.5,220.5 C 1828.29,229.701 1824.62,238.701 1820.5,247.5C 1819.83,247.833 1819.17,248.167 1818.5,248.5C 1822.46,238.919 1826.8,229.586 1831.5,220.5 Z"/></g>
<g><path style="opacity:1" fill="#b3b3b3" d="M 1807.5,244.5 C 1806.83,246.5 1806.17,248.5 1805.5,250.5C 1805.26,252.404 1804.26,253.738 1802.5,254.5C 1803.87,251.868 1804.87,249.034 1805.5,246C 1805.84,244.97 1806.5,244.47 1807.5,244.5 Z"/></g>
<g><path style="opacity:1" fill="#484848" d="M 1811.5,237.5 C 1810.94,239.801 1810.44,242.134 1810,244.5C 1809.11,247.093 1807.61,249.093 1805.5,250.5C 1806.17,248.5 1806.83,246.5 1807.5,244.5C 1808.46,241.945 1809.79,239.612 1811.5,237.5 Z"/></g>
<g><path style="opacity:1" fill="#acacac" d="M 1820.5,247.5 C 1814.09,262.131 1806.76,276.131 1798.5,289.5C 1798.56,288.391 1798.89,287.391 1799.5,286.5C 1806.2,274.079 1812.54,261.412 1818.5,248.5C 1819.17,248.167 1819.83,247.833 1820.5,247.5 Z"/></g>
<g><path style="opacity:1" fill="#717171" d="M 1800.5,260.5 C 1799.53,263.1 1798.2,265.434 1796.5,267.5C 1796.72,264.454 1798.06,262.121 1800.5,260.5 Z"/></g>
<g><path style="opacity:1" fill="#6f6f6f" d="M 1796.5,267.5 C 1795.63,271.329 1793.97,274.663 1791.5,277.5C 1792.37,273.671 1794.03,270.337 1796.5,267.5 Z"/></g>
<g><path style="opacity:1" fill="#9fc4f5" d="M 810.5,273.5 C 809.511,278.975 809.178,284.642 809.5,290.5C 808.183,284.654 808.183,278.654 809.5,272.5C 810.107,272.624 810.44,272.957 810.5,273.5 Z"/></g>
<g><path style="opacity:1" fill="#949494" d="M 1791.5,277.5 C 1790.37,281.954 1788.04,285.621 1784.5,288.5C 1786.48,284.54 1788.81,280.873 1791.5,277.5 Z"/></g>
<g><path style="opacity:1" fill="#616161" d="M 1799.5,286.5 C 1798.89,287.391 1798.56,288.391 1798.5,289.5C 1797.22,293.01 1795.22,296.01 1792.5,298.5C 1794.11,293.925 1796.44,289.925 1799.5,286.5 Z"/></g>
<g><path style="opacity:1" fill="#515151" d="M 1787.5,307.5 C 1785.82,310.702 1784.32,314.035 1783,317.5C 1781.96,318.71 1780.79,319.71 1779.5,320.5C 1781.43,315.703 1784.1,311.369 1787.5,307.5 Z"/></g>
<g><path style="opacity:1" fill="#444444" d="M 1771.5,313.5 C 1771.11,315.179 1770.61,316.846 1770,318.5C 1767.61,323.226 1764.78,327.56 1761.5,331.5C 1763.9,324.925 1767.24,318.925 1771.5,313.5 Z"/></g>
<g><path style="opacity:1" fill="#060606" d="M 1420.5,319.5 C 1429.51,319.334 1438.51,319.5 1447.5,320C 1449,320.583 1450.33,321.416 1451.5,322.5C 1452.5,334.336 1452.66,346.336 1452,358.5C 1448.33,362.5 1444.67,362.5 1441,358.5C 1440.5,349.506 1440.33,340.506 1440.5,331.5C 1433.49,331.666 1426.49,331.5 1419.5,331C 1415.36,326.741 1415.69,322.908 1420.5,319.5 Z"/></g>
<g><path style="opacity:1" fill="#888888" d="M 1311.5,322.5 C 1308.49,324.35 1304.99,325.35 1301,325.5C 1299.62,325.316 1298.79,324.649 1298.5,323.5C 1302.88,323.628 1307.21,323.295 1311.5,322.5 Z"/></g>
<g><path style="opacity:1" fill="#8b8b8b" d="M 1355.5,322.5 C 1359.82,322.927 1364.16,323.261 1368.5,323.5C 1364.69,324.645 1360.69,324.812 1356.5,324C 1355.94,323.617 1355.61,323.117 1355.5,322.5 Z"/></g>
<g><path style="opacity:1" fill="#9d9d9d" d="M 1399.5,331.5 C 1398.05,332.302 1396.38,332.802 1394.5,333C 1397.57,334.389 1400.23,336.222 1402.5,338.5C 1398.16,336.993 1394.16,334.827 1390.5,332C 1393.48,331.502 1396.48,331.335 1399.5,331.5 Z"/></g>
<g><path style="opacity:1" fill="#acacac" d="M 1268.5,331.5 C 1270.53,331.338 1272.53,331.505 1274.5,332C 1272.15,332.847 1269.81,333.68 1267.5,334.5C 1266.39,334.557 1265.39,334.89 1264.5,335.5C 1265.83,334.167 1267.17,332.833 1268.5,331.5 Z"/></g>
<g><path style="opacity:1" fill="#555555" d="M 1316.5,333.5 C 1316.5,333.833 1316.5,334.167 1316.5,334.5C 1315.83,334.5 1315.17,334.5 1314.5,334.5C 1311.83,334.833 1309.17,335.167 1306.5,335.5C 1306.92,334.778 1307.58,334.278 1308.5,334C 1311.15,333.503 1313.81,333.336 1316.5,333.5 Z"/></g>
<g><path style="opacity:1" fill="#fefefe" d="M 1340.5,1063.5 C 1309.83,1063.5 1279.17,1063.5 1248.5,1063.5C 1248.5,827.167 1248.5,590.833 1248.5,354.5C 1250.51,354.608 1252.18,353.942 1253.5,352.5C 1256.62,351.683 1259.62,350.683 1262.5,349.5C 1270.49,345.988 1278.83,343.154 1287.5,341C 1288.06,340.617 1288.39,340.117 1288.5,339.5C 1288.83,339.5 1289.17,339.5 1289.5,339.5C 1292.19,339.664 1294.85,339.497 1297.5,339C 1303.24,337.324 1308.91,335.824 1314.5,334.5C 1315.17,334.5 1315.83,334.5 1316.5,334.5C 1324.49,333.977 1332.49,333.644 1340.5,333.5C 1340.5,576.833 1340.5,820.167 1340.5,1063.5 Z"/></g>
<g><path style="opacity:1" fill="#bcbcbc" d="M 1340.5,1063.5 C 1340.5,820.167 1340.5,576.833 1340.5,333.5C 1332.49,333.644 1324.49,333.977 1316.5,334.5C 1316.5,334.167 1316.5,333.833 1316.5,333.5C 1324.65,332.507 1332.98,332.174 1341.5,332.5C 1341.83,576.334 1341.5,820.001 1340.5,1063.5 Z"/></g>
<g><path style="opacity:1" fill="#5d5d5d" d="M 1267.5,334.5 C 1264.34,336.173 1261.01,337.84 1257.5,339.5C 1258.63,338 1259.96,336.667 1261.5,335.5C 1262.5,335.5 1263.5,335.5 1264.5,335.5C 1265.39,334.89 1266.39,334.557 1267.5,334.5 Z"/></g>
<g><path style="opacity:1" fill="#fefefe" d="M 1375.5,338.5 C 1378.09,340.592 1381.09,341.925 1384.5,342.5C 1405.08,351.993 1423.58,364.66 1440,380.5C 1440.5,608.166 1440.67,835.833 1440.5,1063.5C 1411.5,1063.5 1382.5,1063.5 1353.5,1063.5C 1353.5,820.5 1353.5,577.5 1353.5,334.5C 1361.03,334.939 1368.36,336.273 1375.5,338.5 Z"/></g>
<g><path style="opacity:1" fill="#b0b0b0" d="M 1261.5,335.5 C 1259.96,336.667 1258.63,338 1257.5,339.5C 1254.66,339.942 1251.99,340.942 1249.5,342.5C 1248.89,342.376 1248.56,342.043 1248.5,341.5C 1252.71,339.229 1257.04,337.229 1261.5,335.5 Z"/></g>
<g><path style="opacity:1" fill="#aeaeae" d="M 1314.5,334.5 C 1308.91,335.824 1303.24,337.324 1297.5,339C 1294.85,339.497 1292.19,339.664 1289.5,339.5C 1289.92,338.778 1290.58,338.278 1291.5,338C 1296.54,337.263 1301.54,336.429 1306.5,335.5C 1309.17,335.167 1311.83,334.833 1314.5,334.5 Z"/></g>
<g><path style="opacity:1" fill="#525252" d="M 1375.5,338.5 C 1379.16,338.502 1382.16,339.835 1384.5,342.5C 1381.09,341.925 1378.09,340.592 1375.5,338.5 Z"/></g>
<g><path style="opacity:1" fill="#757575" d="M 1772.5,333.5 C 1770.64,340.108 1767.31,345.775 1762.5,350.5C 1765.45,344.562 1768.79,338.896 1772.5,333.5 Z"/></g>
<g><path style="opacity:1" fill="#a3a3a3" d="M 1757.5,337.5 C 1755.66,341.192 1753.32,344.525 1750.5,347.5C 1751.86,343.42 1754.2,340.087 1757.5,337.5 Z"/></g>
<g><path style="opacity:1" fill="#a3a3a3" d="M 1288.5,339.5 C 1288.39,340.117 1288.06,340.617 1287.5,341C 1278.83,343.154 1270.49,345.988 1262.5,349.5C 1262.5,349.167 1262.5,348.833 1262.5,348.5C 1270.55,344.266 1279.21,341.266 1288.5,339.5 Z"/></g>
<g><path style="opacity:1" fill="#0b0b0b" d="M 1130.5,349.5 C 1135.51,349.334 1140.51,349.501 1145.5,350C 1149.53,352.287 1150.36,355.454 1148,359.5C 1145.44,361.179 1142.6,361.846 1139.5,361.5C 1139.67,367.842 1139.5,374.175 1139,380.5C 1136.58,385.474 1133.08,386.474 1128.5,383.5C 1127.36,373.214 1127.19,362.88 1128,352.5C 1128.7,351.309 1129.53,350.309 1130.5,349.5 Z"/></g>
<g><path style="opacity:1" fill="#060606" d="M 1164.5,349.5 C 1174.17,349.334 1183.84,349.5 1193.5,350C 1198.83,353.667 1198.83,357.333 1193.5,361C 1183.83,361.667 1174.17,361.667 1164.5,361C 1160.55,357.169 1160.55,353.336 1164.5,349.5 Z"/></g>
<g><path style="opacity:1" fill="#a3a3a3" d="M 1415.5,345.5 C 1420.52,347.075 1424.52,350.075 1427.5,354.5C 1424.65,352.491 1421.65,350.657 1418.5,349C 1417.29,347.961 1416.29,346.794 1415.5,345.5 Z"/></g>
<g><path style="opacity:1" fill="#525252" d="M 1262.5,348.5 C 1262.5,348.833 1262.5,349.167 1262.5,349.5C 1259.62,350.683 1256.62,351.683 1253.5,352.5C 1254.9,351.069 1256.57,349.902 1258.5,349C 1259.79,348.51 1261.13,348.343 1262.5,348.5 Z"/></g>
<g><path style="opacity:1" fill="#b4b4b4" d="M 1427.5,354.5 C 1433.69,356.689 1438.36,360.689 1441.5,366.5C 1437.12,362.122 1432.46,358.122 1427.5,354.5 Z"/></g>
<g><path style="opacity:1" fill="#646464" d="M 1760.5,353.5 C 1758.42,359.617 1755.09,364.95 1750.5,369.5C 1753.56,363.908 1756.9,358.574 1760.5,353.5 Z"/></g>
<g><path style="opacity:1" fill="#818181" d="M 1212.5,360.5 C 1213.48,360.811 1214.14,361.478 1214.5,362.5C 1211.32,363.921 1208.32,365.588 1205.5,367.5C 1207.64,364.939 1209.97,362.605 1212.5,360.5 Z"/></g>
<g><path style="opacity:1" fill="#7c7c7c" d="M 1236.5,363.5 C 1235.21,363.263 1234.21,363.596 1233.5,364.5C 1232.17,364.833 1230.83,365.167 1229.5,365.5C 1231.09,363.694 1233.09,362.361 1235.5,361.5C 1236.3,361.957 1236.63,362.624 1236.5,363.5 Z"/></g>
<g><path style="opacity:1" fill="#fefefe" d="M 1233.5,364.5 C 1235.5,597.164 1236.17,830.164 1235.5,1063.5C 1203.5,1063.5 1171.5,1063.5 1139.5,1063.5C 1139.5,858.833 1139.5,654.167 1139.5,449.5C 1139.33,445.818 1139.5,442.152 1140,438.5C 1145.7,432.965 1151.2,427.298 1156.5,421.5C 1157.71,420.766 1159.04,420.433 1160.5,420.5C 1160.43,419.041 1160.77,417.708 1161.5,416.5C 1164.78,414.883 1167.45,412.55 1169.5,409.5C 1172.11,408.557 1174.11,406.89 1175.5,404.5C 1178.11,403.557 1180.11,401.89 1181.5,399.5C 1186.15,397.46 1190.48,394.96 1194.5,392C 1195.83,389.809 1197.5,387.976 1199.5,386.5C 1202.67,385.99 1205.01,384.323 1206.5,381.5C 1210.39,380.275 1213.39,377.941 1215.5,374.5C 1218.75,372.041 1222.42,370.375 1226.5,369.5C 1227.52,368.148 1228.52,366.815 1229.5,365.5C 1230.83,365.167 1232.17,364.833 1233.5,364.5 Z"/></g>
<g><path style="opacity:1" fill="#939393" d="M 1441.5,366.5 C 1445.1,368.43 1448.1,371.097 1450.5,374.5C 1446.9,372.57 1443.9,369.903 1441.5,366.5 Z"/></g>
<g><path style="opacity:1" fill="#8e8e8e" d="M 1204.5,367.5 C 1201.42,370.908 1197.75,373.575 1193.5,375.5C 1196.56,372.124 1200.23,369.457 1204.5,367.5 Z"/></g>
<g><path style="opacity:1" fill="#9e9e9e" d="M 1229.5,365.5 C 1228.52,366.815 1227.52,368.148 1226.5,369.5C 1222.42,370.375 1218.75,372.041 1215.5,374.5C 1219.43,370.525 1224.09,367.525 1229.5,365.5 Z"/></g>
<g><path style="opacity:1" fill="#5f5f5f" d="M 1750.5,369.5 C 1749.62,372.704 1747.95,375.371 1745.5,377.5C 1746.38,374.296 1748.05,371.629 1750.5,369.5 Z"/></g>
<g><path style="opacity:1" fill="#858585" d="M 1193.5,375.5 C 1192.42,377.543 1190.75,378.876 1188.5,379.5C 1189.54,377.469 1191.21,376.136 1193.5,375.5 Z"/></g>
<g><path style="opacity:1" fill="#020202" d="M 1466.5,377.5 C 1476.17,377.334 1485.84,377.5 1495.5,378C 1499.5,381.667 1499.5,385.333 1495.5,389C 1485.83,389.667 1476.17,389.667 1466.5,389C 1462.55,385.169 1462.55,381.336 1466.5,377.5 Z"/></g>
<g><path style="opacity:1" fill="#050505" d="M 1514.5,377.5 C 1524.17,377.334 1533.84,377.5 1543.5,378C 1544.33,378.833 1545.17,379.667 1546,380.5C 1546.67,390.5 1546.67,400.5 1546,410.5C 1541.37,414.923 1537.7,414.257 1535,408.5C 1534.5,402.175 1534.33,395.842 1534.5,389.5C 1527.83,389.666 1521.16,389.5 1514.5,389C 1510.55,385.169 1510.55,381.336 1514.5,377.5 Z"/></g>
<g><path style="opacity:1" fill="#a6a6a6" d="M 1215.5,374.5 C 1213.39,377.941 1210.39,380.275 1206.5,381.5C 1208.51,377.985 1211.51,375.651 1215.5,374.5 Z"/></g>
<g><path style="opacity:1" fill="#515151" d="M 1452.5,377.5 C 1456.9,380.895 1460.56,384.895 1463.5,389.5C 1459.1,386.105 1455.44,382.105 1452.5,377.5 Z"/></g>
<g><path style="opacity:1" fill="#979797" d="M 1186.5,380.5 C 1185.42,382.543 1183.75,383.876 1181.5,384.5C 1182.54,382.469 1184.21,381.136 1186.5,380.5 Z"/></g>
<g><path style="opacity:1" fill="#a0a0a0" d="M 1730.5,379.5 C 1728.88,383.082 1726.55,386.082 1723.5,388.5C 1725.14,385.996 1726.64,383.329 1728,380.5C 1728.67,379.748 1729.5,379.414 1730.5,379.5 Z"/></g>
<g><path style="opacity:1" fill="#b9b9b9" d="M 1206.5,381.5 C 1205.01,384.323 1202.67,385.99 1199.5,386.5C 1199.83,385.833 1200.17,385.167 1200.5,384.5C 1202.03,382.755 1204.03,381.755 1206.5,381.5 Z"/></g>
<g><path style="opacity:1" fill="#7f7f7f" d="M 1180.5,385.5 C 1179.42,387.543 1177.75,388.876 1175.5,389.5C 1176.54,387.469 1178.21,386.136 1180.5,385.5 Z"/></g>
<g><path style="opacity:1" fill="#555555" d="M 1740.5,384.5 C 1739.99,387.674 1738.32,390.008 1735.5,391.5C 1736.79,388.883 1738.45,386.55 1740.5,384.5 Z"/></g>
<g><path style="opacity:1" fill="#626262" d="M 1464.5,389.5 C 1466.59,390.585 1467.92,392.251 1468.5,394.5C 1466.41,393.415 1465.08,391.749 1464.5,389.5 Z"/></g>
<g><path style="opacity:1" fill="#818181" d="M 1171.5,392.5 C 1169.45,395.55 1166.78,397.883 1163.5,399.5C 1165.52,396.48 1168.19,394.146 1171.5,392.5 Z"/></g>
<g><path style="opacity:1" fill="#a3a3a3" d="M 1200.5,384.5 C 1200.17,385.167 1199.83,385.833 1199.5,386.5C 1197.5,387.976 1195.83,389.809 1194.5,392C 1190.48,394.96 1186.15,397.46 1181.5,399.5C 1182.47,397.807 1183.81,396.307 1185.5,395C 1190.4,391.255 1195.4,387.755 1200.5,384.5 Z"/></g>
<g><path style="opacity:1" fill="#656565" d="M 1735.5,392.5 C 1734.19,395.135 1732.52,397.469 1730.5,399.5C 1731.07,396.281 1732.74,393.948 1735.5,392.5 Z"/></g>
<g><path style="opacity:1" fill="#fefefe" d="M 1457.5,398.5 C 1459.77,402.436 1462.77,405.769 1466.5,408.5C 1467.17,411.167 1468.83,412.833 1471.5,413.5C 1472.5,413.833 1473.17,414.5 1473.5,415.5C 1479.22,422.225 1485.56,428.225 1492.5,433.5C 1493.95,438.096 1496.95,441.096 1501.5,442.5C 1502.64,443.789 1503.97,444.789 1505.5,445.5C 1505.97,446.901 1506.64,448.234 1507.5,449.5C 1510.26,451.944 1513.26,453.944 1516.5,455.5C 1517.61,455.557 1518.61,455.89 1519.5,456.5C 1520.58,458.587 1522.25,459.92 1524.5,460.5C 1528.17,463.334 1531.83,466.167 1535.5,469C 1534.5,667.139 1534.17,865.306 1534.5,1063.5C 1507.17,1063.5 1479.83,1063.5 1452.5,1063.5C 1452.33,840.166 1452.5,616.833 1453,393.5C 1454.71,395.037 1456.21,396.704 1457.5,398.5 Z"/></g>
<g><path style="opacity:1" fill="#7c7c7c" d="M 1457.5,398.5 C 1461.23,401.231 1464.23,404.564 1466.5,408.5C 1462.77,405.769 1459.77,402.436 1457.5,398.5 Z"/></g>
<g><path style="opacity:1" fill="#818181" d="M 1181.5,399.5 C 1180.11,401.89 1178.11,403.557 1175.5,404.5C 1176.87,402.14 1178.87,400.473 1181.5,399.5 Z"/></g>
<g><path style="opacity:1" fill="#616161" d="M 1730.5,399.5 C 1729.19,402.135 1727.52,404.469 1725.5,406.5C 1726.07,403.281 1727.74,400.948 1730.5,399.5 Z"/></g>
<g><path style="opacity:1" fill="#757575" d="M 1138.5,401.5 C 1138.85,407.735 1139.85,413.735 1141.5,419.5C 1141.19,420.478 1140.52,421.145 1139.5,421.5C 1138.5,414.866 1138.17,408.2 1138.5,401.5 Z"/></g>
<g><path style="opacity:1" fill="#434343" d="M 1163.5,399.5 C 1161.12,403.215 1158.12,406.215 1154.5,408.5C 1155.17,407.5 1155.83,406.5 1156.5,405.5C 1158.21,402.787 1160.55,400.787 1163.5,399.5 Z"/></g>
<g><path style="opacity:1" fill="#818181" d="M 1175.5,404.5 C 1174.11,406.89 1172.11,408.557 1169.5,409.5C 1170.87,407.14 1172.87,405.473 1175.5,404.5 Z"/></g>
<g><path style="opacity:1" fill="#848484" d="M 1156.5,405.5 C 1155.83,406.5 1155.17,407.5 1154.5,408.5C 1152.12,410.885 1149.45,412.885 1146.5,414.5C 1149.18,410.817 1152.52,407.817 1156.5,405.5 Z"/></g>
<g><path style="opacity:1" fill="#9d9d9d" d="M 1466.5,408.5 C 1468.5,409.833 1470.17,411.5 1471.5,413.5C 1468.83,412.833 1467.17,411.167 1466.5,408.5 Z"/></g>
<g><path style="opacity:1" fill="#656565" d="M 1714.5,401.5 C 1713.34,405.976 1711.01,409.643 1707.5,412.5C 1708.47,409.366 1709.81,406.366 1711.5,403.5C 1712.36,402.575 1713.36,401.908 1714.5,401.5 Z"/></g>
<g><path style="opacity:1" fill="#7d7d7d" d="M 1169.5,409.5 C 1167.45,412.55 1164.78,414.883 1161.5,416.5C 1163.52,413.48 1166.19,411.146 1169.5,409.5 Z"/></g>
<g><path style="opacity:1" fill="#585858" d="M 1473.5,415.5 C 1480.44,420.775 1486.78,426.775 1492.5,433.5C 1485.56,428.225 1479.22,422.225 1473.5,415.5 Z"/></g>
<g><path style="opacity:1" fill="#747474" d="M 1146.5,414.5 C 1145.83,417.167 1144.17,418.833 1141.5,419.5C 1142.83,417.5 1144.5,415.833 1146.5,414.5 Z"/></g>
<g><path style="opacity:1" fill="#737373" d="M 1725.5,406.5 C 1722.93,411.406 1719.6,415.739 1715.5,419.5C 1718.12,414.557 1721.45,410.224 1725.5,406.5 Z"/></g>
<g><path style="opacity:1" fill="#9e9e9e" d="M 1161.5,416.5 C 1160.77,417.708 1160.43,419.041 1160.5,420.5C 1159.04,420.433 1157.71,420.766 1156.5,421.5C 1157.08,420.069 1157.92,418.736 1159,417.5C 1159.67,416.748 1160.5,416.414 1161.5,416.5 Z"/></g>
<g><path style="opacity:1" fill="#838383" d="M 1703.5,416.5 C 1702.56,419.109 1700.89,421.109 1698.5,422.5C 1699.47,419.865 1701.14,417.865 1703.5,416.5 Z"/></g>
<g><path style="opacity:1" fill="#696969" d="M 1715.5,419.5 C 1714.19,422.135 1712.52,424.469 1710.5,426.5C 1711.07,423.281 1712.74,420.948 1715.5,419.5 Z"/></g>
<g><path style="opacity:1" fill="#5c5c5c" d="M 1535.5,429.5 C 1535.5,437.833 1535.5,446.167 1535.5,454.5C 1533.82,454.715 1532.82,454.048 1532.5,452.5C 1532.83,452.5 1533.17,452.5 1533.5,452.5C 1534.17,444.833 1534.83,437.167 1535.5,429.5 Z"/></g>
<g><path style="opacity:1" fill="#858585" d="M 1710.5,426.5 C 1708.96,429.792 1706.62,432.459 1703.5,434.5C 1704.91,431.003 1707.24,428.336 1710.5,426.5 Z"/></g>
<g><path style="opacity:1" fill="#7c7c7c" d="M 1690.5,431.5 C 1686.5,437.5 1681.5,442.5 1675.5,446.5C 1680.14,441.194 1685.14,436.194 1690.5,431.5 Z"/></g>
<g><path style="opacity:1" fill="#080808" d="M 1022.5,435.5 C 1028.51,435.334 1034.51,435.501 1040.5,436C 1044.66,444.362 1041.99,447.862 1032.5,446.5C 1032.89,453.921 1032.39,461.254 1031,468.5C 1027.74,471.077 1024.4,471.077 1021,468.5C 1020.33,458.5 1020.33,448.5 1021,438.5C 1021.51,437.473 1022.01,436.473 1022.5,435.5 Z"/></g>
<g><path style="opacity:1" fill="#020202" d="M 1057.5,435.5 C 1067.84,435.334 1078.17,435.5 1088.5,436C 1091.17,439.333 1091.17,442.667 1088.5,446C 1078.17,446.667 1067.83,446.667 1057.5,446C 1054.9,442.504 1054.9,439.004 1057.5,435.5 Z"/></g>
<g><path style="opacity:1" fill="#888888" d="M 1156.5,421.5 C 1151.2,427.298 1145.7,432.965 1140,438.5C 1139.5,442.152 1139.33,445.818 1139.5,449.5C 1138.35,445.689 1138.19,441.689 1139,437.5C 1144.42,431.569 1150.26,426.236 1156.5,421.5 Z"/></g>
<g><path style="opacity:1" fill="#a5a5a5" d="M 1492.5,433.5 C 1495.5,436.5 1498.5,439.5 1501.5,442.5C 1496.95,441.096 1493.95,438.096 1492.5,433.5 Z"/></g>
<g><path style="opacity:1" fill="#707070" d="M 1107.5,446.5 C 1109.5,446.5 1111.5,446.5 1113.5,446.5C 1113.66,449.344 1112.32,451.011 1109.5,451.5C 1109.94,449.926 1110.94,448.759 1112.5,448C 1110.62,447.802 1108.95,447.302 1107.5,446.5 Z"/></g>
<g><path style="opacity:1" fill="#9c9c9c" d="M 1521.5,443.5 C 1525.53,446.536 1529.53,449.536 1533.5,452.5C 1533.17,452.5 1532.83,452.5 1532.5,452.5C 1527.96,450.632 1524.29,447.632 1521.5,443.5 Z"/></g>
<g><path style="opacity:1" fill="#9c9c9c" d="M 1505.5,445.5 C 1509.8,448.129 1513.46,451.463 1516.5,455.5C 1513.26,453.944 1510.26,451.944 1507.5,449.5C 1506.64,448.234 1505.97,446.901 1505.5,445.5 Z"/></g>
<g><path style="opacity:1" fill="#7b7b7b" d="M 1703.5,434.5 C 1697.17,442.833 1689.83,450.167 1681.5,456.5C 1688.5,448.833 1695.83,441.5 1703.5,434.5 Z"/></g>
<g><path style="opacity:1" fill="#6c6c6c" d="M 1126.5,1063.5 C 1126.83,859.333 1126.5,655.333 1125.5,451.5C 1125.46,450.244 1125.96,449.244 1127,448.5C 1127.83,653.667 1127.67,858.667 1126.5,1063.5 Z"/></g>
<g><path style="opacity:1" fill="#6d6d6d" d="M 1109.5,451.5 C 1108.83,454.167 1107.17,455.833 1104.5,456.5C 1105.83,454.5 1107.5,452.833 1109.5,451.5 Z"/></g>
<g><path style="opacity:1" fill="#fefefe" d="M 1125.5,451.5 C 1126.5,655.333 1126.83,859.333 1126.5,1063.5C 1093.5,1063.67 1060.5,1063.5 1027.5,1063C 1029.99,1062.5 1031.49,1061 1032,1058.5C 1032.5,891.834 1032.67,725.167 1032.5,558.5C 1036.07,557.544 1037.73,555.21 1037.5,551.5C 1039.02,551.489 1040.18,550.823 1041,549.5C 1042.72,547.283 1044.22,544.95 1045.5,542.5C 1045.43,540.973 1046.09,539.973 1047.5,539.5C 1051.78,536.279 1055.11,532.279 1057.5,527.5C 1061.18,523.817 1064.51,519.817 1067.5,515.5C 1071.18,511.817 1074.51,507.817 1077.5,503.5C 1080.55,501.451 1082.88,498.784 1084.5,495.5C 1087.88,493.12 1090.55,490.12 1092.5,486.5C 1096.48,483.188 1100.15,479.521 1103.5,475.5C 1104.32,474.614 1105.32,474.281 1106.5,474.5C 1106.5,473.5 1106.5,472.5 1106.5,471.5C 1106.5,469.5 1107.5,468.5 1109.5,468.5C 1115.54,463.463 1120.87,457.797 1125.5,451.5 Z"/></g>
<g><path style="opacity:1" fill="#515151" d="M 1675.5,446.5 C 1671.66,452.011 1666.66,456.011 1660.5,458.5C 1661.63,456.871 1662.96,455.371 1664.5,454C 1668.02,451.316 1671.69,448.816 1675.5,446.5 Z"/></g>
<g><path style="opacity:1" fill="#ececec" d="M 1233.5,364.5 C 1234.21,363.596 1235.21,363.263 1236.5,363.5C 1236.83,597.001 1236.5,830.334 1235.5,1063.5C 1236.17,830.164 1235.5,597.164 1233.5,364.5 Z"/></g>
<g><path style="opacity:1" fill="#5a5a5a" d="M 1519.5,456.5 C 1521.75,457.08 1523.42,458.413 1524.5,460.5C 1522.25,459.92 1520.58,458.587 1519.5,456.5 Z"/></g>
<g><path style="opacity:1" fill="#636363" d="M 1681.5,456.5 C 1680.2,458.822 1678.2,460.155 1675.5,460.5C 1677.15,458.674 1679.15,457.34 1681.5,456.5 Z"/></g>
<g><path style="opacity:1" fill="#818181" d="M 1125.5,451.5 C 1120.87,457.797 1115.54,463.463 1109.5,468.5C 1113.1,463.726 1116.93,459.06 1121,454.5C 1122.13,452.859 1123.63,451.859 1125.5,451.5 Z"/></g>
<g><path style="opacity:1" fill="#818181" d="M 1104.5,456.5 C 1100.87,461.134 1096.87,465.467 1092.5,469.5C 1095.48,464.187 1099.48,459.854 1104.5,456.5 Z"/></g>
<g><path style="opacity:1" fill="#7b7b7b" d="M 1675.5,461.5 C 1673.76,463.55 1671.76,465.383 1669.5,467C 1668.55,467.483 1667.55,467.649 1666.5,467.5C 1668.98,464.759 1671.98,462.759 1675.5,461.5 Z"/></g>
<g><path style="opacity:1" fill="#7f7f7f" d="M 1559.5,467.5 C 1562.16,467.935 1564.49,468.935 1566.5,470.5C 1563.51,470.834 1561.18,469.834 1559.5,467.5 Z"/></g>
<g><path style="opacity:1" fill="#3c3c3c" d="M 1644.5,467.5 C 1643.71,468.794 1642.71,469.961 1641.5,471C 1633.11,474.097 1624.44,476.264 1615.5,477.5C 1615.5,477.167 1615.5,476.833 1615.5,476.5C 1625.49,474.502 1635.16,471.502 1644.5,467.5 Z"/></g>
<g><path style="opacity:1" fill="#7e7e7e" d="M 1090.5,471.5 C 1089.22,474.447 1087.22,476.781 1084.5,478.5C 1085.81,475.527 1087.81,473.193 1090.5,471.5 Z"/></g>
<g><path style="opacity:1" fill="#828282" d="M 1587.5,475.5 C 1596.8,476.387 1606.13,476.721 1615.5,476.5C 1615.5,476.833 1615.5,477.167 1615.5,477.5C 1606.49,477.666 1597.49,477.5 1588.5,477C 1587.94,476.617 1587.61,476.117 1587.5,475.5 Z"/></g>
<g><path style="opacity:1" fill="#797979" d="M 1656.5,473.5 C 1654.25,476.393 1651.25,478.06 1647.5,478.5C 1650.22,476.473 1653.22,474.807 1656.5,473.5 Z"/></g>
<g><path style="opacity:1" fill="#858585" d="M 1550.5,476.5 C 1549.5,476.5 1548.5,476.5 1547.5,476.5C 1547.5,672.167 1547.5,867.833 1547.5,1063.5C 1546.17,867.333 1546.17,671 1547.5,474.5C 1548.74,474.942 1549.74,475.609 1550.5,476.5 Z"/></g>
<g><path style="opacity:1" fill="#838383" d="M 1106.5,471.5 C 1106.5,472.5 1106.5,473.5 1106.5,474.5C 1105.32,474.281 1104.32,474.614 1103.5,475.5C 1100.15,479.521 1096.48,483.188 1092.5,486.5C 1096.49,480.845 1101.16,475.845 1106.5,471.5 Z"/></g>
<g><path style="opacity:1" fill="#606060" d="M 1084.5,478.5 C 1083.77,479.708 1083.43,481.041 1083.5,482.5C 1082.04,482.433 1080.71,482.766 1079.5,483.5C 1079.37,482.761 1079.54,482.094 1080,481.5C 1081.4,480.252 1082.9,479.252 1084.5,478.5 Z"/></g>
<g><path style="opacity:1" fill="#b3b3b3" d="M 1561.5,480.5 C 1564.99,481.658 1568.32,482.991 1571.5,484.5C 1567.15,485.251 1563.81,483.917 1561.5,480.5 Z"/></g>
<g><path style="opacity:1" fill="#0c0c0c" d="M 1023.5,483.5 C 1027.49,482.616 1030.32,483.949 1032,487.5C 1032.67,496.167 1032.67,504.833 1032,513.5C 1029.76,518.942 1026.09,519.942 1021,516.5C 1020.33,506.5 1020.33,496.5 1021,486.5C 1021.7,485.309 1022.53,484.309 1023.5,483.5 Z"/></g>
<g><path style="opacity:1" fill="#8c8c8c" d="M 1079.5,483.5 C 1078.88,485.754 1077.54,487.421 1075.5,488.5C 1076.14,486.205 1077.47,484.539 1079.5,483.5 Z"/></g>
<g><path style="opacity:1" fill="#323232" d="M 1625.5,485.5 C 1623.16,487.04 1620.5,487.706 1617.5,487.5C 1608.17,488.833 1598.83,488.833 1589.5,487.5C 1587.26,487.795 1585.26,487.461 1583.5,486.5C 1597.53,486.762 1611.53,486.429 1625.5,485.5 Z"/></g>
<g><path style="opacity:1" fill="#7c7c7c" d="M 1092.5,486.5 C 1090.55,490.12 1087.88,493.12 1084.5,495.5C 1086.48,491.854 1089.15,488.854 1092.5,486.5 Z"/></g>
<g><path style="opacity:1" fill="#9f9f9f" d="M 1589.5,487.5 C 1598.83,488.833 1608.17,488.833 1617.5,487.5C 1612.43,489.057 1607.1,489.724 1601.5,489.5C 1597.11,489.491 1593.11,488.824 1589.5,487.5 Z"/></g>
<g><path style="opacity:1" fill="#7b7b7b" d="M 1075.5,488.5 C 1071.51,493.821 1067.18,498.821 1062.5,503.5C 1065.77,497.563 1070.1,492.563 1075.5,488.5 Z"/></g>
<g><path style="opacity:1" fill="#757575" d="M 1084.5,495.5 C 1082.88,498.784 1080.55,501.451 1077.5,503.5C 1079.15,500.19 1081.48,497.523 1084.5,495.5 Z"/></g>
<g><path style="opacity:1" fill="#6e6e6e" d="M 1077.5,503.5 C 1074.51,507.817 1071.18,511.817 1067.5,515.5C 1069.76,510.574 1073.1,506.574 1077.5,503.5 Z"/></g>
<g><path style="opacity:1" fill="#8a8a8a" d="M 1062.5,503.5 C 1060.96,506.792 1058.62,509.459 1055.5,511.5C 1056.91,508.003 1059.24,505.336 1062.5,503.5 Z"/></g>
<g><path style="opacity:1" fill="#949494" d="M 1052.5,515.5 C 1050.88,518.784 1048.55,521.451 1045.5,523.5C 1047.15,520.19 1049.48,517.523 1052.5,515.5 Z"/></g>
<g><path style="opacity:1" fill="#6e6e6e" d="M 1067.5,515.5 C 1064.51,519.817 1061.18,523.817 1057.5,527.5C 1059.76,522.574 1063.1,518.574 1067.5,515.5 Z"/></g>
<g><path style="opacity:1" fill="#6c6c6c" d="M 1057.5,527.5 C 1055.11,532.279 1051.78,536.279 1047.5,539.5C 1050.38,535.051 1053.71,531.051 1057.5,527.5 Z"/></g>
<g><path style="opacity:1" fill="#626262" d="M 1042.5,527.5 C 1042.66,528.873 1042.49,530.207 1042,531.5C 1038.5,534.162 1035.34,537.162 1032.5,540.5C 1031.55,538.955 1031.21,537.288 1031.5,535.5C 1032.27,536.263 1032.77,537.263 1033,538.5C 1035.66,534.346 1038.82,530.679 1042.5,527.5 Z"/></g>
<g><path style="opacity:1" fill="#b2b2b2" d="M 921.5,485.5 C 921.854,508.89 922.854,532.223 924.5,555.5C 923.5,555.5 922.5,555.5 921.5,555.5C 921.5,532.167 921.5,508.833 921.5,485.5 Z"/></g>
<g><path style="opacity:1" fill="#7a7a7a" d="M 1045.5,542.5 C 1044.22,544.95 1042.72,547.283 1041,549.5C 1040.18,550.823 1039.02,551.489 1037.5,551.5C 1039.5,547.834 1042.17,544.834 1045.5,542.5 Z"/></g>
<g><path style="opacity:1" fill="#b1b1b1" d="M 1020.5,535.5 C 1020.5,542.167 1020.5,548.833 1020.5,555.5C 1012.17,555.5 1003.83,555.5 995.5,555.5C 1003.32,554.508 1011.32,554.174 1019.5,554.5C 1019.18,547.978 1019.51,541.645 1020.5,535.5 Z"/></g>
<g><path style="opacity:1" fill="#010101" d="M 945.5,555.5 C 955.172,555.334 964.839,555.5 974.5,556C 975.416,556.374 976.25,556.874 977,557.5C 977.978,560.669 977.478,563.503 975.5,566C 965.167,566.667 954.833,566.667 944.5,566C 941.652,562.107 941.985,558.607 945.5,555.5 Z"/></g>
<g><path style="opacity:1" fill="#a0a0a0" d="M 1037.5,551.5 C 1037.73,555.21 1036.07,557.544 1032.5,558.5C 1033.43,555.603 1035.1,553.27 1037.5,551.5 Z"/></g>
<g><path style="opacity:1" fill="#979797" d="M 1020.5,1058.5 C 1019.83,897.833 1019.17,737.167 1018.5,576.5C 1018.37,575.624 1018.7,574.957 1019.5,574.5C 1020.5,735.832 1020.83,897.165 1020.5,1058.5 Z"/></g>
<g><path style="opacity:1" fill="#fefefe" d="M 1018.5,576.5 C 1019.17,737.167 1019.83,897.833 1020.5,1058.5C 1020.86,1060.37 1021.86,1061.87 1023.5,1063C 990.502,1063.5 957.502,1063.67 924.5,1063.5C 924.455,974.165 924.122,884.832 923.5,795.5C 923.175,767.093 923.509,738.759 924.5,710.5C 926.95,708.371 928.617,705.704 929.5,702.5C 931.903,700.73 933.57,698.397 934.5,695.5C 936.522,693.469 938.189,691.135 939.5,688.5C 939.5,688.167 939.5,687.833 939.5,687.5C 942.323,686.008 943.99,683.674 944.5,680.5C 946.522,678.469 948.189,676.135 949.5,673.5C 949.5,673.167 949.5,672.833 949.5,672.5C 953.802,668.576 957.136,663.909 959.5,658.5C 960.167,657.5 960.833,656.5 961.5,655.5C 963.522,653.469 965.189,651.135 966.5,648.5C 966.5,648.167 966.5,647.833 966.5,647.5C 968.89,646.109 970.557,644.109 971.5,641.5C 973.167,638.833 974.833,636.167 976.5,633.5C 978.522,631.469 980.189,629.135 981.5,626.5C 984.649,623.833 987.482,620.833 990,617.5C 991.396,614.936 992.563,612.269 993.5,609.5C 997.568,605.761 1000.9,601.428 1003.5,596.5C 1005.52,594.469 1007.19,592.135 1008.5,589.5C 1008.43,587.973 1009.09,586.973 1010.5,586.5C 1013.32,585.008 1014.99,582.674 1015.5,579.5C 1016.83,578.833 1017.83,577.833 1018.5,576.5 Z"/></g>
<g><path style="opacity:1" fill="#656565" d="M 1015.5,579.5 C 1014.99,582.674 1013.32,585.008 1010.5,586.5C 1011.79,583.883 1013.45,581.55 1015.5,579.5 Z"/></g>
<g><path style="opacity:1" fill="#717171" d="M 996.5,586.5 C 995.281,590.046 993.281,593.046 990.5,595.5C 991.437,592.731 992.604,590.064 994,587.5C 994.671,586.748 995.504,586.414 996.5,586.5 Z"/></g>
<g><path style="opacity:1" fill="#626262" d="M 1008.5,589.5 C 1007.19,592.135 1005.52,594.469 1003.5,596.5C 1004.07,593.281 1005.74,590.948 1008.5,589.5 Z"/></g>
<g><path style="opacity:1" fill="#6d6d6d" d="M 1003.5,596.5 C 1000.9,601.428 997.568,605.761 993.5,609.5C 996.13,604.548 999.463,600.215 1003.5,596.5 Z"/></g>
<g><path style="opacity:1" fill="#5a5a5a" d="M 990.5,595.5 C 988.991,597.929 987.324,600.263 985.5,602.5C 985.831,599.169 987.497,596.836 990.5,595.5 Z"/></g>
<g><path style="opacity:1" fill="#636363" d="M 925.5,566.5 C 924.791,567.404 923.791,567.737 922.5,567.5C 922.5,580.5 922.5,593.5 922.5,606.5C 921.504,593.344 921.171,580.01 921.5,566.5C 922.833,566.5 924.167,566.5 925.5,566.5 Z"/></g>
<g><path style="opacity:1" fill="#8c8c8c" d="M 979.5,609.5 C 978.557,612.4 976.89,614.733 974.5,616.5C 975.456,613.561 977.123,611.228 979.5,609.5 Z"/></g>
<g><path style="opacity:1" fill="#8d8d8d" d="M 993.5,609.5 C 992.563,612.269 991.396,614.936 990,617.5C 987.482,620.833 984.649,623.833 981.5,626.5C 984.765,620.299 988.765,614.632 993.5,609.5 Z"/></g>
<g><path style="opacity:1" fill="#bebebe" d="M 443.5,625.5 C 434.482,625.448 425.482,625.782 416.5,626.5C 420.614,625.174 425.114,624.507 430,624.5C 434.68,624.501 439.18,624.834 443.5,625.5 Z"/></g>
<g><path style="opacity:1" fill="#515151" d="M 443.5,625.5 C 448.316,626.326 453.316,626.826 458.5,627C 459.416,627.278 460.082,627.778 460.5,628.5C 452.02,627.723 443.52,627.057 435,626.5C 422.694,627.047 410.528,628.381 398.5,630.5C 404.249,628.536 410.249,627.203 416.5,626.5C 425.482,625.782 434.482,625.448 443.5,625.5 Z"/></g>
<g><path style="opacity:1" fill="#959595" d="M 463.5,628.5 C 465.898,628.259 467.898,628.926 469.5,630.5C 467.102,630.741 465.102,630.074 463.5,628.5 Z"/></g>
<g><path style="opacity:1" fill="#616161" d="M 981.5,626.5 C 980.189,629.135 978.522,631.469 976.5,633.5C 977.069,630.281 978.736,627.948 981.5,626.5 Z"/></g>
<g><path style="opacity:1" fill="#6f6f6f" d="M 426.5,637.5 C 434.323,636.344 442.323,636.177 450.5,637C 451.737,637.232 452.737,637.732 453.5,638.5C 444.533,637.617 435.533,637.284 426.5,637.5 Z"/></g>
<g><path style="opacity:1" fill="#6f6f6f" d="M 412.5,638.5 C 412.082,639.222 411.416,639.722 410.5,640C 406.786,640.32 403.119,640.82 399.5,641.5C 399.611,640.883 399.944,640.383 400.5,640C 404.51,639.499 408.51,638.999 412.5,638.5 Z"/></g>
<g><path style="opacity:1" fill="#595959" d="M 363.5,640.5 C 360.663,642.967 357.329,644.633 353.5,645.5C 356.337,643.033 359.671,641.367 363.5,640.5 Z"/></g>
<g><path style="opacity:1" fill="#c4c4c4" d="M 426.5,637.5 C 435.533,637.284 444.533,637.617 453.5,638.5C 454.791,638.263 455.791,638.596 456.5,639.5C 442.486,638.045 428.486,638.212 414.5,640C 405.512,641.641 396.512,643.141 387.5,644.5C 391.298,643.132 395.298,642.132 399.5,641.5C 403.119,640.82 406.786,640.32 410.5,640C 411.416,639.722 412.082,639.222 412.5,638.5C 417.152,638.002 421.819,637.669 426.5,637.5 Z"/></g>
<g><path style="opacity:1" fill="#8b8b8b" d="M 490.5,637.5 C 496.835,637.968 501.835,640.634 505.5,645.5C 500.551,642.595 495.551,639.928 490.5,637.5 Z"/></g>
<g><path style="opacity:1" fill="#636363" d="M 971.5,641.5 C 970.557,644.109 968.89,646.109 966.5,647.5C 967.473,644.865 969.14,642.865 971.5,641.5 Z"/></g>
<g><path style="opacity:1" fill="#848484" d="M 387.5,644.5 C 383.654,646.929 379.32,648.262 374.5,648.5C 374.611,647.883 374.944,647.383 375.5,647C 379.453,645.852 383.453,645.018 387.5,644.5 Z"/></g>
<g><path style="opacity:1" fill="#585858" d="M 352.5,645.5 C 350.967,647.245 348.967,648.245 346.5,648.5C 348.033,646.755 350.033,645.755 352.5,645.5 Z"/></g>
<g><path style="opacity:1" fill="#686868" d="M 480.5,645.5 C 484.938,646.31 488.938,647.977 492.5,650.5C 491.127,650.657 489.793,650.49 488.5,650C 485.61,648.572 482.944,647.072 480.5,645.5 Z"/></g>
<g><path style="opacity:1" fill="#838383" d="M 506.5,645.5 C 509.546,645.725 511.879,647.058 513.5,649.5C 510.9,648.532 508.566,647.199 506.5,645.5 Z"/></g>
<g><path style="opacity:1" fill="#5f5f5f" d="M 374.5,648.5 C 372.152,650.097 369.486,651.097 366.5,651.5C 368.617,649.345 371.284,648.345 374.5,648.5 Z"/></g>
<g><path style="opacity:1" fill="#535353" d="M 346.5,648.5 C 343.865,650.823 340.865,652.656 337.5,654C 335.482,654.505 333.482,655.005 331.5,655.5C 335.21,653.67 338.877,651.503 342.5,649C 343.793,648.51 345.127,648.343 346.5,648.5 Z"/></g>
<g><path style="opacity:1" fill="#707070" d="M 966.5,648.5 C 965.189,651.135 963.522,653.469 961.5,655.5C 962.069,652.281 963.736,649.948 966.5,648.5 Z"/></g>
<g><path style="opacity:1" fill="#444444" d="M 953.5,648.5 C 951.908,652.09 949.575,655.09 946.5,657.5C 948.131,653.879 950.465,650.879 953.5,648.5 Z"/></g>
<g><path style="opacity:1" fill="#a6a6a6" d="M 520.5,653.5 C 521.873,653.343 523.207,653.51 524.5,654C 529.864,659.23 535.864,663.563 542.5,667C 543.823,667.816 544.489,668.983 544.5,670.5C 536.294,665.196 528.294,659.53 520.5,653.5 Z"/></g>
<g><path style="opacity:1" fill="#555555" d="M 501.5,655.5 C 504.546,655.725 506.879,657.058 508.5,659.5C 505.9,658.532 503.566,657.199 501.5,655.5 Z"/></g>
<g><path style="opacity:1" fill="#545454" d="M 331.5,655.5 C 329.66,657.669 327.326,659.002 324.5,659.5C 326.336,657.412 328.669,656.079 331.5,655.5 Z"/></g>
<g><path style="opacity:1" fill="#666666" d="M 959.5,658.5 C 957.136,663.909 953.802,668.576 949.5,672.5C 951.644,668.889 953.81,665.222 956,661.5C 956.759,659.937 957.926,658.937 959.5,658.5 Z"/></g>
<g><path style="opacity:1" fill="#a4a4a4" d="M 944.5,660.5 C 942.88,664.082 940.547,667.082 937.5,669.5C 939.087,667.03 940.587,664.364 942,661.5C 942.671,660.748 943.504,660.414 944.5,660.5 Z"/></g>
<g><path style="opacity:1" fill="#cacaca" d="M 355.5,656.5 C 352.771,657.389 350.771,659.223 349.5,662C 344.93,664.067 340.264,665.9 335.5,667.5C 336.833,666.167 338.167,664.833 339.5,663.5C 342.172,661.662 345.172,660.495 348.5,660C 350.067,657.259 352.401,656.092 355.5,656.5 Z"/></g>
<g><path style="opacity:1" fill="#626262" d="M 339.5,663.5 C 338.167,664.833 336.833,666.167 335.5,667.5C 334.041,667.433 332.708,667.766 331.5,668.5C 333.582,666.12 336.249,664.454 339.5,663.5 Z"/></g>
<g><path style="opacity:1" fill="#848484" d="M 311.5,667.5 C 307.882,669.419 304.215,671.419 300.5,673.5C 303.146,669.901 306.812,667.901 311.5,667.5 Z"/></g>
<g><path style="opacity:1" fill="#676767" d="M 330.5,668.5 C 328.368,670.955 325.701,672.621 322.5,673.5C 324.582,671.12 327.249,669.454 330.5,668.5 Z"/></g>
<g><path style="opacity:1" fill="#888888" d="M 300.5,673.5 C 296.019,677.576 291.019,680.91 285.5,683.5C 289.9,679.452 294.9,676.119 300.5,673.5 Z"/></g>
<g><path style="opacity:1" fill="#626262" d="M 949.5,673.5 C 948.189,676.135 946.522,678.469 944.5,680.5C 945.069,677.281 946.736,674.948 949.5,673.5 Z"/></g>
<g><path style="opacity:1" fill="#8e8e8e" d="M 554.5,679.5 C 559.5,682.5 563.5,686.5 566.5,691.5C 562.167,687.833 558.167,683.833 554.5,679.5 Z"/></g>
<g><path style="opacity:1" fill="#a2a2a2" d="M 317.5,677.5 C 313.494,681.04 308.828,683.707 303.5,685.5C 307.192,681.315 311.858,678.648 317.5,677.5 Z"/></g>
<g><path style="opacity:1" fill="#8f8f8f" d="M 283.5,684.5 C 282.421,686.543 280.754,687.876 278.5,688.5C 279.539,686.469 281.205,685.136 283.5,684.5 Z"/></g>
<g><path style="opacity:1" fill="#626262" d="M 944.5,680.5 C 943.99,683.674 942.323,686.008 939.5,687.5C 940.786,684.883 942.453,682.55 944.5,680.5 Z"/></g>
<g><path style="opacity:1" fill="#a0a0a0" d="M 934.5,675.5 C 931.857,680.132 928.857,684.465 925.5,688.5C 925.491,686.692 925.991,685.025 927,683.5C 929.403,681.695 931.07,679.362 932,676.5C 932.671,675.748 933.504,675.414 934.5,675.5 Z"/></g>
<g><path style="opacity:1" fill="#757575" d="M 302.5,685.5 C 301.008,688.323 298.674,689.99 295.5,690.5C 297.55,688.453 299.883,686.786 302.5,685.5 Z"/></g>
<g><path style="opacity:1" fill="#7b7b7b" d="M 278.5,688.5 C 276.733,690.89 274.4,692.557 271.5,693.5C 273.228,691.123 275.561,689.456 278.5,688.5 Z"/></g>
<g><path style="opacity:1" fill="#616161" d="M 295.5,690.5 C 293.469,692.522 291.135,694.189 288.5,695.5C 289.948,692.736 292.281,691.069 295.5,690.5 Z"/></g>
<g><path style="opacity:1" fill="#6a6a6a" d="M 939.5,688.5 C 938.189,691.135 936.522,693.469 934.5,695.5C 935.069,692.281 936.736,689.948 939.5,688.5 Z"/></g>
<g><path style="opacity:1" fill="#888888" d="M 271.5,693.5 C 269.733,695.89 267.4,697.557 264.5,698.5C 266.228,696.123 268.561,694.456 271.5,693.5 Z"/></g>
<g><path style="opacity:1" fill="#696969" d="M 288.5,695.5 C 286.469,697.522 284.135,699.189 281.5,700.5C 282.948,697.736 285.281,696.069 288.5,695.5 Z"/></g>
<g><path style="opacity:1" fill="#919191" d="M 264.5,698.5 C 263.421,700.543 261.754,701.876 259.5,702.5C 260.539,700.469 262.205,699.136 264.5,698.5 Z"/></g>
<g><path style="opacity:1" fill="#bababa" d="M 556.5,697.5 C 561.948,701.609 566.281,706.609 569.5,712.5C 564.908,709.414 560.742,705.747 557,701.5C 556.51,700.207 556.343,698.873 556.5,697.5 Z"/></g>
<g><path style="opacity:1" fill="#060606" d="M 800.5,701.5 C 806.176,701.334 811.843,701.501 817.5,702C 821.023,704.794 821.356,707.96 818.5,711.5C 815.579,712.407 812.579,712.74 809.5,712.5C 809.666,719.508 809.5,726.508 809,733.5C 805.818,737.057 802.318,737.391 798.5,734.5C 797.359,724.547 797.192,714.547 798,704.5C 798.698,703.309 799.531,702.309 800.5,701.5 Z"/></g>
<g><path style="opacity:1" fill="#010101" d="M 835.5,701.5 C 845.506,701.334 855.506,701.5 865.5,702C 869.5,705.333 869.5,708.667 865.5,712C 855.5,712.667 845.5,712.667 835.5,712C 832.88,708.502 832.88,705.002 835.5,701.5 Z"/></g>
<g><path style="opacity:1" fill="#686868" d="M 934.5,695.5 C 933.57,698.397 931.903,700.73 929.5,702.5C 930.443,699.571 932.11,697.237 934.5,695.5 Z"/></g>
<g><path style="opacity:1" fill="#717171" d="M 929.5,702.5 C 928.617,705.704 926.95,708.371 924.5,710.5C 925.383,707.296 927.05,704.629 929.5,702.5 Z"/></g>
<g><path style="opacity:1" fill="#848484" d="M 258.5,703.5 C 255.81,706.185 252.81,708.518 249.5,710.5C 251.592,707.083 254.592,704.75 258.5,703.5 Z"/></g>
<g><path style="opacity:1" fill="#a0a0a0" d="M 281.5,700.5 C 279.726,703.416 277.393,705.916 274.5,708C 269.134,710.678 264.134,713.844 259.5,717.5C 265.633,710.416 272.966,704.749 281.5,700.5 Z"/></g>
<g><path style="opacity:1" fill="#818181" d="M 249.5,710.5 C 247.129,713.206 244.463,715.539 241.5,717.5C 243.201,714.137 245.867,711.803 249.5,710.5 Z"/></g>
<g><path style="opacity:1" fill="#7c7c7c" d="M 885.5,712.5 C 893.528,712.169 901.528,712.502 909.5,713.5C 909.145,714.522 908.478,715.189 907.5,715.5C 900.39,713.848 893.057,712.848 885.5,712.5 Z"/></g>
<g><path style="opacity:1" fill="#5f5f5f" d="M 582.5,710.5 C 584.587,711.585 585.92,713.251 586.5,715.5C 584.413,714.415 583.08,712.749 582.5,710.5 Z"/></g>
<g><path style="opacity:1" fill="#8e8e8e" d="M 907.5,715.5 C 906.189,718.135 904.522,720.469 902.5,722.5C 903.069,719.281 904.736,716.948 907.5,715.5 Z"/></g>
<g><path style="opacity:1" fill="#c4c4c4" d="M 569.5,712.5 C 573.468,716.639 577.301,720.973 581,725.5C 581.791,726.745 582.291,728.078 582.5,729.5C 580.224,729.244 579.057,727.91 579,725.5C 575.661,723.327 572.828,720.66 570.5,717.5C 569.691,715.929 569.357,714.262 569.5,712.5 Z"/></g>
<g><path style="opacity:1" fill="#8e8e8e" d="M 259.5,717.5 C 258.972,718.721 258.305,719.887 257.5,721C 254.708,722.295 252.042,723.795 249.5,725.5C 251.918,721.755 255.251,719.088 259.5,717.5 Z"/></g>
<g><path style="opacity:1" fill="#717171" d="M 237.5,720.5 C 234.756,724.248 231.423,727.248 227.5,729.5C 230.185,725.817 233.518,722.817 237.5,720.5 Z"/></g>
<g><path style="opacity:1" fill="#868686" d="M 249.5,725.5 C 247.451,728.55 244.784,730.883 241.5,732.5C 243.523,729.48 246.19,727.146 249.5,725.5 Z"/></g>
<g><path style="opacity:1" fill="#333333" d="M 590.5,721.5 C 592.463,722.96 594.296,724.627 596,726.5C 599.778,731.421 603.278,736.421 606.5,741.5C 604.91,741.372 603.577,740.705 602.5,739.5C 598.056,733.736 594.056,727.736 590.5,721.5 Z"/></g>
<g><path style="opacity:1" fill="#b5b5b5" d="M 582.5,729.5 C 583.496,729.414 584.329,729.748 585,730.5C 587.022,734.003 589.189,737.337 591.5,740.5C 586.945,737.96 583.945,734.293 582.5,729.5 Z"/></g>
<g><path style="opacity:1" fill="#888888" d="M 241.5,732.5 C 240.415,734.587 238.749,735.92 236.5,736.5C 237.585,734.413 239.251,733.08 241.5,732.5 Z"/></g>
<g><path style="opacity:1" fill="#9c9c9c" d="M 897.5,729.5 C 897.108,731.179 896.608,732.846 896,734.5C 892.693,738.642 889.193,742.642 885.5,746.5C 885.877,744.742 886.544,743.075 887.5,741.5C 890.48,737.189 893.813,733.189 897.5,729.5 Z"/></g>
<g><path style="opacity:1" fill="#fdfdfd" d="M 909.5,731.5 C 910.167,743.5 910.833,755.5 911.5,767.5C 912.039,866.166 912.372,964.832 912.5,1063.5C 877.5,1063.5 842.5,1063.5 807.5,1063.5C 807.684,1007.83 808.018,952.166 808.5,896.5C 809.331,883.006 809.831,869.339 810,855.5C 810.717,854.956 811.217,854.289 811.5,853.5C 814.135,852.189 816.469,850.522 818.5,848.5C 821.493,847.167 823.827,845.167 825.5,842.5C 827.749,841.92 829.415,840.587 830.5,838.5C 832.5,837.167 834.167,835.5 835.5,833.5C 837.5,832.167 839.167,830.5 840.5,828.5C 845.699,824.421 849.699,819.421 852.5,813.5C 853.167,813.5 853.5,813.167 853.5,812.5C 856.973,810.363 859.306,807.363 860.5,803.5C 863.323,802.008 864.99,799.674 865.5,796.5C 868.323,795.008 869.99,792.674 870.5,789.5C 873.305,787.208 875.638,784.541 877.5,781.5C 880.463,779.33 882.129,776.33 882.5,772.5C 884.95,770.371 886.617,767.704 887.5,764.5C 889.4,762.381 891.066,760.047 892.5,757.5C 894.522,755.469 896.189,753.135 897.5,750.5C 897.5,750.167 897.5,749.833 897.5,749.5C 900.323,748.008 901.99,745.674 902.5,742.5C 905.579,739.35 907.913,735.683 909.5,731.5 Z"/></g>
<g><path style="opacity:1" fill="#898989" d="M 236.5,736.5 C 232.475,741.525 227.808,745.859 222.5,749.5C 226.492,744.51 231.159,740.177 236.5,736.5 Z"/></g>
<g><path style="opacity:1" fill="#535353" d="M 606.5,741.5 C 610.536,745.534 614.202,749.868 617.5,754.5C 612.713,751.052 609.046,746.719 606.5,741.5 Z"/></g>
<g><path style="opacity:1" fill="#828282" d="M 224.5,732.5 C 215.886,740.778 207.22,749.111 198.5,757.5C 205.9,747.765 214.567,739.432 224.5,732.5 Z"/></g>
<g><path style="opacity:1" fill="#bcbcbc" d="M 591.5,741.5 C 596.445,745.413 600.445,750.08 603.5,755.5C 597.665,752.337 593.665,747.671 591.5,741.5 Z"/></g>
<g><path style="opacity:1" fill="#5e5e5e" d="M 902.5,742.5 C 901.99,745.674 900.323,748.008 897.5,749.5C 898.786,746.883 900.453,744.55 902.5,742.5 Z"/></g>
<g><path style="opacity:1" fill="#0b0b0b" d="M 800.5,749.5 C 804.49,748.616 807.323,749.949 809,753.5C 809.667,762.833 809.667,772.167 809,781.5C 805.287,785.487 801.62,785.487 798,781.5C 797.333,771.833 797.333,762.167 798,752.5C 798.698,751.309 799.531,750.309 800.5,749.5 Z"/></g>
<g><path style="opacity:1" fill="#9a9a9a" d="M 885.5,747.5 C 884.189,750.135 882.522,752.469 880.5,754.5C 881.069,751.281 882.736,748.948 885.5,747.5 Z"/></g>
<g><path style="opacity:1" fill="#9d9d9d" d="M 222.5,749.5 C 221.766,750.708 221.433,752.041 221.5,753.5C 220.041,753.433 218.708,753.766 217.5,754.5C 218.252,752.9 219.252,751.4 220.5,750C 221.094,749.536 221.761,749.369 222.5,749.5 Z"/></g>
<g><path style="opacity:1" fill="#919191" d="M 924.5,710.5 C 923.509,738.759 923.175,767.093 923.5,795.5C 922.833,781.504 922.5,767.337 922.5,753C 922.501,738.484 923.167,724.317 924.5,710.5 Z"/></g>
<g><path style="opacity:1" fill="#6a6a6a" d="M 897.5,750.5 C 896.189,753.135 894.522,755.469 892.5,757.5C 893.069,754.281 894.736,751.948 897.5,750.5 Z"/></g>
<g><path style="opacity:1" fill="#9e9e9e" d="M 217.5,754.5 C 216.766,755.708 216.433,757.041 216.5,758.5C 215.041,758.433 213.708,758.766 212.5,759.5C 213.252,757.9 214.252,756.4 215.5,755C 216.094,754.536 216.761,754.369 217.5,754.5 Z"/></g>
<g><path style="opacity:1" fill="#7e7e7e" d="M 198.5,757.5 C 197.2,760.432 195.2,762.766 192.5,764.5C 193.412,762.405 194.579,760.405 196,758.5C 196.671,757.748 197.504,757.414 198.5,757.5 Z"/></g>
<g><path style="opacity:1" fill="#6a6a6a" d="M 909.5,731.5 C 909.56,730.957 909.893,730.624 910.5,730.5C 911.499,742.815 911.832,755.149 911.5,767.5C 910.833,755.5 910.167,743.5 909.5,731.5 Z"/></g>
<g><path style="opacity:1" fill="#838383" d="M 608.5,761.5 C 610.914,762.911 612.581,764.911 613.5,767.5C 611.086,766.089 609.419,764.089 608.5,761.5 Z"/></g>
<g><path style="opacity:1" fill="#9b9b9b" d="M 875.5,762.5 C 874.189,765.135 872.522,767.469 870.5,769.5C 871.069,766.281 872.736,763.948 875.5,762.5 Z"/></g>
<g><path style="opacity:1" fill="#676767" d="M 887.5,764.5 C 886.617,767.704 884.95,770.371 882.5,772.5C 883.383,769.296 885.05,766.629 887.5,764.5 Z"/></g>
<g><path style="opacity:1" fill="#898989" d="M 192.5,764.5 C 191.167,766.5 189.5,768.167 187.5,769.5C 188.167,766.833 189.833,765.167 192.5,764.5 Z"/></g>
<g><path style="opacity:1" fill="#5f5f5f" d="M 629.5,768.5 C 631.587,769.585 632.92,771.251 633.5,773.5C 631.413,772.415 630.08,770.749 629.5,768.5 Z"/></g>
<g><path style="opacity:1" fill="#7b7b7b" d="M 209.5,762.5 C 209.5,763.5 209.5,764.5 209.5,765.5C 204.94,768.223 201.107,771.889 198,776.5C 197.184,777.823 196.017,778.489 194.5,778.5C 198.845,772.491 203.845,767.157 209.5,762.5 Z"/></g>
<g><path style="opacity:1" fill="#828282" d="M 187.5,769.5 C 185.883,772.784 183.55,775.451 180.5,777.5C 182.146,774.19 184.48,771.523 187.5,769.5 Z"/></g>
<g><path style="opacity:1" fill="#545454" d="M 633.5,773.5 C 635.914,774.911 637.581,776.911 638.5,779.5C 636.086,778.089 634.419,776.089 633.5,773.5 Z"/></g>
<g><path style="opacity:1" fill="#969696" d="M 618.5,773.5 C 620.914,774.911 622.581,776.911 623.5,779.5C 621.086,778.089 619.419,776.089 618.5,773.5 Z"/></g>
<g><path style="opacity:1" fill="#a8a8a8" d="M 882.5,772.5 C 882.129,776.33 880.463,779.33 877.5,781.5C 877.5,780.833 877.5,780.167 877.5,779.5C 878.456,776.561 880.123,774.228 882.5,772.5 Z"/></g>
<g><path style="opacity:1" fill="#717171" d="M 867.5,775.5 C 865.697,778.883 863.364,781.883 860.5,784.5C 861.335,780.332 863.668,777.332 867.5,775.5 Z"/></g>
<g><path style="opacity:1" fill="#838383" d="M 180.5,777.5 C 178.109,782.279 174.776,786.279 170.5,789.5C 173.378,785.051 176.711,781.051 180.5,777.5 Z"/></g>
<g><path style="opacity:1" fill="#656565" d="M 877.5,779.5 C 877.5,780.167 877.5,780.833 877.5,781.5C 875.638,784.541 873.305,787.208 870.5,789.5C 872.344,785.808 874.677,782.475 877.5,779.5 Z"/></g>
<g><path style="opacity:1" fill="#949494" d="M 194.5,778.5 C 194.657,779.873 194.49,781.207 194,782.5C 191.002,784.668 188.169,787.001 185.5,789.5C 188.129,785.537 191.129,781.871 194.5,778.5 Z"/></g>
<g><path style="opacity:1" fill="#909090" d="M 860.5,784.5 C 859.189,787.135 857.522,789.469 855.5,791.5C 856.069,788.281 857.736,785.948 860.5,784.5 Z"/></g>
<g><path style="opacity:1" fill="#acacac" d="M 631.5,788.5 C 637.541,793.874 642.874,799.874 647.5,806.5C 641.088,801.423 635.755,795.423 631.5,788.5 Z"/></g>
<g><path style="opacity:1" fill="#6f6f6f" d="M 185.5,789.5 C 183.183,793.146 180.516,796.48 177.5,799.5C 179.088,795.251 181.755,791.918 185.5,789.5 Z"/></g>
<g><path style="opacity:1" fill="#8c8c8c" d="M 855.5,791.5 C 853.784,795.603 851.117,798.936 847.5,801.5C 849.708,797.723 852.375,794.39 855.5,791.5 Z"/></g>
<g><path style="opacity:1" fill="#5c5c5c" d="M 870.5,789.5 C 869.99,792.674 868.323,795.008 865.5,796.5C 866.786,793.883 868.453,791.55 870.5,789.5 Z"/></g>
<g><path style="opacity:1" fill="#3d3d3d" d="M 648.5,790.5 C 651.959,793.415 654.959,796.748 657.5,800.5C 655.629,800.141 654.129,799.141 653,797.5C 651.25,795.266 649.75,792.932 648.5,790.5 Z"/></g>
<g><path style="opacity:1" fill="#4b4b4b" d="M 657.5,800.5 C 663.5,805.833 669.167,811.5 674.5,817.5C 667.833,812.833 662.167,807.167 657.5,800.5 Z"/></g>
<g><path style="opacity:1" fill="#626262" d="M 865.5,796.5 C 864.99,799.674 863.323,802.008 860.5,803.5C 861.786,800.883 863.453,798.55 865.5,796.5 Z"/></g>
<g><path style="opacity:1" fill="#7c7c7c" d="M 165.5,796.5 C 162.909,801.421 159.576,805.755 155.5,809.5C 156.867,805.904 158.7,802.57 161,799.5C 162.4,798.252 163.9,797.252 165.5,796.5 Z"/></g>
<g><path style="opacity:1" fill="#6d6d6d" d="M 177.5,799.5 C 175.518,802.81 173.185,805.81 170.5,808.5C 171.75,804.592 174.083,801.592 177.5,799.5 Z"/></g>
<g><path style="opacity:1" fill="#9b9b9b" d="M 845.5,804.5 C 843.518,807.81 841.185,810.81 838.5,813.5C 839.75,809.592 842.083,806.592 845.5,804.5 Z"/></g>
<g><path style="opacity:1" fill="#6a6a6a" d="M 860.5,803.5 C 859.306,807.363 856.973,810.363 853.5,812.5C 855.458,809.208 857.791,806.208 860.5,803.5 Z"/></g>
<g><path style="opacity:1" fill="#6e6e6e" d="M 170.5,808.5 C 168.331,812.171 166.165,815.838 164,819.5C 162.296,821.373 160.463,823.04 158.5,824.5C 161.616,818.423 165.616,813.089 170.5,808.5 Z"/></g>
<g><path style="opacity:1" fill="#9d9d9d" d="M 656.5,815.5 C 658.5,816.833 660.167,818.5 661.5,820.5C 658.5,820.167 656.833,818.5 656.5,815.5 Z"/></g>
<g><path style="opacity:1" fill="#909090" d="M 679.5,821.5 C 681.749,822.08 683.415,823.413 684.5,825.5C 682.251,824.92 680.585,823.587 679.5,821.5 Z"/></g>
<g><path style="opacity:1" fill="#838383" d="M 852.5,813.5 C 849.699,819.421 845.699,824.421 840.5,828.5C 844.262,823.309 848.262,818.309 852.5,813.5 Z"/></g>
<g><path style="opacity:1" fill="#757575" d="M 833.5,818.5 C 829.5,824.5 824.5,829.5 818.5,833.5C 823.167,828.167 828.167,823.167 833.5,818.5 Z"/></g>
<g><path style="opacity:1" fill="#6c6c6c" d="M 158.5,825.5 C 157.994,828.671 156.328,831.004 153.5,832.5C 154.852,829.835 156.518,827.502 158.5,825.5 Z"/></g>
<g><path style="opacity:1" fill="#030303" d="M 722.5,831.5 C 732.172,831.334 741.839,831.5 751.5,832C 754.287,834.167 755.12,837.001 754,840.5C 753.097,841.701 751.931,842.535 750.5,843C 741.167,843.667 731.833,843.667 722.5,843C 718.555,839.169 718.555,835.336 722.5,831.5 Z"/></g>
<g><path style="opacity:1" fill="#070707" d="M 800.5,797.5 C 803.365,797.055 805.865,797.722 808,799.5C 809.118,804.726 809.618,810.059 809.5,815.5C 809.333,820.167 809.167,824.833 809,829.5C 806.772,831.968 803.938,833.135 800.5,833C 803.592,837.118 802.925,840.451 798.5,843C 789.167,843.667 779.833,843.667 770.5,843C 766.5,839.333 766.5,835.667 770.5,832C 779.851,831.832 789.184,831.332 798.5,830.5C 797.359,820.547 797.192,810.547 798,800.5C 798.698,799.309 799.531,798.309 800.5,797.5 Z"/></g>
<g><path style="opacity:1" fill="#797979" d="M 840.5,828.5 C 839.167,830.5 837.5,832.167 835.5,833.5C 836.167,830.833 837.833,829.167 840.5,828.5 Z"/></g>
<g><path style="opacity:1" fill="#7a7a7a" d="M 835.5,833.5 C 834.167,835.5 832.5,837.167 830.5,838.5C 831.167,835.833 832.833,834.167 835.5,833.5 Z"/></g>
<g><path style="opacity:1" fill="#5b5b5b" d="M 153.5,833.5 C 152.189,836.135 150.522,838.469 148.5,840.5C 149.069,837.281 150.736,834.948 153.5,833.5 Z"/></g>
<g><path style="opacity:1" fill="#808080" d="M 818.5,833.5 C 813.297,839.703 806.964,844.37 799.5,847.5C 805.828,842.84 812.161,838.174 818.5,833.5 Z"/></g>
<g><path style="opacity:1" fill="#9f9f9f" d="M 706.5,840.5 C 708.139,841.473 709.473,842.806 710.5,844.5C 708.606,843.952 706.94,842.952 705.5,841.5C 705.624,840.893 705.957,840.56 706.5,840.5 Z"/></g>
<g><path style="opacity:1" fill="#888888" d="M 830.5,838.5 C 829.415,840.587 827.749,841.92 825.5,842.5C 826.585,840.413 828.251,839.08 830.5,838.5 Z"/></g>
<g><path style="opacity:1" fill="#797979" d="M 825.5,842.5 C 823.827,845.167 821.493,847.167 818.5,848.5C 820.173,845.833 822.507,843.833 825.5,842.5 Z"/></g>
<g><path style="opacity:1" fill="#525252" d="M 148.5,841.5 C 147.65,843.603 146.65,845.603 145.5,847.5C 144.833,847.833 144.167,848.167 143.5,848.5C 144.069,845.281 145.736,842.948 148.5,841.5 Z"/></g>
<g><path style="opacity:1" fill="#9a9a9a" d="M 693.5,847.5 C 691.503,919.159 690.836,991.159 691.5,1063.5C 690.168,990.999 690.168,918.332 691.5,845.5C 692.522,845.855 693.189,846.522 693.5,847.5 Z"/></g>
<g><path style="opacity:1" fill="#fefefe" d="M 693.5,847.5 C 699.622,851.641 705.955,855.308 712.5,858.5C 716.062,861.023 720.062,862.69 724.5,863.5C 724.5,864.167 724.833,864.5 725.5,864.5C 728.047,865.999 730.714,867.499 733.5,869C 745.563,871.542 757.563,872.042 769.5,870.5C 774.45,870.23 779.117,869.23 783.5,867.5C 785.553,867.598 787.22,866.931 788.5,865.5C 791.577,865.821 793.91,864.821 795.5,862.5C 796.274,929.333 796.274,996.333 795.5,1063.5C 760.833,1063.5 726.167,1063.5 691.5,1063.5C 690.836,991.159 691.503,919.159 693.5,847.5 Z"/></g>
<g><path style="opacity:1" fill="#616161" d="M 818.5,848.5 C 816.469,850.522 814.135,852.189 811.5,853.5C 812.948,850.736 815.281,849.069 818.5,848.5 Z"/></g>
<g><path style="opacity:1" fill="#727272" d="M 714.5,846.5 C 717.238,846.706 719.572,847.706 721.5,849.5C 723.076,850.143 724.41,851.143 725.5,852.5C 721.342,851.328 717.675,849.328 714.5,846.5 Z"/></g>
<g><path style="opacity:1" fill="#b0b0b0" d="M 721.5,849.5 C 726.129,850.876 730.796,852.376 735.5,854C 736.056,854.383 736.389,854.883 736.5,855.5C 732.658,855.108 728.991,854.108 725.5,852.5C 724.41,851.143 723.076,850.143 721.5,849.5 Z"/></g>
<g><path style="opacity:1" fill="#707070" d="M 135.5,841.5 C 132.442,847.392 129.608,853.392 127,859.5C 126.051,861.093 124.885,862.426 123.5,863.5C 126.193,855.39 130.193,848.057 135.5,841.5 Z"/></g>
<g><path style="opacity:1" fill="#b9b9b9" d="M 145.5,847.5 C 145.005,849.482 144.505,851.482 144,853.5C 139.212,860.763 134.712,868.097 130.5,875.5C 130.995,873.518 131.495,871.518 132,869.5C 134.992,866.875 136.658,863.542 137,859.5C 139.818,856.209 141.984,852.542 143.5,848.5C 144.167,848.167 144.833,847.833 145.5,847.5 Z"/></g>
<g><path style="opacity:1" fill="#686868" d="M 782.5,855.5 C 780.142,857.129 777.476,858.295 774.5,859C 765.167,859.667 755.833,859.667 746.5,859C 745.584,858.722 744.918,858.222 744.5,857.5C 757.365,859.36 770.032,858.693 782.5,855.5 Z"/></g>
<g><path style="opacity:1" fill="#3c3c3c" d="M 712.5,858.5 C 717.459,858.378 721.459,860.045 724.5,863.5C 720.062,862.69 716.062,861.023 712.5,858.5 Z"/></g>
<g><path style="opacity:1" fill="#919191" d="M 795.5,862.5 C 793.91,864.821 791.577,865.821 788.5,865.5C 790.395,863.759 792.728,862.759 795.5,862.5 Z"/></g>
<g><path style="opacity:1" fill="#7c7c7c" d="M 123.5,863.5 C 123.245,865.967 122.245,867.967 120.5,869.5C 120.755,867.033 121.755,865.033 123.5,863.5 Z"/></g>
<g><path style="opacity:1" fill="#c3c3c3" d="M 725.5,864.5 C 732.466,866.394 739.466,868.228 746.5,870C 754.159,870.5 761.826,870.666 769.5,870.5C 757.563,872.042 745.563,871.542 733.5,869C 730.714,867.499 728.047,865.999 725.5,864.5 Z"/></g>
<g><path style="opacity:1" fill="#848484" d="M 783.5,867.5 C 779.117,869.23 774.45,870.23 769.5,870.5C 773.883,868.77 778.55,867.77 783.5,867.5 Z"/></g>
<g><path style="opacity:1" fill="#8b8b8b" d="M 120.5,869.5 C 120.66,871.199 120.494,872.866 120,874.5C 117.071,878.217 114.905,882.217 113.5,886.5C 114.86,880.415 117.194,874.748 120.5,869.5 Z"/></g>
<g><path style="opacity:1" fill="#b2b2b2" d="M 130.5,876.5 C 129.321,882.38 126.988,887.713 123.5,892.5C 124.06,886.309 126.394,880.976 130.5,876.5 Z"/></g>
<g><path style="opacity:1" fill="#9c9c9c" d="M 113.5,888.5 C 111.619,893.316 110.452,898.316 110,903.5C 109.617,904.056 109.117,904.389 108.5,904.5C 108.952,900.837 109.452,897.17 110,893.5C 110.902,891.569 112.069,889.903 113.5,888.5 Z"/></g>
<g><path style="opacity:1" fill="#a0a0a0" d="M 811.5,853.5 C 811.217,854.289 810.717,854.956 810,855.5C 809.831,869.339 809.331,883.006 808.5,896.5C 808.333,882.496 808.5,868.496 809,854.5C 809.671,853.748 810.504,853.414 811.5,853.5 Z"/></g>
<g><path style="opacity:1" fill="#b2b2b2" d="M 122.5,894.5 C 120.892,900.373 119.726,906.373 119,912.5C 117.696,916.97 114.863,919.97 110.5,921.5C 105.747,920.357 104.247,917.357 106,912.5C 106.374,910.509 107.207,908.842 108.5,907.5C 107.838,911.466 107.505,915.466 107.5,919.5C 110.707,919.876 113.373,918.876 115.5,916.5C 117.592,908.977 119.926,901.644 122.5,894.5 Z"/></g>
<g><path style="opacity:1" fill="#cc0c2a" d="M 1538.5,1125.5 C 1538.34,1128.52 1538.5,1131.52 1539,1134.5C 1546.05,1124.49 1555.22,1121.99 1566.5,1127C 1573.89,1132.62 1578.06,1140.12 1579,1149.5C 1580.76,1162.04 1578.43,1173.71 1572,1184.5C 1565.79,1190.9 1558.29,1193.07 1549.5,1191C 1545.48,1189.64 1541.98,1187.47 1539,1184.5C 1536.93,1185.78 1535.43,1187.61 1534.5,1190C 1528.84,1190.5 1523.18,1190.67 1517.5,1190.5C 1517.5,1161.17 1517.5,1131.83 1517.5,1102.5C 1524.5,1102.5 1531.5,1102.5 1538.5,1102.5C 1538.5,1110.17 1538.5,1117.83 1538.5,1125.5 Z"/></g>
<g><path style="opacity:1" fill="#db5266" d="M 1538.5,1125.5 C 1538.5,1117.83 1538.5,1110.17 1538.5,1102.5C 1531.5,1102.5 1524.5,1102.5 1517.5,1102.5C 1517.5,1131.83 1517.5,1161.17 1517.5,1190.5C 1516.5,1161 1516.17,1131.34 1516.5,1101.5C 1524.17,1101.5 1531.83,1101.5 1539.5,1101.5C 1539.83,1109.68 1539.49,1117.68 1538.5,1125.5 Z"/></g>
<g><path style="opacity:1" fill="#cc0f2b" d="M 676.5,1111.5 C 685.791,1110.68 694.791,1111.85 703.5,1115C 708.231,1117.96 711.398,1122.12 713,1127.5C 713.5,1144.16 713.667,1160.83 713.5,1177.5C 708.489,1177.67 703.489,1177.5 698.5,1177C 697.192,1174.2 695.526,1171.7 693.5,1169.5C 685.863,1177.58 676.53,1180.41 665.5,1178C 653.871,1171.8 650.038,1162.3 654,1149.5C 658.542,1142.47 665.042,1138.3 673.5,1137C 679.491,1136.5 685.491,1136.33 691.5,1136.5C 692.155,1132.65 690.821,1129.81 687.5,1128C 680.309,1127.01 673.475,1128.17 667,1131.5C 666.228,1131.36 665.561,1131.02 665,1130.5C 662.906,1126.2 661.239,1121.87 660,1117.5C 665.298,1114.64 670.798,1112.64 676.5,1111.5 Z"/></g>
<g><path style="opacity:1" fill="#5d9cef" d="M 1722.5,1113.5 C 1714.32,1113.17 1706.32,1113.51 1698.5,1114.5C 1697.96,1114.44 1697.62,1114.11 1697.5,1113.5C 1705.99,1112.18 1714.32,1112.18 1722.5,1113.5 Z"/></g>
<g><path style="opacity:1" fill="#5e9cef" d="M 1742.5,1113.5 C 1750.68,1112.18 1759.01,1112.18 1767.5,1113.5C 1767.38,1114.11 1767.04,1114.44 1766.5,1114.5C 1758.68,1113.51 1750.68,1113.17 1742.5,1113.5 Z"/></g>
<g><path style="opacity:1" fill="#2177e9" d="M 1722.5,1113.5 C 1725.82,1118.81 1729.16,1124.14 1732.5,1129.5C 1735.86,1124.1 1739.19,1118.77 1742.5,1113.5C 1750.68,1113.17 1758.68,1113.51 1766.5,1114.5C 1760.19,1124.48 1753.86,1134.48 1747.5,1144.5C 1754.62,1155.25 1761.62,1166.08 1768.5,1177C 1759.81,1177.83 1751.15,1177.67 1742.5,1176.5C 1739.25,1170.34 1735.75,1164.34 1732,1158.5C 1728.63,1164.75 1725.13,1170.91 1721.5,1177C 1713.15,1177.83 1704.81,1177.67 1696.5,1176.5C 1703.6,1166.08 1710.27,1155.41 1716.5,1144.5C 1710.5,1134.51 1704.5,1124.51 1698.5,1114.5C 1706.32,1113.51 1714.32,1113.17 1722.5,1113.5 Z"/></g>
<g><path style="opacity:1" fill="#fefbfb" d="M 1544.5,1142.5 C 1550.49,1141.33 1554.33,1143.67 1556,1149.5C 1556.67,1154.83 1556.67,1160.17 1556,1165.5C 1554.75,1172.1 1550.92,1174.6 1544.5,1173C 1542.19,1171.36 1540.69,1169.2 1540,1166.5C 1539.33,1160.5 1539.33,1154.5 1540,1148.5C 1540.8,1145.85 1542.3,1143.85 1544.5,1142.5 Z"/></g>
<g><path style="opacity:1" fill="#fdf7f8" d="M 682.5,1148.5 C 685.5,1148.5 688.5,1148.5 691.5,1148.5C 692.843,1159.32 688.176,1163.82 677.5,1162C 675.653,1159.42 675.153,1156.59 676,1153.5C 677.965,1151.45 680.132,1149.78 682.5,1148.5 Z"/></g>
</svg>
