<?xml version="1.0" encoding="UTF-8"?>
<!DOCTYPE svg PUBLIC "-//W3C//DTD SVG 1.1//EN" "http://www.w3.org/Graphics/SVG/1.1/DTD/svg11.dtd">
<svg xmlns="http://www.w3.org/2000/svg" version="1.1" width="512px" height="512px" style="shape-rendering:geometricPrecision; text-rendering:geometricPrecision; image-rendering:optimizeQuality; fill-rule:evenodd; clip-rule:evenodd" xmlns:xlink="http://www.w3.org/1999/xlink">
<g><path style="opacity:0.985" fill="#e3c6f2" d="M 192.5,40.5 C 171.327,40.8306 150.327,40.4973 129.5,39.5C 140.771,28.3896 149.938,15.7229 157,1.5C 159.916,-0.013479 162.582,0.319854 165,2.5C 172.462,16.434 181.629,29.1007 192.5,40.5 Z"/></g>
<g><path style="opacity:0.989" fill="#dcbaef" d="M 129.5,39.5 C 150.327,40.4973 171.327,40.8306 192.5,40.5C 202.278,48.6102 212.611,55.9435 223.5,62.5C 181.337,63.4987 139.003,63.832 96.5,63.5C 108.597,57.0793 119.597,49.0793 129.5,39.5 Z"/></g>
<g><path style="opacity:0.994" fill="#d8b2ed" d="M 223.5,62.5 C 238.378,68.8155 238.045,74.4822 222.5,79.5C 181.876,80.4885 141.209,80.8219 100.5,80.5C 96.4023,78.9523 92.4023,77.1189 88.5,75C 85.8333,72.3333 85.8333,69.6667 88.5,67C 91.0711,65.5462 93.7378,64.3795 96.5,63.5C 139.003,63.832 181.337,63.4987 223.5,62.5 Z"/></g>
<g><path style="opacity:0.993" fill="#fdefad" d="M 73.5,174.5 C 73.2627,175.791 73.596,176.791 74.5,177.5C 76.2495,181.335 78.2495,185.001 80.5,188.5C 88.6374,203.763 99.9708,206.597 114.5,197C 116.82,194.522 118.486,191.689 119.5,188.5C 122.669,184.167 125.336,179.5 127.5,174.5C 130.669,170.167 133.336,165.5 135.5,160.5C 138.54,157.086 140.54,153.086 141.5,148.5C 145.071,143.033 148.404,137.367 151.5,131.5C 154.147,134.764 156.814,138.097 159.5,141.5C 162.167,144.833 165.167,147.833 168.5,150.5C 171.833,154.5 175.5,158.167 179.5,161.5C 182.833,165.167 186.167,168.833 189.5,172.5C 180.55,194.065 171.883,215.731 163.5,237.5C 153.869,247.632 144.036,257.632 134,267.5C 133.209,268.745 132.709,270.078 132.5,271.5C 131.833,271.5 131.5,271.833 131.5,272.5C 128.492,269.789 125.492,267.122 122.5,264.5C 119.833,261.167 116.833,258.167 113.5,255.5C 113.063,253.926 112.063,252.759 110.5,252C 100.881,247.542 92.2145,241.709 84.5,234.5C 76.7094,226.927 70.376,218.261 65.5,208.5C 63.3886,207.152 61.5553,207.485 60,209.5C 55.4506,218.205 49.9506,226.205 43.5,233.5C 39.8151,236.191 36.1484,238.858 32.5,241.5C 21.8118,190.226 11.3118,138.893 1,87.5C -1.33554,74.9366 3.49779,70.6033 15.5,74.5C 34.8601,107.896 54.1934,141.23 73.5,174.5 Z"/></g>
<g><path style="opacity:0.993" fill="#fed404" d="M 462.5,322.5 C 457.082,317.188 452.748,311.022 449.5,304C 447.633,303.289 446.133,303.789 445,305.5C 443.741,308.356 442.241,311.023 440.5,313.5C 411.995,313.831 383.662,313.498 355.5,312.5C 362.131,305.368 368.964,298.368 376,291.5C 377.845,289.133 379.011,286.467 379.5,283.5C 381.329,278 380.329,273 376.5,268.5C 375.92,266.251 374.587,264.585 372.5,263.5C 369.833,260.167 366.833,257.167 363.5,254.5C 361.5,251.833 359.167,249.5 356.5,247.5C 353.133,244.675 352.633,241.342 355,237.5C 363.685,216.146 372.851,195.146 382.5,174.5C 385.5,179.167 388.5,183.833 391.5,188.5C 398.097,202.422 408.43,205.922 422.5,199C 426.15,196.191 428.817,192.691 430.5,188.5C 432.75,185.001 434.75,181.335 436.5,177.5C 437.404,176.791 437.737,175.791 437.5,174.5C 456.807,141.23 476.14,107.896 495.5,74.5C 507.502,70.6033 512.336,74.9366 510,87.5C 493.972,165.808 478.138,244.141 462.5,322.5 Z"/></g>
<g><path style="opacity:0.99" fill="#fde88f" d="M 278.5,90.5 C 263.167,90.5 247.833,90.5 232.5,90.5C 247.833,66.5 263.167,66.5 278.5,90.5 Z"/></g>
<g><path style="opacity:0.988" fill="#d3a9eb" d="M 222.5,79.5 C 217.011,83.4703 211.344,87.3037 205.5,91C 199.961,96.0435 194.294,100.877 188.5,105.5C 170.136,104.847 152.136,105.513 134.5,107.5C 124.294,96.9473 112.961,87.9473 100.5,80.5C 141.209,80.8219 181.876,80.4885 222.5,79.5 Z"/></g>
<g><path style="opacity:0.989" fill="#fde381" d="M 232.5,90.5 C 247.833,90.5 263.167,90.5 278.5,90.5C 282.18,94.183 285.514,98.183 288.5,102.5C 277.574,103.156 266.574,103.489 255.5,103.5C 244.478,103.499 233.812,102.832 223.5,101.5C 226.152,97.5181 229.152,93.8514 232.5,90.5 Z"/></g>
<g><path style="opacity:0.999" fill="#fde263" d="M 330.5,108.5 C 320.678,125.473 310.845,142.473 301,159.5C 298.112,164.776 294.612,169.609 290.5,174C 272.152,215.843 253.819,258.51 235.5,302C 239.618,305.776 243.284,309.776 246.5,314C 245.833,314.333 245.167,314.667 244.5,315C 248.157,314.892 251.823,314.892 255.5,315C 256.167,316.333 257.167,317.333 258.5,318C 258.167,318.333 257.833,318.667 257.5,319C 260.091,321.357 261.758,324.191 262.5,327.5C 261.078,327.75 260.078,328.583 259.5,330C 252.815,330.798 246.148,331.632 239.5,332.5C 240.357,330.138 240.691,327.804 240.5,325.5C 239.833,324.833 239.167,324.167 238.5,323.5C 239.833,322.5 239.833,321.5 238.5,320.5C 234.745,318.817 231.578,319.484 229,322.5C 227.286,321.924 226.119,320.757 225.5,319C 226.214,317.657 225.88,316.324 224.5,315C 225.167,314.667 225.833,314.333 226.5,314C 223.956,310.181 221.289,306.014 218.5,301.5C 219.513,298.812 220.513,296.146 221.5,293.5C 225.588,288.229 227.255,282.229 226.5,275.5C 226.029,273.421 225.363,271.421 224.5,269.5C 231.193,251.14 238.86,233.64 247.5,217C 249.257,214.154 251.257,211.488 253.5,209C 253.167,208.667 252.833,208.333 252.5,208C 254.607,206.736 255.607,204.903 255.5,202.5C 265.467,201.855 272.133,196.855 275.5,187.5C 278.323,183.864 280.656,179.864 282.5,175.5C 284.071,173.365 285.404,171.032 286.5,168.5C 289.227,164.423 291.561,160.09 293.5,155.5C 297.575,150.363 300.908,144.696 303.5,138.5C 305.474,135.23 307.474,131.897 309.5,128.5C 309.137,127.817 308.804,127.15 308.5,126.5C 312.212,120.973 316.545,115.806 321.5,111C 324.312,109.451 327.312,108.618 330.5,108.5 Z"/></g>
<g><path style="opacity:0.999" fill="#fde156" d="M 344.5,111.5 C 341.606,112.882 339.106,114.882 337,117.5C 329.989,130.512 322.156,143.012 313.5,155C 293.117,203.729 272.45,252.729 251.5,302C 256.247,306.02 260.914,310.02 265.5,314C 265.167,314.333 264.833,314.667 264.5,315C 266.5,317.667 268.833,320 271.5,322C 271.167,322.333 270.833,322.667 270.5,323C 271.623,324.044 272.956,324.71 274.5,325C 273.944,325.383 273.611,325.883 273.5,326.5C 269.865,327.114 266.198,327.448 262.5,327.5C 261.758,324.191 260.091,321.357 257.5,319C 257.833,318.667 258.167,318.333 258.5,318C 257.167,317.333 256.167,316.333 255.5,315C 251.823,314.892 248.157,314.892 244.5,315C 245.167,314.667 245.833,314.333 246.5,314C 243.284,309.776 239.618,305.776 235.5,302C 253.819,258.51 272.152,215.843 290.5,174C 294.612,169.609 298.112,164.776 301,159.5C 310.845,142.473 320.678,125.473 330.5,108.5C 335.577,107.568 340.243,108.568 344.5,111.5 Z"/></g>
<g><path style="opacity:0.993" fill="#cd9de7" d="M 188.5,105.5 C 188.267,107.062 187.6,108.395 186.5,109.5C 184.284,110.203 182.451,111.536 181,113.5C 174.918,121.325 169.585,129.658 165,138.5C 163.736,140.607 161.903,141.607 159.5,141.5C 156.814,138.097 154.147,134.764 151.5,131.5C 146.636,122.963 140.969,114.963 134.5,107.5C 152.136,105.513 170.136,104.847 188.5,105.5 Z"/></g>
<g><path style="opacity:0.998" fill="#fdda70" d="M 223.5,101.5 C 233.812,102.832 244.478,103.499 255.5,103.5C 266.574,103.489 277.574,103.156 288.5,102.5C 293.49,108.46 298.49,114.46 303.5,120.5C 287.572,121.159 271.572,121.493 255.5,121.5C 239.485,121.499 223.819,120.833 208.5,119.5C 213.034,113.091 218.034,107.091 223.5,101.5 Z"/></g>
<g><path style="opacity:0.999" fill="#fddd43" d="M 346.5,112.5 C 349.547,114.918 351.88,117.918 353.5,121.5C 333.982,166.546 314.982,211.88 296.5,257.5C 291.733,261.769 287.9,266.769 285,272.5C 284.501,276.821 284.334,281.154 284.5,285.5C 281.642,290.577 279.476,295.91 278,301.5C 284.591,306.546 291.091,311.713 297.5,317C 305.286,316.395 311.953,318.728 317.5,324C 318.793,324.49 320.127,324.657 321.5,324.5C 323.746,325.455 326.079,326.122 328.5,326.5C 331.167,326.5 333.833,326.5 336.5,326.5C 335.365,327.474 334.365,328.641 333.5,330C 328.332,330.433 323.332,331.267 318.5,332.5C 314.624,333.059 310.791,333.725 307,334.5C 303.441,331.315 300.607,328.148 298.5,325C 294.114,322.303 289.447,321.803 284.5,323.5C 281.698,320.533 278.698,317.7 275.5,315C 276.833,314.333 276.833,313.667 275.5,313C 270.366,309.695 265.699,305.695 261.5,301C 283,249.833 304.5,198.667 326,147.5C 333.12,135.909 339.953,124.242 346.5,112.5 Z"/></g>
<g><path style="opacity:1" fill="#fec678" d="M 186.5,109.5 C 191.919,111.918 195.585,115.918 197.5,121.5C 189.091,131.413 180.091,140.913 170.5,150C 169.906,150.464 169.239,150.631 168.5,150.5C 165.167,147.833 162.167,144.833 159.5,141.5C 161.903,141.607 163.736,140.607 165,138.5C 169.585,129.658 174.918,121.325 181,113.5C 182.451,111.536 184.284,110.203 186.5,109.5 Z"/></g>
<g><path style="opacity:1" fill="#fdd569" d="M 123.5,131.5 C 106.881,130.529 90.214,130.195 73.5,130.5C 73.9627,110.529 83.6294,103.695 102.5,110C 109.703,117.035 116.703,124.202 123.5,131.5 Z"/></g>
<g><path style="opacity:1" fill="#fdd569" d="M 437.5,130.5 C 421.167,130.5 404.833,130.5 388.5,130.5C 394.964,123.535 401.631,116.702 408.5,110C 427.371,103.695 437.037,110.529 437.5,130.5 Z"/></g>
<g><path style="opacity:1" fill="#fed084" d="M 197.5,121.5 C 199.074,122.984 200.407,124.651 201.5,126.5C 201.957,129.406 202.957,132.072 204.5,134.5C 204.649,135.552 204.483,136.552 204,137.5C 195.965,145.702 187.798,153.702 179.5,161.5C 175.5,158.167 171.833,154.5 168.5,150.5C 169.239,150.631 169.906,150.464 170.5,150C 180.091,140.913 189.091,131.413 197.5,121.5 Z"/></g>
<g><path style="opacity:0.994" fill="#fedc37" d="M 353.5,121.5 C 356.833,127.5 360.167,133.5 363.5,139.5C 349.928,170.32 336.595,201.32 323.5,232.5C 314.225,240.438 305.225,248.771 296.5,257.5C 314.982,211.88 333.982,166.546 353.5,121.5 Z"/></g>
<g><path style="opacity:1" fill="#fed062" d="M 208.5,119.5 C 223.819,120.833 239.485,121.499 255.5,121.5C 271.572,121.493 287.572,121.159 303.5,120.5C 305.137,122.475 306.804,124.475 308.5,126.5C 308.804,127.15 309.137,127.817 309.5,128.5C 307.474,131.897 305.474,135.23 303.5,138.5C 271.5,137.167 239.5,137.167 207.5,138.5C 206.5,137.167 205.5,135.833 204.5,134.5C 202.957,132.072 201.957,129.406 201.5,126.5C 204.194,124.473 206.527,122.139 208.5,119.5 Z"/></g>
<g><path style="opacity:1" fill="#fde04d" d="M 344.5,111.5 C 345.167,111.833 345.833,112.167 346.5,112.5C 339.953,124.242 333.12,135.909 326,147.5C 304.5,198.667 283,249.833 261.5,301C 265.699,305.695 270.366,309.695 275.5,313C 276.833,313.667 276.833,314.333 275.5,315C 278.698,317.7 281.698,320.533 284.5,323.5C 282.473,323.338 280.473,323.505 278.5,324C 281.167,324.333 283.833,324.667 286.5,325C 282.49,325.501 278.49,326.001 274.5,326.5C 274.167,326.5 273.833,326.5 273.5,326.5C 273.611,325.883 273.944,325.383 274.5,325C 272.956,324.71 271.623,324.044 270.5,323C 270.833,322.667 271.167,322.333 271.5,322C 268.833,320 266.5,317.667 264.5,315C 264.833,314.667 265.167,314.333 265.5,314C 260.914,310.02 256.247,306.02 251.5,302C 272.45,252.729 293.117,203.729 313.5,155C 322.156,143.012 329.989,130.512 337,117.5C 339.106,114.882 341.606,112.882 344.5,111.5 Z"/></g>
<g><path style="opacity:1" fill="#feca5b" d="M 73.5,130.5 C 90.214,130.195 106.881,130.529 123.5,131.5C 128.5,135.833 133.167,140.5 137.5,145.5C 116.576,146.488 95.5755,146.821 74.5,146.5C 74.8195,141.637 74.4861,136.97 73.5,132.5C 73.5,131.833 73.5,131.167 73.5,130.5 Z"/></g>
<g><path style="opacity:1" fill="#fec556" d="M 303.5,138.5 C 300.908,144.696 297.575,150.363 293.5,155.5C 268.167,154.167 242.833,154.167 217.5,155.5C 213.929,150.033 210.596,144.367 207.5,138.5C 239.5,137.167 271.5,137.167 303.5,138.5 Z"/></g>
<g><path style="opacity:1" fill="#fec657" d="M 388.5,130.5 C 404.833,130.5 421.167,130.5 437.5,130.5C 437.5,139.167 437.5,147.833 437.5,156.5C 426.726,155.189 415.726,154.522 404.5,154.5C 393.661,154.5 382.995,154.833 372.5,155.5C 370.707,153.574 369.707,151.241 369.5,148.5C 375.833,142.5 382.167,136.5 388.5,130.5 Z"/></g>
<g><path style="opacity:1" fill="#fddb8d" d="M 204.5,134.5 C 205.5,135.833 206.5,137.167 207.5,138.5C 210.596,144.367 213.929,150.033 217.5,155.5C 218.227,157.954 219.227,160.287 220.5,162.5C 213.278,166.15 206.778,171.483 201,178.5C 200.667,178.167 200.333,177.833 200,177.5C 199.292,178.381 198.458,179.047 197.5,179.5C 194.833,177.167 192.167,174.833 189.5,172.5C 186.167,168.833 182.833,165.167 179.5,161.5C 187.798,153.702 195.965,145.702 204,137.5C 204.483,136.552 204.649,135.552 204.5,134.5 Z"/></g>
<g><path style="opacity:1" fill="#fec050" d="M 73.5,132.5 C 74.4861,136.97 74.8195,141.637 74.5,146.5C 95.5755,146.821 116.576,146.488 137.5,145.5C 138.833,146.5 140.167,147.5 141.5,148.5C 140.54,153.086 138.54,157.086 135.5,160.5C 115.167,160.5 94.8333,160.5 74.5,160.5C 74.5,164.833 74.5,169.167 74.5,173.5C 74.5,174.833 74.5,176.167 74.5,177.5C 73.596,176.791 73.2627,175.791 73.5,174.5C 73.5,160.5 73.5,146.5 73.5,132.5 Z"/></g>
<g><path style="opacity:1" fill="#feba4c" d="M 293.5,155.5 C 291.561,160.09 289.227,164.423 286.5,168.5C 276.522,167.168 266.189,166.501 255.5,166.5C 244.811,166.501 234.478,167.168 224.5,168.5C 223.167,166.5 221.833,164.5 220.5,162.5C 219.227,160.287 218.227,157.954 217.5,155.5C 242.833,154.167 268.167,154.167 293.5,155.5 Z"/></g>
<g><path style="opacity:1" fill="#feba4c" d="M 437.5,156.5 C 437.5,162.5 437.5,168.5 437.5,174.5C 437.737,175.791 437.404,176.791 436.5,177.5C 436.5,173.833 436.5,170.167 436.5,166.5C 417.326,166.17 398.326,166.503 379.5,167.5C 376.677,163.864 374.344,159.864 372.5,155.5C 382.995,154.833 393.661,154.5 404.5,154.5C 415.726,154.522 426.726,155.189 437.5,156.5 Z"/></g>
<g><path style="opacity:1" fill="#fed922" d="M 363.5,139.5 C 365.252,142.672 367.252,145.672 369.5,148.5C 369.707,151.241 370.707,153.574 372.5,155.5C 374.344,159.864 376.677,163.864 379.5,167.5C 380.242,169.98 381.242,172.313 382.5,174.5C 372.851,195.146 363.685,216.146 355,237.5C 352.633,241.342 353.133,244.675 356.5,247.5C 337.418,265.08 318.752,283.246 300.5,302C 296.183,299.869 292.516,296.702 289.5,292.5C 308.915,274.587 327.915,256.087 346.5,237C 339.656,231.618 331.99,230.118 323.5,232.5C 336.595,201.32 349.928,170.32 363.5,139.5 Z"/></g>
<g><path style="opacity:1" fill="#feb448" d="M 135.5,160.5 C 133.336,165.5 130.669,170.167 127.5,174.5C 110.008,173.503 92.3412,173.17 74.5,173.5C 74.5,169.167 74.5,164.833 74.5,160.5C 94.8333,160.5 115.167,160.5 135.5,160.5 Z"/></g>
<g><path style="opacity:1" fill="#feb246" d="M 286.5,168.5 C 285.404,171.032 284.071,173.365 282.5,175.5C 264.5,174.167 246.5,174.167 228.5,175.5C 226.929,173.365 225.596,171.032 224.5,168.5C 234.478,167.168 244.811,166.501 255.5,166.5C 266.189,166.501 276.522,167.168 286.5,168.5 Z"/></g>
<g><path style="opacity:1" fill="#feac42" d="M 436.5,177.5 C 434.75,181.335 432.75,185.001 430.5,188.5C 417.5,187.167 404.5,187.167 391.5,188.5C 388.5,183.833 385.5,179.167 382.5,174.5C 381.242,172.313 380.242,169.98 379.5,167.5C 398.326,166.503 417.326,166.17 436.5,166.5C 436.5,170.167 436.5,173.833 436.5,177.5 Z"/></g>
<g><path style="opacity:1" fill="#feeea1" d="M 189.5,172.5 C 192.167,174.833 194.833,177.167 197.5,179.5C 198.122,180.627 198.955,181.627 200,182.5C 200.667,183.833 200.667,185.167 200,186.5C 194.219,201.181 188.052,215.681 181.5,230C 179.292,230.191 177.292,230.691 175.5,231.5C 170.828,232.176 166.828,234.176 163.5,237.5C 171.883,215.731 180.55,194.065 189.5,172.5 Z"/></g>
<g><path style="opacity:1" fill="#fea841" d="M 74.5,173.5 C 92.3412,173.17 110.008,173.503 127.5,174.5C 125.336,179.5 122.669,184.167 119.5,188.5C 106.5,187.167 93.5,187.167 80.5,188.5C 78.2495,185.001 76.2495,181.335 74.5,177.5C 74.5,176.167 74.5,174.833 74.5,173.5 Z"/></g>
<g><path style="opacity:1" fill="#fea740" d="M 282.5,175.5 C 280.656,179.864 278.323,183.864 275.5,187.5C 262.167,187.5 248.833,187.5 235.5,187.5C 234.407,185.651 233.074,183.984 231.5,182.5C 230.773,180.046 229.773,177.713 228.5,175.5C 246.5,174.167 264.5,174.167 282.5,175.5 Z"/></g>
<g><path style="opacity:1" fill="#fde992" d="M 220.5,162.5 C 221.833,164.5 223.167,166.5 224.5,168.5C 225.596,171.032 226.929,173.365 228.5,175.5C 229.773,177.713 230.773,180.046 231.5,182.5C 229.495,183.254 228.828,184.421 229.5,186C 229.311,188.295 227.977,190.295 225.5,192C 225.5,193.333 225.5,194.667 225.5,196C 223.548,198.074 221.715,200.241 220,202.5C 218.439,200.027 216.439,198.027 214,196.5C 207.953,209.3 202.286,222.3 197,235.5C 196.623,236.942 195.79,237.942 194.5,238.5C 193.5,237.833 192.5,237.167 191.5,236.5C 189.88,234.016 187.547,232.516 184.5,232C 181.518,231.502 178.518,231.335 175.5,231.5C 177.292,230.691 179.292,230.191 181.5,230C 188.052,215.681 194.219,201.181 200,186.5C 200.667,185.167 200.667,183.833 200,182.5C 198.955,181.627 198.122,180.627 197.5,179.5C 198.458,179.047 199.292,178.381 200,177.5C 200.333,177.833 200.667,178.167 201,178.5C 206.778,171.483 213.278,166.15 220.5,162.5 Z"/></g>
<g><path style="opacity:1" fill="#fe9b3b" d="M 119.5,188.5 C 118.486,191.689 116.82,194.522 114.5,197C 99.9708,206.597 88.6374,203.763 80.5,188.5C 93.5,187.167 106.5,187.167 119.5,188.5 Z"/></g>
<g><path style="opacity:1" fill="#fe9c3a" d="M 235.5,187.5 C 248.833,187.5 262.167,187.5 275.5,187.5C 272.133,196.855 265.467,201.855 255.5,202.5C 251.536,202.511 247.869,201.511 244.5,199.5C 240.055,196.621 237.055,192.621 235.5,187.5 Z"/></g>
<g><path style="opacity:1" fill="#fe9b38" d="M 430.5,188.5 C 428.817,192.691 426.15,196.191 422.5,199C 408.43,205.922 398.097,202.422 391.5,188.5C 404.5,187.167 417.5,187.167 430.5,188.5 Z"/></g>
<g><path style="opacity:1" fill="#fee674" d="M 244.5,199.5 C 247.869,201.511 251.536,202.511 255.5,202.5C 255.607,204.903 254.607,206.736 252.5,208C 252.833,208.333 253.167,208.667 253.5,209C 251.257,211.488 249.257,214.154 247.5,217C 238.86,233.64 231.193,251.14 224.5,269.5C 223.571,268.064 222.405,266.731 221,265.5C 208.833,277.667 196.667,289.833 184.5,302C 179.7,304.81 175.2,307.977 171,311.5C 168.611,309.606 166.444,307.606 164.5,305.5C 163.833,304.833 163.167,304.167 162.5,303.5C 179.47,288.197 195.803,272.197 211.5,255.5C 212.117,255.611 212.617,255.944 213,256.5C 218.897,242.374 225.063,228.374 231.5,214.5C 232.814,215.313 233.981,216.313 235,217.5C 237,212.833 239,208.167 241,203.5C 242.758,202.531 243.258,201.364 242.5,200C 243.094,199.536 243.761,199.369 244.5,199.5 Z"/></g>
<g><path style="opacity:1" fill="#fde882" d="M 231.5,182.5 C 233.074,183.984 234.407,185.651 235.5,187.5C 237.055,192.621 240.055,196.621 244.5,199.5C 243.761,199.369 243.094,199.536 242.5,200C 243.258,201.364 242.758,202.531 241,203.5C 239,208.167 237,212.833 235,217.5C 233.981,216.313 232.814,215.313 231.5,214.5C 225.063,228.374 218.897,242.374 213,256.5C 212.617,255.944 212.117,255.611 211.5,255.5C 209.167,253.5 206.833,251.5 204.5,249.5C 201.167,245.833 197.833,242.167 194.5,238.5C 195.79,237.942 196.623,236.942 197,235.5C 202.286,222.3 207.953,209.3 214,196.5C 216.439,198.027 218.439,200.027 220,202.5C 221.715,200.241 223.548,198.074 225.5,196C 225.5,194.667 225.5,193.333 225.5,192C 227.977,190.295 229.311,188.295 229.5,186C 228.828,184.421 229.495,183.254 231.5,182.5 Z"/></g>
<g><path style="opacity:1" fill="#a7facb" d="M 84.5,234.5 C 70.6565,234.829 56.9898,234.496 43.5,233.5C 49.9506,226.205 55.4506,218.205 60,209.5C 61.5553,207.485 63.3886,207.152 65.5,208.5C 70.376,218.261 76.7094,226.927 84.5,234.5 Z"/></g>
<g><path style="opacity:1" fill="#fedd3c" d="M 175.5,231.5 C 178.518,231.335 181.518,231.502 184.5,232C 187.547,232.516 189.88,234.016 191.5,236.5C 175.833,252.833 159.833,268.833 143.5,284.5C 139.896,281.398 136.396,278.065 133,274.5C 132.517,273.552 132.351,272.552 132.5,271.5C 132.709,270.078 133.209,268.745 134,267.5C 144.036,257.632 153.869,247.632 163.5,237.5C 166.828,234.176 170.828,232.176 175.5,231.5 Z"/></g>
<g><path style="opacity:1" fill="#fed408" d="M 289.5,292.5 C 287.588,290.343 285.921,288.009 284.5,285.5C 284.334,281.154 284.501,276.821 285,272.5C 287.9,266.769 291.733,261.769 296.5,257.5C 305.225,248.771 314.225,240.438 323.5,232.5C 331.99,230.118 339.656,231.618 346.5,237C 327.915,256.087 308.915,274.587 289.5,292.5 Z"/></g>
<g><path style="opacity:1" fill="#fee154" d="M 191.5,236.5 C 192.5,237.167 193.5,237.833 194.5,238.5C 197.833,242.167 201.167,245.833 204.5,249.5C 188.833,265.833 172.833,281.833 156.5,297.5C 151.833,293.5 147.5,289.167 143.5,284.5C 159.833,268.833 175.833,252.833 191.5,236.5 Z"/></g>
<g><path style="opacity:1" fill="#fddc36" d="M 356.5,247.5 C 359.167,249.5 361.5,251.833 363.5,254.5C 344.868,272.632 326.368,290.965 308,309.5C 309.794,313.481 312.627,316.814 316.5,319.5C 317.579,321.543 319.246,322.876 321.5,323.5C 321.5,323.833 321.5,324.167 321.5,324.5C 320.127,324.657 318.793,324.49 317.5,324C 311.953,318.728 305.286,316.395 297.5,317C 291.091,311.713 284.591,306.546 278,301.5C 279.476,295.91 281.642,290.577 284.5,285.5C 285.921,288.009 287.588,290.343 289.5,292.5C 292.516,296.702 296.183,299.869 300.5,302C 318.752,283.246 337.418,265.08 356.5,247.5 Z"/></g>
<g><path style="opacity:0.992" fill="#88eaba" d="M 43.5,233.5 C 56.9898,234.496 70.6565,234.829 84.5,234.5C 92.2145,241.709 100.881,247.542 110.5,252C 112.063,252.759 113.063,253.926 113.5,255.5C 113.586,256.496 113.252,257.329 112.5,258C 107.679,260.243 103.012,262.743 98.5,265.5C 74.6725,264.502 50.6725,264.169 26.5,264.5C 22.0778,262.594 17.7444,260.428 13.5,258C 12.4464,256.612 12.2797,255.112 13,253.5C 19.7788,249.865 26.2788,245.865 32.5,241.5C 36.1484,238.858 39.8151,236.191 43.5,233.5 Z"/></g>
<g><path style="opacity:1" fill="#fee464" d="M 204.5,249.5 C 206.833,251.5 209.167,253.5 211.5,255.5C 195.803,272.197 179.47,288.197 162.5,303.5C 160.833,301.167 158.833,299.167 156.5,297.5C 172.833,281.833 188.833,265.833 204.5,249.5 Z"/></g>
<g><path style="opacity:1" fill="#fee04c" d="M 363.5,254.5 C 366.833,257.167 369.833,260.167 372.5,263.5C 353.5,281.833 334.833,300.5 316.5,319.5C 312.627,316.814 309.794,313.481 308,309.5C 326.368,290.965 344.868,272.632 363.5,254.5 Z"/></g>
<g><path style="opacity:1" fill="#fdb965" d="M 113.5,255.5 C 116.833,258.167 119.833,261.167 122.5,264.5C 106.623,273.691 90.79,283.024 75,292.5C 73.9701,292.164 73.4701,291.497 73.5,290.5C 74.075,288.589 75.075,286.922 76.5,285.5C 82.8841,277.782 90.2174,271.116 98.5,265.5C 103.012,262.743 107.679,260.243 112.5,258C 113.252,257.329 113.586,256.496 113.5,255.5 Z"/></g>
<g><path style="opacity:1" fill="#fee25c" d="M 372.5,263.5 C 374.587,264.585 375.92,266.251 376.5,268.5C 357.833,286.5 339.5,304.833 321.5,323.5C 319.246,322.876 317.579,321.543 316.5,319.5C 334.833,300.5 353.5,281.833 372.5,263.5 Z"/></g>
<g><path style="opacity:0.989" fill="#6edbab" d="M 26.5,264.5 C 50.6725,264.169 74.6725,264.502 98.5,265.5C 90.2174,271.116 82.8841,277.782 76.5,285.5C 72.3861,284.174 67.8861,283.507 63,283.5C 58.3205,283.501 53.8205,283.834 49.5,284.5C 46.5271,280.86 43.1938,277.527 39.5,274.5C 34.9476,271.397 30.6143,268.064 26.5,264.5 Z"/></g>
<g><path style="opacity:1" fill="#fee468" d="M 376.5,268.5 C 380.329,273 381.329,278 379.5,283.5C 379.664,280.813 379.497,278.146 379,275.5C 361.965,292.368 345.132,309.368 328.5,326.5C 326.079,326.122 323.746,325.455 321.5,324.5C 321.5,324.167 321.5,323.833 321.5,323.5C 339.5,304.833 357.833,286.5 376.5,268.5 Z"/></g>
<g><path style="opacity:1" fill="#fde883" d="M 224.5,269.5 C 225.363,271.421 226.029,273.421 226.5,275.5C 225.883,275.389 225.383,275.056 225,274.5C 211.524,289.151 197.024,302.484 181.5,314.5C 177.425,316.061 173.758,315.394 170.5,312.5C 169.636,314.197 168.303,315.363 166.5,316C 166.833,316.333 167.167,316.667 167.5,317C 166.016,317.662 164.683,318.496 163.5,319.5C 159.833,316.5 156.5,313.167 153.5,309.5C 157.069,307.881 160.736,306.548 164.5,305.5C 166.444,307.606 168.611,309.606 171,311.5C 175.2,307.977 179.7,304.81 184.5,302C 196.667,289.833 208.833,277.667 221,265.5C 222.405,266.731 223.571,268.064 224.5,269.5 Z"/></g>
<g><path style="opacity:1" fill="#fec576" d="M 122.5,264.5 C 125.492,267.122 128.492,269.789 131.5,272.5C 130.962,274.117 130.629,275.784 130.5,277.5C 117.224,284.808 104.224,292.641 91.5,301C 84.7981,304.056 78.1314,306.39 71.5,308C 63.8313,310.917 56.6646,314.751 50,319.5C 49.6174,318.944 49.1174,318.611 48.5,318.5C 46.6768,312.39 45.3435,306.057 44.5,299.5C 45.2216,299.918 45.7216,300.584 46,301.5C 49.3884,299.272 52.8884,297.272 56.5,295.5C 57.8923,297.273 59.059,299.273 60,301.5C 60.804,302.804 61.9707,303.471 63.5,303.5C 67.073,299.356 70.4063,295.022 73.5,290.5C 73.4701,291.497 73.9701,292.164 75,292.5C 90.79,283.024 106.623,273.691 122.5,264.5 Z"/></g>
<g><path style="opacity:1" fill="#fdea8f" d="M 226.5,275.5 C 227.255,282.229 225.588,288.229 221.5,293.5C 212.167,302.167 203.167,311.167 194.5,320.5C 194.167,320.5 193.833,320.5 193.5,320.5C 187.012,319.254 181.012,318.254 175.5,317.5C 173.462,319.701 171.629,322.034 170,324.5C 167.088,323.749 164.921,322.082 163.5,319.5C 164.683,318.496 166.016,317.662 167.5,317C 167.167,316.667 166.833,316.333 166.5,316C 168.303,315.363 169.636,314.197 170.5,312.5C 173.758,315.394 177.425,316.061 181.5,314.5C 197.024,302.484 211.524,289.151 225,274.5C 225.383,275.056 225.883,275.389 226.5,275.5 Z"/></g>
<g><path style="opacity:1" fill="#fed083" d="M 130.5,277.5 C 130.595,282.549 131.928,287.215 134.5,291.5C 133.504,291.586 132.671,291.252 132,290.5C 126.333,294.5 120.667,298.5 115,302.5C 112.438,302.262 110.104,303.262 108,305.5C 106.853,304.542 105.853,304.875 105,306.5C 104.667,306.167 104.333,305.833 104,305.5C 98.3075,308.213 92.4742,310.547 86.5,312.5C 85.0783,316.569 82.0783,318.736 77.5,319C 77.9574,319.414 78.2907,319.914 78.5,320.5C 77.2713,321.281 75.938,321.781 74.5,322C 74.9255,324.017 74.9255,325.851 74.5,327.5C 73.675,328.386 72.675,328.719 71.5,328.5C 71.7135,330.144 71.3802,331.644 70.5,333C 74.3454,335.087 78.012,337.421 81.5,340C 91.7045,341.321 101.871,342.821 112,344.5C 122.859,344.731 133.692,344.731 144.5,344.5C 148.439,344.959 152.273,344.959 156,344.5C 156.483,345.448 156.649,346.448 156.5,347.5C 150.023,348.346 143.69,349.346 137.5,350.5C 109.754,354.387 82.4211,353.721 55.5,348.5C 55.5,349.833 55.5,351.167 55.5,352.5C 52.4206,341.44 50.0873,330.107 48.5,318.5C 49.1174,318.611 49.6174,318.944 50,319.5C 56.6646,314.751 63.8313,310.917 71.5,308C 78.1314,306.39 84.7981,304.056 91.5,301C 104.224,292.641 117.224,284.808 130.5,277.5 Z"/></g>
<g><path style="opacity:1" fill="#fee779" d="M 379.5,283.5 C 379.011,286.467 377.845,289.133 376,291.5C 368.964,298.368 362.131,305.368 355.5,312.5C 351.5,315.833 347.833,319.5 344.5,323.5C 342.022,324.883 339.355,325.883 336.5,326.5C 333.833,326.5 331.167,326.5 328.5,326.5C 345.132,309.368 361.965,292.368 379,275.5C 379.497,278.146 379.664,280.813 379.5,283.5 Z"/></g>
<g><path style="opacity:1" fill="#fcaf58" d="M 39.5,274.5 C 43.1938,277.527 46.5271,280.86 49.5,284.5C 52.083,287.997 54.4164,291.664 56.5,295.5C 52.8884,297.272 49.3884,299.272 46,301.5C 45.7216,300.584 45.2216,299.918 44.5,299.5C 42.3647,291.287 40.6981,282.954 39.5,274.5 Z"/></g>
<g><path style="opacity:1" fill="#fed78b" d="M 134.5,291.5 C 137.833,294.167 140.833,297.167 143.5,300.5C 139.518,300.647 135.684,300.313 132,299.5C 131.676,301.569 130.842,301.902 129.5,300.5C 127.184,302.494 124.518,303.494 121.5,303.5C 121.5,304.5 121.5,305.5 121.5,306.5C 118.813,306.336 116.146,306.503 113.5,307C 107.357,310.486 101.357,314.152 95.5,318C 96.6405,318.741 96.6405,319.575 95.5,320.5C 93.9223,321.298 92.2556,321.798 90.5,322C 92.8912,322.691 92.8912,323.691 90.5,325C 94.3032,327.476 93.6366,328.81 88.5,329C 90.5,330 92.5,331 94.5,332C 94.1667,332.333 93.8333,332.667 93.5,333C 104.849,337.907 116.515,339.407 128.5,337.5C 129.151,338.091 129.818,338.757 130.5,339.5C 139.889,338.944 149.222,338.944 158.5,339.5C 154.491,341.421 150.157,342.588 145.5,343C 144.944,343.383 144.611,343.883 144.5,344.5C 133.692,344.731 122.859,344.731 112,344.5C 101.871,342.821 91.7045,341.321 81.5,340C 78.012,337.421 74.3454,335.087 70.5,333C 71.3802,331.644 71.7135,330.144 71.5,328.5C 72.675,328.719 73.675,328.386 74.5,327.5C 74.9255,325.851 74.9255,324.017 74.5,322C 75.938,321.781 77.2713,321.281 78.5,320.5C 78.2907,319.914 77.9574,319.414 77.5,319C 82.0783,318.736 85.0783,316.569 86.5,312.5C 92.4742,310.547 98.3075,308.213 104,305.5C 104.333,305.833 104.667,306.167 105,306.5C 105.853,304.875 106.853,304.542 108,305.5C 110.104,303.262 112.438,302.262 115,302.5C 120.667,298.5 126.333,294.5 132,290.5C 132.671,291.252 133.504,291.586 134.5,291.5 Z"/></g>
<g><path style="opacity:1" fill="#58cb99" d="M 76.5,285.5 C 75.075,286.922 74.075,288.589 73.5,290.5C 70.4063,295.022 67.073,299.356 63.5,303.5C 61.9707,303.471 60.804,302.804 60,301.5C 59.059,299.273 57.8923,297.273 56.5,295.5C 54.4164,291.664 52.083,287.997 49.5,284.5C 53.8205,283.834 58.3205,283.501 63,283.5C 67.8861,283.507 72.3861,284.174 76.5,285.5 Z"/></g>
<g><path style="opacity:1" fill="#fdd463" d="M 132.5,271.5 C 132.351,272.552 132.517,273.552 133,274.5C 136.396,278.065 139.896,281.398 143.5,284.5C 147.5,289.167 151.833,293.5 156.5,297.5C 158.833,299.167 160.833,301.167 162.5,303.5C 163.167,304.167 163.833,304.833 164.5,305.5C 160.736,306.548 157.069,307.881 153.5,309.5C 151.5,307.833 149.5,306.167 147.5,304.5C 146.5,302.833 145.167,301.5 143.5,300.5C 140.833,297.167 137.833,294.167 134.5,291.5C 131.928,287.215 130.595,282.549 130.5,277.5C 130.629,275.784 130.962,274.117 131.5,272.5C 131.5,271.833 131.833,271.5 132.5,271.5 Z"/></g>
<g><path style="opacity:1" fill="#fddd93" d="M 143.5,300.5 C 145.167,301.5 146.5,302.833 147.5,304.5C 147.33,305.822 147.663,306.989 148.5,308C 144.045,308.11 140.045,309.444 136.5,312C 139.401,311.766 142.401,312.099 145.5,313C 142.289,314.153 138.956,314.82 135.5,315C 138.5,315.333 141.5,315.667 144.5,316C 142.447,317.202 140.447,317.536 138.5,317C 139.634,318.016 139.301,318.683 137.5,319C 138.167,319.333 138.833,319.667 139.5,320C 138.316,323.105 135.649,325.105 131.5,326C 135.834,326.627 140.334,327.461 145,328.5C 145.667,327.833 146.333,327.167 147,326.5C 148.44,328.046 150.273,328.879 152.5,329C 144.955,330.893 137.288,333.227 129.5,336C 128.944,336.383 128.611,336.883 128.5,337.5C 116.515,339.407 104.849,337.907 93.5,333C 93.8333,332.667 94.1667,332.333 94.5,332C 92.5,331 90.5,330 88.5,329C 93.6366,328.81 94.3032,327.476 90.5,325C 92.8912,323.691 92.8912,322.691 90.5,322C 92.2556,321.798 93.9223,321.298 95.5,320.5C 96.6405,319.575 96.6405,318.741 95.5,318C 101.357,314.152 107.357,310.486 113.5,307C 116.146,306.503 118.813,306.336 121.5,306.5C 121.5,305.5 121.5,304.5 121.5,303.5C 124.518,303.494 127.184,302.494 129.5,300.5C 130.842,301.902 131.676,301.569 132,299.5C 135.684,300.313 139.518,300.647 143.5,300.5 Z"/></g>
<g><path style="opacity:1" fill="#fde18d" d="M 147.5,304.5 C 149.5,306.167 151.5,307.833 153.5,309.5C 156.5,313.167 159.833,316.5 163.5,319.5C 164.921,322.082 167.088,323.749 170,324.5C 171.629,322.034 173.462,319.701 175.5,317.5C 181.012,318.254 187.012,319.254 193.5,320.5C 183.4,329.717 171.733,336.05 158.5,339.5C 149.222,338.944 139.889,338.944 130.5,339.5C 129.818,338.757 129.151,338.091 128.5,337.5C 128.611,336.883 128.944,336.383 129.5,336C 137.288,333.227 144.955,330.893 152.5,329C 150.273,328.879 148.44,328.046 147,326.5C 146.333,327.167 145.667,327.833 145,328.5C 140.334,327.461 135.834,326.627 131.5,326C 135.649,325.105 138.316,323.105 139.5,320C 138.833,319.667 138.167,319.333 137.5,319C 139.301,318.683 139.634,318.016 138.5,317C 140.447,317.536 142.447,317.202 144.5,316C 141.5,315.667 138.5,315.333 135.5,315C 138.956,314.82 142.289,314.153 145.5,313C 142.401,312.099 139.401,311.766 136.5,312C 140.045,309.444 144.045,308.11 148.5,308C 147.663,306.989 147.33,305.822 147.5,304.5 Z"/></g>
<g><path style="opacity:1" fill="#fdd523" d="M 355.5,312.5 C 383.662,313.498 411.995,313.831 440.5,313.5C 437.882,318.413 434.548,322.746 430.5,326.5C 402.165,326.667 373.831,326.5 345.5,326C 344.748,325.329 344.414,324.496 344.5,323.5C 347.833,319.5 351.5,315.833 355.5,312.5 Z"/></g>
<g><path style="opacity:1" fill="#fdde6e" d="M 221.5,293.5 C 220.513,296.146 219.513,298.812 218.5,301.5C 221.289,306.014 223.956,310.181 226.5,314C 225.833,314.333 225.167,314.667 224.5,315C 225.88,316.324 226.214,317.657 225.5,319C 226.119,320.757 227.286,321.924 229,322.5C 231.578,319.484 234.745,318.817 238.5,320.5C 239.833,321.5 239.833,322.5 238.5,323.5C 239.167,324.167 239.833,324.833 240.5,325.5C 240.691,327.804 240.357,330.138 239.5,332.5C 239.75,335.505 238.417,337.338 235.5,338C 234.748,338.671 234.414,339.504 234.5,340.5C 227.869,341.331 221.202,341.664 214.5,341.5C 209.155,341.687 203.822,342.02 198.5,342.5C 201.349,340.498 204.349,338.665 207.5,337C 203.554,336.825 199.72,336.658 196,336.5C 193.333,337.167 190.667,337.833 188,338.5C 183.741,336.784 184.241,335.45 189.5,334.5C 190.292,332.071 190.292,329.905 189.5,328C 192.514,326.328 194.514,324.328 195.5,322C 194.944,321.617 194.611,321.117 194.5,320.5C 203.167,311.167 212.167,302.167 221.5,293.5 Z"/></g>
<g><path style="opacity:1" fill="#fdd64a" d="M 318.5,332.5 C 321.527,334.86 324.194,337.527 326.5,340.5C 316.524,341.332 306.524,341.666 296.5,341.5C 295.71,340.206 294.71,339.039 293.5,338C 295.301,337.683 295.634,337.016 294.5,336C 289.454,336.192 284.454,336.525 279.5,337C 279.303,334.984 278.303,332.984 276.5,331C 276.833,330.667 277.167,330.333 277.5,330C 275.937,329.241 274.937,328.074 274.5,326.5C 278.49,326.001 282.49,325.501 286.5,325C 283.833,324.667 281.167,324.333 278.5,324C 280.473,323.505 282.473,323.338 284.5,323.5C 289.447,321.803 294.114,322.303 298.5,325C 300.607,328.148 303.441,331.315 307,334.5C 310.791,333.725 314.624,333.059 318.5,332.5 Z"/></g>
<g><path style="opacity:1" fill="#fdd658" d="M 273.5,326.5 C 273.833,326.5 274.167,326.5 274.5,326.5C 274.937,328.074 275.937,329.241 277.5,330C 277.167,330.333 276.833,330.667 276.5,331C 278.303,332.984 279.303,334.984 279.5,337C 284.454,336.525 289.454,336.192 294.5,336C 295.634,337.016 295.301,337.683 293.5,338C 294.71,339.039 295.71,340.206 296.5,341.5C 290.404,342.505 284.404,343.505 278.5,344.5C 273.167,344.833 267.833,345.167 262.5,345.5C 262.48,343.857 263.147,342.524 264.5,341.5C 264.291,340.914 263.957,340.414 263.5,340C 253.856,340.244 244.189,340.411 234.5,340.5C 234.414,339.504 234.748,338.671 235.5,338C 238.417,337.338 239.75,335.505 239.5,332.5C 246.148,331.632 252.815,330.798 259.5,330C 260.078,328.583 261.078,327.75 262.5,327.5C 266.198,327.448 269.865,327.114 273.5,326.5 Z"/></g>
<g><path style="opacity:1" fill="#fed134" d="M 344.5,323.5 C 344.414,324.496 344.748,325.329 345.5,326C 373.831,326.5 402.165,326.667 430.5,326.5C 428.833,328.5 427.167,330.5 425.5,332.5C 421.754,335.585 417.754,338.251 413.5,340.5C 384.5,340.5 355.5,340.5 326.5,340.5C 324.194,337.527 321.527,334.86 318.5,332.5C 323.332,331.267 328.332,330.433 333.5,330C 334.365,328.641 335.365,327.474 336.5,326.5C 339.355,325.883 342.022,324.883 344.5,323.5 Z"/></g>
<g><path style="opacity:0.991" fill="#fea7da" d="M 462.5,322.5 C 465.5,325.833 468.5,329.167 471.5,332.5C 456.167,332.5 440.833,332.5 425.5,332.5C 427.167,330.5 428.833,328.5 430.5,326.5C 434.548,322.746 437.882,318.413 440.5,313.5C 442.241,311.023 443.741,308.356 445,305.5C 446.133,303.789 447.633,303.289 449.5,304C 452.748,311.022 457.082,317.188 462.5,322.5 Z"/></g>
<g><path style="opacity:1" fill="#fdd87b" d="M 193.5,320.5 C 193.833,320.5 194.167,320.5 194.5,320.5C 194.611,321.117 194.944,321.617 195.5,322C 194.514,324.328 192.514,326.328 189.5,328C 190.292,329.905 190.292,332.071 189.5,334.5C 184.241,335.45 183.741,336.784 188,338.5C 190.667,337.833 193.333,337.167 196,336.5C 199.72,336.658 203.554,336.825 207.5,337C 204.349,338.665 201.349,340.498 198.5,342.5C 194.026,342.268 189.693,342.934 185.5,344.5C 184.311,344.244 183.144,343.911 182,343.5C 174.246,346.429 166.746,348.763 159.5,350.5C 151.887,351.102 144.554,351.102 137.5,350.5C 143.69,349.346 150.023,348.346 156.5,347.5C 156.649,346.448 156.483,345.448 156,344.5C 152.273,344.959 148.439,344.959 144.5,344.5C 144.611,343.883 144.944,343.383 145.5,343C 150.157,342.588 154.491,341.421 158.5,339.5C 171.733,336.05 183.4,329.717 193.5,320.5 Z"/></g>
<g><path style="opacity:1" fill="#fdcc5c" d="M 278.5,344.5 C 277.402,345.397 277.402,346.23 278.5,347C 276.699,347.317 276.366,347.984 277.5,349C 275.381,349.342 275.047,350.175 276.5,351.5C 275.5,351.5 274.5,351.5 273.5,351.5C 257.507,352.578 241.507,353.578 225.5,354.5C 219.833,354.5 214.167,354.5 208.5,354.5C 210.967,352.537 213.967,351.371 217.5,351C 218.759,350.077 220.092,349.243 221.5,348.5C 221.167,348.167 220.833,347.833 220.5,347.5C 213.501,348.411 206.501,348.911 199.5,349C 204.956,347.144 209.956,344.644 214.5,341.5C 221.202,341.664 227.869,341.331 234.5,340.5C 244.189,340.411 253.856,340.244 263.5,340C 263.957,340.414 264.291,340.914 264.5,341.5C 263.147,342.524 262.48,343.857 262.5,345.5C 267.833,345.167 273.167,344.833 278.5,344.5 Z"/></g>
<g><path style="opacity:1" fill="#fdc740" d="M 326.5,340.5 C 355.5,340.5 384.5,340.5 413.5,340.5C 409.364,344.074 404.697,346.908 399.5,349C 397.963,350.11 397.297,351.61 397.5,353.5C 375.67,354.332 353.67,354.832 331.5,355C 327.646,355.354 323.812,355.854 320,356.5C 316.937,356.065 316.77,355.232 319.5,354C 316.833,353 316.833,352 319.5,351C 317.256,350.094 314.923,349.594 312.5,349.5C 300.559,351.164 288.559,351.831 276.5,351.5C 275.047,350.175 275.381,349.342 277.5,349C 276.366,347.984 276.699,347.317 278.5,347C 277.402,346.23 277.402,345.397 278.5,344.5C 284.404,343.505 290.404,342.505 296.5,341.5C 306.524,341.666 316.524,341.332 326.5,340.5 Z"/></g>
<g><path style="opacity:0.994" fill="#fe96cb" d="M 425.5,332.5 C 440.833,332.5 456.167,332.5 471.5,332.5C 479.326,339.251 487.993,344.751 497.5,349C 499.184,352.461 498.184,354.628 494.5,355.5C 463.995,355.169 433.662,355.502 403.5,356.5C 401.5,355.5 399.5,354.5 397.5,353.5C 397.297,351.61 397.963,350.11 399.5,349C 404.697,346.908 409.364,344.074 413.5,340.5C 417.754,338.251 421.754,335.585 425.5,332.5 Z"/></g>
<g><path style="opacity:1" fill="#fdcc6c" d="M 214.5,341.5 C 209.956,344.644 204.956,347.144 199.5,349C 206.501,348.911 213.501,348.411 220.5,347.5C 220.833,347.833 221.167,348.167 221.5,348.5C 220.092,349.243 218.759,350.077 217.5,351C 213.967,351.371 210.967,352.537 208.5,354.5C 194.519,355.518 180.519,356.185 166.5,356.5C 161.489,356.666 156.489,356.499 151.5,356C 160.623,354.543 169.623,352.543 178.5,350C 172.38,349.862 166.047,350.029 159.5,350.5C 166.746,348.763 174.246,346.429 182,343.5C 183.144,343.911 184.311,344.244 185.5,344.5C 189.693,342.934 194.026,342.268 198.5,342.5C 203.822,342.02 209.155,341.687 214.5,341.5 Z"/></g>
<g><path style="opacity:1" fill="#fec674" d="M 137.5,350.5 C 144.554,351.102 151.887,351.102 159.5,350.5C 166.047,350.029 172.38,349.862 178.5,350C 169.623,352.543 160.623,354.543 151.5,356C 156.489,356.499 161.489,356.666 166.5,356.5C 163.858,357.806 161.025,358.806 158,359.5C 157.667,359.167 157.333,358.833 157,358.5C 140.81,361.131 124.643,363.131 108.5,364.5C 95.7642,363.181 83.0975,361.347 70.5,359C 65.8452,358.501 61.1785,358.334 56.5,358.5C 55.6586,356.621 55.3253,354.621 55.5,352.5C 55.5,351.167 55.5,349.833 55.5,348.5C 82.4211,353.721 109.754,354.387 137.5,350.5 Z"/></g>
<g><path style="opacity:1" fill="#fec164" d="M 208.5,354.5 C 214.167,354.5 219.833,354.5 225.5,354.5C 210.797,359.108 195.797,362.441 180.5,364.5C 171.451,364.624 162.451,365.291 153.5,366.5C 153.5,367.5 153.5,368.5 153.5,369.5C 138.463,368.114 123.463,366.447 108.5,364.5C 124.643,363.131 140.81,361.131 157,358.5C 157.333,358.833 157.667,359.167 158,359.5C 161.025,358.806 163.858,357.806 166.5,356.5C 180.519,356.185 194.519,355.518 208.5,354.5 Z"/></g>
<g><path style="opacity:0.992" fill="#fe8bc2" d="M 403.5,356.5 C 433.662,355.502 463.995,355.169 494.5,355.5C 487.365,359.905 480.365,364.572 473.5,369.5C 456.833,369.5 440.167,369.5 423.5,369.5C 421.167,368.167 418.833,366.833 416.5,365.5C 414.704,363.1 412.37,361.433 409.5,360.5C 407.537,359.18 405.537,357.846 403.5,356.5 Z"/></g>
<g><path style="opacity:1" fill="#febf47" d="M 397.5,353.5 C 399.5,354.5 401.5,355.5 403.5,356.5C 405.537,357.846 407.537,359.18 409.5,360.5C 367.317,361.194 324.984,361.861 282.5,362.5C 272.167,362.5 261.833,362.5 251.5,362.5C 256.023,360.948 260.689,359.448 265.5,358C 265.167,357.667 264.833,357.333 264.5,357C 267.089,355.803 269.756,354.803 272.5,354C 272.167,353.667 271.833,353.333 271.5,353C 272.416,352.722 273.082,352.222 273.5,351.5C 274.5,351.5 275.5,351.5 276.5,351.5C 288.559,351.831 300.559,351.164 312.5,349.5C 314.923,349.594 317.256,350.094 319.5,351C 316.833,352 316.833,353 319.5,354C 316.77,355.232 316.937,356.065 320,356.5C 323.812,355.854 327.646,355.354 331.5,355C 353.67,354.832 375.67,354.332 397.5,353.5 Z"/></g>
<g><path style="opacity:0.998" fill="#feefac" d="M 56.5,358.5 C 61.1785,358.334 65.8452,358.501 70.5,359C 83.0975,361.347 95.7642,363.181 108.5,364.5C 123.463,366.447 138.463,368.114 153.5,369.5C 219.448,375.283 285.448,375.95 351.5,371.5C 373.19,369.687 394.857,367.687 416.5,365.5C 418.833,366.833 421.167,368.167 423.5,369.5C 426.57,372.564 429.237,375.897 431.5,379.5C 301.5,379.5 171.5,379.5 41.5,379.5C 42.283,369.398 47.283,362.398 56.5,358.5 Z"/></g>
<g><path style="opacity:1" fill="#fec058" d="M 273.5,351.5 C 273.082,352.222 272.416,352.722 271.5,353C 271.833,353.333 272.167,353.667 272.5,354C 269.756,354.803 267.089,355.803 264.5,357C 264.833,357.333 265.167,357.667 265.5,358C 260.689,359.448 256.023,360.948 251.5,362.5C 227.859,363.983 204.193,364.649 180.5,364.5C 195.797,362.441 210.797,359.108 225.5,354.5C 241.507,353.578 257.507,352.578 273.5,351.5 Z"/></g>
<g><path style="opacity:1" fill="#feb642" d="M 409.5,360.5 C 412.37,361.433 414.704,363.1 416.5,365.5C 394.857,367.687 373.19,369.687 351.5,371.5C 331.671,370.668 311.671,370.168 291.5,370C 296.39,369.94 301.057,368.94 305.5,367C 294.5,366.667 283.5,366.333 272.5,366C 275.98,364.897 279.313,363.731 282.5,362.5C 324.984,361.861 367.317,361.194 409.5,360.5 Z"/></g>
<g><path style="opacity:0.994" fill="#fe7db5" d="M 423.5,369.5 C 440.167,369.5 456.833,369.5 473.5,369.5C 472.167,371.5 470.5,373.167 468.5,374.5C 463.108,379.56 458.441,385.226 454.5,391.5C 452.719,394.223 451.052,397.057 449.5,400C 446.669,400.349 444.669,399.183 443.5,396.5C 443.443,395.391 443.11,394.391 442.5,393.5C 441.396,391.611 440.063,389.945 438.5,388.5C 437.89,386.566 436.89,384.899 435.5,383.5C 434.5,381.833 433.167,380.5 431.5,379.5C 429.237,375.897 426.57,372.564 423.5,369.5 Z"/></g>
<g><path style="opacity:1" fill="#feb24e" d="M 251.5,362.5 C 261.833,362.5 272.167,362.5 282.5,362.5C 279.313,363.731 275.98,364.897 272.5,366C 283.5,366.333 294.5,366.667 305.5,367C 301.057,368.94 296.39,369.94 291.5,370C 311.671,370.168 331.671,370.668 351.5,371.5C 285.448,375.95 219.448,375.283 153.5,369.5C 153.5,368.5 153.5,367.5 153.5,366.5C 162.451,365.291 171.451,364.624 180.5,364.5C 204.193,364.649 227.859,363.983 251.5,362.5 Z"/></g>
<g><path style="opacity:1" fill="#feeda1" d="M 41.5,379.5 C 171.5,379.5 301.5,379.5 431.5,379.5C 433.167,380.5 434.5,381.833 435.5,383.5C 304.097,383.169 172.763,383.502 41.5,384.5C 41.5,382.833 41.5,381.167 41.5,379.5 Z"/></g>
<g><path style="opacity:0.999" fill="#feec97" d="M 435.5,383.5 C 436.89,384.899 437.89,386.566 438.5,388.5C 306.167,388.5 173.833,388.5 41.5,388.5C 41.5,387.167 41.5,385.833 41.5,384.5C 172.763,383.502 304.097,383.169 435.5,383.5 Z"/></g>
<g><path style="opacity:0.999" fill="#feea8a" d="M 41.5,388.5 C 173.833,388.5 306.167,388.5 438.5,388.5C 440.063,389.945 441.396,391.611 442.5,393.5C 308.833,393.5 175.167,393.5 41.5,393.5C 41.5,391.833 41.5,390.167 41.5,388.5 Z"/></g>
<g><path style="opacity:0.968" fill="#feea93" d="M 468.5,374.5 C 469.275,379.797 469.608,385.13 469.5,390.5C 464.595,391.445 459.595,391.779 454.5,391.5C 458.441,385.226 463.108,379.56 468.5,374.5 Z"/></g>
<g><path style="opacity:0.998" fill="#fee87f" d="M 41.5,393.5 C 175.167,393.5 308.833,393.5 442.5,393.5C 443.11,394.391 443.443,395.391 443.5,396.5C 309.5,396.5 175.5,396.5 41.5,396.5C 41.5,395.5 41.5,394.5 41.5,393.5 Z"/></g>
<g><path style="opacity:0.997" fill="#fee671" d="M 469.5,390.5 C 469.5,394.833 469.5,399.167 469.5,403.5C 327.167,403.5 184.833,403.5 42.5,403.5C 41.5318,401.393 41.1984,399.059 41.5,396.5C 175.5,396.5 309.5,396.5 443.5,396.5C 444.669,399.183 446.669,400.349 449.5,400C 451.052,397.057 452.719,394.223 454.5,391.5C 459.595,391.779 464.595,391.445 469.5,390.5 Z"/></g>
<g><path style="opacity:0.998" fill="#fee466" d="M 42.5,403.5 C 184.833,403.5 327.167,403.5 469.5,403.5C 469.737,404.791 469.404,405.791 468.5,406.5C 326.43,406.832 184.43,406.498 42.5,405.5C 42.5,404.833 42.5,404.167 42.5,403.5 Z"/></g>
<g><path style="opacity:0.997" fill="#fee25c" d="M 42.5,405.5 C 184.43,406.498 326.43,406.832 468.5,406.5C 468.768,408.099 468.434,409.432 467.5,410.5C 326.666,410.167 185.999,410.5 45.5,411.5C 43.9925,409.819 42.9925,407.819 42.5,405.5 Z"/></g>
<g><path style="opacity:0.998" fill="#fde153" d="M 467.5,410.5 C 467.25,412.674 466.25,414.341 464.5,415.5C 414.489,414.838 364.822,415.505 315.5,417.5C 314.358,415.028 312.358,414.028 309.5,414.5C 222.167,413.167 134.833,413.167 47.5,414.5C 46.5987,413.71 45.9321,412.71 45.5,411.5C 185.999,410.5 326.666,410.167 467.5,410.5 Z"/></g>
<g><path style="opacity:0.996" fill="#fddf49" d="M 309.5,414.5 C 308.737,416.368 307.737,418.035 306.5,419.5C 222.335,418.501 138.002,418.167 53.5,418.5C 51.1475,417.66 49.1475,416.326 47.5,414.5C 134.833,413.167 222.167,413.167 309.5,414.5 Z"/></g>
<g><path style="opacity:0.986" fill="#fddd3b" d="M 53.5,418.5 C 138.002,418.167 222.335,418.501 306.5,419.5C 305.416,422.004 304.083,424.337 302.5,426.5C 233.833,425.167 165.167,425.167 96.5,426.5C 83.7959,424.994 71.1293,423.161 58.5,421C 56.5087,420.626 54.842,419.793 53.5,418.5 Z"/></g>
<g><path style="opacity:0.982" fill="#fddd3c" d="M 464.5,415.5 C 462.423,418.904 459.423,421.404 455.5,423C 449.905,424.347 444.238,425.18 438.5,425.5C 399.33,425.168 360.33,425.501 321.5,426.5C 318.769,424.054 316.769,421.054 315.5,417.5C 364.822,415.505 414.489,414.838 464.5,415.5 Z"/></g>
<g><path style="opacity:0.98" fill="#fdda28" d="M 438.5,425.5 C 402.513,431.199 366.18,434.866 329.5,436.5C 325.7,434.037 323.033,430.704 321.5,426.5C 360.33,425.501 399.33,425.168 438.5,425.5 Z"/></g>
<g><path style="opacity:0.971" fill="#fdd922" d="M 96.5,426.5 C 165.167,425.167 233.833,425.167 302.5,426.5C 299.485,431.178 295.819,435.178 291.5,438.5C 226.127,439.655 161.127,435.655 96.5,426.5 Z"/></g>
<g><path style="opacity:0.985" fill="#a9d2f8" d="M 309.5,414.5 C 312.358,414.028 314.358,415.028 315.5,417.5C 316.769,421.054 318.769,424.054 321.5,426.5C 323.033,430.704 325.7,434.037 329.5,436.5C 335.937,443.605 343.27,449.605 351.5,454.5C 324.833,455.833 298.167,455.833 271.5,454.5C 279.057,450.276 285.724,444.943 291.5,438.5C 295.819,435.178 299.485,431.178 302.5,426.5C 304.083,424.337 305.416,422.004 306.5,419.5C 307.737,418.035 308.737,416.368 309.5,414.5 Z"/></g>
<g><path style="opacity:0.994" fill="#9fc9f3" d="M 271.5,454.5 C 298.167,455.833 324.833,455.833 351.5,454.5C 355.217,456.109 358.717,458.109 362,460.5C 362.667,461.833 362.667,463.167 362,464.5C 350.674,469.905 340.507,476.905 331.5,485.5C 318.421,485.186 305.421,485.52 292.5,486.5C 283.005,477.498 272.505,469.831 261,463.5C 260.316,462.216 260.483,461.049 261.5,460C 265.021,458.408 268.354,456.575 271.5,454.5 Z"/></g>
<g><path style="opacity:0.972" fill="#90bdeb" d="M 331.5,485.5 C 324.86,492.768 319.193,500.768 314.5,509.5C 312.051,510.91 309.884,510.576 308,508.5C 304.053,500.261 298.887,492.928 292.5,486.5C 305.421,485.52 318.421,485.186 331.5,485.5 Z"/></g>
</svg>
