<?xml version="1.0" encoding="UTF-8"?>
<!DOCTYPE svg PUBLIC "-//W3C//DTD SVG 1.1//EN" "http://www.w3.org/Graphics/SVG/1.1/DTD/svg11.dtd">
<svg xmlns="http://www.w3.org/2000/svg" version="1.1" width="512px" height="512px" style="shape-rendering:geometricPrecision; text-rendering:geometricPrecision; image-rendering:optimizeQuality; fill-rule:evenodd; clip-rule:evenodd" xmlns:xlink="http://www.w3.org/1999/xlink">
<g><path style="opacity:0.971" fill="#fefffe" d="M 511.5,89.5 C 511.5,200.167 511.5,310.833 511.5,421.5C 505.773,444.414 491.44,458.914 468.5,465C 397.359,466.155 326.193,466.655 255,466.5C 184.137,466.657 113.303,466.157 42.5,465C 19.5601,458.914 5.22675,444.414 -0.5,421.5C -0.5,310.833 -0.5,200.167 -0.5,89.5C 5.22675,66.5858 19.5601,52.0858 42.5,46C 113.47,44.843 184.47,44.343 255.5,44.5C 326.53,44.343 397.53,44.843 468.5,46C 491.44,52.0858 505.773,66.5858 511.5,89.5 Z M 49.5,82.5 C 186.834,82.3333 324.167,82.5 461.5,83C 468.911,85.5785 473.245,90.7451 474.5,98.5C 473.781,100.728 472.448,102.561 470.5,104C 402.5,162 334.5,220 266.5,278C 259.167,282.667 251.833,282.667 244.5,278C 176.5,220 108.5,162 40.5,104C 36.2873,101.316 35.454,97.8156 38,93.5C 40.4123,88.2523 44.2456,84.5857 49.5,82.5 Z M 36.5,150.5 C 98.1355,202.992 159.802,255.492 221.5,308C 244.167,323.333 266.833,323.333 289.5,308C 351.093,255.618 412.593,203.118 474,150.5C 474.667,238.5 474.667,326.5 474,414.5C 472.264,421.237 468.097,425.737 461.5,428C 324.167,428.667 186.833,428.667 49.5,428C 42.9028,425.737 38.7361,421.237 37,414.5C 36.5,326.501 36.3333,238.501 36.5,150.5 Z"/></g>
</svg>
