<?xml version="1.0" encoding="UTF-8"?>
<!DOCTYPE svg PUBLIC "-//W3C//DTD SVG 1.1//EN" "http://www.w3.org/Graphics/SVG/1.1/DTD/svg11.dtd">
<svg xmlns="http://www.w3.org/2000/svg" version="1.1" width="512px" height="512px" style="shape-rendering:geometricPrecision; text-rendering:geometricPrecision; image-rendering:optimizeQuality; fill-rule:evenodd; clip-rule:evenodd" xmlns:xlink="http://www.w3.org/1999/xlink">
<g><path style="opacity:0.99" fill="#000000" d="M 87.5,-0.5 C 199.5,-0.5 311.5,-0.5 423.5,-0.5C 435.818,2.98533 443.651,10.9853 447,23.5C 447.5,47.4977 447.667,71.4977 447.5,95.5C 426.167,95.5 404.833,95.5 383.5,95.5C 383.5,84.8333 383.5,74.1667 383.5,63.5C 308.499,63.3333 233.499,63.5 158.5,64C 201.777,123.278 244.277,183.111 286,243.5C 289.36,254.285 288.027,264.618 282,274.5C 240.956,332.088 199.789,389.588 158.5,447C 233.499,447.5 308.499,447.667 383.5,447.5C 383.5,436.833 383.5,426.167 383.5,415.5C 404.833,415.5 426.167,415.5 447.5,415.5C 447.667,439.502 447.5,463.502 447,487.5C 443.651,500.015 435.818,508.015 423.5,511.5C 311.5,511.5 199.5,511.5 87.5,511.5C 66.1419,503.107 58.9753,487.774 66,465.5C 115.445,395.055 165.278,324.889 215.5,255C 165.632,186.098 116.132,116.931 67,47.5C 58.3082,24.5739 65.1415,8.57395 87.5,-0.5 Z"/></g>
</svg>
