<?xml version="1.0" encoding="UTF-8"?>
<!DOCTYPE svg PUBLIC "-//W3C//DTD SVG 1.1//EN" "http://www.w3.org/Graphics/SVG/1.1/DTD/svg11.dtd">
<svg xmlns="http://www.w3.org/2000/svg" version="1.1" width="1000px" height="250px" style="shape-rendering:geometricPrecision; text-rendering:geometricPrecision; image-rendering:optimizeQuality; fill-rule:evenodd; clip-rule:evenodd" xmlns:xlink="http://www.w3.org/1999/xlink">
<g><path style="opacity:0.928" fill="#000001" d="M 143.5,71.5 C 148.5,71.5 153.5,71.5 158.5,71.5C 158.333,83.1714 158.5,94.8381 159,106.5C 168.232,96.5795 179.398,93.7462 192.5,98C 199.968,101.476 204.468,107.31 206,115.5C 206.5,131.163 206.667,146.83 206.5,162.5C 201.5,162.5 196.5,162.5 191.5,162.5C 191.667,148.496 191.5,134.496 191,120.5C 187.279,111.807 180.779,108.641 171.5,111C 166.09,112.743 162.256,116.243 160,121.5C 158.573,135.107 158.073,148.774 158.5,162.5C 153.5,162.5 148.5,162.5 143.5,162.5C 143.5,132.167 143.5,101.833 143.5,71.5 Z"/></g>
<g><path style="opacity:0.946" fill="#000000" d="M 63.5,76.5 C 86.5,76.5 109.5,76.5 132.5,76.5C 132.5,81.1667 132.5,85.8333 132.5,90.5C 123.5,90.5 114.5,90.5 105.5,90.5C 105.5,114.5 105.5,138.5 105.5,162.5C 100.5,162.5 95.5,162.5 90.5,162.5C 90.5,138.5 90.5,114.5 90.5,90.5C 81.5,90.5 72.5,90.5 63.5,90.5C 63.5,85.8333 63.5,81.1667 63.5,76.5 Z"/></g>
<g><path style="opacity:0.926" fill="#010101" d="M 243.5,96.5 C 271.692,94.3589 284.359,107.359 281.5,135.5C 265.486,135.167 249.486,135.501 233.5,136.5C 238.951,149.046 248.285,153.213 261.5,149C 264.941,147.224 268.108,145.057 271,142.5C 274.065,145.062 276.565,148.062 278.5,151.5C 274.485,156.177 269.485,159.344 263.5,161C 231.467,166.298 216.634,152.798 219,120.5C 222.458,107.541 230.624,99.541 243.5,96.5 Z M 246.5,108.5 C 259.286,106.646 266.619,111.979 268.5,124.5C 256.833,124.5 245.167,124.5 233.5,124.5C 234.543,116.376 238.877,111.042 246.5,108.5 Z"/></g>
<g><path style="opacity:0.933" fill="#010101" d="M 315.5,96.5 C 332.874,93.7719 346.041,99.7719 355,114.5C 361.12,131.188 357.62,145.355 344.5,157C 329.934,164.609 315.601,164.276 301.5,156C 289.618,144.635 286.451,131.135 292,115.5C 296.768,105.219 304.602,98.8852 315.5,96.5 Z M 317.5,109.5 C 336.615,108.452 344.782,117.452 342,136.5C 336.432,149.036 327.265,152.869 314.5,148C 304.856,141.063 302.023,131.896 306,120.5C 308.412,115.252 312.246,111.586 317.5,109.5 Z"/></g>
<g><path style="opacity:0.922" fill="#010101" d="M 371.5,96.5 C 376.5,96.5 381.5,96.5 386.5,96.5C 386.335,99.8499 386.502,103.183 387,106.5C 392.279,99.2788 399.446,95.9455 408.5,96.5C 408.5,101.167 408.5,105.833 408.5,110.5C 399.165,109.76 392.331,113.427 388,121.5C 386.554,135.093 386.054,148.76 386.5,162.5C 381.5,162.5 376.5,162.5 371.5,162.5C 371.5,140.5 371.5,118.5 371.5,96.5 Z"/></g>
<g><path style="opacity:0.925" fill="#010101" d="M 438.5,96.5 C 466.692,94.3589 479.359,107.359 476.5,135.5C 460.486,135.167 444.486,135.501 428.5,136.5C 433.951,149.046 443.285,153.213 456.5,149C 459.941,147.224 463.108,145.057 466,142.5C 469.065,145.062 471.565,148.062 473.5,151.5C 469.485,156.177 464.485,159.344 458.5,161C 426.467,166.298 411.634,152.798 414,120.5C 417.458,107.541 425.624,99.541 438.5,96.5 Z M 441.5,108.5 C 454.286,106.646 461.619,111.979 463.5,124.5C 451.833,124.5 440.167,124.5 428.5,124.5C 429.543,116.376 433.877,111.042 441.5,108.5 Z"/></g>
<g><path style="opacity:0.925" fill="#000000" d="M 490.5,96.5 C 495.5,96.5 500.5,96.5 505.5,96.5C 505.335,99.8499 505.502,103.183 506,106.5C 508.596,102.61 512.096,99.7766 516.5,98C 526.854,94.9736 536.521,96.307 545.5,102C 547.727,104.564 549.561,107.397 551,110.5C 554.048,103.053 559.548,98.5526 567.5,97C 584.476,93.5518 594.976,100.052 599,116.5C 599.5,131.83 599.667,147.163 599.5,162.5C 594.5,162.5 589.5,162.5 584.5,162.5C 584.667,148.829 584.5,135.163 584,121.5C 579.373,110.398 571.539,107.565 560.5,113C 556.619,115.928 554.119,119.761 553,124.5C 552.5,137.162 552.333,149.829 552.5,162.5C 547.5,162.5 542.5,162.5 537.5,162.5C 537.667,148.829 537.5,135.163 537,121.5C 532.446,110.204 524.613,107.371 513.5,113C 510.567,115.264 508.4,118.098 507,121.5C 505.554,135.093 505.054,148.76 505.5,162.5C 500.5,162.5 495.5,162.5 490.5,162.5C 490.5,140.5 490.5,118.5 490.5,96.5 Z"/></g>
<g><path style="opacity:0.907" fill="#000000" d="M 613.5,96.5 C 631.5,96.5 649.5,96.5 667.5,96.5C 667.665,100.182 667.499,103.848 667,107.5C 655.167,121.333 643.333,135.167 631.5,149C 643.829,149.5 656.162,149.667 668.5,149.5C 668.5,153.833 668.5,158.167 668.5,162.5C 649.833,162.5 631.167,162.5 612.5,162.5C 612.334,158.486 612.501,154.486 613,150.5C 624.5,137 636,123.5 647.5,110C 636.172,109.5 624.838,109.333 613.5,109.5C 613.5,105.167 613.5,100.833 613.5,96.5 Z"/></g>
<g><path style="opacity:1" fill="#2675e0" d="M 890.5,102.5 C 893.293,103.459 895.293,105.293 896.5,108C 894.736,111.792 893.069,115.625 891.5,119.5C 904.287,119.252 916.621,121.419 928.5,126C 930.919,127.509 931.919,129.675 931.5,132.5C 923.718,130.057 915.718,128.557 907.5,128C 900.586,127.189 893.752,127.355 887,128.5C 875.661,151.523 869.494,175.856 868.5,201.5C 865.675,201.919 863.509,200.919 862,198.5C 861.528,186.962 862.528,175.628 865,164.5C 856.942,169.695 848.609,174.361 840,178.5C 837.191,178.248 835.191,176.915 834,174.5C 833.544,171.428 833.544,168.428 834,165.5C 828.031,169.803 822.364,174.469 817,179.5C 812.595,177.358 810.928,174.024 812,169.5C 804.432,175.376 795.932,178.543 786.5,179C 781.931,176.459 780.431,172.625 782,167.5C 784.379,160.457 788.879,155.29 795.5,152C 801.688,150.866 804.854,153.366 805,159.5C 801.505,164.006 797.005,167.172 791.5,169C 790.04,169.811 789.707,170.645 790.5,171.5C 801.989,167.508 812.489,161.841 822,154.5C 824.321,155.487 825.987,157.154 827,159.5C 832.187,155.879 837.854,153.212 844,151.5C 847.167,152 849,153.833 849.5,157C 847.84,159.984 846.174,162.984 844.5,166C 851.95,163.619 859.283,160.619 866.5,157C 869.869,147.731 873.535,138.564 877.5,129.5C 866.357,128.6 855.357,129.6 844.5,132.5C 840.369,131.37 838.702,128.703 839.5,124.5C 853.462,122.57 867.462,120.904 881.5,119.5C 884.258,113.648 887.258,107.981 890.5,102.5 Z"/></g>
<g><path style="opacity:1" fill="#2675df" d="M 717.5,106.5 C 726.307,104.326 731.307,107.66 732.5,116.5C 731.464,122.295 730.297,127.962 729,133.5C 735.555,123.343 744.055,115.343 754.5,109.5C 759.678,111.001 762.345,114.501 762.5,120C 761.191,128.063 759.358,135.896 757,143.5C 762.289,137.204 768.456,132.038 775.5,128C 781.614,126.554 785.28,128.887 786.5,135C 782.767,146.638 778.6,158.138 774,169.5C 773.689,171.556 773.189,173.556 772.5,175.5C 773.348,177.409 773.682,179.409 773.5,181.5C 767.87,181.025 765.203,177.858 765.5,172C 768.354,160.502 771.854,149.335 776,138.5C 760.975,150.681 749.142,165.348 740.5,182.5C 737.727,183.931 735.561,183.264 734,180.5C 733.333,178.167 733.333,175.833 734,173.5C 739.115,159.935 744.782,146.602 751,133.5C 752.965,128.98 753.965,124.313 754,119.5C 732.742,142.026 714.409,166.693 699,193.5C 696.541,196.1 694.041,196.1 691.5,193.5C 690.572,192.232 690.405,190.899 691,189.5C 700.112,174.278 708.445,158.611 716,142.5C 720.397,133.237 723.064,123.571 724,113.5C 706.647,124.378 696.147,139.878 692.5,160C 690.097,160.63 688.263,159.797 687,157.5C 685.545,148.862 687.211,140.862 692,133.5C 698.312,122.357 706.812,113.357 717.5,106.5 Z"/></g>
<g><path style="opacity:1" fill="#2574e0" d="M 893.5,148.5 C 895.679,148.84 897.512,149.84 899,151.5C 901.214,161.492 898.714,169.992 891.5,177C 884.99,179.993 880.49,178.16 878,171.5C 877.545,167.186 878.545,163.186 881,159.5C 884.767,155.224 888.934,151.557 893.5,148.5 Z M 887.5,167.5 C 888.391,165.391 889.558,163.391 891,161.5C 891.149,164.196 889.982,166.196 887.5,167.5 Z"/></g>
<g><path style="opacity:1" fill="#2673de" d="M 907.5,150.5 C 910.421,150.146 912.754,151.146 914.5,153.5C 921.551,149.692 926.884,151.192 930.5,158C 929.991,159.169 929.158,160.002 928,160.5C 925.031,157.817 922.198,157.984 919.5,161C 913.948,166.69 908.781,172.523 904,178.5C 900.929,178.262 899.429,176.596 899.5,173.5C 901.888,165.726 904.555,158.06 907.5,150.5 Z"/></g>
</svg>
