<?xml version="1.0" encoding="UTF-8"?>
<!DOCTYPE svg PUBLIC "-//W3C//DTD SVG 1.1//EN" "http://www.w3.org/Graphics/SVG/1.1/DTD/svg11.dtd">
<svg xmlns="http://www.w3.org/2000/svg" version="1.1" width="2000px" height="1500px" style="shape-rendering:geometricPrecision; text-rendering:geometricPrecision; image-rendering:optimizeQuality; fill-rule:evenodd; clip-rule:evenodd" xmlns:xlink="http://www.w3.org/1999/xlink">
<g><path style="opacity:1" fill="#fefefe" d="M -0.5,-0.5 C 666.167,-0.5 1332.83,-0.5 1999.5,-0.5C 1999.5,499.5 1999.5,999.5 1999.5,1499.5C 1332.83,1499.5 666.167,1499.5 -0.5,1499.5C -0.5,999.5 -0.5,499.5 -0.5,-0.5 Z"/></g>
<g><path style="opacity:1" fill="#060606" d="M 921.5,175.5 C 921.217,174.711 920.717,174.044 920,173.5C 919.174,185.674 919.34,197.674 920.5,209.5C 921.111,314.499 921.445,419.499 921.5,524.5C 921.333,535.838 921.5,547.172 922,558.5C 923.039,557.756 923.539,556.756 923.5,555.5C 947.952,525.767 973.619,497.101 1000.5,469.5C 1003.57,467.431 1005.91,464.764 1007.5,461.5C 1016.5,451.833 1025.83,442.5 1035.5,433.5C 1038.76,431.906 1041.43,429.573 1043.5,426.5C 1061.57,407.462 1080.91,389.795 1101.5,373.5C 1104.45,372.219 1106.78,370.219 1108.5,367.5C 1119.88,357.297 1131.88,347.797 1144.5,339C 1151.16,334.333 1158.16,330.166 1165.5,326.5C 1169.27,325.575 1172.27,323.575 1174.5,320.5C 1181.41,317.376 1188.08,313.709 1194.5,309.5C 1196.97,309.245 1198.97,308.245 1200.5,306.5C 1206.17,303.832 1211.84,301.165 1217.5,298.5C 1217.55,301.969 1218.21,305.302 1219.5,308.5C 1218.61,309.11 1217.61,309.443 1216.5,309.5C 1213.2,309.912 1210.53,311.245 1208.5,313.5C 1208.17,313.5 1207.83,313.5 1207.5,313.5C 1205.03,313.755 1203.03,314.755 1201.5,316.5C 1198.83,317.833 1196.17,319.167 1193.5,320.5C 1191.33,320.75 1189.66,321.75 1188.5,323.5C 1185.67,324.079 1183.34,325.412 1181.5,327.5C 1179.33,327.75 1177.66,328.75 1176.5,330.5C 1175.83,330.833 1175.17,331.167 1174.5,331.5C 1172.33,331.75 1170.66,332.75 1169.5,334.5C 1167.77,335.026 1166.44,336.026 1165.5,337.5C 1162.73,337.87 1160.73,339.204 1159.5,341.5C 1158.51,341.328 1157.84,341.662 1157.5,342.5C 1154.95,343.057 1152.95,344.39 1151.5,346.5C 1143.8,351.347 1136.47,356.68 1129.5,362.5C 1124.5,365.483 1120.17,369.15 1116.5,373.5C 1106.75,380.414 1097.41,387.914 1088.5,396C 1080.66,402.671 1073.33,409.838 1066.5,417.5C 1060.22,422.107 1054.56,427.441 1049.5,433.5C 1046.17,436.167 1043.17,439.167 1040.5,442.5C 1038.95,443.693 1037.28,444.86 1035.5,446C 1034.75,446.671 1034.41,447.504 1034.5,448.5C 1033.53,448.987 1032.53,449.487 1031.5,450C 1024.29,456.709 1017.62,463.876 1011.5,471.5C 1006.44,475.559 1002.1,480.226 998.5,485.5C 989.488,493.847 981.154,502.847 973.5,512.5C 970.757,514.239 968.757,516.573 967.5,519.5C 966.5,519.833 965.833,520.5 965.5,521.5C 962.757,523.239 960.757,525.573 959.5,528.5C 957.11,529.891 955.443,531.891 954.5,534.5C 951.502,536.503 949.169,539.17 947.5,542.5C 939.148,550.333 931.814,559 925.5,568.5C 924.206,569.29 923.039,570.29 922,571.5C 921.174,583.341 921.341,595.007 922.5,606.5C 923.382,758.832 924.049,911.166 924.5,1063.5C 1210.17,1063.67 1495.83,1063.5 1781.5,1063C 1777.4,1060.53 1773.57,1057.7 1770,1054.5C 1768.1,1045.07 1771.6,1042.24 1780.5,1046C 1789.33,1052.83 1798.17,1059.67 1807,1066.5C 1808.18,1070.27 1807.35,1073.44 1804.5,1076C 1796.5,1082 1788.5,1088 1780.5,1094C 1773.01,1097.65 1769.17,1095.48 1769,1087.5C 1772.53,1083.31 1776.7,1079.81 1781.5,1077C 1495.83,1076.5 1210.17,1076.33 924.5,1076.5C 925.549,1163.16 925.716,1249.83 925,1336.5C 920.272,1340.9 916.605,1340.23 914,1334.5C 913.806,1248.49 913.306,1162.49 912.5,1076.5C 657.5,1076.67 402.5,1076.5 147.5,1076C 143.371,1073.37 142.538,1069.87 145,1065.5C 145.75,1064.87 146.584,1064.37 147.5,1064C 402.5,1063.5 657.5,1063.33 912.5,1063.5C 912.195,916.498 911.528,769.498 910.5,622.5C 910.667,610.495 910.5,598.495 910,586.5C 909.283,587.044 908.783,587.711 908.5,588.5C 905.097,590.9 902.43,593.9 900.5,597.5C 894.463,603.535 888.796,609.869 883.5,616.5C 870.215,629.119 857.215,642.119 844.5,655.5C 834.459,664.51 824.459,673.51 814.5,682.5C 810.104,685.025 806.104,688.025 802.5,691.5C 796.262,694.404 790.262,697.738 784.5,701.5C 779.846,703.146 775.513,705.146 771.5,707.5C 768.833,707.833 766.167,708.167 763.5,708.5C 750.884,710.675 738.217,711.009 725.5,709.5C 722.655,708.656 719.655,707.99 716.5,707.5C 715.833,707.5 715.167,707.5 714.5,707.5C 712.898,705.926 710.898,705.259 708.5,705.5C 705.417,705.084 702.417,704.417 699.5,703.5C 697.152,701.903 694.486,700.903 691.5,700.5C 679.097,696.811 667.097,692.145 655.5,686.5C 652.129,683.481 648.129,681.481 643.5,680.5C 613.354,666.014 583.354,651.347 553.5,636.5C 551.967,634.755 549.967,633.755 547.5,633.5C 541.186,630.838 534.853,628.172 528.5,625.5C 526.967,623.755 524.967,622.755 522.5,622.5C 521.209,622.737 520.209,622.404 519.5,621.5C 516.746,620.054 513.746,619.054 510.5,618.5C 509.833,618.5 509.167,618.5 508.5,618.5C 501.505,616.035 494.172,614.702 486.5,614.5C 476.008,613.341 465.341,613.175 454.5,614C 453.944,614.383 453.611,614.883 453.5,615.5C 451.833,615.5 450.167,615.5 448.5,615.5C 443.876,615.763 439.542,616.763 435.5,618.5C 432.455,618.508 429.455,618.841 426.5,619.5C 420.913,620.642 415.58,622.309 410.5,624.5C 406.001,625.374 401.667,626.707 397.5,628.5C 397.158,629.338 396.492,629.672 395.5,629.5C 392.053,630.083 389.053,631.416 386.5,633.5C 381.564,635.467 376.897,637.801 372.5,640.5C 368.441,641.364 364.774,643.03 361.5,645.5C 358.026,647.318 354.693,649.318 351.5,651.5C 349.326,651.75 347.659,652.75 346.5,654.5C 344.326,654.75 342.659,655.75 341.5,657.5C 302.902,682.087 268.902,712.087 239.5,747.5C 236.81,749.193 234.81,751.527 233.5,754.5C 229.848,757.822 226.515,761.488 223.5,765.5C 219.45,771.203 215.45,776.87 211.5,782.5C 208.395,785.275 206.062,788.608 204.5,792.5C 203.833,792.5 203.5,792.833 203.5,793.5C 200.723,795.951 198.723,798.951 197.5,802.5C 186.692,815.991 177.025,830.324 168.5,845.5C 166.755,847.033 165.755,849.033 165.5,851.5C 163.231,853.242 161.898,855.576 161.5,858.5C 158.449,861.93 156.116,865.93 154.5,870.5C 151.787,874.971 149.453,879.638 147.5,884.5C 145.613,886.789 144.279,889.455 143.5,892.5C 143.5,892.833 143.5,893.167 143.5,893.5C 141.592,894.486 140.592,896.152 140.5,898.5C 140.5,898.833 140.5,899.167 140.5,899.5C 138.245,901.531 136.912,904.198 136.5,907.5C 136.5,907.833 136.5,908.167 136.5,908.5C 134.592,909.486 133.592,911.152 133.5,913.5C 132.766,914.708 132.433,916.041 132.5,917.5C 130.592,918.486 129.592,920.152 129.5,922.5C 127.591,925.551 126.258,928.884 125.5,932.5C 123.755,934.033 122.755,936.033 122.5,938.5C 122.5,938.833 122.5,939.167 122.5,939.5C 120.416,942.053 119.083,945.053 118.5,948.5C 118.5,949.167 118.5,949.833 118.5,950.5C 116.592,951.486 115.592,953.152 115.5,955.5C 114.559,957.772 113.226,959.772 111.5,961.5C 109.833,961.5 108.167,961.5 106.5,961.5C 106.448,959.097 106.781,956.764 107.5,954.5C 110.134,945.895 113.134,937.562 116.5,929.5C 118.629,926.46 120.296,923.127 121.5,919.5C 122.084,916.997 122.751,914.497 123.5,912C 127.691,904.671 131.358,897.171 134.5,889.5C 135.87,887.75 136.87,885.75 137.5,883.5C 139.884,876.342 143.217,869.675 147.5,863.5C 150.997,860.3 153.33,856.3 154.5,851.5C 156.245,849.967 157.245,847.967 157.5,845.5C 160.433,839.286 164.1,833.619 168.5,828.5C 170.316,826.882 171.649,824.882 172.5,822.5C 177.669,813.492 183.336,804.825 189.5,796.5C 191.531,795.461 192.864,793.795 193.5,791.5C 193.709,790.078 194.209,788.745 195,787.5C 199.414,782.328 203.581,776.994 207.5,771.5C 210.917,769.408 213.25,766.408 214.5,762.5C 216.482,759.19 218.815,756.19 221.5,753.5C 222.496,753.586 223.329,753.252 224,752.5C 225.75,750.266 227.25,747.932 228.5,745.5C 228.833,744.5 229.5,743.833 230.5,743.5C 232.914,742.089 234.581,740.089 235.5,737.5C 272.798,693.187 317.132,657.853 368.5,631.5C 372.942,631.706 376.275,630.04 378.5,626.5C 382.814,624.927 386.981,622.927 391,620.5C 397.97,617.763 405.137,615.763 412.5,614.5C 415.272,614.241 417.605,613.241 419.5,611.5C 421.099,611.768 422.432,611.434 423.5,610.5C 426.187,610.664 428.854,610.497 431.5,610C 432.416,609.722 433.082,609.222 433.5,608.5C 440.26,607.997 446.926,606.997 453.5,605.5C 464.327,604.414 474.994,604.414 485.5,605.5C 490.332,606.4 495.332,607.066 500.5,607.5C 507.792,607.942 514.792,609.442 521.5,612C 529.609,616.055 537.942,619.555 546.5,622.5C 546.973,623.906 547.973,624.573 549.5,624.5C 561.898,630.198 574.231,636.198 586.5,642.5C 589.709,644.934 593.376,646.601 597.5,647.5C 599.027,647.427 600.027,648.094 600.5,649.5C 603.709,651.934 607.376,653.601 611.5,654.5C 613.033,656.245 615.033,657.245 617.5,657.5C 627.963,662.354 638.296,667.354 648.5,672.5C 650.033,674.245 652.033,675.245 654.5,675.5C 674.22,685.922 694.887,693.589 716.5,698.5C 723.926,700.321 731.592,701.321 739.5,701.5C 750.459,702.062 761.125,700.562 771.5,697C 777.69,694.716 783.69,692.05 789.5,689C 801.146,680.35 812.479,671.35 823.5,662C 839.339,646.994 855.006,631.827 870.5,616.5C 874.234,613.769 877.234,610.436 879.5,606.5C 889.468,595.359 899.302,584.026 909,572.5C 909.638,451.832 909.471,331.165 908.5,210.5C 908.667,198.162 908.5,185.829 908,173.5C 907.283,174.044 906.783,174.711 906.5,175.5C 904.113,180.055 900.613,183.388 896,185.5C 890.977,184.458 889.31,181.458 891,176.5C 897.167,168.167 903.333,159.833 909.5,151.5C 911.527,149.661 913.86,149.161 916.5,150C 923.938,158.382 930.771,167.215 937,176.5C 938.098,183.743 935.265,186.243 928.5,184C 925.8,181.412 923.467,178.579 921.5,175.5 Z"/></g>
<g><path style="opacity:1" fill="#5f9def" d="M 851.5,199.5 C 859.01,198.18 866.677,198.18 874.5,199.5C 874.376,200.107 874.043,200.44 873.5,200.5C 866.352,199.508 859.019,199.175 851.5,199.5 Z"/></g>
<g><path style="opacity:1" fill="#2377e9" d="M 851.5,199.5 C 859.019,199.175 866.352,199.508 873.5,200.5C 864.361,226.749 854.528,252.749 844,278.5C 839.382,285.562 832.882,289.728 824.5,291C 819.316,291.816 814.316,291.65 809.5,290.5C 809.178,284.642 809.511,278.975 810.5,273.5C 820.268,275.454 826.268,271.621 828.5,262C 820.265,241.127 811.931,220.293 803.5,199.5C 811.392,198.186 819.225,198.186 827,199.5C 831.613,213.672 835.613,228.005 839,242.5C 842.671,227.991 846.838,213.657 851.5,199.5 Z"/></g>
<g><path style="opacity:1" fill="#626262" d="M 921.5,175.5 C 920.505,186.654 920.172,197.988 920.5,209.5C 919.34,197.674 919.174,185.674 920,173.5C 920.717,174.044 921.217,174.711 921.5,175.5 Z"/></g>
<g><path style="opacity:1" fill="#9d9d9d" d="M 908.5,210.5 C 907.833,198.833 907.167,187.167 906.5,175.5C 906.783,174.711 907.283,174.044 908,173.5C 908.5,185.829 908.667,198.162 908.5,210.5 Z"/></g>
<g><path style="opacity:1" fill="#9fc4f5" d="M 810.5,273.5 C 809.511,278.975 809.178,284.642 809.5,290.5C 808.183,284.654 808.183,278.654 809.5,272.5C 810.107,272.624 810.44,272.957 810.5,273.5 Z"/></g>
<g><path style="opacity:1" fill="#cc0f2b" d="M 1254.5,285.5 C 1254.5,286.167 1254.83,286.5 1255.5,286.5C 1256.93,289.308 1257.6,292.308 1257.5,295.5C 1256.73,311.431 1248.4,318.597 1232.5,317C 1227.22,315.547 1222.89,312.714 1219.5,308.5C 1218.21,305.302 1217.55,301.969 1217.5,298.5C 1218.04,283.128 1226.04,275.961 1241.5,277C 1246.82,278.521 1251.16,281.354 1254.5,285.5 Z"/></g>
<g><path style="opacity:1" fill="#555555" d="M 1283.5,282.5 C 1293.01,281.364 1302.68,281.364 1312.5,282.5C 1312.5,282.833 1312.5,283.167 1312.5,283.5C 1302.85,282.755 1293.19,282.422 1283.5,282.5 Z"/></g>
<g><path style="opacity:1" fill="#0e0e0e" d="M 1282.5,282.5 C 1282.83,282.5 1283.17,282.5 1283.5,282.5C 1293.19,282.422 1302.85,282.755 1312.5,283.5C 1318.69,284.01 1324.69,285.344 1330.5,287.5C 1332.5,287.833 1334.5,288.167 1336.5,288.5C 1338.03,290.245 1340.03,291.245 1342.5,291.5C 1351.34,295.852 1360.01,300.686 1368.5,306C 1377.68,313.094 1386.68,320.427 1395.5,328C 1423.12,356.96 1446.95,388.794 1467,423.5C 1478.86,446.751 1490.53,470.084 1502,493.5C 1503.36,498.408 1505.19,503.074 1507.5,507.5C 1507.75,509.967 1508.75,511.967 1510.5,513.5C 1517.7,529.123 1524.7,544.79 1531.5,560.5C 1527.62,561.109 1524.28,562.776 1521.5,565.5C 1521.36,560.748 1520.03,556.415 1517.5,552.5C 1517.25,550.033 1516.25,548.033 1514.5,546.5C 1514.67,545.508 1514.34,544.842 1513.5,544.5C 1513.83,541.509 1512.83,539.176 1510.5,537.5C 1510.5,537.167 1510.5,536.833 1510.5,536.5C 1510.25,534.033 1509.25,532.033 1507.5,530.5C 1507.44,529.391 1507.11,528.391 1506.5,527.5C 1506.25,525.033 1505.25,523.033 1503.5,521.5C 1501.17,516.149 1498.83,510.816 1496.5,505.5C 1495.6,501.376 1493.93,497.709 1491.5,494.5C 1477.74,464.441 1462.57,435.108 1446,406.5C 1440.68,398.031 1434.85,390.031 1428.5,382.5C 1427.92,380.251 1426.59,378.585 1424.5,377.5C 1405.27,349.432 1381.6,325.932 1353.5,307C 1347.42,303.721 1341.09,300.888 1334.5,298.5C 1334.39,297.883 1334.06,297.383 1333.5,297C 1331.13,296.56 1328.8,296.06 1326.5,295.5C 1321.44,294.647 1316.44,293.48 1311.5,292C 1302.17,291.5 1292.84,291.334 1283.5,291.5C 1277.49,291.801 1271.49,292.301 1265.5,293C 1262.9,293.39 1260.56,294.224 1258.5,295.5C 1258.17,295.5 1257.83,295.5 1257.5,295.5C 1257.6,292.308 1256.93,289.308 1255.5,286.5C 1258.55,286.889 1261.22,286.223 1263.5,284.5C 1264.17,284.5 1264.83,284.5 1265.5,284.5C 1271.34,284.102 1277.01,283.435 1282.5,282.5 Z"/></g>
<g><path style="opacity:1" fill="#a6a6a6" d="M 1312.5,283.5 C 1312.5,283.167 1312.5,282.833 1312.5,282.5C 1319.28,281.911 1325.28,283.578 1330.5,287.5C 1324.69,285.344 1318.69,284.01 1312.5,283.5 Z"/></g>
<g><path style="opacity:1" fill="#848484" d="M 1282.5,282.5 C 1277.01,283.435 1271.34,284.102 1265.5,284.5C 1266.61,283.71 1267.94,283.21 1269.5,283C 1273.82,282.501 1278.15,282.334 1282.5,282.5 Z"/></g>
<g><path style="opacity:1" fill="#626161" d="M 1263.5,284.5 C 1261.22,286.223 1258.55,286.889 1255.5,286.5C 1254.83,286.5 1254.5,286.167 1254.5,285.5C 1257.52,285.296 1260.52,284.963 1263.5,284.5 Z"/></g>
<g><path style="opacity:1" fill="#818181" d="M 1336.5,288.5 C 1338.97,288.755 1340.97,289.755 1342.5,291.5C 1340.03,291.245 1338.03,290.245 1336.5,288.5 Z"/></g>
<g><path style="opacity:1" fill="#9a9a9a" d="M 1283.5,291.5 C 1275.53,293.355 1267.19,294.689 1258.5,295.5C 1260.56,294.224 1262.9,293.39 1265.5,293C 1271.49,292.301 1277.49,291.801 1283.5,291.5 Z"/></g>
<g><path style="opacity:1" fill="#7e7e7e" d="M 1326.5,295.5 C 1328.8,296.06 1331.13,296.56 1333.5,297C 1334.06,297.383 1334.39,297.883 1334.5,298.5C 1332.2,297.94 1329.87,297.44 1327.5,297C 1326.94,296.617 1326.61,296.117 1326.5,295.5 Z"/></g>
<g><path style="opacity:1" fill="#000000" d="M 1640.5,308.5 C 1635.5,308.5 1630.5,308.5 1625.5,308.5C 1625.5,394.833 1625.5,481.167 1625.5,567.5C 1631.17,567.985 1636.84,568.985 1642.5,570.5C 1644.5,574.727 1643.5,577.893 1639.5,580C 1625.83,580.667 1612.17,580.667 1598.5,580C 1594.61,576.254 1594.61,572.588 1598.5,569C 1603.49,568.501 1608.49,568.334 1613.5,568.5C 1614.5,482.002 1614.83,395.335 1614.5,308.5C 1609.5,308.5 1604.5,308.5 1599.5,308.5C 1596.86,307.758 1595.53,305.925 1595.5,303C 1595.64,300.849 1596.64,299.182 1598.5,298C 1612.83,297.333 1627.17,297.333 1641.5,298C 1643.48,300.497 1643.98,303.331 1643,306.5C 1642.29,307.381 1641.46,308.047 1640.5,308.5 Z"/></g>
<g><path style="opacity:1" fill="#727272" d="M 1200.5,306.5 C 1198.97,308.245 1196.97,309.245 1194.5,309.5C 1196.03,307.755 1198.03,306.755 1200.5,306.5 Z"/></g>
<g><path style="opacity:1" fill="#949494" d="M 1216.5,309.5 C 1214.35,311.718 1211.68,313.052 1208.5,313.5C 1210.53,311.245 1213.2,309.912 1216.5,309.5 Z"/></g>
<g><path style="opacity:1" fill="#464646" d="M 1599.5,308.5 C 1604.5,308.5 1609.5,308.5 1614.5,308.5C 1614.83,395.335 1614.5,482.002 1613.5,568.5C 1613.5,482.167 1613.5,395.833 1613.5,309.5C 1608.64,309.819 1603.97,309.486 1599.5,308.5 Z"/></g>
<g><path style="opacity:1" fill="#b7b7b7" d="M 1640.5,308.5 C 1636.03,309.486 1631.36,309.819 1626.5,309.5C 1626.83,395.668 1626.5,481.668 1625.5,567.5C 1625.5,481.167 1625.5,394.833 1625.5,308.5C 1630.5,308.5 1635.5,308.5 1640.5,308.5 Z"/></g>
<g><path style="opacity:1" fill="#777777" d="M 1207.5,313.5 C 1205.97,315.245 1203.97,316.245 1201.5,316.5C 1203.03,314.755 1205.03,313.755 1207.5,313.5 Z"/></g>
<g><path style="opacity:1" fill="#939393" d="M 1193.5,320.5 C 1192.51,322.408 1190.85,323.408 1188.5,323.5C 1189.66,321.75 1191.33,320.75 1193.5,320.5 Z"/></g>
<g><path style="opacity:1" fill="#404040" d="M 1174.5,320.5 C 1172.27,323.575 1169.27,325.575 1165.5,326.5C 1167.95,323.723 1170.95,321.723 1174.5,320.5 Z"/></g>
<g><path style="opacity:1" fill="#989898" d="M 1181.5,327.5 C 1180.51,329.408 1178.85,330.408 1176.5,330.5C 1177.66,328.75 1179.33,327.75 1181.5,327.5 Z"/></g>
<g><path style="opacity:1" fill="#858585" d="M 1174.5,331.5 C 1173.51,333.408 1171.85,334.408 1169.5,334.5C 1170.66,332.75 1172.33,331.75 1174.5,331.5 Z"/></g>
<g><path style="opacity:1" fill="#9f9f9f" d="M 1165.5,337.5 C 1164.15,339.738 1162.15,341.071 1159.5,341.5C 1160.73,339.204 1162.73,337.87 1165.5,337.5 Z"/></g>
<g><path style="opacity:1" fill="#9b9b9b" d="M 1157.5,342.5 C 1156.04,344.63 1154.04,345.963 1151.5,346.5C 1152.95,344.39 1154.95,343.057 1157.5,342.5 Z"/></g>
<g><path style="opacity:1" fill="#aaaaaa" d="M 1129.5,362.5 C 1125.78,366.863 1121.45,370.53 1116.5,373.5C 1120.17,369.15 1124.5,365.483 1129.5,362.5 Z"/></g>
<g><path style="opacity:1" fill="#565656" d="M 1108.5,367.5 C 1106.78,370.219 1104.45,372.219 1101.5,373.5C 1103.19,370.81 1105.53,368.81 1108.5,367.5 Z"/></g>
<g><path style="opacity:1" fill="#9c9c9c" d="M 1424.5,377.5 C 1426.59,378.585 1427.92,380.251 1428.5,382.5C 1426.41,381.415 1425.08,379.749 1424.5,377.5 Z"/></g>
<g><path style="opacity:1" fill="#2176e9" d="M 1682.5,399.5 C 1691.86,399.168 1701.19,399.502 1710.5,400.5C 1718.67,422.833 1726.83,445.167 1735,467.5C 1735.5,472.823 1735.67,478.156 1735.5,483.5C 1709.5,483.5 1683.5,483.5 1657.5,483.5C 1657.33,478.489 1657.5,473.489 1658,468.5C 1666.47,445.578 1674.64,422.578 1682.5,399.5 Z"/></g>
<g><path style="opacity:1" fill="#649fef" d="M 1761.5,419.5 C 1753.65,419.175 1745.98,419.508 1738.5,420.5C 1737.96,420.44 1737.62,420.107 1737.5,419.5C 1745.66,418.18 1753.66,418.18 1761.5,419.5 Z"/></g>
<g><path style="opacity:1" fill="#2377e9" d="M 1738.5,420.5 C 1745.98,419.508 1753.65,419.175 1761.5,419.5C 1765.63,432.357 1769.3,445.357 1772.5,458.5C 1773.17,463.833 1773.83,463.833 1774.5,458.5C 1777.86,445.383 1781.7,432.383 1786,419.5C 1793.41,418.519 1800.91,418.186 1808.5,418.5C 1799.39,446.385 1788.89,473.719 1777,500.5C 1768.56,509.866 1758.06,513.366 1745.5,511C 1743.57,505.464 1742.91,499.631 1743.5,493.5C 1753.43,495.709 1759.77,492.042 1762.5,482.5C 1754.7,461.754 1746.7,441.087 1738.5,420.5 Z"/></g>
<g><path style="opacity:1" fill="#f9fbfe" d="M 1710.5,463.5 C 1701.17,464.833 1691.83,464.833 1682.5,463.5C 1686.77,449.035 1691.43,434.702 1696.5,420.5C 1701.97,434.578 1706.64,448.911 1710.5,463.5 Z"/></g>
<g><path style="opacity:1" fill="#a4a4a4" d="M 1066.5,417.5 C 1061.44,423.559 1055.78,428.893 1049.5,433.5C 1054.56,427.441 1060.22,422.107 1066.5,417.5 Z"/></g>
<g><path style="opacity:1" fill="#565656" d="M 1043.5,426.5 C 1041.43,429.573 1038.76,431.906 1035.5,433.5C 1037.57,430.427 1040.24,428.094 1043.5,426.5 Z"/></g>
<g><path style="opacity:1" fill="#9b9b9b" d="M 1040.5,442.5 C 1039.4,445.386 1037.4,447.386 1034.5,448.5C 1034.41,447.504 1034.75,446.671 1035.5,446C 1037.28,444.86 1038.95,443.693 1040.5,442.5 Z"/></g>
<g><path style="opacity:1" fill="#87b4f3" d="M 1772.5,458.5 C 1773.17,458.5 1773.83,458.5 1774.5,458.5C 1773.83,463.833 1773.17,463.833 1772.5,458.5 Z"/></g>
<g><path style="opacity:1" fill="#87b6f3" d="M 1682.5,463.5 C 1691.83,464.833 1701.17,464.833 1710.5,463.5C 1711.04,463.56 1711.38,463.893 1711.5,464.5C 1701.5,465.833 1691.5,465.833 1681.5,464.5C 1681.62,463.893 1681.96,463.56 1682.5,463.5 Z"/></g>
<g><path style="opacity:1" fill="#5b5b5b" d="M 1007.5,461.5 C 1005.91,464.764 1003.57,467.431 1000.5,469.5C 1002.09,466.236 1004.43,463.569 1007.5,461.5 Z"/></g>
<g><path style="opacity:1" fill="#a0a0a0" d="M 1011.5,471.5 C 1007.9,476.774 1003.56,481.441 998.5,485.5C 1002.1,480.226 1006.44,475.559 1011.5,471.5 Z"/></g>
<g><path style="opacity:1" fill="#969696" d="M 1491.5,494.5 C 1493.93,497.709 1495.6,501.376 1496.5,505.5C 1494.55,503.52 1493.05,501.187 1492,498.5C 1491.51,497.207 1491.34,495.873 1491.5,494.5 Z"/></g>
<g><path style="opacity:1" fill="#696969" d="M 1507.5,507.5 C 1509.25,509.033 1510.25,511.033 1510.5,513.5C 1508.75,511.967 1507.75,509.967 1507.5,507.5 Z"/></g>
<g><path style="opacity:1" fill="#999999" d="M 973.5,512.5 C 972.243,515.427 970.243,517.761 967.5,519.5C 968.757,516.573 970.757,514.239 973.5,512.5 Z"/></g>
<g><path style="opacity:1" fill="#939393" d="M 965.5,521.5 C 964.243,524.427 962.243,526.761 959.5,528.5C 960.757,525.573 962.757,523.239 965.5,521.5 Z"/></g>
<g><path style="opacity:1" fill="#8e8e8e" d="M 1503.5,521.5 C 1505.25,523.033 1506.25,525.033 1506.5,527.5C 1504.75,525.967 1503.75,523.967 1503.5,521.5 Z"/></g>
<g><path style="opacity:1" fill="#919191" d="M 1507.5,530.5 C 1509.25,532.033 1510.25,534.033 1510.5,536.5C 1508.75,534.967 1507.75,532.967 1507.5,530.5 Z"/></g>
<g><path style="opacity:1" fill="#b4b4b4" d="M 954.5,534.5 C 952.876,537.806 950.542,540.473 947.5,542.5C 949.169,539.17 951.502,536.503 954.5,534.5 Z"/></g>
<g><path style="opacity:1" fill="#848484" d="M 1510.5,537.5 C 1512.83,539.176 1513.83,541.509 1513.5,544.5C 1511.93,542.491 1510.93,540.157 1510.5,537.5 Z"/></g>
<g><path style="opacity:1" fill="#9a9a9a" d="M 921.5,524.5 C 922.167,534.833 922.833,545.167 923.5,555.5C 923.539,556.756 923.039,557.756 922,558.5C 921.5,547.172 921.333,535.838 921.5,524.5 Z"/></g>
<g><path style="opacity:1" fill="#838383" d="M 1514.5,546.5 C 1516.25,548.033 1517.25,550.033 1517.5,552.5C 1515.75,550.967 1514.75,548.967 1514.5,546.5 Z"/></g>
<g><path style="opacity:1" fill="#cc0c2a" d="M 1531.5,560.5 C 1548.48,560.308 1556.31,568.642 1555,585.5C 1553.84,589.822 1551.68,593.489 1548.5,596.5C 1545.4,598.384 1542.06,599.718 1538.5,600.5C 1520.71,600.296 1513.21,591.296 1516,573.5C 1517.31,570.379 1519.14,567.713 1521.5,565.5C 1524.28,562.776 1527.62,561.109 1531.5,560.5 Z"/></g>
<g><path style="opacity:1" fill="#999999" d="M 908.5,588.5 C 906.57,592.1 903.903,595.1 900.5,597.5C 902.43,593.9 905.097,590.9 908.5,588.5 Z"/></g>
<g><path style="opacity:1" fill="#0f0e0e" d="M 1548.5,596.5 C 1549.03,600.291 1550.03,603.957 1551.5,607.5C 1560.05,627.843 1568.39,648.177 1576.5,668.5C 1577.89,672.035 1579.06,675.702 1580,679.5C 1580.38,680.056 1580.88,680.389 1581.5,680.5C 1581.83,681.833 1582.17,683.167 1582.5,684.5C 1584.04,688.296 1585.71,691.963 1587.5,695.5C 1597.29,717.423 1606.29,739.756 1614.5,762.5C 1616.04,766.296 1617.71,769.963 1619.5,773.5C 1623.64,783.551 1627.97,793.551 1632.5,803.5C 1632.55,806.346 1633.55,808.68 1635.5,810.5C 1644.68,829.541 1653.35,848.874 1661.5,868.5C 1661.68,873.787 1663.35,878.453 1666.5,882.5C 1667.34,882.842 1667.67,883.508 1667.5,884.5C 1667.75,886.967 1668.75,888.967 1670.5,890.5C 1673.41,896.665 1676.08,902.998 1678.5,909.5C 1680.52,913.937 1682.52,918.271 1684.5,922.5C 1689.63,935.903 1694.97,949.236 1700.5,962.5C 1700.26,964.898 1700.93,966.898 1702.5,968.5C 1704.35,971.594 1704.85,974.928 1704,978.5C 1701.67,981.167 1699.33,981.167 1697,978.5C 1691.72,966.158 1686.56,953.825 1681.5,941.5C 1681.25,939.033 1680.25,937.033 1678.5,935.5C 1677.63,930.777 1675.96,926.444 1673.5,922.5C 1673.66,921.127 1673.49,919.793 1673,918.5C 1671.5,915.714 1670,913.047 1668.5,910.5C 1668.34,908.847 1667.67,907.514 1666.5,906.5C 1666.74,904.102 1666.07,902.102 1664.5,900.5C 1661.68,894.215 1659.01,887.881 1656.5,881.5C 1656.25,879.033 1655.25,877.033 1653.5,875.5C 1653.17,874.167 1652.83,872.833 1652.5,871.5C 1652.25,869.033 1651.25,867.033 1649.5,865.5C 1646.59,856.398 1642.92,847.731 1638.5,839.5C 1638.25,837.033 1637.25,835.033 1635.5,833.5C 1634.93,830.127 1633.6,827.127 1631.5,824.5C 1631.25,822.033 1630.25,820.033 1628.5,818.5C 1626.86,813.577 1624.86,808.911 1622.5,804.5C 1621.35,801.057 1620.02,797.723 1618.5,794.5C 1617.66,794.158 1617.33,793.492 1617.5,792.5C 1617.25,790.033 1616.25,788.033 1614.5,786.5C 1613.74,782.884 1612.41,779.551 1610.5,776.5C 1607.8,768.988 1604.8,761.655 1601.5,754.5C 1600.07,753.22 1599.4,751.553 1599.5,749.5C 1599.25,747.033 1598.25,745.033 1596.5,743.5C 1592.84,734.176 1589.17,724.843 1585.5,715.5C 1584.87,712.603 1583.87,709.936 1582.5,707.5C 1582.17,706.833 1581.83,706.167 1581.5,705.5C 1581.25,703.033 1580.25,701.033 1578.5,699.5C 1578.67,698.508 1578.34,697.842 1577.5,697.5C 1575.83,692.809 1574.16,688.142 1572.5,683.5C 1571.46,682.07 1570.8,680.403 1570.5,678.5C 1570.25,676.033 1569.25,674.033 1567.5,672.5C 1567.5,672.167 1567.5,671.833 1567.5,671.5C 1567.25,669.033 1566.25,667.033 1564.5,665.5C 1564.17,664.167 1563.83,662.833 1563.5,661.5C 1562.92,658.053 1561.58,655.053 1559.5,652.5C 1559.74,650.102 1559.07,648.102 1557.5,646.5C 1556.89,645.609 1556.56,644.609 1556.5,643.5C 1556.25,641.033 1555.25,639.033 1553.5,637.5C 1553.74,636.209 1553.4,635.209 1552.5,634.5C 1552.74,632.102 1552.07,630.102 1550.5,628.5C 1549.89,627.609 1549.56,626.609 1549.5,625.5C 1549.25,623.033 1548.25,621.033 1546.5,619.5C 1546.67,618.508 1546.34,617.842 1545.5,617.5C 1545.74,615.102 1545.07,613.102 1543.5,611.5C 1543.17,610.833 1542.83,610.167 1542.5,609.5C 1542.25,607.033 1541.25,605.033 1539.5,603.5C 1539.44,602.391 1539.11,601.391 1538.5,600.5C 1542.06,599.718 1545.4,598.384 1548.5,596.5 Z"/></g>
<g><path style="opacity:1" fill="#646464" d="M 925.5,568.5 C 925.315,570.196 924.481,571.529 923,572.5C 922.5,583.828 922.333,595.162 922.5,606.5C 921.341,595.007 921.174,583.341 922,571.5C 923.039,570.29 924.206,569.29 925.5,568.5 Z"/></g>
<g><path style="opacity:1" fill="#c6c6c6" d="M 494.5,605.5 C 491.5,605.5 488.5,605.5 485.5,605.5C 474.994,604.414 464.327,604.414 453.5,605.5C 467.167,602.833 480.833,602.833 494.5,605.5 Z"/></g>
<g><path style="opacity:1" fill="#575757" d="M 485.5,605.5 C 488.5,605.5 491.5,605.5 494.5,605.5C 496.898,605.259 498.898,605.926 500.5,607.5C 495.332,607.066 490.332,606.4 485.5,605.5 Z"/></g>
<g><path style="opacity:1" fill="#949494" d="M 1539.5,603.5 C 1541.25,605.033 1542.25,607.033 1542.5,609.5C 1540.75,607.967 1539.75,605.967 1539.5,603.5 Z"/></g>
<g><path style="opacity:1" fill="#5c5c5c" d="M 433.5,608.5 C 433.082,609.222 432.416,609.722 431.5,610C 428.854,610.497 426.187,610.664 423.5,610.5C 426.627,609.419 429.96,608.753 433.5,608.5 Z"/></g>
<g><path style="opacity:1" fill="#565656" d="M 419.5,611.5 C 417.605,613.241 415.272,614.241 412.5,614.5C 414.282,612.643 416.615,611.643 419.5,611.5 Z"/></g>
<g><path style="opacity:1" fill="#595959" d="M 879.5,606.5 C 877.234,610.436 874.234,613.769 870.5,616.5C 872.766,612.564 875.766,609.231 879.5,606.5 Z"/></g>
<g><path style="opacity:1" fill="#747474" d="M 486.5,614.5 C 475.484,614.417 464.484,614.751 453.5,615.5C 453.611,614.883 453.944,614.383 454.5,614C 465.341,613.175 476.008,613.341 486.5,614.5 Z"/></g>
<g><path style="opacity:1" fill="#959595" d="M 1543.5,611.5 C 1545.07,613.102 1545.74,615.102 1545.5,617.5C 1543.93,615.898 1543.26,613.898 1543.5,611.5 Z"/></g>
<g><path style="opacity:1" fill="#c4c4c4" d="M 486.5,614.5 C 494.172,614.702 501.505,616.035 508.5,618.5C 502.853,617.753 497.186,617.086 491.5,616.5C 489.36,616.444 487.694,615.777 486.5,614.5 Z"/></g>
<g><path style="opacity:1" fill="#ababab" d="M 448.5,615.5 C 448.389,616.117 448.056,616.617 447.5,617C 443.49,617.501 439.49,618.001 435.5,618.5C 439.542,616.763 443.876,615.763 448.5,615.5 Z"/></g>
<g><path style="opacity:1" fill="#b0b0b0" d="M 910.5,622.5 C 909.833,611.167 909.167,599.833 908.5,588.5C 908.783,587.711 909.283,587.044 910,586.5C 910.5,598.495 910.667,610.495 910.5,622.5 Z"/></g>
<g><path style="opacity:1" fill="#8c8c8c" d="M 510.5,618.5 C 513.746,619.054 516.746,620.054 519.5,621.5C 516.008,621.554 513.008,620.554 510.5,618.5 Z"/></g>
<g><path style="opacity:1" fill="#b6b6b6" d="M 426.5,619.5 C 421.748,622.749 416.415,624.416 410.5,624.5C 415.58,622.309 420.913,620.642 426.5,619.5 Z"/></g>
<g><path style="opacity:1" fill="#767676" d="M 546.5,622.5 C 548.027,622.427 549.027,623.094 549.5,624.5C 547.973,624.573 546.973,623.906 546.5,622.5 Z"/></g>
<g><path style="opacity:1" fill="#828282" d="M 522.5,622.5 C 524.967,622.755 526.967,623.755 528.5,625.5C 526.033,625.245 524.033,624.245 522.5,622.5 Z"/></g>
<g><path style="opacity:1" fill="#6e6e6e" d="M 1546.5,619.5 C 1548.25,621.033 1549.25,623.033 1549.5,625.5C 1547.75,623.967 1546.75,621.967 1546.5,619.5 Z"/></g>
<g><path style="opacity:1" fill="#9e9e9e" d="M 410.5,624.5 C 406.761,627.411 402.427,628.744 397.5,628.5C 401.667,626.707 406.001,625.374 410.5,624.5 Z"/></g>
<g><path style="opacity:1" fill="#404040" d="M 378.5,626.5 C 376.275,630.04 372.942,631.706 368.5,631.5C 371.484,629.341 374.817,627.675 378.5,626.5 Z"/></g>
<g><path style="opacity:1" fill="#8c8c8c" d="M 395.5,629.5 C 393.066,631.874 390.066,633.208 386.5,633.5C 389.053,631.416 392.053,630.083 395.5,629.5 Z"/></g>
<g><path style="opacity:1" fill="#828282" d="M 1550.5,628.5 C 1552.07,630.102 1552.74,632.102 1552.5,634.5C 1550.93,632.898 1550.26,630.898 1550.5,628.5 Z"/></g>
<g><path style="opacity:1" fill="#626262" d="M 547.5,633.5 C 549.967,633.755 551.967,634.755 553.5,636.5C 551.033,636.245 549.033,635.245 547.5,633.5 Z"/></g>
<g><path style="opacity:1" fill="#b2b2b2" d="M 386.5,633.5 C 382.51,636.956 377.843,639.29 372.5,640.5C 376.897,637.801 381.564,635.467 386.5,633.5 Z"/></g>
<g><path style="opacity:1" fill="#a3a3a3" d="M 586.5,642.5 C 587.873,642.343 589.207,642.51 590.5,643C 593.187,644.049 595.52,645.549 597.5,647.5C 593.376,646.601 589.709,644.934 586.5,642.5 Z"/></g>
<g><path style="opacity:1" fill="#757575" d="M 1553.5,637.5 C 1555.25,639.033 1556.25,641.033 1556.5,643.5C 1554.75,641.967 1553.75,639.967 1553.5,637.5 Z"/></g>
<g><path style="opacity:1" fill="#939393" d="M 361.5,645.5 C 359.139,649.018 355.805,651.018 351.5,651.5C 354.693,649.318 358.026,647.318 361.5,645.5 Z"/></g>
<g><path style="opacity:1" fill="#a3a3a3" d="M 883.5,616.5 C 871.769,629.734 859.436,642.568 846.5,655C 845.906,655.464 845.239,655.631 844.5,655.5C 857.215,642.119 870.215,629.119 883.5,616.5 Z"/></g>
<g><path style="opacity:1" fill="#939393" d="M 600.5,649.5 C 601.873,649.343 603.207,649.51 604.5,650C 607.187,651.049 609.52,652.549 611.5,654.5C 607.376,653.601 603.709,651.934 600.5,649.5 Z"/></g>
<g><path style="opacity:1" fill="#828282" d="M 1557.5,646.5 C 1559.07,648.102 1559.74,650.102 1559.5,652.5C 1557.93,650.898 1557.26,648.898 1557.5,646.5 Z"/></g>
<g><path style="opacity:1" fill="#979797" d="M 346.5,654.5 C 345.514,656.408 343.848,657.408 341.5,657.5C 342.659,655.75 344.326,654.75 346.5,654.5 Z"/></g>
<g><path style="opacity:1" fill="#8c8c8c" d="M 611.5,654.5 C 613.967,654.755 615.967,655.755 617.5,657.5C 615.033,657.245 613.033,656.245 611.5,654.5 Z"/></g>
<g><path style="opacity:1" fill="#8d8d8d" d="M 1559.5,652.5 C 1561.58,655.053 1562.92,658.053 1563.5,661.5C 1562.07,660.097 1560.9,658.431 1560,656.5C 1559.51,655.207 1559.34,653.873 1559.5,652.5 Z"/></g>
<g><path style="opacity:1" fill="#767676" d="M 1564.5,665.5 C 1566.25,667.033 1567.25,669.033 1567.5,671.5C 1565.75,669.967 1564.75,667.967 1564.5,665.5 Z"/></g>
<g><path style="opacity:1" fill="#a7a7a7" d="M 1576.5,668.5 C 1579.32,671.927 1580.98,675.927 1581.5,680.5C 1580.88,680.389 1580.38,680.056 1580,679.5C 1579.06,675.702 1577.89,672.035 1576.5,668.5 Z"/></g>
<g><path style="opacity:1" fill="#9d9d9d" d="M 648.5,672.5 C 650.967,672.755 652.967,673.755 654.5,675.5C 652.033,675.245 650.033,674.245 648.5,672.5 Z"/></g>
<g><path style="opacity:1" fill="#6a6a6a" d="M 1567.5,672.5 C 1569.25,674.033 1570.25,676.033 1570.5,678.5C 1568.75,676.967 1567.75,674.967 1567.5,672.5 Z"/></g>
<g><path style="opacity:1" fill="#4e4e4e" d="M 643.5,680.5 C 648.129,681.481 652.129,683.481 655.5,686.5C 651.182,685.008 647.182,683.008 643.5,680.5 Z"/></g>
<g><path style="opacity:1" fill="#ababab" d="M 1582.5,684.5 C 1585.65,687.415 1587.32,691.082 1587.5,695.5C 1585.71,691.963 1584.04,688.296 1582.5,684.5 Z"/></g>
<g><path style="opacity:1" fill="#b5b5b5" d="M 814.5,682.5 C 811.293,686.449 807.293,689.449 802.5,691.5C 806.104,688.025 810.104,685.025 814.5,682.5 Z"/></g>
<g><path style="opacity:1" fill="#a6a6a6" d="M 1572.5,683.5 C 1574.16,688.142 1575.83,692.809 1577.5,697.5C 1574.35,693.453 1572.68,688.787 1572.5,683.5 Z"/></g>
<g><path style="opacity:1" fill="#c3c3c3" d="M 716.5,698.5 C 723.831,698.952 731.165,699.452 738.5,700C 739.056,700.383 739.389,700.883 739.5,701.5C 731.592,701.321 723.926,700.321 716.5,698.5 Z"/></g>
<g><path style="opacity:1" fill="#898989" d="M 691.5,700.5 C 694.486,700.903 697.152,701.903 699.5,703.5C 696.284,703.655 693.617,702.655 691.5,700.5 Z"/></g>
<g><path style="opacity:1" fill="#b6b6b6" d="M 784.5,701.5 C 783.71,702.794 782.71,703.961 781.5,705C 778.148,705.838 774.815,706.671 771.5,707.5C 775.513,705.146 779.846,703.146 784.5,701.5 Z"/></g>
<g><path style="opacity:1" fill="#888888" d="M 1578.5,699.5 C 1580.25,701.033 1581.25,703.033 1581.5,705.5C 1579.75,703.967 1578.75,701.967 1578.5,699.5 Z"/></g>
<g><path style="opacity:1" fill="#666666" d="M 708.5,705.5 C 710.898,705.259 712.898,705.926 714.5,707.5C 712.102,707.741 710.102,707.074 708.5,705.5 Z"/></g>
<g><path style="opacity:1" fill="#818181" d="M 716.5,707.5 C 719.655,707.99 722.655,708.656 725.5,709.5C 722.813,709.664 720.146,709.497 717.5,709C 716.944,708.617 716.611,708.117 716.5,707.5 Z"/></g>
<g><path style="opacity:1" fill="#4d4d4d" d="M 763.5,708.5 C 750.927,712.027 738.261,712.36 725.5,709.5C 738.217,711.009 750.884,710.675 763.5,708.5 Z"/></g>
<g><path style="opacity:1" fill="#999999" d="M 1582.5,707.5 C 1583.87,709.936 1584.87,712.603 1585.5,715.5C 1583.35,713.383 1582.35,710.716 1582.5,707.5 Z"/></g>
<g><path style="opacity:1" fill="#5b5b5b" d="M 235.5,737.5 C 234.581,740.089 232.914,742.089 230.5,743.5C 231.419,740.911 233.086,738.911 235.5,737.5 Z"/></g>
<g><path style="opacity:1" fill="#8a8a8a" d="M 1596.5,743.5 C 1598.25,745.033 1599.25,747.033 1599.5,749.5C 1597.75,747.967 1596.75,745.967 1596.5,743.5 Z"/></g>
<g><path style="opacity:1" fill="#636363" d="M 228.5,745.5 C 227.25,747.932 225.75,750.266 224,752.5C 223.329,753.252 222.496,753.586 221.5,753.5C 223.117,750.216 225.45,747.549 228.5,745.5 Z"/></g>
<g><path style="opacity:1" fill="#999999" d="M 239.5,747.5 C 238.219,750.447 236.219,752.781 233.5,754.5C 234.81,751.527 236.81,749.193 239.5,747.5 Z"/></g>
<g><path style="opacity:1" fill="#bcbcbc" d="M 1601.5,754.5 C 1604.8,761.655 1607.8,768.988 1610.5,776.5C 1607.08,771.552 1604.25,766.218 1602,760.5C 1601.5,758.527 1601.34,756.527 1601.5,754.5 Z"/></g>
<g><path style="opacity:1" fill="#525252" d="M 214.5,762.5 C 213.25,766.408 210.917,769.408 207.5,771.5C 209.482,768.19 211.815,765.19 214.5,762.5 Z"/></g>
<g><path style="opacity:1" fill="#a5a5a5" d="M 1614.5,762.5 C 1617.65,765.415 1619.32,769.082 1619.5,773.5C 1617.71,769.963 1616.04,766.296 1614.5,762.5 Z"/></g>
<g><path style="opacity:1" fill="#ababab" d="M 211.5,782.5 C 210.204,786.612 207.871,789.945 204.5,792.5C 206.062,788.608 208.395,785.275 211.5,782.5 Z"/></g>
<g><path style="opacity:1" fill="#858585" d="M 1614.5,786.5 C 1616.25,788.033 1617.25,790.033 1617.5,792.5C 1615.75,790.967 1614.75,788.967 1614.5,786.5 Z"/></g>
<g><path style="opacity:1" fill="#585858" d="M 193.5,791.5 C 192.864,793.795 191.531,795.461 189.5,796.5C 190.124,794.246 191.457,792.579 193.5,791.5 Z"/></g>
<g><path style="opacity:1" fill="#b6b6b6" d="M 203.5,793.5 C 203.322,794.695 202.989,795.862 202.5,797C 200.746,798.899 199.079,800.732 197.5,802.5C 198.723,798.951 200.723,795.951 203.5,793.5 Z"/></g>
<g><path style="opacity:1" fill="#ababab" d="M 1618.5,794.5 C 1620.02,797.723 1621.35,801.057 1622.5,804.5C 1619.57,801.987 1618.24,798.653 1618.5,794.5 Z"/></g>
<g><path style="opacity:1" fill="#666666" d="M 1632.5,803.5 C 1634.07,805.509 1635.07,807.843 1635.5,810.5C 1633.55,808.68 1632.55,806.346 1632.5,803.5 Z"/></g>
<g><path style="opacity:1" fill="#949494" d="M 1628.5,818.5 C 1630.25,820.033 1631.25,822.033 1631.5,824.5C 1629.75,822.967 1628.75,820.967 1628.5,818.5 Z"/></g>
<g><path style="opacity:1" fill="#616161" d="M 172.5,822.5 C 171.649,824.882 170.316,826.882 168.5,828.5C 168.87,825.733 170.204,823.733 172.5,822.5 Z"/></g>
<g><path style="opacity:1" fill="#7c7c7c" d="M 1635.5,833.5 C 1637.25,835.033 1638.25,837.033 1638.5,839.5C 1636.75,837.967 1635.75,835.967 1635.5,833.5 Z"/></g>
<g><path style="opacity:1" fill="#595959" d="M 157.5,845.5 C 157.245,847.967 156.245,849.967 154.5,851.5C 154.755,849.033 155.755,847.033 157.5,845.5 Z"/></g>
<g><path style="opacity:1" fill="#9f9f9f" d="M 168.5,845.5 C 168.245,847.967 167.245,849.967 165.5,851.5C 165.755,849.033 166.755,847.033 168.5,845.5 Z"/></g>
<g><path style="opacity:1" fill="#555555" d="M 154.5,851.5 C 153.33,856.3 150.997,860.3 147.5,863.5C 149.116,858.93 151.449,854.93 154.5,851.5 Z"/></g>
<g><path style="opacity:1" fill="#a1a1a1" d="M 161.5,858.5 C 160.33,863.3 157.997,867.3 154.5,870.5C 156.116,865.93 158.449,861.93 161.5,858.5 Z"/></g>
<g><path style="opacity:1" fill="#6e6e6e" d="M 1649.5,865.5 C 1651.25,867.033 1652.25,869.033 1652.5,871.5C 1650.75,869.967 1649.75,867.967 1649.5,865.5 Z"/></g>
<g><path style="opacity:1" fill="#4c4c4c" d="M 1661.5,868.5 C 1663.16,873.142 1664.83,877.809 1666.5,882.5C 1663.35,878.453 1661.68,873.787 1661.5,868.5 Z"/></g>
<g><path style="opacity:1" fill="#7a7a7a" d="M 1653.5,875.5 C 1655.25,877.033 1656.25,879.033 1656.5,881.5C 1654.75,879.967 1653.75,877.967 1653.5,875.5 Z"/></g>
<g><path style="opacity:1" fill="#9b9b9b" d="M 137.5,883.5 C 136.87,885.75 135.87,887.75 134.5,889.5C 134.386,886.784 135.386,884.784 137.5,883.5 Z"/></g>
<g><path style="opacity:1" fill="#979797" d="M 147.5,884.5 C 147.088,887.802 145.755,890.469 143.5,892.5C 144.279,889.455 145.613,886.789 147.5,884.5 Z"/></g>
<g><path style="opacity:1" fill="#666666" d="M 1667.5,884.5 C 1669.25,886.033 1670.25,888.033 1670.5,890.5C 1668.75,888.967 1667.75,886.967 1667.5,884.5 Z"/></g>
<g><path style="opacity:1" fill="#949494" d="M 143.5,893.5 C 143.25,895.674 142.25,897.341 140.5,898.5C 140.592,896.152 141.592,894.486 143.5,893.5 Z"/></g>
<g><path style="opacity:1" fill="#2176e9" d="M 1335.5,901.5 C 1344.86,901.168 1354.19,901.502 1363.5,902.5C 1371.67,924.833 1379.83,947.167 1388,969.5C 1388.5,974.823 1388.67,980.156 1388.5,985.5C 1362.5,985.5 1336.5,985.5 1310.5,985.5C 1310.33,980.489 1310.5,975.489 1311,970.5C 1319.47,947.578 1327.64,924.578 1335.5,901.5 Z"/></g>
<g><path style="opacity:1" fill="#9c9c9c" d="M 1664.5,900.5 C 1666.07,902.102 1666.74,904.102 1666.5,906.5C 1664.93,904.898 1664.26,902.898 1664.5,900.5 Z"/></g>
<g><path style="opacity:1" fill="#949494" d="M 140.5,899.5 C 140.052,902.682 138.718,905.349 136.5,907.5C 136.912,904.198 138.245,901.531 140.5,899.5 Z"/></g>
<g><path style="opacity:1" fill="#969696" d="M 136.5,908.5 C 136.25,910.674 135.25,912.341 133.5,913.5C 133.592,911.152 134.592,909.486 136.5,908.5 Z"/></g>
<g><path style="opacity:1" fill="#b2b2b2" d="M 1678.5,909.5 C 1682.14,912.967 1684.14,917.3 1684.5,922.5C 1682.52,918.271 1680.52,913.937 1678.5,909.5 Z"/></g>
<g><path style="opacity:1" fill="#a2a2a2" d="M 1668.5,910.5 C 1670,913.047 1671.5,915.714 1673,918.5C 1673.49,919.793 1673.66,921.127 1673.5,922.5C 1670.83,918.999 1669.16,914.999 1668.5,910.5 Z"/></g>
<g><path style="opacity:1" fill="#989898" d="M 132.5,917.5 C 132.25,919.674 131.25,921.341 129.5,922.5C 129.592,920.152 130.592,918.486 132.5,917.5 Z"/></g>
<g><path style="opacity:1" fill="#5c9bef" d="M 1437.5,921.5 C 1445.68,920.179 1454.01,920.179 1462.5,921.5C 1462.38,922.107 1462.04,922.44 1461.5,922.5C 1453.68,921.508 1445.68,921.174 1437.5,921.5 Z"/></g>
<g><path style="opacity:1" fill="#2277e9" d="M 1437.5,921.5 C 1445.68,921.174 1453.68,921.508 1461.5,922.5C 1455.51,932.482 1449.51,942.482 1443.5,952.5C 1449.78,963.546 1456.44,974.379 1463.5,985C 1455.17,985.667 1446.83,985.667 1438.5,985C 1434.96,978.751 1431.29,972.584 1427.5,966.5C 1423.77,972.245 1420.43,978.245 1417.5,984.5C 1408.85,985.665 1400.19,985.832 1391.5,985C 1398.56,974.379 1405.22,963.546 1411.5,952.5C 1405.4,941.892 1399.07,931.392 1392.5,921C 1400.83,920.333 1409.17,920.333 1417.5,921C 1420.96,926.761 1424.3,932.594 1427.5,938.5C 1430.9,932.794 1434.23,927.127 1437.5,921.5 Z"/></g>
<g><path style="opacity:1" fill="#f9fbfe" d="M 1363.5,965.5 C 1354.17,966.833 1344.83,966.833 1335.5,965.5C 1339.77,951.035 1344.43,936.702 1349.5,922.5C 1354.97,936.578 1359.64,950.911 1363.5,965.5 Z"/></g>
<g><path style="opacity:1" fill="#777777" d="M 121.5,919.5 C 120.296,923.127 118.629,926.46 116.5,929.5C 117.042,925.534 118.708,922.2 121.5,919.5 Z"/></g>
<g><path style="opacity:1" fill="#8d8d8d" d="M 125.5,932.5 C 125.245,934.967 124.245,936.967 122.5,938.5C 122.755,936.033 123.755,934.033 125.5,932.5 Z"/></g>
<g><path style="opacity:1" fill="#989898" d="M 1678.5,935.5 C 1680.25,937.033 1681.25,939.033 1681.5,941.5C 1679.75,939.967 1678.75,937.967 1678.5,935.5 Z"/></g>
<g><path style="opacity:1" fill="#9a9a9a" d="M 122.5,939.5 C 122.208,943.066 120.874,946.066 118.5,948.5C 119.083,945.053 120.416,942.053 122.5,939.5 Z"/></g>
<g><path style="opacity:1" fill="#9d9d9d" d="M 118.5,950.5 C 118.25,952.674 117.25,954.341 115.5,955.5C 115.592,953.152 116.592,951.486 118.5,950.5 Z"/></g>
<g><path style="opacity:1" fill="#6a6a6a" d="M 107.5,954.5 C 106.781,956.764 106.448,959.097 106.5,961.5C 108.167,961.5 109.833,961.5 111.5,961.5C 109.898,963.074 107.898,963.741 105.5,963.5C 104.945,959.988 105.612,956.988 107.5,954.5 Z"/></g>
<g><path style="opacity:1" fill="#5c5c5c" d="M 1700.5,962.5 C 1702.07,964.102 1702.74,966.102 1702.5,968.5C 1700.93,966.898 1700.26,964.898 1700.5,962.5 Z"/></g>
<g><path style="opacity:1" fill="#87b6f3" d="M 1335.5,965.5 C 1344.83,966.833 1354.17,966.833 1363.5,965.5C 1364.04,965.56 1364.38,965.893 1364.5,966.5C 1354.5,967.833 1344.5,967.833 1334.5,966.5C 1334.62,965.893 1334.96,965.56 1335.5,965.5 Z"/></g>
<g><path style="opacity:1" fill="#060606" d="M 1240.5,993.5 C 1243.97,992.875 1246.8,993.875 1249,996.5C 1249.5,1001.49 1249.67,1006.49 1249.5,1011.5C 1340.83,1011.5 1432.17,1011.5 1523.5,1011.5C 1523.33,1006.49 1523.5,1001.49 1524,996.5C 1527.67,992.5 1531.33,992.5 1535,996.5C 1535.67,1010.17 1535.67,1023.83 1535,1037.5C 1532.35,1041.76 1529.02,1042.43 1525,1039.5C 1523.6,1034.29 1523.1,1028.96 1523.5,1023.5C 1432.17,1023.5 1340.83,1023.5 1249.5,1023.5C 1249.9,1028.96 1249.4,1034.29 1248,1039.5C 1243.8,1042.66 1240.47,1041.99 1238,1037.5C 1237.33,1023.83 1237.33,1010.17 1238,996.5C 1239.04,995.627 1239.88,994.627 1240.5,993.5 Z"/></g>
<g><path style="opacity:1" fill="#5d9cef" d="M 1722.5,1113.5 C 1714.32,1113.17 1706.32,1113.51 1698.5,1114.5C 1697.96,1114.44 1697.62,1114.11 1697.5,1113.5C 1705.99,1112.18 1714.32,1112.18 1722.5,1113.5 Z"/></g>
<g><path style="opacity:1" fill="#5e9cef" d="M 1742.5,1113.5 C 1750.68,1112.18 1759.01,1112.18 1767.5,1113.5C 1767.38,1114.11 1767.04,1114.44 1766.5,1114.5C 1758.68,1113.51 1750.68,1113.17 1742.5,1113.5 Z"/></g>
<g><path style="opacity:1" fill="#2177e9" d="M 1722.5,1113.5 C 1725.82,1118.81 1729.16,1124.14 1732.5,1129.5C 1735.86,1124.1 1739.19,1118.77 1742.5,1113.5C 1750.68,1113.17 1758.68,1113.51 1766.5,1114.5C 1760.19,1124.48 1753.86,1134.48 1747.5,1144.5C 1754.62,1155.25 1761.62,1166.08 1768.5,1177C 1759.81,1177.83 1751.15,1177.67 1742.5,1176.5C 1739.25,1170.34 1735.75,1164.34 1732,1158.5C 1728.63,1164.75 1725.13,1170.91 1721.5,1177C 1713.15,1177.83 1704.81,1177.67 1696.5,1176.5C 1703.6,1166.08 1710.27,1155.41 1716.5,1144.5C 1710.5,1134.51 1704.5,1124.51 1698.5,1114.5C 1706.32,1113.51 1714.32,1113.17 1722.5,1113.5 Z"/></g>
</svg>
