<?xml version="1.0" encoding="UTF-8"?>
<!DOCTYPE svg PUBLIC "-//W3C//DTD SVG 1.1//EN" "http://www.w3.org/Graphics/SVG/1.1/DTD/svg11.dtd">
<svg xmlns="http://www.w3.org/2000/svg" version="1.1" width="2000px" height="1500px" style="shape-rendering:geometricPrecision; text-rendering:geometricPrecision; image-rendering:optimizeQuality; fill-rule:evenodd; clip-rule:evenodd" xmlns:xlink="http://www.w3.org/1999/xlink">
<g><path style="opacity:1" fill="#fefefe" d="M -0.5,-0.5 C 666.167,-0.5 1332.83,-0.5 1999.5,-0.5C 1999.5,499.5 1999.5,999.5 1999.5,1499.5C 1332.83,1499.5 666.167,1499.5 -0.5,1499.5C -0.5,999.5 -0.5,499.5 -0.5,-0.5 Z"/></g>
<g><path style="opacity:1" fill="#080808" d="M 961.5,463.5 C 962.496,463.586 963.329,463.252 964,462.5C 966.08,459.935 967.913,457.268 969.5,454.5C 994.674,424.985 1021.34,396.652 1049.5,369.5C 1053.1,367.57 1056.1,364.903 1058.5,361.5C 1086.1,332.896 1116.1,307.229 1148.5,284.5C 1152.54,283.149 1155.87,280.815 1158.5,277.5C 1159.29,276.599 1160.29,275.932 1161.5,275.5C 1166.13,274.525 1169.79,272.192 1172.5,268.5C 1182.55,262.265 1192.88,256.599 1203.5,251.5C 1205.82,251.008 1207.82,250.008 1209.5,248.5C 1214.11,245.362 1219.11,243.029 1224.5,241.5C 1227.15,241.59 1229.49,240.924 1231.5,239.5C 1233,239.011 1234.33,238.345 1235.5,237.5C 1238.15,237.59 1240.49,236.924 1242.5,235.5C 1244.83,234.833 1247.17,234.167 1249.5,233.5C 1254.47,233.344 1259.14,232.344 1263.5,230.5C 1267.5,230.167 1271.5,229.833 1275.5,229.5C 1284.15,228.747 1292.81,228.413 1301.5,228.5C 1307.09,229.404 1312.76,230.07 1318.5,230.5C 1318.61,231.117 1318.94,231.617 1319.5,232C 1322.48,232.696 1325.48,233.196 1328.5,233.5C 1356.2,244.947 1380.03,261.947 1400,284.5C 1422.81,310.796 1442.64,339.13 1459.5,369.5C 1459.55,372.346 1460.55,374.68 1462.5,376.5C 1470.13,391.287 1477.46,406.287 1484.5,421.5C 1484.75,423.967 1485.75,425.967 1487.5,427.5C 1490.88,433.979 1493.88,440.646 1496.5,447.5C 1497.28,450.545 1498.61,453.211 1500.5,455.5C 1505.92,466.196 1510.59,477.196 1514.5,488.5C 1514.43,490.027 1515.09,491.027 1516.5,491.5C 1521.53,502.367 1526.19,513.367 1530.5,524.5C 1530.75,526.967 1531.75,528.967 1533.5,530.5C 1534.11,531.391 1534.44,532.391 1534.5,533.5C 1534.75,535.967 1535.75,537.967 1537.5,539.5C 1541.24,548.397 1544.58,557.397 1547.5,566.5C 1547.75,568.967 1548.75,570.967 1550.5,572.5C 1552.94,576.819 1554.61,581.486 1555.5,586.5C 1555.75,588.967 1556.75,590.967 1558.5,592.5C 1558.5,592.833 1558.5,593.167 1558.5,593.5C 1559.28,596.539 1560.61,599.206 1562.5,601.5C 1566.06,611.128 1570.06,620.628 1574.5,630C 1577.94,638.837 1581.28,647.671 1584.5,656.5C 1584.75,658.967 1585.75,660.967 1587.5,662.5C 1596.42,684.08 1605.25,705.747 1614,727.5C 1616,730.745 1618,734.078 1620,737.5C 1624.36,749.424 1629.19,761.09 1634.5,772.5C 1635.08,775.947 1636.42,778.947 1638.5,781.5C 1643.32,791.578 1647.65,801.912 1651.5,812.5C 1651.75,814.967 1652.75,816.967 1654.5,818.5C 1655.11,819.391 1655.44,820.391 1655.5,821.5C 1655.75,823.967 1656.75,825.967 1658.5,827.5C 1664.32,842.302 1670.32,856.969 1676.5,871.5C 1676.26,873.898 1676.93,875.898 1678.5,877.5C 1680.28,880.183 1680.78,883.183 1680,886.5C 1677.67,889.167 1675.33,889.167 1673,886.5C 1668.64,874.579 1663.81,862.912 1658.5,851.5C 1658.25,849.033 1657.25,847.033 1655.5,845.5C 1655.17,844.167 1654.83,842.833 1654.5,841.5C 1654.07,838.843 1653.07,836.509 1651.5,834.5C 1650.89,833.609 1650.56,832.609 1650.5,831.5C 1650.07,828.843 1649.07,826.509 1647.5,824.5C 1647.17,823.833 1646.83,823.167 1646.5,822.5C 1646.07,819.843 1645.07,817.509 1643.5,815.5C 1642.66,815.158 1642.33,814.492 1642.5,813.5C 1641.92,810.053 1640.58,807.053 1638.5,804.5C 1638.44,803.391 1638.11,802.391 1637.5,801.5C 1637.25,799.033 1636.25,797.033 1634.5,795.5C 1634.44,794.391 1634.11,793.391 1633.5,792.5C 1633.25,790.033 1632.25,788.033 1630.5,786.5C 1630.57,785.041 1630.23,783.708 1629.5,782.5C 1629.07,779.843 1628.07,777.509 1626.5,775.5C 1626.17,774.833 1625.83,774.167 1625.5,773.5C 1625.25,771.033 1624.25,769.033 1622.5,767.5C 1621.6,763.136 1619.94,759.136 1617.5,755.5C 1616.92,752.053 1615.58,749.053 1613.5,746.5C 1612.64,742.441 1610.97,738.774 1608.5,735.5C 1608.25,733.033 1607.25,731.033 1605.5,729.5C 1605.44,728.391 1605.11,727.391 1604.5,726.5C 1604.07,723.843 1603.07,721.509 1601.5,719.5C 1601.17,718.833 1600.83,718.167 1600.5,717.5C 1599.92,714.053 1598.58,711.053 1596.5,708.5C 1595.92,705.053 1594.58,702.053 1592.5,699.5C 1589.68,691.699 1586.68,684.033 1583.5,676.5C 1583.25,674.033 1582.25,672.033 1580.5,670.5C 1580.2,668.597 1579.54,666.93 1578.5,665.5C 1578.74,663.102 1578.07,661.102 1576.5,659.5C 1575.22,655.338 1573.56,651.338 1571.5,647.5C 1570.87,644.603 1569.87,641.936 1568.5,639.5C 1567.46,638.07 1566.8,636.403 1566.5,634.5C 1566.25,632.033 1565.25,630.033 1563.5,628.5C 1563.44,627.391 1563.11,626.391 1562.5,625.5C 1562.25,623.033 1561.25,621.033 1559.5,619.5C 1559.44,618.391 1559.11,617.391 1558.5,616.5C 1557.92,613.053 1556.58,610.053 1554.5,607.5C 1553.95,603.505 1552.61,599.839 1550.5,596.5C 1550.25,594.033 1549.25,592.033 1547.5,590.5C 1546.43,585.212 1544.6,580.212 1542,575.5C 1542.62,706.164 1543.12,836.83 1543.5,967.5C 1613.17,967.667 1682.83,967.5 1752.5,967C 1748.65,964.146 1745.15,960.979 1742,957.5C 1740.8,953.037 1742.46,950.37 1747,949.5C 1749.82,949.993 1752.32,951.16 1754.5,953C 1760.88,958.385 1767.55,963.385 1774.5,968C 1778.39,971.588 1778.39,975.254 1774.5,979C 1767.55,983.615 1760.88,988.615 1754.5,994C 1750.98,997.681 1747.15,998.181 1743,995.5C 1741.7,993.635 1741.37,991.635 1742,989.5C 1745.15,986.021 1748.65,982.854 1752.5,980C 1480.5,979.5 1208.5,979.333 936.5,979.5C 936.667,999.836 936.5,1020.17 936,1040.5C 933.836,1045.66 930.502,1046.66 926,1043.5C 925.5,1022.17 925.333,1000.84 925.5,979.5C 806.167,979.5 686.833,979.5 567.5,979.5C 567.5,979.167 567.5,978.833 567.5,978.5C 566.577,971.891 566.244,965.224 566.5,958.5C 566.333,824.166 566.5,689.833 567,555.5C 567.833,554.667 568.667,553.833 569.5,553C 562.914,550.551 556.248,548.384 549.5,546.5C 546.112,544.882 542.446,543.882 538.5,543.5C 536.833,543.5 535.167,543.5 533.5,543.5C 528.04,542.171 522.207,541.504 516,541.5C 510.167,541.667 504.333,541.833 498.5,542C 497.584,542.278 496.918,542.778 496.5,543.5C 494.833,543.5 493.167,543.5 491.5,543.5C 485.476,544.099 479.476,544.932 473.5,546C 472.584,546.278 471.918,546.778 471.5,547.5C 469.901,547.232 468.568,547.566 467.5,548.5C 464.008,548.446 461.008,549.446 458.5,551.5C 456.435,551.517 454.435,551.85 452.5,552.5C 450.033,552.755 448.033,553.755 446.5,555.5C 440.411,557.423 434.411,559.589 428.5,562C 418.912,566.955 409.578,572.122 400.5,577.5C 398.326,577.75 396.659,578.75 395.5,580.5C 392.299,581.379 389.632,583.045 387.5,585.5C 384.802,585.845 382.802,587.178 381.5,589.5C 353.811,607.841 328.811,629.508 306.5,654.5C 303.119,656.88 300.453,659.88 298.5,663.5C 270.094,695.618 245.094,730.285 223.5,767.5C 221.75,768.659 220.75,770.326 220.5,772.5C 220.167,773.167 219.833,773.833 219.5,774.5C 217.755,776.033 216.755,778.033 216.5,780.5C 209.939,792.158 203.939,804.158 198.5,816.5C 196.755,818.033 195.755,820.033 195.5,822.5C 195.011,823.995 194.345,825.329 193.5,826.5C 191.926,828.102 191.259,830.102 191.5,832.5C 190.662,832.842 190.328,833.508 190.5,834.5C 188.613,836.789 187.279,839.455 186.5,842.5C 186.5,842.833 186.5,843.167 186.5,843.5C 184.229,845.612 182.896,848.279 182.5,851.5C 180.452,857.34 177.952,863.007 175,868.5C 173.266,870.451 171.099,871.451 168.5,871.5C 168.337,869.143 168.503,866.81 169,864.5C 172.288,858.425 174.454,851.925 175.5,845C 180.422,834.039 185.422,823.206 190.5,812.5C 192.771,810.388 194.104,807.721 194.5,804.5C 200.278,791.13 206.611,778.13 213.5,765.5C 222.749,752.675 231.249,739.341 239,725.5C 245.083,717.598 250.917,709.598 256.5,701.5C 258.531,700.461 259.864,698.795 260.5,696.5C 260.932,695.29 261.599,694.29 262.5,693.5C 263.906,693.027 264.573,692.027 264.5,690.5C 297.751,645.246 337.751,607.246 384.5,576.5C 388.689,575.786 392.022,573.786 394.5,570.5C 405.038,565.182 415.538,559.516 426,553.5C 435.669,549.892 445.169,546.225 454.5,542.5C 457.553,542.889 460.22,542.223 462.5,540.5C 466.071,539.358 469.738,538.691 473.5,538.5C 477.463,538.139 481.13,537.139 484.5,535.5C 498.794,534.081 513.127,533.415 527.5,533.5C 531.995,534.422 536.662,535.089 541.5,535.5C 542.5,535.5 543.5,535.5 544.5,535.5C 544.611,536.117 544.944,536.617 545.5,537C 547.473,537.495 549.473,537.662 551.5,537.5C 552.568,538.434 553.901,538.768 555.5,538.5C 555.611,539.117 555.944,539.617 556.5,540C 559.546,540.739 562.546,541.572 565.5,542.5C 567.579,542.971 569.579,543.637 571.5,544.5C 573.509,546.065 575.843,547.065 578.5,547.5C 588.325,552.749 598.325,557.415 608.5,561.5C 610.033,563.245 612.033,564.245 614.5,564.5C 634.425,575.257 654.758,585.257 675.5,594.5C 677.033,596.245 679.033,597.245 681.5,597.5C 684.696,600.124 688.363,601.791 692.5,602.5C 694.033,604.245 696.033,605.245 698.5,605.5C 699.391,606.11 700.391,606.443 701.5,606.5C 707.594,609.538 713.927,612.204 720.5,614.5C 723.327,614.584 725.994,615.25 728.5,616.5C 730.102,618.074 732.102,618.741 734.5,618.5C 753.042,624.79 772.042,626.123 791.5,622.5C 794.916,622.472 797.916,621.472 800.5,619.5C 803.925,617.435 807.592,615.769 811.5,614.5C 815.283,613.585 818.283,611.585 820.5,608.5C 860.428,576.74 896.594,541.073 929,501.5C 930.694,358.503 931.694,215.503 932,72.5C 929.833,75.3333 927.667,78.1667 925.5,81C 920.665,83.7233 917.665,82.39 916.5,77C 921.999,67.4863 928.333,58.4863 935.5,50C 937.568,49.3131 939.568,49.4798 941.5,50.5C 948.452,58.9097 954.785,67.7431 960.5,77C 959.132,81.5187 956.132,83.1853 951.5,82C 948.612,78.7784 946.112,75.2784 944,71.5C 942.152,210.163 941.152,348.829 941,487.5C 947.624,479.202 954.458,471.202 961.5,463.5 Z"/></g>
<g><path style="opacity:1" fill="#2377e9" d="M 840.5,149.5 C 847.863,149.169 855.197,149.503 862.5,150.5C 866.84,163.686 870.673,177.019 874,190.5C 877.324,177.027 881.158,163.693 885.5,150.5C 892.811,149.335 900.144,149.169 907.5,150C 897.867,175.229 888.034,200.395 878,225.5C 874.891,229.481 871.058,232.648 866.5,235C 859.574,236.339 852.574,236.839 845.5,236.5C 845.171,230.794 845.505,225.128 846.5,219.5C 855.822,222.023 861.489,218.523 863.5,209C 855.732,189.196 848.066,169.362 840.5,149.5 Z"/></g>
<g><path style="opacity:1" fill="#7d7d7d" d="M 1301.5,228.5 C 1292.81,228.413 1284.15,228.747 1275.5,229.5C 1280.41,227.993 1285.58,227.326 1291,227.5C 1294.68,227.501 1298.18,227.835 1301.5,228.5 Z"/></g>
<g><path style="opacity:1" fill="#737373" d="M 1263.5,230.5 C 1259.14,232.344 1254.47,233.344 1249.5,233.5C 1253.88,231.77 1258.55,230.77 1263.5,230.5 Z"/></g>
<g><path style="opacity:1" fill="#686868" d="M 1318.5,230.5 C 1322.08,231.007 1325.42,232.007 1328.5,233.5C 1325.48,233.196 1322.48,232.696 1319.5,232C 1318.94,231.617 1318.61,231.117 1318.5,230.5 Z"/></g>
<g><path style="opacity:1" fill="#8b8b8b" d="M 1242.5,235.5 C 1240.49,236.924 1238.15,237.59 1235.5,237.5C 1237.51,236.076 1239.85,235.41 1242.5,235.5 Z"/></g>
<g><path style="opacity:1" fill="#686868" d="M 1312.5,238.5 C 1299.47,237.362 1286.47,237.362 1273.5,238.5C 1273.61,237.883 1273.94,237.383 1274.5,237C 1286.17,236.333 1297.83,236.333 1309.5,237C 1310.74,237.232 1311.74,237.732 1312.5,238.5 Z"/></g>
<g><path style="opacity:1" fill="#fefefe" d="M 1312.5,238.5 C 1321.87,240.512 1330.87,243.512 1339.5,247.5C 1339.97,248.906 1340.97,249.573 1342.5,249.5C 1350.91,253.882 1358.91,259.049 1366.5,265C 1373.34,271.005 1380,277.171 1386.5,283.5C 1387.42,286.089 1389.09,288.089 1391.5,289.5C 1411.75,311.106 1429.42,334.772 1444.5,360.5C 1445.92,364.338 1447.59,368.005 1449.5,371.5C 1450.37,375.288 1452.03,378.621 1454.5,381.5C 1460.67,392.507 1466.34,403.84 1471.5,415.5C 1471.43,417.027 1472.09,418.027 1473.5,418.5C 1479.22,428.947 1484.22,439.947 1488.5,451.5C 1488.75,453.967 1489.75,455.967 1491.5,457.5C 1492.44,459.05 1493.11,460.716 1493.5,462.5C 1493.75,464.967 1494.75,466.967 1496.5,468.5C 1498.38,471.603 1499.72,474.937 1500.5,478.5C 1501.08,481.947 1502.42,484.947 1504.5,487.5C 1505.11,488.391 1505.44,489.391 1505.5,490.5C 1505.75,492.967 1506.75,494.967 1508.5,496.5C 1509.11,497.391 1509.44,498.391 1509.5,499.5C 1509.75,501.967 1510.75,503.967 1512.5,505.5C 1513.11,506.391 1513.44,507.391 1513.5,508.5C 1513.75,510.967 1514.75,512.967 1516.5,514.5C 1517.11,515.391 1517.44,516.391 1517.5,517.5C 1517.75,519.967 1518.75,521.967 1520.5,523.5C 1520.34,524.873 1520.51,526.207 1521,527.5C 1522.05,530.187 1523.55,532.52 1525.5,534.5C 1525.5,534.833 1525.5,535.167 1525.5,535.5C 1525.43,537.027 1526.09,538.027 1527.5,538.5C 1528.71,541.889 1530.04,545.222 1531.5,548.5C 1531.67,550.861 1532.01,553.194 1532.5,555.5C 1533.29,692.833 1533.96,830.166 1534.5,967.5C 1363.5,967.5 1192.5,967.5 1021.5,967.5C 1020.67,795.832 1019.67,624.165 1018.5,452.5C 1018.33,440.162 1018.5,427.829 1019,415.5C 1019.79,414.255 1020.29,412.922 1020.5,411.5C 1034.69,396.574 1049.35,381.908 1064.5,367.5C 1068.77,364.899 1072.44,361.566 1075.5,357.5C 1096.56,336.623 1118.89,317.123 1142.5,299C 1162.92,283.79 1184.58,270.624 1207.5,259.5C 1211.7,258.777 1215.37,257.11 1218.5,254.5C 1225.52,250.17 1233.18,247.17 1241.5,245.5C 1243.9,245.741 1245.9,245.074 1247.5,243.5C 1248.83,243.167 1250.17,242.833 1251.5,242.5C 1256.47,241.623 1261.47,240.789 1266.5,240C 1267.42,239.722 1268.08,239.222 1268.5,238.5C 1270.17,238.5 1271.83,238.5 1273.5,238.5C 1286.47,237.362 1299.47,237.362 1312.5,238.5 Z"/></g>
<g><path style="opacity:1" fill="#757575" d="M 1231.5,239.5 C 1229.49,240.924 1227.15,241.59 1224.5,241.5C 1226.51,240.076 1228.85,239.41 1231.5,239.5 Z"/></g>
<g><path style="opacity:1" fill="#8a8a8a" d="M 1268.5,238.5 C 1268.08,239.222 1267.42,239.722 1266.5,240C 1261.47,240.789 1256.47,241.623 1251.5,242.5C 1251.61,241.883 1251.94,241.383 1252.5,241C 1257.83,240.057 1263.16,239.223 1268.5,238.5 Z"/></g>
<g><path style="opacity:1" fill="#9b9b9b" d="M 1247.5,243.5 C 1245.9,245.074 1243.9,245.741 1241.5,245.5C 1243.1,243.926 1245.1,243.259 1247.5,243.5 Z"/></g>
<g><path style="opacity:1" fill="#808080" d="M 1209.5,248.5 C 1207.82,250.008 1205.82,251.008 1203.5,251.5C 1204.91,249.461 1206.91,248.461 1209.5,248.5 Z"/></g>
<g><path style="opacity:1" fill="#787878" d="M 1339.5,247.5 C 1341.03,247.427 1342.03,248.094 1342.5,249.5C 1340.97,249.573 1339.97,248.906 1339.5,247.5 Z"/></g>
<g><path style="opacity:1" fill="#b1b1b1" d="M 1218.5,254.5 C 1215.37,257.11 1211.7,258.777 1207.5,259.5C 1210.71,257.066 1214.38,255.399 1218.5,254.5 Z"/></g>
<g><path style="opacity:1" fill="#474747" d="M 1172.5,268.5 C 1169.79,272.192 1166.13,274.525 1161.5,275.5C 1164.89,272.779 1168.56,270.446 1172.5,268.5 Z"/></g>
<g><path style="opacity:1" fill="#4e4e4e" d="M 1158.5,277.5 C 1155.87,280.815 1152.54,283.149 1148.5,284.5C 1151.48,281.677 1154.81,279.344 1158.5,277.5 Z"/></g>
<g><path style="opacity:1" fill="#9a9a9a" d="M 1386.5,283.5 C 1388.91,284.911 1390.58,286.911 1391.5,289.5C 1389.09,288.089 1387.42,286.089 1386.5,283.5 Z"/></g>
<g><path style="opacity:1" fill="#a6a6a6" d="M 1075.5,357.5 C 1072.44,361.566 1068.77,364.899 1064.5,367.5C 1067.56,363.434 1071.23,360.101 1075.5,357.5 Z"/></g>
<g><path style="opacity:1" fill="#494949" d="M 1058.5,361.5 C 1056.1,364.903 1053.1,367.57 1049.5,369.5C 1051.9,366.097 1054.9,363.43 1058.5,361.5 Z"/></g>
<g><path style="opacity:1" fill="#b6b6b6" d="M 1449.5,371.5 C 1452.2,374.235 1453.87,377.569 1454.5,381.5C 1452.03,378.621 1450.37,375.288 1449.5,371.5 Z"/></g>
<g><path style="opacity:1" fill="#7d7d7d" d="M 1459.5,369.5 C 1461.07,371.509 1462.07,373.843 1462.5,376.5C 1460.55,374.68 1459.55,372.346 1459.5,369.5 Z"/></g>
<g><path style="opacity:1" fill="#787878" d="M 1471.5,415.5 C 1472.91,415.973 1473.57,416.973 1473.5,418.5C 1472.09,418.027 1471.43,417.027 1471.5,415.5 Z"/></g>
<g><path style="opacity:1" fill="#fdfdfd" d="M 1007.5,425.5 C 1008.17,441.167 1008.83,456.833 1009.5,472.5C 1010.55,637.5 1011.55,802.5 1012.5,967.5C 987.167,967.5 961.833,967.5 936.5,967.5C 937.588,812.5 938.754,657.5 940,502.5C 941.331,500.004 943.164,498.004 945.5,496.5C 947.587,495.415 948.92,493.749 949.5,491.5C 967.745,468.585 987.079,446.585 1007.5,425.5 Z"/></g>
<g><path style="opacity:1" fill="#595959" d="M 1484.5,421.5 C 1486.25,423.033 1487.25,425.033 1487.5,427.5C 1485.75,425.967 1484.75,423.967 1484.5,421.5 Z"/></g>
<g><path style="opacity:1" fill="#a3a3a3" d="M 1020.5,411.5 C 1020.29,412.922 1019.79,414.255 1019,415.5C 1018.5,427.829 1018.33,440.162 1018.5,452.5C 1017.34,439.673 1017.17,426.673 1018,413.5C 1018.71,412.619 1019.54,411.953 1020.5,411.5 Z"/></g>
<g><path style="opacity:1" fill="#656565" d="M 1496.5,447.5 C 1498.77,449.612 1500.1,452.279 1500.5,455.5C 1498.61,453.211 1497.28,450.545 1496.5,447.5 Z"/></g>
<g><path style="opacity:1" fill="#979797" d="M 1488.5,451.5 C 1490.25,453.033 1491.25,455.033 1491.5,457.5C 1489.75,455.967 1488.75,453.967 1488.5,451.5 Z"/></g>
<g><path style="opacity:1" fill="#494949" d="M 969.5,454.5 C 967.913,457.268 966.08,459.935 964,462.5C 963.329,463.252 962.496,463.586 961.5,463.5C 963.453,459.88 966.119,456.88 969.5,454.5 Z"/></g>
<g><path style="opacity:1" fill="#929292" d="M 1493.5,462.5 C 1495.25,464.033 1496.25,466.033 1496.5,468.5C 1494.75,466.967 1493.75,464.967 1493.5,462.5 Z"/></g>
<g><path style="opacity:1" fill="#7a7a7a" d="M 1007.5,425.5 C 1007.56,424.957 1007.89,424.624 1008.5,424.5C 1009.5,440.486 1009.83,456.486 1009.5,472.5C 1008.83,456.833 1008.17,441.167 1007.5,425.5 Z"/></g>
<g><path style="opacity:1" fill="#8d8d8d" d="M 1500.5,478.5 C 1502.58,481.053 1503.92,484.053 1504.5,487.5C 1502.42,484.947 1501.08,481.947 1500.5,478.5 Z"/></g>
<g><path style="opacity:1" fill="#777777" d="M 1514.5,488.5 C 1515.91,488.973 1516.57,489.973 1516.5,491.5C 1515.09,491.027 1514.43,490.027 1514.5,488.5 Z"/></g>
<g><path style="opacity:1" fill="#9e9e9e" d="M 949.5,491.5 C 948.92,493.749 947.587,495.415 945.5,496.5C 946.08,494.251 947.413,492.585 949.5,491.5 Z"/></g>
<g><path style="opacity:1" fill="#9d9d9d" d="M 1505.5,490.5 C 1507.25,492.033 1508.25,494.033 1508.5,496.5C 1506.75,494.967 1505.75,492.967 1505.5,490.5 Z"/></g>
<g><path style="opacity:1" fill="#9c9c9c" d="M 1509.5,499.5 C 1511.25,501.033 1512.25,503.033 1512.5,505.5C 1510.75,503.967 1509.75,501.967 1509.5,499.5 Z"/></g>
<g><path style="opacity:1" fill="#949494" d="M 1513.5,508.5 C 1515.25,510.033 1516.25,512.033 1516.5,514.5C 1514.75,512.967 1513.75,510.967 1513.5,508.5 Z"/></g>
<g><path style="opacity:1" fill="#fefefe" d="M 927.5,517.5 C 928.495,529.655 928.829,541.989 928.5,554.5C 927.783,692.169 926.783,829.835 925.5,967.5C 810.833,967.5 696.167,967.5 581.5,967.5C 581.139,963.778 579.472,960.778 576.5,958.5C 575.835,824.829 576.502,691.496 578.5,558.5C 580.216,558.629 581.883,558.962 583.5,559.5C 585.612,561.771 588.279,563.104 591.5,563.5C 628.396,581.782 665.396,599.782 702.5,617.5C 712.995,621.456 723.662,624.789 734.5,627.5C 734.791,628.649 735.624,629.316 737,629.5C 739.137,630.077 741.304,630.41 743.5,630.5C 773.994,637.672 801.994,632.339 827.5,614.5C 839.212,605.438 850.546,596.105 861.5,586.5C 873.414,576.09 884.914,565.09 896,553.5C 896.464,552.906 896.631,552.239 896.5,551.5C 904.509,542.792 912.509,534.125 920.5,525.5C 922.587,524.415 923.92,522.749 924.5,520.5C 925.167,519.167 926.167,518.167 927.5,517.5 Z"/></g>
<g><path style="opacity:1" fill="#939393" d="M 1517.5,517.5 C 1519.25,519.033 1520.25,521.033 1520.5,523.5C 1518.75,521.967 1517.75,519.967 1517.5,517.5 Z"/></g>
<g><path style="opacity:1" fill="#8b8b8b" d="M 924.5,520.5 C 923.92,522.749 922.587,524.415 920.5,525.5C 921.08,523.251 922.413,521.585 924.5,520.5 Z"/></g>
<g><path style="opacity:1" fill="#a5a5a5" d="M 1520.5,523.5 C 1522.93,526.709 1524.6,530.376 1525.5,534.5C 1523.55,532.52 1522.05,530.187 1521,527.5C 1520.51,526.207 1520.34,524.873 1520.5,523.5 Z"/></g>
<g><path style="opacity:1" fill="#636363" d="M 1530.5,524.5 C 1532.25,526.033 1533.25,528.033 1533.5,530.5C 1531.75,528.967 1530.75,526.967 1530.5,524.5 Z"/></g>
<g><path style="opacity:1" fill="#949494" d="M 527.5,533.5 C 531.182,533.335 534.848,533.501 538.5,534C 539.737,534.232 540.737,534.732 541.5,535.5C 536.662,535.089 531.995,534.422 527.5,533.5 Z"/></g>
<g><path style="opacity:1" fill="#606060" d="M 484.5,535.5 C 481.13,537.139 477.463,538.139 473.5,538.5C 473.611,537.883 473.944,537.383 474.5,537C 477.827,536.39 481.161,535.89 484.5,535.5 Z"/></g>
<g><path style="opacity:1" fill="#555555" d="M 544.5,535.5 C 547.01,535.927 549.343,536.593 551.5,537.5C 549.473,537.662 547.473,537.495 545.5,537C 544.944,536.617 544.611,536.117 544.5,535.5 Z"/></g>
<g><path style="opacity:1" fill="#767676" d="M 1525.5,535.5 C 1526.91,535.973 1527.57,536.973 1527.5,538.5C 1526.09,538.027 1525.43,537.027 1525.5,535.5 Z"/></g>
<g><path style="opacity:1" fill="#6e6e6e" d="M 1534.5,533.5 C 1536.25,535.033 1537.25,537.033 1537.5,539.5C 1535.75,537.967 1534.75,535.967 1534.5,533.5 Z"/></g>
<g><path style="opacity:1" fill="#575757" d="M 555.5,538.5 C 559.313,538.938 562.646,540.271 565.5,542.5C 562.546,541.572 559.546,540.739 556.5,540C 555.944,539.617 555.611,539.117 555.5,538.5 Z"/></g>
<g><path style="opacity:1" fill="#838383" d="M 462.5,540.5 C 460.22,542.223 457.553,542.889 454.5,542.5C 456.905,541.232 459.572,540.565 462.5,540.5 Z"/></g>
<g><path style="opacity:1" fill="#747474" d="M 533.5,543.5 C 521.175,542.282 508.842,542.282 496.5,543.5C 496.918,542.778 497.584,542.278 498.5,542C 504.333,541.833 510.167,541.667 516,541.5C 522.207,541.504 528.04,542.171 533.5,543.5 Z"/></g>
<g><path style="opacity:1" fill="#898989" d="M 491.5,543.5 C 485.084,545.462 478.417,546.796 471.5,547.5C 471.918,546.778 472.584,546.278 473.5,546C 479.476,544.932 485.476,544.099 491.5,543.5 Z"/></g>
<g><path style="opacity:1" fill="#b8b8b8" d="M 538.5,543.5 C 542.446,543.882 546.112,544.882 549.5,546.5C 546.998,546.251 544.498,545.917 542,545.5C 540.319,545.392 539.152,544.725 538.5,543.5 Z"/></g>
<g><path style="opacity:1" fill="#9d9d9d" d="M 571.5,544.5 C 574.491,544.166 576.824,545.166 578.5,547.5C 575.843,547.065 573.509,546.065 571.5,544.5 Z"/></g>
<g><path style="opacity:1" fill="#8f8f8f" d="M 467.5,548.5 C 464.811,550.117 461.811,551.117 458.5,551.5C 461.008,549.446 464.008,548.446 467.5,548.5 Z"/></g>
<g><path style="opacity:1" fill="#757575" d="M 928.5,554.5 C 928.829,541.989 928.495,529.655 927.5,517.5C 927.369,516.624 927.702,515.957 928.5,515.5C 929.825,528.661 929.825,541.661 928.5,554.5 Z"/></g>
<g><path style="opacity:1" fill="#8f8f8f" d="M 1531.5,548.5 C 1533.31,550.713 1533.65,553.047 1532.5,555.5C 1532.01,553.194 1531.67,550.861 1531.5,548.5 Z"/></g>
<g><path style="opacity:1" fill="#7f7f7f" d="M 452.5,552.5 C 450.967,554.245 448.967,555.245 446.5,555.5C 448.033,553.755 450.033,552.755 452.5,552.5 Z"/></g>
<g><path style="opacity:1" fill="#eaeaea" d="M 577.5,556.5 C 577.833,557.167 578.167,557.833 578.5,558.5C 576.502,691.496 575.835,824.829 576.5,958.5C 576.167,958.5 575.833,958.5 575.5,958.5C 574.835,824.163 575.502,690.163 577.5,556.5 Z"/></g>
<g><path style="opacity:1" fill="#626262" d="M 577.5,556.5 C 579.967,556.755 581.967,557.755 583.5,559.5C 581.883,558.962 580.216,558.629 578.5,558.5C 578.167,557.833 577.833,557.167 577.5,556.5 Z"/></g>
<g><path style="opacity:1" fill="#828282" d="M 583.5,559.5 C 586.545,560.279 589.211,561.613 591.5,563.5C 588.279,563.104 585.612,561.771 583.5,559.5 Z"/></g>
<g><path style="opacity:1" fill="#9b9b9b" d="M 608.5,561.5 C 610.967,561.755 612.967,562.755 614.5,564.5C 612.033,564.245 610.033,563.245 608.5,561.5 Z"/></g>
<g><path style="opacity:1" fill="#a9a9a9" d="M 896.5,551.5 C 896.631,552.239 896.464,552.906 896,553.5C 884.914,565.09 873.414,576.09 861.5,586.5C 872.833,574.5 884.5,562.833 896.5,551.5 Z"/></g>
<g><path style="opacity:1" fill="#0a0a0a" d="M 1222.5,569.5 C 1226.51,569.334 1230.51,569.501 1234.5,570C 1236.78,570.233 1238.78,571.066 1240.5,572.5C 1239.31,574.751 1238.31,577.085 1237.5,579.5C 1233.59,579.692 1229.59,579.859 1225.5,580C 1224.67,580.833 1223.83,581.667 1223,582.5C 1220.11,596.566 1225.28,600.566 1238.5,594.5C 1241.25,601.761 1238.92,605.927 1231.5,607C 1220.14,608.913 1212.97,604.413 1210,593.5C 1207.19,581.556 1211.36,573.556 1222.5,569.5 Z"/></g>
<g><path style="opacity:1" fill="#5f5f5f" d="M 1547.5,566.5 C 1549.25,568.033 1550.25,570.033 1550.5,572.5C 1548.75,570.967 1547.75,568.967 1547.5,566.5 Z"/></g>
<g><path style="opacity:1" fill="#474747" d="M 394.5,570.5 C 392.022,573.786 388.689,575.786 384.5,576.5C 387.693,574.318 391.026,572.318 394.5,570.5 Z"/></g>
<g><path style="opacity:1" fill="#9b9b9b" d="M 400.5,577.5 C 399.514,579.408 397.848,580.408 395.5,580.5C 396.659,578.75 398.326,577.75 400.5,577.5 Z"/></g>
<g><path style="opacity:1" fill="#8d8d8d" d="M 387.5,585.5 C 385.853,587.326 383.853,588.66 381.5,589.5C 382.802,587.178 384.802,585.845 387.5,585.5 Z"/></g>
<g><path style="opacity:1" fill="#717171" d="M 1555.5,586.5 C 1557.25,588.033 1558.25,590.033 1558.5,592.5C 1556.75,590.967 1555.75,588.967 1555.5,586.5 Z"/></g>
<g><path style="opacity:1" fill="#828282" d="M 1547.5,590.5 C 1549.25,592.033 1550.25,594.033 1550.5,596.5C 1548.75,594.967 1547.75,592.967 1547.5,590.5 Z"/></g>
<g><path style="opacity:1" fill="#9e9e9e" d="M 675.5,594.5 C 677.967,594.755 679.967,595.755 681.5,597.5C 679.033,597.245 677.033,596.245 675.5,594.5 Z"/></g>
<g><path style="opacity:1" fill="#9a9a9a" d="M 1558.5,593.5 C 1560.76,595.531 1562.09,598.198 1562.5,601.5C 1560.61,599.206 1559.28,596.539 1558.5,593.5 Z"/></g>
<g><path style="opacity:1" fill="#8e8e8e" d="M 692.5,602.5 C 694.967,602.755 696.967,603.755 698.5,605.5C 696.033,605.245 694.033,604.245 692.5,602.5 Z"/></g>
<g><path style="opacity:1" fill="#a5a5a5" d="M 701.5,606.5 C 704.738,607.633 708.071,608.467 711.5,609C 714.525,610.935 717.525,612.768 720.5,614.5C 713.927,612.204 707.594,609.538 701.5,606.5 Z"/></g>
<g><path style="opacity:1" fill="#565656" d="M 820.5,608.5 C 818.283,611.585 815.283,613.585 811.5,614.5C 811.369,613.624 811.702,612.957 812.5,612.5C 815.426,611.547 818.093,610.213 820.5,608.5 Z"/></g>
<g><path style="opacity:1" fill="#8a8a8a" d="M 1554.5,607.5 C 1556.58,610.053 1557.92,613.053 1558.5,616.5C 1556.42,613.947 1555.08,610.947 1554.5,607.5 Z"/></g>
<g><path style="opacity:1" fill="#9b9b9b" d="M 728.5,616.5 C 730.898,616.259 732.898,616.926 734.5,618.5C 732.102,618.741 730.102,618.074 728.5,616.5 Z"/></g>
<g><path style="opacity:1" fill="#070707" d="M 1208.5,618.5 C 1215.69,616.988 1221.52,618.988 1226,624.5C 1227.72,633.116 1224.22,636.949 1215.5,636C 1211.72,633.776 1209.72,630.443 1209.5,626C 1207.61,625.837 1206.11,626.671 1205,628.5C 1203.84,632.123 1202.84,635.789 1202,639.5C 1200.9,659.826 1199.9,680.159 1199,700.5C 1198.52,714.435 1195.52,727.768 1190,740.5C 1184.85,748.989 1177.35,752.489 1167.5,751C 1160.97,748.771 1158.47,744.271 1160,737.5C 1160.5,735.667 1161.67,734.5 1163.5,734C 1167.24,733.071 1170.74,733.571 1174,735.5C 1174.74,738.545 1176.08,741.211 1178,743.5C 1180.03,742.48 1181.36,740.813 1182,738.5C 1183.64,731.932 1184.64,725.265 1185,718.5C 1185.65,695.781 1186.98,673.114 1189,650.5C 1190.25,638.839 1195.08,629.005 1203.5,621C 1205.31,620.243 1206.98,619.41 1208.5,618.5 Z"/></g>
<g><path style="opacity:1" fill="#575757" d="M 800.5,619.5 C 797.916,621.472 794.916,622.472 791.5,622.5C 794.084,620.528 797.084,619.528 800.5,619.5 Z"/></g>
<g><path style="opacity:1" fill="#878787" d="M 1559.5,619.5 C 1561.25,621.033 1562.25,623.033 1562.5,625.5C 1560.75,623.967 1559.75,621.967 1559.5,619.5 Z"/></g>
<g><path style="opacity:1" fill="#9d9d9d" d="M 734.5,627.5 C 737.746,628.054 740.746,629.054 743.5,630.5C 741.304,630.41 739.137,630.077 737,629.5C 735.624,629.316 734.791,628.649 734.5,627.5 Z"/></g>
<g><path style="opacity:1" fill="#6b6b6b" d="M 1563.5,628.5 C 1565.25,630.033 1566.25,632.033 1566.5,634.5C 1564.75,632.967 1563.75,630.967 1563.5,628.5 Z"/></g>
<g><path style="opacity:1" fill="#979797" d="M 1568.5,639.5 C 1569.87,641.936 1570.87,644.603 1571.5,647.5C 1569.35,645.383 1568.35,642.716 1568.5,639.5 Z"/></g>
<g><path style="opacity:1" fill="#a3a3a3" d="M 306.5,654.5 C 304.913,657.268 303.08,659.935 301,662.5C 300.329,663.252 299.496,663.586 298.5,663.5C 300.453,659.88 303.119,656.88 306.5,654.5 Z"/></g>
<g><path style="opacity:1" fill="#777777" d="M 1584.5,656.5 C 1586.25,658.033 1587.25,660.033 1587.5,662.5C 1585.75,660.967 1584.75,658.967 1584.5,656.5 Z"/></g>
<g><path style="opacity:1" fill="#8d8d8d" d="M 1576.5,659.5 C 1578.07,661.102 1578.74,663.102 1578.5,665.5C 1576.93,663.898 1576.26,661.898 1576.5,659.5 Z"/></g>
<g><path style="opacity:1" fill="#060606" d="M 691.5,663.5 C 695.5,663.5 699.5,663.5 703.5,663.5C 703.167,669.93 703.5,675.597 704.5,680.5C 711.286,674.901 717.786,675.235 724,681.5C 726.989,689.662 727.322,697.996 725,706.5C 719.108,715.761 712.108,716.761 704,709.5C 703.044,710.579 702.211,711.745 701.5,713C 698.183,713.498 694.85,713.665 691.5,713.5C 691.5,696.833 691.5,680.167 691.5,663.5 Z"/></g>
<g><path style="opacity:1" fill="#575757" d="M 691.5,663.5 C 695.634,662.515 699.968,662.182 704.5,662.5C 704.5,668.5 704.5,674.5 704.5,680.5C 703.5,675.597 703.167,669.93 703.5,663.5C 699.5,663.5 695.5,663.5 691.5,663.5 Z"/></g>
<g><path style="opacity:1" fill="#090909" d="M 1235.5,668.5 C 1240.45,667.959 1245.12,668.792 1249.5,671C 1248.6,673.192 1247.6,675.358 1246.5,677.5C 1236.84,679.379 1236.51,681.379 1245.5,683.5C 1244.58,686.447 1243.91,689.447 1243.5,692.5C 1240.88,692.232 1238.38,692.565 1236,693.5C 1233.79,704.195 1231.46,714.862 1229,725.5C 1227.72,731.118 1224.22,734.285 1218.5,735C 1215.5,735.667 1212.5,735.667 1209.5,735C 1208.55,731.943 1208.22,728.777 1208.5,725.5C 1210.86,725.663 1213.19,725.497 1215.5,725C 1216.7,724.097 1217.53,722.931 1218,721.5C 1220.03,711.846 1221.86,702.179 1223.5,692.5C 1221.83,692.5 1220.17,692.5 1218.5,692.5C 1218.69,690.436 1219.19,688.436 1220,686.5C 1222.17,685.415 1224.17,684.081 1226,682.5C 1227.07,676.286 1230.24,671.619 1235.5,668.5 Z"/></g>
<g><path style="opacity:1" fill="#080808" d="M 1258.5,728.5 C 1255.71,729.477 1252.71,729.81 1249.5,729.5C 1240.78,707.322 1244.78,687.822 1261.5,671C 1264.88,670.176 1268.22,670.343 1271.5,671.5C 1255.98,687.906 1251.65,706.906 1258.5,728.5 Z"/></g>
<g><path style="opacity:1" fill="#080808" d="M 1311.5,729.5 C 1308.29,729.81 1305.29,729.477 1302.5,728.5C 1317.07,711.636 1320.74,692.636 1313.5,671.5C 1316.83,670.167 1320.17,670.167 1323.5,671.5C 1330.06,689.384 1328.23,706.384 1318,722.5C 1316.28,725.288 1314.11,727.621 1311.5,729.5 Z"/></g>
<g><path style="opacity:1" fill="#8b8b8b" d="M 1362.5,674.5 C 1366.68,673.189 1371.02,673.189 1375.5,674.5C 1375.38,675.107 1375.04,675.44 1374.5,675.5C 1370.7,674.517 1366.7,674.183 1362.5,674.5 Z"/></g>
<g><path style="opacity:1" fill="#070707" d="M 1362.5,674.5 C 1366.7,674.183 1370.7,674.517 1374.5,675.5C 1370.91,691.769 1367.58,708.103 1364.5,724.5C 1361.17,724.5 1357.83,724.5 1354.5,724.5C 1354.79,720.446 1354.12,719.946 1352.5,723C 1344.87,727.535 1339.37,725.701 1336,717.5C 1333.58,705.434 1337.08,695.601 1346.5,688C 1351.53,686.506 1355.69,687.673 1359,691.5C 1359.61,685.588 1360.78,679.921 1362.5,674.5 Z"/></g>
<g><path style="opacity:1" fill="#878787" d="M 1580.5,670.5 C 1582.25,672.033 1583.25,674.033 1583.5,676.5C 1581.75,674.967 1580.75,672.967 1580.5,670.5 Z"/></g>
<g><path style="opacity:1" fill="#454545" d="M 1286.5,684.5 C 1282.07,683.206 1277.73,683.206 1273.5,684.5C 1272.96,684.44 1272.62,684.107 1272.5,683.5C 1274.83,683.167 1277.17,682.833 1279.5,682.5C 1282.27,682.529 1284.6,683.195 1286.5,684.5 Z"/></g>
<g><path style="opacity:1" fill="#454545" d="M 1294.5,683.5 C 1299.32,682.35 1304.32,682.184 1309.5,683C 1308.96,683.717 1308.29,684.217 1307.5,684.5C 1303.37,683.515 1299.03,683.182 1294.5,683.5 Z"/></g>
<g><path style="opacity:1" fill="#050505" d="M 1286.5,684.5 C 1286.64,687.097 1287.48,689.431 1289,691.5C 1290.61,688.593 1292.44,685.927 1294.5,683.5C 1299.03,683.182 1303.37,683.515 1307.5,684.5C 1303.29,690.41 1298.96,696.244 1294.5,702C 1296.74,707.541 1299.07,713.041 1301.5,718.5C 1296.88,719.493 1292.21,719.827 1287.5,719.5C 1287.29,716.012 1286.46,712.679 1285,709.5C 1282.71,712.58 1280.54,715.747 1278.5,719C 1273.8,719.828 1269.13,719.662 1264.5,718.5C 1268.81,713.02 1273.31,707.687 1278,702.5C 1278.67,700.833 1278.67,699.167 1278,697.5C 1276.2,693.256 1274.7,688.922 1273.5,684.5C 1277.73,683.206 1282.07,683.206 1286.5,684.5 Z"/></g>
<g><path style="opacity:1" fill="#f5f5f5" d="M 706.5,686.5 C 710.158,685.872 712.658,687.206 714,690.5C 715.074,695.109 714.24,699.276 711.5,703C 708.472,704.14 706.305,703.306 705,700.5C 703.966,695.543 704.466,690.876 706.5,686.5 Z"/></g>
<g><path style="opacity:1" fill="#484848" d="M 1391.5,688.5 C 1386.97,688.182 1382.63,688.515 1378.5,689.5C 1377.96,689.44 1377.62,689.107 1377.5,688.5C 1382.32,687.188 1386.98,687.188 1391.5,688.5 Z"/></g>
<g><path style="opacity:1" fill="#070707" d="M 1378.5,689.5 C 1382.63,688.515 1386.97,688.182 1391.5,688.5C 1392.02,691.568 1392.86,694.568 1394,697.5C 1395.96,694.415 1397.79,691.248 1399.5,688C 1404.5,687.333 1409.5,687.333 1414.5,688C 1409.49,694.344 1404.49,700.678 1399.5,707C 1402.12,712.343 1404.45,717.843 1406.5,723.5C 1401.88,724.493 1397.21,724.827 1392.5,724.5C 1392.6,720.89 1391.76,717.557 1390,714.5C 1388.2,717.927 1386.04,721.094 1383.5,724C 1378.83,724.667 1374.17,724.667 1369.5,724C 1374.31,717.688 1379.31,711.522 1384.5,705.5C 1382.3,700.221 1380.3,694.887 1378.5,689.5 Z"/></g>
<g><path style="opacity:1" fill="#777777" d="M 264.5,690.5 C 264.573,692.027 263.906,693.027 262.5,693.5C 262.427,691.973 263.094,690.973 264.5,690.5 Z"/></g>
<g><path style="opacity:1" fill="#f0f0f0" d="M 1352.5,697.5 C 1354.14,697.286 1355.64,697.62 1357,698.5C 1357.68,703.804 1356.68,708.804 1354,713.5C 1352.3,714.406 1350.47,714.739 1348.5,714.5C 1347.57,708.199 1348.91,702.532 1352.5,697.5 Z"/></g>
<g><path style="opacity:1" fill="#545454" d="M 260.5,696.5 C 259.864,698.795 258.531,700.461 256.5,701.5C 257.124,699.246 258.457,697.579 260.5,696.5 Z"/></g>
<g><path style="opacity:1" fill="#999999" d="M 1592.5,699.5 C 1594.58,702.053 1595.92,705.053 1596.5,708.5C 1594.42,705.947 1593.08,702.947 1592.5,699.5 Z"/></g>
<g><path style="opacity:1" fill="#828282" d="M 1596.5,708.5 C 1598.58,711.053 1599.92,714.053 1600.5,717.5C 1598.42,714.947 1597.08,711.947 1596.5,708.5 Z"/></g>
<g><path style="opacity:1" fill="#999999" d="M 1601.5,719.5 C 1603.07,721.509 1604.07,723.843 1604.5,726.5C 1602.17,724.824 1601.17,722.491 1601.5,719.5 Z"/></g>
<g><path style="opacity:1" fill="#080808" d="M 691.5,725.5 C 696.599,725.175 701.599,725.675 706.5,727C 710.327,730.308 711.494,734.474 710,739.5C 701.528,745.696 696.028,743.53 693.5,733C 691.613,732.837 690.113,733.671 689,735.5C 686.934,743.026 685.6,750.693 685,758.5C 684.583,775.843 683.916,793.177 683,810.5C 682.541,824.27 679.208,837.27 673,849.5C 665.575,857.86 656.742,859.693 646.5,855C 641.177,847.183 643.011,842.016 652,839.5C 653.627,839.625 655.127,840.125 656.5,841C 658.569,844.069 660.403,847.236 662,850.5C 662.772,850.355 663.439,850.022 664,849.5C 665,847.167 666,844.833 667,842.5C 669.455,816.227 671.122,789.893 672,763.5C 673.356,751.215 677.522,740.048 684.5,730C 686.898,728.476 689.231,726.976 691.5,725.5 Z"/></g>
<g><path style="opacity:1" fill="#838383" d="M 1258.5,728.5 C 1259.04,728.56 1259.38,728.893 1259.5,729.5C 1256.02,730.806 1252.69,730.806 1249.5,729.5C 1252.71,729.81 1255.71,729.477 1258.5,728.5 Z"/></g>
<g><path style="opacity:1" fill="#7b7b7b" d="M 1302.5,728.5 C 1305.29,729.477 1308.29,729.81 1311.5,729.5C 1308.31,730.806 1304.98,730.806 1301.5,729.5C 1301.62,728.893 1301.96,728.56 1302.5,728.5 Z"/></g>
<g><path style="opacity:1" fill="#9a9a9a" d="M 1605.5,729.5 C 1607.25,731.033 1608.25,733.033 1608.5,735.5C 1606.75,733.967 1605.75,731.967 1605.5,729.5 Z"/></g>
<g><path style="opacity:1" fill="#898989" d="M 1613.5,746.5 C 1615.58,749.053 1616.92,752.053 1617.5,755.5C 1615.42,752.947 1614.08,749.947 1613.5,746.5 Z"/></g>
<g><path style="opacity:1" fill="#060606" d="M 1141.5,754.5 C 1145.5,754.5 1149.5,754.5 1153.5,754.5C 1153.17,760.93 1153.5,766.597 1154.5,771.5C 1161.29,765.901 1167.79,766.235 1174,772.5C 1176.99,780.662 1177.32,788.996 1175,797.5C 1169.11,806.761 1162.11,807.761 1154,800.5C 1153.04,801.579 1152.21,802.745 1151.5,804C 1148.18,804.498 1144.85,804.665 1141.5,804.5C 1141.5,787.833 1141.5,771.167 1141.5,754.5 Z"/></g>
<g><path style="opacity:1" fill="#575757" d="M 1141.5,754.5 C 1145.63,753.515 1149.97,753.182 1154.5,753.5C 1154.5,759.5 1154.5,765.5 1154.5,771.5C 1153.5,766.597 1153.17,760.93 1153.5,754.5C 1149.5,754.5 1145.5,754.5 1141.5,754.5 Z"/></g>
<g><path style="opacity:1" fill="#999999" d="M 223.5,767.5 C 223.408,769.848 222.408,771.514 220.5,772.5C 220.75,770.326 221.75,768.659 223.5,767.5 Z"/></g>
<g><path style="opacity:1" fill="#999999" d="M 1622.5,767.5 C 1624.25,769.033 1625.25,771.033 1625.5,773.5C 1623.75,771.967 1622.75,769.967 1622.5,767.5 Z"/></g>
<g><path style="opacity:1" fill="#080808" d="M 693.5,840.5 C 693.5,837.5 693.5,834.5 693.5,831.5C 695.735,831.795 697.735,831.461 699.5,830.5C 700.458,830.047 701.292,829.381 702,828.5C 704.154,819.218 705.988,809.885 707.5,800.5C 708.404,799.791 708.737,798.791 708.5,797.5C 706.585,797.784 704.919,797.451 703.5,796.5C 703.382,792.518 705.382,790.185 709.5,789.5C 711.639,778.171 718.306,773.338 729.5,775C 731.286,775.196 732.619,776.029 733.5,777.5C 732.391,779.385 731.557,781.385 731,783.5C 728.931,784.264 726.764,784.764 724.5,785C 723.663,786.011 723.33,787.178 723.5,788.5C 725.604,788.201 727.604,788.534 729.5,789.5C 728.577,792.447 727.911,795.447 727.5,798.5C 724.606,798.042 722.106,798.709 720,800.5C 717.745,810.441 715.745,820.441 714,830.5C 710.11,840.066 703.276,843.399 693.5,840.5 Z"/></g>
<g><path style="opacity:1" fill="#090909" d="M 742.5,834.5 C 740.052,835.473 737.385,835.806 734.5,835.5C 724.849,813.631 728.516,794.131 745.5,777C 748.882,776.176 752.216,776.343 755.5,777.5C 740.34,793.957 736.007,812.957 742.5,834.5 Z"/></g>
<g><path style="opacity:1" fill="#080808" d="M 796.5,835.5 C 792.958,835.813 789.625,835.479 786.5,834.5C 801.068,817.659 804.735,798.659 797.5,777.5C 800.833,776.167 804.167,776.167 807.5,777.5C 815.592,799.12 811.926,818.453 796.5,835.5 Z"/></g>
<g><path style="opacity:1" fill="#f5f5f5" d="M 1156.5,777.5 C 1160.16,776.872 1162.66,778.206 1164,781.5C 1165.07,786.109 1164.24,790.276 1161.5,794C 1158.47,795.14 1156.31,794.306 1155,791.5C 1153.97,786.543 1154.47,781.876 1156.5,777.5 Z"/></g>
<g><path style="opacity:1" fill="#5a5a5a" d="M 1634.5,772.5 C 1636.58,775.053 1637.92,778.053 1638.5,781.5C 1636.42,778.947 1635.08,775.947 1634.5,772.5 Z"/></g>
<g><path style="opacity:1" fill="#949494" d="M 1626.5,775.5 C 1628.07,777.509 1629.07,779.843 1629.5,782.5C 1627.17,780.824 1626.17,778.491 1626.5,775.5 Z"/></g>
<g><path style="opacity:1" fill="#8a8a8a" d="M 219.5,774.5 C 219.245,776.967 218.245,778.967 216.5,780.5C 216.755,778.033 217.755,776.033 219.5,774.5 Z"/></g>
<g><path style="opacity:1" fill="#888888" d="M 846.5,781.5 C 850.634,780.515 854.968,780.182 859.5,780.5C 859.737,781.791 859.404,782.791 858.5,783.5C 854.971,781.577 850.971,780.911 846.5,781.5 Z"/></g>
<g><path style="opacity:1" fill="#070707" d="M 846.5,781.5 C 850.971,780.911 854.971,781.577 858.5,783.5C 855.038,799.476 851.705,815.476 848.5,831.5C 845.167,831.5 841.833,831.5 838.5,831.5C 838.649,830.448 838.483,829.448 838,828.5C 830.282,834.77 824.282,833.437 820,824.5C 817.985,813.212 821.151,803.712 829.5,796C 834.729,793.379 839.229,794.212 843,798.5C 844.274,792.848 845.441,787.181 846.5,781.5 Z"/></g>
<g><path style="opacity:1" fill="#484848" d="M 770.5,789.5 C 765.968,789.182 761.634,789.515 757.5,790.5C 756.957,790.44 756.624,790.107 756.5,789.5C 761.318,788.188 765.985,788.188 770.5,789.5 Z"/></g>
<g><path style="opacity:1" fill="#070707" d="M 757.5,790.5 C 761.634,789.515 765.968,789.182 770.5,789.5C 771.022,792.568 771.855,795.568 773,798.5C 774.96,795.415 776.793,792.248 778.5,789C 783.5,788.333 788.5,788.333 793.5,789C 788.486,795.344 783.486,801.678 778.5,808C 781.117,813.343 783.451,818.843 785.5,824.5C 780.88,825.493 776.214,825.827 771.5,825.5C 771.598,821.89 770.764,818.557 769,815.5C 767.204,818.927 765.037,822.094 762.5,825C 757.833,825.667 753.167,825.667 748.5,825C 753.311,818.688 758.311,812.522 763.5,806.5C 761.297,801.221 759.297,795.887 757.5,790.5 Z"/></g>
<g><path style="opacity:1" fill="#999999" d="M 1630.5,786.5 C 1632.25,788.033 1633.25,790.033 1633.5,792.5C 1631.75,790.967 1630.75,788.967 1630.5,786.5 Z"/></g>
<g><path style="opacity:1" fill="#080808" d="M 862.5,794.5 C 866.833,794.5 871.167,794.5 875.5,794.5C 876.224,797.843 877.057,801.176 878,804.5C 879.833,801.5 881.667,798.5 883.5,795.5C 888.467,794.338 893.467,794.171 898.5,795C 893.689,801.312 888.689,807.478 883.5,813.5C 886.408,819.309 888.741,825.309 890.5,831.5C 886.116,831.826 881.783,831.492 877.5,830.5C 876.653,827.446 875.653,824.446 874.5,821.5C 872.252,824.328 870.252,827.328 868.5,830.5C 863.533,831.662 858.533,831.829 853.5,831C 858.514,824.656 863.514,818.322 868.5,812C 866.193,806.244 864.193,800.41 862.5,794.5 Z"/></g>
<g><path style="opacity:1" fill="#666666" d="M 703.5,796.5 C 704.919,797.451 706.585,797.784 708.5,797.5C 708.737,798.791 708.404,799.791 707.5,800.5C 706.322,799.001 704.655,798.001 702.5,797.5C 702.624,796.893 702.957,796.56 703.5,796.5 Z"/></g>
<g><path style="opacity:1" fill="#818181" d="M 1634.5,795.5 C 1636.25,797.033 1637.25,799.033 1637.5,801.5C 1635.75,799.967 1634.75,797.967 1634.5,795.5 Z"/></g>
<g><path style="opacity:1" fill="#f4f4f4" d="M 836.5,804.5 C 840.24,803.741 841.907,805.241 841.5,809C 841.184,813.099 840.017,816.933 838,820.5C 833.589,822.434 831.756,820.934 832.5,816C 832.554,811.669 833.887,807.836 836.5,804.5 Z"/></g>
<g><path style="opacity:1" fill="#7c7c7c" d="M 1638.5,804.5 C 1640.58,807.053 1641.92,810.053 1642.5,813.5C 1640.42,810.947 1639.08,807.947 1638.5,804.5 Z"/></g>
<g><path style="opacity:1" fill="#5b5b5b" d="M 194.5,804.5 C 194.104,807.721 192.771,810.388 190.5,812.5C 190.896,809.279 192.229,806.612 194.5,804.5 Z"/></g>
<g><path style="opacity:1" fill="#5d5d5d" d="M 1651.5,812.5 C 1653.25,814.033 1654.25,816.033 1654.5,818.5C 1652.75,816.967 1651.75,814.967 1651.5,812.5 Z"/></g>
<g><path style="opacity:1" fill="#9c9c9c" d="M 1643.5,815.5 C 1645.07,817.509 1646.07,819.843 1646.5,822.5C 1644.17,820.824 1643.17,818.491 1643.5,815.5 Z"/></g>
<g><path style="opacity:1" fill="#848484" d="M 198.5,816.5 C 198.245,818.967 197.245,820.967 195.5,822.5C 195.755,820.033 196.755,818.033 198.5,816.5 Z"/></g>
<g><path style="opacity:1" fill="#6c6c6c" d="M 1655.5,821.5 C 1657.25,823.033 1658.25,825.033 1658.5,827.5C 1656.75,825.967 1655.75,823.967 1655.5,821.5 Z"/></g>
<g><path style="opacity:1" fill="#929292" d="M 1647.5,824.5 C 1649.07,826.509 1650.07,828.843 1650.5,831.5C 1648.17,829.824 1647.17,827.491 1647.5,824.5 Z"/></g>
<g><path style="opacity:1" fill="#919191" d="M 193.5,826.5 C 193.741,828.898 193.074,830.898 191.5,832.5C 191.259,830.102 191.926,828.102 193.5,826.5 Z"/></g>
<g><path style="opacity:1" fill="#8a8a8a" d="M 699.5,830.5 C 697.735,831.461 695.735,831.795 693.5,831.5C 693.5,834.5 693.5,837.5 693.5,840.5C 692.521,837.375 692.187,834.042 692.5,830.5C 694.833,830.5 697.167,830.5 699.5,830.5 Z"/></g>
<g><path style="opacity:1" fill="#797979" d="M 742.5,834.5 C 743.043,834.56 743.376,834.893 743.5,835.5C 740.355,836.803 737.355,836.803 734.5,835.5C 737.385,835.806 740.052,835.473 742.5,834.5 Z"/></g>
<g><path style="opacity:1" fill="#858585" d="M 786.5,834.5 C 789.625,835.479 792.958,835.813 796.5,835.5C 792.981,836.808 789.315,836.808 785.5,835.5C 785.624,834.893 785.957,834.56 786.5,834.5 Z"/></g>
<g><path style="opacity:1" fill="#8e8e8e" d="M 1651.5,834.5 C 1653.07,836.509 1654.07,838.843 1654.5,841.5C 1652.17,839.824 1651.17,837.491 1651.5,834.5 Z"/></g>
<g><path style="opacity:1" fill="#929292" d="M 190.5,834.5 C 190.088,837.802 188.755,840.469 186.5,842.5C 187.279,839.455 188.613,836.789 190.5,834.5 Z"/></g>
<g><path style="opacity:1" fill="#848484" d="M 186.5,843.5 C 186.104,846.721 184.771,849.388 182.5,851.5C 182.896,848.279 184.229,845.612 186.5,843.5 Z"/></g>
<g><path style="opacity:1" fill="#858585" d="M 1655.5,845.5 C 1657.25,847.033 1658.25,849.033 1658.5,851.5C 1656.75,849.967 1655.75,847.967 1655.5,845.5 Z"/></g>
<g><path style="opacity:1" fill="#060606" d="M 636.5,868.5 C 642.176,868.334 647.843,868.501 653.5,869C 656.171,870.25 658.337,872.083 660,874.5C 661.451,884.729 661.951,895.062 661.5,905.5C 656.294,906.521 652.461,904.855 650,900.5C 643.663,907.433 636.83,908.1 629.5,902.5C 627.532,898.026 627.032,893.36 628,888.5C 630.1,885.533 632.934,883.7 636.5,883C 640.821,882.501 645.154,882.334 649.5,882.5C 649.703,880.61 649.037,879.11 647.5,878C 642.669,877.222 638.003,877.722 633.5,879.5C 633.202,876.735 632.202,874.235 630.5,872C 632.432,870.541 634.432,869.375 636.5,868.5 Z"/></g>
<g><path style="opacity:1" fill="#717171" d="M 1676.5,871.5 C 1678.07,873.102 1678.74,875.102 1678.5,877.5C 1676.93,875.898 1676.26,873.898 1676.5,871.5 Z"/></g>
<g><path style="opacity:1" fill="#e7e7e7" d="M 644.5,889.5 C 645.833,889.5 647.167,889.5 648.5,889.5C 648.5,890.833 648.5,892.167 648.5,893.5C 647.327,896.754 644.994,897.92 641.5,897C 638.332,892.839 639.332,890.339 644.5,889.5 Z"/></g>
<g><path style="opacity:1" fill="#6f6f6f" d="M 644.5,889.5 C 645.919,888.549 647.585,888.216 649.5,888.5C 649.784,890.415 649.451,892.081 648.5,893.5C 648.5,892.167 648.5,890.833 648.5,889.5C 647.167,889.5 645.833,889.5 644.5,889.5 Z"/></g>
<g><path style="opacity:1" fill="#c9102b" d="M 566.5,958.5 C 566.244,965.224 566.577,971.891 567.5,978.5C 562.316,976.649 559.983,972.983 560.5,967.5C 560.744,963.348 562.744,960.348 566.5,958.5 Z"/></g>
<g><path style="opacity:1" fill="#c60f2a" d="M 575.5,958.5 C 575.833,958.5 576.167,958.5 576.5,958.5C 579.472,960.778 581.139,963.778 581.5,967.5C 582.3,972.194 580.633,975.694 576.5,978C 575.668,978.688 575.002,978.521 574.5,977.5C 575.46,971.227 575.793,964.893 575.5,958.5 Z"/></g>
<g><path style="opacity:1" fill="#000000" d="M 560.5,967.5 C 559.983,972.983 562.316,976.649 567.5,978.5C 567.5,978.833 567.5,979.167 567.5,979.5C 447.5,979.667 327.5,979.5 207.5,979C 202.715,975.74 202.381,972.073 206.5,968C 324.5,967.5 442.5,967.333 560.5,967.5 Z"/></g>
<g><path style="opacity:1" fill="#2377e9" d="M 997.5,1003.5 C 1004.5,1003.5 1011.5,1003.5 1018.5,1003.5C 1018.33,1013.51 1018.5,1023.51 1019,1033.5C 1026.39,1025.05 1035.22,1023.22 1045.5,1028C 1050.03,1031.57 1053.2,1036.07 1055,1041.5C 1056.54,1050.1 1056.88,1058.77 1056,1067.5C 1051.95,1085.77 1041.12,1091.94 1023.5,1086C 1021.98,1084.31 1020.32,1082.81 1018.5,1081.5C 1016.81,1083.03 1015.48,1084.86 1014.5,1087C 1008.84,1087.5 1003.18,1087.67 997.5,1087.5C 997.5,1059.5 997.5,1031.5 997.5,1003.5 Z"/></g>
<g><path style="opacity:1" fill="#2477e9" d="M 560.5,1013.5 C 567.508,1013.33 574.508,1013.5 581.5,1014C 589.901,1016.07 595.401,1021.23 598,1029.5C 598.5,1044.83 598.667,1060.16 598.5,1075.5C 593.489,1075.67 588.489,1075.5 583.5,1075C 582.126,1072.42 580.626,1069.92 579,1067.5C 571.977,1075.73 563.144,1078.56 552.5,1076C 542.334,1070.49 538.501,1061.99 541,1050.5C 545.359,1042.39 552.192,1037.89 561.5,1037C 566.823,1036.5 572.156,1036.33 577.5,1036.5C 577.854,1033.04 576.521,1030.54 573.5,1029C 566.409,1027.75 559.742,1028.92 553.5,1032.5C 550.883,1028.15 548.55,1023.65 546.5,1019C 551.07,1016.61 555.736,1014.77 560.5,1013.5 Z"/></g>
<g><path style="opacity:1" fill="#2277e9" d="M 1673.5,1014.5 C 1681.53,1014.17 1689.53,1014.5 1697.5,1015.5C 1700.13,1020.63 1702.97,1025.63 1706,1030.5C 1709.29,1025.42 1712.46,1020.25 1715.5,1015C 1723.5,1014.33 1731.5,1014.33 1739.5,1015C 1732.97,1024.7 1726.64,1034.53 1720.5,1044.5C 1726.97,1054.8 1733.64,1064.97 1740.5,1075C 1732.5,1075.67 1724.5,1075.67 1716.5,1075C 1713.13,1069.08 1709.63,1063.25 1706,1057.5C 1702.83,1063.17 1699.67,1068.83 1696.5,1074.5C 1688.5,1075.83 1680.5,1075.83 1672.5,1074.5C 1678.83,1064.5 1685.17,1054.5 1691.5,1044.5C 1685.05,1034.73 1679.05,1024.73 1673.5,1014.5 Z"/></g>
<g><path style="opacity:1" fill="#2477e9" d="M 1561.5,1067.5 C 1562.49,1072.64 1562.82,1077.97 1562.5,1083.5C 1549.92,1089.86 1537.25,1090.03 1524.5,1084C 1516.24,1076.58 1512.24,1067.25 1512.5,1056C 1513.11,1040.41 1520.78,1030.41 1535.5,1026C 1545.12,1024.72 1554.45,1025.72 1563.5,1029C 1564.02,1029.56 1564.36,1030.23 1564.5,1031C 1562.63,1035.9 1560.63,1040.73 1558.5,1045.5C 1553.44,1042.79 1548.11,1041.62 1542.5,1042C 1536.27,1044.96 1533.61,1049.96 1534.5,1057C 1534.44,1069.31 1540.44,1073.98 1552.5,1071C 1555.53,1069.82 1558.53,1068.65 1561.5,1067.5 Z"/></g>
<g><path style="opacity:1" fill="#f5f8fe" d="M 1024.5,1041.5 C 1027.86,1041.07 1030.7,1042.07 1033,1044.5C 1036.33,1052.5 1036.33,1060.5 1033,1068.5C 1028.92,1072.41 1024.92,1072.41 1021,1068.5C 1018.11,1061.3 1017.77,1053.97 1020,1046.5C 1021.02,1044.31 1022.52,1042.65 1024.5,1041.5 Z"/></g>
<g><path style="opacity:1" fill="#f9fbfe" d="M 567.5,1048.5 C 570.833,1048.5 574.167,1048.5 577.5,1048.5C 578.181,1057.99 573.847,1062.15 564.5,1061C 561.22,1055.78 562.22,1051.61 567.5,1048.5 Z"/></g>
<g><path style="opacity:1" fill="#8bb8f4" d="M 1561.5,1067.5 C 1561.56,1066.96 1561.89,1066.62 1562.5,1066.5C 1563.82,1072.32 1563.82,1077.99 1562.5,1083.5C 1562.82,1077.97 1562.49,1072.64 1561.5,1067.5 Z"/></g>
<g><path style="opacity:1" fill="#050505" d="M 689.5,1113.5 C 691.857,1113.34 694.19,1113.5 696.5,1114C 718.535,1123.34 741.535,1128.34 765.5,1129C 781.849,1129.61 798.182,1129.28 814.5,1128C 841.452,1125.1 868.452,1122.77 895.5,1121C 930.464,1118.03 964.631,1121.87 998,1132.5C 1022.77,1141.13 1043.94,1155.13 1061.5,1174.5C 1086.88,1146.97 1118.21,1130.14 1155.5,1124C 1178.72,1120.66 1202.05,1119.66 1225.5,1121C 1258.19,1123.4 1290.86,1126.07 1323.5,1129C 1360.24,1131.81 1395.74,1126.64 1430,1113.5C 1437.25,1114.41 1440.25,1118.41 1439,1125.5C 1428.35,1131.94 1416.85,1136.44 1404.5,1139C 1377.53,1145.31 1350.19,1147.65 1322.5,1146C 1295.46,1144.13 1268.46,1141.8 1241.5,1139C 1213.06,1136.39 1184.72,1137.06 1156.5,1141C 1119.12,1147.67 1089.12,1166.01 1066.5,1196C 1063.13,1197.88 1059.8,1197.88 1056.5,1196C 1035.78,1168.29 1008.45,1150.63 974.5,1143C 943.718,1137.27 912.718,1135.94 881.5,1139C 858.491,1140.93 835.491,1142.93 812.5,1145C 792.5,1145.67 772.5,1145.67 752.5,1145C 730.295,1143.12 708.962,1137.78 688.5,1129C 683.857,1126.93 682.357,1123.43 684,1118.5C 685.73,1116.6 687.563,1114.93 689.5,1113.5 Z"/></g>
<g><path style="opacity:1" fill="#090909" d="M 1005.5,1227.5 C 1011.68,1227.11 1017.68,1227.94 1023.5,1230C 1024.02,1230.56 1024.36,1231.23 1024.5,1232C 1023.45,1235 1022.12,1237.83 1020.5,1240.5C 1008.6,1235.9 1003.77,1239.9 1006,1252.5C 1008.44,1257.22 1012.27,1258.72 1017.5,1257C 1019.35,1256.16 1021.18,1255.33 1023,1254.5C 1023.83,1258.21 1023.66,1261.88 1022.5,1265.5C 1007.9,1272.14 997.729,1268.14 992,1253.5C 989.935,1241.29 994.435,1232.63 1005.5,1227.5 Z"/></g>
<g><path style="opacity:1" fill="#080808" d="M 993.5,1279.5 C 999.614,1279.14 1004.78,1281.14 1009,1285.5C 1011.86,1293.1 1009.36,1297.77 1001.5,1299.5C 998.37,1299.35 995.87,1298.02 994,1295.5C 993.548,1292.85 992.714,1290.35 991.5,1288C 989.613,1287.84 988.113,1288.67 987,1290.5C 985.206,1296.05 983.873,1301.72 983,1307.5C 981.953,1327.49 981.286,1347.49 981,1367.5C 979.739,1380.81 977.072,1393.81 973,1406.5C 968.129,1418.52 959.295,1423.68 946.5,1422C 937.988,1417.9 936.321,1411.9 941.5,1404C 950.97,1401.07 955.97,1404.57 956.5,1414.5C 958.911,1414.86 960.411,1413.86 961,1411.5C 962.975,1405.65 964.309,1399.65 965,1393.5C 966.19,1372.18 967.19,1350.84 968,1329.5C 967.974,1314.27 971.974,1300.27 980,1287.5C 983.946,1283.62 988.446,1280.95 993.5,1279.5 Z"/></g>
<g><path style="opacity:1" fill="#070707" d="M 1018.5,1333.5 C 1023.87,1333.39 1029.2,1333.73 1034.5,1334.5C 1034.31,1341.08 1030.98,1344.24 1024.5,1344C 1023.62,1345.36 1023.29,1346.86 1023.5,1348.5C 1025.5,1348.5 1027.5,1348.5 1029.5,1348.5C 1028.95,1351.81 1028.62,1355.14 1028.5,1358.5C 1025.29,1358.01 1022.46,1358.68 1020,1360.5C 1017.64,1373.37 1014.64,1386.03 1011,1398.5C 1005.69,1404 999.187,1406 991.5,1404.5C 991.5,1400.83 991.5,1397.17 991.5,1393.5C 993.857,1393.66 996.19,1393.5 998.5,1393C 999.701,1392.1 1000.53,1390.93 1001,1389.5C 1003.27,1379.23 1005.1,1368.9 1006.5,1358.5C 1004.83,1358.5 1003.17,1358.5 1001.5,1358.5C 1001.7,1356.04 1002.37,1353.71 1003.5,1351.5C 1005.92,1350.54 1008.08,1349.21 1010,1347.5C 1010.56,1341.36 1013.4,1336.69 1018.5,1333.5 Z"/></g>
<g><path style="opacity:1" fill="#0a0a0a" d="M 1047.5,1335.5 C 1051.18,1335.33 1054.85,1335.5 1058.5,1336C 1041.32,1353.88 1036.66,1374.72 1044.5,1398.5C 1041.1,1398.82 1037.77,1398.49 1034.5,1397.5C 1025.28,1373.95 1029.61,1353.28 1047.5,1335.5 Z"/></g>
<g><path style="opacity:1" fill="#0a0a0a" d="M 1103.5,1335.5 C 1106.9,1335.18 1110.23,1335.51 1113.5,1336.5C 1122.47,1359.48 1118.47,1379.98 1101.5,1398C 1097.83,1398.67 1094.17,1398.67 1090.5,1398C 1106.89,1379.79 1111.23,1358.95 1103.5,1335.5 Z"/></g>
<g><path style="opacity:1" fill="#070707" d="M 1155.5,1339.5 C 1159.83,1339.5 1164.17,1339.5 1168.5,1339.5C 1164.94,1356.8 1161.44,1374.13 1158,1391.5C 1154.51,1393.38 1150.67,1394.04 1146.5,1393.5C 1146.65,1392.45 1146.48,1391.45 1146,1390.5C 1136.93,1397.13 1130.59,1395.13 1127,1384.5C 1124.98,1371.72 1129.14,1361.55 1139.5,1354C 1144.73,1352.53 1148.9,1354.03 1152,1358.5C 1152.45,1351.99 1153.62,1345.66 1155.5,1339.5 Z"/></g>
<g><path style="opacity:1" fill="#acacac" d="M 1082.5,1348.5 C 1087.68,1347.19 1093.01,1347.19 1098.5,1348.5C 1098.38,1349.11 1098.04,1349.44 1097.5,1349.5C 1092.69,1348.51 1087.69,1348.18 1082.5,1348.5 Z"/></g>
<g><path style="opacity:1" fill="#050505" d="M 1082.5,1348.5 C 1087.69,1348.18 1092.69,1348.51 1097.5,1349.5C 1092.27,1355.62 1087.27,1361.95 1082.5,1368.5C 1085.31,1374.62 1087.98,1380.79 1090.5,1387C 1085.51,1387.5 1080.51,1387.67 1075.5,1387.5C 1075.14,1383.74 1074.31,1380.07 1073,1376.5C 1070.62,1380.09 1068.12,1383.59 1065.5,1387C 1060.5,1387.67 1055.5,1387.67 1050.5,1387C 1054.96,1380.88 1059.79,1375.04 1065,1369.5C 1064.68,1362.5 1062.85,1355.83 1059.5,1349.5C 1064.46,1348.51 1069.46,1348.17 1074.5,1348.5C 1074.56,1351.75 1075.4,1354.75 1077,1357.5C 1079.35,1354.81 1081.18,1351.81 1082.5,1348.5 Z"/></g>
<g><path style="opacity:1" fill="#050505" d="M 1171.5,1355.5 C 1176.31,1354.51 1181.31,1354.18 1186.5,1354.5C 1187.02,1357.9 1187.85,1361.23 1189,1364.5C 1190.83,1361.5 1192.67,1358.5 1194.5,1355.5C 1199.8,1354.34 1205.14,1354.17 1210.5,1355C 1205.28,1361.38 1200.28,1367.88 1195.5,1374.5C 1197.44,1380.65 1199.77,1386.65 1202.5,1392.5C 1197.54,1393.49 1192.54,1393.83 1187.5,1393.5C 1187.46,1389.65 1186.62,1385.99 1185,1382.5C 1182.58,1385.66 1180.42,1389 1178.5,1392.5C 1173.2,1393.66 1167.86,1393.83 1162.5,1393C 1167.85,1386.32 1173.18,1379.66 1178.5,1373C 1176.43,1366.95 1174.1,1361.11 1171.5,1355.5 Z"/></g>
<g><path style="opacity:1" fill="#f6f6f6" d="M 1145.5,1364.5 C 1146.82,1364.33 1147.99,1364.66 1149,1365.5C 1150.07,1370.77 1149.4,1375.77 1147,1380.5C 1145.54,1383.21 1143.54,1383.88 1141,1382.5C 1139.33,1375.6 1140.83,1369.6 1145.5,1364.5 Z"/></g>
<g><path style="opacity:1" fill="#070707" d="M 931.5,1438.5 C 939.737,1437.1 946.904,1439.1 953,1444.5C 954.456,1455.73 954.956,1467.06 954.5,1478.5C 951.482,1478.66 948.482,1478.5 945.5,1478C 944.624,1476.41 943.624,1474.91 942.5,1473.5C 935.298,1481.01 927.798,1481.34 920,1474.5C 914.883,1463.9 918.05,1457.06 929.5,1454C 933.486,1453.5 937.486,1453.33 941.5,1453.5C 941.703,1451.61 941.037,1450.11 939.5,1449C 935.004,1448.15 930.67,1448.65 926.5,1450.5C 924.709,1448.34 923.376,1445.84 922.5,1443C 925.063,1440.47 928.063,1438.97 931.5,1438.5 Z"/></g>
<g><path style="opacity:1" fill="#e7e7e7" d="M 936.5,1460.5 C 938.167,1460.5 939.833,1460.5 941.5,1460.5C 942.175,1467.33 939.175,1470.16 932.5,1469C 930.485,1464.54 931.819,1461.71 936.5,1460.5 Z"/></g>
</svg>
