<?xml version="1.0" encoding="UTF-8"?>
<!DOCTYPE svg PUBLIC "-//W3C//DTD SVG 1.1//EN" "http://www.w3.org/Graphics/SVG/1.1/DTD/svg11.dtd">
<svg xmlns="http://www.w3.org/2000/svg" version="1.1" width="2000px" height="1500px" style="shape-rendering:geometricPrecision; text-rendering:geometricPrecision; image-rendering:optimizeQuality; fill-rule:evenodd; clip-rule:evenodd" xmlns:xlink="http://www.w3.org/1999/xlink">
<g><path style="opacity:1" fill="#fefefe" d="M -0.5,-0.5 C 666.167,-0.5 1332.83,-0.5 1999.5,-0.5C 1999.5,499.5 1999.5,999.5 1999.5,1499.5C 1332.83,1499.5 666.167,1499.5 -0.5,1499.5C -0.5,999.5 -0.5,499.5 -0.5,-0.5 Z"/></g>
<g><path style="opacity:1" fill="#050505" d="M 1778.5,259.5 C 1778.85,262.856 1778.02,265.856 1776,268.5C 1772.27,270.473 1768.43,272.14 1764.5,273.5C 1760.82,273.335 1757.15,273.501 1753.5,274C 1749.36,274.912 1745.36,276.078 1741.5,277.5C 1732.75,278.737 1724.08,280.403 1715.5,282.5C 1711.41,283.099 1707.74,284.433 1704.5,286.5C 1704.17,286.5 1703.83,286.5 1703.5,286.5C 1697.09,287.873 1690.75,289.54 1684.5,291.5C 1680.77,291.795 1677.11,292.461 1673.5,293.5C 1673.14,294.183 1672.8,294.85 1672.5,295.5C 1668.35,296.631 1664.35,297.965 1660.5,299.5C 1652.77,301.631 1645.11,303.964 1637.5,306.5C 1634.28,307.505 1630.95,308.339 1627.5,309C 1624.33,311.366 1620.99,313.199 1617.5,314.5C 1614.5,315.167 1611.5,315.833 1608.5,316.5C 1602.33,317.882 1596.66,320.216 1591.5,323.5C 1585.83,325.502 1580.16,327.502 1574.5,329.5C 1573.13,329.343 1571.79,329.51 1570.5,330C 1568.11,330.739 1566.11,331.905 1564.5,333.5C 1561.52,333.182 1559.19,334.182 1557.5,336.5C 1556.83,336.833 1556.17,337.167 1555.5,337.5C 1549.71,339.907 1543.71,341.907 1537.5,343.5C 1532.27,345.614 1526.94,347.448 1521.5,349C 1520.75,349.671 1520.41,350.504 1520.5,351.5C 1517.62,352.683 1514.62,353.683 1511.5,354.5C 1508.51,355.258 1505.51,356.091 1502.5,357C 1501.94,357.383 1501.61,357.883 1501.5,358.5C 1498.65,358.59 1496.32,359.756 1494.5,362C 1490.08,361.982 1486.41,363.482 1483.5,366.5C 1482.83,366.5 1482.17,366.5 1481.5,366.5C 1474.38,370.285 1467.05,373.618 1459.5,376.5C 1459.17,376.5 1458.83,376.5 1458.5,376.5C 1454.46,377.48 1450.46,378.647 1446.5,380C 1433.29,386.041 1420.29,392.208 1407.5,398.5C 1396.56,402.063 1385.9,406.23 1375.5,411C 1373.91,411.949 1372.57,413.115 1371.5,414.5C 1368.89,414.4 1366.56,415.067 1364.5,416.5C 1359.31,418.597 1354.31,420.93 1349.5,423.5C 1345.51,425.707 1341.51,427.707 1337.5,429.5C 1336.13,429.343 1334.79,429.51 1333.5,430C 1326.15,433.341 1319.15,437.174 1312.5,441.5C 1311.83,441.5 1311.17,441.5 1310.5,441.5C 1304.97,442.889 1299.97,445.222 1295.5,448.5C 1294.49,449.674 1293.15,450.34 1291.5,450.5C 1285.08,452.746 1279.08,455.746 1273.5,459.5C 1270.81,460.546 1268.14,461.546 1265.5,462.5C 1259.61,464.229 1254.28,466.895 1249.5,470.5C 1248.5,471.167 1247.5,471.833 1246.5,472.5C 1238.63,475.098 1230.96,478.265 1223.5,482C 1221.68,482.74 1220.35,483.907 1219.5,485.5C 1218.51,485.328 1217.84,485.662 1217.5,486.5C 1212.78,488.281 1208.45,490.614 1204.5,493.5C 1203.5,493.5 1202.5,493.5 1201.5,493.5C 1194.27,496.438 1187.6,500.105 1181.5,504.5C 1177.09,505.393 1173.42,507.393 1170.5,510.5C 1166.5,511.603 1162.84,513.269 1159.5,515.5C 1155.75,516.697 1152.08,518.197 1148.5,520C 1146.68,520.74 1145.35,521.907 1144.5,523.5C 1143.83,523.5 1143.5,523.833 1143.5,524.5C 1136.96,526.095 1131.29,529.095 1126.5,533.5C 1121.95,534.562 1117.95,536.562 1114.5,539.5C 1110.18,542.024 1105.85,544.69 1101.5,547.5C 1096.37,548.6 1091.87,550.933 1088,554.5C 1087.5,764.833 1087.33,975.166 1087.5,1185.5C 1086.63,1191.04 1083.63,1192.71 1078.5,1190.5C 1077.57,1189.64 1076.91,1188.64 1076.5,1187.5C 1076.83,978.499 1076.5,769.499 1075.5,560.5C 1074.89,560.624 1074.56,560.957 1074.5,561.5C 1070.31,563.743 1065.98,565.91 1061.5,568C 1060.62,568.708 1059.95,569.542 1059.5,570.5C 1051.05,573.656 1043.38,577.99 1036.5,583.5C 1035.4,584.6 1034.06,585.267 1032.5,585.5C 1030.03,586.298 1028.03,587.631 1026.5,589.5C 1026.17,589.5 1025.83,589.5 1025.5,589.5C 1020.66,591.418 1016.32,594.084 1012.5,597.5C 1011.83,597.5 1011.5,597.833 1011.5,598.5C 1008.99,598.754 1006.65,599.587 1004.5,601C 996.308,606.088 988.308,611.255 980.5,616.5C 977.912,618.158 975.245,619.825 972.5,621.5C 971.448,621.351 970.448,621.517 969.5,622C 965.841,624.301 962.508,626.801 959.5,629.5C 957.668,815.164 956.834,1001.16 957,1187.5C 953.28,1192.64 949.613,1192.64 946,1187.5C 945.5,1005.17 945.333,822.834 945.5,640.5C 945.649,639.448 945.483,638.448 945,637.5C 942.674,639.066 940.508,640.732 938.5,642.5C 936.03,642.654 934.03,643.654 932.5,645.5C 928.774,647.355 925.441,649.688 922.5,652.5C 916.978,655.091 911.978,658.425 907.5,662.5C 906.395,663.6 905.062,664.267 903.5,664.5C 900.802,664.845 898.802,666.178 897.5,668.5C 891.24,671.45 885.573,675.117 880.5,679.5C 878.034,680.298 876.034,681.631 874.5,683.5C 871.802,683.845 869.802,685.178 868.5,687.5C 865.802,687.845 863.802,689.178 862.5,691.5C 854.413,695.532 847.08,700.532 840.5,706.5C 840.167,706.5 839.833,706.5 839.5,706.5C 835.497,708.856 831.83,711.523 828.5,714.5C 825.802,714.845 823.802,716.178 822.5,718.5C 815.315,721.702 808.981,726.035 803.5,731.5C 799.148,733.673 795.148,736.34 791.5,739.5C 790.078,739.709 788.745,740.209 787.5,741C 783.596,744.083 779.929,747.25 776.5,750.5C 776.167,750.5 775.833,750.5 775.5,750.5C 773.205,751.136 771.539,752.469 770.5,754.5C 768.205,755.136 766.539,756.469 765.5,758.5C 765.167,758.5 764.833,758.5 764.5,758.5C 760.548,760.787 756.881,763.454 753.5,766.5C 752.564,767.974 751.23,768.974 749.5,769.5C 744.062,772.736 738.728,776.236 733.5,780C 729.753,783.308 726.087,786.475 722.5,789.5C 721.078,789.709 719.745,790.209 718.5,791C 714.596,794.083 710.929,797.25 707.5,800.5C 704.039,801.551 701.373,803.551 699.5,806.5C 695.274,808.392 691.607,811.059 688.5,814.5C 686.251,815.08 684.585,816.413 683.5,818.5C 679.592,819.75 676.592,822.083 674.5,825.5C 670.065,828.229 665.732,831.229 661.5,834.5C 660.388,835.265 659.721,836.265 659.5,837.5C 655.935,838.41 653.268,840.41 651.5,843.5C 649.368,843.554 648.035,844.554 647.5,846.5C 645.205,847.136 643.539,848.469 642.5,850.5C 640.205,851.136 638.539,852.469 637.5,854.5C 630.203,859.16 623.203,864.327 616.5,870C 614.576,871.75 612.909,873.583 611.5,875.5C 607.723,877.708 604.39,880.375 601.5,883.5C 599.878,884.122 598.545,885.122 597.5,886.5C 593.675,889.477 589.675,892.311 585.5,895C 583.576,896.75 581.909,898.583 580.5,900.5C 579.167,900.5 578.5,901.167 578.5,902.5C 576.205,903.136 574.539,904.469 573.5,906.5C 570.527,907.81 568.193,909.81 566.5,912.5C 564.745,913.072 563.078,913.906 561.5,915C 556.973,918.699 552.639,922.532 548.5,926.5C 544.006,929.727 540.006,933.393 536.5,937.5C 532.251,939.088 528.918,941.755 526.5,945.5C 523.865,946.473 521.865,948.14 520.5,950.5C 519.167,950.5 518.5,951.167 518.5,952.5C 514.557,954.11 511.557,956.777 509.5,960.5C 508.508,960.328 507.842,960.662 507.5,961.5C 504.19,963.146 501.523,965.48 499.5,968.5C 496.865,969.473 494.865,971.14 493.5,973.5C 488.884,975.782 485.217,979.116 482.5,983.5C 478.251,985.088 474.918,987.755 472.5,991.5C 469.19,993.146 466.523,995.48 464.5,998.5C 459.214,1001.45 454.88,1005.45 451.5,1010.5C 450.508,1010.33 449.842,1010.66 449.5,1011.5C 444.514,1014.82 440.18,1018.82 436.5,1023.5C 430.336,1027.24 425.003,1031.91 420.5,1037.5C 419.167,1037.5 418.5,1038.17 418.5,1039.5C 412.189,1043.81 406.522,1048.81 401.5,1054.5C 398.976,1055.96 396.976,1057.96 395.5,1060.5C 393.251,1061.08 391.585,1062.41 390.5,1064.5C 386.518,1066.82 383.185,1069.82 380.5,1073.5C 377.976,1074.96 375.976,1076.96 374.5,1079.5C 369.214,1082.45 364.88,1086.45 361.5,1091.5C 357.518,1093.82 354.185,1096.82 351.5,1100.5C 348.418,1104.25 345.084,1107.58 341.5,1110.5C 334.815,1115.52 328.482,1121.02 322.5,1127C 320.859,1128.13 319.859,1129.63 319.5,1131.5C 315.5,1134.17 312.167,1137.5 309.5,1141.5C 305.9,1143.43 302.9,1146.1 300.5,1149.5C 296.434,1152.56 293.101,1156.23 290.5,1160.5C 288.5,1161.17 287.167,1162.5 286.5,1164.5C 284.5,1165.17 283.167,1166.5 282.5,1168.5C 280.5,1169.17 279.167,1170.5 278.5,1172.5C 270.16,1179.84 262.493,1187.84 255.5,1196.5C 252.521,1198.15 250.188,1200.48 248.5,1203.5C 247.5,1203.83 246.833,1204.5 246.5,1205.5C 243.757,1207.24 241.757,1209.57 240.5,1212.5C 236.401,1216.5 232.401,1220.66 228.5,1225C 226.35,1226.41 224.016,1227.24 221.5,1227.5C 221.672,1226.51 221.338,1225.84 220.5,1225.5C 220.511,1223.45 220.844,1221.45 221.5,1219.5C 223.882,1215.8 226.215,1212.13 228.5,1208.5C 228.5,1208.17 228.5,1207.83 228.5,1207.5C 231.881,1205.12 234.547,1202.12 236.5,1198.5C 239.55,1196.45 241.883,1193.78 243.5,1190.5C 246.219,1188.78 248.219,1186.45 249.5,1183.5C 253.167,1180.5 256.5,1177.17 259.5,1173.5C 262.833,1172.17 265.167,1169.83 266.5,1166.5C 270.466,1161.2 275.132,1156.53 280.5,1152.5C 286.86,1146.81 292.86,1140.81 298.5,1134.5C 298.5,1133.83 298.833,1133.5 299.5,1133.5C 306.779,1126.89 313.779,1119.89 320.5,1112.5C 325.391,1108.28 330.057,1103.61 334.5,1098.5C 340.797,1093.87 346.463,1088.54 351.5,1082.5C 355.194,1078.47 359.194,1074.8 363.5,1071.5C 369.463,1067.21 374.796,1062.21 379.5,1056.5C 381.533,1054.13 383.867,1052.13 386.5,1050.5C 390.12,1048.55 393.12,1045.88 395.5,1042.5C 397.54,1040.82 399.54,1039.16 401.5,1037.5C 406.453,1034.22 410.787,1030.22 414.5,1025.5C 417.5,1022.83 420.5,1020.17 423.5,1017.5C 427.704,1015.97 431.037,1013.3 433.5,1009.5C 434.167,1008.5 434.833,1007.5 435.5,1006.5C 436.5,1006.17 437.167,1005.5 437.5,1004.5C 442.992,1001.43 447.659,997.427 451.5,992.5C 453.544,990.781 455.544,989.114 457.5,987.5C 461.437,985.897 464.437,983.231 466.5,979.5C 467.167,979.167 467.833,978.833 468.5,978.5C 473.131,975.536 477.131,971.869 480.5,967.5C 481.637,966.211 482.97,965.211 484.5,964.5C 488.437,962.897 491.437,960.231 493.5,956.5C 494.167,956.167 494.833,955.833 495.5,955.5C 500.131,952.536 504.131,948.869 507.5,944.5C 511.482,941.848 515.149,938.848 518.5,935.5C 520.751,933.916 522.751,931.916 524.5,929.5C 527.563,927.975 530.23,925.975 532.5,923.5C 533.5,923.167 534.167,922.5 534.5,921.5C 537.447,920.219 539.781,918.219 541.5,915.5C 545.518,912.476 549.518,909.476 553.5,906.5C 557.36,905.311 560.36,902.977 562.5,899.5C 566.402,895.682 570.402,892.015 574.5,888.5C 576.23,887.974 577.564,886.974 578.5,885.5C 582.116,883.221 585.449,880.555 588.5,877.5C 591.674,876.493 594.007,874.493 595.5,871.5C 596.5,870.833 597.5,870.167 598.5,869.5C 601.443,867.562 604.11,865.229 606.5,862.5C 607.222,861.449 608.222,860.782 609.5,860.5C 612.674,859.493 615.007,857.493 616.5,854.5C 619.563,852.975 622.23,850.975 624.5,848.5C 627.192,846.138 629.859,843.804 632.5,841.5C 635.533,839.984 638.2,837.984 640.5,835.5C 642.889,835.021 644.556,833.688 645.5,831.5C 648.927,828.807 652.26,826.141 655.5,823.5C 661.087,820.21 666.087,816.21 670.5,811.5C 673.184,809.807 675.851,808.14 678.5,806.5C 682.348,805.16 685.515,802.827 688,799.5C 689.44,798.852 690.94,798.519 692.5,798.5C 692.433,797.041 692.766,795.708 693.5,794.5C 695.918,792.411 698.585,790.744 701.5,789.5C 705.592,787.787 708.926,785.12 711.5,781.5C 715.47,779.188 719.137,776.522 722.5,773.5C 724.573,771.42 726.907,769.754 729.5,768.5C 732.427,767.243 734.761,765.243 736.5,762.5C 739.198,762.155 741.198,760.822 742.5,758.5C 746.484,756.876 749.817,754.542 752.5,751.5C 753.167,751.5 753.5,751.167 753.5,750.5C 757.017,749.652 759.684,747.652 761.5,744.5C 763.517,743.471 765.517,742.471 767.5,741.5C 774.372,737.962 780.372,733.295 785.5,727.5C 785.833,727.5 786.167,727.5 786.5,727.5C 790.221,725.646 793.554,723.313 796.5,720.5C 800.187,717.821 803.853,715.154 807.5,712.5C 810.198,712.155 812.198,710.822 813.5,708.5C 818.638,705.427 823.638,702.093 828.5,698.5C 830.795,697.525 832.795,696.192 834.5,694.5C 837.09,693.251 839.424,691.584 841.5,689.5C 843.853,688.66 845.853,687.326 847.5,685.5C 848.605,684.4 849.938,683.733 851.5,683.5C 855.678,681.914 859.345,679.581 862.5,676.5C 863.802,674.178 865.802,672.845 868.5,672.5C 871.089,671.581 873.089,669.914 874.5,667.5C 875.391,666.89 876.391,666.557 877.5,666.5C 879.749,665.92 881.415,664.587 882.5,662.5C 884.062,662.267 885.395,661.6 886.5,660.5C 889.961,659.082 892.961,657.082 895.5,654.5C 901.315,652.65 906.315,649.65 910.5,645.5C 914.163,643.324 917.496,640.657 920.5,637.5C 923.005,637.02 925.338,636.02 927.5,634.5C 928.386,633.675 928.719,632.675 928.5,631.5C 930.292,631.634 931.958,631.301 933.5,630.5C 937.5,628.833 941.5,627.167 945.5,625.5C 945.5,624.5 945.5,623.5 945.5,622.5C 945.335,619.482 945.502,616.482 946,613.5C 947.685,610.461 950.185,609.295 953.5,610C 955.369,611.544 957.203,613.044 959,614.5C 965.497,610.343 971.997,606.343 978.5,602.5C 981.147,602.071 983.147,600.738 984.5,598.5C 985.391,597.89 986.391,597.557 987.5,597.5C 990.546,597.275 992.879,595.942 994.5,593.5C 994.973,592.094 995.973,591.427 997.5,591.5C 1001.43,590.431 1004.77,588.431 1007.5,585.5C 1010.06,584.455 1012.39,583.122 1014.5,581.5C 1020.29,579.69 1025.29,576.69 1029.5,572.5C 1034.28,569.46 1039.28,566.793 1044.5,564.5C 1047.1,563.549 1049.44,562.216 1051.5,560.5C 1053.64,560.019 1055.3,558.852 1056.5,557C 1053.52,556.502 1050.52,556.335 1047.5,556.5C 1040.37,554.005 1039.7,550.171 1045.5,545C 1054.5,544.333 1063.5,544.333 1072.5,545C 1074.86,547.109 1076.86,546.942 1078.5,544.5C 1083.78,541.863 1088.78,538.863 1093.5,535.5C 1097.27,533.432 1101.27,531.765 1105.5,530.5C 1111.14,527.678 1116.81,524.844 1122.5,522C 1124.09,521.051 1125.43,519.885 1126.5,518.5C 1130.86,515.575 1135.53,513.241 1140.5,511.5C 1145.71,509.156 1151.04,506.989 1156.5,505C 1157.71,503.961 1158.71,502.794 1159.5,501.5C 1165.39,497.386 1171.73,494.052 1178.5,491.5C 1180.48,491.005 1182.48,490.505 1184.5,490C 1189.78,486.541 1195.11,483.374 1200.5,480.5C 1205.52,477.324 1210.85,474.657 1216.5,472.5C 1219.1,471.532 1221.43,470.199 1223.5,468.5C 1223.83,468.5 1224.17,468.5 1224.5,468.5C 1231.07,466.481 1237.4,463.981 1243.5,461C 1245.37,458.211 1248.03,456.878 1251.5,457C 1257.34,453.959 1263.01,450.792 1268.5,447.5C 1276.63,445.719 1283.96,442.386 1290.5,437.5C 1297,435.3 1303,432.3 1308.5,428.5C 1317.14,424.293 1325.81,420.293 1334.5,416.5C 1343.45,413.951 1351.79,410.284 1359.5,405.5C 1361.2,405.66 1362.87,405.494 1364.5,405C 1374.14,400.963 1383.47,396.463 1392.5,391.5C 1399.11,388.842 1405.44,385.842 1411.5,382.5C 1416.3,381.247 1420.63,379.247 1424.5,376.5C 1425.17,376.5 1425.83,376.5 1426.5,376.5C 1432.99,373.537 1439.66,370.87 1446.5,368.5C 1446.86,367.817 1447.2,367.15 1447.5,366.5C 1448.17,366.5 1448.83,366.5 1449.5,366.5C 1456.02,364.143 1462.35,361.477 1468.5,358.5C 1472.95,357.664 1476.95,355.997 1480.5,353.5C 1481.82,352.058 1483.49,351.392 1485.5,351.5C 1489.89,349.404 1494.22,347.404 1498.5,345.5C 1505.72,342.528 1513.05,339.861 1520.5,337.5C 1524.95,336.664 1528.95,334.997 1532.5,332.5C 1537.16,331.466 1541.83,330.299 1546.5,329C 1548.57,327.016 1551.07,325.849 1554,325.5C 1555.31,324.87 1556.14,323.87 1556.5,322.5C 1557.5,322.5 1558.5,322.5 1559.5,322.5C 1563.13,321.679 1566.46,320.346 1569.5,318.5C 1569.97,317.094 1570.97,316.427 1572.5,316.5C 1583.18,314.021 1593.18,310.354 1602.5,305.5C 1605.16,304.248 1607.83,303.248 1610.5,302.5C 1612.8,301.94 1615.13,301.44 1617.5,301C 1618.06,300.617 1618.39,300.117 1618.5,299.5C 1619.17,299.5 1619.83,299.5 1620.5,299.5C 1624.47,299.514 1627.81,298.181 1630.5,295.5C 1630.83,295.5 1631.17,295.5 1631.5,295.5C 1638.01,294.622 1644.01,292.622 1649.5,289.5C 1652.46,288.863 1655.46,288.363 1658.5,288C 1662.9,286.69 1666.9,284.856 1670.5,282.5C 1675.88,281.259 1681.21,279.592 1686.5,277.5C 1691.57,276.776 1696.57,275.776 1701.5,274.5C 1710.04,272.903 1718.37,270.903 1726.5,268.5C 1726.84,267.662 1727.51,267.328 1728.5,267.5C 1738.78,266.135 1749.12,264.635 1759.5,263C 1760.06,262.617 1760.39,262.117 1760.5,261.5C 1766.61,261.635 1772.61,260.969 1778.5,259.5 Z"/></g>
<g><path style="opacity:1" fill="#656565" d="M 1778.5,259.5 C 1772.61,260.969 1766.61,261.635 1760.5,261.5C 1765.43,260.841 1770.43,259.841 1775.5,258.5C 1776.73,258.52 1777.73,258.853 1778.5,259.5 Z"/></g>
<g><path style="opacity:1" fill="#595959" d="M 1760.5,261.5 C 1760.39,262.117 1760.06,262.617 1759.5,263C 1749.12,264.635 1738.78,266.135 1728.5,267.5C 1728.5,267.167 1728.5,266.833 1728.5,266.5C 1739.19,264.943 1749.86,263.276 1760.5,261.5 Z"/></g>
<g><path style="opacity:1" fill="#bbbbbb" d="M 1728.5,266.5 C 1728.5,266.833 1728.5,267.167 1728.5,267.5C 1727.51,267.328 1726.84,267.662 1726.5,268.5C 1718.79,269.68 1711.12,271.013 1703.5,272.5C 1711.44,269.399 1719.78,267.399 1728.5,266.5 Z"/></g>
<g><path style="opacity:1" fill="#3e3e3e" d="M 1726.5,268.5 C 1718.37,270.903 1710.04,272.903 1701.5,274.5C 1701.5,274.167 1701.5,273.833 1701.5,273.5C 1701.84,272.662 1702.51,272.328 1703.5,272.5C 1711.12,271.013 1718.79,269.68 1726.5,268.5 Z"/></g>
<g><path style="opacity:1" fill="#909090" d="M 1778.5,259.5 C 1779.64,262.304 1779.8,265.304 1779,268.5C 1774.89,272.151 1770.05,274.151 1764.5,274.5C 1764.5,274.167 1764.5,273.833 1764.5,273.5C 1768.43,272.14 1772.27,270.473 1776,268.5C 1778.02,265.856 1778.85,262.856 1778.5,259.5 Z"/></g>
<g><path style="opacity:1" fill="#9d9d9d" d="M 1701.5,273.5 C 1701.5,273.833 1701.5,274.167 1701.5,274.5C 1696.57,275.776 1691.57,276.776 1686.5,277.5C 1686.61,276.883 1686.94,276.383 1687.5,276C 1692.13,274.848 1696.79,274.015 1701.5,273.5 Z"/></g>
<g><path style="opacity:1" fill="#535353" d="M 1764.5,273.5 C 1764.5,273.833 1764.5,274.167 1764.5,274.5C 1757.52,275.698 1750.52,276.698 1743.5,277.5C 1742.83,277.5 1742.17,277.5 1741.5,277.5C 1745.36,276.078 1749.36,274.912 1753.5,274C 1757.15,273.501 1760.82,273.335 1764.5,273.5 Z"/></g>
<g><path style="opacity:1" fill="#828282" d="M 1741.5,277.5 C 1742.17,277.5 1742.83,277.5 1743.5,277.5C 1730.61,280.774 1717.61,283.774 1704.5,286.5C 1707.74,284.433 1711.41,283.099 1715.5,282.5C 1724.08,280.403 1732.75,278.737 1741.5,277.5 Z"/></g>
<g><path style="opacity:1" fill="#4e4e4e" d="M 1670.5,282.5 C 1666.9,284.856 1662.9,286.69 1658.5,288C 1655.46,288.363 1652.46,288.863 1649.5,289.5C 1649.61,288.883 1649.94,288.383 1650.5,288C 1657.17,286.101 1663.84,284.267 1670.5,282.5 Z"/></g>
<g><path style="opacity:1" fill="#999999" d="M 1703.5,286.5 C 1701.53,288.09 1699.19,289.257 1696.5,290C 1692.41,290.557 1688.41,291.39 1684.5,292.5C 1684.5,292.167 1684.5,291.833 1684.5,291.5C 1690.75,289.54 1697.09,287.873 1703.5,286.5 Z"/></g>
<g><path style="opacity:1" fill="#545454" d="M 1649.5,289.5 C 1644.01,292.622 1638.01,294.622 1631.5,295.5C 1633.24,294.043 1635.24,292.876 1637.5,292C 1641.69,291.668 1645.69,290.835 1649.5,289.5 Z"/></g>
<g><path style="opacity:1" fill="#3c3c3c" d="M 1684.5,291.5 C 1684.5,291.833 1684.5,292.167 1684.5,292.5C 1680.38,293.075 1676.38,294.075 1672.5,295.5C 1672.8,294.85 1673.14,294.183 1673.5,293.5C 1677.11,292.461 1680.77,291.795 1684.5,291.5 Z"/></g>
<g><path style="opacity:1" fill="#b3b3b3" d="M 1684.5,292.5 C 1682.27,294.195 1679.6,295.362 1676.5,296C 1671.35,297.731 1666.02,298.897 1660.5,299.5C 1664.35,297.965 1668.35,296.631 1672.5,295.5C 1676.38,294.075 1680.38,293.075 1684.5,292.5 Z"/></g>
<g><path style="opacity:1" fill="#535353" d="M 1630.5,295.5 C 1627.81,298.181 1624.47,299.514 1620.5,299.5C 1620.61,298.883 1620.94,298.383 1621.5,298C 1624.51,297.091 1627.51,296.258 1630.5,295.5 Z"/></g>
<g><path style="opacity:1" fill="#8c8c8c" d="M 1618.5,299.5 C 1618.39,300.117 1618.06,300.617 1617.5,301C 1615.13,301.44 1612.8,301.94 1610.5,302.5C 1610.61,301.883 1610.94,301.383 1611.5,301C 1613.87,300.56 1616.2,300.06 1618.5,299.5 Z"/></g>
<g><path style="opacity:1" fill="#7c7c7c" d="M 1637.5,306.5 C 1631.28,310.132 1624.61,312.799 1617.5,314.5C 1620.99,313.199 1624.33,311.366 1627.5,309C 1630.95,308.339 1634.28,307.505 1637.5,306.5 Z"/></g>
<g><path style="opacity:1" fill="#6c6c6c" d="M 1602.5,305.5 C 1593.18,310.354 1583.18,314.021 1572.5,316.5C 1574.12,314.883 1576.12,313.716 1578.5,313C 1586.52,310.286 1594.52,307.786 1602.5,305.5 Z"/></g>
<g><path style="opacity:1" fill="#4b4b4b" d="M 1569.5,318.5 C 1566.46,320.346 1563.13,321.679 1559.5,322.5C 1561.89,319.083 1565.22,317.75 1569.5,318.5 Z"/></g>
<g><path style="opacity:1" fill="#7a7a7a" d="M 1608.5,316.5 C 1608.05,317.458 1607.38,318.292 1606.5,319C 1601.48,320.515 1596.48,322.015 1591.5,323.5C 1596.66,320.216 1602.33,317.882 1608.5,316.5 Z"/></g>
<g><path style="opacity:1" fill="#5e5e5e" d="M 1574.5,329.5 C 1571.61,331.695 1568.28,333.028 1564.5,333.5C 1566.11,331.905 1568.11,330.739 1570.5,330C 1571.79,329.51 1573.13,329.343 1574.5,329.5 Z"/></g>
<g><path style="opacity:1" fill="#373737" d="M 1556.5,322.5 C 1556.14,323.87 1555.31,324.87 1554,325.5C 1551.07,325.849 1548.57,327.016 1546.5,329C 1541.83,330.299 1537.16,331.466 1532.5,332.5C 1540.16,328.552 1548.16,325.219 1556.5,322.5 Z"/></g>
<g><path style="opacity:1" fill="#5a5a5a" d="M 1532.5,332.5 C 1528.95,334.997 1524.95,336.664 1520.5,337.5C 1523.77,334.508 1527.77,332.841 1532.5,332.5 Z"/></g>
<g><path style="opacity:1" fill="#8b8b8b" d="M 1564.5,333.5 C 1562.57,335.294 1560.24,336.294 1557.5,336.5C 1559.19,334.182 1561.52,333.182 1564.5,333.5 Z"/></g>
<g><path style="opacity:1" fill="#bababa" d="M 1555.5,337.5 C 1549.74,341.316 1543.41,343.982 1536.5,345.5C 1536.83,344.833 1537.17,344.167 1537.5,343.5C 1543.71,341.907 1549.71,339.907 1555.5,337.5 Z"/></g>
<g><path style="opacity:1" fill="#a7a7a7" d="M 1498.5,345.5 C 1494.22,347.404 1489.89,349.404 1485.5,351.5C 1488.75,347.503 1493.08,345.503 1498.5,345.5 Z"/></g>
<g><path style="opacity:1" fill="#707070" d="M 1537.5,343.5 C 1537.17,344.167 1536.83,344.833 1536.5,345.5C 1531.34,348.088 1526,350.088 1520.5,351.5C 1520.41,350.504 1520.75,349.671 1521.5,349C 1526.94,347.448 1532.27,345.614 1537.5,343.5 Z"/></g>
<g><path style="opacity:1" fill="#636363" d="M 1480.5,353.5 C 1476.95,355.997 1472.95,357.664 1468.5,358.5C 1471.77,355.508 1475.77,353.841 1480.5,353.5 Z"/></g>
<g><path style="opacity:1" fill="#7c7c7c" d="M 1511.5,354.5 C 1511.05,355.458 1510.38,356.292 1509.5,357C 1506.79,357.395 1504.13,357.895 1501.5,358.5C 1501.61,357.883 1501.94,357.383 1502.5,357C 1505.51,356.091 1508.51,355.258 1511.5,354.5 Z"/></g>
<g><path style="opacity:1" fill="#636363" d="M 1468.5,358.5 C 1462.35,361.477 1456.02,364.143 1449.5,366.5C 1455.13,362.56 1461.46,359.893 1468.5,358.5 Z"/></g>
<g><path style="opacity:1" fill="#a7a7a7" d="M 1501.5,358.5 C 1500.44,360.532 1498.77,361.866 1496.5,362.5C 1492.43,364.583 1488.1,365.917 1483.5,366.5C 1486.41,363.482 1490.08,361.982 1494.5,362C 1496.32,359.756 1498.65,358.59 1501.5,358.5 Z"/></g>
<g><path style="opacity:1" fill="#757575" d="M 1447.5,366.5 C 1447.2,367.15 1446.86,367.817 1446.5,368.5C 1439.66,370.87 1432.99,373.537 1426.5,376.5C 1426.5,375.5 1426.5,374.5 1426.5,373.5C 1428.2,373.66 1429.87,373.494 1431.5,373C 1436.58,370.359 1441.91,368.192 1447.5,366.5 Z"/></g>
<g><path style="opacity:1" fill="#bbbbbb" d="M 1481.5,366.5 C 1481.14,367.87 1480.31,368.87 1479,369.5C 1472.75,372.644 1466.25,374.977 1459.5,376.5C 1467.05,373.618 1474.38,370.285 1481.5,366.5 Z"/></g>
<g><path style="opacity:1" fill="#777777" d="M 1424.5,376.5 C 1420.63,379.247 1416.3,381.247 1411.5,382.5C 1411.8,381.85 1412.14,381.183 1412.5,380.5C 1416.32,378.69 1420.32,377.357 1424.5,376.5 Z"/></g>
<g><path style="opacity:1" fill="#595959" d="M 1411.5,382.5 C 1405.44,385.842 1399.11,388.842 1392.5,391.5C 1392.17,391.5 1391.83,391.5 1391.5,391.5C 1393.04,390.333 1394.37,389 1395.5,387.5C 1400.63,385.274 1405.96,383.607 1411.5,382.5 Z"/></g>
<g><path style="opacity:1" fill="#b7b7b7" d="M 1395.5,387.5 C 1394.37,389 1393.04,390.333 1391.5,391.5C 1388.1,392.634 1384.77,393.968 1381.5,395.5C 1385.55,391.912 1390.22,389.245 1395.5,387.5 Z"/></g>
<g><path style="opacity:1" fill="#9e9e9e" d="M 1458.5,376.5 C 1444.42,383.043 1430.25,389.71 1416,396.5C 1413.28,397.687 1410.44,398.353 1407.5,398.5C 1420.29,392.208 1433.29,386.041 1446.5,380C 1450.46,378.647 1454.46,377.48 1458.5,376.5 Z"/></g>
<g><path style="opacity:1" fill="#323232" d="M 1391.5,391.5 C 1391.83,391.5 1392.17,391.5 1392.5,391.5C 1383.47,396.463 1374.14,400.963 1364.5,405C 1362.87,405.494 1361.2,405.66 1359.5,405.5C 1366.28,401.228 1373.61,397.895 1381.5,395.5C 1384.77,393.968 1388.1,392.634 1391.5,391.5 Z"/></g>
<g><path style="opacity:1" fill="#9e9e9e" d="M 1407.5,398.5 C 1403.76,400.376 1400.1,402.543 1396.5,405C 1388.07,408.02 1379.73,411.187 1371.5,414.5C 1372.57,413.115 1373.91,411.949 1375.5,411C 1385.9,406.23 1396.56,402.063 1407.5,398.5 Z"/></g>
<g><path style="opacity:1" fill="#656565" d="M 1359.5,405.5 C 1351.79,410.284 1343.45,413.951 1334.5,416.5C 1335.57,415.115 1336.91,413.949 1338.5,413C 1345.62,410.678 1352.62,408.178 1359.5,405.5 Z"/></g>
<g><path style="opacity:1" fill="#5c5c5c" d="M 1364.5,416.5 C 1360.22,420.135 1355.22,422.469 1349.5,423.5C 1354.31,420.93 1359.31,418.597 1364.5,416.5 Z"/></g>
<g><path style="opacity:1" fill="#646464" d="M 1308.5,428.5 C 1303,432.3 1297,435.3 1290.5,437.5C 1295.6,432.949 1301.6,429.949 1308.5,428.5 Z"/></g>
<g><path style="opacity:1" fill="#9d9d9d" d="M 1337.5,429.5 C 1337.05,430.458 1336.38,431.292 1335.5,432C 1327.87,435.264 1320.21,438.431 1312.5,441.5C 1319.15,437.174 1326.15,433.341 1333.5,430C 1334.79,429.51 1336.13,429.343 1337.5,429.5 Z"/></g>
<g><path style="opacity:1" fill="#404040" d="M 1290.5,437.5 C 1283.96,442.386 1276.63,445.719 1268.5,447.5C 1274.54,444.645 1280.54,441.479 1286.5,438C 1287.79,437.51 1289.13,437.343 1290.5,437.5 Z"/></g>
<g><path style="opacity:1" fill="#525252" d="M 1310.5,441.5 C 1310.17,442.167 1309.83,442.833 1309.5,443.5C 1304.85,445.156 1300.18,446.823 1295.5,448.5C 1299.97,445.222 1304.97,442.889 1310.5,441.5 Z"/></g>
<g><path style="opacity:1" fill="#cecece" d="M 1309.5,443.5 C 1305.31,446.174 1300.98,448.674 1296.5,451C 1294.87,451.494 1293.2,451.66 1291.5,451.5C 1291.5,451.167 1291.5,450.833 1291.5,450.5C 1293.15,450.34 1294.49,449.674 1295.5,448.5C 1300.18,446.823 1304.85,445.156 1309.5,443.5 Z"/></g>
<g><path style="opacity:1" fill="#686868" d="M 1268.5,447.5 C 1263.01,450.792 1257.34,453.959 1251.5,457C 1248.03,456.878 1245.37,458.211 1243.5,461C 1237.4,463.981 1231.07,466.481 1224.5,468.5C 1230.58,465.837 1236.42,462.504 1242,458.5C 1250.72,454.383 1259.56,450.716 1268.5,447.5 Z"/></g>
<g><path style="opacity:1" fill="#8b8b8b" d="M 1291.5,450.5 C 1291.5,450.833 1291.5,451.167 1291.5,451.5C 1288.03,452.498 1285.03,454.332 1282.5,457C 1279.55,458.131 1276.55,458.964 1273.5,459.5C 1279.08,455.746 1285.08,452.746 1291.5,450.5 Z"/></g>
<g><path style="opacity:1" fill="#434343" d="M 1265.5,462.5 C 1260.5,465.73 1255.16,468.397 1249.5,470.5C 1254.28,466.895 1259.61,464.229 1265.5,462.5 Z"/></g>
<g><path style="opacity:1" fill="#878787" d="M 1223.5,468.5 C 1221.43,470.199 1219.1,471.532 1216.5,472.5C 1218.12,470.058 1220.45,468.725 1223.5,468.5 Z"/></g>
<g><path style="opacity:1" fill="#8e8e8e" d="M 1246.5,472.5 C 1238.19,478.11 1229.19,482.443 1219.5,485.5C 1220.35,483.907 1221.68,482.74 1223.5,482C 1230.96,478.265 1238.63,475.098 1246.5,472.5 Z"/></g>
<g><path style="opacity:1" fill="#585858" d="M 1200.5,480.5 C 1195.11,483.374 1189.78,486.541 1184.5,490C 1182.48,490.505 1180.48,491.005 1178.5,491.5C 1183.56,488.795 1188.56,485.795 1193.5,482.5C 1195.78,481.579 1198.11,480.913 1200.5,480.5 Z"/></g>
<g><path style="opacity:1" fill="#b2b2b2" d="M 1217.5,486.5 C 1213.82,489.752 1209.48,492.085 1204.5,493.5C 1208.45,490.614 1212.78,488.281 1217.5,486.5 Z"/></g>
<g><path style="opacity:1" fill="#5b5b5b" d="M 1201.5,493.5 C 1195.31,497.908 1188.64,501.575 1181.5,504.5C 1187.6,500.105 1194.27,496.438 1201.5,493.5 Z"/></g>
<g><path style="opacity:1" fill="#353535" d="M 1159.5,501.5 C 1158.71,502.794 1157.71,503.961 1156.5,505C 1151.04,506.989 1145.71,509.156 1140.5,511.5C 1146.54,507.805 1152.87,504.471 1159.5,501.5 Z"/></g>
<g><path style="opacity:1" fill="#848484" d="M 1181.5,504.5 C 1181.05,505.458 1180.38,506.292 1179.5,507C 1176.4,507.944 1173.4,509.111 1170.5,510.5C 1173.42,507.393 1177.09,505.393 1181.5,504.5 Z"/></g>
<g><path style="opacity:1" fill="#a0a0a0" d="M 1170.5,510.5 C 1170.2,511.15 1169.86,511.817 1169.5,512.5C 1165.95,513.406 1162.62,514.74 1159.5,516.5C 1159.5,516.167 1159.5,515.833 1159.5,515.5C 1162.84,513.269 1166.5,511.603 1170.5,510.5 Z"/></g>
<g><path style="opacity:1" fill="#515151" d="M 1159.5,515.5 C 1159.5,515.833 1159.5,516.167 1159.5,516.5C 1154.61,519.02 1149.61,521.354 1144.5,523.5C 1145.35,521.907 1146.68,520.74 1148.5,520C 1152.08,518.197 1155.75,516.697 1159.5,515.5 Z"/></g>
<g><path style="opacity:1" fill="#6b6b6b" d="M 1126.5,518.5 C 1125.43,519.885 1124.09,521.051 1122.5,522C 1116.81,524.844 1111.14,527.678 1105.5,530.5C 1109.11,527.022 1113.11,524.022 1117.5,521.5C 1120.36,520.037 1123.36,519.037 1126.5,518.5 Z"/></g>
<g><path style="opacity:1" fill="#a7a7a7" d="M 1143.5,524.5 C 1138.55,528.765 1132.88,531.765 1126.5,533.5C 1131.29,529.095 1136.96,526.095 1143.5,524.5 Z"/></g>
<g><path style="opacity:1" fill="#909090" d="M 1126.5,533.5 C 1123.36,537.03 1119.36,539.03 1114.5,539.5C 1117.95,536.562 1121.95,534.562 1126.5,533.5 Z"/></g>
<g><path style="opacity:1" fill="#bababa" d="M 1093.5,535.5 C 1088.78,538.863 1083.78,541.863 1078.5,544.5C 1082.68,540.355 1087.68,537.355 1093.5,535.5 Z"/></g>
<g><path style="opacity:1" fill="#050505" d="M 949.5,545.5 C 959.172,545.334 968.839,545.5 978.5,546C 982.092,548.971 982.425,552.304 979.5,556C 969.241,557.592 958.907,557.926 948.5,557C 944.244,552.651 944.577,548.817 949.5,545.5 Z"/></g>
<g><path style="opacity:1" fill="#0a0a0a" d="M 996.5,545.5 C 1006.51,545.334 1016.51,545.5 1026.5,546C 1030.87,550.502 1030.2,554.168 1024.5,557C 1015.5,557.667 1006.5,557.667 997.5,557C 992.788,553.386 992.455,549.553 996.5,545.5 Z"/></g>
<g><path style="opacity:1" fill="#909090" d="M 1047.5,556.5 C 1050.52,556.335 1053.52,556.502 1056.5,557C 1055.3,558.852 1053.64,560.019 1051.5,560.5C 1051.58,559.25 1052.24,558.417 1053.5,558C 1051.29,557.809 1049.29,557.309 1047.5,556.5 Z"/></g>
<g><path style="opacity:1" fill="#c8c8c8" d="M 1101.5,547.5 C 1097.42,550.119 1093.25,552.786 1089,555.5C 1088.83,765.667 1088.33,975.667 1087.5,1185.5C 1087.33,975.166 1087.5,764.833 1088,554.5C 1091.87,550.933 1096.37,548.6 1101.5,547.5 Z"/></g>
<g><path style="opacity:1" fill="#050505" d="M 949.5,561.5 C 952.809,561.308 955.309,562.641 957,565.5C 957.667,575.167 957.667,584.833 957,594.5C 953.333,598.5 949.667,598.5 946,594.5C 945.333,584.833 945.333,575.167 946,565.5C 947.376,564.295 948.542,562.962 949.5,561.5 Z"/></g>
<g><path style="opacity:1" fill="#575757" d="M 1051.5,560.5 C 1049.44,562.216 1047.1,563.549 1044.5,564.5C 1046.03,561.932 1048.36,560.599 1051.5,560.5 Z"/></g>
<g><path style="opacity:1" fill="#353535" d="M 1074.5,561.5 C 1074.56,560.957 1074.89,560.624 1075.5,560.5C 1076.5,769.499 1076.83,978.499 1076.5,1187.5C 1075.5,979.667 1075.17,771.667 1075.5,563.5C 1075.67,562.508 1075.34,561.842 1074.5,561.5 Z"/></g>
<g><path style="opacity:1" fill="#a9a9a9" d="M 1074.5,561.5 C 1075.34,561.842 1075.67,562.508 1075.5,563.5C 1071.43,565.372 1067.43,567.539 1063.5,570C 1062.21,570.49 1060.87,570.657 1059.5,570.5C 1059.95,569.542 1060.62,568.708 1061.5,568C 1065.98,565.91 1070.31,563.743 1074.5,561.5 Z"/></g>
<g><path style="opacity:1" fill="#595959" d="M 1029.5,572.5 C 1025.29,576.69 1020.29,579.69 1014.5,581.5C 1018.6,577.272 1023.6,574.272 1029.5,572.5 Z"/></g>
<g><path style="opacity:1" fill="#6d6d6d" d="M 1059.5,570.5 C 1058.43,571.885 1057.09,573.051 1055.5,574C 1049.05,576.911 1042.71,580.078 1036.5,583.5C 1043.38,577.99 1051.05,573.656 1059.5,570.5 Z"/></g>
<g><path style="opacity:1" fill="#797979" d="M 1014.5,581.5 C 1012.39,583.122 1010.06,584.455 1007.5,585.5C 1009.03,582.932 1011.36,581.599 1014.5,581.5 Z"/></g>
<g><path style="opacity:1" fill="#636363" d="M 1007.5,585.5 C 1004.77,588.431 1001.43,590.431 997.5,591.5C 999.535,590.021 1001.53,588.354 1003.5,586.5C 1004.69,585.571 1006.02,585.238 1007.5,585.5 Z"/></g>
<g><path style="opacity:1" fill="#7d7d7d" d="M 1032.5,585.5 C 1031.15,587.738 1029.15,589.071 1026.5,589.5C 1028.03,587.631 1030.03,586.298 1032.5,585.5 Z"/></g>
<g><path style="opacity:1" fill="#8b8b8b" d="M 1025.5,589.5 C 1025.5,590.5 1025.5,591.5 1025.5,592.5C 1021.28,594.311 1016.95,595.978 1012.5,597.5C 1016.32,594.084 1020.66,591.418 1025.5,589.5 Z"/></g>
<g><path style="opacity:1" fill="#545454" d="M 994.5,593.5 C 992.879,595.942 990.546,597.275 987.5,597.5C 989.566,595.801 991.9,594.468 994.5,593.5 Z"/></g>
<g><path style="opacity:1" fill="#8d8d8d" d="M 984.5,598.5 C 983.147,600.738 981.147,602.071 978.5,602.5C 980.034,600.631 982.034,599.298 984.5,598.5 Z"/></g>
<g><path style="opacity:1" fill="#909090" d="M 1011.5,598.5 C 1005.17,601.963 999.171,606.13 993.5,611C 989.479,613.508 985.146,615.341 980.5,616.5C 988.308,611.255 996.308,606.088 1004.5,601C 1006.65,599.587 1008.99,598.754 1011.5,598.5 Z"/></g>
<g><path style="opacity:1" fill="#676767" d="M 972.5,621.5 C 968.672,624.918 964.339,627.584 959.5,629.5C 962.508,626.801 965.841,624.301 969.5,622C 970.448,621.517 971.448,621.351 972.5,621.5 Z"/></g>
<g><path style="opacity:1" fill="#4a4a4a" d="M 945.5,622.5 C 945.5,623.5 945.5,624.5 945.5,625.5C 941.5,627.167 937.5,628.833 933.5,630.5C 937.205,627.474 941.205,624.808 945.5,622.5 Z"/></g>
<g><path style="opacity:1" fill="#b4b4b4" d="M 920.5,637.5 C 917.496,640.657 914.163,643.324 910.5,645.5C 909.391,645.557 908.391,645.89 907.5,646.5C 907.937,644.926 908.937,643.759 910.5,643C 913.974,641.344 917.308,639.511 920.5,637.5 Z"/></g>
<g><path style="opacity:1" fill="#555555" d="M 938.5,642.5 C 936.97,644.346 934.97,645.346 932.5,645.5C 934.03,643.654 936.03,642.654 938.5,642.5 Z"/></g>
<g><path style="opacity:1" fill="#a6a6a6" d="M 945.5,640.5 C 938.075,644.871 930.408,648.871 922.5,652.5C 925.441,649.688 928.774,647.355 932.5,645.5C 934.97,645.346 936.97,644.346 938.5,642.5C 940.508,640.732 942.674,639.066 945,637.5C 945.483,638.448 945.649,639.448 945.5,640.5 Z"/></g>
<g><path style="opacity:1" fill="#515151" d="M 910.5,645.5 C 906.315,649.65 901.315,652.65 895.5,654.5C 898.91,651.115 902.91,648.448 907.5,646.5C 908.391,645.89 909.391,645.557 910.5,645.5 Z"/></g>
<g><path style="opacity:1" fill="#747474" d="M 895.5,654.5 C 892.961,657.082 889.961,659.082 886.5,660.5C 888.674,657.419 891.674,655.419 895.5,654.5 Z"/></g>
<g><path style="opacity:1" fill="#878787" d="M 922.5,652.5 C 921.375,654.129 920.041,655.629 918.5,657C 914.691,658.598 911.024,660.432 907.5,662.5C 911.978,658.425 916.978,655.091 922.5,652.5 Z"/></g>
<g><path style="opacity:1" fill="#696969" d="M 882.5,662.5 C 881.415,664.587 879.749,665.92 877.5,666.5C 878.27,664.065 879.937,662.731 882.5,662.5 Z"/></g>
<g><path style="opacity:1" fill="#666666" d="M 903.5,664.5 C 901.853,666.326 899.853,667.66 897.5,668.5C 898.802,666.178 900.802,664.845 903.5,664.5 Z"/></g>
<g><path style="opacity:1" fill="#696969" d="M 897.5,668.5 C 893.135,672.189 888.469,675.522 883.5,678.5C 882.391,678.557 881.391,678.89 880.5,679.5C 885.573,675.117 891.24,671.45 897.5,668.5 Z"/></g>
<g><path style="opacity:1" fill="#5a5a5a" d="M 874.5,667.5 C 873.089,669.914 871.089,671.581 868.5,672.5C 869.911,670.086 871.911,668.419 874.5,667.5 Z"/></g>
<g><path style="opacity:1" fill="#545454" d="M 862.5,676.5 C 859.345,679.581 855.678,681.914 851.5,683.5C 854.585,680.446 858.252,678.112 862.5,676.5 Z"/></g>
<g><path style="opacity:1" fill="#b7b7b7" d="M 883.5,678.5 C 881.434,681.729 878.434,683.396 874.5,683.5C 876.034,681.631 878.034,680.298 880.5,679.5C 881.391,678.89 882.391,678.557 883.5,678.5 Z"/></g>
<g><path style="opacity:1" fill="#6f6f6f" d="M 874.5,683.5 C 872.853,685.326 870.853,686.66 868.5,687.5C 869.802,685.178 871.802,683.845 874.5,683.5 Z"/></g>
<g><path style="opacity:1" fill="#929292" d="M 847.5,685.5 C 845.853,687.326 843.853,688.66 841.5,689.5C 842.802,687.178 844.802,685.845 847.5,685.5 Z"/></g>
<g><path style="opacity:1" fill="#767676" d="M 868.5,687.5 C 866.853,689.326 864.853,690.66 862.5,691.5C 863.802,689.178 865.802,687.845 868.5,687.5 Z"/></g>
<g><path style="opacity:1" fill="#6f6f6f" d="M 862.5,691.5 C 855.541,696.985 848.208,701.985 840.5,706.5C 847.08,700.532 854.413,695.532 862.5,691.5 Z"/></g>
<g><path style="opacity:1" fill="#9e9e9e" d="M 834.5,694.5 C 832.795,696.192 830.795,697.525 828.5,698.5C 829.663,696.018 831.663,694.684 834.5,694.5 Z"/></g>
<g><path style="opacity:1" fill="#888888" d="M 813.5,708.5 C 812.198,710.822 810.198,712.155 807.5,712.5C 809.147,710.674 811.147,709.34 813.5,708.5 Z"/></g>
<g><path style="opacity:1" fill="#949494" d="M 839.5,706.5 C 836.949,710.647 833.282,713.314 828.5,714.5C 831.83,711.523 835.497,708.856 839.5,706.5 Z"/></g>
<g><path style="opacity:1" fill="#7a7a7a" d="M 828.5,714.5 C 826.853,716.326 824.853,717.66 822.5,718.5C 823.802,716.178 825.802,714.845 828.5,714.5 Z"/></g>
<g><path style="opacity:1" fill="#8e8e8e" d="M 796.5,720.5 C 793.554,723.313 790.221,725.646 786.5,727.5C 788.961,724.056 792.295,721.723 796.5,720.5 Z"/></g>
<g><path style="opacity:1" fill="#6b6b6b" d="M 822.5,718.5 C 816.467,723.187 810.134,727.52 803.5,731.5C 808.981,726.035 815.315,721.702 822.5,718.5 Z"/></g>
<g><path style="opacity:1" fill="#787878" d="M 803.5,731.5 C 800.197,735.156 796.197,737.822 791.5,739.5C 795.148,736.34 799.148,733.673 803.5,731.5 Z"/></g>
<g><path style="opacity:1" fill="#5a5a5a" d="M 785.5,727.5 C 780.372,733.295 774.372,737.962 767.5,741.5C 767.721,740.265 768.388,739.265 769.5,738.5C 775.147,735.169 780.48,731.502 785.5,727.5 Z"/></g>
<g><path style="opacity:1" fill="#676767" d="M 791.5,739.5 C 787.071,743.888 782.071,747.554 776.5,750.5C 779.929,747.25 783.596,744.083 787.5,741C 788.745,740.209 790.078,739.709 791.5,739.5 Z"/></g>
<g><path style="opacity:1" fill="#727272" d="M 761.5,744.5 C 759.684,747.652 757.017,749.652 753.5,750.5C 755.83,748.186 758.496,746.186 761.5,744.5 Z"/></g>
<g><path style="opacity:1" fill="#5f5f5f" d="M 775.5,750.5 C 774.421,752.543 772.754,753.876 770.5,754.5C 771.539,752.469 773.205,751.136 775.5,750.5 Z"/></g>
<g><path style="opacity:1" fill="#7d7d7d" d="M 770.5,754.5 C 769.421,756.543 767.754,757.876 765.5,758.5C 766.539,756.469 768.205,755.136 770.5,754.5 Z"/></g>
<g><path style="opacity:1" fill="#646464" d="M 752.5,751.5 C 749.817,754.542 746.484,756.876 742.5,758.5C 745.244,755.453 748.578,753.119 752.5,751.5 Z"/></g>
<g><path style="opacity:1" fill="#7d7d7d" d="M 742.5,758.5 C 741.198,760.822 739.198,762.155 736.5,762.5C 738.147,760.674 740.147,759.34 742.5,758.5 Z"/></g>
<g><path style="opacity:1" fill="#9a9a9a" d="M 764.5,758.5 C 761.949,762.646 758.283,765.313 753.5,766.5C 756.881,763.454 760.548,760.787 764.5,758.5 Z"/></g>
<g><path style="opacity:1" fill="#797979" d="M 736.5,762.5 C 734.761,765.243 732.427,767.243 729.5,768.5C 731.214,765.787 733.547,763.787 736.5,762.5 Z"/></g>
<g><path style="opacity:1" fill="#757575" d="M 722.5,773.5 C 719.137,776.522 715.47,779.188 711.5,781.5C 714.252,777.663 717.919,774.996 722.5,773.5 Z"/></g>
<g><path style="opacity:1" fill="#8a8a8a" d="M 749.5,769.5 C 741.404,777.229 732.404,783.896 722.5,789.5C 726.087,786.475 729.753,783.308 733.5,780C 738.728,776.236 744.062,772.736 749.5,769.5 Z"/></g>
<g><path style="opacity:1" fill="#515151" d="M 711.5,781.5 C 708.926,785.12 705.592,787.787 701.5,789.5C 701.721,788.265 702.388,787.265 703.5,786.5C 706.196,784.789 708.862,783.122 711.5,781.5 Z"/></g>
<g><path style="opacity:1" fill="#6a6a6a" d="M 722.5,789.5 C 718.071,793.888 713.071,797.554 707.5,800.5C 710.929,797.25 714.596,794.083 718.5,791C 719.745,790.209 721.078,789.709 722.5,789.5 Z"/></g>
<g><path style="opacity:1" fill="#595959" d="M 693.5,794.5 C 692.766,795.708 692.433,797.041 692.5,798.5C 690.94,798.519 689.44,798.852 688,799.5C 685.515,802.827 682.348,805.16 678.5,806.5C 678.721,805.265 679.388,804.265 680.5,803.5C 684.521,800.042 688.854,797.042 693.5,794.5 Z"/></g>
<g><path style="opacity:1" fill="#6c6c6c" d="M 707.5,800.5 C 705.23,802.975 702.563,804.975 699.5,806.5C 701.373,803.551 704.039,801.551 707.5,800.5 Z"/></g>
<g><path style="opacity:1" fill="#7e7e7e" d="M 699.5,806.5 C 697.364,808.75 695.03,810.917 692.5,813C 691.255,813.791 689.922,814.291 688.5,814.5C 691.607,811.059 695.274,808.392 699.5,806.5 Z"/></g>
<g><path style="opacity:1" fill="#7d7d7d" d="M 688.5,814.5 C 687.415,816.587 685.749,817.92 683.5,818.5C 684.585,816.413 686.251,815.08 688.5,814.5 Z"/></g>
<g><path style="opacity:1" fill="#929292" d="M 670.5,811.5 C 666.087,816.21 661.087,820.21 655.5,823.5C 656.909,821.583 658.576,819.75 660.5,818C 664.003,815.978 667.337,813.811 670.5,811.5 Z"/></g>
<g><path style="opacity:1" fill="#949494" d="M 683.5,818.5 C 683.719,819.675 683.386,820.675 682.5,821.5C 679.591,822.424 676.924,823.757 674.5,825.5C 676.592,822.083 679.592,819.75 683.5,818.5 Z"/></g>
<g><path style="opacity:1" fill="#686868" d="M 645.5,831.5 C 644.556,833.688 642.889,835.021 640.5,835.5C 641.656,833.613 643.323,832.279 645.5,831.5 Z"/></g>
<g><path style="opacity:1" fill="#989898" d="M 674.5,825.5 C 670.392,830.55 665.392,834.55 659.5,837.5C 659.721,836.265 660.388,835.265 661.5,834.5C 665.732,831.229 670.065,828.229 674.5,825.5 Z"/></g>
<g><path style="opacity:1" fill="#8c8c8c" d="M 640.5,835.5 C 638.2,837.984 635.533,839.984 632.5,841.5C 634.443,838.529 637.109,836.529 640.5,835.5 Z"/></g>
<g><path style="opacity:1" fill="#949494" d="M 659.5,837.5 C 657.541,840.365 654.874,842.365 651.5,843.5C 653.268,840.41 655.935,838.41 659.5,837.5 Z"/></g>
<g><path style="opacity:1" fill="#696969" d="M 647.5,846.5 C 646.421,848.543 644.754,849.876 642.5,850.5C 643.539,848.469 645.205,847.136 647.5,846.5 Z"/></g>
<g><path style="opacity:1" fill="#7c7c7c" d="M 624.5,848.5 C 622.23,850.975 619.563,852.975 616.5,854.5C 618.373,851.551 621.039,849.551 624.5,848.5 Z"/></g>
<g><path style="opacity:1" fill="#6e6e6e" d="M 642.5,850.5 C 641.421,852.543 639.754,853.876 637.5,854.5C 638.539,852.469 640.205,851.136 642.5,850.5 Z"/></g>
<g><path style="opacity:1" fill="#7b7b7b" d="M 616.5,854.5 C 615.007,857.493 612.674,859.493 609.5,860.5C 610.899,857.436 613.232,855.436 616.5,854.5 Z"/></g>
<g><path style="opacity:1" fill="#808080" d="M 606.5,862.5 C 604.11,865.229 601.443,867.562 598.5,869.5C 600.248,866.084 602.914,863.75 606.5,862.5 Z"/></g>
<g><path style="opacity:1" fill="#828282" d="M 637.5,854.5 C 635.721,856.546 634.054,858.713 632.5,861C 625.142,865.343 618.142,870.176 611.5,875.5C 612.909,873.583 614.576,871.75 616.5,870C 623.203,864.327 630.203,859.16 637.5,854.5 Z"/></g>
<g><path style="opacity:1" fill="#797979" d="M 595.5,871.5 C 594.007,874.493 591.674,876.493 588.5,877.5C 589.899,874.436 592.232,872.436 595.5,871.5 Z"/></g>
<g><path style="opacity:1" fill="#7e7e7e" d="M 588.5,877.5 C 585.449,880.555 582.116,883.221 578.5,885.5C 580.918,881.755 584.251,879.088 588.5,877.5 Z"/></g>
<g><path style="opacity:1" fill="#7d7d7d" d="M 611.5,875.5 C 609.047,879.086 605.714,881.752 601.5,883.5C 604.39,880.375 607.723,877.708 611.5,875.5 Z"/></g>
<g><path style="opacity:1" fill="#a0a0a0" d="M 574.5,888.5 C 570.402,892.015 566.402,895.682 562.5,899.5C 561.391,899.557 560.391,899.89 559.5,900.5C 563.591,895.413 568.591,891.413 574.5,888.5 Z"/></g>
<g><path style="opacity:1" fill="#808080" d="M 597.5,886.5 C 592.793,892.35 587.127,897.017 580.5,900.5C 581.909,898.583 583.576,896.75 585.5,895C 589.675,892.311 593.675,889.477 597.5,886.5 Z"/></g>
<g><path style="opacity:1" fill="#404040" d="M 562.5,899.5 C 560.36,902.977 557.36,905.311 553.5,906.5C 554.976,903.963 556.976,901.963 559.5,900.5C 560.391,899.89 561.391,899.557 562.5,899.5 Z"/></g>
<g><path style="opacity:1" fill="#787878" d="M 578.5,902.5 C 577.421,904.543 575.754,905.876 573.5,906.5C 574.539,904.469 576.205,903.136 578.5,902.5 Z"/></g>
<g><path style="opacity:1" fill="#787878" d="M 566.5,912.5 C 561.232,918.131 555.232,922.797 548.5,926.5C 552.639,922.532 556.973,918.699 561.5,915C 563.078,913.906 564.745,913.072 566.5,912.5 Z"/></g>
<g><path style="opacity:1" fill="#919191" d="M 541.5,915.5 C 539.781,918.219 537.447,920.219 534.5,921.5C 536.193,918.81 538.527,916.81 541.5,915.5 Z"/></g>
<g><path style="opacity:1" fill="#969696" d="M 532.5,923.5 C 530.23,925.975 527.563,927.975 524.5,929.5C 526.373,926.551 529.039,924.551 532.5,923.5 Z"/></g>
<g><path style="opacity:1" fill="#7c7c7c" d="M 518.5,935.5 C 515.149,938.848 511.482,941.848 507.5,944.5C 510.245,940.426 513.912,937.426 518.5,935.5 Z"/></g>
<g><path style="opacity:1" fill="#7a7a7a" d="M 536.5,937.5 C 533.449,940.555 530.116,943.221 526.5,945.5C 528.918,941.755 532.251,939.088 536.5,937.5 Z"/></g>
<g><path style="opacity:1" fill="#747474" d="M 526.5,945.5 C 525.109,947.89 523.109,949.557 520.5,950.5C 521.865,948.14 523.865,946.473 526.5,945.5 Z"/></g>
<g><path style="opacity:1" fill="#4c4c4c" d="M 507.5,944.5 C 504.131,948.869 500.131,952.536 495.5,955.5C 498.871,951.029 502.871,947.363 507.5,944.5 Z"/></g>
<g><path style="opacity:1" fill="#a6a6a6" d="M 518.5,952.5 C 516.437,956.231 513.437,958.897 509.5,960.5C 511.557,956.777 514.557,954.11 518.5,952.5 Z"/></g>
<g><path style="opacity:1" fill="#555555" d="M 493.5,956.5 C 491.437,960.231 488.437,962.897 484.5,964.5C 486.557,960.777 489.557,958.11 493.5,956.5 Z"/></g>
<g><path style="opacity:1" fill="#7b7b7b" d="M 507.5,961.5 C 505.451,964.55 502.784,966.883 499.5,968.5C 501.523,965.48 504.19,963.146 507.5,961.5 Z"/></g>
<g><path style="opacity:1" fill="#777777" d="M 499.5,968.5 C 498.109,970.89 496.109,972.557 493.5,973.5C 494.865,971.14 496.865,969.473 499.5,968.5 Z"/></g>
<g><path style="opacity:1" fill="#525252" d="M 480.5,967.5 C 477.131,971.869 473.131,975.536 468.5,978.5C 471.871,974.029 475.871,970.363 480.5,967.5 Z"/></g>
<g><path style="opacity:1" fill="#9d9d9d" d="M 493.5,973.5 C 490.687,977.813 487.021,981.147 482.5,983.5C 485.217,979.116 488.884,975.782 493.5,973.5 Z"/></g>
<g><path style="opacity:1" fill="#5e5e5e" d="M 466.5,979.5 C 464.437,983.231 461.437,985.897 457.5,987.5C 459.557,983.777 462.557,981.11 466.5,979.5 Z"/></g>
<g><path style="opacity:1" fill="#797979" d="M 482.5,983.5 C 479.48,986.516 476.146,989.183 472.5,991.5C 474.918,987.755 478.251,985.088 482.5,983.5 Z"/></g>
<g><path style="opacity:1" fill="#757575" d="M 472.5,991.5 C 470.451,994.55 467.784,996.883 464.5,998.5C 466.523,995.48 469.19,993.146 472.5,991.5 Z"/></g>
<g><path style="opacity:1" fill="#848484" d="M 451.5,992.5 C 447.659,997.427 442.992,1001.43 437.5,1004.5C 440.864,1000.63 444.53,996.961 448.5,993.5C 449.417,992.873 450.417,992.539 451.5,992.5 Z"/></g>
<g><path style="opacity:1" fill="#a6a6a6" d="M 464.5,998.5 C 461.23,1003.64 456.897,1007.64 451.5,1010.5C 454.88,1005.45 459.214,1001.45 464.5,998.5 Z"/></g>
<g><path style="opacity:1" fill="#9d9d9d" d="M 435.5,1006.5 C 434.833,1007.5 434.167,1008.5 433.5,1009.5C 432.391,1009.56 431.391,1009.89 430.5,1010.5C 431.539,1008.47 433.205,1007.14 435.5,1006.5 Z"/></g>
<g><path style="opacity:1" fill="#404040" d="M 433.5,1009.5 C 431.037,1013.3 427.704,1015.97 423.5,1017.5C 425.926,1015.33 428.259,1013 430.5,1010.5C 431.391,1009.89 432.391,1009.56 433.5,1009.5 Z"/></g>
<g><path style="opacity:1" fill="#898989" d="M 449.5,1011.5 C 445.793,1016.21 441.46,1020.21 436.5,1023.5C 440.18,1018.82 444.514,1014.82 449.5,1011.5 Z"/></g>
<g><path style="opacity:1" fill="#656565" d="M 414.5,1025.5 C 410.787,1030.22 406.453,1034.22 401.5,1037.5C 404.114,1033.88 407.114,1030.55 410.5,1027.5C 411.622,1026.37 412.956,1025.7 414.5,1025.5 Z"/></g>
<g><path style="opacity:1" fill="#787878" d="M 436.5,1023.5 C 431.582,1028.63 426.249,1033.29 420.5,1037.5C 425.003,1031.91 430.336,1027.24 436.5,1023.5 Z"/></g>
<g><path style="opacity:1" fill="#727272" d="M 418.5,1039.5 C 414.14,1044.53 409.473,1049.19 404.5,1053.5C 403.391,1053.56 402.391,1053.89 401.5,1054.5C 406.522,1048.81 412.189,1043.81 418.5,1039.5 Z"/></g>
<g><path style="opacity:1" fill="#858585" d="M 395.5,1042.5 C 393.12,1045.88 390.12,1048.55 386.5,1050.5C 388.854,1047.15 391.854,1044.48 395.5,1042.5 Z"/></g>
<g><path style="opacity:1" fill="#b9b9b9" d="M 404.5,1053.5 C 402.36,1056.98 399.36,1059.31 395.5,1060.5C 396.976,1057.96 398.976,1055.96 401.5,1054.5C 402.391,1053.89 403.391,1053.56 404.5,1053.5 Z"/></g>
<g><path style="opacity:1" fill="#808080" d="M 395.5,1060.5 C 394.415,1062.59 392.749,1063.92 390.5,1064.5C 391.585,1062.41 393.251,1061.08 395.5,1060.5 Z"/></g>
<g><path style="opacity:1" fill="#7f7f7f" d="M 379.5,1056.5 C 374.796,1062.21 369.463,1067.21 363.5,1071.5C 368.204,1065.79 373.537,1060.79 379.5,1056.5 Z"/></g>
<g><path style="opacity:1" fill="#7a7a7a" d="M 390.5,1064.5 C 387.789,1068.21 384.456,1071.21 380.5,1073.5C 383.185,1069.82 386.518,1066.82 390.5,1064.5 Z"/></g>
<g><path style="opacity:1" fill="#a1a1a1" d="M 374.5,1079.5 C 371.113,1084.55 366.78,1088.55 361.5,1091.5C 364.88,1086.45 369.214,1082.45 374.5,1079.5 Z"/></g>
<g><path style="opacity:1" fill="#969696" d="M 351.5,1082.5 C 346.463,1088.54 340.797,1093.87 334.5,1098.5C 339.537,1092.46 345.203,1087.13 351.5,1082.5 Z"/></g>
<g><path style="opacity:1" fill="#7b7b7b" d="M 361.5,1091.5 C 358.789,1095.21 355.456,1098.21 351.5,1100.5C 354.185,1096.82 357.518,1093.82 361.5,1091.5 Z"/></g>
<g><path style="opacity:1" fill="#7a7a7a" d="M 320.5,1112.5 C 313.779,1119.89 306.779,1126.89 299.5,1133.5C 300.072,1131.74 300.906,1130.08 302,1128.5C 308.058,1122.93 314.225,1117.6 320.5,1112.5 Z"/></g>
<g><path style="opacity:1" fill="#868686" d="M 341.5,1110.5 C 335.082,1117.48 328.415,1124.14 321.5,1130.5C 320.833,1130.83 320.167,1131.17 319.5,1131.5C 319.859,1129.63 320.859,1128.13 322.5,1127C 328.482,1121.02 334.815,1115.52 341.5,1110.5 Z"/></g>
<g><path style="opacity:1" fill="#6f6f6f" d="M 298.5,1134.5 C 292.86,1140.81 286.86,1146.81 280.5,1152.5C 284.415,1147.24 288.748,1142.24 293.5,1137.5C 294.94,1136.05 296.606,1135.05 298.5,1134.5 Z"/></g>
<g><path style="opacity:1" fill="#bfbfbf" d="M 321.5,1130.5 C 319.067,1133.77 316.401,1136.94 313.5,1140C 312.099,1140.41 310.766,1140.91 309.5,1141.5C 312.167,1137.5 315.5,1134.17 319.5,1131.5C 320.167,1131.17 320.833,1130.83 321.5,1130.5 Z"/></g>
<g><path style="opacity:1" fill="#7f7f7f" d="M 309.5,1141.5 C 307.1,1144.9 304.1,1147.57 300.5,1149.5C 302.9,1146.1 305.9,1143.43 309.5,1141.5 Z"/></g>
<g><path style="opacity:1" fill="#9c9c9c" d="M 300.5,1149.5 C 298.617,1154.39 295.284,1158.05 290.5,1160.5C 293.101,1156.23 296.434,1152.56 300.5,1149.5 Z"/></g>
<g><path style="opacity:1" fill="#9d9d9d" d="M 286.5,1164.5 C 286.5,1165.5 286.5,1166.5 286.5,1167.5C 285.041,1167.43 283.708,1167.77 282.5,1168.5C 283.167,1166.5 284.5,1165.17 286.5,1164.5 Z"/></g>
<g><path style="opacity:1" fill="#707070" d="M 266.5,1166.5 C 265.167,1169.83 262.833,1172.17 259.5,1173.5C 261.112,1171.7 262.612,1169.7 264,1167.5C 264.671,1166.75 265.504,1166.41 266.5,1166.5 Z"/></g>
<g><path style="opacity:1" fill="#939393" d="M 282.5,1168.5 C 281.766,1169.71 281.433,1171.04 281.5,1172.5C 280.5,1172.5 279.5,1172.5 278.5,1172.5C 279.167,1170.5 280.5,1169.17 282.5,1168.5 Z"/></g>
<g><path style="opacity:1" fill="#949494" d="M 249.5,1183.5 C 248.219,1186.45 246.219,1188.78 243.5,1190.5C 244.81,1187.53 246.81,1185.19 249.5,1183.5 Z"/></g>
<g><path style="opacity:1" fill="#7a7a7a" d="M 278.5,1172.5 C 271.535,1181.13 263.868,1189.13 255.5,1196.5C 262.493,1187.84 270.16,1179.84 278.5,1172.5 Z"/></g>
<g><path style="opacity:1" fill="#7d7d7d" d="M 243.5,1190.5 C 241.883,1193.78 239.55,1196.45 236.5,1198.5C 238.146,1195.19 240.48,1192.52 243.5,1190.5 Z"/></g>
<g><path style="opacity:1" fill="#b6b6b6" d="M 255.5,1196.5 C 254.316,1198.77 253.316,1201.1 252.5,1203.5C 251.167,1203.5 249.833,1203.5 248.5,1203.5C 250.188,1200.48 252.521,1198.15 255.5,1196.5 Z"/></g>
<g><path style="opacity:1" fill="#989898" d="M 236.5,1198.5 C 234.547,1202.12 231.881,1205.12 228.5,1207.5C 230.482,1203.85 233.149,1200.85 236.5,1198.5 Z"/></g>
<g><path style="opacity:1" fill="#696969" d="M 246.5,1205.5 C 245.243,1208.43 243.243,1210.76 240.5,1212.5C 241.757,1209.57 243.757,1207.24 246.5,1205.5 Z"/></g>
<g><path style="opacity:1" fill="#777777" d="M 228.5,1208.5 C 226.215,1212.13 223.882,1215.8 221.5,1219.5C 220.844,1221.45 220.511,1223.45 220.5,1225.5C 219.37,1223.33 219.37,1221 220.5,1218.5C 222.353,1214.37 225.02,1211.04 228.5,1208.5 Z"/></g>
<g><path style="opacity:1" fill="#868686" d="M 240.5,1212.5 C 236.851,1219.48 231.518,1224.82 224.5,1228.5C 223.274,1228.48 222.274,1228.15 221.5,1227.5C 224.016,1227.24 226.35,1226.41 228.5,1225C 232.401,1220.66 236.401,1216.5 240.5,1212.5 Z"/></g>
</svg>
