<?xml version="1.0" encoding="UTF-8"?>
<!DOCTYPE svg PUBLIC "-//W3C//DTD SVG 1.1//EN" "http://www.w3.org/Graphics/SVG/1.1/DTD/svg11.dtd">
<svg xmlns="http://www.w3.org/2000/svg" version="1.1" width="2000px" height="1500px" style="shape-rendering:geometricPrecision; text-rendering:geometricPrecision; image-rendering:optimizeQuality; fill-rule:evenodd; clip-rule:evenodd" xmlns:xlink="http://www.w3.org/1999/xlink">
<g><path style="opacity:1" fill="#fefefe" d="M -0.5,-0.5 C 666.167,-0.5 1332.83,-0.5 1999.5,-0.5C 1999.5,499.5 1999.5,999.5 1999.5,1499.5C 1332.83,1499.5 666.167,1499.5 -0.5,1499.5C -0.5,999.5 -0.5,499.5 -0.5,-0.5 Z"/></g>
<g><path style="opacity:1" fill="#040404" d="M 487.5,562.5 C 494.167,562.5 500.833,562.5 507.5,562.5C 502.007,588.803 496.674,615.137 491.5,641.5C 486.167,641.5 480.833,641.5 475.5,641.5C 476.187,635.401 474.854,634.901 471.5,640C 456.956,645.788 448.456,640.955 446,625.5C 444.288,608.95 449.788,595.45 462.5,585C 467.047,583.455 471.713,583.121 476.5,584C 479.333,585.5 481.5,587.667 483,590.5C 484.697,581.186 486.197,571.852 487.5,562.5 Z"/></g>
<g><path style="opacity:1" fill="#7e7e7e" d="M 528.5,584.5 C 522.167,584.5 515.833,584.5 509.5,584.5C 509.5,585.833 509.5,587.167 509.5,588.5C 508.549,587.081 508.216,585.415 508.5,583.5C 515.354,583.176 522.021,583.509 528.5,584.5 Z"/></g>
<g><path style="opacity:1" fill="#040404" d="M 528.5,584.5 C 529.511,596.147 530.345,607.814 531,619.5C 535.147,607.707 539.98,596.207 545.5,585C 552.5,584.333 559.5,584.333 566.5,585C 554.618,606.596 543.118,628.43 532,650.5C 524.604,663.532 513.438,668.699 498.5,666C 497.529,660.928 497.195,655.762 497.5,650.5C 511.177,651.989 517.343,645.989 516,632.5C 513.97,617.791 511.804,603.124 509.5,588.5C 509.5,587.167 509.5,585.833 509.5,584.5C 515.833,584.5 522.167,584.5 528.5,584.5 Z"/></g>
<g><path style="opacity:1" fill="#f1f1f1" d="M 474.5,598.5 C 477.292,598.452 479.125,599.785 480,602.5C 481.274,611.581 478.774,619.414 472.5,626C 470.833,626.667 469.167,626.667 467.5,626C 463.976,615.262 466.309,606.095 474.5,598.5 Z"/></g>
<g><path style="opacity:1" fill="#010101" d="M 1192.5,680.5 C 1198.83,680.5 1205.17,680.5 1211.5,680.5C 1211.5,705.167 1211.5,729.833 1211.5,754.5C 1204.83,754.5 1198.17,754.5 1191.5,754.5C 1191.67,737.497 1191.5,720.497 1191,703.5C 1186.98,707.023 1182.81,710.357 1178.5,713.5C 1175.05,709.425 1171.71,705.258 1168.5,701C 1176.69,694.302 1184.69,687.469 1192.5,680.5 Z"/></g>
<g><path style="opacity:1" fill="#010101" d="M 1942.5,754.5 C 1942.67,737.163 1942.5,719.83 1942,702.5C 1941.28,703.044 1940.78,703.711 1940.5,704.5C 1937.14,707.855 1933.48,710.855 1929.5,713.5C 1926.18,710.006 1923.01,706.339 1920,702.5C 1919.33,701.833 1919.33,701.167 1920,700.5C 1927.83,694 1935.67,687.5 1943.5,681C 1949.82,680.5 1956.16,680.334 1962.5,680.5C 1962.5,705.167 1962.5,729.833 1962.5,754.5C 1955.83,754.5 1949.17,754.5 1942.5,754.5 Z"/></g>
<g><path style="opacity:1" fill="#bbbbbb" d="M 419.5,692.5 C 477.664,691.501 535.998,691.168 594.5,691.5C 594.737,692.791 594.404,693.791 593.5,694.5C 535.843,692.504 477.843,691.837 419.5,692.5 Z"/></g>
<g><path style="opacity:1" fill="#000000" d="M 419.5,692.5 C 477.843,691.837 535.843,692.504 593.5,694.5C 592.518,697.763 591.851,701.097 591.5,704.5C 533.331,704.832 475.331,704.499 417.5,703.5C 418.326,699.864 418.992,696.197 419.5,692.5 Z"/></g>
<g><path style="opacity:1" fill="#030303" d="M 1068.5,754.5 C 1068.5,735.5 1068.5,716.5 1068.5,697.5C 1073.5,697.5 1078.5,697.5 1083.5,697.5C 1084.12,699.68 1085.12,701.68 1086.5,703.5C 1094.62,696.355 1103.95,694.521 1114.5,698C 1119.55,700.72 1122.72,704.887 1124,710.5C 1124.5,725.163 1124.67,739.83 1124.5,754.5C 1117.83,754.5 1111.17,754.5 1104.5,754.5C 1104.67,741.829 1104.5,729.162 1104,716.5C 1101.45,711.374 1097.61,710.207 1092.5,713C 1090.96,714.579 1089.79,716.413 1089,718.5C 1088.5,730.495 1088.33,742.495 1088.5,754.5C 1081.83,754.5 1075.17,754.5 1068.5,754.5 Z"/></g>
<g><path style="opacity:1" fill="#010101" d="M 1819.5,754.5 C 1819.5,735.5 1819.5,716.5 1819.5,697.5C 1824.17,697.5 1828.83,697.5 1833.5,697.5C 1834.65,699.603 1835.98,701.603 1837.5,703.5C 1844.13,696.801 1852.13,694.635 1861.5,697C 1867.87,698.436 1872.04,702.269 1874,708.5C 1874.5,723.83 1874.67,739.163 1874.5,754.5C 1868.17,754.5 1861.83,754.5 1855.5,754.5C 1855.67,742.162 1855.5,729.829 1855,717.5C 1851.27,710.435 1846.61,709.768 1841,715.5C 1840.14,717.087 1839.47,718.754 1839,720.5C 1838.5,731.828 1838.33,743.162 1838.5,754.5C 1832.17,754.5 1825.83,754.5 1819.5,754.5 Z"/></g>
<g><path style="opacity:1" fill="#cacaca" d="M 1083.5,697.5 C 1078.5,697.5 1073.5,697.5 1068.5,697.5C 1068.5,716.5 1068.5,735.5 1068.5,754.5C 1067.5,735.341 1067.17,716.007 1067.5,696.5C 1073.03,696.179 1078.36,696.512 1083.5,697.5 Z"/></g>
<g><path style="opacity:1" fill="#646464" d="M 1833.5,697.5 C 1828.83,697.5 1824.17,697.5 1819.5,697.5C 1819.5,716.5 1819.5,735.5 1819.5,754.5C 1818.5,735.341 1818.17,716.007 1818.5,696.5C 1823.69,696.179 1828.69,696.513 1833.5,697.5 Z"/></g>
<g><path style="opacity:1" fill="#bcbcbc" d="M 417.5,703.5 C 475.331,704.499 533.331,704.832 591.5,704.5C 533.332,705.831 474.999,705.831 416.5,704.5C 416.624,703.893 416.957,703.56 417.5,703.5 Z"/></g>
<g><path style="opacity:1" fill="#bcbcbc" d="M 1942.5,754.5 C 1941.83,737.833 1941.17,721.167 1940.5,704.5C 1940.78,703.711 1941.28,703.044 1942,702.5C 1942.5,719.83 1942.67,737.163 1942.5,754.5 Z"/></g>
<g><path style="opacity:1" fill="#050505" d="M 1133.5,718.5 C 1142.83,718.5 1152.17,718.5 1161.5,718.5C 1161.5,723.833 1161.5,729.167 1161.5,734.5C 1152.17,734.5 1142.83,734.5 1133.5,734.5C 1133.5,729.167 1133.5,723.833 1133.5,718.5 Z"/></g>
<g><path style="opacity:1" fill="#0a0a0a" d="M 1883.5,718.5 C 1893.17,718.5 1902.83,718.5 1912.5,718.5C 1912.5,723.833 1912.5,729.167 1912.5,734.5C 1902.83,734.5 1893.17,734.5 1883.5,734.5C 1883.5,729.167 1883.5,723.833 1883.5,718.5 Z"/></g>
<g><path style="opacity:1" fill="#040404" d="M 486.5,724.5 C 493.167,724.5 499.833,724.5 506.5,724.5C 501.007,750.803 495.674,777.137 490.5,803.5C 485.167,803.5 479.833,803.5 474.5,803.5C 475.187,797.401 473.854,796.901 470.5,802C 455.956,807.788 447.456,802.955 445,787.5C 443.288,770.95 448.788,757.45 461.5,747C 466.047,745.455 470.713,745.121 475.5,746C 478.333,747.5 480.5,749.667 482,752.5C 483.697,743.186 485.197,733.852 486.5,724.5 Z"/></g>
<g><path style="opacity:1" fill="#7e7e7e" d="M 532.5,746.5 C 525.313,746.175 518.313,746.509 511.5,747.5C 510.957,747.44 510.624,747.107 510.5,746.5C 517.99,745.181 525.323,745.181 532.5,746.5 Z"/></g>
<g><path style="opacity:1" fill="#7b7b7b" d="M 545.5,746.5 C 553.01,745.18 560.677,745.18 568.5,746.5C 568.376,747.107 568.043,747.44 567.5,747.5C 560.352,746.508 553.019,746.175 545.5,746.5 Z"/></g>
<g><path style="opacity:1" fill="#030303" d="M 532.5,746.5 C 533.191,751.598 534.358,756.598 536,761.5C 539.191,756.436 542.358,751.436 545.5,746.5C 553.019,746.175 560.352,746.508 567.5,747.5C 559.603,756.564 552.269,766.064 545.5,776C 549.069,784.874 552.736,793.707 556.5,802.5C 549.197,803.497 541.863,803.831 534.5,803.5C 534.105,797.921 532.772,792.588 530.5,787.5C 526.97,792.532 523.636,797.699 520.5,803C 512.833,803.667 505.167,803.667 497.5,803C 505.62,793.258 513.62,783.425 521.5,773.5C 517.962,764.883 514.629,756.216 511.5,747.5C 518.313,746.509 525.313,746.175 532.5,746.5 Z"/></g>
<g><path style="opacity:1" fill="#040404" d="M 881.5,747.5 C 934.833,747.5 988.167,747.5 1041.5,747.5C 1041.5,755.5 1041.5,763.5 1041.5,771.5C 994.165,771.333 946.832,771.5 899.5,772C 882.131,820.274 865.464,868.774 849.5,917.5C 842.167,917.5 834.833,917.5 827.5,917.5C 819.697,894.758 811.697,872.091 803.5,849.5C 797.833,849.5 792.167,849.5 786.5,849.5C 786.5,841.167 786.5,832.833 786.5,824.5C 797.505,824.333 808.505,824.5 819.5,825C 825.635,840.772 831.635,856.605 837.5,872.5C 852.565,830.97 867.232,789.304 881.5,747.5 Z"/></g>
<g><path style="opacity:1" fill="#010101" d="M 239.5,816.5 C 239.5,797.5 239.5,778.5 239.5,759.5C 244.167,759.5 248.833,759.5 253.5,759.5C 254.65,761.603 255.983,763.603 257.5,765.5C 264.132,758.801 272.132,756.635 281.5,759C 287.87,760.436 292.037,764.269 294,770.5C 294.5,785.83 294.667,801.163 294.5,816.5C 288.167,816.5 281.833,816.5 275.5,816.5C 275.667,804.162 275.5,791.829 275,779.5C 271.274,772.435 266.608,771.768 261,777.5C 260.138,779.087 259.471,780.754 259,782.5C 258.5,793.828 258.333,805.162 258.5,816.5C 252.167,816.5 245.833,816.5 239.5,816.5 Z"/></g>
<g><path style="opacity:1" fill="#646464" d="M 253.5,759.5 C 248.833,759.5 244.167,759.5 239.5,759.5C 239.5,778.5 239.5,797.5 239.5,816.5C 238.503,797.341 238.17,778.007 238.5,758.5C 243.695,758.179 248.695,758.513 253.5,759.5 Z"/></g>
<g><path style="opacity:1" fill="#f1f1f1" d="M 473.5,760.5 C 476.292,760.452 478.125,761.785 479,764.5C 480.274,773.581 477.774,781.414 471.5,788C 469.833,788.667 468.167,788.667 466.5,788C 462.976,777.262 465.309,768.095 473.5,760.5 Z"/></g>
<g><path style="opacity:1" fill="#1f76e9" d="M 1499.5,784.5 C 1504.13,784.573 1508.46,785.74 1512.5,788C 1530.83,801.667 1549.17,815.333 1567.5,829C 1572.26,833.491 1573.76,838.991 1572,845.5C 1571.12,848.102 1569.62,850.269 1567.5,852C 1549.88,864.615 1532.55,877.615 1515.5,891C 1510.5,894.999 1504.83,896.666 1498.5,896C 1490.39,891.936 1487.56,885.436 1490,876.5C 1491.14,874.391 1492.64,872.558 1494.5,871C 1501.83,865.667 1509.17,860.333 1516.5,855C 1395.17,854.667 1273.83,854.333 1152.5,854C 1144.88,850.167 1142.04,844.001 1144,835.5C 1146.19,831.973 1149.03,829.139 1152.5,827C 1273.83,826.667 1395.17,826.333 1516.5,826C 1509.17,820.667 1501.83,815.333 1494.5,810C 1488.29,803.071 1487.96,795.904 1493.5,788.5C 1495.29,786.684 1497.29,785.351 1499.5,784.5 Z"/></g>
<g><path style="opacity:1" fill="#020202" d="M 1664.5,791.5 C 1680.36,788.978 1693.86,793.311 1705,804.5C 1708.5,809.66 1710.83,815.326 1712,821.5C 1712.5,848.498 1712.67,875.498 1712.5,902.5C 1699.83,902.5 1687.17,902.5 1674.5,902.5C 1674.67,878.831 1674.5,855.164 1674,831.5C 1670.72,822.111 1664.22,818.944 1654.5,822C 1648.02,826.789 1644.52,833.289 1644,841.5C 1643.5,861.831 1643.33,882.164 1643.5,902.5C 1631.17,902.5 1618.83,902.5 1606.5,902.5C 1606.5,866.167 1606.5,829.833 1606.5,793.5C 1615.84,793.334 1625.17,793.5 1634.5,794C 1636.33,798.004 1637.67,802.17 1638.5,806.5C 1642.78,804.752 1646.45,801.919 1649.5,798C 1654.37,795.226 1659.37,793.059 1664.5,791.5 Z"/></g>
<g><path style="opacity:1" fill="#010101" d="M 1728.5,794.5 C 1742.67,793.174 1757.01,793.174 1771.5,794.5C 1776.58,804.327 1781.91,813.994 1787.5,823.5C 1793.04,813.585 1798.71,803.752 1804.5,794C 1818.51,793.167 1832.51,793.334 1846.5,794.5C 1835.29,811.877 1824.29,829.377 1813.5,847C 1824.66,865.655 1836.33,883.989 1848.5,902C 1834.16,902.833 1819.82,902.666 1805.5,901.5C 1799.75,891.003 1793.75,880.67 1787.5,870.5C 1781.26,880.634 1775.26,890.967 1769.5,901.5C 1755.18,902.666 1740.84,902.833 1726.5,902C 1738.29,883.584 1749.96,865.084 1761.5,846.5C 1750.48,829.102 1739.48,811.769 1728.5,794.5 Z"/></g>
<g><path style="opacity:1" fill="#1f76e9" d="M 675.5,798.5 C 680.548,798.127 685.215,799.294 689.5,802C 708.167,816 726.833,830 745.5,844C 750.833,851 750.833,858 745.5,865C 726.833,879 708.167,893 689.5,907C 674.23,914.05 666.397,909.217 666,892.5C 667.4,889.098 669.567,886.264 672.5,884C 679.5,879 686.5,874 693.5,869C 572.167,868.667 450.833,868.333 329.5,868C 319.56,862.646 317.393,855.146 323,845.5C 324.731,843.383 326.898,841.883 329.5,841C 450.5,840.667 571.5,840.333 692.5,840C 686.116,834.615 679.45,829.615 672.5,825C 662.409,814.816 663.409,805.982 675.5,798.5 Z"/></g>
<g><path style="opacity:1" fill="#010101" d="M 95.5,808.5 C 109.672,807.174 124.006,807.174 138.5,808.5C 143.843,818.172 149.176,827.839 154.5,837.5C 160.04,827.585 165.707,817.752 171.5,808C 185.512,807.167 199.512,807.334 213.5,808.5C 202.369,825.932 191.369,843.432 180.5,861C 192.151,879.323 203.818,897.656 215.5,916C 201.155,916.833 186.822,916.666 172.5,915.5C 166.413,904.994 160.579,894.327 155,883.5C 148.454,894.089 142.287,904.923 136.5,916C 122.167,916.667 107.833,916.667 93.5,916C 105.364,897.633 117.031,879.133 128.5,860.5C 117.475,843.102 106.475,825.769 95.5,808.5 Z"/></g>
<g><path style="opacity:1" fill="#010101" d="M 906.5,807.5 C 920.504,807.333 934.504,807.5 948.5,808C 954.38,817.591 959.88,827.424 965,837.5C 970.7,827.962 976.2,818.295 981.5,808.5C 995.822,807.334 1010.16,807.167 1024.5,808C 1013.17,825.667 1001.83,843.333 990.5,861C 1002.54,878.912 1014.21,897.079 1025.5,915.5C 1011.51,916.666 997.512,916.833 983.5,916C 977.333,905.167 971.167,894.333 965,883.5C 958.913,894.006 953.079,904.673 947.5,915.5C 933.167,916.833 918.833,916.833 904.5,915.5C 916.6,897.631 927.934,879.298 938.5,860.5C 927.816,842.822 917.149,825.156 906.5,807.5 Z"/></g>
</svg>
