<?xml version="1.0" encoding="UTF-8"?>
<!DOCTYPE svg PUBLIC "-//W3C//DTD SVG 1.1//EN" "http://www.w3.org/Graphics/SVG/1.1/DTD/svg11.dtd">
<svg xmlns="http://www.w3.org/2000/svg" version="1.1" width="2000px" height="1500px" style="shape-rendering:geometricPrecision; text-rendering:geometricPrecision; image-rendering:optimizeQuality; fill-rule:evenodd; clip-rule:evenodd" xmlns:xlink="http://www.w3.org/1999/xlink">
<g><path style="opacity:1" fill="#fefefe" d="M -0.5,-0.5 C 666.167,-0.5 1332.83,-0.5 1999.5,-0.5C 1999.5,499.5 1999.5,999.5 1999.5,1499.5C 1332.83,1499.5 666.167,1499.5 -0.5,1499.5C -0.5,999.5 -0.5,499.5 -0.5,-0.5 Z"/></g>
<g><path style="opacity:1" fill="#050505" d="M 969.5,103.5 C 969.217,102.711 968.717,102.044 968,101.5C 967.5,338.5 967.333,575.5 967.5,812.5C 974.385,814.747 981.385,816.747 988.5,818.5C 988.842,819.338 989.508,819.672 990.5,819.5C 991.635,821.213 993.302,821.88 995.5,821.5C 996.167,821.5 996.5,821.833 996.5,822.5C 1001.41,823.798 1006.41,825.131 1011.5,826.5C 1012.92,827.451 1014.59,827.784 1016.5,827.5C 1020.16,829.342 1024.16,830.342 1028.5,830.5C 1031.95,832.105 1035.62,833.105 1039.5,833.5C 1043.21,835.136 1047.21,835.802 1051.5,835.5C 1055.1,836.344 1058.77,836.677 1062.5,836.5C 1062.61,837.117 1062.94,837.617 1063.5,838C 1067.15,838.499 1070.82,838.665 1074.5,838.5C 1075.26,839.268 1076.26,839.768 1077.5,840C 1086.5,840.167 1095.5,840.333 1104.5,840.5C 1113.86,840.498 1122.86,839.832 1131.5,838.5C 1134.17,838.5 1136.83,838.5 1139.5,838.5C 1144.62,838.416 1149.28,837.416 1153.5,835.5C 1157.37,834.239 1161.37,833.572 1165.5,833.5C 1173.45,833.349 1180.78,831.349 1187.5,827.5C 1188.83,827.167 1190.17,826.833 1191.5,826.5C 1194.15,826.59 1196.49,825.924 1198.5,824.5C 1200.97,824.245 1202.97,823.245 1204.5,821.5C 1205.5,821.5 1206.5,821.5 1207.5,821.5C 1209.97,821.245 1211.97,820.245 1213.5,818.5C 1218.84,816.499 1224.17,814.499 1229.5,812.5C 1233.66,812.309 1237,810.643 1239.5,807.5C 1250.4,801.38 1261.4,795.213 1272.5,789C 1277.38,785.733 1282.05,782.233 1286.5,778.5C 1287.92,778.291 1289.26,777.791 1290.5,777C 1293.04,774.295 1295.7,771.795 1298.5,769.5C 1301.11,768.557 1303.11,766.89 1304.5,764.5C 1310.77,760.196 1316.44,755.196 1321.5,749.5C 1325.83,747.833 1328.83,744.833 1330.5,740.5C 1335.21,736.793 1339.21,732.46 1342.5,727.5C 1345.88,725.12 1348.55,722.12 1350.5,718.5C 1354.29,715.449 1357.29,711.782 1359.5,707.5C 1361.89,706.109 1363.56,704.109 1364.5,701.5C 1369.23,697.102 1373.23,692.102 1376.5,686.5C 1377.75,684.999 1378.75,683.332 1379.5,681.5C 1387.32,675.03 1392.99,667.03 1396.5,657.5C 1402.12,649.234 1407.45,640.9 1412.5,632.5C 1415.97,628.969 1418.3,624.636 1419.5,619.5C 1419.73,617.938 1420.4,616.605 1421.5,615.5C 1423.78,613.669 1425.61,611.336 1427,608.5C 1432.3,597.228 1437.63,585.895 1443,574.5C 1443.49,573.207 1443.66,571.873 1443.5,570.5C 1444.48,567.933 1445.14,565.267 1445.5,562.5C 1446.4,561.71 1447.07,560.71 1447.5,559.5C 1449.87,555.414 1451.87,551.081 1453.5,546.5C 1455.21,545.365 1455.88,543.698 1455.5,541.5C 1455.56,540.391 1455.89,539.391 1456.5,538.5C 1459.45,533.653 1461.45,528.319 1462.5,522.5C 1464.47,520.572 1465.97,518.239 1467,515.5C 1468.22,510.429 1469.39,505.429 1470.5,500.5C 1471.8,496.904 1472.8,493.237 1473.5,489.5C 1476.46,484.635 1478.46,479.301 1479.5,473.5C 1479.5,472.167 1479.5,470.833 1479.5,469.5C 1480.87,467.064 1481.87,464.397 1482.5,461.5C 1484.31,458.855 1485.31,455.855 1485.5,452.5C 1485.5,452.167 1485.5,451.833 1485.5,451.5C 1489.69,446.006 1491.69,439.673 1491.5,432.5C 1491.5,431.167 1491.5,429.833 1491.5,428.5C 1493.98,423.854 1495.64,418.854 1496.5,413.5C 1496.5,412.833 1496.5,412.167 1496.5,411.5C 1497.56,410.4 1498.39,409.066 1499,407.5C 1500.95,398.913 1502.45,390.246 1503.5,381.5C 1504.78,377.015 1505.78,372.349 1506.5,367.5C 1506.5,367.167 1506.5,366.833 1506.5,366.5C 1507.34,366.158 1507.67,365.492 1507.5,364.5C 1509.24,360.458 1510.24,356.124 1510.5,351.5C 1510.5,350.167 1510.5,348.833 1510.5,347.5C 1512.76,342.527 1513.76,337.194 1513.5,331.5C 1513.5,330.833 1513.5,330.167 1513.5,329.5C 1515.02,326.762 1516.02,323.762 1516.5,320.5C 1519.13,307.431 1521.13,294.097 1522.5,280.5C 1522.5,277.833 1522.5,275.167 1522.5,272.5C 1525.02,267.939 1526.02,262.939 1525.5,257.5C 1525.5,253.833 1525.5,250.167 1525.5,246.5C 1525.83,245.833 1526.17,245.167 1526.5,244.5C 1531.54,218.519 1534.87,192.185 1536.5,165.5C 1536.83,164.167 1537.17,162.833 1537.5,161.5C 1538.5,154.003 1539.34,146.336 1540,138.5C 1541.27,135.534 1542.43,132.534 1543.5,129.5C 1545.07,127.585 1547.07,126.585 1549.5,126.5C 1551.87,132.746 1552.87,139.246 1552.5,146C 1551.97,154.494 1551.63,162.994 1551.5,171.5C 1550.88,171.611 1550.38,171.944 1550,172.5C 1549.39,180.831 1548.89,189.164 1548.5,197.5C 1546.58,201.029 1545.91,205.029 1546.5,209.5C 1545.78,209.918 1545.28,210.584 1545,211.5C 1543.59,221.842 1542.43,232.175 1541.5,242.5C 1541.5,243.167 1541.5,243.833 1541.5,244.5C 1539.08,251.473 1538.08,258.806 1538.5,266.5C 1538.06,270.154 1537.72,273.821 1537.5,277.5C 1536.88,277.611 1536.38,277.944 1536,278.5C 1535.33,285.862 1534.5,293.195 1533.5,300.5C 1530.52,314.732 1528.19,329.065 1526.5,343.5C 1526.5,344.833 1526.5,346.167 1526.5,347.5C 1523.96,351.355 1522.96,355.688 1523.5,360.5C 1521.66,367.372 1520.33,374.372 1519.5,381.5C 1518.88,381.611 1518.38,381.944 1518,382.5C 1517.5,385.146 1517.34,387.813 1517.5,390.5C 1515.04,394.738 1514.04,399.404 1514.5,404.5C 1513.7,406.042 1513.37,407.708 1513.5,409.5C 1512.88,409.611 1512.38,409.944 1512,410.5C 1511.45,414.17 1510.95,417.837 1510.5,421.5C 1507.49,426.208 1505.82,431.541 1505.5,437.5C 1505.5,437.833 1505.5,438.167 1505.5,438.5C 1504.35,438.791 1503.68,439.624 1503.5,441C 1502.92,443.137 1502.59,445.304 1502.5,447.5C 1500.93,449.102 1500.26,451.102 1500.5,453.5C 1500.5,453.833 1500.5,454.167 1500.5,454.5C 1496.12,468.052 1491.96,481.718 1488,495.5C 1484.36,500.157 1482.53,505.491 1482.5,511.5C 1482.5,511.833 1482.5,512.167 1482.5,512.5C 1481.77,513.808 1480.93,515.142 1480,516.5C 1478.92,521.225 1477.76,525.891 1476.5,530.5C 1472.52,537.273 1469.52,544.606 1467.5,552.5C 1467.5,553.167 1467.5,553.833 1467.5,554.5C 1463.82,562.653 1459.66,570.653 1455,578.5C 1454.34,580.813 1453.84,583.146 1453.5,585.5C 1451.59,586.486 1450.59,588.152 1450.5,590.5C 1450.5,590.833 1450.5,591.167 1450.5,591.5C 1446.89,596.296 1444.23,601.629 1442.5,607.5C 1440.75,609.033 1439.75,611.033 1439.5,613.5C 1438.89,614.391 1438.56,615.391 1438.5,616.5C 1437.54,616.953 1436.71,617.619 1436,618.5C 1430.97,629.119 1425.47,639.452 1419.5,649.5C 1414.21,655.753 1410.21,662.753 1407.5,670.5C 1406.83,670.833 1406.17,671.167 1405.5,671.5C 1403.12,674.223 1401.12,677.223 1399.5,680.5C 1396.72,682.951 1394.72,685.951 1393.5,689.5C 1391.81,690.475 1390.31,691.808 1389,693.5C 1384.57,699.384 1380.4,705.384 1376.5,711.5C 1374.74,712.262 1373.74,713.596 1373.5,715.5C 1368.44,719.233 1364.44,723.899 1361.5,729.5C 1343.39,748.946 1324.39,767.279 1304.5,784.5C 1299.93,786.738 1295.93,789.738 1292.5,793.5C 1287.07,796.413 1281.74,799.58 1276.5,803C 1275.69,804.113 1275.03,805.279 1274.5,806.5C 1273.17,806.833 1271.83,807.167 1270.5,807.5C 1263.75,811.179 1257.09,814.846 1250.5,818.5C 1248.03,818.755 1246.03,819.755 1244.5,821.5C 1239.75,823.306 1235.08,825.306 1230.5,827.5C 1225.85,829.146 1221.51,831.146 1217.5,833.5C 1210.06,836.538 1202.39,839.205 1194.5,841.5C 1191.16,841.89 1187.83,842.39 1184.5,843C 1177.51,845.5 1170.51,847.667 1163.5,849.5C 1160.79,849.575 1158.13,849.908 1155.5,850.5C 1149.49,850.801 1143.49,851.301 1137.5,852C 1136.26,852.232 1135.26,852.732 1134.5,853.5C 1127.54,854.386 1120.54,854.72 1113.5,854.5C 1095.77,854.476 1078.1,853.476 1060.5,851.5C 1057.19,850.949 1053.86,850.616 1050.5,850.5C 1043.51,850.007 1036.85,848.674 1030.5,846.5C 1025.55,844.11 1020.21,842.776 1014.5,842.5C 1012.5,842.167 1010.5,841.833 1008.5,841.5C 1004.92,839.194 1000.92,837.861 996.5,837.5C 994.901,837.768 993.568,837.434 992.5,836.5C 985.472,834.484 978.472,832.15 971.5,829.5C 970.417,829.461 969.417,829.127 968.5,828.5C 967.5,898.83 967.167,969.164 967.5,1039.5C 1221.17,1039.67 1474.83,1039.5 1728.5,1039C 1724.91,1036.29 1721.41,1033.45 1718,1030.5C 1716.79,1025.58 1718.62,1022.58 1723.5,1021.5C 1733.42,1028.08 1743.09,1035.08 1752.5,1042.5C 1754.19,1045.9 1753.52,1048.74 1750.5,1051C 1742.34,1057.25 1734.01,1063.25 1725.5,1069C 1719.17,1069.67 1716.67,1066.83 1718,1060.5C 1721.36,1057.97 1724.52,1055.3 1727.5,1052.5C 1475.54,1051.5 1222.21,1051.17 967.5,1051.5C 967.5,1173.17 967.5,1294.83 967.5,1416.5C 966.157,1421.08 963.157,1422.58 958.5,1421C 957.667,1420.17 956.833,1419.33 956,1418.5C 955.5,1296.17 955.333,1173.83 955.5,1051.5C 794.999,1051.17 634.666,1051.5 474.5,1052.5C 468.508,1057.48 464.842,1063.82 463.5,1071.5C 460.283,1074.06 458.283,1077.39 457.5,1081.5C 455.755,1083.03 454.755,1085.03 454.5,1087.5C 452.755,1089.03 451.755,1091.03 451.5,1093.5C 451.5,1093.83 451.5,1094.17 451.5,1094.5C 449.907,1095.35 448.74,1096.68 448,1098.5C 445.185,1104.62 442.185,1110.62 439,1116.5C 438.51,1117.79 438.343,1119.13 438.5,1120.5C 436.058,1122.12 434.725,1124.45 434.5,1127.5C 432.755,1129.03 431.755,1131.03 431.5,1133.5C 429.755,1135.03 428.755,1137.03 428.5,1139.5C 428.5,1140.17 428.5,1140.83 428.5,1141.5C 426.031,1142.61 425.031,1144.61 425.5,1147.5C 420.675,1153.72 417.008,1160.72 414.5,1168.5C 412.755,1170.03 411.755,1172.03 411.5,1174.5C 410.026,1176.98 409.026,1179.65 408.5,1182.5C 407.326,1183.51 406.66,1184.85 406.5,1186.5C 405.542,1186.95 404.708,1187.62 404,1188.5C 401.487,1194.86 398.987,1201.19 396.5,1207.5C 394.755,1209.03 393.755,1211.03 393.5,1213.5C 393.5,1213.83 393.5,1214.17 393.5,1214.5C 389.886,1219.98 387.219,1225.98 385.5,1232.5C 384.306,1233.27 383.306,1234.27 382.5,1235.5C 378.089,1235.03 376.422,1232.53 377.5,1228C 378.918,1218.91 381.251,1210.08 384.5,1201.5C 384.415,1198.35 385.415,1195.68 387.5,1193.5C 388.906,1191.53 390.406,1189.53 392,1187.5C 392.49,1186.21 392.657,1184.87 392.5,1183.5C 392.328,1182.51 392.662,1181.84 393.5,1181.5C 396.918,1176.1 399.585,1170.43 401.5,1164.5C 401.328,1163.51 401.662,1162.84 402.5,1162.5C 407.239,1155.02 410.906,1147.02 413.5,1138.5C 413.925,1135.88 414.925,1133.55 416.5,1131.5C 419.644,1128.99 421.644,1125.65 422.5,1121.5C 422.5,1120.83 422.5,1120.17 422.5,1119.5C 425.519,1116.13 427.519,1112.13 428.5,1107.5C 428.328,1106.51 428.662,1105.84 429.5,1105.5C 432.138,1103.16 433.472,1100.16 433.5,1096.5C 435.975,1095.31 436.975,1093.31 436.5,1090.5C 438.757,1084.31 441.757,1078.65 445.5,1073.5C 447.245,1071.97 448.245,1069.97 448.5,1067.5C 451.472,1065.22 453.139,1062.22 453.5,1058.5C 453.962,1056.24 454.962,1054.24 456.5,1052.5C 376.836,1051.5 297.169,1051.17 217.5,1051.5C 212.423,1049.67 211.256,1046.33 214,1041.5C 214.75,1040.87 215.584,1040.37 216.5,1040C 298.835,1039.83 381.169,1039.33 463.5,1038.5C 468.693,1029.57 473.693,1020.57 478.5,1011.5C 481.669,1007.17 484.336,1002.5 486.5,997.5C 489.609,994.908 491.609,991.575 492.5,987.5C 494.25,986.341 495.25,984.674 495.5,982.5C 497.063,981.055 498.396,979.389 499.5,977.5C 500.376,977.631 501.043,977.298 501.5,976.5C 502.453,973.574 503.787,970.907 505.5,968.5C 506.833,965.5 508.167,962.5 509.5,959.5C 514.341,954.646 518.007,948.98 520.5,942.5C 525.745,935.676 530.745,928.676 535.5,921.5C 538.458,918.94 540.958,915.94 543,912.5C 543.352,910.753 543.852,909.086 544.5,907.5C 550.941,900.057 556.608,892.057 561.5,883.5C 562.974,882.564 563.974,881.23 564.5,879.5C 567.461,877.588 569.461,874.921 570.5,871.5C 573.636,868.571 576.303,865.238 578.5,861.5C 580.853,859.14 582.853,856.473 584.5,853.5C 587.848,850.149 590.848,846.482 593.5,842.5C 595.89,841.109 597.557,839.109 598.5,836.5C 600.262,835.738 601.262,834.404 601.5,832.5C 605.212,829.789 608.212,826.456 610.5,822.5C 614.904,819.099 618.571,815.099 621.5,810.5C 625.167,810.167 627.167,808.167 627.5,804.5C 631.167,804.167 633.167,802.167 633.5,798.5C 637.167,798.167 639.167,796.167 639.5,792.5C 648.107,785.23 656.441,777.563 664.5,769.5C 665.922,769.291 667.255,768.791 668.5,768C 672.057,765.057 675.391,761.891 678.5,758.5C 678.833,758.5 679.167,758.5 679.5,758.5C 684.826,755.159 689.826,751.492 694.5,747.5C 702.005,743.247 709.671,739.247 717.5,735.5C 719.967,735.245 721.967,734.245 723.5,732.5C 723.833,732.5 724.167,732.5 724.5,732.5C 727.397,731.871 730.064,730.871 732.5,729.5C 739.247,727.442 745.914,725.442 752.5,723.5C 753.167,723.5 753.833,723.5 754.5,723.5C 754.182,728.659 754.848,733.659 756.5,738.5C 750.94,739.904 745.273,741.071 739.5,742C 736.066,743.061 733.066,744.561 730.5,746.5C 729.833,746.5 729.167,746.5 728.5,746.5C 726.033,746.755 724.033,747.755 722.5,749.5C 720.033,749.755 718.033,750.755 716.5,752.5C 710.681,754.238 705.681,757.238 701.5,761.5C 698.91,762.128 696.577,763.295 694.5,765C 690.975,767.698 687.642,770.531 684.5,773.5C 680.251,775.088 676.918,777.755 674.5,781.5C 671.865,782.473 669.865,784.14 668.5,786.5C 667.833,786.5 667.5,786.833 667.5,787.5C 663.9,789.43 660.9,792.097 658.5,795.5C 644.103,807.562 631.103,820.895 619.5,835.5C 618.833,835.5 618.5,835.833 618.5,836.5C 611.133,844.166 603.966,852.166 597,860.5C 592.567,866.384 588.401,872.384 584.5,878.5C 580.738,881.929 577.738,885.929 575.5,890.5C 572.067,893.601 569.4,897.268 567.5,901.5C 563.738,904.929 560.738,908.929 558.5,913.5C 555.723,915.951 553.723,918.951 552.5,922.5C 549.723,924.951 547.723,927.951 546.5,931.5C 543.723,933.951 541.723,936.951 540.5,940.5C 536.062,945.617 532.395,951.284 529.5,957.5C 528.624,957.369 527.957,957.702 527.5,958.5C 525.703,960.955 524.37,963.622 523.5,966.5C 509.584,987.323 496.418,1008.66 484,1030.5C 483.51,1031.79 483.343,1033.13 483.5,1034.5C 481.738,1035.26 480.738,1036.6 480.5,1038.5C 479.957,1038.56 479.624,1038.89 479.5,1039.5C 638.333,1040.83 796.999,1040.83 955.5,1039.5C 955.5,967.5 955.5,895.5 955.5,823.5C 952.061,821.277 948.394,819.277 944.5,817.5C 944.047,816.542 943.381,815.708 942.5,815C 938.392,813.905 934.392,812.738 930.5,811.5C 923.134,807.153 915.8,802.82 908.5,798.5C 907.064,796.917 905.398,795.417 903.5,794C 902.207,793.51 900.873,793.343 899.5,793.5C 898.833,793.167 898.167,792.833 897.5,792.5C 896.71,791.206 895.71,790.039 894.5,789C 891.063,786.689 887.396,784.855 883.5,783.5C 871.054,775.66 858.72,767.993 846.5,760.5C 843.706,758.6 840.706,756.933 837.5,755.5C 831.11,752.65 824.777,749.65 818.5,746.5C 818.389,745.883 818.056,745.383 817.5,745C 810.102,742.82 802.769,740.653 795.5,738.5C 796.392,733.562 796.726,728.562 796.5,723.5C 799.145,725.242 802.145,725.909 805.5,725.5C 809.491,727.606 813.824,728.939 818.5,729.5C 820.509,731.065 822.843,732.065 825.5,732.5C 829.223,735.537 833.557,737.537 838.5,738.5C 843.348,742.239 848.681,745.239 854.5,747.5C 858.323,750.916 862.657,753.582 867.5,755.5C 868.984,757.074 870.651,758.407 872.5,759.5C 874.808,760.793 877.142,762.126 879.5,763.5C 889.528,769.876 899.528,776.21 909.5,782.5C 911.456,783.492 913.456,784.492 915.5,785.5C 921.24,789.226 927.24,792.56 933.5,795.5C 937.287,797.793 941.287,799.793 945.5,801.5C 947.033,803.245 949.033,804.245 951.5,804.5C 952.635,806.213 954.302,806.88 956.5,806.5C 956.833,571.166 956.5,335.832 955.5,100.5C 954.893,100.624 954.56,100.957 954.5,101.5C 952.215,105.21 949.548,108.71 946.5,112C 940.166,113.329 937.332,110.829 938,104.5C 944.712,95.5763 951.546,86.743 958.5,78C 960.5,77.3333 962.5,77.3333 964.5,78C 971.938,86.3817 978.771,95.215 985,104.5C 985.668,110.829 982.834,113.329 976.5,112C 973.8,109.412 971.467,106.579 969.5,103.5 Z"/></g>
<g><path style="opacity:1" fill="#151515" d="M 954.5,101.5 C 954.56,100.957 954.893,100.624 955.5,100.5C 956.5,335.832 956.833,571.166 956.5,806.5C 954.302,806.88 952.635,806.213 951.5,804.5C 952.583,804.539 953.583,804.873 954.5,805.5C 955.833,570.667 955.833,336 954.5,101.5 Z"/></g>
<g><path style="opacity:1" fill="#e7e7e7" d="M 969.5,103.5 C 968.5,338.999 968.167,574.666 968.5,810.5C 970.359,810.461 971.692,811.294 972.5,813C 978.479,813.41 983.812,815.243 988.5,818.5C 981.385,816.747 974.385,814.747 967.5,812.5C 967.333,575.5 967.5,338.5 968,101.5C 968.717,102.044 969.217,102.711 969.5,103.5 Z"/></g>
<g><path style="opacity:1" fill="#649fef" d="M 870.5,129.5 C 862.648,129.175 854.982,129.508 847.5,130.5C 846.957,130.44 846.624,130.107 846.5,129.5C 854.657,128.18 862.657,128.18 870.5,129.5 Z"/></g>
<g><path style="opacity:1" fill="#2377e9" d="M 847.5,130.5 C 854.982,129.508 862.648,129.175 870.5,129.5C 874.631,142.357 878.298,155.357 881.5,168.5C 882.167,173.833 882.833,173.833 883.5,168.5C 886.864,155.383 890.697,142.383 895,129.5C 902.413,128.519 909.913,128.186 917.5,128.5C 908.389,156.385 897.889,183.719 886,210.5C 877.561,219.866 867.061,223.366 854.5,221C 852.575,215.464 851.908,209.631 852.5,203.5C 862.433,205.709 868.766,202.042 871.5,192.5C 863.696,171.754 855.696,151.087 847.5,130.5 Z"/></g>
<g><path style="opacity:1" fill="#7a7a7a" d="M 1549.5,126.5 C 1547.07,126.585 1545.07,127.585 1543.5,129.5C 1542.43,132.534 1541.27,135.534 1540,138.5C 1539.34,146.336 1538.5,154.003 1537.5,161.5C 1536.83,150.921 1537.99,140.588 1541,130.5C 1542.36,128.895 1543.86,127.395 1545.5,126C 1547.07,125.235 1548.4,125.402 1549.5,126.5 Z"/></g>
<g><path style="opacity:1" fill="#8e8e8e" d="M 1549.5,126.5 C 1550.88,127.574 1552.05,128.907 1553,130.5C 1554.98,144.387 1554.48,158.054 1551.5,171.5C 1551.63,162.994 1551.97,154.494 1552.5,146C 1552.87,139.246 1551.87,132.746 1549.5,126.5 Z"/></g>
<g><path style="opacity:1" fill="#87b4f3" d="M 881.5,168.5 C 882.167,168.5 882.833,168.5 883.5,168.5C 882.833,173.833 882.167,173.833 881.5,168.5 Z"/></g>
<g><path style="opacity:1" fill="#949494" d="M 1551.5,171.5 C 1551.49,180.268 1550.82,188.935 1549.5,197.5C 1549.17,197.5 1548.83,197.5 1548.5,197.5C 1548.89,189.164 1549.39,180.831 1550,172.5C 1550.38,171.944 1550.88,171.611 1551.5,171.5 Z"/></g>
<g><path style="opacity:1" fill="#8d8d8d" d="M 1548.5,197.5 C 1548.22,205.727 1547.22,213.727 1545.5,221.5C 1545.5,217.466 1545.84,213.466 1546.5,209.5C 1545.91,205.029 1546.58,201.029 1548.5,197.5 Z"/></g>
<g><path style="opacity:1" fill="#7f7f7f" d="M 1536.5,165.5 C 1534.87,192.185 1531.54,218.519 1526.5,244.5C 1529.63,218.002 1532.96,191.669 1536.5,165.5 Z"/></g>
<g><path style="opacity:1" fill="#2c2c2c" d="M 1546.5,209.5 C 1545.84,213.466 1545.5,217.466 1545.5,221.5C 1544.62,228.674 1543.28,235.674 1541.5,242.5C 1542.43,232.175 1543.59,221.842 1545,211.5C 1545.28,210.584 1545.78,209.918 1546.5,209.5 Z"/></g>
<g><path style="opacity:1" fill="#d6d6d6" d="M 1548.5,197.5 C 1548.83,197.5 1549.17,197.5 1549.5,197.5C 1547.09,222.835 1544.26,248.168 1541,273.5C 1539.49,279.021 1537.99,284.355 1536.5,289.5C 1536.5,285.466 1536.84,281.466 1537.5,277.5C 1537.72,273.821 1538.06,270.154 1538.5,266.5C 1540.79,259.49 1541.79,252.156 1541.5,244.5C 1541.5,243.833 1541.5,243.167 1541.5,242.5C 1543.28,235.674 1544.62,228.674 1545.5,221.5C 1547.22,213.727 1548.22,205.727 1548.5,197.5 Z"/></g>
<g><path style="opacity:1" fill="#3b3b3b" d="M 1541.5,244.5 C 1541.79,252.156 1540.79,259.49 1538.5,266.5C 1538.08,258.806 1539.08,251.473 1541.5,244.5 Z"/></g>
<g><path style="opacity:1" fill="#c5c5c5" d="M 1525.5,246.5 C 1525.5,250.167 1525.5,253.833 1525.5,257.5C 1523.86,262.248 1522.86,267.248 1522.5,272.5C 1522.5,275.167 1522.5,277.833 1522.5,280.5C 1520.58,290.121 1518.58,299.788 1516.5,309.5C 1516.17,309.5 1515.83,309.5 1515.5,309.5C 1517.69,294.722 1519.69,279.889 1521.5,265C 1522.68,258.646 1524.01,252.48 1525.5,246.5 Z"/></g>
<g><path style="opacity:1" fill="#4f4f4f" d="M 1525.5,257.5 C 1526.02,262.939 1525.02,267.939 1522.5,272.5C 1522.86,267.248 1523.86,262.248 1525.5,257.5 Z"/></g>
<g><path style="opacity:1" fill="#333333" d="M 1522.5,280.5 C 1521.13,294.097 1519.13,307.431 1516.5,320.5C 1516.5,316.833 1516.5,313.167 1516.5,309.5C 1518.58,299.788 1520.58,290.121 1522.5,280.5 Z"/></g>
<g><path style="opacity:1" fill="#575757" d="M 1537.5,277.5 C 1536.84,281.466 1536.5,285.466 1536.5,289.5C 1535.65,293.101 1534.98,296.768 1534.5,300.5C 1534.17,300.5 1533.83,300.5 1533.5,300.5C 1534.5,293.195 1535.33,285.862 1536,278.5C 1536.38,277.944 1536.88,277.611 1537.5,277.5 Z"/></g>
<g><path style="opacity:1" fill="#6d6d6d" d="M 1515.5,309.5 C 1515.83,309.5 1516.17,309.5 1516.5,309.5C 1516.5,313.167 1516.5,316.833 1516.5,320.5C 1516.02,323.762 1515.02,326.762 1513.5,329.5C 1514.3,322.85 1514.97,316.183 1515.5,309.5 Z"/></g>
<g><path style="opacity:1" fill="#7f7f7f" d="M 1533.5,300.5 C 1533.83,300.5 1534.17,300.5 1534.5,300.5C 1532.93,313.908 1530.93,327.241 1528.5,340.5C 1527.83,341.5 1527.17,342.5 1526.5,343.5C 1528.19,329.065 1530.52,314.732 1533.5,300.5 Z"/></g>
<g><path style="opacity:1" fill="#505050" d="M 1513.5,331.5 C 1513.76,337.194 1512.76,342.527 1510.5,347.5C 1511.11,343.865 1511.45,340.198 1511.5,336.5C 1512.17,334.833 1512.83,333.167 1513.5,331.5 Z"/></g>
<g><path style="opacity:1" fill="#bababa" d="M 1528.5,340.5 C 1527.06,354.655 1524.06,368.322 1519.5,381.5C 1520.33,374.372 1521.66,367.372 1523.5,360.5C 1524.66,356.319 1525.66,351.985 1526.5,347.5C 1526.5,346.167 1526.5,344.833 1526.5,343.5C 1527.17,342.5 1527.83,341.5 1528.5,340.5 Z"/></g>
<g><path style="opacity:1" fill="#696969" d="M 1526.5,347.5 C 1525.66,351.985 1524.66,356.319 1523.5,360.5C 1522.96,355.688 1523.96,351.355 1526.5,347.5 Z"/></g>
<g><path style="opacity:1" fill="#adadad" d="M 1511.5,336.5 C 1511.45,340.198 1511.11,343.865 1510.5,347.5C 1510.5,348.833 1510.5,350.167 1510.5,351.5C 1509.78,351.918 1509.28,352.584 1509,353.5C 1508.45,357.17 1507.95,360.837 1507.5,364.5C 1507.67,365.492 1507.34,366.158 1506.5,366.5C 1507.35,357.117 1508.52,347.784 1510,338.5C 1510.28,337.584 1510.78,336.918 1511.5,336.5 Z"/></g>
<g><path style="opacity:1" fill="#454545" d="M 1510.5,351.5 C 1510.24,356.124 1509.24,360.458 1507.5,364.5C 1507.95,360.837 1508.45,357.17 1509,353.5C 1509.28,352.584 1509.78,351.918 1510.5,351.5 Z"/></g>
<g><path style="opacity:1" fill="#959595" d="M 1506.5,367.5 C 1505.78,372.349 1504.78,377.015 1503.5,381.5C 1503.04,376.393 1504.04,371.726 1506.5,367.5 Z"/></g>
<g><path style="opacity:1" fill="#5f5f5f" d="M 1519.5,381.5 C 1519.32,384.727 1518.66,387.727 1517.5,390.5C 1517.34,387.813 1517.5,385.146 1518,382.5C 1518.38,381.944 1518.88,381.611 1519.5,381.5 Z"/></g>
<g><path style="opacity:1" fill="#616161" d="M 1503.5,381.5 C 1502.45,390.246 1500.95,398.913 1499,407.5C 1498.39,409.066 1497.56,410.4 1496.5,411.5C 1498.31,401.264 1500.65,391.264 1503.5,381.5 Z"/></g>
<g><path style="opacity:1" fill="#939393" d="M 1517.5,390.5 C 1517.96,395.596 1516.96,400.262 1514.5,404.5C 1514.04,399.404 1515.04,394.738 1517.5,390.5 Z"/></g>
<g><path style="opacity:1" fill="#9e9e9e" d="M 1513.5,409.5 C 1513.25,413.8 1512.25,417.8 1510.5,421.5C 1510.95,417.837 1511.45,414.17 1512,410.5C 1512.38,409.944 1512.88,409.611 1513.5,409.5 Z"/></g>
<g><path style="opacity:1" fill="#818181" d="M 1496.5,413.5 C 1495.64,418.854 1493.98,423.854 1491.5,428.5C 1492.19,423.085 1493.86,418.085 1496.5,413.5 Z"/></g>
<g><path style="opacity:1" fill="#979797" d="M 1510.5,421.5 C 1510.16,425.548 1509.49,429.548 1508.5,433.5C 1507.94,435.332 1506.94,436.665 1505.5,437.5C 1505.82,431.541 1507.49,426.208 1510.5,421.5 Z"/></g>
<g><path style="opacity:1" fill="#535353" d="M 1505.5,438.5 C 1504.95,441.746 1503.95,444.746 1502.5,447.5C 1502.59,445.304 1502.92,443.137 1503.5,441C 1503.68,439.624 1504.35,438.791 1505.5,438.5 Z"/></g>
<g><path style="opacity:1" fill="#434343" d="M 1491.5,432.5 C 1491.69,439.673 1489.69,446.006 1485.5,451.5C 1486.69,444.82 1488.69,438.486 1491.5,432.5 Z"/></g>
<g><path style="opacity:1" fill="#575757" d="M 1502.5,447.5 C 1502.74,449.898 1502.07,451.898 1500.5,453.5C 1500.26,451.102 1500.93,449.102 1502.5,447.5 Z"/></g>
<g><path style="opacity:1" fill="#646464" d="M 1485.5,452.5 C 1485.31,455.855 1484.31,458.855 1482.5,461.5C 1482.53,458.084 1483.53,455.084 1485.5,452.5 Z"/></g>
<g><path style="opacity:1" fill="#9b9b9b" d="M 1482.5,461.5 C 1481.87,464.397 1480.87,467.064 1479.5,469.5C 1479.35,466.284 1480.35,463.617 1482.5,461.5 Z"/></g>
<g><path style="opacity:1" fill="#979797" d="M 1479.5,469.5 C 1479.5,470.833 1479.5,472.167 1479.5,473.5C 1478.83,474.167 1478.17,474.833 1477.5,475.5C 1477.26,473.102 1477.93,471.102 1479.5,469.5 Z"/></g>
<g><path style="opacity:1" fill="#4e4e4e" d="M 1479.5,473.5 C 1478.46,479.301 1476.46,484.635 1473.5,489.5C 1474.36,484.662 1475.69,479.996 1477.5,475.5C 1478.17,474.833 1478.83,474.167 1479.5,473.5 Z"/></g>
<g><path style="opacity:1" fill="#949494" d="M 1500.5,454.5 C 1500.11,457.839 1499.61,461.173 1499,464.5C 1494.58,480.01 1489.58,495.343 1484,510.5C 1483.62,511.056 1483.12,511.389 1482.5,511.5C 1482.53,505.491 1484.36,500.157 1488,495.5C 1491.96,481.718 1496.12,468.052 1500.5,454.5 Z"/></g>
<g><path style="opacity:1" fill="#bbbbbb" d="M 1473.5,489.5 C 1472.8,493.237 1471.8,496.904 1470.5,500.5C 1469.02,502.72 1467.69,505.054 1466.5,507.5C 1467.34,502.794 1468.51,498.128 1470,493.5C 1471.03,491.973 1472.2,490.64 1473.5,489.5 Z"/></g>
<g><path style="opacity:1" fill="#363636" d="M 1470.5,500.5 C 1469.39,505.429 1468.22,510.429 1467,515.5C 1465.97,518.239 1464.47,520.572 1462.5,522.5C 1464.57,517.743 1465.91,512.743 1466.5,507.5C 1467.69,505.054 1469.02,502.72 1470.5,500.5 Z"/></g>
<g><path style="opacity:1" fill="#c9c9c9" d="M 1482.5,512.5 C 1482.7,515.728 1482.37,518.895 1481.5,522C 1479.55,524.728 1477.88,527.561 1476.5,530.5C 1477.76,525.891 1478.92,521.225 1480,516.5C 1480.93,515.142 1481.77,513.808 1482.5,512.5 Z"/></g>
<g><path style="opacity:1" fill="#727272" d="M 1462.5,522.5 C 1461.45,528.319 1459.45,533.653 1456.5,538.5C 1456.5,537.833 1456.5,537.167 1456.5,536.5C 1458.34,531.596 1460.34,526.93 1462.5,522.5 Z"/></g>
<g><path style="opacity:1" fill="#c0c0c0" d="M 1476.5,530.5 C 1476.27,536.546 1474.77,542.213 1472,547.5C 1470.48,549.24 1468.98,550.906 1467.5,552.5C 1469.52,544.606 1472.52,537.273 1476.5,530.5 Z"/></g>
<g><path style="opacity:1" fill="#545454" d="M 1455.5,541.5 C 1455.88,543.698 1455.21,545.365 1453.5,546.5C 1453.12,544.302 1453.79,542.635 1455.5,541.5 Z"/></g>
<g><path style="opacity:1" fill="#acacac" d="M 1456.5,536.5 C 1456.5,537.167 1456.5,537.833 1456.5,538.5C 1455.89,539.391 1455.56,540.391 1455.5,541.5C 1453.79,542.635 1453.12,544.302 1453.5,546.5C 1451.87,551.081 1449.87,555.414 1447.5,559.5C 1448.64,553.257 1450.47,547.257 1453,541.5C 1453.9,539.569 1455.07,537.903 1456.5,536.5 Z"/></g>
<g><path style="opacity:1" fill="#bababa" d="M 1445.5,562.5 C 1445.14,565.267 1444.48,567.933 1443.5,570.5C 1442.5,571.833 1441.5,573.167 1440.5,574.5C 1441.11,569.952 1442.78,565.952 1445.5,562.5 Z"/></g>
<g><path style="opacity:1" fill="#c3c3c3" d="M 1467.5,554.5 C 1466.94,556.801 1466.44,559.134 1466,561.5C 1461.25,569.664 1457.59,578.331 1455,587.5C 1453.95,590.187 1452.45,592.52 1450.5,594.5C 1450.5,593.5 1450.5,592.5 1450.5,591.5C 1450.5,591.167 1450.5,590.833 1450.5,590.5C 1452.25,589.341 1453.25,587.674 1453.5,585.5C 1453.84,583.146 1454.34,580.813 1455,578.5C 1459.66,570.653 1463.82,562.653 1467.5,554.5 Z"/></g>
<g><path style="opacity:1" fill="#6e6e6e" d="M 1453.5,585.5 C 1453.25,587.674 1452.25,589.341 1450.5,590.5C 1450.59,588.152 1451.59,586.486 1453.5,585.5 Z"/></g>
<g><path style="opacity:1" fill="#4d4d4d" d="M 1443.5,570.5 C 1443.66,571.873 1443.49,573.207 1443,574.5C 1437.63,585.895 1432.3,597.228 1427,608.5C 1425.61,611.336 1423.78,613.669 1421.5,615.5C 1428.11,601.943 1434.45,588.276 1440.5,574.5C 1441.5,573.167 1442.5,571.833 1443.5,570.5 Z"/></g>
<g><path style="opacity:1" fill="#6d6d6d" d="M 1450.5,591.5 C 1450.5,592.5 1450.5,593.5 1450.5,594.5C 1448.09,598.995 1445.42,603.328 1442.5,607.5C 1444.23,601.629 1446.89,596.296 1450.5,591.5 Z"/></g>
<g><path style="opacity:1" fill="#757575" d="M 1442.5,607.5 C 1442.98,610.313 1441.98,612.313 1439.5,613.5C 1439.75,611.033 1440.75,609.033 1442.5,607.5 Z"/></g>
<g><path style="opacity:1" fill="#3c3c3c" d="M 1419.5,619.5 C 1418.3,624.636 1415.97,628.969 1412.5,632.5C 1414.47,627.89 1416.81,623.557 1419.5,619.5 Z"/></g>
<g><path style="opacity:1" fill="#7d7d7d" d="M 1438.5,616.5 C 1433.44,628.292 1427.11,639.292 1419.5,649.5C 1425.47,639.452 1430.97,629.119 1436,618.5C 1436.71,617.619 1437.54,616.953 1438.5,616.5 Z"/></g>
<g><path style="opacity:1" fill="#9b9b9b" d="M 1419.5,649.5 C 1419,651.482 1418.5,653.482 1418,655.5C 1414.58,660.751 1411.08,665.751 1407.5,670.5C 1410.21,662.753 1414.21,655.753 1419.5,649.5 Z"/></g>
<g><path style="opacity:1" fill="#6a6a6a" d="M 1396.5,657.5 C 1392.99,667.03 1387.32,675.03 1379.5,681.5C 1382.79,676.196 1386.12,670.862 1389.5,665.5C 1391.94,662.737 1394.28,660.07 1396.5,657.5 Z"/></g>
<g><path style="opacity:1" fill="#929292" d="M 1405.5,671.5 C 1405.64,676.015 1403.64,679.015 1399.5,680.5C 1401.12,677.223 1403.12,674.223 1405.5,671.5 Z"/></g>
<g><path style="opacity:1" fill="#757575" d="M 1399.5,680.5 C 1398.28,684.049 1396.28,687.049 1393.5,689.5C 1394.72,685.951 1396.72,682.951 1399.5,680.5 Z"/></g>
<g><path style="opacity:1" fill="#838383" d="M 1376.5,686.5 C 1373.23,692.102 1369.23,697.102 1364.5,701.5C 1367.42,696.732 1370.59,692.066 1374,687.5C 1374.67,686.748 1375.5,686.414 1376.5,686.5 Z"/></g>
<g><path style="opacity:1" fill="#6c6c6c" d="M 1393.5,689.5 C 1388.57,697.429 1382.9,704.762 1376.5,711.5C 1380.4,705.384 1384.57,699.384 1389,693.5C 1390.31,691.808 1391.81,690.475 1393.5,689.5 Z"/></g>
<g><path style="opacity:1" fill="#929292" d="M 1364.5,701.5 C 1363.56,704.109 1361.89,706.109 1359.5,707.5C 1360.47,704.865 1362.14,702.865 1364.5,701.5 Z"/></g>
<g><path style="opacity:1" fill="#cb0c2a" d="M 796.5,723.5 C 796.726,728.562 796.392,733.562 795.5,738.5C 794.5,738.833 793.833,739.5 793.5,740.5C 785.098,750.298 775.098,752.132 763.5,746C 761.294,743.963 759.294,741.797 757.5,739.5C 757.5,738.833 757.167,738.5 756.5,738.5C 754.848,733.659 754.182,728.659 754.5,723.5C 761.313,707.266 772.647,703.099 788.5,711C 793.038,714.025 795.704,718.191 796.5,723.5 Z"/></g>
<g><path style="opacity:1" fill="#838383" d="M 1359.5,707.5 C 1357.29,711.782 1354.29,715.449 1350.5,718.5C 1352.85,714.195 1355.85,710.528 1359.5,707.5 Z"/></g>
<g><path style="opacity:1" fill="#757575" d="M 1373.5,715.5 C 1369.85,720.486 1365.85,725.153 1361.5,729.5C 1364.44,723.899 1368.44,719.233 1373.5,715.5 Z"/></g>
<g><path style="opacity:1" fill="#808080" d="M 1350.5,718.5 C 1348.55,722.12 1345.88,725.12 1342.5,727.5C 1344.48,723.854 1347.15,720.854 1350.5,718.5 Z"/></g>
<g><path style="opacity:1" fill="#9b9b9b" d="M 752.5,723.5 C 745.914,725.442 739.247,727.442 732.5,729.5C 738.337,725.247 745.003,723.247 752.5,723.5 Z"/></g>
<g><path style="opacity:1" fill="#b2b2b2" d="M 805.5,725.5 C 810.484,725.156 814.817,726.489 818.5,729.5C 813.824,728.939 809.491,727.606 805.5,725.5 Z"/></g>
<g><path style="opacity:1" fill="#737373" d="M 732.5,729.5 C 730.064,730.871 727.397,731.871 724.5,732.5C 726.617,730.345 729.284,729.345 732.5,729.5 Z"/></g>
<g><path style="opacity:1" fill="#7e7e7e" d="M 1342.5,727.5 C 1339.21,732.46 1335.21,736.793 1330.5,740.5C 1333.43,736.394 1336.6,732.394 1340,728.5C 1340.67,727.748 1341.5,727.414 1342.5,727.5 Z"/></g>
<g><path style="opacity:1" fill="#646464" d="M 723.5,732.5 C 721.967,734.245 719.967,735.245 717.5,735.5C 719.033,733.755 721.033,732.755 723.5,732.5 Z"/></g>
<g><path style="opacity:1" fill="#acacac" d="M 825.5,732.5 C 830.777,732.852 835.111,734.852 838.5,738.5C 833.557,737.537 829.223,735.537 825.5,732.5 Z"/></g>
<g><path style="opacity:1" fill="#fefefe" d="M 757.5,739.5 C 759.294,741.797 761.294,743.963 763.5,746C 775.098,752.132 785.098,750.298 793.5,740.5C 802.063,741.757 810.396,743.757 818.5,746.5C 824.777,749.65 831.11,752.65 837.5,755.5C 839.498,758.805 842.498,760.471 846.5,760.5C 858.72,767.993 871.054,775.66 883.5,783.5C 883.953,784.458 884.619,785.292 885.5,786C 889.48,788.266 893.48,790.432 897.5,792.5C 898.167,792.833 898.833,793.167 899.5,793.5C 902.22,795.527 905.22,797.193 908.5,798.5C 915.8,802.82 923.134,807.153 930.5,811.5C 933.057,813.607 936.057,814.941 939.5,815.5C 940.431,817.022 941.598,818.355 943,819.5C 947.011,821.405 951.178,822.738 955.5,823.5C 955.5,895.5 955.5,967.5 955.5,1039.5C 796.999,1039.83 638.666,1039.5 480.5,1038.5C 480.738,1036.6 481.738,1035.26 483.5,1034.5C 494.902,1015.16 506.402,995.822 518,976.5C 521.592,974.127 523.425,970.794 523.5,966.5C 527.072,964.587 529.072,961.587 529.5,957.5C 534.923,952.993 538.589,947.326 540.5,940.5C 541.496,940.586 542.329,940.252 543,939.5C 544.396,936.936 545.563,934.269 546.5,931.5C 549.277,929.049 551.277,926.049 552.5,922.5C 555.277,920.049 557.277,917.049 558.5,913.5C 562.262,910.071 565.262,906.071 567.5,901.5C 572.351,899.48 575.017,895.814 575.5,890.5C 579.262,887.071 582.262,883.071 584.5,878.5C 596.182,864.814 607.516,850.814 618.5,836.5C 618.5,835.833 618.833,835.5 619.5,835.5C 632.366,822.298 645.366,808.964 658.5,795.5C 662.1,793.57 665.1,790.903 667.5,787.5C 667.5,786.833 667.833,786.5 668.5,786.5C 671.109,785.557 673.109,783.89 674.5,781.5C 677.042,779.795 679.708,778.295 682.5,777C 683.305,775.887 683.972,774.721 684.5,773.5C 688.056,771.443 691.723,769.61 695.5,768C 697.413,765.607 699.413,763.441 701.5,761.5C 707.557,760.079 712.557,757.079 716.5,752.5C 718.967,752.245 720.967,751.245 722.5,749.5C 724.967,749.245 726.967,748.245 728.5,746.5C 729.167,746.5 729.833,746.5 730.5,746.5C 739.352,743.635 748.352,741.302 757.5,739.5 Z"/></g>
<g><path style="opacity:1" fill="#878787" d="M 756.5,738.5 C 757.167,738.5 757.5,738.833 757.5,739.5C 748.352,741.302 739.352,743.635 730.5,746.5C 733.066,744.561 736.066,743.061 739.5,742C 745.273,741.071 750.94,739.904 756.5,738.5 Z"/></g>
<g><path style="opacity:1" fill="#bfbebe" d="M 795.5,738.5 C 802.769,740.653 810.102,742.82 817.5,745C 818.056,745.383 818.389,745.883 818.5,746.5C 810.396,743.757 802.063,741.757 793.5,740.5C 793.833,739.5 794.5,738.833 795.5,738.5 Z"/></g>
<g><path style="opacity:1" fill="#464646" d="M 1330.5,740.5 C 1328.83,744.833 1325.83,747.833 1321.5,749.5C 1321.37,748.761 1321.54,748.094 1322,747.5C 1324.62,744.792 1327.45,742.459 1330.5,740.5 Z"/></g>
<g><path style="opacity:1" fill="#626262" d="M 728.5,746.5 C 726.967,748.245 724.967,749.245 722.5,749.5C 724.033,747.755 726.033,746.755 728.5,746.5 Z"/></g>
<g><path style="opacity:1" fill="#a9a9a9" d="M 854.5,747.5 C 858.809,748.485 862.809,750.319 866.5,753C 867.252,753.671 867.586,754.504 867.5,755.5C 862.657,753.582 858.323,750.916 854.5,747.5 Z"/></g>
<g><path style="opacity:1" fill="#717171" d="M 722.5,749.5 C 720.967,751.245 718.967,752.245 716.5,752.5C 718.033,750.755 720.033,749.755 722.5,749.5 Z"/></g>
<g><path style="opacity:1" fill="#838383" d="M 694.5,747.5 C 689.826,751.492 684.826,755.159 679.5,758.5C 683.631,753.709 688.631,750.043 694.5,747.5 Z"/></g>
<g><path style="opacity:1" fill="#949494" d="M 716.5,752.5 C 712.557,757.079 707.557,760.079 701.5,761.5C 705.681,757.238 710.681,754.238 716.5,752.5 Z"/></g>
<g><path style="opacity:1" fill="#9e9e9e" d="M 837.5,755.5 C 840.706,756.933 843.706,758.6 846.5,760.5C 842.498,760.471 839.498,758.805 837.5,755.5 Z"/></g>
<g><path style="opacity:1" fill="#7f7f7f" d="M 1361.5,729.5 C 1344.78,750.221 1325.78,768.554 1304.5,784.5C 1324.39,767.279 1343.39,748.946 1361.5,729.5 Z"/></g>
<g><path style="opacity:1" fill="#7a7a7a" d="M 1321.5,749.5 C 1316.44,755.196 1310.77,760.196 1304.5,764.5C 1309.52,758.814 1315.19,753.814 1321.5,749.5 Z"/></g>
<g><path style="opacity:1" fill="#767676" d="M 872.5,759.5 C 875.812,759.149 878.145,760.482 879.5,763.5C 877.142,762.126 874.808,760.793 872.5,759.5 Z"/></g>
<g><path style="opacity:1" fill="#7b7b7b" d="M 678.5,758.5 C 675.391,761.891 672.057,765.057 668.5,768C 667.255,768.791 665.922,769.291 664.5,769.5C 668.563,765.108 673.23,761.442 678.5,758.5 Z"/></g>
<g><path style="opacity:1" fill="#7f7f7f" d="M 1304.5,764.5 C 1303.11,766.89 1301.11,768.557 1298.5,769.5C 1299.87,767.14 1301.87,765.473 1304.5,764.5 Z"/></g>
<g><path style="opacity:1" fill="#a9a9a9" d="M 701.5,761.5 C 699.413,763.441 697.413,765.607 695.5,768C 691.723,769.61 688.056,771.443 684.5,773.5C 687.642,770.531 690.975,767.698 694.5,765C 696.577,763.295 698.91,762.128 701.5,761.5 Z"/></g>
<g><path style="opacity:1" fill="#828282" d="M 1298.5,769.5 C 1295.7,771.795 1293.04,774.295 1290.5,777C 1289.26,777.791 1287.92,778.291 1286.5,778.5C 1289.74,774.541 1293.74,771.541 1298.5,769.5 Z"/></g>
<g><path style="opacity:1" fill="#8c8c8c" d="M 684.5,773.5 C 683.972,774.721 683.305,775.887 682.5,777C 679.708,778.295 677.042,779.795 674.5,781.5C 676.918,777.755 680.251,775.088 684.5,773.5 Z"/></g>
<g><path style="opacity:1" fill="#707070" d="M 664.5,769.5 C 656.441,777.563 648.107,785.23 639.5,792.5C 646.829,783.842 655.162,776.175 664.5,769.5 Z"/></g>
<g><path style="opacity:1" fill="#818181" d="M 674.5,781.5 C 673.109,783.89 671.109,785.557 668.5,786.5C 669.865,784.14 671.865,782.473 674.5,781.5 Z"/></g>
<g><path style="opacity:1" fill="#8b8b8b" d="M 909.5,782.5 C 912.313,782.025 914.313,783.025 915.5,785.5C 913.456,784.492 911.456,783.492 909.5,782.5 Z"/></g>
<g><path style="opacity:1" fill="#545454" d="M 883.5,783.5 C 887.396,784.855 891.063,786.689 894.5,789C 895.71,790.039 896.71,791.206 897.5,792.5C 893.48,790.432 889.48,788.266 885.5,786C 884.619,785.292 883.953,784.458 883.5,783.5 Z"/></g>
<g><path style="opacity:1" fill="#9d9d9d" d="M 915.5,785.5 C 920.013,786.84 924.347,788.673 928.5,791C 930.398,792.417 932.064,793.917 933.5,795.5C 927.24,792.56 921.24,789.226 915.5,785.5 Z"/></g>
<g><path style="opacity:1" fill="#898989" d="M 1304.5,784.5 C 1301.07,788.262 1297.07,791.262 1292.5,793.5C 1295.93,789.738 1299.93,786.738 1304.5,784.5 Z"/></g>
<g><path style="opacity:1" fill="#989898" d="M 667.5,787.5 C 665.1,790.903 662.1,793.57 658.5,795.5C 660.9,792.097 663.9,789.43 667.5,787.5 Z"/></g>
<g><path style="opacity:1" fill="#414141" d="M 899.5,793.5 C 900.873,793.343 902.207,793.51 903.5,794C 905.398,795.417 907.064,796.917 908.5,798.5C 905.22,797.193 902.22,795.527 899.5,793.5 Z"/></g>
<g><path style="opacity:1" fill="#484848" d="M 639.5,792.5 C 639.167,796.167 637.167,798.167 633.5,798.5C 633.369,797.761 633.536,797.094 634,796.5C 635.651,794.79 637.484,793.456 639.5,792.5 Z"/></g>
<g><path style="opacity:1" fill="#a4a4a4" d="M 1292.5,793.5 C 1291.82,796.675 1289.82,798.175 1286.5,798C 1285.74,799.512 1284.74,800.846 1283.5,802C 1280.14,803.014 1277.14,804.514 1274.5,806.5C 1275.03,805.279 1275.69,804.113 1276.5,803C 1281.74,799.58 1287.07,796.413 1292.5,793.5 Z"/></g>
<g><path style="opacity:1" fill="#454545" d="M 633.5,798.5 C 633.167,802.167 631.167,804.167 627.5,804.5C 627.369,803.761 627.536,803.094 628,802.5C 629.651,800.79 631.484,799.456 633.5,798.5 Z"/></g>
<g><path style="opacity:1" fill="#858585" d="M 945.5,801.5 C 947.967,801.755 949.967,802.755 951.5,804.5C 949.033,804.245 947.033,803.245 945.5,801.5 Z"/></g>
<g><path style="opacity:1" fill="#4c4c4c" d="M 627.5,804.5 C 627.167,808.167 625.167,810.167 621.5,810.5C 621.369,809.761 621.536,809.094 622,808.5C 623.651,806.79 625.484,805.456 627.5,804.5 Z"/></g>
<g><path style="opacity:1" fill="#3f3f3f" d="M 1239.5,807.5 C 1237,810.643 1233.66,812.309 1229.5,812.5C 1229.47,811.503 1229.97,810.836 1231,810.5C 1233.73,809.114 1236.57,808.114 1239.5,807.5 Z"/></g>
<g><path style="opacity:1" fill="#898989" d="M 1270.5,807.5 C 1264.81,812.841 1258.14,816.508 1250.5,818.5C 1257.09,814.846 1263.75,811.179 1270.5,807.5 Z"/></g>
<g><path style="opacity:1" fill="#3c3c3c" d="M 930.5,811.5 C 934.392,812.738 938.392,813.905 942.5,815C 943.381,815.708 944.047,816.542 944.5,817.5C 942.833,816.833 941.167,816.167 939.5,815.5C 936.057,814.941 933.057,813.607 930.5,811.5 Z"/></g>
<g><path style="opacity:1" fill="#8f8f8f" d="M 658.5,795.5 C 645.366,808.964 632.366,822.298 619.5,835.5C 631.103,820.895 644.103,807.562 658.5,795.5 Z"/></g>
<g><path style="opacity:1" fill="#777777" d="M 621.5,810.5 C 618.571,815.099 614.904,819.099 610.5,822.5C 613.515,817.822 617.181,813.822 621.5,810.5 Z"/></g>
<g><path style="opacity:1" fill="#b8b8b8" d="M 939.5,815.5 C 941.167,816.167 942.833,816.833 944.5,817.5C 948.394,819.277 952.061,821.277 955.5,823.5C 951.178,822.738 947.011,821.405 943,819.5C 941.598,818.355 940.431,817.022 939.5,815.5 Z"/></g>
<g><path style="opacity:1" fill="#666666" d="M 1213.5,818.5 C 1211.97,820.245 1209.97,821.245 1207.5,821.5C 1209.03,819.755 1211.03,818.755 1213.5,818.5 Z"/></g>
<g><path style="opacity:1" fill="#9e9e9e" d="M 990.5,819.5 C 992.698,819.12 994.365,819.787 995.5,821.5C 993.302,821.88 991.635,821.213 990.5,819.5 Z"/></g>
<g><path style="opacity:1" fill="#6a6a6a" d="M 1250.5,818.5 C 1248.97,820.245 1246.97,821.245 1244.5,821.5C 1246.03,819.755 1248.03,818.755 1250.5,818.5 Z"/></g>
<g><path style="opacity:1" fill="#9c9c9c" d="M 996.5,822.5 C 1002.14,821.84 1007.14,823.173 1011.5,826.5C 1006.41,825.131 1001.41,823.798 996.5,822.5 Z"/></g>
<g><path style="opacity:1" fill="#828282" d="M 1204.5,821.5 C 1202.97,823.245 1200.97,824.245 1198.5,824.5C 1200.03,822.755 1202.03,821.755 1204.5,821.5 Z"/></g>
<g><path style="opacity:1" fill="#7e7e7e" d="M 610.5,822.5 C 608.212,826.456 605.212,829.789 601.5,832.5C 603.817,828.518 606.817,825.185 610.5,822.5 Z"/></g>
<g><path style="opacity:1" fill="#626262" d="M 1198.5,824.5 C 1196.49,825.924 1194.15,826.59 1191.5,826.5C 1193.51,825.076 1195.85,824.41 1198.5,824.5 Z"/></g>
<g><path style="opacity:1" fill="#aaaaaa" d="M 1016.5,827.5 C 1020.84,827.658 1024.84,828.658 1028.5,830.5C 1024.16,830.342 1020.16,829.342 1016.5,827.5 Z"/></g>
<g><path style="opacity:1" fill="#626262" d="M 1230.5,827.5 C 1228.83,828.833 1227.17,830.167 1225.5,831.5C 1222.78,832.043 1220.11,832.709 1217.5,833.5C 1221.51,831.146 1225.85,829.146 1230.5,827.5 Z"/></g>
<g><path style="opacity:1" fill="#a9a9a9" d="M 971.5,829.5 C 978.472,832.15 985.472,834.484 992.5,836.5C 985.825,835.526 979.325,833.859 973,831.5C 971.97,831.164 971.47,830.497 971.5,829.5 Z"/></g>
<g><path style="opacity:1" fill="#5a5a5a" d="M 1187.5,827.5 C 1180.78,831.349 1173.45,833.349 1165.5,833.5C 1165.61,832.883 1165.94,832.383 1166.5,832C 1173.73,831.133 1180.73,829.633 1187.5,827.5 Z"/></g>
<g><path style="opacity:1" fill="#c1c1c1" d="M 1244.5,821.5 C 1243.71,822.794 1242.71,823.961 1241.5,825C 1237.03,826.157 1233.03,828.157 1229.5,831C 1228.21,831.49 1226.87,831.657 1225.5,831.5C 1227.17,830.167 1228.83,828.833 1230.5,827.5C 1235.08,825.306 1239.75,823.306 1244.5,821.5 Z"/></g>
<g><path style="opacity:1" fill="#787878" d="M 601.5,832.5 C 601.262,834.404 600.262,835.738 598.5,836.5C 598.738,834.596 599.738,833.262 601.5,832.5 Z"/></g>
<g><path style="opacity:1" fill="#818181" d="M 1039.5,833.5 C 1043.82,833.083 1047.82,833.75 1051.5,835.5C 1047.21,835.802 1043.21,835.136 1039.5,833.5 Z"/></g>
<g><path style="opacity:1" fill="#959595" d="M 1142.5,836.5 C 1141.5,837.167 1140.5,837.833 1139.5,838.5C 1136.83,838.5 1134.17,838.5 1131.5,838.5C 1130.5,838.5 1129.5,838.5 1128.5,838.5C 1132.99,837.578 1137.66,836.911 1142.5,836.5 Z"/></g>
<g><path style="opacity:1" fill="#3d3d3d" d="M 1153.5,835.5 C 1149.28,837.416 1144.62,838.416 1139.5,838.5C 1140.5,837.833 1141.5,837.167 1142.5,836.5C 1146.2,836.448 1149.86,836.114 1153.5,835.5 Z"/></g>
<g><path style="opacity:1" fill="#b8b8b8" d="M 1062.5,836.5 C 1082.79,838.22 1103.12,838.887 1123.5,838.5C 1107.31,839.781 1090.98,839.781 1074.5,838.5C 1070.82,838.665 1067.15,838.499 1063.5,838C 1062.94,837.617 1062.61,837.117 1062.5,836.5 Z"/></g>
<g><path style="opacity:1" fill="#6a6a6a" d="M 996.5,837.5 C 1000.92,837.861 1004.92,839.194 1008.5,841.5C 1006.44,841.483 1004.44,841.15 1002.5,840.5C 1000.43,839.486 998.426,838.486 996.5,837.5 Z"/></g>
<g><path style="opacity:1" fill="#4d4d4d" d="M 1074.5,838.5 C 1090.98,839.781 1107.31,839.781 1123.5,838.5C 1125.17,838.5 1126.83,838.5 1128.5,838.5C 1129.5,838.5 1130.5,838.5 1131.5,838.5C 1122.86,839.832 1113.86,840.498 1104.5,840.5C 1095.5,840.333 1086.5,840.167 1077.5,840C 1076.26,839.768 1075.26,839.268 1074.5,838.5 Z"/></g>
<g><path style="opacity:1" fill="#7b7b7b" d="M 598.5,836.5 C 597.557,839.109 595.89,841.109 593.5,842.5C 594.473,839.865 596.14,837.865 598.5,836.5 Z"/></g>
<g><path style="opacity:1" fill="#cccccc" d="M 1002.5,840.5 C 1004.44,841.15 1006.44,841.483 1008.5,841.5C 1010.5,841.833 1012.5,842.167 1014.5,842.5C 1018.46,843.925 1022.46,845.258 1026.5,846.5C 1022.44,846.515 1018.44,846.015 1014.5,845C 1011.03,843.502 1007.37,842.502 1003.5,842C 1002.94,841.617 1002.61,841.117 1002.5,840.5 Z"/></g>
<g><path style="opacity:1" fill="#3d3d3d" d="M 1014.5,842.5 C 1020.21,842.776 1025.55,844.11 1030.5,846.5C 1029.17,846.5 1027.83,846.5 1026.5,846.5C 1022.46,845.258 1018.46,843.925 1014.5,842.5 Z"/></g>
<g><path style="opacity:1" fill="#a7a7a7" d="M 1194.5,841.5 C 1191.13,843.462 1187.47,844.962 1183.5,846C 1176.89,847.481 1170.22,848.648 1163.5,849.5C 1170.51,847.667 1177.51,845.5 1184.5,843C 1187.83,842.39 1191.16,841.89 1194.5,841.5 Z"/></g>
<g><path style="opacity:1" fill="#848484" d="M 593.5,842.5 C 590.848,846.482 587.848,850.149 584.5,853.5C 586.426,848.912 589.426,845.245 593.5,842.5 Z"/></g>
<g><path style="opacity:1" fill="#727272" d="M 1155.5,850.5 C 1148.71,852.033 1141.71,853.033 1134.5,853.5C 1135.26,852.732 1136.26,852.232 1137.5,852C 1143.49,851.301 1149.49,850.801 1155.5,850.5 Z"/></g>
<g><path style="opacity:1" fill="#cacaca" d="M 1050.5,850.5 C 1053.86,850.616 1057.19,850.949 1060.5,851.5C 1064.19,852.393 1067.86,853.393 1071.5,854.5C 1067.45,854.824 1063.45,854.491 1059.5,853.5C 1056.06,853.094 1053.06,852.094 1050.5,850.5 Z"/></g>
<g><path style="opacity:1" fill="#6b6b6b" d="M 1060.5,851.5 C 1078.1,853.476 1095.77,854.476 1113.5,854.5C 1099.66,855.475 1085.66,855.475 1071.5,854.5C 1067.86,853.393 1064.19,852.393 1060.5,851.5 Z"/></g>
<g><path style="opacity:1" fill="#909090" d="M 584.5,853.5 C 582.853,856.473 580.853,859.14 578.5,861.5C 579.41,857.935 581.41,855.268 584.5,853.5 Z"/></g>
<g><path style="opacity:1" fill="#757575" d="M 618.5,836.5 C 607.516,850.814 596.182,864.814 584.5,878.5C 588.401,872.384 592.567,866.384 597,860.5C 603.966,852.166 611.133,844.166 618.5,836.5 Z"/></g>
<g><path style="opacity:1" fill="#898989" d="M 578.5,861.5 C 576.303,865.238 573.636,868.571 570.5,871.5C 572.228,867.357 574.894,864.024 578.5,861.5 Z"/></g>
<g><path style="opacity:1" fill="#8e8e8e" d="M 570.5,871.5 C 569.461,874.921 567.461,877.588 564.5,879.5C 566.037,876.398 568.037,873.732 570.5,871.5 Z"/></g>
<g><path style="opacity:1" fill="#737373" d="M 584.5,878.5 C 582.262,883.071 579.262,887.071 575.5,890.5C 577.738,885.929 580.738,881.929 584.5,878.5 Z"/></g>
<g><path style="opacity:1" fill="#a8a8a8" d="M 575.5,890.5 C 575.017,895.814 572.351,899.48 567.5,901.5C 569.4,897.268 572.067,893.601 575.5,890.5 Z"/></g>
<g><path style="opacity:1" fill="#848484" d="M 561.5,883.5 C 556.608,892.057 550.941,900.057 544.5,907.5C 545.128,904.91 546.295,902.577 548,900.5C 552.948,894.975 557.448,889.308 561.5,883.5 Z"/></g>
<g><path style="opacity:1" fill="#7b7b7b" d="M 567.5,901.5 C 565.262,906.071 562.262,910.071 558.5,913.5C 560.738,908.929 563.738,904.929 567.5,901.5 Z"/></g>
<g><path style="opacity:1" fill="#5d5d5d" d="M 544.5,907.5 C 543.852,909.086 543.352,910.753 543,912.5C 540.958,915.94 538.458,918.94 535.5,921.5C 535.5,921.167 535.5,920.833 535.5,920.5C 537.719,918.339 539.052,915.673 539.5,912.5C 540.969,910.487 542.636,908.82 544.5,907.5 Z"/></g>
<g><path style="opacity:1" fill="#676767" d="M 558.5,913.5 C 557.277,917.049 555.277,920.049 552.5,922.5C 553.723,918.951 555.723,915.951 558.5,913.5 Z"/></g>
<g><path style="opacity:1" fill="#757575" d="M 552.5,922.5 C 551.277,926.049 549.277,929.049 546.5,931.5C 547.723,927.951 549.723,924.951 552.5,922.5 Z"/></g>
<g><path style="opacity:1" fill="#a7a7a7" d="M 535.5,920.5 C 535.5,920.833 535.5,921.167 535.5,921.5C 530.745,928.676 525.745,935.676 520.5,942.5C 524.537,934.399 529.537,927.065 535.5,920.5 Z"/></g>
<g><path style="opacity:1" fill="#767676" d="M 546.5,931.5 C 545.563,934.269 544.396,936.936 543,939.5C 542.329,940.252 541.496,940.586 540.5,940.5C 541.723,936.951 543.723,933.951 546.5,931.5 Z"/></g>
<g><path style="opacity:1" fill="#9c9c9c" d="M 520.5,942.5 C 518.007,948.98 514.341,954.646 509.5,959.5C 512.78,953.559 516.447,947.892 520.5,942.5 Z"/></g>
<g><path style="opacity:1" fill="#929292" d="M 540.5,940.5 C 538.589,947.326 534.923,952.993 529.5,957.5C 532.395,951.284 536.062,945.617 540.5,940.5 Z"/></g>
<g><path style="opacity:1" fill="#a7a7a7" d="M 509.5,959.5 C 508.167,962.5 506.833,965.5 505.5,968.5C 504.167,969.5 502.833,970.5 501.5,971.5C 503.673,967.148 506.34,963.148 509.5,959.5 Z"/></g>
<g><path style="opacity:1" fill="#888888" d="M 529.5,957.5 C 529.072,961.587 527.072,964.587 523.5,966.5C 524.37,963.622 525.703,960.955 527.5,958.5C 527.957,957.702 528.624,957.369 529.5,957.5 Z"/></g>
<g><path style="opacity:1" fill="#3c3c3c" d="M 505.5,968.5 C 503.787,970.907 502.453,973.574 501.5,976.5C 501.043,977.298 500.376,977.631 499.5,977.5C 499.893,975.716 500.559,974.05 501.5,972.5C 501.5,972.167 501.5,971.833 501.5,971.5C 502.833,970.5 504.167,969.5 505.5,968.5 Z"/></g>
<g><path style="opacity:1" fill="#a2a2a2" d="M 501.5,972.5 C 500.559,974.05 499.893,975.716 499.5,977.5C 498.396,979.389 497.063,981.055 495.5,982.5C 496.808,979.514 498.141,976.514 499.5,973.5C 499.957,972.702 500.624,972.369 501.5,972.5 Z"/></g>
<g><path style="opacity:1" fill="#8a8a8a" d="M 492.5,987.5 C 491.609,991.575 489.609,994.908 486.5,997.5C 487.584,993.546 489.584,990.212 492.5,987.5 Z"/></g>
<g><path style="opacity:1" fill="#828282" d="M 523.5,966.5 C 523.425,970.794 521.592,974.127 518,976.5C 506.402,995.822 494.902,1015.16 483.5,1034.5C 483.343,1033.13 483.51,1031.79 484,1030.5C 496.418,1008.66 509.584,987.323 523.5,966.5 Z"/></g>
<g><path style="opacity:1" fill="#a8a8a8" d="M 486.5,997.5 C 484.336,1002.5 481.669,1007.17 478.5,1011.5C 480.14,1006.22 482.806,1001.55 486.5,997.5 Z"/></g>
<g><path style="opacity:1" fill="#3f3f3f" d="M 480.5,1038.5 C 638.666,1039.5 796.999,1039.83 955.5,1039.5C 796.999,1040.83 638.333,1040.83 479.5,1039.5C 479.624,1038.89 479.957,1038.56 480.5,1038.5 Z"/></g>
<g><path style="opacity:1" fill="#bdbdbd" d="M 217.5,1051.5 C 297.169,1051.17 376.836,1051.5 456.5,1052.5C 454.962,1054.24 453.962,1056.24 453.5,1058.5C 452.167,1059.83 450.833,1061.17 449.5,1062.5C 451.293,1059.37 452.626,1056.03 453.5,1052.5C 374.665,1052.83 295.998,1052.5 217.5,1051.5 Z"/></g>
<g><path style="opacity:1" fill="#d8d8d8" d="M 1727.5,1052.5 C 1474.5,1052.5 1221.5,1052.5 968.5,1052.5C 968.833,1174 968.5,1295.33 967.5,1416.5C 967.5,1294.83 967.5,1173.17 967.5,1051.5C 1222.21,1051.17 1475.54,1051.5 1727.5,1052.5 Z"/></g>
<g><path style="opacity:1" fill="#bababa" d="M 474.5,1052.5 C 473.76,1056.41 471.927,1059.75 469,1062.5C 468.338,1064.81 467.838,1067.15 467.5,1069.5C 465.801,1069.53 464.467,1070.19 463.5,1071.5C 464.842,1063.82 468.508,1057.48 474.5,1052.5 Z"/></g>
<g><path style="opacity:1" fill="#414141" d="M 453.5,1058.5 C 453.139,1062.22 451.472,1065.22 448.5,1067.5C 449.038,1065.88 449.371,1064.22 449.5,1062.5C 450.833,1061.17 452.167,1059.83 453.5,1058.5 Z"/></g>
<g><path style="opacity:1" fill="#555555" d="M 448.5,1067.5 C 448.245,1069.97 447.245,1071.97 445.5,1073.5C 445.755,1071.03 446.755,1069.03 448.5,1067.5 Z"/></g>
<g><path style="opacity:1" fill="#7e7e7e" d="M 463.5,1071.5 C 462.717,1075.61 460.717,1078.94 457.5,1081.5C 458.283,1077.39 460.283,1074.06 463.5,1071.5 Z"/></g>
<g><path style="opacity:1" fill="#727272" d="M 457.5,1081.5 C 457.975,1084.31 456.975,1086.31 454.5,1087.5C 454.755,1085.03 455.755,1083.03 457.5,1081.5 Z"/></g>
<g><path style="opacity:1" fill="#787878" d="M 454.5,1087.5 C 454.975,1090.31 453.975,1092.31 451.5,1093.5C 451.755,1091.03 452.755,1089.03 454.5,1087.5 Z"/></g>
<g><path style="opacity:1" fill="#5c5c5c" d="M 436.5,1090.5 C 436.975,1093.31 435.975,1095.31 433.5,1096.5C 433.755,1094.03 434.755,1092.03 436.5,1090.5 Z"/></g>
<g><path style="opacity:1" fill="#5d9cef" d="M 1659.5,1095.5 C 1651.32,1095.17 1643.32,1095.51 1635.5,1096.5C 1634.96,1096.44 1634.62,1096.11 1634.5,1095.5C 1642.99,1094.18 1651.32,1094.18 1659.5,1095.5 Z"/></g>
<g><path style="opacity:1" fill="#5e9cef" d="M 1679.5,1095.5 C 1687.68,1094.18 1696.01,1094.18 1704.5,1095.5C 1704.38,1096.11 1704.04,1096.44 1703.5,1096.5C 1695.68,1095.51 1687.68,1095.17 1679.5,1095.5 Z"/></g>
<g><path style="opacity:1" fill="#2177e9" d="M 1659.5,1095.5 C 1662.82,1100.81 1666.16,1106.14 1669.5,1111.5C 1672.86,1106.1 1676.19,1100.77 1679.5,1095.5C 1687.68,1095.17 1695.68,1095.51 1703.5,1096.5C 1697.19,1106.48 1690.86,1116.48 1684.5,1126.5C 1691.62,1137.25 1698.62,1148.08 1705.5,1159C 1696.81,1159.83 1688.15,1159.67 1679.5,1158.5C 1676.25,1152.34 1672.75,1146.34 1669,1140.5C 1665.63,1146.75 1662.13,1152.91 1658.5,1159C 1650.15,1159.83 1641.81,1159.67 1633.5,1158.5C 1640.6,1148.08 1647.27,1137.41 1653.5,1126.5C 1647.5,1116.51 1641.5,1106.51 1635.5,1096.5C 1643.32,1095.51 1651.32,1095.17 1659.5,1095.5 Z"/></g>
<g><path style="opacity:1" fill="#565656" d="M 433.5,1096.5 C 433.472,1100.16 432.138,1103.16 429.5,1105.5C 429.924,1102.08 431.258,1099.08 433.5,1096.5 Z"/></g>
<g><path style="opacity:1" fill="#727272" d="M 451.5,1094.5 C 447.536,1103.42 443.202,1112.09 438.5,1120.5C 438.343,1119.13 438.51,1117.79 439,1116.5C 442.185,1110.62 445.185,1104.62 448,1098.5C 448.74,1096.68 449.907,1095.35 451.5,1094.5 Z"/></g>
<g><path style="opacity:1" fill="#4c4c4c" d="M 428.5,1107.5 C 427.519,1112.13 425.519,1116.13 422.5,1119.5C 424.021,1116.28 425.355,1112.94 426.5,1109.5C 426.833,1108.5 427.5,1107.83 428.5,1107.5 Z"/></g>
<g><path style="opacity:1" fill="#afafaf" d="M 426.5,1109.5 C 425.355,1112.94 424.021,1116.28 422.5,1119.5C 422.5,1120.17 422.5,1120.83 422.5,1121.5C 420.484,1123.25 418.818,1125.25 417.5,1127.5C 419.5,1120.83 422.5,1114.83 426.5,1109.5 Z"/></g>
<g><path style="opacity:1" fill="#676767" d="M 438.5,1120.5 C 437.532,1123.1 436.199,1125.43 434.5,1127.5C 434.725,1124.45 436.058,1122.12 438.5,1120.5 Z"/></g>
<g><path style="opacity:1" fill="#3f3f3f" d="M 422.5,1121.5 C 421.644,1125.65 419.644,1128.99 416.5,1131.5C 416.833,1130.17 417.167,1128.83 417.5,1127.5C 418.818,1125.25 420.484,1123.25 422.5,1121.5 Z"/></g>
<g><path style="opacity:1" fill="#707070" d="M 434.5,1127.5 C 434.975,1130.31 433.975,1132.31 431.5,1133.5C 431.755,1131.03 432.755,1129.03 434.5,1127.5 Z"/></g>
<g><path style="opacity:1" fill="#6b6b6b" d="M 431.5,1133.5 C 431.975,1136.31 430.975,1138.31 428.5,1139.5C 428.755,1137.03 429.755,1135.03 431.5,1133.5 Z"/></g>
<g><path style="opacity:1" fill="#828282" d="M 428.5,1141.5 C 428.008,1143.82 427.008,1145.82 425.5,1147.5C 425.031,1144.61 426.031,1142.61 428.5,1141.5 Z"/></g>
<g><path style="opacity:1" fill="#6f6f6f" d="M 425.5,1147.5 C 422.194,1154.77 418.528,1161.77 414.5,1168.5C 417.008,1160.72 420.675,1153.72 425.5,1147.5 Z"/></g>
<g><path style="opacity:1" fill="#3f3f3f" d="M 413.5,1138.5 C 410.906,1147.02 407.239,1155.02 402.5,1162.5C 402.517,1160.44 402.85,1158.44 403.5,1156.5C 406.833,1150.5 410.167,1144.5 413.5,1138.5 Z"/></g>
<g><path style="opacity:1" fill="#b8b8b8" d="M 403.5,1156.5 C 402.85,1158.44 402.517,1160.44 402.5,1162.5C 401.662,1162.84 401.328,1163.51 401.5,1164.5C 400.272,1165.31 399.272,1166.31 398.5,1167.5C 399.509,1164.95 400.342,1162.28 401,1159.5C 401.377,1158.06 402.21,1157.06 403.5,1156.5 Z"/></g>
<g><path style="opacity:1" fill="#434343" d="M 401.5,1164.5 C 399.585,1170.43 396.918,1176.1 393.5,1181.5C 394.643,1176.57 396.309,1171.9 398.5,1167.5C 399.272,1166.31 400.272,1165.31 401.5,1164.5 Z"/></g>
<g><path style="opacity:1" fill="#6c6c6c" d="M 414.5,1168.5 C 414.634,1170.29 414.301,1171.96 413.5,1173.5C 412.833,1173.83 412.167,1174.17 411.5,1174.5C 411.755,1172.03 412.755,1170.03 414.5,1168.5 Z"/></g>
<g><path style="opacity:1" fill="#bababa" d="M 413.5,1173.5 C 413.139,1177.22 411.472,1180.22 408.5,1182.5C 409.026,1179.65 410.026,1176.98 411.5,1174.5C 412.167,1174.17 412.833,1173.83 413.5,1173.5 Z"/></g>
<g><path style="opacity:1" fill="#4b4b4b" d="M 392.5,1183.5 C 392.657,1184.87 392.49,1186.21 392,1187.5C 390.406,1189.53 388.906,1191.53 387.5,1193.5C 388.367,1189.67 390.033,1186.34 392.5,1183.5 Z"/></g>
<g><path style="opacity:1" fill="#bfbfbf" d="M 406.5,1186.5 C 405.367,1189.74 404.533,1193.07 404,1196.5C 402.333,1198.83 400.667,1201.17 399,1203.5C 397.414,1211.11 394.581,1218.11 390.5,1224.5C 391.424,1221.2 392.424,1217.87 393.5,1214.5C 393.5,1214.17 393.5,1213.83 393.5,1213.5C 395.245,1211.97 396.245,1209.97 396.5,1207.5C 398.987,1201.19 401.487,1194.86 404,1188.5C 404.708,1187.62 405.542,1186.95 406.5,1186.5 Z"/></g>
<g><path style="opacity:1" fill="#696969" d="M 396.5,1207.5 C 396.245,1209.97 395.245,1211.97 393.5,1213.5C 393.755,1211.03 394.755,1209.03 396.5,1207.5 Z"/></g>
<g><path style="opacity:1" fill="#636363" d="M 393.5,1214.5 C 392.424,1217.87 391.424,1221.2 390.5,1224.5C 389.192,1227.48 387.525,1230.15 385.5,1232.5C 387.219,1225.98 389.886,1219.98 393.5,1214.5 Z"/></g>
<g><path style="opacity:1" fill="#616161" d="M 384.5,1201.5 C 381.251,1210.08 378.918,1218.91 377.5,1228C 376.422,1232.53 378.089,1235.03 382.5,1235.5C 380.511,1236.89 378.678,1236.55 377,1234.5C 374.941,1227.74 375.275,1221.07 378,1214.5C 379.488,1210.71 380.988,1206.88 382.5,1203C 382.836,1201.97 383.503,1201.47 384.5,1201.5 Z"/></g>
</svg>
