<?xml version="1.0" encoding="UTF-8"?>
<!DOCTYPE svg PUBLIC "-//W3C//DTD SVG 1.1//EN" "http://www.w3.org/Graphics/SVG/1.1/DTD/svg11.dtd">
<svg xmlns="http://www.w3.org/2000/svg" version="1.1" width="2000px" height="1500px" style="shape-rendering:geometricPrecision; text-rendering:geometricPrecision; image-rendering:optimizeQuality; fill-rule:evenodd; clip-rule:evenodd" xmlns:xlink="http://www.w3.org/1999/xlink">
<g><path style="opacity:1" fill="#fefefe" d="M -0.5,-0.5 C 666.167,-0.5 1332.83,-0.5 1999.5,-0.5C 1999.5,499.5 1999.5,999.5 1999.5,1499.5C 1332.83,1499.5 666.167,1499.5 -0.5,1499.5C -0.5,999.5 -0.5,499.5 -0.5,-0.5 Z"/></g>
<g><path style="opacity:1" fill="#000000" d="M 969.5,103.5 C 969.217,102.711 968.717,102.044 968,101.5C 967.5,407.166 967.333,712.833 967.5,1018.5C 963.833,1018.5 960.167,1018.5 956.5,1018.5C 956.833,712.499 956.5,406.499 955.5,100.5C 954.893,100.624 954.56,100.957 954.5,101.5C 952.215,105.21 949.548,108.71 946.5,112C 940.166,113.329 937.332,110.829 938,104.5C 944.712,95.5763 951.546,86.743 958.5,78C 960.5,77.3333 962.5,77.3333 964.5,78C 971.938,86.3817 978.771,95.215 985,104.5C 985.668,110.829 982.834,113.329 976.5,112C 973.8,109.412 971.467,106.579 969.5,103.5 Z"/></g>
<g><path style="opacity:1" fill="#141414" d="M 954.5,101.5 C 954.56,100.957 954.893,100.624 955.5,100.5C 956.5,406.499 956.833,712.499 956.5,1018.5C 956.167,1018.5 955.833,1018.5 955.5,1018.5C 955.833,712.666 955.5,407 954.5,101.5 Z"/></g>
<g><path style="opacity:1" fill="#e9e9e9" d="M 969.5,103.5 C 968.5,408.666 968.167,714 968.5,1019.5C 967.833,1019.5 967.5,1019.17 967.5,1018.5C 967.333,712.833 967.5,407.166 968,101.5C 968.717,102.044 969.217,102.711 969.5,103.5 Z"/></g>
<g><path style="opacity:1" fill="#649fef" d="M 870.5,129.5 C 862.648,129.175 854.982,129.508 847.5,130.5C 846.957,130.44 846.624,130.107 846.5,129.5C 854.657,128.18 862.657,128.18 870.5,129.5 Z"/></g>
<g><path style="opacity:1" fill="#2377e9" d="M 847.5,130.5 C 854.982,129.508 862.648,129.175 870.5,129.5C 874.631,142.357 878.298,155.357 881.5,168.5C 882.167,173.833 882.833,173.833 883.5,168.5C 886.864,155.383 890.697,142.383 895,129.5C 902.413,128.519 909.913,128.186 917.5,128.5C 908.389,156.385 897.889,183.719 886,210.5C 877.561,219.866 867.061,223.366 854.5,221C 852.575,215.464 851.908,209.631 852.5,203.5C 862.433,205.709 868.766,202.042 871.5,192.5C 863.696,171.754 855.696,151.087 847.5,130.5 Z"/></g>
<g><path style="opacity:1" fill="#87b4f3" d="M 881.5,168.5 C 882.167,168.5 882.833,168.5 883.5,168.5C 882.833,173.833 882.167,173.833 881.5,168.5 Z"/></g>
<g><path style="opacity:1" fill="#6d6d6d" d="M 464.5,359.5 C 463.082,357.813 461.749,355.98 460.5,354C 456.851,353.037 453.518,353.537 450.5,355.5C 451.957,351.951 454.623,350.784 458.5,352C 462.513,352.85 464.513,355.35 464.5,359.5 Z"/></g>
<g><path style="opacity:1" fill="#0e0e0e" d="M 464.5,359.5 C 465.08,361.749 466.413,363.415 468.5,364.5C 473.881,371.216 478.881,378.216 483.5,385.5C 484.08,387.749 485.413,389.415 487.5,390.5C 498.214,404.549 508.547,418.882 518.5,433.5C 519.08,435.749 520.413,437.415 522.5,438.5C 525.605,441.275 527.938,444.608 529.5,448.5C 530.08,450.749 531.413,452.415 533.5,453.5C 539.233,459.963 544.233,466.963 548.5,474.5C 549.08,476.749 550.413,478.415 552.5,479.5C 563.566,493.295 573.899,507.628 583.5,522.5C 584.08,524.749 585.413,526.415 587.5,527.5C 592.881,534.216 597.881,541.216 602.5,548.5C 603.08,550.749 604.413,552.415 606.5,553.5C 609.605,556.275 611.938,559.608 613.5,563.5C 614.08,565.749 615.413,567.415 617.5,568.5C 629.987,584.805 641.987,601.472 653.5,618.5C 654.08,620.749 655.413,622.415 657.5,623.5C 661.321,627.806 664.655,632.473 667.5,637.5C 668.08,639.749 669.413,641.415 671.5,642.5C 676.881,649.216 681.881,656.216 686.5,663.5C 687.08,665.749 688.413,667.415 690.5,668.5C 701.096,682.462 711.429,696.796 721.5,711.5C 722.08,713.749 723.413,715.415 725.5,716.5C 741.547,737.882 757.213,759.549 772.5,781.5C 773.08,783.749 774.413,785.415 776.5,786.5C 780.321,790.806 783.655,795.473 786.5,800.5C 787.08,802.749 788.413,804.415 790.5,805.5C 811.32,833.137 831.653,861.137 851.5,889.5C 852.08,891.749 853.413,893.415 855.5,894.5C 860.881,901.216 865.881,908.216 870.5,915.5C 871.08,917.749 872.413,919.415 874.5,920.5C 885.214,934.549 895.547,948.882 905.5,963.5C 906.08,965.749 907.413,967.415 909.5,968.5C 914.881,975.216 919.881,982.216 924.5,989.5C 925.08,991.749 926.413,993.415 928.5,994.5C 935.258,1003.68 942.258,1012.68 949.5,1021.5C 947.539,1023.96 945.372,1026.3 943,1028.5C 942.209,1029.74 941.709,1031.08 941.5,1032.5C 940.272,1031.69 939.272,1030.69 938.5,1029.5C 937.92,1027.25 936.587,1025.58 934.5,1024.5C 933.92,1022.25 932.587,1020.58 930.5,1019.5C 929.99,1016.33 928.323,1013.99 925.5,1012.5C 925.672,1011.51 925.338,1010.84 924.5,1010.5C 921.984,1006.13 918.984,1002.13 915.5,998.5C 914.567,995.63 912.9,993.296 910.5,991.5C 909.92,989.251 908.587,987.585 906.5,986.5C 905.99,983.326 904.323,980.992 901.5,979.5C 899.656,975.808 897.323,972.475 894.5,969.5C 893.92,967.251 892.587,965.585 890.5,964.5C 890.672,963.508 890.338,962.842 889.5,962.5C 888.92,960.251 887.587,958.585 885.5,957.5C 885.573,955.973 884.906,954.973 883.5,954.5C 881.984,951.467 879.984,948.8 877.5,946.5C 876.567,943.63 874.9,941.296 872.5,939.5C 870.984,936.467 868.984,933.8 866.5,931.5C 864.938,927.608 862.605,924.275 859.5,921.5C 858.92,919.251 857.587,917.585 855.5,916.5C 853.938,912.608 851.605,909.275 848.5,906.5C 846.542,903.208 844.209,900.208 841.5,897.5C 840.99,894.326 839.323,891.992 836.5,890.5C 831.603,881.939 825.937,873.939 819.5,866.5C 818.92,864.251 817.587,862.585 815.5,861.5C 814.92,859.251 813.587,857.585 811.5,856.5C 810.277,852.951 808.277,849.951 805.5,847.5C 802.564,841.959 798.897,836.959 794.5,832.5C 793.92,830.251 792.587,828.585 790.5,827.5C 788.237,822.635 785.237,818.302 781.5,814.5C 779.984,811.467 777.984,808.8 775.5,806.5C 774.92,804.251 773.587,802.585 771.5,801.5C 770.241,797.975 768.241,794.975 765.5,792.5C 764.92,790.251 763.587,788.585 761.5,787.5C 760.567,784.63 758.9,782.296 756.5,780.5C 755.567,777.63 753.9,775.296 751.5,773.5C 750.92,771.251 749.587,769.585 747.5,768.5C 747.672,767.508 747.338,766.842 746.5,766.5C 745.92,764.251 744.587,762.585 742.5,761.5C 742.573,759.973 741.906,758.973 740.5,758.5C 737.564,752.959 733.897,747.959 729.5,743.5C 727.565,739.293 724.898,735.627 721.5,732.5C 720.92,730.251 719.587,728.585 717.5,727.5C 717.672,726.508 717.338,725.842 716.5,725.5C 715.92,723.251 714.587,721.585 712.5,720.5C 712.672,719.508 712.338,718.842 711.5,718.5C 710.92,716.251 709.587,714.585 707.5,713.5C 707.672,712.508 707.338,711.842 706.5,711.5C 705.92,709.251 704.587,707.585 702.5,706.5C 701.567,703.63 699.9,701.296 697.5,699.5C 696.567,696.63 694.9,694.296 692.5,692.5C 691.92,690.251 690.587,688.585 688.5,687.5C 688.573,685.973 687.906,684.973 686.5,684.5C 685.92,682.251 684.587,680.585 682.5,679.5C 682.672,678.508 682.338,677.842 681.5,677.5C 680.92,675.251 679.587,673.585 677.5,672.5C 677.672,671.508 677.338,670.842 676.5,670.5C 675.92,668.251 674.587,666.585 672.5,665.5C 669.235,659.299 665.235,653.632 660.5,648.5C 659.92,646.251 658.587,644.585 656.5,643.5C 655.551,641.223 654.218,639.223 652.5,637.5C 651.92,635.251 650.587,633.585 648.5,632.5C 648.262,630.596 647.262,629.262 645.5,628.5C 643.145,623.12 639.812,618.454 635.5,614.5C 633.075,610.648 630.409,606.981 627.5,603.5C 626.92,601.251 625.587,599.585 623.5,598.5C 623.672,597.508 623.338,596.842 622.5,596.5C 621.92,594.251 620.587,592.585 618.5,591.5C 617.567,588.63 615.9,586.296 613.5,584.5C 610.564,578.959 606.897,573.959 602.5,569.5C 601.567,566.63 599.9,564.296 597.5,562.5C 596.214,559.883 594.547,557.55 592.5,555.5C 591.92,553.251 590.587,551.585 588.5,550.5C 588.672,549.508 588.338,548.842 587.5,548.5C 586.92,546.251 585.587,544.585 583.5,543.5C 582.567,540.63 580.9,538.296 578.5,536.5C 577.567,533.63 575.9,531.296 573.5,529.5C 571.984,526.467 569.984,523.8 567.5,521.5C 566.214,518.883 564.547,516.55 562.5,514.5C 561.92,512.251 560.587,510.585 558.5,509.5C 557.99,506.326 556.323,503.992 553.5,502.5C 553.672,501.508 553.338,500.842 552.5,500.5C 551.92,498.251 550.587,496.585 548.5,495.5C 545.655,490.473 542.321,485.806 538.5,481.5C 537.92,479.251 536.587,477.585 534.5,476.5C 533.99,473.326 532.323,470.992 529.5,469.5C 529.262,467.596 528.262,466.262 526.5,465.5C 524.565,461.293 521.898,457.627 518.5,454.5C 517.567,451.63 515.9,449.296 513.5,447.5C 512.567,444.63 510.9,442.296 508.5,440.5C 507.92,438.251 506.587,436.585 504.5,435.5C 504.672,434.508 504.338,433.842 503.5,433.5C 502.92,431.251 501.587,429.585 499.5,428.5C 498.99,425.326 497.323,422.992 494.5,421.5C 491.564,415.959 487.897,410.959 483.5,406.5C 481.6,402.268 478.933,398.601 475.5,395.5C 473.656,391.808 471.323,388.475 468.5,385.5C 467.92,383.251 466.587,381.585 464.5,380.5C 464.672,379.508 464.338,378.842 463.5,378.5C 462.92,376.251 461.587,374.585 459.5,373.5C 458.567,370.63 456.9,368.296 454.5,366.5C 453.969,364.456 452.802,362.789 451,361.5C 450.505,359.527 450.338,357.527 450.5,355.5C 453.518,353.537 456.851,353.037 460.5,354C 461.749,355.98 463.082,357.813 464.5,359.5 Z"/></g>
<g><path style="opacity:1" fill="#070707" d="M 1463.5,352.5 C 1465.17,352.5 1466.83,352.5 1468.5,352.5C 1471.64,355.636 1472.3,359.303 1470.5,363.5C 1468.41,364.585 1467.08,366.251 1466.5,368.5C 1464.02,370.8 1462.02,373.467 1460.5,376.5C 1458.1,378.296 1456.43,380.63 1455.5,383.5C 1453.1,385.296 1451.43,387.63 1450.5,390.5C 1448.41,391.585 1447.08,393.251 1446.5,395.5C 1440.77,401.963 1435.77,408.963 1431.5,416.5C 1428.53,418.443 1426.53,421.109 1425.5,424.5C 1423.1,426.296 1421.43,428.63 1420.5,431.5C 1418.74,432.262 1417.74,433.596 1417.5,435.5C 1415.1,437.296 1413.43,439.63 1412.5,442.5C 1410.02,444.8 1408.02,447.467 1406.5,450.5C 1404.1,452.296 1402.43,454.63 1401.5,457.5C 1399.1,459.296 1397.43,461.63 1396.5,464.5C 1393.68,465.992 1392.01,468.326 1391.5,471.5C 1388.53,473.443 1386.53,476.109 1385.5,479.5C 1382.07,482.601 1379.4,486.268 1377.5,490.5C 1373.1,494.959 1369.44,499.959 1366.5,505.5C 1364.1,507.296 1362.43,509.63 1361.5,512.5C 1358.53,514.443 1356.53,517.109 1355.5,520.5C 1350.4,525.936 1346.07,531.936 1342.5,538.5C 1339.68,539.992 1338.01,542.326 1337.5,545.5C 1335.41,546.585 1334.08,548.251 1333.5,550.5C 1330.4,553.275 1328.06,556.608 1326.5,560.5C 1324.02,562.8 1322.02,565.467 1320.5,568.5C 1318.1,570.296 1316.43,572.63 1315.5,575.5C 1312.07,578.601 1309.4,582.268 1307.5,586.5C 1305.02,588.8 1303.02,591.467 1301.5,594.5C 1299.1,596.296 1297.43,598.63 1296.5,601.5C 1294.02,603.8 1292.02,606.467 1290.5,609.5C 1287.07,612.601 1284.4,616.268 1282.5,620.5C 1280.1,622.296 1278.43,624.63 1277.5,627.5C 1275.1,629.296 1273.43,631.63 1272.5,634.5C 1268.1,638.959 1264.44,643.959 1261.5,649.5C 1259.02,651.8 1257.02,654.467 1255.5,657.5C 1252.1,660.627 1249.44,664.293 1247.5,668.5C 1245.1,670.296 1243.43,672.63 1242.5,675.5C 1240.1,677.296 1238.43,679.63 1237.5,682.5C 1234.53,684.443 1232.53,687.109 1231.5,690.5C 1229.02,692.8 1227.02,695.467 1225.5,698.5C 1224.09,698.973 1223.43,699.973 1223.5,701.5C 1222.21,702.29 1221.04,703.29 1220,704.5C 1217.25,708.402 1214.75,712.402 1212.5,716.5C 1210.1,718.296 1208.43,720.63 1207.5,723.5C 1205.74,724.262 1204.74,725.596 1204.5,727.5C 1202.02,729.8 1200.02,732.467 1198.5,735.5C 1192.77,741.963 1187.77,748.963 1183.5,756.5C 1180.68,757.992 1179.01,760.326 1178.5,763.5C 1176.41,764.585 1175.08,766.251 1174.5,768.5C 1171.1,771.627 1168.44,775.293 1166.5,779.5C 1161.4,784.936 1157.07,790.936 1153.5,797.5C 1151.1,799.296 1149.43,801.63 1148.5,804.5C 1146.02,806.8 1144.02,809.467 1142.5,812.5C 1140.74,813.262 1139.74,814.596 1139.5,816.5C 1133.77,822.963 1128.77,829.963 1124.5,837.5C 1121.53,839.443 1119.53,842.109 1118.5,845.5C 1116.1,847.296 1114.43,849.63 1113.5,852.5C 1111.02,854.8 1109.02,857.467 1107.5,860.5C 1105.1,862.296 1103.43,864.63 1102.5,867.5C 1100.74,868.262 1099.74,869.596 1099.5,871.5C 1097.1,873.296 1095.43,875.63 1094.5,878.5C 1092.1,880.296 1090.43,882.63 1089.5,885.5C 1086.53,887.443 1084.53,890.109 1083.5,893.5C 1081.1,895.296 1079.43,897.63 1078.5,900.5C 1075.07,903.601 1072.4,907.268 1070.5,911.5C 1066.1,915.959 1062.44,920.959 1059.5,926.5C 1057.1,928.296 1055.43,930.63 1054.5,933.5C 1051.53,935.443 1049.53,938.109 1048.5,941.5C 1044.1,945.959 1040.44,950.959 1037.5,956.5C 1034.07,959.601 1031.4,963.268 1029.5,967.5C 1027.1,969.296 1025.43,971.63 1024.5,974.5C 1021.68,975.992 1020.01,978.326 1019.5,981.5C 1014.07,987.266 1009.4,993.599 1005.5,1000.5C 1002.53,1002.44 1000.53,1005.11 999.5,1008.5C 997.1,1010.3 995.433,1012.63 994.5,1015.5C 992.738,1016.26 991.738,1017.6 991.5,1019.5C 989.016,1021.8 987.016,1024.47 985.5,1027.5C 984.167,1028.83 982.833,1030.17 981.5,1031.5C 979.303,1027.76 976.636,1024.43 973.5,1021.5C 973.833,1021.5 974.167,1021.5 974.5,1021.5C 976.326,1019.85 977.66,1017.85 978.5,1015.5C 982.546,1010.79 986.212,1005.79 989.5,1000.5C 993.897,996.041 997.564,991.041 1000.5,985.5C 1005.9,979.709 1010.56,973.376 1014.5,966.5C 1016.55,964.45 1018.21,962.117 1019.5,959.5C 1021.9,957.704 1023.57,955.37 1024.5,952.5C 1026.9,950.704 1028.57,948.37 1029.5,945.5C 1029.74,943.596 1030.74,942.262 1032.5,941.5C 1036.55,936.786 1040.21,931.786 1043.5,926.5C 1047.55,921.786 1051.21,916.786 1054.5,911.5C 1063.23,901.04 1071.23,890.04 1078.5,878.5C 1080.98,876.2 1082.98,873.533 1084.5,870.5C 1089.32,864.862 1093.65,858.862 1097.5,852.5C 1101.55,847.786 1105.21,842.786 1108.5,837.5C 1117.32,826.531 1125.65,815.197 1133.5,803.5C 1135.55,801.45 1137.21,799.117 1138.5,796.5C 1142.81,792.546 1146.15,787.88 1148.5,782.5C 1154.26,776.404 1159.26,769.738 1163.5,762.5C 1173.93,749.731 1183.6,736.398 1192.5,722.5C 1196.9,718.041 1200.56,713.041 1203.5,707.5C 1208.32,701.862 1212.65,695.862 1216.5,689.5C 1220.55,684.786 1224.21,679.786 1227.5,674.5C 1238.27,661.4 1248.27,647.733 1257.5,633.5C 1266.32,622.531 1274.65,611.197 1282.5,599.5C 1284.33,597.853 1285.66,595.853 1286.5,593.5C 1295.6,582.734 1303.93,571.401 1311.5,559.5C 1315.55,554.786 1319.21,549.786 1322.5,544.5C 1331.23,534.04 1339.23,523.04 1346.5,511.5C 1348.55,509.45 1350.21,507.117 1351.5,504.5C 1356.9,498.709 1361.56,492.376 1365.5,485.5C 1369.55,480.786 1373.21,475.786 1376.5,470.5C 1385.23,460.04 1393.23,449.04 1400.5,437.5C 1402.9,435.704 1404.57,433.37 1405.5,430.5C 1407.98,428.2 1409.98,425.533 1411.5,422.5C 1413.55,420.45 1415.21,418.117 1416.5,415.5C 1421.9,409.709 1426.56,403.376 1430.5,396.5C 1434.9,392.041 1438.56,387.041 1441.5,381.5C 1443.33,379.853 1444.66,377.853 1445.5,375.5C 1451.73,368.054 1457.73,360.387 1463.5,352.5 Z"/></g>
<g><path style="opacity:1" fill="#787878" d="M 1468.5,352.5 C 1470.02,352.511 1471.18,353.177 1472,354.5C 1472.67,357.167 1472.67,359.833 1472,362.5C 1471.62,363.056 1471.12,363.389 1470.5,363.5C 1472.3,359.303 1471.64,355.636 1468.5,352.5 Z"/></g>
<g><path style="opacity:1" fill="#7a7a7a" d="M 1463.5,352.5 C 1457.73,360.387 1451.73,368.054 1445.5,375.5C 1449.75,368.732 1454.25,362.066 1459,355.5C 1460.13,353.859 1461.63,352.859 1463.5,352.5 Z"/></g>
<g><path style="opacity:1" fill="#9e9e9e" d="M 450.5,355.5 C 450.338,357.527 450.505,359.527 451,361.5C 452.802,362.789 453.969,364.456 454.5,366.5C 449.725,363.971 448.392,360.304 450.5,355.5 Z"/></g>
<g><path style="opacity:1" fill="#5d5d5d" d="M 464.5,359.5 C 466.587,360.585 467.92,362.251 468.5,364.5C 466.413,363.415 465.08,361.749 464.5,359.5 Z"/></g>
<g><path style="opacity:1" fill="#898989" d="M 1470.5,363.5 C 1469.92,365.749 1468.59,367.415 1466.5,368.5C 1467.08,366.251 1468.41,364.585 1470.5,363.5 Z"/></g>
<g><path style="opacity:1" fill="#b0b0b0" d="M 1466.5,368.5 C 1466.44,372.568 1464.44,375.235 1460.5,376.5C 1462.02,373.467 1464.02,370.8 1466.5,368.5 Z"/></g>
<g><path style="opacity:1" fill="#797979" d="M 459.5,373.5 C 461.587,374.585 462.92,376.251 463.5,378.5C 461.413,377.415 460.08,375.749 459.5,373.5 Z"/></g>
<g><path style="opacity:1" fill="#858585" d="M 1445.5,375.5 C 1444.66,377.853 1443.33,379.853 1441.5,381.5C 1441.84,378.802 1443.18,376.802 1445.5,375.5 Z"/></g>
<g><path style="opacity:1" fill="#7b7b7b" d="M 1460.5,376.5 C 1459.57,379.37 1457.9,381.704 1455.5,383.5C 1456.43,380.63 1458.1,378.296 1460.5,376.5 Z"/></g>
<g><path style="opacity:1" fill="#818181" d="M 464.5,380.5 C 466.587,381.585 467.92,383.251 468.5,385.5C 466.413,384.415 465.08,382.749 464.5,380.5 Z"/></g>
<g><path style="opacity:1" fill="#606060" d="M 483.5,385.5 C 485.587,386.585 486.92,388.251 487.5,390.5C 485.413,389.415 484.08,387.749 483.5,385.5 Z"/></g>
<g><path style="opacity:1" fill="#828282" d="M 1455.5,383.5 C 1454.57,386.37 1452.9,388.704 1450.5,390.5C 1451.43,387.63 1453.1,385.296 1455.5,383.5 Z"/></g>
<g><path style="opacity:1" fill="#747474" d="M 1441.5,381.5 C 1438.56,387.041 1434.9,392.041 1430.5,396.5C 1433.44,390.959 1437.1,385.959 1441.5,381.5 Z"/></g>
<g><path style="opacity:1" fill="#737373" d="M 1450.5,390.5 C 1449.92,392.749 1448.59,394.415 1446.5,395.5C 1447.08,393.251 1448.41,391.585 1450.5,390.5 Z"/></g>
<g><path style="opacity:1" fill="#acacac" d="M 475.5,395.5 C 478.933,398.601 481.6,402.268 483.5,406.5C 481.414,404.572 479.247,402.572 477,400.5C 476.392,398.846 475.892,397.179 475.5,395.5 Z"/></g>
<g><path style="opacity:1" fill="#808080" d="M 1430.5,396.5 C 1426.56,403.376 1421.9,409.709 1416.5,415.5C 1420.4,408.599 1425.07,402.266 1430.5,396.5 Z"/></g>
<g><path style="opacity:1" fill="#9e9e9e" d="M 1446.5,395.5 C 1443.44,403.895 1438.44,410.895 1431.5,416.5C 1435.77,408.963 1440.77,401.963 1446.5,395.5 Z"/></g>
<g><path style="opacity:1" fill="#868686" d="M 1416.5,415.5 C 1415.21,418.117 1413.55,420.45 1411.5,422.5C 1412.01,419.326 1413.68,416.992 1416.5,415.5 Z"/></g>
<g><path style="opacity:1" fill="#717171" d="M 1431.5,416.5 C 1429.98,419.533 1427.98,422.2 1425.5,424.5C 1426.53,421.109 1428.53,418.443 1431.5,416.5 Z"/></g>
<g><path style="opacity:1" fill="#959595" d="M 494.5,421.5 C 497.323,422.992 498.99,425.326 499.5,428.5C 498.504,428.586 497.671,428.252 497,427.5C 496.345,425.372 495.511,423.372 494.5,421.5 Z"/></g>
<g><path style="opacity:1" fill="#838383" d="M 1411.5,422.5 C 1409.98,425.533 1407.98,428.2 1405.5,430.5C 1406.53,427.109 1408.53,424.443 1411.5,422.5 Z"/></g>
<g><path style="opacity:1" fill="#7b7b7b" d="M 1425.5,424.5 C 1424.57,427.37 1422.9,429.704 1420.5,431.5C 1421.43,428.63 1423.1,426.296 1425.5,424.5 Z"/></g>
<g><path style="opacity:1" fill="#848484" d="M 499.5,428.5 C 501.587,429.585 502.92,431.251 503.5,433.5C 501.413,432.415 500.08,430.749 499.5,428.5 Z"/></g>
<g><path style="opacity:1" fill="#787878" d="M 1405.5,430.5 C 1404.57,433.37 1402.9,435.704 1400.5,437.5C 1401.43,434.63 1403.1,432.296 1405.5,430.5 Z"/></g>
<g><path style="opacity:1" fill="#7f7f7f" d="M 1417.5,435.5 C 1416.57,438.37 1414.9,440.704 1412.5,442.5C 1413.43,439.63 1415.1,437.296 1417.5,435.5 Z"/></g>
<g><path style="opacity:1" fill="#949494" d="M 504.5,435.5 C 506.587,436.585 507.92,438.251 508.5,440.5C 506.413,439.415 505.08,437.749 504.5,435.5 Z"/></g>
<g><path style="opacity:1" fill="#5c5c5c" d="M 518.5,433.5 C 520.587,434.585 521.92,436.251 522.5,438.5C 520.413,437.415 519.08,435.749 518.5,433.5 Z"/></g>
<g><path style="opacity:1" fill="#b5b5b5" d="M 508.5,440.5 C 510.9,442.296 512.567,444.63 513.5,447.5C 509.88,446.548 508.213,444.215 508.5,440.5 Z"/></g>
<g><path style="opacity:1" fill="#afafaf" d="M 1412.5,442.5 C 1412.44,446.568 1410.44,449.235 1406.5,450.5C 1408.02,447.467 1410.02,444.8 1412.5,442.5 Z"/></g>
<g><path style="opacity:1" fill="#7d7d7d" d="M 1400.5,437.5 C 1393.23,449.04 1385.23,460.04 1376.5,470.5C 1376.71,469.078 1377.21,467.745 1378,466.5C 1385.04,456.403 1392.54,446.736 1400.5,437.5 Z"/></g>
<g><path style="opacity:1" fill="#606060" d="M 529.5,448.5 C 531.587,449.585 532.92,451.251 533.5,453.5C 531.413,452.415 530.08,450.749 529.5,448.5 Z"/></g>
<g><path style="opacity:1" fill="#7a7a7a" d="M 1406.5,450.5 C 1405.57,453.37 1403.9,455.704 1401.5,457.5C 1402.43,454.63 1404.1,452.296 1406.5,450.5 Z"/></g>
<g><path style="opacity:1" fill="#b2b2b2" d="M 518.5,454.5 C 521.898,457.627 524.565,461.293 526.5,465.5C 522.296,462.961 519.63,459.295 518.5,454.5 Z"/></g>
<g><path style="opacity:1" fill="#828282" d="M 1401.5,457.5 C 1400.57,460.37 1398.9,462.704 1396.5,464.5C 1397.43,461.63 1399.1,459.296 1401.5,457.5 Z"/></g>
<g><path style="opacity:1" fill="#777777" d="M 1396.5,464.5 C 1395.21,467.117 1393.55,469.45 1391.5,471.5C 1392.01,468.326 1393.68,465.992 1396.5,464.5 Z"/></g>
<g><path style="opacity:1" fill="#b1b1b1" d="M 529.5,469.5 C 532.323,470.992 533.99,473.326 534.5,476.5C 531.231,475.44 529.565,473.107 529.5,469.5 Z"/></g>
<g><path style="opacity:1" fill="#7c7c7c" d="M 1391.5,471.5 C 1389.98,474.533 1387.98,477.2 1385.5,479.5C 1386.53,476.109 1388.53,473.443 1391.5,471.5 Z"/></g>
<g><path style="opacity:1" fill="#7e7e7e" d="M 1376.5,470.5 C 1373.21,475.786 1369.55,480.786 1365.5,485.5C 1368.01,479.652 1371.68,474.652 1376.5,470.5 Z"/></g>
<g><path style="opacity:1" fill="#8c8c8c" d="M 534.5,476.5 C 536.587,477.585 537.92,479.251 538.5,481.5C 536.413,480.415 535.08,478.749 534.5,476.5 Z"/></g>
<g><path style="opacity:1" fill="#626262" d="M 548.5,474.5 C 550.587,475.585 551.92,477.251 552.5,479.5C 550.413,478.415 549.08,476.749 548.5,474.5 Z"/></g>
<g><path style="opacity:1" fill="#838383" d="M 1385.5,479.5 C 1383.6,483.732 1380.93,487.399 1377.5,490.5C 1379.4,486.268 1382.07,482.601 1385.5,479.5 Z"/></g>
<g><path style="opacity:1" fill="#808080" d="M 1365.5,485.5 C 1361.56,492.376 1356.9,498.709 1351.5,504.5C 1355.4,497.599 1360.07,491.266 1365.5,485.5 Z"/></g>
<g><path style="opacity:1" fill="#797979" d="M 548.5,495.5 C 550.587,496.585 551.92,498.251 552.5,500.5C 550.413,499.415 549.08,497.749 548.5,495.5 Z"/></g>
<g><path style="opacity:1" fill="#797979" d="M 1377.5,490.5 C 1374.56,496.041 1370.9,501.041 1366.5,505.5C 1369.44,499.959 1373.1,494.959 1377.5,490.5 Z"/></g>
<g><path style="opacity:1" fill="#b0b0b0" d="M 553.5,502.5 C 556.323,503.992 557.99,506.326 558.5,509.5C 555.231,508.44 553.565,506.107 553.5,502.5 Z"/></g>
<g><path style="opacity:1" fill="#838383" d="M 1366.5,505.5 C 1365.57,508.37 1363.9,510.704 1361.5,512.5C 1362.43,509.63 1364.1,507.296 1366.5,505.5 Z"/></g>
<g><path style="opacity:1" fill="#898989" d="M 1351.5,504.5 C 1350.21,507.117 1348.55,509.45 1346.5,511.5C 1347.01,508.326 1348.68,505.992 1351.5,504.5 Z"/></g>
<g><path style="opacity:1" fill="#898989" d="M 558.5,509.5 C 560.587,510.585 561.92,512.251 562.5,514.5C 560.413,513.415 559.08,511.749 558.5,509.5 Z"/></g>
<g><path style="opacity:1" fill="#7c7c7c" d="M 1361.5,512.5 C 1359.98,515.533 1357.98,518.2 1355.5,520.5C 1356.53,517.109 1358.53,514.443 1361.5,512.5 Z"/></g>
<g><path style="opacity:1" fill="#7d7d7d" d="M 1346.5,511.5 C 1339.23,523.04 1331.23,534.04 1322.5,544.5C 1324.41,540.738 1326.58,537.071 1329,533.5C 1334.61,525.915 1340.45,518.582 1346.5,511.5 Z"/></g>
<g><path style="opacity:1" fill="#b6b6b6" d="M 567.5,521.5 C 569.984,523.8 571.984,526.467 573.5,529.5C 569.562,528.235 567.562,525.568 567.5,521.5 Z"/></g>
<g><path style="opacity:1" fill="#5f5f5f" d="M 583.5,522.5 C 585.587,523.585 586.92,525.251 587.5,527.5C 585.413,526.415 584.08,524.749 583.5,522.5 Z"/></g>
<g><path style="opacity:1" fill="#acacac" d="M 1355.5,520.5 C 1355.85,523.99 1354.35,526.323 1351,527.5C 1350.08,532.677 1347.25,536.343 1342.5,538.5C 1346.07,531.936 1350.4,525.936 1355.5,520.5 Z"/></g>
<g><path style="opacity:1" fill="#b6b6b6" d="M 578.5,536.5 C 580.9,538.296 582.567,540.63 583.5,543.5C 579.88,542.548 578.213,540.215 578.5,536.5 Z"/></g>
<g><path style="opacity:1" fill="#767676" d="M 1342.5,538.5 C 1341.21,541.117 1339.55,543.45 1337.5,545.5C 1338.01,542.326 1339.68,539.992 1342.5,538.5 Z"/></g>
<g><path style="opacity:1" fill="#7b7b7b" d="M 583.5,543.5 C 585.587,544.585 586.92,546.251 587.5,548.5C 585.413,547.415 584.08,545.749 583.5,543.5 Z"/></g>
<g><path style="opacity:1" fill="#797979" d="M 1337.5,545.5 C 1336.92,547.749 1335.59,549.415 1333.5,550.5C 1334.08,548.251 1335.41,546.585 1337.5,545.5 Z"/></g>
<g><path style="opacity:1" fill="#7e7e7e" d="M 1322.5,544.5 C 1319.21,549.786 1315.55,554.786 1311.5,559.5C 1314.01,553.652 1317.68,548.652 1322.5,544.5 Z"/></g>
<g><path style="opacity:1" fill="#8b8b8b" d="M 588.5,550.5 C 590.587,551.585 591.92,553.251 592.5,555.5C 590.413,554.415 589.08,552.749 588.5,550.5 Z"/></g>
<g><path style="opacity:1" fill="#606060" d="M 602.5,548.5 C 604.587,549.585 605.92,551.251 606.5,553.5C 604.413,552.415 603.08,550.749 602.5,548.5 Z"/></g>
<g><path style="opacity:1" fill="#959595" d="M 1333.5,550.5 C 1333.66,551.873 1333.49,553.207 1333,554.5C 1330.61,556.293 1328.45,558.293 1326.5,560.5C 1328.06,556.608 1330.4,553.275 1333.5,550.5 Z"/></g>
<g><path style="opacity:1" fill="#b3b3b3" d="M 1326.5,560.5 C 1326.44,564.568 1324.44,567.235 1320.5,568.5C 1322.02,565.467 1324.02,562.8 1326.5,560.5 Z"/></g>
<g><path style="opacity:1" fill="#b6b6b6" d="M 597.5,562.5 C 599.9,564.296 601.567,566.63 602.5,569.5C 598.88,568.548 597.213,566.215 597.5,562.5 Z"/></g>
<g><path style="opacity:1" fill="#666666" d="M 613.5,563.5 C 615.587,564.585 616.92,566.251 617.5,568.5C 615.413,567.415 614.08,565.749 613.5,563.5 Z"/></g>
<g><path style="opacity:1" fill="#7d7d7d" d="M 1311.5,559.5 C 1303.93,571.401 1295.6,582.734 1286.5,593.5C 1294.07,581.599 1302.4,570.266 1311.5,559.5 Z"/></g>
<g><path style="opacity:1" fill="#818181" d="M 1320.5,568.5 C 1319.57,571.37 1317.9,573.704 1315.5,575.5C 1316.43,572.63 1318.1,570.296 1320.5,568.5 Z"/></g>
<g><path style="opacity:1" fill="#b0b0b0" d="M 602.5,569.5 C 606.897,573.959 610.564,578.959 613.5,584.5C 611.265,583.772 609.432,582.439 608,580.5C 607.07,577.638 605.403,575.305 603,573.5C 602.51,572.207 602.343,570.873 602.5,569.5 Z"/></g>
<g><path style="opacity:1" fill="#979797" d="M 1315.5,575.5 C 1315.66,576.873 1315.49,578.207 1315,579.5C 1312.05,581.431 1309.55,583.764 1307.5,586.5C 1309.4,582.268 1312.07,578.601 1315.5,575.5 Z"/></g>
<g><path style="opacity:1" fill="#b7b7b7" d="M 613.5,584.5 C 615.9,586.296 617.567,588.63 618.5,591.5C 614.88,590.548 613.213,588.215 613.5,584.5 Z"/></g>
<g><path style="opacity:1" fill="#b3b3b3" d="M 1307.5,586.5 C 1307.44,590.568 1305.44,593.235 1301.5,594.5C 1303.02,591.467 1305.02,588.8 1307.5,586.5 Z"/></g>
<g><path style="opacity:1" fill="#858585" d="M 618.5,591.5 C 620.587,592.585 621.92,594.251 622.5,596.5C 620.413,595.415 619.08,593.749 618.5,591.5 Z"/></g>
<g><path style="opacity:1" fill="#7b7b7b" d="M 1286.5,593.5 C 1285.66,595.853 1284.33,597.853 1282.5,599.5C 1282.84,596.802 1284.18,594.802 1286.5,593.5 Z"/></g>
<g><path style="opacity:1" fill="#7f7f7f" d="M 1301.5,594.5 C 1300.57,597.37 1298.9,599.704 1296.5,601.5C 1297.43,598.63 1299.1,596.296 1301.5,594.5 Z"/></g>
<g><path style="opacity:1" fill="#8e8e8e" d="M 623.5,598.5 C 625.587,599.585 626.92,601.251 627.5,603.5C 625.413,602.415 624.08,600.749 623.5,598.5 Z"/></g>
<g><path style="opacity:1" fill="#808080" d="M 1296.5,601.5 C 1295.47,604.891 1293.47,607.557 1290.5,609.5C 1292.02,606.467 1294.02,603.8 1296.5,601.5 Z"/></g>
<g><path style="opacity:1" fill="#adadad" d="M 627.5,603.5 C 630.409,606.981 633.075,610.648 635.5,614.5C 631.102,612.018 628.436,608.352 627.5,603.5 Z"/></g>
<g><path style="opacity:1" fill="#aaaaaa" d="M 1290.5,609.5 C 1290.04,614.745 1287.37,618.411 1282.5,620.5C 1284.4,616.268 1287.07,612.601 1290.5,609.5 Z"/></g>
<g><path style="opacity:1" fill="#808080" d="M 1282.5,599.5 C 1274.65,611.197 1266.32,622.531 1257.5,633.5C 1263.09,624.733 1268.92,616.066 1275,607.5C 1277.28,604.568 1279.78,601.902 1282.5,599.5 Z"/></g>
<g><path style="opacity:1" fill="#b6b6b6" d="M 635.5,614.5 C 639.812,618.454 643.145,623.12 645.5,628.5C 640.181,625.191 636.847,620.525 635.5,614.5 Z"/></g>
<g><path style="opacity:1" fill="#5b5b5b" d="M 653.5,618.5 C 655.587,619.585 656.92,621.251 657.5,623.5C 655.413,622.415 654.08,620.749 653.5,618.5 Z"/></g>
<g><path style="opacity:1" fill="#858585" d="M 1277.5,627.5 C 1276.57,630.37 1274.9,632.704 1272.5,634.5C 1273.43,631.63 1275.1,629.296 1277.5,627.5 Z"/></g>
<g><path style="opacity:1" fill="#767676" d="M 648.5,632.5 C 650.587,633.585 651.92,635.251 652.5,637.5C 650.413,636.415 649.08,634.749 648.5,632.5 Z"/></g>
<g><path style="opacity:1" fill="#656565" d="M 667.5,637.5 C 669.587,638.585 670.92,640.251 671.5,642.5C 669.413,641.415 668.08,639.749 667.5,637.5 Z"/></g>
<g><path style="opacity:1" fill="#a3a3a3" d="M 1272.5,634.5 C 1270.72,640.936 1267.06,645.936 1261.5,649.5C 1264.44,643.959 1268.1,638.959 1272.5,634.5 Z"/></g>
<g><path style="opacity:1" fill="#797979" d="M 656.5,643.5 C 658.587,644.585 659.92,646.251 660.5,648.5C 658.413,647.415 657.08,645.749 656.5,643.5 Z"/></g>
<g><path style="opacity:1" fill="#7c7c7c" d="M 1257.5,633.5 C 1248.27,647.733 1238.27,661.4 1227.5,674.5C 1231.42,668.067 1235.58,661.733 1240,655.5C 1245.61,647.915 1251.45,640.582 1257.5,633.5 Z"/></g>
<g><path style="opacity:1" fill="#afafaf" d="M 1261.5,649.5 C 1261.44,653.568 1259.44,656.235 1255.5,657.5C 1257.02,654.467 1259.02,651.8 1261.5,649.5 Z"/></g>
<g><path style="opacity:1" fill="#676767" d="M 686.5,663.5 C 688.587,664.585 689.92,666.251 690.5,668.5C 688.413,667.415 687.08,665.749 686.5,663.5 Z"/></g>
<g><path style="opacity:1" fill="#7c7c7c" d="M 672.5,665.5 C 674.587,666.585 675.92,668.251 676.5,670.5C 674.413,669.415 673.08,667.749 672.5,665.5 Z"/></g>
<g><path style="opacity:1" fill="#7e7e7e" d="M 1247.5,668.5 C 1246.57,671.37 1244.9,673.704 1242.5,675.5C 1243.43,672.63 1245.1,670.296 1247.5,668.5 Z"/></g>
<g><path style="opacity:1" fill="#848484" d="M 677.5,672.5 C 679.587,673.585 680.92,675.251 681.5,677.5C 679.413,676.415 678.08,674.749 677.5,672.5 Z"/></g>
<g><path style="opacity:1" fill="#b2b2b2" d="M 1242.5,675.5 C 1242.79,679.215 1241.12,681.548 1237.5,682.5C 1238.43,679.63 1240.1,677.296 1242.5,675.5 Z"/></g>
<g><path style="opacity:1" fill="#969696" d="M 682.5,679.5 C 684.587,680.585 685.92,682.251 686.5,684.5C 684.413,683.415 683.08,681.749 682.5,679.5 Z"/></g>
<g><path style="opacity:1" fill="#838383" d="M 1227.5,674.5 C 1224.21,679.786 1220.55,684.786 1216.5,689.5C 1219.01,683.652 1222.68,678.652 1227.5,674.5 Z"/></g>
<g><path style="opacity:1" fill="#777777" d="M 1237.5,682.5 C 1235.98,685.533 1233.98,688.2 1231.5,690.5C 1232.53,687.109 1234.53,684.443 1237.5,682.5 Z"/></g>
<g><path style="opacity:1" fill="#898989" d="M 688.5,687.5 C 690.587,688.585 691.92,690.251 692.5,692.5C 690.413,691.415 689.08,689.749 688.5,687.5 Z"/></g>
<g><path style="opacity:1" fill="#a8a8a8" d="M 1231.5,690.5 C 1231.44,694.568 1229.44,697.235 1225.5,698.5C 1227.02,695.467 1229.02,692.8 1231.5,690.5 Z"/></g>
<g><path style="opacity:1" fill="#777777" d="M 1216.5,689.5 C 1212.65,695.862 1208.32,701.862 1203.5,707.5C 1206.86,700.785 1211.19,694.785 1216.5,689.5 Z"/></g>
<g><path style="opacity:1" fill="#cecece" d="M 697.5,699.5 C 699.9,701.296 701.567,703.63 702.5,706.5C 703.08,708.749 704.413,710.415 706.5,711.5C 707.338,711.842 707.672,712.508 707.5,713.5C 705.284,712.797 703.451,711.464 702,709.5C 701.163,707.156 699.829,705.156 698,703.5C 697.51,702.207 697.343,700.873 697.5,699.5 Z"/></g>
<g><path style="opacity:1" fill="#767676" d="M 702.5,706.5 C 704.587,707.585 705.92,709.251 706.5,711.5C 704.413,710.415 703.08,708.749 702.5,706.5 Z"/></g>
<g><path style="opacity:1" fill="#a5a5a5" d="M 1223.5,701.5 C 1221.41,704.482 1219.91,707.816 1219,711.5C 1217.24,713.765 1215.08,715.432 1212.5,716.5C 1214.75,712.402 1217.25,708.402 1220,704.5C 1221.04,703.29 1222.21,702.29 1223.5,701.5 Z"/></g>
<g><path style="opacity:1" fill="#868686" d="M 707.5,713.5 C 709.587,714.585 710.92,716.251 711.5,718.5C 709.413,717.415 708.08,715.749 707.5,713.5 Z"/></g>
<g><path style="opacity:1" fill="#656565" d="M 721.5,711.5 C 723.587,712.585 724.92,714.251 725.5,716.5C 723.413,715.415 722.08,713.749 721.5,711.5 Z"/></g>
<g><path style="opacity:1" fill="#797979" d="M 1203.5,707.5 C 1200.56,713.041 1196.9,718.041 1192.5,722.5C 1195.44,716.959 1199.1,711.959 1203.5,707.5 Z"/></g>
<g><path style="opacity:1" fill="#808080" d="M 1212.5,716.5 C 1211.57,719.37 1209.9,721.704 1207.5,723.5C 1208.43,720.63 1210.1,718.296 1212.5,716.5 Z"/></g>
<g><path style="opacity:1" fill="#878787" d="M 712.5,720.5 C 714.587,721.585 715.92,723.251 716.5,725.5C 714.413,724.415 713.08,722.749 712.5,720.5 Z"/></g>
<g><path style="opacity:1" fill="#7e7e7e" d="M 1204.5,727.5 C 1203.47,730.891 1201.47,733.557 1198.5,735.5C 1200.02,732.467 1202.02,729.8 1204.5,727.5 Z"/></g>
<g><path style="opacity:1" fill="#8f8f8f" d="M 717.5,727.5 C 719.587,728.585 720.92,730.251 721.5,732.5C 719.413,731.415 718.08,729.749 717.5,727.5 Z"/></g>
<g><path style="opacity:1" fill="#7d7d7d" d="M 1192.5,722.5 C 1183.6,736.398 1173.93,749.731 1163.5,762.5C 1165.41,758.738 1167.58,755.071 1170,751.5C 1177.04,741.403 1184.54,731.736 1192.5,722.5 Z"/></g>
<g><path style="opacity:1" fill="#b0b0b0" d="M 721.5,732.5 C 724.898,735.627 727.565,739.293 729.5,743.5C 725.24,740.919 722.574,737.252 721.5,732.5 Z"/></g>
<g><path style="opacity:1" fill="#b8b8b8" d="M 729.5,743.5 C 733.897,747.959 737.564,752.959 740.5,758.5C 734.857,754.87 731.19,749.87 729.5,743.5 Z"/></g>
<g><path style="opacity:1" fill="#b7b7b7" d="M 1198.5,735.5 C 1198.66,736.873 1198.49,738.207 1198,739.5C 1195,743.833 1192,748.167 1189,752.5C 1187.57,754.439 1185.73,755.772 1183.5,756.5C 1187.77,748.963 1192.77,741.963 1198.5,735.5 Z"/></g>
<g><path style="opacity:1" fill="#7c7c7c" d="M 1183.5,756.5 C 1182.21,759.117 1180.55,761.45 1178.5,763.5C 1179.01,760.326 1180.68,757.992 1183.5,756.5 Z"/></g>
<g><path style="opacity:1" fill="#7f7f7f" d="M 742.5,761.5 C 744.587,762.585 745.92,764.251 746.5,766.5C 744.413,765.415 743.08,763.749 742.5,761.5 Z"/></g>
<g><path style="opacity:1" fill="#7e7e7e" d="M 1178.5,763.5 C 1177.92,765.749 1176.59,767.415 1174.5,768.5C 1175.08,766.251 1176.41,764.585 1178.5,763.5 Z"/></g>
<g><path style="opacity:1" fill="#797979" d="M 1163.5,762.5 C 1159.26,769.738 1154.26,776.404 1148.5,782.5C 1152.74,775.262 1157.74,768.596 1163.5,762.5 Z"/></g>
<g><path style="opacity:1" fill="#909090" d="M 747.5,768.5 C 749.587,769.585 750.92,771.251 751.5,773.5C 749.413,772.415 748.08,770.749 747.5,768.5 Z"/></g>
<g><path style="opacity:1" fill="#b6b6b6" d="M 1174.5,768.5 C 1174.17,773.836 1171.5,777.503 1166.5,779.5C 1168.44,775.293 1171.1,771.627 1174.5,768.5 Z"/></g>
<g><path style="opacity:1" fill="#b2b2b2" d="M 751.5,773.5 C 753.9,775.296 755.567,777.63 756.5,780.5C 752.88,779.548 751.213,777.215 751.5,773.5 Z"/></g>
<g><path style="opacity:1" fill="#b8b8b8" d="M 756.5,780.5 C 758.9,782.296 760.567,784.63 761.5,787.5C 757.88,786.548 756.213,784.215 756.5,780.5 Z"/></g>
<g><path style="opacity:1" fill="#5c5c5c" d="M 772.5,781.5 C 774.587,782.585 775.92,784.251 776.5,786.5C 774.413,785.415 773.08,783.749 772.5,781.5 Z"/></g>
<g><path style="opacity:1" fill="#868686" d="M 1166.5,779.5 C 1166.66,780.873 1166.49,782.207 1166,783.5C 1161.6,787.969 1157.43,792.636 1153.5,797.5C 1157.07,790.936 1161.4,784.936 1166.5,779.5 Z"/></g>
<g><path style="opacity:1" fill="#7c7c7c" d="M 761.5,787.5 C 763.587,788.585 764.92,790.251 765.5,792.5C 763.413,791.415 762.08,789.749 761.5,787.5 Z"/></g>
<g><path style="opacity:1" fill="#767676" d="M 1148.5,782.5 C 1146.15,787.88 1142.81,792.546 1138.5,796.5C 1141.35,791.473 1144.68,786.806 1148.5,782.5 Z"/></g>
<g><path style="opacity:1" fill="#7f7f7f" d="M 1138.5,796.5 C 1137.21,799.117 1135.55,801.45 1133.5,803.5C 1134.01,800.326 1135.68,797.992 1138.5,796.5 Z"/></g>
<g><path style="opacity:1" fill="#b4b4b4" d="M 1153.5,797.5 C 1153.79,801.215 1152.12,803.548 1148.5,804.5C 1149.43,801.63 1151.1,799.296 1153.5,797.5 Z"/></g>
<g><path style="opacity:1" fill="#656565" d="M 786.5,800.5 C 788.587,801.585 789.92,803.251 790.5,805.5C 788.413,804.415 787.08,802.749 786.5,800.5 Z"/></g>
<g><path style="opacity:1" fill="#8d8d8d" d="M 771.5,801.5 C 773.587,802.585 774.92,804.251 775.5,806.5C 773.413,805.415 772.08,803.749 771.5,801.5 Z"/></g>
<g><path style="opacity:1" fill="#b4b4b4" d="M 1148.5,804.5 C 1148.44,808.568 1146.44,811.235 1142.5,812.5C 1144.02,809.467 1146.02,806.8 1148.5,804.5 Z"/></g>
<g><path style="opacity:1" fill="#b2b2b2" d="M 775.5,806.5 C 777.984,808.8 779.984,811.467 781.5,814.5C 777.562,813.235 775.562,810.568 775.5,806.5 Z"/></g>
<g><path style="opacity:1" fill="#a5a5a5" d="M 1139.5,816.5 C 1136.44,824.895 1131.44,831.895 1124.5,837.5C 1128.77,829.963 1133.77,822.963 1139.5,816.5 Z"/></g>
<g><path style="opacity:1" fill="#787878" d="M 1133.5,803.5 C 1125.65,815.197 1117.32,826.531 1108.5,837.5C 1115.86,825.447 1124.19,814.114 1133.5,803.5 Z"/></g>
<g><path style="opacity:1" fill="#868686" d="M 790.5,827.5 C 792.587,828.585 793.92,830.251 794.5,832.5C 792.413,831.415 791.08,829.749 790.5,827.5 Z"/></g>
<g><path style="opacity:1" fill="#b1b1b1" d="M 794.5,832.5 C 798.897,836.959 802.564,841.959 805.5,847.5C 799.857,843.87 796.19,838.87 794.5,832.5 Z"/></g>
<g><path style="opacity:1" fill="#797979" d="M 1124.5,837.5 C 1122.98,840.533 1120.98,843.2 1118.5,845.5C 1119.53,842.109 1121.53,839.443 1124.5,837.5 Z"/></g>
<g><path style="opacity:1" fill="#848484" d="M 1118.5,845.5 C 1117.57,848.37 1115.9,850.704 1113.5,852.5C 1114.43,849.63 1116.1,847.296 1118.5,845.5 Z"/></g>
<g><path style="opacity:1" fill="#808080" d="M 1108.5,837.5 C 1105.21,842.786 1101.55,847.786 1097.5,852.5C 1100.01,846.652 1103.68,841.652 1108.5,837.5 Z"/></g>
<g><path style="opacity:1" fill="#777777" d="M 1097.5,852.5 C 1093.65,858.862 1089.32,864.862 1084.5,870.5C 1087.86,863.785 1092.19,857.785 1097.5,852.5 Z"/></g>
<g><path style="opacity:1" fill="#b2b2b2" d="M 1113.5,852.5 C 1113.44,856.568 1111.44,859.235 1107.5,860.5C 1109.02,857.467 1111.02,854.8 1113.5,852.5 Z"/></g>
<g><path style="opacity:1" fill="#919191" d="M 811.5,856.5 C 813.587,857.585 814.92,859.251 815.5,861.5C 813.413,860.415 812.08,858.749 811.5,856.5 Z"/></g>
<g><path style="opacity:1" fill="#7f7f7f" d="M 1107.5,860.5 C 1106.57,863.37 1104.9,865.704 1102.5,867.5C 1103.43,864.63 1105.1,862.296 1107.5,860.5 Z"/></g>
<g><path style="opacity:1" fill="#757575" d="M 815.5,861.5 C 817.587,862.585 818.92,864.251 819.5,866.5C 817.413,865.415 816.08,863.749 815.5,861.5 Z"/></g>
<g><path style="opacity:1" fill="#808080" d="M 1099.5,871.5 C 1098.57,874.37 1096.9,876.704 1094.5,878.5C 1095.43,875.63 1097.1,873.296 1099.5,871.5 Z"/></g>
<g><path style="opacity:1" fill="#7d7d7d" d="M 1084.5,870.5 C 1082.98,873.533 1080.98,876.2 1078.5,878.5C 1079.53,875.109 1081.53,872.443 1084.5,870.5 Z"/></g>
<g><path style="opacity:1" fill="#7b7b7b" d="M 1078.5,878.5 C 1071.23,890.04 1063.23,901.04 1054.5,911.5C 1061.73,899.935 1069.73,888.935 1078.5,878.5 Z"/></g>
<g><path style="opacity:1" fill="#b5b5b5" d="M 1094.5,878.5 C 1094.79,882.215 1093.12,884.548 1089.5,885.5C 1090.43,882.63 1092.1,880.296 1094.5,878.5 Z"/></g>
<g><path style="opacity:1" fill="#797979" d="M 1089.5,885.5 C 1087.98,888.533 1085.98,891.2 1083.5,893.5C 1084.53,890.109 1086.53,887.443 1089.5,885.5 Z"/></g>
<g><path style="opacity:1" fill="#626262" d="M 851.5,889.5 C 853.587,890.585 854.92,892.251 855.5,894.5C 853.413,893.415 852.08,891.749 851.5,889.5 Z"/></g>
<g><path style="opacity:1" fill="#b4b4b4" d="M 836.5,890.5 C 839.323,891.992 840.99,894.326 841.5,897.5C 838.231,896.44 836.565,894.107 836.5,890.5 Z"/></g>
<g><path style="opacity:1" fill="#818181" d="M 1083.5,893.5 C 1082.57,896.37 1080.9,898.704 1078.5,900.5C 1079.43,897.63 1081.1,895.296 1083.5,893.5 Z"/></g>
<g><path style="opacity:1" fill="#b0b0b0" d="M 841.5,897.5 C 844.209,900.208 846.542,903.208 848.5,906.5C 844.337,904.92 842.004,901.92 841.5,897.5 Z"/></g>
<g><path style="opacity:1" fill="#a6a6a6" d="M 1078.5,900.5 C 1077.53,905.458 1074.86,909.125 1070.5,911.5C 1072.4,907.268 1075.07,903.601 1078.5,900.5 Z"/></g>
<g><path style="opacity:1" fill="#aaaaaa" d="M 848.5,906.5 C 851.605,909.275 853.938,912.608 855.5,916.5C 853.414,914.572 851.247,912.572 849,910.5C 848.51,909.207 848.343,907.873 848.5,906.5 Z"/></g>
<g><path style="opacity:1" fill="#828282" d="M 1054.5,911.5 C 1051.21,916.786 1047.55,921.786 1043.5,926.5C 1046.01,920.652 1049.68,915.652 1054.5,911.5 Z"/></g>
<g><path style="opacity:1" fill="#7f7f7f" d="M 855.5,916.5 C 857.587,917.585 858.92,919.251 859.5,921.5C 857.413,920.415 856.08,918.749 855.5,916.5 Z"/></g>
<g><path style="opacity:1" fill="#656565" d="M 870.5,915.5 C 872.587,916.585 873.92,918.251 874.5,920.5C 872.413,919.415 871.08,917.749 870.5,915.5 Z"/></g>
<g><path style="opacity:1" fill="#7f7f7f" d="M 1070.5,911.5 C 1067.56,917.041 1063.9,922.041 1059.5,926.5C 1062.44,920.959 1066.1,915.959 1070.5,911.5 Z"/></g>
<g><path style="opacity:1" fill="#b7b7b7" d="M 866.5,931.5 C 868.984,933.8 870.984,936.467 872.5,939.5C 868.562,938.235 866.562,935.568 866.5,931.5 Z"/></g>
<g><path style="opacity:1" fill="#808080" d="M 1043.5,926.5 C 1040.21,931.786 1036.55,936.786 1032.5,941.5C 1035.01,935.652 1038.68,930.652 1043.5,926.5 Z"/></g>
<g><path style="opacity:1" fill="#7a7a7a" d="M 1054.5,933.5 C 1052.98,936.533 1050.98,939.2 1048.5,941.5C 1049.53,938.109 1051.53,935.443 1054.5,933.5 Z"/></g>
<g><path style="opacity:1" fill="#b0b0b0" d="M 872.5,939.5 C 874.9,941.296 876.567,943.63 877.5,946.5C 873.88,945.548 872.213,943.215 872.5,939.5 Z"/></g>
<g><path style="opacity:1" fill="#7a7a7a" d="M 1029.5,945.5 C 1028.57,948.37 1026.9,950.704 1024.5,952.5C 1025.43,949.63 1027.1,947.296 1029.5,945.5 Z"/></g>
<g><path style="opacity:1" fill="#919191" d="M 1048.5,941.5 C 1048.66,942.873 1048.49,944.207 1048,945.5C 1044.32,949.009 1040.82,952.676 1037.5,956.5C 1040.44,950.959 1044.1,945.959 1048.5,941.5 Z"/></g>
<g><path style="opacity:1" fill="#b4b4b4" d="M 877.5,946.5 C 879.984,948.8 881.984,951.467 883.5,954.5C 879.562,953.235 877.562,950.568 877.5,946.5 Z"/></g>
<g><path style="opacity:1" fill="#717171" d="M 1024.5,952.5 C 1023.57,955.37 1021.9,957.704 1019.5,959.5C 1020.43,956.63 1022.1,954.296 1024.5,952.5 Z"/></g>
<g><path style="opacity:1" fill="#aeaeae" d="M 1037.5,956.5 C 1037.04,961.745 1034.37,965.411 1029.5,967.5C 1031.4,963.268 1034.07,959.601 1037.5,956.5 Z"/></g>
<g><path style="opacity:1" fill="#787878" d="M 885.5,957.5 C 887.587,958.585 888.92,960.251 889.5,962.5C 887.413,961.415 886.08,959.749 885.5,957.5 Z"/></g>
<g><path style="opacity:1" fill="#7a7a7a" d="M 1019.5,959.5 C 1018.21,962.117 1016.55,964.45 1014.5,966.5C 1015.01,963.326 1016.68,960.992 1019.5,959.5 Z"/></g>
<g><path style="opacity:1" fill="#626262" d="M 905.5,963.5 C 907.587,964.585 908.92,966.251 909.5,968.5C 907.413,967.415 906.08,965.749 905.5,963.5 Z"/></g>
<g><path style="opacity:1" fill="#808080" d="M 890.5,964.5 C 892.587,965.585 893.92,967.251 894.5,969.5C 892.413,968.415 891.08,966.749 890.5,964.5 Z"/></g>
<g><path style="opacity:1" fill="#afafaf" d="M 1029.5,967.5 C 1029.79,971.215 1028.12,973.548 1024.5,974.5C 1025.43,971.63 1027.1,969.296 1029.5,967.5 Z"/></g>
<g><path style="opacity:1" fill="#7b7b7b" d="M 1014.5,966.5 C 1010.56,973.376 1005.9,979.709 1000.5,985.5C 1000.71,984.078 1001.21,982.745 1002,981.5C 1005.71,976.06 1009.88,971.06 1014.5,966.5 Z"/></g>
<g><path style="opacity:1" fill="#787878" d="M 1024.5,974.5 C 1023.21,977.117 1021.55,979.45 1019.5,981.5C 1020.01,978.326 1021.68,975.992 1024.5,974.5 Z"/></g>
<g><path style="opacity:1" fill="#b2b2b2" d="M 901.5,979.5 C 904.323,980.992 905.99,983.326 906.5,986.5C 903.231,985.44 901.565,983.107 901.5,979.5 Z"/></g>
<g><path style="opacity:1" fill="#8d8d8d" d="M 906.5,986.5 C 908.587,987.585 909.92,989.251 910.5,991.5C 908.413,990.415 907.08,988.749 906.5,986.5 Z"/></g>
<g><path style="opacity:1" fill="#949494" d="M 1019.5,981.5 C 1018.25,984.067 1017.08,986.733 1016,989.5C 1012.32,993.009 1008.82,996.676 1005.5,1000.5C 1009.4,993.599 1014.07,987.266 1019.5,981.5 Z"/></g>
<g><path style="opacity:1" fill="#656565" d="M 924.5,989.5 C 926.587,990.585 927.92,992.251 928.5,994.5C 926.413,993.415 925.08,991.749 924.5,989.5 Z"/></g>
<g><path style="opacity:1" fill="#afafaf" d="M 910.5,991.5 C 912.9,993.296 914.567,995.63 915.5,998.5C 911.88,997.548 910.213,995.215 910.5,991.5 Z"/></g>
<g><path style="opacity:1" fill="#7a7a7a" d="M 1000.5,985.5 C 997.564,991.041 993.897,996.041 989.5,1000.5C 992.436,994.959 996.103,989.959 1000.5,985.5 Z"/></g>
<g><path style="opacity:1" fill="#a1a1a1" d="M 915.5,998.5 C 918.984,1002.13 921.984,1006.13 924.5,1010.5C 919.971,1007.64 916.971,1003.64 915.5,998.5 Z"/></g>
<g><path style="opacity:1" fill="#727272" d="M 1005.5,1000.5 C 1003.98,1003.53 1001.98,1006.2 999.5,1008.5C 1000.53,1005.11 1002.53,1002.44 1005.5,1000.5 Z"/></g>
<g><path style="opacity:1" fill="#7e7e7e" d="M 999.5,1008.5 C 998.567,1011.37 996.9,1013.7 994.5,1015.5C 995.433,1012.63 997.1,1010.3 999.5,1008.5 Z"/></g>
<g><path style="opacity:1" fill="#818181" d="M 989.5,1000.5 C 986.212,1005.79 982.546,1010.79 978.5,1015.5C 981.015,1009.65 984.682,1004.65 989.5,1000.5 Z"/></g>
<g><path style="opacity:1" fill="#b4b4b4" d="M 925.5,1012.5 C 928.323,1013.99 929.99,1016.33 930.5,1019.5C 927.231,1018.44 925.565,1016.11 925.5,1012.5 Z"/></g>
<g><path style="opacity:1" fill="#737373" d="M 978.5,1015.5 C 977.66,1017.85 976.326,1019.85 974.5,1021.5C 974.845,1018.8 976.178,1016.8 978.5,1015.5 Z"/></g>
<g><path style="opacity:1" fill="#cb0a29" d="M 955.5,1018.5 C 955.833,1018.5 956.167,1018.5 956.5,1018.5C 960.167,1018.5 963.833,1018.5 967.5,1018.5C 967.5,1019.17 967.833,1019.5 968.5,1019.5C 970.05,1020.44 971.716,1021.11 973.5,1021.5C 976.636,1024.43 979.303,1027.76 981.5,1031.5C 982.265,1034.1 982.599,1036.76 982.5,1039.5C 982.668,1043.66 982.002,1047.66 980.5,1051.5C 976.972,1055.7 972.639,1058.7 967.5,1060.5C 967.167,1060.5 966.833,1060.5 966.5,1060.5C 962.833,1060.5 959.167,1060.5 955.5,1060.5C 950.363,1059.03 946.363,1056.03 943.5,1051.5C 941.279,1047.83 940.279,1043.83 940.5,1039.5C 940.448,1037.1 940.781,1034.76 941.5,1032.5C 941.709,1031.08 942.209,1029.74 943,1028.5C 945.372,1026.3 947.539,1023.96 949.5,1021.5C 951.819,1021.01 953.819,1020.01 955.5,1018.5 Z"/></g>
<g><path style="opacity:1" fill="#7d7d7d" d="M 991.5,1019.5 C 990.471,1022.89 988.471,1025.56 985.5,1027.5C 987.016,1024.47 989.016,1021.8 991.5,1019.5 Z"/></g>
<g><path style="opacity:1" fill="#8d8d8d" d="M 930.5,1019.5 C 932.587,1020.58 933.92,1022.25 934.5,1024.5C 932.413,1023.42 931.08,1021.75 930.5,1019.5 Z"/></g>
<g><path style="opacity:1" fill="#070707" d="M 980.5,1051.5 C 982.002,1047.66 982.668,1043.66 982.5,1039.5C 1231.17,1039.67 1479.83,1039.5 1728.5,1039C 1724.91,1036.29 1721.41,1033.45 1718,1030.5C 1716.79,1025.58 1718.62,1022.58 1723.5,1021.5C 1733.42,1028.08 1743.09,1035.08 1752.5,1042.5C 1754.19,1045.9 1753.52,1048.74 1750.5,1051C 1743.55,1055.62 1736.88,1060.62 1730.5,1066C 1722.37,1072.08 1718.2,1070.24 1718,1060.5C 1721.57,1057.3 1725.4,1054.47 1729.5,1052C 1479.83,1051.5 1230.17,1051.33 980.5,1051.5 Z"/></g>
<g><path style="opacity:1" fill="#727272" d="M 934.5,1024.5 C 936.587,1025.58 937.92,1027.25 938.5,1029.5C 936.413,1028.42 935.08,1026.75 934.5,1024.5 Z"/></g>
<g><path style="opacity:1" fill="#070707" d="M 940.5,1039.5 C 940.279,1043.83 941.279,1047.83 943.5,1051.5C 700.833,1051.67 458.166,1051.5 215.5,1051C 211.381,1046.93 211.715,1043.26 216.5,1040C 457.833,1039.5 699.166,1039.33 940.5,1039.5 Z"/></g>
<g><path style="opacity:1" fill="#171515" d="M 955.5,1060.5 C 959.167,1060.5 962.833,1060.5 966.5,1060.5C 963.375,1061.48 960.042,1061.81 956.5,1061.5C 956.5,1180.5 956.5,1299.5 956.5,1418.5C 955.5,1299.33 955.167,1180 955.5,1060.5 Z"/></g>
<g><path style="opacity:1" fill="#000000" d="M 966.5,1060.5 C 966.833,1060.5 967.167,1060.5 967.5,1060.5C 967.667,1179.83 967.5,1299.17 967,1418.5C 963.377,1422.48 959.877,1422.48 956.5,1418.5C 956.5,1299.5 956.5,1180.5 956.5,1061.5C 960.042,1061.81 963.375,1061.48 966.5,1060.5 Z"/></g>
<g><path style="opacity:1" fill="#5d9cef" d="M 1659.5,1095.5 C 1651.32,1095.17 1643.32,1095.51 1635.5,1096.5C 1634.96,1096.44 1634.62,1096.11 1634.5,1095.5C 1642.99,1094.18 1651.32,1094.18 1659.5,1095.5 Z"/></g>
<g><path style="opacity:1" fill="#5e9cef" d="M 1679.5,1095.5 C 1687.68,1094.18 1696.01,1094.18 1704.5,1095.5C 1704.38,1096.11 1704.04,1096.44 1703.5,1096.5C 1695.68,1095.51 1687.68,1095.17 1679.5,1095.5 Z"/></g>
<g><path style="opacity:1" fill="#2177e9" d="M 1659.5,1095.5 C 1662.82,1100.81 1666.16,1106.14 1669.5,1111.5C 1672.86,1106.1 1676.19,1100.77 1679.5,1095.5C 1687.68,1095.17 1695.68,1095.51 1703.5,1096.5C 1697.19,1106.48 1690.86,1116.48 1684.5,1126.5C 1691.62,1137.25 1698.62,1148.08 1705.5,1159C 1696.81,1159.83 1688.15,1159.67 1679.5,1158.5C 1676.25,1152.34 1672.75,1146.34 1669,1140.5C 1665.63,1146.75 1662.13,1152.91 1658.5,1159C 1650.15,1159.83 1641.81,1159.67 1633.5,1158.5C 1640.6,1148.08 1647.27,1137.41 1653.5,1126.5C 1647.5,1116.51 1641.5,1106.51 1635.5,1096.5C 1643.32,1095.51 1651.32,1095.17 1659.5,1095.5 Z"/></g>
</svg>
