<?xml version="1.0" encoding="UTF-8"?>
<!DOCTYPE svg PUBLIC "-//W3C//DTD SVG 1.1//EN" "http://www.w3.org/Graphics/SVG/1.1/DTD/svg11.dtd">
<svg xmlns="http://www.w3.org/2000/svg" version="1.1" width="2000px" height="1500px" style="shape-rendering:geometricPrecision; text-rendering:geometricPrecision; image-rendering:optimizeQuality; fill-rule:evenodd; clip-rule:evenodd" xmlns:xlink="http://www.w3.org/1999/xlink">
<g><path style="opacity:1" fill="#fefefe" d="M -0.5,-0.5 C 666.167,-0.5 1332.83,-0.5 1999.5,-0.5C 1999.5,499.5 1999.5,999.5 1999.5,1499.5C 1332.83,1499.5 666.167,1499.5 -0.5,1499.5C -0.5,999.5 -0.5,499.5 -0.5,-0.5 Z"/></g>
<g><path style="opacity:1" fill="#070707" d="M 969.5,103.5 C 969.217,102.711 968.717,102.044 968,101.5C 967.5,386.166 967.333,670.833 967.5,955.5C 967.612,960.593 968.445,960.593 970,955.5C 971.595,949.265 972.762,942.931 973.5,936.5C 973.5,935.833 973.5,935.167 973.5,934.5C 975.802,929.527 977.135,924.194 977.5,918.5C 977.5,917.833 977.5,917.167 977.5,916.5C 980.244,909.712 982.744,902.712 985,895.5C 985.61,892.173 986.11,888.839 986.5,885.5C 986.5,885.167 986.5,884.833 986.5,884.5C 988.117,881.811 989.117,878.811 989.5,875.5C 989.5,875.167 989.5,874.833 989.5,874.5C 991.074,872.898 991.741,870.898 991.5,868.5C 991.557,867.391 991.89,866.391 992.5,865.5C 994.87,859.385 996.87,853.051 998.5,846.5C 1000.28,843.495 1001.28,840.162 1001.5,836.5C 1001.5,836.167 1001.5,835.833 1001.5,835.5C 1002.71,832.751 1004.21,830.085 1006,827.5C 1006.89,823.008 1008.06,818.674 1009.5,814.5C 1013.56,809.328 1015.89,803.328 1016.5,796.5C 1018.1,794.152 1019.1,791.486 1019.5,788.5C 1019.5,787.833 1019.5,787.167 1019.5,786.5C 1021.25,784.967 1022.25,782.967 1022.5,780.5C 1024.51,775.126 1026.51,769.792 1028.5,764.5C 1030.25,763.341 1031.25,761.674 1031.5,759.5C 1033.94,755.837 1035.61,751.837 1036.5,747.5C 1036.93,743.732 1038.27,740.399 1040.5,737.5C 1042.25,736.341 1043.25,734.674 1043.5,732.5C 1043.34,731.127 1043.51,729.793 1044,728.5C 1053.51,708.811 1063.01,689.145 1072.5,669.5C 1075.12,666.566 1077.12,663.233 1078.5,659.5C 1078.43,657.973 1079.09,656.973 1080.5,656.5C 1082.25,654.967 1083.25,652.967 1083.5,650.5C 1083.5,649.833 1083.5,649.167 1083.5,648.5C 1085.94,646.879 1087.28,644.546 1087.5,641.5C 1090.26,638.322 1092.26,634.655 1093.5,630.5C 1097.02,625.463 1100.02,620.13 1102.5,614.5C 1105.78,611.899 1107.78,608.565 1108.5,604.5C 1110.41,602.343 1112.08,600.009 1113.5,597.5C 1115.32,594.037 1117.82,591.037 1121,588.5C 1121.5,586.482 1122,584.482 1122.5,582.5C 1122.33,581.508 1122.66,580.842 1123.5,580.5C 1125.25,578.967 1126.25,576.967 1126.5,574.5C 1135.75,560.343 1144.75,546.01 1153.5,531.5C 1157.06,529.598 1159.06,526.598 1159.5,522.5C 1163.06,520.598 1165.06,517.598 1165.5,513.5C 1166.97,512.564 1167.97,511.23 1168.5,509.5C 1171.19,505.815 1173.86,502.148 1176.5,498.5C 1176.83,497.833 1177.17,497.167 1177.5,496.5C 1180.28,494.049 1182.28,491.049 1183.5,487.5C 1191.31,477.893 1198.64,467.893 1205.5,457.5C 1209.24,454.09 1212.24,450.09 1214.5,445.5C 1219.85,439.478 1224.85,433.145 1229.5,426.5C 1229.43,424.973 1230.09,423.973 1231.5,423.5C 1233.54,422.421 1234.88,420.754 1235.5,418.5C 1240.22,414.047 1244.22,409.047 1247.5,403.5C 1250.22,401.781 1252.22,399.447 1253.5,396.5C 1260.85,388.484 1267.85,380.151 1274.5,371.5C 1281.97,363.875 1288.97,355.875 1295.5,347.5C 1297.54,346.421 1298.88,344.754 1299.5,342.5C 1309.18,333.148 1318.18,323.148 1326.5,312.5C 1330.21,309.789 1333.21,306.456 1335.5,302.5C 1336.83,301.833 1337.83,300.833 1338.5,299.5C 1342.21,296.789 1345.21,293.456 1347.5,289.5C 1348.83,288.833 1349.83,287.833 1350.5,286.5C 1359.23,277.775 1367.56,268.775 1375.5,259.5C 1379.88,256.126 1383.54,252.126 1386.5,247.5C 1387.83,246.833 1388.83,245.833 1389.5,244.5C 1406.17,228.5 1422.5,212.167 1438.5,195.5C 1447.83,187.5 1457.17,179.5 1466.5,171.5C 1472.54,167.106 1478.54,162.772 1484.5,158.5C 1488.27,158.244 1491.94,158.577 1495.5,159.5C 1495.66,161.857 1495.5,164.19 1495,166.5C 1493.24,168.083 1491.74,169.75 1490.5,171.5C 1487.53,172.81 1485.19,174.81 1483.5,177.5C 1472.23,184.446 1462.23,192.779 1453.5,202.5C 1441.15,211.953 1430.15,222.62 1420.5,234.5C 1419.83,234.5 1419.5,234.833 1419.5,235.5C 1418.76,235.369 1418.09,235.536 1417.5,236C 1415.79,237.651 1414.46,239.484 1413.5,241.5C 1408.16,245.845 1403.49,250.845 1399.5,256.5C 1387.18,267.488 1375.85,279.488 1365.5,292.5C 1364.83,293.833 1363.83,294.833 1362.5,295.5C 1359.76,297.239 1357.76,299.573 1356.5,302.5C 1348.48,309.19 1341.48,316.857 1335.5,325.5C 1334.5,325.414 1333.67,325.748 1333,326.5C 1330.59,329.397 1328.42,332.397 1326.5,335.5C 1325.5,335.414 1324.67,335.748 1324,336.5C 1321.59,339.397 1319.42,342.397 1317.5,345.5C 1309.55,353.615 1301.72,361.949 1294,370.5C 1284.26,382.06 1274.76,393.726 1265.5,405.5C 1261.8,408.536 1258.8,412.203 1256.5,416.5C 1254.74,417.262 1253.74,418.596 1253.5,420.5C 1247.42,425.922 1242.42,432.256 1238.5,439.5C 1235.41,441.268 1233.41,443.935 1232.5,447.5C 1231.5,447.414 1230.67,447.748 1230,448.5C 1221.24,460.383 1212.74,472.383 1204.5,484.5C 1202.12,486.878 1200.12,489.545 1198.5,492.5C 1194.76,496.302 1191.76,500.635 1189.5,505.5C 1186.72,507.951 1184.72,510.951 1183.5,514.5C 1181.04,516.732 1179.04,519.398 1177.5,522.5C 1175.12,525.223 1173.12,528.223 1171.5,531.5C 1169.12,534.223 1167.12,537.223 1165.5,540.5C 1161.51,544.479 1158.51,549.145 1156.5,554.5C 1154.34,556.822 1152.67,559.489 1151.5,562.5C 1149.18,563.802 1147.84,565.802 1147.5,568.5C 1147.5,568.833 1147.5,569.167 1147.5,569.5C 1146.62,569.369 1145.96,569.702 1145.5,570.5C 1143.7,572.955 1142.37,575.622 1141.5,578.5C 1139.75,579.659 1138.75,581.326 1138.5,583.5C 1136,586.494 1134,589.827 1132.5,593.5C 1130,596.494 1128,599.827 1126.5,603.5C 1126.25,605.674 1125.25,607.341 1123.5,608.5C 1117.23,617.289 1111.9,626.623 1107.5,636.5C 1104.67,639.675 1102.67,643.342 1101.5,647.5C 1101.5,647.833 1101.5,648.167 1101.5,648.5C 1098.35,651.02 1096.35,654.353 1095.5,658.5C 1095.5,658.833 1095.5,659.167 1095.5,659.5C 1093.03,660.607 1092.03,662.607 1092.5,665.5C 1089.28,668.061 1087.28,671.395 1086.5,675.5C 1084.75,677.033 1083.75,679.033 1083.5,681.5C 1081.79,682.635 1081.12,684.302 1081.5,686.5C 1080.54,686.953 1079.71,687.619 1079,688.5C 1077.49,691.796 1076.32,695.129 1075.5,698.5C 1073.06,700.121 1071.72,702.454 1071.5,705.5C 1069.75,707.033 1068.75,709.033 1068.5,711.5C 1066.75,713.033 1065.75,715.033 1065.5,717.5C 1065.5,717.833 1065.5,718.167 1065.5,718.5C 1064.5,718.47 1063.84,718.97 1063.5,720C 1062.17,723.124 1061.17,726.29 1060.5,729.5C 1059.26,731.214 1058.59,733.214 1058.5,735.5C 1053.26,742.779 1049.26,750.779 1046.5,759.5C 1046.5,759.833 1046.5,760.167 1046.5,760.5C 1044.76,762.395 1043.76,764.728 1043.5,767.5C 1041.75,769.033 1040.75,771.033 1040.5,773.5C 1040.5,773.833 1040.5,774.167 1040.5,774.5C 1038.75,776.033 1037.75,778.033 1037.5,780.5C 1037.5,780.833 1037.5,781.167 1037.5,781.5C 1035.75,783.033 1034.75,785.033 1034.5,787.5C 1033.08,792.239 1031.42,796.906 1029.5,801.5C 1027.35,803.617 1026.35,806.284 1026.5,809.5C 1024.15,816.193 1021.82,822.859 1019.5,829.5C 1019.5,829.833 1019.5,830.167 1019.5,830.5C 1017.68,834.591 1016.02,838.924 1014.5,843.5C 1013.88,843.611 1013.38,843.944 1013,844.5C 1011.05,851.507 1009.22,858.507 1007.5,865.5C 1007.5,865.833 1007.5,866.167 1007.5,866.5C 1005.22,872.242 1003.22,878.242 1001.5,884.5C 1001.5,884.833 1001.5,885.167 1001.5,885.5C 1000.21,886.842 999.374,888.509 999,890.5C 997.93,895.872 996.763,901.205 995.5,906.5C 994.351,906.791 993.684,907.624 993.5,909C 992.923,911.137 992.59,913.304 992.5,915.5C 989.649,928.57 986.649,941.57 983.5,954.5C 982.307,954.97 981.64,955.97 981.5,957.5C 980.754,961.132 980.421,964.798 980.5,968.5C 978.044,972.738 977.044,977.404 977.5,982.5C 975.406,987.226 973.906,992.226 973,997.5C 972.499,1001.51 971.999,1005.51 971.5,1009.5C 970.886,1013.14 970.552,1016.8 970.5,1020.5C 964.5,1017.83 958.5,1017.83 952.5,1020.5C 952.806,1017.61 952.473,1014.95 951.5,1012.5C 951.664,1009.81 951.497,1007.15 951,1004.5C 950.617,1003.94 950.117,1003.61 949.5,1003.5C 949.5,1002.83 949.5,1002.17 949.5,1001.5C 949.138,996.248 948.138,991.248 946.5,986.5C 946.5,986.167 946.5,985.833 946.5,985.5C 946.048,981.837 945.548,978.17 945,974.5C 944.617,973.944 944.117,973.611 943.5,973.5C 942.781,971.236 942.448,968.903 942.5,966.5C 942.125,962.129 941.459,957.796 940.5,953.5C 940.026,950.783 939.026,948.45 937.5,946.5C 937.224,940.788 935.89,935.455 933.5,930.5C 932.69,925.235 931.356,920.235 929.5,915.5C 929.59,912.848 928.924,910.515 927.5,908.5C 926.949,902.344 925.283,896.677 922.5,891.5C 922.5,890.833 922.5,890.167 922.5,889.5C 921.524,883.074 919.524,877.074 916.5,871.5C 916.167,869.5 915.833,867.5 915.5,865.5C 915.33,863.152 914.997,860.818 914.5,858.5C 912.365,851.067 909.699,844.067 906.5,837.5C 903.296,829.883 900.296,822.217 897.5,814.5C 897.5,813.833 897.167,813.5 896.5,813.5C 896.041,810.123 895.374,806.789 894.5,803.5C 894.245,801.033 893.245,799.033 891.5,797.5C 890.485,792.334 888.485,787.667 885.5,783.5C 885.5,783.167 885.5,782.833 885.5,782.5C 883.83,777.809 882.163,773.142 880.5,768.5C 879.662,768.158 879.328,767.492 879.5,766.5C 879.245,764.033 878.245,762.033 876.5,760.5C 876.5,760.167 876.5,759.833 876.5,759.5C 876.245,757.033 875.245,755.033 873.5,753.5C 873.25,751.326 872.25,749.659 870.5,748.5C 870.483,745.116 869.483,742.116 867.5,739.5C 867.245,737.033 866.245,735.033 864.5,733.5C 863.917,730.053 862.584,727.053 860.5,724.5C 859.4,723.395 858.733,722.062 858.5,720.5C 857.008,716.182 855.008,712.182 852.5,708.5C 851.008,704.182 849.008,700.182 846.5,696.5C 846.245,694.033 845.245,692.033 843.5,690.5C 842.008,686.182 840.008,682.182 837.5,678.5C 836.268,674.753 834.768,671.086 833,667.5C 832.292,666.619 831.458,665.953 830.5,665.5C 830.657,664.127 830.49,662.793 830,661.5C 828.406,659.474 826.906,657.474 825.5,655.5C 821.281,645.133 815.947,635.466 809.5,626.5C 809.672,625.508 809.338,624.842 808.5,624.5C 807.564,621.329 805.897,618.662 803.5,616.5C 803.672,615.508 803.338,614.842 802.5,614.5C 798.624,606.761 794.458,599.094 790,591.5C 787.723,587.92 785.223,584.586 782.5,581.5C 782.5,581.167 782.5,580.833 782.5,580.5C 780.327,576.148 777.66,572.148 774.5,568.5C 772.969,563.655 770.302,559.655 766.5,556.5C 766.657,555.127 766.49,553.793 766,552.5C 763.055,548.249 759.888,544.249 756.5,540.5C 755.831,537.151 754.164,534.484 751.5,532.5C 750.241,528.975 748.241,525.975 745.5,523.5C 743.693,518.356 740.693,514.023 736.5,510.5C 732.857,504.546 728.857,498.88 724.5,493.5C 722.984,490.467 720.984,487.8 718.5,485.5C 717.92,483.251 716.587,481.585 714.5,480.5C 711.738,473.982 707.738,468.316 702.5,463.5C 700.781,459.388 698.114,456.055 694.5,453.5C 694.155,450.802 692.822,448.802 690.5,447.5C 689.581,444.911 687.914,442.911 685.5,441.5C 682.219,435.944 678.219,430.944 673.5,426.5C 670.926,421.591 667.592,417.258 663.5,413.5C 660.871,409.537 657.871,405.871 654.5,402.5C 652.912,398.577 650.246,395.577 646.5,393.5C 646.167,392.833 645.833,392.167 645.5,391.5C 643.234,387.564 640.234,384.231 636.5,381.5C 632.868,376.533 628.868,371.867 624.5,367.5C 620.221,362.372 616.054,357.038 612,351.5C 610.008,350.335 608.175,349.002 606.5,347.5C 605.243,344.573 603.243,342.239 600.5,340.5C 598.263,336.59 595.263,333.257 591.5,330.5C 589.206,326.873 586.54,323.539 583.5,320.5C 582.833,320.167 582.167,319.833 581.5,319.5C 579.57,315.9 576.903,312.9 573.5,310.5C 572.833,309.167 571.833,308.167 570.5,307.5C 567.899,303.229 564.566,299.563 560.5,296.5C 555.08,289.017 548.746,282.35 541.5,276.5C 540.528,273.895 538.861,271.895 536.5,270.5C 535.92,268.251 534.587,266.585 532.5,265.5C 531.833,265.167 531.167,264.833 530.5,264.5C 527.564,259.895 523.898,255.895 519.5,252.5C 513.167,245.833 506.833,239.167 500.5,232.5C 495.167,225.167 488.833,218.833 481.5,213.5C 479.431,210.427 476.764,208.094 473.5,206.5C 473.167,205.833 472.833,205.167 472.5,204.5C 469.769,200.766 466.436,197.766 462.5,195.5C 451.462,187.647 440.796,179.314 430.5,170.5C 427.645,167.408 426.812,163.741 428,159.5C 431.057,158.549 434.223,158.216 437.5,158.5C 439.167,159.167 440.833,159.833 442.5,160.5C 442.511,162.017 443.177,163.184 444.5,164C 449.615,166.634 454.282,169.801 458.5,173.5C 459.96,175.463 461.627,177.296 463.5,179C 466.69,181.351 470.024,183.518 473.5,185.5C 478.9,190.217 483.9,195.383 488.5,201C 489.094,201.464 489.761,201.631 490.5,201.5C 492.167,205.167 494.833,207.833 498.5,209.5C 506.778,219.447 515.778,228.78 525.5,237.5C 532.869,243.868 539.536,250.868 545.5,258.5C 548.77,263.44 552.77,267.773 557.5,271.5C 559.5,272.833 561.167,274.5 562.5,276.5C 564.43,280.1 567.097,283.1 570.5,285.5C 572.167,286.833 573.833,288.167 575.5,289.5C 576.781,292.447 578.781,294.781 581.5,296.5C 581.5,296.833 581.5,297.167 581.5,297.5C 585.105,302.774 589.438,307.441 594.5,311.5C 610.58,327.578 625.58,344.578 639.5,362.5C 641.766,366.436 644.766,369.769 648.5,372.5C 650.587,373.585 651.92,375.251 652.5,377.5C 654.43,381.1 657.097,384.1 660.5,386.5C 665.321,391.497 669.654,396.831 673.5,402.5C 674.757,405.427 676.757,407.761 679.5,409.5C 683.647,413.795 687.313,418.462 690.5,423.5C 691.08,425.749 692.413,427.415 694.5,428.5C 706.01,442.324 716.676,456.657 726.5,471.5C 727.08,473.749 728.413,475.415 730.5,476.5C 730.62,480.615 732.62,483.281 736.5,484.5C 740.066,489.286 743.4,494.286 746.5,499.5C 747.845,501.697 749.011,504.03 750,506.5C 750.671,507.252 751.504,507.586 752.5,507.5C 752.343,508.873 752.51,510.207 753,511.5C 754.588,513.59 756.422,515.257 758.5,516.5C 762.137,520.983 765.637,525.65 769,530.5C 769.973,532.392 770.64,534.392 771,536.5C 775.069,539.643 777.902,543.643 779.5,548.5C 779.908,552.573 781.908,555.573 785.5,557.5C 785.427,559.027 786.094,560.027 787.5,560.5C 787.241,562.989 788.241,564.656 790.5,565.5C 791.338,565.842 791.672,566.508 791.5,567.5C 791.701,571.13 793.368,573.797 796.5,575.5C 799.827,579.583 802.327,584.25 804,589.5C 807.594,591.923 809.761,595.257 810.5,599.5C 810.845,602.198 812.178,604.198 814.5,605.5C 819.533,613.569 824.2,621.902 828.5,630.5C 829.192,634.884 831.192,638.55 834.5,641.5C 837.246,644.651 839.246,648.317 840.5,652.5C 840.755,654.967 841.755,656.967 843.5,658.5C 843.787,663.257 845.787,666.924 849.5,669.5C 849.66,671.153 850.326,672.486 851.5,673.5C 852.015,678.867 854.349,683.2 858.5,686.5C 858.025,689.313 859.025,691.313 861.5,692.5C 861.5,693.167 861.5,693.833 861.5,694.5C 864.084,701.675 867.251,708.675 871,715.5C 871.708,716.381 872.542,717.047 873.5,717.5C 873.782,722.737 875.782,727.07 879.5,730.5C 881.638,736.247 883.971,741.914 886.5,747.5C 886.025,750.313 887.025,752.313 889.5,753.5C 891.651,758.436 893.651,763.436 895.5,768.5C 895.12,770.698 895.787,772.365 897.5,773.5C 899.843,778.941 902.176,784.274 904.5,789.5C 906.727,798.516 909.727,807.183 913.5,815.5C 913.259,817.898 913.926,819.898 915.5,821.5C 916.434,822.568 916.768,823.901 916.5,825.5C 916.338,827.527 916.505,829.527 917,831.5C 918.393,835.482 920.227,839.149 922.5,842.5C 924.33,846.861 925.996,851.194 927.5,855.5C 928.089,860.158 929.422,864.491 931.5,868.5C 932.643,873.432 934.309,878.099 936.5,882.5C 936.851,885.903 937.518,889.237 938.5,892.5C 938.027,898.391 939.36,903.724 942.5,908.5C 943.531,910.961 944.198,913.627 944.5,916.5C 944.763,921.124 945.763,925.458 947.5,929.5C 948.865,933.922 950.198,938.255 951.5,942.5C 951.963,945.482 952.296,948.482 952.5,951.5C 952.134,956.716 952.968,961.716 955,966.5C 955.333,965.5 955.667,964.5 956,963.5C 956.833,675.833 956.667,388.166 955.5,100.5C 954.893,100.624 954.56,100.957 954.5,101.5C 952.215,105.21 949.548,108.71 946.5,112C 940.166,113.329 937.332,110.829 938,104.5C 944.712,95.5763 951.546,86.743 958.5,78C 960.5,77.3333 962.5,77.3333 964.5,78C 971.938,86.3817 978.771,95.215 985,104.5C 985.668,110.829 982.834,113.329 976.5,112C 973.8,109.412 971.467,106.579 969.5,103.5 Z"/></g>
<g><path style="opacity:1" fill="#151515" d="M 954.5,101.5 C 954.56,100.957 954.893,100.624 955.5,100.5C 956.667,388.166 956.833,675.833 956,963.5C 955.667,964.5 955.333,965.5 955,966.5C 952.968,961.716 952.134,956.716 952.5,951.5C 953.469,953.663 954.302,955.996 955,958.5C 955.49,957.207 955.657,955.873 955.5,954.5C 955.833,670 955.5,385.666 954.5,101.5 Z"/></g>
<g><path style="opacity:1" fill="#e9e9e9" d="M 969.5,103.5 C 968.334,384.333 968.167,665.333 969,946.5C 969.037,944.026 969.87,942.026 971.5,940.5C 970.536,945.706 969.203,950.706 967.5,955.5C 967.333,670.833 967.5,386.166 968,101.5C 968.717,102.044 969.217,102.711 969.5,103.5 Z"/></g>
<g><path style="opacity:1" fill="#649fef" d="M 870.5,129.5 C 862.648,129.175 854.982,129.508 847.5,130.5C 846.957,130.44 846.624,130.107 846.5,129.5C 854.657,128.18 862.657,128.18 870.5,129.5 Z"/></g>
<g><path style="opacity:1" fill="#2377e9" d="M 847.5,130.5 C 854.982,129.508 862.648,129.175 870.5,129.5C 874.631,142.357 878.298,155.357 881.5,168.5C 882.167,173.833 882.833,173.833 883.5,168.5C 886.864,155.383 890.697,142.383 895,129.5C 902.413,128.519 909.913,128.186 917.5,128.5C 908.389,156.385 897.889,183.719 886,210.5C 877.561,219.866 867.061,223.366 854.5,221C 852.575,215.464 851.908,209.631 852.5,203.5C 862.433,205.709 868.766,202.042 871.5,192.5C 863.696,171.754 855.696,151.087 847.5,130.5 Z"/></g>
<g><path style="opacity:1" fill="#9a9a9a" d="M 437.5,158.5 C 434.223,158.216 431.057,158.549 428,159.5C 426.812,163.741 427.645,167.408 430.5,170.5C 428.433,170.468 427.1,169.468 426.5,167.5C 423.61,160.632 425.777,156.966 433,156.5C 434.986,156.569 436.486,157.235 437.5,158.5 Z"/></g>
<g><path style="opacity:1" fill="#939393" d="M 1495.5,159.5 C 1491.94,158.577 1488.27,158.244 1484.5,158.5C 1484.61,157.883 1484.94,157.383 1485.5,157C 1488.5,156.333 1491.5,156.333 1494.5,157C 1495.25,157.671 1495.59,158.504 1495.5,159.5 Z"/></g>
<g><path style="opacity:1" fill="#9a9a9a" d="M 1484.5,158.5 C 1478.54,162.772 1472.54,167.106 1466.5,171.5C 1471.36,165.653 1477.36,161.319 1484.5,158.5 Z"/></g>
<g><path style="opacity:1" fill="#aaaaaa" d="M 442.5,160.5 C 448.959,163.277 454.292,167.61 458.5,173.5C 454.282,169.801 449.615,166.634 444.5,164C 443.177,163.184 442.511,162.017 442.5,160.5 Z"/></g>
<g><path style="opacity:1" fill="#c1c1c1" d="M 1495.5,159.5 C 1499.51,166.501 1497.51,171.168 1489.5,173.5C 1489.83,172.833 1490.17,172.167 1490.5,171.5C 1491.74,169.75 1493.24,168.083 1495,166.5C 1495.5,164.19 1495.66,161.857 1495.5,159.5 Z"/></g>
<g><path style="opacity:1" fill="#87b4f3" d="M 881.5,168.5 C 882.167,168.5 882.833,168.5 883.5,168.5C 882.833,173.833 882.167,173.833 881.5,168.5 Z"/></g>
<g><path style="opacity:1" fill="#676767" d="M 1490.5,171.5 C 1490.17,172.167 1489.83,172.833 1489.5,173.5C 1487.77,175.226 1485.77,176.559 1483.5,177.5C 1485.19,174.81 1487.53,172.81 1490.5,171.5 Z"/></g>
<g><path style="opacity:1" fill="#979797" d="M 458.5,173.5 C 464.661,175.989 469.661,179.989 473.5,185.5C 470.024,183.518 466.69,181.351 463.5,179C 461.627,177.296 459.96,175.463 458.5,173.5 Z"/></g>
<g><path style="opacity:1" fill="#737373" d="M 1483.5,177.5 C 1473.5,185.833 1463.5,194.167 1453.5,202.5C 1462.23,192.779 1472.23,184.446 1483.5,177.5 Z"/></g>
<g><path style="opacity:1" fill="#8c8c8c" d="M 1466.5,171.5 C 1457.17,179.5 1447.83,187.5 1438.5,195.5C 1446.55,186.12 1455.89,178.12 1466.5,171.5 Z"/></g>
<g><path style="opacity:1" fill="#bababa" d="M 473.5,185.5 C 474.873,185.343 476.207,185.51 477.5,186C 490.7,198.7 503.367,211.866 515.5,225.5C 509.833,220.167 504.167,214.833 498.5,209.5C 496.167,206.5 493.5,203.833 490.5,201.5C 489.761,201.631 489.094,201.464 488.5,201C 483.9,195.383 478.9,190.217 473.5,185.5 Z"/></g>
<g><path style="opacity:1" fill="#454545" d="M 462.5,195.5 C 466.436,197.766 469.769,200.766 472.5,204.5C 468.564,202.234 465.231,199.234 462.5,195.5 Z"/></g>
<g><path style="opacity:1" fill="#4f4f4f" d="M 490.5,201.5 C 493.5,203.833 496.167,206.5 498.5,209.5C 494.833,207.833 492.167,205.167 490.5,201.5 Z"/></g>
<g><path style="opacity:1" fill="#717171" d="M 473.5,206.5 C 476.764,208.094 479.431,210.427 481.5,213.5C 478.236,211.906 475.569,209.573 473.5,206.5 Z"/></g>
<g><path style="opacity:1" fill="#4d4d4d" d="M 498.5,209.5 C 504.167,214.833 509.833,220.167 515.5,225.5C 519.233,229.227 522.566,233.227 525.5,237.5C 515.778,228.78 506.778,219.447 498.5,209.5 Z"/></g>
<g><path style="opacity:1" fill="#4f4f4f" d="M 481.5,213.5 C 488.833,218.833 495.167,225.167 500.5,232.5C 493.833,226.5 487.5,220.167 481.5,213.5 Z"/></g>
<g><path style="opacity:1" fill="#797979" d="M 1438.5,195.5 C 1422.5,212.167 1406.17,228.5 1389.5,244.5C 1404.58,227.919 1420.25,211.752 1436.5,196C 1437.09,195.536 1437.76,195.369 1438.5,195.5 Z"/></g>
<g><path style="opacity:1" fill="#a1a1a1" d="M 1453.5,202.5 C 1444.22,213.118 1434.55,223.285 1424.5,233C 1423.1,233.41 1421.77,233.91 1420.5,234.5C 1430.15,222.62 1441.15,211.953 1453.5,202.5 Z"/></g>
<g><path style="opacity:1" fill="#949494" d="M 1419.5,235.5 C 1419.65,236.552 1419.48,237.552 1419,238.5C 1416.98,239.223 1415.15,240.223 1413.5,241.5C 1414.46,239.484 1415.79,237.651 1417.5,236C 1418.09,235.536 1418.76,235.369 1419.5,235.5 Z"/></g>
<g><path style="opacity:1" fill="#7d7d7d" d="M 1413.5,241.5 C 1409.54,247.129 1404.87,252.129 1399.5,256.5C 1403.49,250.845 1408.16,245.845 1413.5,241.5 Z"/></g>
<g><path style="opacity:1" fill="#909090" d="M 519.5,252.5 C 523.898,255.895 527.564,259.895 530.5,264.5C 526.102,261.105 522.436,257.105 519.5,252.5 Z"/></g>
<g><path style="opacity:1" fill="#868686" d="M 1386.5,247.5 C 1383.54,252.126 1379.88,256.126 1375.5,259.5C 1378.49,254.848 1382.15,250.848 1386.5,247.5 Z"/></g>
<g><path style="opacity:1" fill="#434343" d="M 545.5,258.5 C 550.23,262.227 554.23,266.56 557.5,271.5C 552.77,267.773 548.77,263.44 545.5,258.5 Z"/></g>
<g><path style="opacity:1" fill="#878787" d="M 1375.5,259.5 C 1367.56,268.775 1359.23,277.775 1350.5,286.5C 1357.87,276.468 1366.2,267.468 1375.5,259.5 Z"/></g>
<g><path style="opacity:1" fill="#848484" d="M 1399.5,256.5 C 1399.22,259.658 1397.56,261.658 1394.5,262.5C 1384.82,272.575 1375.15,282.575 1365.5,292.5C 1375.85,279.488 1387.18,267.488 1399.5,256.5 Z"/></g>
<g><path style="opacity:1" fill="#727272" d="M 532.5,265.5 C 534.587,266.585 535.92,268.251 536.5,270.5C 534.413,269.415 533.08,267.749 532.5,265.5 Z"/></g>
<g><path style="opacity:1" fill="#484848" d="M 562.5,276.5 C 565.903,278.9 568.57,281.9 570.5,285.5C 567.097,283.1 564.43,280.1 562.5,276.5 Z"/></g>
<g><path style="opacity:1" fill="#9b9b9b" d="M 541.5,276.5 C 548.746,282.35 555.08,289.017 560.5,296.5C 553.254,290.65 546.92,283.983 541.5,276.5 Z"/></g>
<g><path style="opacity:1" fill="#959595" d="M 575.5,289.5 C 576.496,289.414 577.329,289.748 578,290.5C 579.421,292.405 580.588,294.405 581.5,296.5C 578.781,294.781 576.781,292.447 575.5,289.5 Z"/></g>
<g><path style="opacity:1" fill="#828282" d="M 1347.5,289.5 C 1345.21,293.456 1342.21,296.789 1338.5,299.5C 1340.42,296.397 1342.59,293.397 1345,290.5C 1345.67,289.748 1346.5,289.414 1347.5,289.5 Z"/></g>
<g><path style="opacity:1" fill="#999999" d="M 560.5,296.5 C 564.566,299.563 567.899,303.229 570.5,307.5C 566.434,304.437 563.101,300.771 560.5,296.5 Z"/></g>
<g><path style="opacity:1" fill="#424242" d="M 581.5,297.5 C 586.562,301.559 590.895,306.226 594.5,311.5C 589.438,307.441 585.105,302.774 581.5,297.5 Z"/></g>
<g><path style="opacity:1" fill="#7b7b7b" d="M 1362.5,295.5 C 1361.24,298.427 1359.24,300.761 1356.5,302.5C 1357.76,299.573 1359.76,297.239 1362.5,295.5 Z"/></g>
<g><path style="opacity:1" fill="#8c8c8c" d="M 1335.5,302.5 C 1333.21,306.456 1330.21,309.789 1326.5,312.5C 1328.42,309.397 1330.59,306.397 1333,303.5C 1333.67,302.748 1334.5,302.414 1335.5,302.5 Z"/></g>
<g><path style="opacity:1" fill="#929292" d="M 573.5,310.5 C 576.903,312.9 579.57,315.9 581.5,319.5C 578.097,317.1 575.43,314.1 573.5,310.5 Z"/></g>
<g><path style="opacity:1" fill="#7e7e7e" d="M 1356.5,302.5 C 1355.91,303.766 1355.41,305.099 1355,306.5C 1347.97,312.365 1341.47,318.698 1335.5,325.5C 1341.48,316.857 1348.48,309.19 1356.5,302.5 Z"/></g>
<g><path style="opacity:1" fill="#959595" d="M 583.5,320.5 C 586.54,323.539 589.206,326.873 591.5,330.5C 589.163,328.334 586.663,326.334 584,324.5C 583.51,323.207 583.343,321.873 583.5,320.5 Z"/></g>
<g><path style="opacity:1" fill="#7b7b7b" d="M 1335.5,325.5 C 1333.21,329.456 1330.21,332.789 1326.5,335.5C 1328.42,332.397 1330.59,329.397 1333,326.5C 1333.67,325.748 1334.5,325.414 1335.5,325.5 Z"/></g>
<g><path style="opacity:1" fill="#8f8f8f" d="M 1326.5,312.5 C 1318.18,323.148 1309.18,333.148 1299.5,342.5C 1307.4,332.75 1315.57,323.084 1324,313.5C 1324.67,312.748 1325.5,312.414 1326.5,312.5 Z"/></g>
<g><path style="opacity:1" fill="#787878" d="M 1326.5,335.5 C 1324.21,339.456 1321.21,342.789 1317.5,345.5C 1319.42,342.397 1321.59,339.397 1324,336.5C 1324.67,335.748 1325.5,335.414 1326.5,335.5 Z"/></g>
<g><path style="opacity:1" fill="#969696" d="M 600.5,340.5 C 603.243,342.239 605.243,344.573 606.5,347.5C 603.757,345.761 601.757,343.427 600.5,340.5 Z"/></g>
<g><path style="opacity:1" fill="#939393" d="M 1299.5,342.5 C 1298.88,344.754 1297.54,346.421 1295.5,347.5C 1296.14,345.205 1297.47,343.539 1299.5,342.5 Z"/></g>
<g><path style="opacity:1" fill="#c4c4c4" d="M 606.5,347.5 C 608.175,349.002 610.008,350.335 612,351.5C 616.054,357.038 620.221,362.372 624.5,367.5C 623.078,367.291 621.745,366.791 620.5,366C 616.311,360.813 611.811,355.98 607,351.5C 606.51,350.207 606.343,348.873 606.5,347.5 Z"/></g>
<g><path style="opacity:1" fill="#868686" d="M 1295.5,347.5 C 1288.97,355.875 1281.97,363.875 1274.5,371.5C 1280.59,362.629 1287.59,354.629 1295.5,347.5 Z"/></g>
<g><path style="opacity:1" fill="#737373" d="M 1317.5,345.5 C 1300.54,365.795 1283.21,385.795 1265.5,405.5C 1274.76,393.726 1284.26,382.06 1294,370.5C 1301.72,361.949 1309.55,353.615 1317.5,345.5 Z"/></g>
<g><path style="opacity:1" fill="#4e4e4e" d="M 639.5,362.5 C 643.234,365.231 646.234,368.564 648.5,372.5C 644.766,369.769 641.766,366.436 639.5,362.5 Z"/></g>
<g><path style="opacity:1" fill="#adadad" d="M 624.5,367.5 C 628.868,371.867 632.868,376.533 636.5,381.5C 632.834,378.003 629.001,374.669 625,371.5C 624.51,370.207 624.343,368.873 624.5,367.5 Z"/></g>
<g><path style="opacity:1" fill="#8b8b8b" d="M 1274.5,371.5 C 1267.85,380.151 1260.85,388.484 1253.5,396.5C 1259.46,387.213 1266.46,378.88 1274.5,371.5 Z"/></g>
<g><path style="opacity:1" fill="#525252" d="M 652.5,377.5 C 655.903,379.9 658.57,382.9 660.5,386.5C 657.097,384.1 654.43,381.1 652.5,377.5 Z"/></g>
<g><path style="opacity:1" fill="#7f7f7f" d="M 636.5,381.5 C 640.234,384.231 643.234,387.564 645.5,391.5C 641.766,388.769 638.766,385.436 636.5,381.5 Z"/></g>
<g><path style="opacity:1" fill="#9d9d9d" d="M 646.5,393.5 C 650.246,395.577 652.912,398.577 654.5,402.5C 651.126,400.126 648.459,397.126 646.5,393.5 Z"/></g>
<g><path style="opacity:1" fill="#868686" d="M 1253.5,396.5 C 1252.22,399.447 1250.22,401.781 1247.5,403.5C 1248.81,400.527 1250.81,398.193 1253.5,396.5 Z"/></g>
<g><path style="opacity:1" fill="#b5b5b5" d="M 654.5,402.5 C 657.871,405.871 660.871,409.537 663.5,413.5C 660.79,411.055 657.956,408.722 655,406.5C 654.51,405.207 654.343,403.873 654.5,402.5 Z"/></g>
<g><path style="opacity:1" fill="#595959" d="M 673.5,402.5 C 676.243,404.239 678.243,406.573 679.5,409.5C 676.757,407.761 674.757,405.427 673.5,402.5 Z"/></g>
<g><path style="opacity:1" fill="#898989" d="M 1247.5,403.5 C 1244.22,409.047 1240.22,414.047 1235.5,418.5C 1238.81,412.834 1242.81,407.834 1247.5,403.5 Z"/></g>
<g><path style="opacity:1" fill="#6f6f6f" d="M 1265.5,405.5 C 1263.21,409.758 1260.21,413.424 1256.5,416.5C 1258.8,412.203 1261.8,408.536 1265.5,405.5 Z"/></g>
<g><path style="opacity:1" fill="#bfbfbf" d="M 663.5,413.5 C 667.592,417.258 670.926,421.591 673.5,426.5C 667.981,423.772 664.647,419.439 663.5,413.5 Z"/></g>
<g><path style="opacity:1" fill="#969696" d="M 1235.5,418.5 C 1234.88,420.754 1233.54,422.421 1231.5,423.5C 1232.14,421.205 1233.47,419.539 1235.5,418.5 Z"/></g>
<g><path style="opacity:1" fill="#757575" d="M 1253.5,420.5 C 1248.85,427.145 1243.85,433.478 1238.5,439.5C 1242.42,432.256 1247.42,425.922 1253.5,420.5 Z"/></g>
<g><path style="opacity:1" fill="#616161" d="M 690.5,423.5 C 692.587,424.585 693.92,426.251 694.5,428.5C 692.413,427.415 691.08,425.749 690.5,423.5 Z"/></g>
<g><path style="opacity:1" fill="#989898" d="M 1229.5,426.5 C 1224.85,433.145 1219.85,439.478 1214.5,445.5C 1218.45,438.231 1223.45,431.898 1229.5,426.5 Z"/></g>
<g><path style="opacity:1" fill="#c7c7c7" d="M 673.5,426.5 C 678.219,430.944 682.219,435.944 685.5,441.5C 679.331,438.125 675.331,433.125 673.5,426.5 Z"/></g>
<g><path style="opacity:1" fill="#6c6c6c" d="M 1238.5,439.5 C 1236.85,442.473 1234.85,445.14 1232.5,447.5C 1233.41,443.935 1235.41,441.268 1238.5,439.5 Z"/></g>
<g><path style="opacity:1" fill="#808080" d="M 685.5,441.5 C 687.914,442.911 689.581,444.911 690.5,447.5C 688.086,446.089 686.419,444.089 685.5,441.5 Z"/></g>
<g><path style="opacity:1" fill="#8e8e8e" d="M 1214.5,445.5 C 1212.24,450.09 1209.24,454.09 1205.5,457.5C 1207.79,452.886 1210.79,448.886 1214.5,445.5 Z"/></g>
<g><path style="opacity:1" fill="#b6b6b6" d="M 694.5,453.5 C 698.114,456.055 700.781,459.388 702.5,463.5C 699.562,462.063 697.062,460.063 695,457.5C 694.51,456.207 694.343,454.873 694.5,453.5 Z"/></g>
<g><path style="opacity:1" fill="#686868" d="M 1232.5,447.5 C 1223.4,460.051 1214.06,472.385 1204.5,484.5C 1212.74,472.383 1221.24,460.383 1230,448.5C 1230.67,447.748 1231.5,447.414 1232.5,447.5 Z"/></g>
<g><path style="opacity:1" fill="#aeaeae" d="M 702.5,463.5 C 707.738,468.316 711.738,473.982 714.5,480.5C 708.867,475.886 704.867,470.219 702.5,463.5 Z"/></g>
<g><path style="opacity:1" fill="#545454" d="M 726.5,471.5 C 728.587,472.585 729.92,474.251 730.5,476.5C 728.413,475.415 727.08,473.749 726.5,471.5 Z"/></g>
<g><path style="opacity:1" fill="#9b9b9b" d="M 1205.5,457.5 C 1198.64,467.893 1191.31,477.893 1183.5,487.5C 1189.88,476.713 1197.21,466.713 1205.5,457.5 Z"/></g>
<g><path style="opacity:1" fill="#424242" d="M 730.5,476.5 C 732.984,478.8 734.984,481.467 736.5,484.5C 732.62,483.281 730.62,480.615 730.5,476.5 Z"/></g>
<g><path style="opacity:1" fill="#b8b8b8" d="M 718.5,485.5 C 720.984,487.8 722.984,490.467 724.5,493.5C 720.562,492.235 718.562,489.568 718.5,485.5 Z"/></g>
<g><path style="opacity:1" fill="#7c7c7c" d="M 1204.5,484.5 C 1203.65,488.02 1201.65,490.687 1198.5,492.5C 1200.12,489.545 1202.12,486.878 1204.5,484.5 Z"/></g>
<g><path style="opacity:1" fill="#989898" d="M 1183.5,487.5 C 1182.28,491.049 1180.28,494.049 1177.5,496.5C 1178.72,492.951 1180.72,489.951 1183.5,487.5 Z"/></g>
<g><path style="opacity:1" fill="#6a6a6a" d="M 1198.5,492.5 C 1196.24,497.365 1193.24,501.698 1189.5,505.5C 1191.76,500.635 1194.76,496.302 1198.5,492.5 Z"/></g>
<g><path style="opacity:1" fill="#9d9d9d" d="M 724.5,493.5 C 728.857,498.88 732.857,504.546 736.5,510.5C 731.262,505.684 727.262,500.018 724.5,493.5 Z"/></g>
<g><path style="opacity:1" fill="#9c9c9c" d="M 1176.5,498.5 C 1173.86,502.148 1171.19,505.815 1168.5,509.5C 1169.66,504.683 1172.33,501.016 1176.5,498.5 Z"/></g>
<g><path style="opacity:1" fill="#646464" d="M 746.5,499.5 C 749.647,501.313 751.647,503.98 752.5,507.5C 751.504,507.586 750.671,507.252 750,506.5C 749.011,504.03 747.845,501.697 746.5,499.5 Z"/></g>
<g><path style="opacity:1" fill="#777777" d="M 1189.5,505.5 C 1188.28,509.049 1186.28,512.049 1183.5,514.5C 1184.72,510.951 1186.72,507.951 1189.5,505.5 Z"/></g>
<g><path style="opacity:1" fill="#434343" d="M 752.5,507.5 C 755.277,509.951 757.277,512.951 758.5,516.5C 756.422,515.257 754.588,513.59 753,511.5C 752.51,510.207 752.343,508.873 752.5,507.5 Z"/></g>
<g><path style="opacity:1" fill="#7e7e7e" d="M 1165.5,513.5 C 1165.06,517.598 1163.06,520.598 1159.5,522.5C 1160.72,518.951 1162.72,515.951 1165.5,513.5 Z"/></g>
<g><path style="opacity:1" fill="#939393" d="M 1183.5,514.5 C 1183.4,518.603 1181.4,521.27 1177.5,522.5C 1179.04,519.398 1181.04,516.732 1183.5,514.5 Z"/></g>
<g><path style="opacity:1" fill="#999999" d="M 736.5,510.5 C 740.693,514.023 743.693,518.356 745.5,523.5C 742.92,520.284 740.087,517.284 737,514.5C 736.51,513.207 736.343,511.873 736.5,510.5 Z"/></g>
<g><path style="opacity:1" fill="#a4a4a4" d="M 745.5,523.5 C 748.241,525.975 750.241,528.975 751.5,532.5C 747.884,530.555 745.884,527.555 745.5,523.5 Z"/></g>
<g><path style="opacity:1" fill="#7c7c7c" d="M 1159.5,522.5 C 1159.06,526.598 1157.06,529.598 1153.5,531.5C 1154.72,527.951 1156.72,524.951 1159.5,522.5 Z"/></g>
<g><path style="opacity:1" fill="#939393" d="M 1177.5,522.5 C 1177.64,527.015 1175.64,530.015 1171.5,531.5C 1173.12,528.223 1175.12,525.223 1177.5,522.5 Z"/></g>
<g><path style="opacity:1" fill="#aaaaaa" d="M 751.5,532.5 C 754.164,534.484 755.831,537.151 756.5,540.5C 753.231,538.886 751.564,536.219 751.5,532.5 Z"/></g>
<g><path style="opacity:1" fill="#939393" d="M 1171.5,531.5 C 1171.64,536.015 1169.64,539.015 1165.5,540.5C 1167.12,537.223 1169.12,534.223 1171.5,531.5 Z"/></g>
<g><path style="opacity:1" fill="#878787" d="M 1165.5,540.5 C 1164.11,546.221 1161.11,550.888 1156.5,554.5C 1158.51,549.145 1161.51,544.479 1165.5,540.5 Z"/></g>
<g><path style="opacity:1" fill="#a2a2a2" d="M 756.5,540.5 C 759.888,544.249 763.055,548.249 766,552.5C 766.49,553.793 766.657,555.127 766.5,556.5C 763.112,552.751 759.945,548.751 757,544.5C 756.51,543.207 756.343,541.873 756.5,540.5 Z"/></g>
<g><path style="opacity:1" fill="#4e4e4e" d="M 779.5,548.5 C 781.86,551.218 783.86,554.218 785.5,557.5C 781.908,555.573 779.908,552.573 779.5,548.5 Z"/></g>
<g><path style="opacity:1" fill="#969696" d="M 1156.5,554.5 C 1156.56,558.394 1154.89,561.061 1151.5,562.5C 1152.67,559.489 1154.34,556.822 1156.5,554.5 Z"/></g>
<g><path style="opacity:1" fill="#646464" d="M 787.5,560.5 C 788.89,561.899 789.89,563.566 790.5,565.5C 788.241,564.656 787.241,562.989 787.5,560.5 Z"/></g>
<g><path style="opacity:1" fill="#aeaeae" d="M 766.5,556.5 C 770.302,559.655 772.969,563.655 774.5,568.5C 771.721,566.312 769.387,563.645 767.5,560.5C 766.571,559.311 766.238,557.978 766.5,556.5 Z"/></g>
<g><path style="opacity:1" fill="#5a5a5a" d="M 1151.5,562.5 C 1150.66,564.853 1149.33,566.853 1147.5,568.5C 1147.84,565.802 1149.18,563.802 1151.5,562.5 Z"/></g>
<g><path style="opacity:1" fill="#585858" d="M 791.5,567.5 C 793.897,569.662 795.564,572.329 796.5,575.5C 793.368,573.797 791.701,571.13 791.5,567.5 Z"/></g>
<g><path style="opacity:1" fill="#848484" d="M 1147.5,569.5 C 1147.07,573.587 1145.07,576.587 1141.5,578.5C 1142.37,575.622 1143.7,572.955 1145.5,570.5C 1145.96,569.702 1146.62,569.369 1147.5,569.5 Z"/></g>
<g><path style="opacity:1" fill="#acacac" d="M 774.5,568.5 C 777.66,572.148 780.327,576.148 782.5,580.5C 777.83,577.825 775.163,573.825 774.5,568.5 Z"/></g>
<g><path style="opacity:1" fill="#787878" d="M 1126.5,574.5 C 1126.25,576.967 1125.25,578.967 1123.5,580.5C 1123.02,577.687 1124.02,575.687 1126.5,574.5 Z"/></g>
<g><path style="opacity:1" fill="#7e7e7e" d="M 1141.5,578.5 C 1141.41,580.848 1140.41,582.514 1138.5,583.5C 1138.75,581.326 1139.75,579.659 1141.5,578.5 Z"/></g>
<g><path style="opacity:1" fill="#464646" d="M 1122.5,582.5 C 1122,584.482 1121.5,586.482 1121,588.5C 1117.82,591.037 1115.32,594.037 1113.5,597.5C 1113.46,593.295 1115.29,590.295 1119,588.5C 1119.42,585.975 1120.59,583.975 1122.5,582.5 Z"/></g>
<g><path style="opacity:1" fill="#898989" d="M 1138.5,583.5 C 1138.52,588.129 1136.52,591.462 1132.5,593.5C 1134,589.827 1136,586.494 1138.5,583.5 Z"/></g>
<g><path style="opacity:1" fill="#7a7a7a" d="M 1132.5,593.5 C 1132.02,597.805 1130.02,601.139 1126.5,603.5C 1128,599.827 1130,596.494 1132.5,593.5 Z"/></g>
<g><path style="opacity:1" fill="#949494" d="M 782.5,581.5 C 785.223,584.586 787.723,587.92 790,591.5C 794.458,599.094 798.624,606.761 802.5,614.5C 801.206,613.71 800.039,612.71 799,611.5C 794.745,602.753 789.745,594.42 784,586.5C 783.392,584.846 782.892,583.179 782.5,581.5 Z"/></g>
<g><path style="opacity:1" fill="#727272" d="M 810.5,599.5 C 812.369,601.034 813.702,603.034 814.5,605.5C 812.178,604.198 810.845,602.198 810.5,599.5 Z"/></g>
<g><path style="opacity:1" fill="#979797" d="M 1108.5,604.5 C 1107.78,608.565 1105.78,611.899 1102.5,614.5C 1103.44,611.731 1104.6,609.064 1106,606.5C 1106.71,605.619 1107.54,604.953 1108.5,604.5 Z"/></g>
<g><path style="opacity:1" fill="#959595" d="M 803.5,616.5 C 805.897,618.662 807.564,621.329 808.5,624.5C 805.167,622.841 803.5,620.175 803.5,616.5 Z"/></g>
<g><path style="opacity:1" fill="#878787" d="M 1123.5,608.5 C 1123,610.482 1122.5,612.482 1122,614.5C 1117.18,622.091 1112.35,629.425 1107.5,636.5C 1111.9,626.623 1117.23,617.289 1123.5,608.5 Z"/></g>
<g><path style="opacity:1" fill="#959595" d="M 809.5,626.5 C 815.947,635.466 821.281,645.133 825.5,655.5C 822.883,651.745 820.05,648.078 817,644.5C 816.667,642.833 816.333,641.167 816,639.5C 812.754,635.675 810.587,631.341 809.5,626.5 Z"/></g>
<g><path style="opacity:1" fill="#535353" d="M 828.5,630.5 C 831.328,633.675 833.328,637.342 834.5,641.5C 831.192,638.55 829.192,634.884 828.5,630.5 Z"/></g>
<g><path style="opacity:1" fill="#b0b0b0" d="M 1093.5,630.5 C 1092.26,634.655 1090.26,638.322 1087.5,641.5C 1087.49,639.692 1087.99,638.025 1089,636.5C 1090.28,634.253 1091.78,632.253 1093.5,630.5 Z"/></g>
<g><path style="opacity:1" fill="#838383" d="M 1107.5,636.5 C 1106.81,640.884 1104.81,644.55 1101.5,647.5C 1102.67,643.342 1104.67,639.675 1107.5,636.5 Z"/></g>
<g><path style="opacity:1" fill="#9c9c9c" d="M 1087.5,641.5 C 1087.28,644.546 1085.94,646.879 1083.5,648.5C 1083.72,645.454 1085.06,643.121 1087.5,641.5 Z"/></g>
<g><path style="opacity:1" fill="#585858" d="M 1083.5,650.5 C 1083.25,652.967 1082.25,654.967 1080.5,656.5C 1080.02,653.687 1081.02,651.687 1083.5,650.5 Z"/></g>
<g><path style="opacity:1" fill="#868686" d="M 1101.5,648.5 C 1100.5,652.505 1098.5,655.839 1095.5,658.5C 1096.35,654.353 1098.35,651.02 1101.5,648.5 Z"/></g>
<g><path style="opacity:1" fill="#5d5d5d" d="M 840.5,652.5 C 842.245,654.033 843.245,656.033 843.5,658.5C 841.755,656.967 840.755,654.967 840.5,652.5 Z"/></g>
<g><path style="opacity:1" fill="#8d8d8d" d="M 825.5,655.5 C 826.906,657.474 828.406,659.474 830,661.5C 830.49,662.793 830.657,664.127 830.5,665.5C 829.094,663.526 827.594,661.526 826,659.5C 825.51,658.207 825.343,656.873 825.5,655.5 Z"/></g>
<g><path style="opacity:1" fill="#868686" d="M 1095.5,659.5 C 1095.01,661.819 1094.01,663.819 1092.5,665.5C 1092.03,662.607 1093.03,660.607 1095.5,659.5 Z"/></g>
<g><path style="opacity:1" fill="#4b4b4b" d="M 843.5,658.5 C 846.258,661.678 848.258,665.345 849.5,669.5C 845.787,666.924 843.787,663.257 843.5,658.5 Z"/></g>
<g><path style="opacity:1" fill="#b3b3b3" d="M 1078.5,659.5 C 1077.12,663.233 1075.12,666.566 1072.5,669.5C 1073.27,665.402 1075.27,662.069 1078.5,659.5 Z"/></g>
<g><path style="opacity:1" fill="#b8b8b8" d="M 830.5,665.5 C 831.458,665.953 832.292,666.619 833,667.5C 834.768,671.086 836.268,674.753 837.5,678.5C 836.115,677.386 834.615,676.386 833,675.5C 832.467,672.071 831.633,668.738 830.5,665.5 Z"/></g>
<g><path style="opacity:1" fill="#5d5d5d" d="M 851.5,673.5 C 854.607,677.379 856.941,681.712 858.5,686.5C 854.349,683.2 852.015,678.867 851.5,673.5 Z"/></g>
<g><path style="opacity:1" fill="#7c7c7c" d="M 1086.5,675.5 C 1086.98,678.313 1085.98,680.313 1083.5,681.5C 1083.75,679.033 1084.75,677.033 1086.5,675.5 Z"/></g>
<g><path style="opacity:1" fill="#858585" d="M 858.5,686.5 C 860.245,688.033 861.245,690.033 861.5,692.5C 859.025,691.313 858.025,689.313 858.5,686.5 Z"/></g>
<g><path style="opacity:1" fill="#747474" d="M 1081.5,686.5 C 1080.01,690.818 1078.01,694.818 1075.5,698.5C 1076.32,695.129 1077.49,691.796 1079,688.5C 1079.71,687.619 1080.54,686.953 1081.5,686.5 Z"/></g>
<g><path style="opacity:1" fill="#959595" d="M 843.5,690.5 C 845.245,692.033 846.245,694.033 846.5,696.5C 844.025,695.313 843.025,693.313 843.5,690.5 Z"/></g>
<g><path style="opacity:1" fill="#d0d0d0" d="M 1092.5,665.5 C 1090.46,669.595 1088.96,673.928 1088,678.5C 1082.65,688.227 1077.65,698.227 1073,708.5C 1072.33,709.252 1071.5,709.586 1070.5,709.5C 1070.83,708.167 1071.17,706.833 1071.5,705.5C 1073.2,703.434 1074.53,701.1 1075.5,698.5C 1078.01,694.818 1080.01,690.818 1081.5,686.5C 1081.12,684.302 1081.79,682.635 1083.5,681.5C 1085.98,680.313 1086.98,678.313 1086.5,675.5C 1087.28,671.395 1089.28,668.061 1092.5,665.5 Z"/></g>
<g><path style="opacity:1" fill="#5b5b5b" d="M 861.5,694.5 C 866.276,701.718 870.276,709.385 873.5,717.5C 872.542,717.047 871.708,716.381 871,715.5C 867.251,708.675 864.084,701.675 861.5,694.5 Z"/></g>
<g><path style="opacity:1" fill="#6e6e6e" d="M 1075.5,698.5 C 1074.53,701.1 1073.2,703.434 1071.5,705.5C 1071.72,702.454 1073.06,700.121 1075.5,698.5 Z"/></g>
<g><path style="opacity:1" fill="#b8b8b8" d="M 846.5,696.5 C 849.008,700.182 851.008,704.182 852.5,708.5C 847.954,706 845.954,702 846.5,696.5 Z"/></g>
<g><path style="opacity:1" fill="#616161" d="M 1071.5,705.5 C 1071.17,706.833 1070.83,708.167 1070.5,709.5C 1070.17,710.5 1069.5,711.167 1068.5,711.5C 1068.75,709.033 1069.75,707.033 1071.5,705.5 Z"/></g>
<g><path style="opacity:1" fill="#575757" d="M 1068.5,711.5 C 1068.25,713.967 1067.25,715.967 1065.5,717.5C 1065.75,715.033 1066.75,713.033 1068.5,711.5 Z"/></g>
<g><path style="opacity:1" fill="#adadad" d="M 852.5,708.5 C 855.008,712.182 857.008,716.182 858.5,720.5C 853.954,718 851.954,714 852.5,708.5 Z"/></g>
<g><path style="opacity:1" fill="#7f7f7f" d="M 873.5,717.5 C 875.87,721.586 877.87,725.919 879.5,730.5C 875.782,727.07 873.782,722.737 873.5,717.5 Z"/></g>
<g><path style="opacity:1" fill="#6a6a6a" d="M 1065.5,718.5 C 1064.61,722.609 1062.94,726.276 1060.5,729.5C 1061.17,726.29 1062.17,723.124 1063.5,720C 1063.84,718.97 1064.5,718.47 1065.5,718.5 Z"/></g>
<g><path style="opacity:1" fill="#5b5b5b" d="M 860.5,724.5 C 862.584,727.053 863.917,730.053 864.5,733.5C 862.416,730.947 861.083,727.947 860.5,724.5 Z"/></g>
<g><path style="opacity:1" fill="#5c5c5c" d="M 1043.5,732.5 C 1043.25,734.674 1042.25,736.341 1040.5,737.5C 1040.59,735.152 1041.59,733.486 1043.5,732.5 Z"/></g>
<g><path style="opacity:1" fill="#717171" d="M 864.5,733.5 C 866.245,735.033 867.245,737.033 867.5,739.5C 866.833,739.167 866.167,738.833 865.5,738.5C 864.699,736.958 864.366,735.292 864.5,733.5 Z"/></g>
<g><path style="opacity:1" fill="#b3b3b3" d="M 865.5,738.5 C 866.167,738.833 866.833,739.167 867.5,739.5C 869.483,742.116 870.483,745.116 870.5,748.5C 867.769,745.705 866.102,742.372 865.5,738.5 Z"/></g>
<g><path style="opacity:1" fill="#5f5f5f" d="M 886.5,747.5 C 888.245,749.033 889.245,751.033 889.5,753.5C 887.025,752.313 886.025,750.313 886.5,747.5 Z"/></g>
<g><path style="opacity:1" fill="#4c4c4c" d="M 1036.5,747.5 C 1035.61,751.837 1033.94,755.837 1031.5,759.5C 1032.11,754.968 1033.77,750.968 1036.5,747.5 Z"/></g>
<g><path style="opacity:1" fill="#848484" d="M 1058.5,735.5 C 1055.05,743.889 1051.05,751.889 1046.5,759.5C 1049.26,750.779 1053.26,742.779 1058.5,735.5 Z"/></g>
<g><path style="opacity:1" fill="#5a5a5a" d="M 873.5,753.5 C 875.245,755.033 876.245,757.033 876.5,759.5C 874.755,757.967 873.755,755.967 873.5,753.5 Z"/></g>
<g><path style="opacity:1" fill="#676767" d="M 1031.5,759.5 C 1031.25,761.674 1030.25,763.341 1028.5,764.5C 1028.59,762.152 1029.59,760.486 1031.5,759.5 Z"/></g>
<g><path style="opacity:1" fill="#5f5f5f" d="M 876.5,760.5 C 878.245,762.033 879.245,764.033 879.5,766.5C 877.755,764.967 876.755,762.967 876.5,760.5 Z"/></g>
<g><path style="opacity:1" fill="#9c9c9c" d="M 1046.5,760.5 C 1046.36,763.385 1045.36,765.718 1043.5,767.5C 1043.76,764.728 1044.76,762.395 1046.5,760.5 Z"/></g>
<g><path style="opacity:1" fill="#6a6a6a" d="M 1043.5,767.5 C 1043.5,768.167 1043.5,768.833 1043.5,769.5C 1042.86,771.076 1041.86,772.41 1040.5,773.5C 1040.75,771.033 1041.75,769.033 1043.5,767.5 Z"/></g>
<g><path style="opacity:1" fill="#5f5f5f" d="M 895.5,768.5 C 897.104,769.287 897.771,770.62 897.5,772.5C 897.5,772.833 897.5,773.167 897.5,773.5C 895.787,772.365 895.12,770.698 895.5,768.5 Z"/></g>
<g><path style="opacity:1" fill="#626262" d="M 1040.5,774.5 C 1040.25,776.967 1039.25,778.967 1037.5,780.5C 1037.75,778.033 1038.75,776.033 1040.5,774.5 Z"/></g>
<g><path style="opacity:1" fill="#a2a2a2" d="M 880.5,768.5 C 882.163,773.142 883.83,777.809 885.5,782.5C 881.115,778.924 879.448,774.257 880.5,768.5 Z"/></g>
<g><path style="opacity:1" fill="#b7b7b7" d="M 897.5,772.5 C 901.56,777.321 903.894,782.988 904.5,789.5C 902.176,784.274 899.843,778.941 897.5,773.5C 897.5,773.167 897.5,772.833 897.5,772.5 Z"/></g>
<g><path style="opacity:1" fill="#565656" d="M 1037.5,781.5 C 1037.25,783.967 1036.25,785.967 1034.5,787.5C 1034.75,785.033 1035.75,783.033 1037.5,781.5 Z"/></g>
<g><path style="opacity:1" fill="#c3c3c3" d="M 1043.5,769.5 C 1041.6,777.706 1038.43,785.373 1034,792.5C 1033.67,795.167 1033.33,797.833 1033,800.5C 1031.07,802.608 1029.57,804.941 1028.5,807.5C 1028.52,805.435 1028.85,803.435 1029.5,801.5C 1031.42,796.906 1033.08,792.239 1034.5,787.5C 1036.25,785.967 1037.25,783.967 1037.5,781.5C 1037.5,781.167 1037.5,780.833 1037.5,780.5C 1039.25,778.967 1040.25,776.967 1040.5,774.5C 1040.5,774.167 1040.5,773.833 1040.5,773.5C 1041.86,772.41 1042.86,771.076 1043.5,769.5 Z"/></g>
<g><path style="opacity:1" fill="#7c7c7c" d="M 1022.5,780.5 C 1022.25,782.967 1021.25,784.967 1019.5,786.5C 1019.75,784.033 1020.75,782.033 1022.5,780.5 Z"/></g>
<g><path style="opacity:1" fill="#5b5b5b" d="M 1019.5,788.5 C 1019.1,791.486 1018.1,794.152 1016.5,796.5C 1016.31,793.189 1017.31,790.522 1019.5,788.5 Z"/></g>
<g><path style="opacity:1" fill="#545454" d="M 891.5,797.5 C 893.245,799.033 894.245,801.033 894.5,803.5C 892.755,801.967 891.755,799.967 891.5,797.5 Z"/></g>
<g><path style="opacity:1" fill="#b8b8b8" d="M 885.5,783.5 C 888.485,787.667 890.485,792.334 891.5,797.5C 891.755,799.967 892.755,801.967 894.5,803.5C 895.374,806.789 896.041,810.123 896.5,813.5C 895.542,813.047 894.708,812.381 894,811.5C 891.72,801.875 888.887,792.542 885.5,783.5 Z"/></g>
<g><path style="opacity:1" fill="#505050" d="M 1016.5,796.5 C 1015.89,803.328 1013.56,809.328 1009.5,814.5C 1010.04,812.883 1010.37,811.216 1010.5,809.5C 1012.04,805.772 1013.38,801.938 1014.5,798C 1014.84,796.97 1015.5,796.47 1016.5,796.5 Z"/></g>
<g><path style="opacity:1" fill="#585858" d="M 1029.5,801.5 C 1028.85,803.435 1028.52,805.435 1028.5,807.5C 1027.83,808.167 1027.17,808.833 1026.5,809.5C 1026.35,806.284 1027.35,803.617 1029.5,801.5 Z"/></g>
<g><path style="opacity:1" fill="#b0b0b0" d="M 1028.5,807.5 C 1026.66,815.363 1023.66,822.696 1019.5,829.5C 1021.82,822.859 1024.15,816.193 1026.5,809.5C 1027.17,808.833 1027.83,808.167 1028.5,807.5 Z"/></g>
<g><path style="opacity:1" fill="#585858" d="M 913.5,815.5 C 915.074,817.102 915.741,819.102 915.5,821.5C 913.926,819.898 913.259,817.898 913.5,815.5 Z"/></g>
<g><path style="opacity:1" fill="#939393" d="M 1010.5,809.5 C 1010.37,811.216 1010.04,812.883 1009.5,814.5C 1008.06,818.674 1006.89,823.008 1006,827.5C 1004.21,830.085 1002.71,832.751 1001.5,835.5C 1001.68,832.784 1002.18,830.117 1003,827.5C 1005.83,821.494 1008.33,815.494 1010.5,809.5 Z"/></g>
<g><path style="opacity:1" fill="#b1b1b1" d="M 897.5,814.5 C 900.296,822.217 903.296,829.883 906.5,837.5C 906.993,839.806 907.326,842.139 907.5,844.5C 903.21,834.963 899.877,824.963 897.5,814.5 Z"/></g>
<g><path style="opacity:1" fill="#3b3b3b" d="M 916.5,825.5 C 919.839,829.862 921.839,834.862 922.5,840.5C 922.5,841.167 922.5,841.833 922.5,842.5C 920.227,839.149 918.393,835.482 917,831.5C 916.505,829.527 916.338,827.527 916.5,825.5 Z"/></g>
<g><path style="opacity:1" fill="#909090" d="M 1019.5,830.5 C 1019.4,835.549 1017.73,839.882 1014.5,843.5C 1016.02,838.924 1017.68,834.591 1019.5,830.5 Z"/></g>
<g><path style="opacity:1" fill="#7b7b7b" d="M 1001.5,836.5 C 1001.28,840.162 1000.28,843.495 998.5,846.5C 998.723,842.838 999.723,839.505 1001.5,836.5 Z"/></g>
<g><path style="opacity:1" fill="#aeaeae" d="M 922.5,840.5 C 926.117,844.759 927.783,849.759 927.5,855.5C 925.996,851.194 924.33,846.861 922.5,842.5C 922.5,841.833 922.5,841.167 922.5,840.5 Z"/></g>
<g><path style="opacity:1" fill="#393939" d="M 906.5,837.5 C 909.699,844.067 912.365,851.067 914.5,858.5C 914.997,860.818 915.33,863.152 915.5,865.5C 912.833,858.5 910.167,851.5 907.5,844.5C 907.326,842.139 906.993,839.806 906.5,837.5 Z"/></g>
<g><path style="opacity:1" fill="#7b7b7b" d="M 998.5,846.5 C 996.87,853.051 994.87,859.385 992.5,865.5C 993.339,858.655 995.339,852.321 998.5,846.5 Z"/></g>
<g><path style="opacity:1" fill="#6a6a6a" d="M 1014.5,843.5 C 1013.26,851.286 1010.92,858.619 1007.5,865.5C 1009.22,858.507 1011.05,851.507 1013,844.5C 1013.38,843.944 1013.88,843.611 1014.5,843.5 Z"/></g>
<g><path style="opacity:1" fill="#979797" d="M 927.5,855.5 C 928.117,855.611 928.617,855.944 929,856.5C 929.945,860.494 930.778,864.494 931.5,868.5C 929.422,864.491 928.089,860.158 927.5,855.5 Z"/></g>
<g><path style="opacity:1" fill="#b8b8b8" d="M 931.5,868.5 C 934.649,872.547 936.316,877.213 936.5,882.5C 934.309,878.099 932.643,873.432 931.5,868.5 Z"/></g>
<g><path style="opacity:1" fill="#727272" d="M 991.5,868.5 C 991.741,870.898 991.074,872.898 989.5,874.5C 989.259,872.102 989.926,870.102 991.5,868.5 Z"/></g>
<g><path style="opacity:1" fill="#9f9f9f" d="M 916.5,871.5 C 919.524,877.074 921.524,883.074 922.5,889.5C 919.542,883.959 917.542,877.959 916.5,871.5 Z"/></g>
<g><path style="opacity:1" fill="#b9b9b9" d="M 1007.5,866.5 C 1006.8,870.452 1006.3,874.452 1006,878.5C 1004.53,880.631 1003.03,882.631 1001.5,884.5C 1003.22,878.242 1005.22,872.242 1007.5,866.5 Z"/></g>
<g><path style="opacity:1" fill="#7a7a7a" d="M 989.5,875.5 C 989.117,878.811 988.117,881.811 986.5,884.5C 986.446,881.008 987.446,878.008 989.5,875.5 Z"/></g>
<g><path style="opacity:1" fill="#5b5b5b" d="M 986.5,885.5 C 986.11,888.839 985.61,892.173 985,895.5C 982.744,902.712 980.244,909.712 977.5,916.5C 978.145,911.061 979.312,905.728 981,900.5C 982.623,895.356 984.457,890.356 986.5,885.5 Z"/></g>
<g><path style="opacity:1" fill="#a3a3a3" d="M 1001.5,885.5 C 1001.09,893.056 999.088,900.056 995.5,906.5C 996.763,901.205 997.93,895.872 999,890.5C 999.374,888.509 1000.21,886.842 1001.5,885.5 Z"/></g>
<g><path style="opacity:1" fill="#3d3d3d" d="M 938.5,892.5 C 940.25,897.615 941.584,902.949 942.5,908.5C 939.36,903.724 938.027,898.391 938.5,892.5 Z"/></g>
<g><path style="opacity:1" fill="#cecece" d="M 922.5,891.5 C 925.283,896.677 926.949,902.344 927.5,908.5C 923.69,903.715 922.024,898.048 922.5,891.5 Z"/></g>
<g><path style="opacity:1" fill="#555555" d="M 995.5,906.5 C 994.85,908.435 994.517,910.435 994.5,912.5C 993.833,913.5 993.167,914.5 992.5,915.5C 992.59,913.304 992.923,911.137 993.5,909C 993.684,907.624 994.351,906.791 995.5,906.5 Z"/></g>
<g><path style="opacity:1" fill="#b0b0b0" d="M 929.5,915.5 C 931.356,920.235 932.69,925.235 933.5,930.5C 930.173,926.137 928.84,921.137 929.5,915.5 Z"/></g>
<g><path style="opacity:1" fill="#3d3d3d" d="M 944.5,916.5 C 945.931,917.78 946.598,919.447 946.5,921.5C 946.833,924.167 947.167,926.833 947.5,929.5C 945.763,925.458 944.763,921.124 944.5,916.5 Z"/></g>
<g><path style="opacity:1" fill="#616161" d="M 977.5,918.5 C 977.135,924.194 975.802,929.527 973.5,934.5C 974.056,930.16 974.723,925.827 975.5,921.5C 975.64,919.97 976.307,918.97 977.5,918.5 Z"/></g>
<g><path style="opacity:1" fill="#838383" d="M 946.5,921.5 C 947.789,925.833 949.289,930.166 951,934.5C 951.497,937.146 951.664,939.813 951.5,942.5C 950.198,938.255 948.865,933.922 947.5,929.5C 947.167,926.833 946.833,924.167 946.5,921.5 Z"/></g>
<g><path style="opacity:1" fill="#a3a3a3" d="M 933.5,930.5 C 935.89,935.455 937.224,940.788 937.5,946.5C 934.36,941.724 933.027,936.391 933.5,930.5 Z"/></g>
<g><path style="opacity:1" fill="#cbcbcb" d="M 994.5,912.5 C 994.665,915.518 994.498,918.518 994,921.5C 990.293,936.003 986.46,950.336 982.5,964.5C 982.342,961.098 982.676,957.764 983.5,954.5C 986.649,941.57 989.649,928.57 992.5,915.5C 993.167,914.5 993.833,913.5 994.5,912.5 Z"/></g>
<g><path style="opacity:1" fill="#afafaf" d="M 951.5,942.5 C 953.795,946.158 955.128,950.158 955.5,954.5C 955.657,955.873 955.49,957.207 955,958.5C 954.302,955.996 953.469,953.663 952.5,951.5C 952.296,948.482 951.963,945.482 951.5,942.5 Z"/></g>
<g><path style="opacity:1" fill="#434343" d="M 937.5,946.5 C 939.026,948.45 940.026,950.783 940.5,953.5C 941.459,957.796 942.125,962.129 942.5,966.5C 940.507,960.048 938.84,953.381 937.5,946.5 Z"/></g>
<g><path style="opacity:1" fill="#525252" d="M 973.5,936.5 C 972.762,942.931 971.595,949.265 970,955.5C 968.445,960.593 967.612,960.593 967.5,955.5C 969.203,950.706 970.536,945.706 971.5,940.5C 971.66,938.847 972.326,937.514 973.5,936.5 Z"/></g>
<g><path style="opacity:1" fill="#707070" d="M 983.5,954.5 C 982.676,957.764 982.342,961.098 982.5,964.5C 981.833,965.833 981.167,967.167 980.5,968.5C 980.421,964.798 980.754,961.132 981.5,957.5C 981.64,955.97 982.307,954.97 983.5,954.5 Z"/></g>
<g><path style="opacity:1" fill="#868686" d="M 980.5,968.5 C 980.23,973.45 979.23,978.117 977.5,982.5C 977.044,977.404 978.044,972.738 980.5,968.5 Z"/></g>
<g><path style="opacity:1" fill="#5f5f5f" d="M 943.5,973.5 C 944.117,973.611 944.617,973.944 945,974.5C 945.548,978.17 946.048,981.837 946.5,985.5C 944.755,981.8 943.755,977.8 943.5,973.5 Z"/></g>
<g><path style="opacity:1" fill="#7e7e7e" d="M 946.5,986.5 C 948.138,991.248 949.138,996.248 949.5,1001.5C 948.349,999.221 947.349,996.888 946.5,994.5C 946.5,991.833 946.5,989.167 946.5,986.5 Z"/></g>
<g><path style="opacity:1" fill="#cecdcd" d="M 946.5,994.5 C 947.349,996.888 948.349,999.221 949.5,1001.5C 949.5,1002.17 949.5,1002.83 949.5,1003.5C 949.676,1006.73 950.343,1009.73 951.5,1012.5C 952.473,1014.95 952.806,1017.61 952.5,1020.5C 951.833,1020.83 951.167,1021.17 950.5,1021.5C 949.156,1012.48 947.823,1003.48 946.5,994.5 Z"/></g>
<g><path style="opacity:1" fill="#565656" d="M 949.5,1003.5 C 950.117,1003.61 950.617,1003.94 951,1004.5C 951.497,1007.15 951.664,1009.81 951.5,1012.5C 950.343,1009.73 949.676,1006.73 949.5,1003.5 Z"/></g>
<g><path style="opacity:1" fill="#686868" d="M 977.5,982.5 C 976.037,991.551 974.37,1000.55 972.5,1009.5C 972.167,1009.5 971.833,1009.5 971.5,1009.5C 971.999,1005.51 972.499,1001.51 973,997.5C 973.906,992.226 975.406,987.226 977.5,982.5 Z"/></g>
<g><path style="opacity:1" fill="#b6b3b4" d="M 971.5,1009.5 C 971.833,1009.5 972.167,1009.5 972.5,1009.5C 972.5,1013.5 972.5,1017.5 972.5,1021.5C 971.833,1021.17 971.167,1020.83 970.5,1020.5C 970.552,1016.8 970.886,1013.14 971.5,1009.5 Z"/></g>
<g><path style="opacity:1" fill="#cb0b2a" d="M 970.5,1020.5 C 971.167,1020.83 971.833,1021.17 972.5,1021.5C 979.474,1025.45 982.807,1031.45 982.5,1039.5C 982.668,1043.66 982.002,1047.66 980.5,1051.5C 976.972,1055.7 972.639,1058.7 967.5,1060.5C 967.167,1060.5 966.833,1060.5 966.5,1060.5C 962.833,1060.5 959.167,1060.5 955.5,1060.5C 950.363,1059.03 946.363,1056.03 943.5,1051.5C 941.279,1047.83 940.279,1043.83 940.5,1039.5C 940.707,1031.75 944.04,1025.75 950.5,1021.5C 951.167,1021.17 951.833,1020.83 952.5,1020.5C 958.5,1017.83 964.5,1017.83 970.5,1020.5 Z"/></g>
<g><path style="opacity:1" fill="#070707" d="M 980.5,1051.5 C 982.002,1047.66 982.668,1043.66 982.5,1039.5C 1231.17,1039.67 1479.83,1039.5 1728.5,1039C 1724.91,1036.29 1721.41,1033.45 1718,1030.5C 1716.79,1025.58 1718.62,1022.58 1723.5,1021.5C 1733.42,1028.08 1743.09,1035.08 1752.5,1042.5C 1754.19,1045.9 1753.52,1048.74 1750.5,1051C 1743.55,1055.62 1736.88,1060.62 1730.5,1066C 1722.37,1072.08 1718.2,1070.24 1718,1060.5C 1721.57,1057.3 1725.4,1054.47 1729.5,1052C 1479.83,1051.5 1230.17,1051.33 980.5,1051.5 Z"/></g>
<g><path style="opacity:1" fill="#070707" d="M 940.5,1039.5 C 940.279,1043.83 941.279,1047.83 943.5,1051.5C 700.833,1051.67 458.166,1051.5 215.5,1051C 211.381,1046.93 211.715,1043.26 216.5,1040C 457.833,1039.5 699.166,1039.33 940.5,1039.5 Z"/></g>
<g><path style="opacity:1" fill="#171515" d="M 955.5,1060.5 C 959.167,1060.5 962.833,1060.5 966.5,1060.5C 963.375,1061.48 960.042,1061.81 956.5,1061.5C 956.5,1180.5 956.5,1299.5 956.5,1418.5C 955.5,1299.33 955.167,1180 955.5,1060.5 Z"/></g>
<g><path style="opacity:1" fill="#000000" d="M 966.5,1060.5 C 966.833,1060.5 967.167,1060.5 967.5,1060.5C 967.667,1179.83 967.5,1299.17 967,1418.5C 963.377,1422.48 959.877,1422.48 956.5,1418.5C 956.5,1299.5 956.5,1180.5 956.5,1061.5C 960.042,1061.81 963.375,1061.48 966.5,1060.5 Z"/></g>
<g><path style="opacity:1" fill="#5d9cef" d="M 1659.5,1095.5 C 1651.32,1095.17 1643.32,1095.51 1635.5,1096.5C 1634.96,1096.44 1634.62,1096.11 1634.5,1095.5C 1642.99,1094.18 1651.32,1094.18 1659.5,1095.5 Z"/></g>
<g><path style="opacity:1" fill="#5e9cef" d="M 1679.5,1095.5 C 1687.68,1094.18 1696.01,1094.18 1704.5,1095.5C 1704.38,1096.11 1704.04,1096.44 1703.5,1096.5C 1695.68,1095.51 1687.68,1095.17 1679.5,1095.5 Z"/></g>
<g><path style="opacity:1" fill="#2177e9" d="M 1659.5,1095.5 C 1662.82,1100.81 1666.16,1106.14 1669.5,1111.5C 1672.86,1106.1 1676.19,1100.77 1679.5,1095.5C 1687.68,1095.17 1695.68,1095.51 1703.5,1096.5C 1697.19,1106.48 1690.86,1116.48 1684.5,1126.5C 1691.62,1137.25 1698.62,1148.08 1705.5,1159C 1696.81,1159.83 1688.15,1159.67 1679.5,1158.5C 1676.25,1152.34 1672.75,1146.34 1669,1140.5C 1665.63,1146.75 1662.13,1152.91 1658.5,1159C 1650.15,1159.83 1641.81,1159.67 1633.5,1158.5C 1640.6,1148.08 1647.27,1137.41 1653.5,1126.5C 1647.5,1116.51 1641.5,1106.51 1635.5,1096.5C 1643.32,1095.51 1651.32,1095.17 1659.5,1095.5 Z"/></g>
</svg>
