<?xml version="1.0" encoding="UTF-8"?>
<!DOCTYPE svg PUBLIC "-//W3C//DTD SVG 1.1//EN" "http://www.w3.org/Graphics/SVG/1.1/DTD/svg11.dtd">
<svg xmlns="http://www.w3.org/2000/svg" version="1.1" width="2000px" height="1500px" style="shape-rendering:geometricPrecision; text-rendering:geometricPrecision; image-rendering:optimizeQuality; fill-rule:evenodd; clip-rule:evenodd" xmlns:xlink="http://www.w3.org/1999/xlink">
<g><path style="opacity:1" fill="#fefefe" d="M -0.5,-0.5 C 666.167,-0.5 1332.83,-0.5 1999.5,-0.5C 1999.5,499.5 1999.5,999.5 1999.5,1499.5C 1332.83,1499.5 666.167,1499.5 -0.5,1499.5C -0.5,999.5 -0.5,499.5 -0.5,-0.5 Z"/></g>
<g><path style="opacity:1" fill="#060606" d="M 589.5,98.5 C 589.217,97.7109 588.717,97.0442 588,96.5C 587.167,335.501 587.333,574.501 588.5,813.5C 589.107,813.376 589.44,813.043 589.5,812.5C 857.288,617.885 1124.96,423.051 1392.5,228C 1396.12,225.371 1399.95,223.204 1404,221.5C 1408.08,222.159 1409.42,224.492 1408,228.5C 1134.96,427.718 861.788,626.718 588.5,825.5C 587.5,961.666 587.167,1098 587.5,1234.5C 604.833,1234.5 622.167,1234.5 639.5,1234.5C 927.833,1235.45 1216.17,1236.45 1504.5,1237.5C 1537.33,1238.66 1570.33,1238.83 1603.5,1238C 1602.96,1237.28 1602.29,1236.78 1601.5,1236.5C 1597.43,1234.76 1594.76,1231.76 1593.5,1227.5C 1594.85,1223.75 1597.52,1222.58 1601.5,1224C 1607.66,1228.91 1613.99,1233.58 1620.5,1238C 1624.5,1241.33 1624.5,1244.67 1620.5,1248C 1613.99,1252.42 1607.66,1257.09 1601.5,1262C 1595.51,1263.67 1593.01,1261.5 1594,1255.5C 1596.44,1253.37 1598.94,1251.37 1601.5,1249.5C 1602.29,1249.22 1602.96,1248.72 1603.5,1248C 1571.84,1247.5 1540.17,1247.33 1508.5,1247.5C 1201.83,1246.62 895.166,1245.62 588.5,1244.5C 588.667,1302.5 588.5,1360.5 588,1418.5C 584.706,1422.47 581.54,1422.47 578.5,1418.5C 578.5,1360.17 578.5,1301.83 578.5,1243.5C 541.167,1243.5 503.833,1243.5 466.5,1243.5C 412.166,1243.67 357.832,1243.5 303.5,1243C 299.128,1240.81 298.461,1237.81 301.5,1234C 354.499,1233.5 407.499,1233.33 460.5,1233.5C 499.663,1234.5 538.996,1234.83 578.5,1234.5C 578.833,1100.83 578.5,967.165 577.5,833.5C 576.893,833.624 576.56,833.957 576.5,834.5C 489.019,897.746 401.686,961.246 314.5,1025C 311.494,1027.52 308.16,1028.85 304.5,1029C 302.876,1027.88 301.876,1026.38 301.5,1024.5C 302.559,1021.93 304.226,1019.77 306.5,1018C 397,952.167 487.5,886.333 578,820.5C 578.667,579.5 578.667,338.5 578,97.5C 575.843,100.656 573.343,103.489 570.5,106C 563.608,106.692 561.775,103.859 565,97.5C 570.025,91.3089 574.858,84.9755 579.5,78.5C 582.034,77.2234 584.534,77.2234 587,78.5C 591.615,85.4495 596.615,92.1162 602,98.5C 603.668,104.493 601.502,106.993 595.5,106C 592.906,103.914 590.906,101.414 589.5,98.5 Z"/></g>
<g><path style="opacity:1" fill="#636363" d="M 589.5,98.5 C 588.167,336.5 588.167,574.5 589.5,812.5C 589.44,813.043 589.107,813.376 588.5,813.5C 587.333,574.501 587.167,335.501 588,96.5C 588.717,97.0442 589.217,97.7109 589.5,98.5 Z"/></g>
<g><path style="opacity:1" fill="#629eef" d="M 523.5,199.5 C 531.01,198.18 538.677,198.18 546.5,199.5C 546.376,200.107 546.043,200.44 545.5,200.5C 538.352,199.508 531.019,199.175 523.5,199.5 Z"/></g>
<g><path style="opacity:1" fill="#2477e9" d="M 523.5,199.5 C 531.019,199.175 538.352,199.508 545.5,200.5C 537.105,223.515 528.605,246.515 520,269.5C 513.212,287.151 500.378,294.317 481.5,291C 480.525,285.259 480.192,279.425 480.5,273.5C 490.445,275.532 497.112,271.865 500.5,262.5C 491.765,241.289 483.431,219.955 475.5,198.5C 483.196,198.169 490.862,198.503 498.5,199.5C 502.821,213.115 506.987,226.781 511,240.5C 514.725,226.576 518.891,212.91 523.5,199.5 Z"/></g>
<g><path style="opacity:1" fill="#8f8f8f" d="M 576.5,834.5 C 576.56,833.957 576.893,833.624 577.5,833.5C 578.5,967.165 578.833,1100.83 578.5,1234.5C 538.996,1234.83 499.663,1234.5 460.5,1233.5C 499.5,1233.5 538.5,1233.5 577.5,1233.5C 577.833,1100.33 577.5,967.332 576.5,834.5 Z"/></g>
<g><path style="opacity:1" fill="#8e8e8e" d="M 588.5,825.5 C 588.5,961.5 588.5,1097.5 588.5,1233.5C 605.675,1233.17 622.675,1233.5 639.5,1234.5C 622.167,1234.5 604.833,1234.5 587.5,1234.5C 587.167,1098 587.5,961.666 588.5,825.5 Z"/></g>
<g><path style="opacity:1" fill="#585858" d="M 1601.5,1236.5 C 1602.29,1236.78 1602.96,1237.28 1603.5,1238C 1570.33,1238.83 1537.33,1238.66 1504.5,1237.5C 1537,1237.83 1569.34,1237.5 1601.5,1236.5 Z"/></g>
<g><path style="opacity:1" fill="#9f9f9f" d="M 466.5,1243.5 C 503.833,1243.5 541.167,1243.5 578.5,1243.5C 578.5,1301.83 578.5,1360.17 578.5,1418.5C 577.501,1360.67 577.168,1302.67 577.5,1244.5C 540.33,1244.83 503.33,1244.5 466.5,1243.5 Z"/></g>
<g><path style="opacity:1" fill="#a2a2a2" d="M 1508.5,1247.5 C 1540.17,1247.33 1571.84,1247.5 1603.5,1248C 1602.96,1248.72 1602.29,1249.22 1601.5,1249.5C 1570.5,1248.83 1539.5,1248.17 1508.5,1247.5 Z"/></g>
<g><path style="opacity:1" fill="#5d9cef" d="M 1517.5,1290.5 C 1509.32,1290.17 1501.32,1290.51 1493.5,1291.5C 1492.96,1291.44 1492.62,1291.11 1492.5,1290.5C 1500.99,1289.18 1509.32,1289.18 1517.5,1290.5 Z"/></g>
<g><path style="opacity:1" fill="#5e9cef" d="M 1537.5,1290.5 C 1545.68,1289.18 1554.01,1289.18 1562.5,1290.5C 1562.38,1291.11 1562.04,1291.44 1561.5,1291.5C 1553.68,1290.51 1545.68,1290.17 1537.5,1290.5 Z"/></g>
<g><path style="opacity:1" fill="#2177e9" d="M 1517.5,1290.5 C 1520.82,1295.81 1524.16,1301.14 1527.5,1306.5C 1530.86,1301.1 1534.19,1295.77 1537.5,1290.5C 1545.68,1290.17 1553.68,1290.51 1561.5,1291.5C 1555.19,1301.48 1548.86,1311.48 1542.5,1321.5C 1549.62,1332.25 1556.62,1343.08 1563.5,1354C 1554.81,1354.83 1546.15,1354.67 1537.5,1353.5C 1534.25,1347.34 1530.75,1341.34 1527,1335.5C 1523.63,1341.75 1520.13,1347.91 1516.5,1354C 1508.15,1354.83 1499.81,1354.67 1491.5,1353.5C 1498.6,1343.08 1505.27,1332.41 1511.5,1321.5C 1505.5,1311.51 1499.5,1301.51 1493.5,1291.5C 1501.32,1290.51 1509.32,1290.17 1517.5,1290.5 Z"/></g>
</svg>
