<?xml version="1.0" encoding="UTF-8"?>
<!DOCTYPE svg PUBLIC "-//W3C//DTD SVG 1.1//EN" "http://www.w3.org/Graphics/SVG/1.1/DTD/svg11.dtd">
<svg xmlns="http://www.w3.org/2000/svg" version="1.1" width="2000px" height="1500px" style="shape-rendering:geometricPrecision; text-rendering:geometricPrecision; image-rendering:optimizeQuality; fill-rule:evenodd; clip-rule:evenodd" xmlns:xlink="http://www.w3.org/1999/xlink">
<g><path style="opacity:1" fill="#fefefe" d="M -0.5,-0.5 C 666.167,-0.5 1332.83,-0.5 1999.5,-0.5C 1999.5,499.5 1999.5,999.5 1999.5,1499.5C 1332.83,1499.5 666.167,1499.5 -0.5,1499.5C -0.5,999.5 -0.5,499.5 -0.5,-0.5 Z"/></g>
<g><path style="opacity:1" fill="#060606" d="M 1601.5,1249.5 C 1602.04,1249.44 1602.38,1249.11 1602.5,1248.5C 1563.51,1247.5 1524.51,1247.17 1485.5,1247.5C 1186.5,1246.78 887.499,1245.78 588.5,1244.5C 588.667,1302.5 588.5,1360.5 588,1418.5C 584.667,1423.83 581.333,1423.83 578,1418.5C 577.5,1360.5 577.333,1302.5 577.5,1244.5C 486.166,1244.16 394.833,1243.66 303.5,1243C 298.605,1240.18 298.271,1236.84 302.5,1233C 394.163,1233.37 485.829,1233.53 577.5,1233.5C 578.833,1100.33 578.833,966.999 577.5,833.5C 576.893,833.624 576.56,833.957 576.5,834.5C 488.863,898.324 401.196,962.157 313.5,1026C 310.93,1028.46 307.93,1029.46 304.5,1029C 301.209,1026.67 300.709,1023.83 303,1020.5C 394.078,954.044 485.245,887.711 576.5,821.5C 577.667,580.501 577.833,339.501 577,98.5C 575.101,102.66 572.101,105.66 568,107.5C 564.833,107 563,105.167 562.5,102C 567.763,93.733 573.43,85.733 579.5,78C 581.833,76 584.167,76 586.5,78C 592.57,85.733 598.237,93.733 603.5,102C 602.016,106.911 599.016,108.244 594.5,106C 592.667,103.5 590.833,101 589,98.5C 588.333,336.5 588.333,574.5 589,812.5C 859.589,615.789 1130.09,418.956 1400.5,222C 1407,220.5 1409.5,223 1408,229.5C 1135,428.167 862,626.833 589,825.5C 588.5,961.833 588.333,1098.17 588.5,1234.5C 926.168,1235.37 1263.83,1236.2 1601.5,1237C 1597.73,1234.9 1595.06,1231.9 1593.5,1228C 1593.96,1224.87 1595.79,1223.04 1599,1222.5C 1605.82,1227.32 1612.66,1232.15 1619.5,1237C 1624.83,1241 1624.83,1245 1619.5,1249C 1612.66,1253.85 1605.82,1258.68 1599,1263.5C 1594.41,1262.59 1592.75,1259.93 1594,1255.5C 1596.09,1252.91 1598.59,1250.91 1601.5,1249.5 Z"/></g>
<g><path style="opacity:1" fill="#629eef" d="M 523.5,199.5 C 531.01,198.18 538.677,198.18 546.5,199.5C 546.376,200.107 546.043,200.44 545.5,200.5C 538.352,199.508 531.019,199.175 523.5,199.5 Z"/></g>
<g><path style="opacity:1" fill="#2477e9" d="M 523.5,199.5 C 531.019,199.175 538.352,199.508 545.5,200.5C 537.105,223.515 528.605,246.515 520,269.5C 513.212,287.151 500.378,294.317 481.5,291C 480.525,285.259 480.192,279.425 480.5,273.5C 490.445,275.532 497.112,271.865 500.5,262.5C 491.765,241.289 483.431,219.955 475.5,198.5C 483.196,198.169 490.862,198.503 498.5,199.5C 502.821,213.115 506.987,226.781 511,240.5C 514.725,226.576 518.891,212.91 523.5,199.5 Z"/></g>
<g><path style="opacity:1" fill="#393939" d="M 576.5,834.5 C 576.56,833.957 576.893,833.624 577.5,833.5C 578.833,966.999 578.833,1100.33 577.5,1233.5C 577.833,1100.33 577.5,967.332 576.5,834.5 Z"/></g>
<g><path style="opacity:1" fill="#4a4a4a" d="M 1485.5,1247.5 C 1524.51,1247.17 1563.51,1247.5 1602.5,1248.5C 1602.38,1249.11 1602.04,1249.44 1601.5,1249.5C 1562.83,1248.83 1524.17,1248.17 1485.5,1247.5 Z"/></g>
<g><path style="opacity:1" fill="#5d9cef" d="M 1517.5,1290.5 C 1509.32,1290.17 1501.32,1290.51 1493.5,1291.5C 1492.96,1291.44 1492.62,1291.11 1492.5,1290.5C 1500.99,1289.18 1509.32,1289.18 1517.5,1290.5 Z"/></g>
<g><path style="opacity:1" fill="#5e9cef" d="M 1537.5,1290.5 C 1545.68,1289.18 1554.01,1289.18 1562.5,1290.5C 1562.38,1291.11 1562.04,1291.44 1561.5,1291.5C 1553.68,1290.51 1545.68,1290.17 1537.5,1290.5 Z"/></g>
<g><path style="opacity:1" fill="#2177e9" d="M 1517.5,1290.5 C 1520.82,1295.81 1524.16,1301.14 1527.5,1306.5C 1530.86,1301.1 1534.19,1295.77 1537.5,1290.5C 1545.68,1290.17 1553.68,1290.51 1561.5,1291.5C 1555.19,1301.48 1548.86,1311.48 1542.5,1321.5C 1549.62,1332.25 1556.62,1343.08 1563.5,1354C 1554.81,1354.83 1546.15,1354.67 1537.5,1353.5C 1534.25,1347.34 1530.75,1341.34 1527,1335.5C 1523.63,1341.75 1520.13,1347.91 1516.5,1354C 1508.15,1354.83 1499.81,1354.67 1491.5,1353.5C 1498.6,1343.08 1505.27,1332.41 1511.5,1321.5C 1505.5,1311.51 1499.5,1301.51 1493.5,1291.5C 1501.32,1290.51 1509.32,1290.17 1517.5,1290.5 Z"/></g>
</svg>
