<?xml version="1.0" encoding="UTF-8"?>
<!DOCTYPE svg PUBLIC "-//W3C//DTD SVG 1.1//EN" "http://www.w3.org/Graphics/SVG/1.1/DTD/svg11.dtd">
<svg xmlns="http://www.w3.org/2000/svg" version="1.1" width="2000px" height="1500px" style="shape-rendering:geometricPrecision; text-rendering:geometricPrecision; image-rendering:optimizeQuality; fill-rule:evenodd; clip-rule:evenodd" xmlns:xlink="http://www.w3.org/1999/xlink">
<g><path style="opacity:1" fill="#fefefe" d="M -0.5,-0.5 C 666.167,-0.5 1332.83,-0.5 1999.5,-0.5C 1999.5,499.5 1999.5,999.5 1999.5,1499.5C 1332.83,1499.5 666.167,1499.5 -0.5,1499.5C -0.5,999.5 -0.5,499.5 -0.5,-0.5 Z"/></g>
<g><path style="opacity:1" fill="#050505" d="M 921.5,175.5 C 921.217,174.711 920.717,174.044 920,173.5C 919.174,185.674 919.34,197.674 920.5,209.5C 920.8,296.501 921.3,383.501 922,470.5C 928.397,464.595 934.897,458.929 941.5,453.5C 944.292,453.378 946.292,452.044 947.5,449.5C 949.296,447.1 951.63,445.433 954.5,444.5C 958.272,443.575 961.272,441.575 963.5,438.5C 965.623,437.217 967.623,435.717 969.5,434C 977.107,430.863 984.44,427.196 991.5,423C 996.702,421.953 1001.7,420.453 1006.5,418.5C 1009.4,417.871 1012.06,416.871 1014.5,415.5C 1016.5,415.167 1018.5,414.833 1020.5,414.5C 1024.68,414.149 1028.68,413.482 1032.5,412.5C 1043.33,411.341 1054.33,411.174 1065.5,412C 1067.38,412.198 1069.05,412.698 1070.5,413.5C 1072.66,414.407 1074.99,415.073 1077.5,415.5C 1098,423.918 1115,436.918 1128.5,454.5C 1128.71,455.922 1129.21,457.255 1130,458.5C 1131.72,461.288 1133.89,463.621 1136.5,465.5C 1141.41,473.594 1146.58,481.594 1152,489.5C 1156.16,498.63 1160.33,507.63 1164.5,516.5C 1163.91,520.964 1165.24,524.631 1168.5,527.5C 1171.19,535.975 1174.19,544.308 1177.5,552.5C 1177.34,554.527 1177.5,556.527 1178,558.5C 1178.38,559.056 1178.88,559.389 1179.5,559.5C 1179.5,559.833 1179.5,560.167 1179.5,560.5C 1180.06,562.801 1180.56,565.134 1181,567.5C 1181.38,568.056 1181.88,568.389 1182.5,568.5C 1182.5,568.833 1182.5,569.167 1182.5,569.5C 1183.06,571.801 1183.56,574.134 1184,576.5C 1184.38,577.056 1184.88,577.389 1185.5,577.5C 1187.3,584.382 1188.64,591.382 1189.5,598.5C 1190,602.49 1190.5,606.49 1191,610.5C 1191.28,611.416 1191.78,612.082 1192.5,612.5C 1192.5,613.167 1192.5,613.833 1192.5,614.5C 1192.78,621.084 1193.78,627.417 1195.5,633.5C 1196.98,647.817 1198.31,662.151 1199.5,676.5C 1199.7,683.026 1200.36,689.359 1201.5,695.5C 1202.32,699.647 1202.82,703.981 1203,708.5C 1203.28,709.416 1203.78,710.082 1204.5,710.5C 1204.5,711.5 1204.5,712.5 1204.5,713.5C 1204.72,721.078 1205.72,728.412 1207.5,735.5C 1207.83,739.5 1208.17,743.5 1208.5,747.5C 1208.82,752.844 1209.32,758.178 1210,763.5C 1210.38,764.056 1210.88,764.389 1211.5,764.5C 1211.47,768.869 1211.8,773.202 1212.5,777.5C 1212.17,780.228 1212.84,782.562 1214.5,784.5C 1214.96,787.482 1215.3,790.482 1215.5,793.5C 1216.04,797.819 1216.54,802.152 1217,806.5C 1217.28,807.416 1217.78,808.082 1218.5,808.5C 1218.5,808.833 1218.5,809.167 1218.5,809.5C 1218.76,814.124 1219.76,818.458 1221.5,822.5C 1223.31,829.402 1224.64,836.402 1225.5,843.5C 1225.75,847.04 1226.42,850.373 1227.5,853.5C 1228.43,854.568 1228.77,855.901 1228.5,857.5C 1229.12,862.526 1229.95,867.526 1231,872.5C 1231.38,873.056 1231.88,873.389 1232.5,873.5C 1233.82,877.74 1234.82,882.073 1235.5,886.5C 1235.41,889.152 1236.08,891.485 1237.5,893.5C 1241.47,909.399 1245.14,925.399 1248.5,941.5C 1248.26,943.898 1248.93,945.898 1250.5,947.5C 1250.99,953.294 1252.66,958.628 1255.5,963.5C 1255.34,965.527 1255.5,967.527 1256,969.5C 1256.38,970.056 1256.88,970.389 1257.5,970.5C 1257.72,973.067 1258.39,975.401 1259.5,977.5C 1260.37,980.112 1261.04,982.779 1261.5,985.5C 1258.04,986.394 1255.04,988.06 1252.5,990.5C 1251.71,987.198 1251.04,983.865 1250.5,980.5C 1250.24,977.728 1249.24,975.395 1247.5,973.5C 1247.5,972.833 1247.5,972.167 1247.5,971.5C 1246.94,969.199 1246.44,966.866 1246,964.5C 1245.62,963.944 1245.12,963.611 1244.5,963.5C 1244.77,961.901 1244.43,960.568 1243.5,959.5C 1243.74,957.102 1243.07,955.102 1241.5,953.5C 1241.55,951.097 1241.22,948.764 1240.5,946.5C 1240.43,943.572 1239.77,940.905 1238.5,938.5C 1237.38,933.795 1236.04,929.128 1234.5,924.5C 1234.19,920.64 1233.52,916.974 1232.5,913.5C 1231.66,913.158 1231.33,912.492 1231.5,911.5C 1231.25,907.96 1230.58,904.627 1229.5,901.5C 1228.73,899.285 1228.07,896.952 1227.5,894.5C 1227.74,892.102 1227.07,890.102 1225.5,888.5C 1225.17,885.833 1224.83,883.167 1224.5,880.5C 1224.74,878.102 1224.07,876.102 1222.5,874.5C 1222.17,872.5 1221.83,870.5 1221.5,868.5C 1220.74,862.582 1219.41,856.915 1217.5,851.5C 1217.5,851.167 1217.5,850.833 1217.5,850.5C 1217.33,846.466 1216.83,842.466 1216,838.5C 1215.62,837.944 1215.12,837.611 1214.5,837.5C 1214.5,836.5 1214.5,835.5 1214.5,834.5C 1214.88,832.302 1214.21,830.635 1212.5,829.5C 1212.77,827.901 1212.43,826.568 1211.5,825.5C 1211.88,821.511 1211.22,817.845 1209.5,814.5C 1205.6,794.606 1202.26,774.606 1199.5,754.5C 1199.21,746.93 1198.21,739.597 1196.5,732.5C 1196.18,725.654 1195.52,718.987 1194.5,712.5C 1194.67,709.15 1194.5,705.817 1194,702.5C 1193.72,701.584 1193.22,700.918 1192.5,700.5C 1192.5,699.167 1192.5,697.833 1192.5,696.5C 1192.13,689.992 1191.46,683.658 1190.5,677.5C 1190.5,677.167 1190.5,676.833 1190.5,676.5C 1190.67,672.818 1190.5,669.152 1190,665.5C 1189.72,664.584 1189.22,663.918 1188.5,663.5C 1188.5,662.833 1188.5,662.167 1188.5,661.5C 1188.45,652.917 1187.45,644.584 1185.5,636.5C 1185.5,635.167 1185.5,633.833 1185.5,632.5C 1184.53,623.999 1183.19,615.665 1181.5,607.5C 1181.5,607.167 1181.5,606.833 1181.5,606.5C 1181.59,603.848 1180.92,601.515 1179.5,599.5C 1179.5,598.5 1179.5,597.5 1179.5,596.5C 1179.25,592.96 1178.58,589.627 1177.5,586.5C 1174.26,574.453 1170.59,562.453 1166.5,550.5C 1165.95,547.254 1164.95,544.254 1163.5,541.5C 1162.98,539.694 1162.31,538.028 1161.5,536.5C 1161.77,534.62 1161.1,533.287 1159.5,532.5C 1155.71,523.299 1152.21,513.966 1149,504.5C 1146.13,500.06 1143.29,495.727 1140.5,491.5C 1139.29,487.322 1137.29,483.655 1134.5,480.5C 1129.81,471.77 1124.14,463.77 1117.5,456.5C 1116.58,453.911 1114.91,451.911 1112.5,450.5C 1102.18,439.679 1090.18,431.345 1076.5,425.5C 1076.39,424.883 1076.06,424.383 1075.5,424C 1073.13,423.56 1070.8,423.06 1068.5,422.5C 1065.31,422.142 1062.31,421.475 1059.5,420.5C 1052.35,419.345 1045.01,419.178 1037.5,420C 1036.94,420.383 1036.61,420.883 1036.5,421.5C 1034.26,421.205 1032.26,421.539 1030.5,422.5C 1025.39,422.044 1020.73,423.044 1016.5,425.5C 1016.17,425.5 1015.83,425.5 1015.5,425.5C 1012.01,425.446 1009.01,426.446 1006.5,428.5C 1000.37,430.532 994.365,432.865 988.5,435.5C 982.529,437.482 977.196,440.482 972.5,444.5C 970.326,444.75 968.659,445.75 967.5,447.5C 966.29,447.932 965.29,448.599 964.5,449.5C 960.559,451.14 956.892,453.306 953.5,456C 952.29,457.039 951.29,458.206 950.5,459.5C 939.952,466.543 930.452,474.876 922,484.5C 922.256,603.499 922.922,722.499 924,841.5C 1032.97,891.737 1141.8,942.07 1250.5,992.5C 1248.17,996.155 1246.84,1000.15 1246.5,1004.5C 1139,954.778 1031.33,905.444 923.5,856.5C 923.333,904.834 923.5,953.168 924,1001.5C 924.991,1002.43 925.491,1003.6 925.5,1005C 924.53,1024.48 924.197,1043.98 924.5,1063.5C 1037.5,1063.5 1150.5,1063.5 1263.5,1063.5C 1263.1,1058.04 1263.6,1052.71 1265,1047.5C 1267.38,1046.56 1269.88,1046.23 1272.5,1046.5C 1273.12,1047.63 1273.96,1048.63 1275,1049.5C 1275.5,1054.15 1275.67,1058.82 1275.5,1063.5C 1278.9,1063.82 1282.23,1063.49 1285.5,1062.5C 1280.54,1053.58 1275.88,1044.58 1271.5,1035.5C 1270.36,1032.06 1269.02,1028.73 1267.5,1025.5C 1270.97,1025.45 1274.3,1024.79 1277.5,1023.5C 1277.5,1024.17 1277.5,1024.83 1277.5,1025.5C 1277.75,1027.97 1278.75,1029.97 1280.5,1031.5C 1285.4,1042.4 1290.73,1053.06 1296.5,1063.5C 1322.5,1063.67 1348.5,1063.5 1374.5,1063C 1343.47,1048.82 1312.47,1034.65 1281.5,1020.5C 1283.75,1016.99 1285.75,1013.33 1287.5,1009.5C 1326.93,1027.05 1366.26,1044.88 1405.5,1063C 1530.83,1063.67 1656.17,1063.67 1781.5,1063C 1777.4,1060.53 1773.57,1057.7 1770,1054.5C 1768.1,1045.07 1771.6,1042.24 1780.5,1046C 1789.33,1052.83 1798.17,1059.67 1807,1066.5C 1808.18,1070.27 1807.35,1073.44 1804.5,1076C 1796.5,1082 1788.5,1088 1780.5,1094C 1773.01,1097.65 1769.17,1095.48 1769,1087.5C 1772.53,1083.31 1776.7,1079.81 1781.5,1077C 1666.17,1076.33 1550.83,1076.33 1435.5,1077C 1498.5,1106 1561.5,1135 1624.5,1164C 1628.26,1170.04 1626.76,1173.87 1620,1175.5C 1548.12,1142.81 1476.29,1109.98 1404.5,1077C 1371.5,1076.5 1338.5,1076.33 1305.5,1076.5C 1305.49,1078.31 1305.99,1079.98 1307,1081.5C 1320.89,1105.59 1336.56,1128.59 1354,1150.5C 1380.14,1177.27 1408.98,1200.27 1440.5,1219.5C 1440.97,1220.91 1441.97,1221.57 1443.5,1221.5C 1445.66,1223.08 1448,1224.42 1450.5,1225.5C 1453.71,1227.93 1457.38,1229.6 1461.5,1230.5C 1463.03,1232.25 1465.03,1233.25 1467.5,1233.5C 1476.58,1237.97 1485.91,1241.63 1495.5,1244.5C 1498.27,1245.66 1501.27,1246.32 1504.5,1246.5C 1506.5,1246.83 1508.5,1247.17 1510.5,1247.5C 1513.12,1249.27 1516.12,1249.93 1519.5,1249.5C 1519.61,1250.12 1519.94,1250.62 1520.5,1251C 1523.15,1251.5 1525.81,1251.66 1528.5,1251.5C 1533.99,1252.43 1539.66,1253.1 1545.5,1253.5C 1547.62,1253.33 1549.62,1253.66 1551.5,1254.5C 1558.98,1255.49 1566.65,1255.83 1574.5,1255.5C 1576.29,1256.31 1578.29,1256.81 1580.5,1257C 1589.16,1257.5 1597.83,1257.67 1606.5,1257.5C 1607.95,1258.13 1608.61,1259.3 1608.5,1261C 1608.14,1263.19 1607.14,1265.03 1605.5,1266.5C 1595.16,1266.28 1584.83,1265.95 1574.5,1265.5C 1564.79,1265.43 1555.12,1264.76 1545.5,1263.5C 1540.2,1261.13 1534.54,1260.13 1528.5,1260.5C 1524.52,1259.98 1520.52,1259.65 1516.5,1259.5C 1516.39,1258.88 1516.06,1258.38 1515.5,1258C 1511.81,1257.58 1508.14,1257.08 1504.5,1256.5C 1504.08,1255.78 1503.42,1255.28 1502.5,1255C 1499.85,1254.5 1497.19,1254.34 1494.5,1254.5C 1489.49,1252.97 1484.49,1251.3 1479.5,1249.5C 1477.97,1247.75 1475.97,1246.75 1473.5,1246.5C 1470.62,1246.06 1467.95,1245.06 1465.5,1243.5C 1463.52,1241.55 1461.19,1240.05 1458.5,1239C 1457.21,1238.51 1455.87,1238.34 1454.5,1238.5C 1449.02,1235.33 1443.36,1232.33 1437.5,1229.5C 1436.14,1226.48 1433.81,1225.15 1430.5,1225.5C 1405.9,1209.68 1382.9,1191.68 1361.5,1171.5C 1355.47,1165.14 1349.47,1158.81 1343.5,1152.5C 1336.53,1143.68 1329.7,1134.68 1323,1125.5C 1317.3,1115.41 1311.13,1105.74 1304.5,1096.5C 1303.49,1094.46 1302.49,1092.46 1301.5,1090.5C 1300.01,1088.07 1298.35,1085.73 1296.5,1083.5C 1296.25,1081.03 1295.25,1079.03 1293.5,1077.5C 1287.69,1076.51 1281.69,1076.18 1275.5,1076.5C 1275.67,1081.18 1275.5,1085.85 1275,1090.5C 1274.06,1092.95 1272.22,1093.95 1269.5,1093.5C 1266.78,1093.95 1264.94,1092.95 1264,1090.5C 1263.5,1085.85 1263.33,1081.18 1263.5,1076.5C 1150.5,1076.5 1037.5,1076.5 924.5,1076.5C 925.549,1163.16 925.716,1249.83 925,1336.5C 920.272,1340.9 916.605,1340.23 914,1334.5C 913.806,1248.49 913.306,1162.49 912.5,1076.5C 860.833,1076.5 809.167,1076.5 757.5,1076.5C 757.666,1081.51 757.499,1086.51 757,1091.5C 752.837,1095.75 749.171,1095.41 746,1090.5C 745.501,1085.85 745.334,1081.18 745.5,1076.5C 546.166,1076.67 346.833,1076.5 147.5,1076C 143.371,1073.37 142.538,1069.87 145,1065.5C 145.75,1064.87 146.584,1064.37 147.5,1064C 346.833,1063.5 546.166,1063.33 745.5,1063.5C 745.334,1058.82 745.501,1054.15 746,1049.5C 749.667,1045.5 753.333,1045.5 757,1049.5C 757.499,1054.15 757.666,1058.82 757.5,1063.5C 809.167,1063.5 860.833,1063.5 912.5,1063.5C 912.855,992.492 912.355,921.492 911,850.5C 863.124,828.052 815.291,805.719 767.5,783.5C 769.829,779.845 771.163,775.845 771.5,771.5C 817.326,792.886 863.326,813.886 909.5,834.5C 909.56,835.043 909.893,835.376 910.5,835.5C 911.831,786.668 911.831,738.002 910.5,689.5C 910.5,663.833 910.5,638.167 910.5,612.5C 910.833,573.828 910.5,535.161 909.5,496.5C 908.893,496.624 908.56,496.957 908.5,497.5C 904.76,501.233 901.427,505.233 898.5,509.5C 894.197,514.809 889.863,520.142 885.5,525.5C 883.75,526.659 882.75,528.326 882.5,530.5C 879.41,532.268 877.41,534.935 876.5,538.5C 876.167,538.5 875.833,538.5 875.5,538.5C 871.427,543.906 867.761,549.572 864.5,555.5C 862.178,556.802 860.845,558.802 860.5,561.5C 858.472,563.878 856.805,566.545 855.5,569.5C 853.44,572.24 851.774,575.24 850.5,578.5C 850.5,578.833 850.5,579.167 850.5,579.5C 847.011,583.046 844.678,587.379 843.5,592.5C 841.755,594.033 840.755,596.033 840.5,598.5C 838.755,600.033 837.755,602.033 837.5,604.5C 837.5,604.833 837.5,605.167 837.5,605.5C 835.245,607.531 833.912,610.198 833.5,613.5C 833.5,613.833 833.5,614.167 833.5,614.5C 832.069,615.903 830.902,617.569 830,619.5C 827.549,625.767 825.382,632.1 823.5,638.5C 821.063,644.554 818.73,650.554 816.5,656.5C 814.062,660.403 812.395,664.736 811.5,669.5C 811.5,669.833 811.5,670.167 811.5,670.5C 809.755,672.033 808.755,674.033 808.5,676.5C 806.237,684.212 803.07,691.546 799,698.5C 798.338,700.813 797.838,703.146 797.5,705.5C 794.253,708.315 792.253,711.982 791.5,716.5C 789.755,718.033 788.755,720.033 788.5,722.5C 788.5,722.833 788.5,723.167 788.5,723.5C 786.441,725.266 785.107,727.599 784.5,730.5C 782.497,734.17 780.497,737.837 778.5,741.5C 776.255,744.32 774.255,747.32 772.5,750.5C 770.396,752.372 769.063,754.705 768.5,757.5C 766.116,755.115 763.45,753.115 760.5,751.5C 765.341,742.476 770.841,733.81 777,725.5C 777.608,723.846 778.108,722.179 778.5,720.5C 782.052,715.218 785.052,709.552 787.5,703.5C 788.054,700.254 789.054,697.254 790.5,694.5C 793.276,689.792 795.609,684.792 797.5,679.5C 797.833,678.167 798.167,676.833 798.5,675.5C 800.739,671.351 802.739,667.018 804.5,662.5C 811.712,641.761 819.712,621.427 828.5,601.5C 831.25,597.613 833.25,593.28 834.5,588.5C 835.877,586.711 836.877,584.711 837.5,582.5C 839.245,580.967 840.245,578.967 840.5,576.5C 842.943,573.948 844.61,570.948 845.5,567.5C 848.255,563.745 850.589,559.745 852.5,555.5C 854.822,554.198 856.155,552.198 856.5,549.5C 859.225,545.159 861.892,540.826 864.5,536.5C 864.957,535.702 865.624,535.369 866.5,535.5C 870.237,531.698 873.237,527.365 875.5,522.5C 879.746,519.391 883.08,515.391 885.5,510.5C 886.026,508.77 887.026,507.436 888.5,506.5C 891.19,504.807 893.19,502.473 894.5,499.5C 895.496,499.586 896.329,499.252 897,498.5C 899.741,495.271 902.241,491.938 904.5,488.5C 905.534,486.447 907.034,484.78 909,483.5C 909.547,392.499 909.38,301.499 908.5,210.5C 908.667,198.162 908.5,185.829 908,173.5C 907.283,174.044 906.783,174.711 906.5,175.5C 904.113,180.055 900.613,183.388 896,185.5C 890.977,184.458 889.31,181.458 891,176.5C 897.167,168.167 903.333,159.833 909.5,151.5C 911.527,149.661 913.86,149.161 916.5,150C 923.938,158.382 930.771,167.215 937,176.5C 938.098,183.743 935.265,186.243 928.5,184C 925.8,181.412 923.467,178.579 921.5,175.5 Z"/></g>
<g><path style="opacity:1" fill="#5f9def" d="M 851.5,199.5 C 859.01,198.18 866.677,198.18 874.5,199.5C 874.376,200.107 874.043,200.44 873.5,200.5C 866.352,199.508 859.019,199.175 851.5,199.5 Z"/></g>
<g><path style="opacity:1" fill="#2377e9" d="M 851.5,199.5 C 859.019,199.175 866.352,199.508 873.5,200.5C 864.361,226.749 854.528,252.749 844,278.5C 839.382,285.562 832.882,289.728 824.5,291C 819.316,291.816 814.316,291.65 809.5,290.5C 809.178,284.642 809.511,278.975 810.5,273.5C 820.268,275.454 826.268,271.621 828.5,262C 820.265,241.127 811.931,220.293 803.5,199.5C 811.392,198.186 819.225,198.186 827,199.5C 831.613,213.672 835.613,228.005 839,242.5C 842.671,227.991 846.838,213.657 851.5,199.5 Z"/></g>
<g><path style="opacity:1" fill="#626262" d="M 921.5,175.5 C 920.505,186.654 920.172,197.988 920.5,209.5C 919.34,197.674 919.174,185.674 920,173.5C 920.717,174.044 921.217,174.711 921.5,175.5 Z"/></g>
<g><path style="opacity:1" fill="#9d9d9d" d="M 908.5,210.5 C 907.833,198.833 907.167,187.167 906.5,175.5C 906.783,174.711 907.283,174.044 908,173.5C 908.5,185.829 908.667,198.162 908.5,210.5 Z"/></g>
<g><path style="opacity:1" fill="#9fc4f5" d="M 810.5,273.5 C 809.511,278.975 809.178,284.642 809.5,290.5C 808.183,284.654 808.183,278.654 809.5,272.5C 810.107,272.624 810.44,272.957 810.5,273.5 Z"/></g>
<g><path style="opacity:1" fill="#5d5d5d" d="M 1032.5,412.5 C 1028.68,413.482 1024.68,414.149 1020.5,414.5C 1024.18,412.75 1028.18,412.083 1032.5,412.5 Z"/></g>
<g><path style="opacity:1" fill="#9a9a9a" d="M 1070.5,413.5 C 1072.53,413.338 1074.53,413.505 1076.5,414C 1077.06,414.383 1077.39,414.883 1077.5,415.5C 1074.99,415.073 1072.66,414.407 1070.5,413.5 Z"/></g>
<g><path style="opacity:1" fill="#797979" d="M 1014.5,415.5 C 1012.06,416.871 1009.4,417.871 1006.5,418.5C 1008.62,416.345 1011.28,415.345 1014.5,415.5 Z"/></g>
<g><path style="opacity:1" fill="#545454" d="M 1059.5,420.5 C 1051.78,420.233 1044.11,420.566 1036.5,421.5C 1036.61,420.883 1036.94,420.383 1037.5,420C 1045.01,419.178 1052.35,419.345 1059.5,420.5 Z"/></g>
<g><path style="opacity:1" fill="#dbdbdb" d="M 1059.5,420.5 C 1062.31,421.475 1065.31,422.142 1068.5,422.5C 1068.5,422.833 1068.5,423.167 1068.5,423.5C 1055.83,422.189 1043.16,422.189 1030.5,423.5C 1030.5,423.167 1030.5,422.833 1030.5,422.5C 1032.26,421.539 1034.26,421.205 1036.5,421.5C 1044.11,420.566 1051.78,420.233 1059.5,420.5 Z"/></g>
<g><path style="opacity:1" fill="#fefefe" d="M 1068.5,423.5 C 1071.11,424.291 1073.78,424.957 1076.5,425.5C 1090.18,431.345 1102.18,439.679 1112.5,450.5C 1113.42,453.089 1115.09,455.089 1117.5,456.5C 1124.14,463.77 1129.81,471.77 1134.5,480.5C 1135.71,484.678 1137.71,488.345 1140.5,491.5C 1143.29,495.727 1146.13,500.06 1149,504.5C 1152.21,513.966 1155.71,523.299 1159.5,532.5C 1159.66,534.153 1160.33,535.486 1161.5,536.5C 1162.31,538.028 1162.98,539.694 1163.5,541.5C 1163.59,543.696 1163.92,545.863 1164.5,548C 1164.68,549.376 1165.35,550.209 1166.5,550.5C 1170.59,562.453 1174.26,574.453 1177.5,586.5C 1177.34,589.187 1177.5,591.854 1178,594.5C 1178.28,595.416 1178.78,596.082 1179.5,596.5C 1179.5,597.5 1179.5,598.5 1179.5,599.5C 1179.41,602.152 1180.08,604.485 1181.5,606.5C 1181.5,606.833 1181.5,607.167 1181.5,607.5C 1182,615.195 1182.84,622.861 1184,630.5C 1184.28,631.416 1184.78,632.082 1185.5,632.5C 1185.5,633.833 1185.5,635.167 1185.5,636.5C 1185.83,643.507 1186.33,650.507 1187,657.5C 1187.21,659.058 1187.71,660.391 1188.5,661.5C 1188.5,662.167 1188.5,662.833 1188.5,663.5C 1188.28,668.1 1188.95,672.433 1190.5,676.5C 1190.5,676.833 1190.5,677.167 1190.5,677.5C 1189.88,684.255 1190.54,690.588 1192.5,696.5C 1192.5,697.833 1192.5,699.167 1192.5,700.5C 1192.2,704.79 1192.86,708.79 1194.5,712.5C 1195.52,718.987 1196.18,725.654 1196.5,732.5C 1196.5,738.018 1196.83,743.518 1197.5,749C 1197.55,751.295 1198.21,753.129 1199.5,754.5C 1202.26,774.606 1205.6,794.606 1209.5,814.5C 1209.12,818.489 1209.78,822.155 1211.5,825.5C 1212.43,826.568 1212.77,827.901 1212.5,829.5C 1212.12,831.698 1212.79,833.365 1214.5,834.5C 1214.5,835.5 1214.5,836.5 1214.5,837.5C 1215.19,842.017 1216.19,846.35 1217.5,850.5C 1217.5,850.833 1217.5,851.167 1217.5,851.5C 1217.23,857.657 1218.56,863.323 1221.5,868.5C 1221.83,870.5 1222.17,872.5 1222.5,874.5C 1222.26,876.898 1222.93,878.898 1224.5,880.5C 1224.83,883.167 1225.17,885.833 1225.5,888.5C 1225.26,890.898 1225.93,892.898 1227.5,894.5C 1228.07,896.952 1228.73,899.285 1229.5,901.5C 1229.34,904.187 1229.5,906.854 1230,909.5C 1230.28,910.416 1230.78,911.082 1231.5,911.5C 1231.33,912.492 1231.66,913.158 1232.5,913.5C 1232.12,917.489 1232.78,921.155 1234.5,924.5C 1236.04,929.128 1237.38,933.795 1238.5,938.5C 1238.29,941.495 1238.96,944.162 1240.5,946.5C 1241.22,948.764 1241.55,951.097 1241.5,953.5C 1241.26,955.898 1241.93,957.898 1243.5,959.5C 1244.43,960.568 1244.77,961.901 1244.5,963.5C 1245.06,965.801 1245.56,968.134 1246,970.5C 1246.38,971.056 1246.88,971.389 1247.5,971.5C 1247.5,972.167 1247.5,972.833 1247.5,973.5C 1247.76,976.272 1248.76,978.605 1250.5,980.5C 1251.04,983.865 1251.71,987.198 1252.5,990.5C 1252.17,991.5 1251.5,992.167 1250.5,992.5C 1141.8,942.07 1032.97,891.737 924,841.5C 922.922,722.499 922.256,603.499 922,484.5C 930.452,474.876 939.952,466.543 950.5,459.5C 954.304,457.096 958.304,454.929 962.5,453C 963.305,451.887 963.972,450.721 964.5,449.5C 965.29,448.599 966.29,447.932 967.5,447.5C 969.848,447.408 971.514,446.408 972.5,444.5C 974.482,444.005 976.482,443.505 978.5,443C 982.161,440.945 985.495,438.445 988.5,435.5C 994.365,432.865 1000.37,430.532 1006.5,428.5C 1009.81,428.117 1012.81,427.117 1015.5,425.5C 1015.83,425.5 1016.17,425.5 1016.5,425.5C 1021.17,424.833 1025.83,424.167 1030.5,423.5C 1043.16,422.189 1055.83,422.189 1068.5,423.5 Z"/></g>
<g><path style="opacity:1" fill="#949494" d="M 1030.5,422.5 C 1030.5,422.833 1030.5,423.167 1030.5,423.5C 1025.83,424.167 1021.17,424.833 1016.5,425.5C 1020.73,423.044 1025.39,422.044 1030.5,422.5 Z"/></g>
<g><path style="opacity:1" fill="#5d5d5d" d="M 1068.5,423.5 C 1068.5,423.167 1068.5,422.833 1068.5,422.5C 1070.8,423.06 1073.13,423.56 1075.5,424C 1076.06,424.383 1076.39,424.883 1076.5,425.5C 1073.78,424.957 1071.11,424.291 1068.5,423.5 Z"/></g>
<g><path style="opacity:1" fill="#727272" d="M 1015.5,425.5 C 1012.81,427.117 1009.81,428.117 1006.5,428.5C 1009.01,426.446 1012.01,425.446 1015.5,425.5 Z"/></g>
<g><path style="opacity:1" fill="#ababab" d="M 988.5,435.5 C 985.495,438.445 982.161,440.945 978.5,443C 976.482,443.505 974.482,444.005 972.5,444.5C 977.196,440.482 982.529,437.482 988.5,435.5 Z"/></g>
<g><path style="opacity:1" fill="#444444" d="M 963.5,438.5 C 961.272,441.575 958.272,443.575 954.5,444.5C 956.951,441.723 959.951,439.723 963.5,438.5 Z"/></g>
<g><path style="opacity:1" fill="#969696" d="M 972.5,444.5 C 971.514,446.408 969.848,447.408 967.5,447.5C 968.659,445.75 970.326,444.75 972.5,444.5 Z"/></g>
<g><path style="opacity:1" fill="#5a5a5a" d="M 947.5,449.5 C 946.292,452.044 944.292,453.378 941.5,453.5C 943.223,451.782 945.223,450.449 947.5,449.5 Z"/></g>
<g><path style="opacity:1" fill="#969696" d="M 1112.5,450.5 C 1114.91,451.911 1116.58,453.911 1117.5,456.5C 1115.09,455.089 1113.42,453.089 1112.5,450.5 Z"/></g>
<g><path style="opacity:1" fill="#b2b2b2" d="M 964.5,449.5 C 963.972,450.721 963.305,451.887 962.5,453C 958.304,454.929 954.304,457.096 950.5,459.5C 951.29,458.206 952.29,457.039 953.5,456C 956.892,453.306 960.559,451.14 964.5,449.5 Z"/></g>
<g><path style="opacity:1" fill="#3c3c3c" d="M 1128.5,454.5 C 1131.9,457.627 1134.56,461.293 1136.5,465.5C 1133.89,463.621 1131.72,461.288 1130,458.5C 1129.21,457.255 1128.71,455.922 1128.5,454.5 Z"/></g>
<g><path style="opacity:1" fill="#a8a8a8" d="M 1134.5,480.5 C 1137.29,483.655 1139.29,487.322 1140.5,491.5C 1137.71,488.345 1135.71,484.678 1134.5,480.5 Z"/></g>
<g><path style="opacity:1" fill="#464646" d="M 904.5,488.5 C 902.241,491.938 899.741,495.271 897,498.5C 896.329,499.252 895.496,499.586 894.5,499.5C 897.123,495.209 900.456,491.543 904.5,488.5 Z"/></g>
<g><path style="opacity:1" fill="#fefefe" d="M 908.5,497.5 C 909.167,535.833 909.833,574.167 910.5,612.5C 910.5,638.167 910.5,663.833 910.5,689.5C 910.832,738.003 910.499,786.336 909.5,834.5C 863.326,813.886 817.326,792.886 771.5,771.5C 771.959,766.485 770.959,761.819 768.5,757.5C 769.063,754.705 770.396,752.372 772.5,750.5C 776.23,748.719 778.23,745.719 778.5,741.5C 780.497,737.837 782.497,734.17 784.5,730.5C 786.559,728.734 787.893,726.401 788.5,723.5C 788.5,723.167 788.5,722.833 788.5,722.5C 790.245,720.967 791.245,718.967 791.5,716.5C 793.736,713.033 795.736,709.366 797.5,705.5C 797.838,703.146 798.338,700.813 799,698.5C 803.07,691.546 806.237,684.212 808.5,676.5C 810.245,674.967 811.245,672.967 811.5,670.5C 811.5,670.167 811.5,669.833 811.5,669.5C 812.961,667.27 814.461,664.937 816,662.5C 816.495,660.527 816.662,658.527 816.5,656.5C 818.73,650.554 821.063,644.554 823.5,638.5C 824.79,637.942 825.623,636.942 826,635.5C 828.347,628.448 830.847,621.448 833.5,614.5C 833.5,614.167 833.5,613.833 833.5,613.5C 835.718,611.349 837.052,608.682 837.5,605.5C 837.5,605.167 837.5,604.833 837.5,604.5C 839.245,602.967 840.245,600.967 840.5,598.5C 842.245,596.967 843.245,594.967 843.5,592.5C 846.645,588.666 848.979,584.333 850.5,579.5C 850.5,579.167 850.5,578.833 850.5,578.5C 854.216,576.72 855.882,573.72 855.5,569.5C 856.805,566.545 858.472,563.878 860.5,561.5C 862.326,559.853 863.66,557.853 864.5,555.5C 867.576,551.244 870.909,547.077 874.5,543C 875.148,541.56 875.481,540.06 875.5,538.5C 875.833,538.5 876.167,538.5 876.5,538.5C 879.015,536.236 881.015,533.569 882.5,530.5C 882.75,528.326 883.75,526.659 885.5,525.5C 891.296,521.369 895.629,516.036 898.5,509.5C 901.427,505.233 904.76,501.233 908.5,497.5 Z"/></g>
<g><path style="opacity:1" fill="#595959" d="M 894.5,499.5 C 893.19,502.473 891.19,504.807 888.5,506.5C 889.781,503.553 891.781,501.219 894.5,499.5 Z"/></g>
<g><path style="opacity:1" fill="#b1b1b1" d="M 898.5,509.5 C 895.629,516.036 891.296,521.369 885.5,525.5C 889.863,520.142 894.197,514.809 898.5,509.5 Z"/></g>
<g><path style="opacity:1" fill="#585858" d="M 885.5,510.5 C 883.08,515.391 879.746,519.391 875.5,522.5C 878.386,518.02 881.719,514.02 885.5,510.5 Z"/></g>
<g><path style="opacity:1" fill="#3f3f3f" d="M 1164.5,516.5 C 1166.08,520.008 1167.41,523.674 1168.5,527.5C 1165.24,524.631 1163.91,520.964 1164.5,516.5 Z"/></g>
<g><path style="opacity:1" fill="#6b6b6b" d="M 875.5,522.5 C 873.237,527.365 870.237,531.698 866.5,535.5C 868.763,530.635 871.763,526.302 875.5,522.5 Z"/></g>
<g><path style="opacity:1" fill="#5e5e5e" d="M 908.5,497.5 C 908.56,496.957 908.893,496.624 909.5,496.5C 910.5,535.161 910.833,573.828 910.5,612.5C 909.833,574.167 909.167,535.833 908.5,497.5 Z"/></g>
<g><path style="opacity:1" fill="#767676" d="M 1159.5,532.5 C 1161.1,533.287 1161.77,534.62 1161.5,536.5C 1160.33,535.486 1159.66,534.153 1159.5,532.5 Z"/></g>
<g><path style="opacity:1" fill="#919191" d="M 882.5,530.5 C 881.015,533.569 879.015,536.236 876.5,538.5C 877.41,534.935 879.41,532.268 882.5,530.5 Z"/></g>
<g><path style="opacity:1" fill="#a5a5a5" d="M 875.5,538.5 C 875.481,540.06 875.148,541.56 874.5,543C 870.909,547.077 867.576,551.244 864.5,555.5C 867.761,549.572 871.427,543.906 875.5,538.5 Z"/></g>
<g><path style="opacity:1" fill="#939393" d="M 1163.5,541.5 C 1164.95,544.254 1165.95,547.254 1166.5,550.5C 1165.35,550.209 1164.68,549.376 1164.5,548C 1163.92,545.863 1163.59,543.696 1163.5,541.5 Z"/></g>
<g><path style="opacity:1" fill="#717171" d="M 856.5,549.5 C 856.155,552.198 854.822,554.198 852.5,555.5C 853.34,553.147 854.674,551.147 856.5,549.5 Z"/></g>
<g><path style="opacity:1" fill="#5b5b5b" d="M 1177.5,552.5 C 1178.41,554.657 1179.07,556.99 1179.5,559.5C 1178.88,559.389 1178.38,559.056 1178,558.5C 1177.5,556.527 1177.34,554.527 1177.5,552.5 Z"/></g>
<g><path style="opacity:1" fill="#838383" d="M 864.5,555.5 C 863.66,557.853 862.326,559.853 860.5,561.5C 860.845,558.802 862.178,556.802 864.5,555.5 Z"/></g>
<g><path style="opacity:1" fill="#7a7a7a" d="M 1179.5,560.5 C 1180.12,560.611 1180.62,560.944 1181,561.5C 1181.44,563.866 1181.94,566.199 1182.5,568.5C 1181.88,568.389 1181.38,568.056 1181,567.5C 1180.56,565.134 1180.06,562.801 1179.5,560.5 Z"/></g>
<g><path style="opacity:1" fill="#050505" d="M 736.5,755.5 C 733.734,759.033 732.067,763.033 731.5,767.5C 597.618,705.976 463.784,644.309 330,582.5C 326.933,576.748 328.433,573.081 334.5,571.5C 468.744,632.288 602.744,693.622 736.5,755.5 Z"/></g>
<g><path style="opacity:1" fill="#767676" d="M 845.5,567.5 C 844.61,570.948 842.943,573.948 840.5,576.5C 841.41,573.008 843.076,570.008 845.5,567.5 Z"/></g>
<g><path style="opacity:1" fill="#b3b3b3" d="M 855.5,569.5 C 855.882,573.72 854.216,576.72 850.5,578.5C 851.774,575.24 853.44,572.24 855.5,569.5 Z"/></g>
<g><path style="opacity:1" fill="#9a9a9a" d="M 1182.5,569.5 C 1183.12,569.611 1183.62,569.944 1184,570.5C 1184.44,572.866 1184.94,575.199 1185.5,577.5C 1184.88,577.389 1184.38,577.056 1184,576.5C 1183.56,574.134 1183.06,571.801 1182.5,569.5 Z"/></g>
<g><path style="opacity:1" fill="#6c6c6c" d="M 840.5,576.5 C 840.245,578.967 839.245,580.967 837.5,582.5C 837.755,580.033 838.755,578.033 840.5,576.5 Z"/></g>
<g><path style="opacity:1" fill="#9a9a9a" d="M 850.5,579.5 C 848.979,584.333 846.645,588.666 843.5,592.5C 844.678,587.379 847.011,583.046 850.5,579.5 Z"/></g>
<g><path style="opacity:1" fill="#9a9a9a" d="M 1177.5,586.5 C 1178.58,589.627 1179.25,592.96 1179.5,596.5C 1178.78,596.082 1178.28,595.416 1178,594.5C 1177.5,591.854 1177.34,589.187 1177.5,586.5 Z"/></g>
<g><path style="opacity:1" fill="#818181" d="M 834.5,588.5 C 833.25,593.28 831.25,597.613 828.5,601.5C 828.343,600.127 828.51,598.793 829,597.5C 830.576,594.165 832.409,591.165 834.5,588.5 Z"/></g>
<g><path style="opacity:1" fill="#919191" d="M 843.5,592.5 C 843.245,594.967 842.245,596.967 840.5,598.5C 840.755,596.033 841.755,594.033 843.5,592.5 Z"/></g>
<g><path style="opacity:1" fill="#7d7d7d" d="M 840.5,598.5 C 840.245,600.967 839.245,602.967 837.5,604.5C 837.755,602.033 838.755,600.033 840.5,598.5 Z"/></g>
<g><path style="opacity:1" fill="#9c9c9c" d="M 1179.5,599.5 C 1180.92,601.515 1181.59,603.848 1181.5,606.5C 1180.08,604.485 1179.41,602.152 1179.5,599.5 Z"/></g>
<g><path style="opacity:1" fill="#7e7e7e" d="M 837.5,605.5 C 837.052,608.682 835.718,611.349 833.5,613.5C 833.912,610.198 835.245,607.531 837.5,605.5 Z"/></g>
<g><path style="opacity:1" fill="#676767" d="M 1189.5,598.5 C 1191.42,602.718 1192.42,607.385 1192.5,612.5C 1191.78,612.082 1191.28,611.416 1191,610.5C 1190.5,606.49 1190,602.49 1189.5,598.5 Z"/></g>
<g><path style="opacity:1" fill="#b0b0b0" d="M 1181.5,607.5 C 1183.19,615.665 1184.53,623.999 1185.5,632.5C 1184.78,632.082 1184.28,631.416 1184,630.5C 1182.84,622.861 1182,615.195 1181.5,607.5 Z"/></g>
<g><path style="opacity:1" fill="#7f7f7f" d="M 833.5,614.5 C 830.847,621.448 828.347,628.448 826,635.5C 825.623,636.942 824.79,637.942 823.5,638.5C 825.382,632.1 827.549,625.767 830,619.5C 830.902,617.569 832.069,615.903 833.5,614.5 Z"/></g>
<g><path style="opacity:1" fill="#868686" d="M 1192.5,614.5 C 1194.67,620.52 1195.67,626.853 1195.5,633.5C 1193.78,627.417 1192.78,621.084 1192.5,614.5 Z"/></g>
<g><path style="opacity:1" fill="#a0a0a0" d="M 1185.5,636.5 C 1187.45,644.584 1188.45,652.917 1188.5,661.5C 1187.71,660.391 1187.21,659.058 1187,657.5C 1186.33,650.507 1185.83,643.507 1185.5,636.5 Z"/></g>
<g><path style="opacity:1" fill="#64a1ef" d="M 758.5,667.5 C 750.167,667.5 741.833,667.5 733.5,667.5C 733.5,686.833 733.5,706.167 733.5,725.5C 732.503,706.007 732.17,686.34 732.5,666.5C 741.349,666.174 750.016,666.507 758.5,667.5 Z"/></g>
<g><path style="opacity:1" fill="#2076e9" d="M 758.5,667.5 C 769.414,668.248 775.081,674.081 775.5,685C 775.583,696.694 769.916,703.528 758.5,705.5C 755.167,705.5 751.833,705.5 748.5,705.5C 748.5,712.167 748.5,718.833 748.5,725.5C 743.5,725.5 738.5,725.5 733.5,725.5C 733.5,706.167 733.5,686.833 733.5,667.5C 741.833,667.5 750.167,667.5 758.5,667.5 Z"/></g>
<g><path style="opacity:1" fill="#838383" d="M 816.5,656.5 C 816.662,658.527 816.495,660.527 816,662.5C 814.461,664.937 812.961,667.27 811.5,669.5C 812.395,664.736 814.062,660.403 816.5,656.5 Z"/></g>
<g><path style="opacity:1" fill="#828282" d="M 804.5,662.5 C 802.739,667.018 800.739,671.351 798.5,675.5C 799.233,670.379 801.233,666.045 804.5,662.5 Z"/></g>
<g><path style="opacity:1" fill="#676767" d="M 811.5,670.5 C 811.245,672.967 810.245,674.967 808.5,676.5C 808.755,674.033 809.755,672.033 811.5,670.5 Z"/></g>
<g><path style="opacity:1" fill="#5d5d5d" d="M 1188.5,663.5 C 1189.22,663.918 1189.72,664.584 1190,665.5C 1190.5,669.152 1190.67,672.818 1190.5,676.5C 1188.95,672.433 1188.28,668.1 1188.5,663.5 Z"/></g>
<g><path style="opacity:1" fill="#f2f7fd" d="M 748.5,679.5 C 758.301,678.442 761.301,682.275 757.5,691C 754.794,692.908 751.794,693.741 748.5,693.5C 748.5,688.833 748.5,684.167 748.5,679.5 Z"/></g>
<g><path style="opacity:1" fill="#a3a3a3" d="M 797.5,679.5 C 795.609,684.792 793.276,689.792 790.5,694.5C 791.291,691.465 792.291,688.465 793.5,685.5C 794.579,683.214 795.913,681.214 797.5,679.5 Z"/></g>
<g><path style="opacity:1" fill="#4e4e4e" d="M 1199.5,676.5 C 1200.71,680.618 1201.38,684.951 1201.5,689.5C 1201.5,691.5 1201.5,693.5 1201.5,695.5C 1200.36,689.359 1199.7,683.026 1199.5,676.5 Z"/></g>
<g><path style="opacity:1" fill="#bababa" d="M 1201.5,689.5 C 1203.32,696.108 1204.32,703.108 1204.5,710.5C 1203.78,710.082 1203.28,709.416 1203,708.5C 1202.82,703.981 1202.32,699.647 1201.5,695.5C 1201.5,693.5 1201.5,691.5 1201.5,689.5 Z"/></g>
<g><path style="opacity:1" fill="#0f0f0f" d="M 409.5,693.5 C 414.332,694.4 419.332,695.066 424.5,695.5C 426.806,695.993 429.139,696.326 431.5,696.5C 433.102,698.074 435.102,698.741 437.5,698.5C 437.833,698.5 438.167,698.5 438.5,698.5C 438.611,699.117 438.944,699.617 439.5,700C 441.866,700.44 444.199,700.94 446.5,701.5C 452.179,703.582 458.012,705.249 464,706.5C 472.207,711.188 480.707,715.188 489.5,718.5C 491.033,720.245 493.033,721.245 495.5,721.5C 503.632,726.403 511.966,731.069 520.5,735.5C 522.566,737.199 524.9,738.532 527.5,739.5C 543.877,750.563 560.21,761.563 576.5,772.5C 578.808,773.793 581.142,775.126 583.5,776.5C 588.947,779.956 594.614,782.956 600.5,785.5C 603.709,787.934 607.376,789.601 611.5,790.5C 614.833,791.833 618.166,793.166 621.5,794.5C 627.897,798.187 634.897,800.187 642.5,800.5C 642.833,800.5 643.167,800.5 643.5,800.5C 643.918,801.222 644.584,801.722 645.5,802C 649.832,802.583 654.165,803.083 658.5,803.5C 668.838,804.693 679.172,804.526 689.5,803C 696.577,800.982 703.577,798.816 710.5,796.5C 712.674,796.25 714.341,795.25 715.5,793.5C 722.029,789.882 728.029,785.549 733.5,780.5C 735.833,783.5 738.5,786.167 741.5,788.5C 735.119,792.017 729.119,796.017 723.5,800.5C 713.353,805.273 703.02,809.273 692.5,812.5C 690.265,812.205 688.265,812.539 686.5,813.5C 675.14,813.717 663.807,813.384 652.5,812.5C 649.941,812.802 647.607,812.468 645.5,811.5C 643.343,810.593 641.01,809.927 638.5,809.5C 634.109,808.808 629.776,807.808 625.5,806.5C 623.605,804.759 621.272,803.759 618.5,803.5C 613.465,803.292 609.132,801.459 605.5,798C 598.347,795.392 591.347,792.392 584.5,789C 566.103,777.144 548.103,764.81 530.5,752C 528.5,751.333 526.5,750.667 524.5,750C 505.229,737.243 484.896,726.41 463.5,717.5C 461.351,716.264 459.018,715.264 456.5,714.5C 450.184,712.506 443.85,710.506 437.5,708.5C 423.896,703.689 409.729,701.356 395,701.5C 387.504,702.062 380.004,702.562 372.5,703C 369.543,703.279 366.877,704.113 364.5,705.5C 363.5,705.5 362.5,705.5 361.5,705.5C 358.478,705.804 355.478,706.304 352.5,707C 351.944,707.383 351.611,707.883 351.5,708.5C 345.921,708.821 340.921,710.488 336.5,713.5C 330.575,715.151 324.908,717.651 319.5,721C 314.555,725.116 309.221,728.616 303.5,731.5C 300.151,732.169 297.484,733.836 295.5,736.5C 279.627,746.713 264.96,758.38 251.5,771.5C 247.9,773.43 244.9,776.097 242.5,779.5C 238.167,783.167 234.167,787.167 230.5,791.5C 225.77,795.227 221.77,799.56 218.5,804.5C 212.193,809.649 206.86,815.649 202.5,822.5C 199.119,824.88 196.453,827.88 194.5,831.5C 189.814,836.858 185.481,842.525 181.5,848.5C 177.763,852.302 174.763,856.635 172.5,861.5C 169.395,864.275 167.062,867.608 165.5,871.5C 162.723,873.951 160.723,876.951 159.5,880.5C 156.864,883.31 154.364,886.31 152,889.5C 150.878,891.407 150.045,893.407 149.5,895.5C 147.183,898.176 145.183,901.176 143.5,904.5C 141.803,906.553 140.469,908.887 139.5,911.5C 136.791,913.903 134.791,916.903 133.5,920.5C 129.425,925.637 126.092,931.304 123.5,937.5C 119.444,942.592 116.111,948.259 113.5,954.5C 111.461,955.911 110.461,957.911 110.5,960.5C 106.1,966.285 102.433,972.619 99.5,979.5C 98.3263,980.514 97.6596,981.847 97.5,983.5C 94.011,988.47 91.011,993.803 88.5,999.5C 86.461,1000.91 85.461,1002.91 85.5,1005.5C 84.6618,1005.84 84.3284,1006.51 84.5,1007.5C 82.7549,1009.03 81.7549,1011.03 81.5,1013.5C 79.245,1015.53 77.9116,1018.2 77.5,1021.5C 75.7497,1022.66 74.7497,1024.33 74.5,1026.5C 72.7549,1028.03 71.7549,1030.03 71.5,1032.5C 71.5,1032.83 71.5,1033.17 71.5,1033.5C 69.7549,1035.03 68.7549,1037.03 68.5,1039.5C 68.9321,1042.88 68.2655,1045.88 66.5,1048.5C 64.8333,1048.5 63.1667,1048.5 61.5,1048.5C 61.7373,1047.21 61.404,1046.21 60.5,1045.5C 60.2943,1040.34 60.961,1035.34 62.5,1030.5C 65.3179,1024.1 68.3179,1017.77 71.5,1011.5C 73.6855,1008.46 75.3521,1005.13 76.5,1001.5C 77.1667,1001.5 77.5,1001.17 77.5,1000.5C 79.3873,998.211 80.7206,995.545 81.5,992.5C 81.8976,989.576 83.231,987.242 85.5,985.5C 87.0075,983.819 88.0075,981.819 88.5,979.5C 93.2048,970.811 97.8715,962.144 102.5,953.5C 104.893,951.37 106.56,948.704 107.5,945.5C 107.328,944.508 107.662,943.842 108.5,943.5C 110.008,941.819 111.008,939.819 111.5,937.5C 114.843,935.503 116.51,932.503 116.5,928.5C 119.971,924.127 122.971,919.46 125.5,914.5C 128.112,912.948 129.445,910.614 129.5,907.5C 138.5,894.167 147.5,880.833 156.5,867.5C 158.326,865.853 159.66,863.853 160.5,861.5C 161.34,859.147 162.674,857.147 164.5,855.5C 166.9,853.704 168.567,851.37 169.5,848.5C 179.429,833.911 190.429,820.245 202.5,807.5C 204.914,806.089 206.581,804.089 207.5,801.5C 232.899,771.75 261.899,746.416 294.5,725.5C 298.973,724.347 302.639,722.014 305.5,718.5C 307.674,718.25 309.341,717.25 310.5,715.5C 313.76,714.226 316.76,712.56 319.5,710.5C 322.077,710.545 324.077,709.545 325.5,707.5C 326.93,706.463 328.597,705.796 330.5,705.5C 332.967,705.245 334.967,704.245 336.5,702.5C 360.065,693.733 384.398,690.733 409.5,693.5 Z"/></g>
<g><path style="opacity:1" fill="#a8a8a8" d="M 1190.5,677.5 C 1191.46,683.658 1192.13,689.992 1192.5,696.5C 1190.54,690.588 1189.88,684.255 1190.5,677.5 Z"/></g>
<g><path style="opacity:1" fill="#848484" d="M 409.5,693.5 C 413.846,693.334 418.179,693.501 422.5,694C 423.416,694.278 424.082,694.778 424.5,695.5C 419.332,695.066 414.332,694.4 409.5,693.5 Z"/></g>
<g><path style="opacity:1" fill="#8b8b8b" d="M 431.5,696.5 C 433.898,696.259 435.898,696.926 437.5,698.5C 435.102,698.741 433.102,698.074 431.5,696.5 Z"/></g>
<g><path style="opacity:1" fill="#5b5b5b" d="M 438.5,698.5 C 440.801,699.06 443.134,699.56 445.5,700C 446.056,700.383 446.389,700.883 446.5,701.5C 444.199,700.94 441.866,700.44 439.5,700C 438.944,699.617 438.611,699.117 438.5,698.5 Z"/></g>
<g><path style="opacity:1" fill="#b0b0b0" d="M 437.5,708.5 C 413.398,703.13 389.065,702.13 364.5,705.5C 366.877,704.113 369.543,703.279 372.5,703C 380.004,702.562 387.504,702.062 395,701.5C 409.729,701.356 423.896,703.689 437.5,708.5 Z"/></g>
<g><path style="opacity:1" fill="#898989" d="M 336.5,702.5 C 334.967,704.245 332.967,705.245 330.5,705.5C 332.033,703.755 334.033,702.755 336.5,702.5 Z"/></g>
<g><path style="opacity:1" fill="#bed6f8" d="M 758.5,705.5 C 755.713,706.477 752.713,706.81 749.5,706.5C 749.823,713.022 749.49,719.355 748.5,725.5C 748.5,718.833 748.5,712.167 748.5,705.5C 751.833,705.5 755.167,705.5 758.5,705.5 Z"/></g>
<g><path style="opacity:1" fill="#747474" d="M 361.5,705.5 C 358.417,706.993 355.083,707.993 351.5,708.5C 351.611,707.883 351.944,707.383 352.5,707C 355.478,706.304 358.478,705.804 361.5,705.5 Z"/></g>
<g><path style="opacity:1" fill="#5d5d5d" d="M 325.5,707.5 C 324.077,709.545 322.077,710.545 319.5,710.5C 321.03,708.654 323.03,707.654 325.5,707.5 Z"/></g>
<g><path style="opacity:1" fill="#828282" d="M 1192.5,700.5 C 1193.22,700.918 1193.72,701.584 1194,702.5C 1194.5,705.817 1194.67,709.15 1194.5,712.5C 1192.86,708.79 1192.2,704.79 1192.5,700.5 Z"/></g>
<g><path style="opacity:1" fill="#b2b2b2" d="M 351.5,708.5 C 348.4,709.699 345.4,711.199 342.5,713C 340.527,713.495 338.527,713.662 336.5,713.5C 340.921,710.488 345.921,708.821 351.5,708.5 Z"/></g>
<g><path style="opacity:1" fill="#797979" d="M 787.5,703.5 C 785.052,709.552 782.052,715.218 778.5,720.5C 779.787,715.927 781.62,711.594 784,707.5C 784.74,705.681 785.907,704.348 787.5,703.5 Z"/></g>
<g><path style="opacity:1" fill="#989898" d="M 456.5,714.5 C 459.018,715.264 461.351,716.264 463.5,717.5C 460.509,717.834 458.176,716.834 456.5,714.5 Z"/></g>
<g><path style="opacity:1" fill="#8b8b8b" d="M 797.5,705.5 C 795.736,709.366 793.736,713.033 791.5,716.5C 792.253,711.982 794.253,708.315 797.5,705.5 Z"/></g>
<g><path style="opacity:1" fill="#797979" d="M 310.5,715.5 C 309.341,717.25 307.674,718.25 305.5,718.5C 306.659,716.75 308.326,715.75 310.5,715.5 Z"/></g>
<g><path style="opacity:1" fill="#969696" d="M 489.5,718.5 C 491.967,718.755 493.967,719.755 495.5,721.5C 493.033,721.245 491.033,720.245 489.5,718.5 Z"/></g>
<g><path style="opacity:1" fill="#b4b4b4" d="M 1204.5,713.5 C 1206.76,720.53 1207.76,727.863 1207.5,735.5C 1205.72,728.412 1204.72,721.078 1204.5,713.5 Z"/></g>
<g><path style="opacity:1" fill="#787878" d="M 791.5,716.5 C 791.245,718.967 790.245,720.967 788.5,722.5C 788.755,720.033 789.755,718.033 791.5,716.5 Z"/></g>
<g><path style="opacity:1" fill="#525252" d="M 305.5,718.5 C 302.639,722.014 298.973,724.347 294.5,725.5C 294.369,724.624 294.702,723.957 295.5,723.5C 298.847,721.809 302.181,720.142 305.5,718.5 Z"/></g>
<g><path style="opacity:1" fill="#949494" d="M 788.5,723.5 C 787.893,726.401 786.559,728.734 784.5,730.5C 785.107,727.599 786.441,725.266 788.5,723.5 Z"/></g>
<g><path style="opacity:1" fill="#b7b7b7" d="M 303.5,731.5 C 301.797,734.632 299.13,736.299 295.5,736.5C 297.484,733.836 300.151,732.169 303.5,731.5 Z"/></g>
<g><path style="opacity:1" fill="#9d9d9d" d="M 520.5,735.5 C 523.546,735.725 525.879,737.058 527.5,739.5C 524.9,738.532 522.566,737.199 520.5,735.5 Z"/></g>
<g><path style="opacity:1" fill="#afafaf" d="M 1196.5,732.5 C 1198.21,739.597 1199.21,746.93 1199.5,754.5C 1198.21,753.129 1197.55,751.295 1197.5,749C 1196.83,743.518 1196.5,738.018 1196.5,732.5 Z"/></g>
<g><path style="opacity:1" fill="#ababab" d="M 778.5,741.5 C 778.23,745.719 776.23,748.719 772.5,750.5C 774.255,747.32 776.255,744.32 778.5,741.5 Z"/></g>
<g><path style="opacity:1" fill="#cb0c2a" d="M 760.5,751.5 C 763.45,753.115 766.116,755.115 768.5,757.5C 770.959,761.819 771.959,766.485 771.5,771.5C 771.163,775.845 769.829,779.845 767.5,783.5C 764.672,785.748 761.672,787.748 758.5,789.5C 758.167,789.5 757.833,789.5 757.5,789.5C 753.5,790.833 749.5,790.833 745.5,789.5C 744.167,789.167 742.833,788.833 741.5,788.5C 738.5,786.167 735.833,783.5 733.5,780.5C 731.936,776.326 731.269,771.993 731.5,767.5C 732.067,763.033 733.734,759.033 736.5,755.5C 743.667,749.315 751.667,747.982 760.5,751.5 Z"/></g>
<g><path style="opacity:1" fill="#afafaf" d="M 1208.5,747.5 C 1210.43,752.736 1211.43,758.403 1211.5,764.5C 1210.88,764.389 1210.38,764.056 1210,763.5C 1209.32,758.178 1208.82,752.844 1208.5,747.5 Z"/></g>
<g><path style="opacity:1" fill="#949494" d="M 576.5,772.5 C 579.812,772.149 582.145,773.482 583.5,776.5C 581.142,775.126 578.808,773.793 576.5,772.5 Z"/></g>
<g><path style="opacity:1" fill="#a3a3a3" d="M 251.5,771.5 C 249.1,774.903 246.1,777.57 242.5,779.5C 244.9,776.097 247.9,773.43 251.5,771.5 Z"/></g>
<g><path style="opacity:1" fill="#8a8a8a" d="M 1212.5,777.5 C 1214.16,779.438 1214.83,781.772 1214.5,784.5C 1212.84,782.562 1212.17,780.228 1212.5,777.5 Z"/></g>
<g><path style="opacity:1" fill="#adadad" d="M 600.5,785.5 C 601.873,785.343 603.207,785.51 604.5,786C 607.187,787.049 609.52,788.549 611.5,790.5C 607.376,789.601 603.709,787.934 600.5,785.5 Z"/></g>
<g><path style="opacity:1" fill="#e6e6e6" d="M 757.5,789.5 C 757.833,789.5 758.167,789.5 758.5,789.5C 758.5,859.167 758.5,928.833 758.5,998.5C 763.032,998.182 767.366,998.515 771.5,999.5C 766.833,999.5 762.167,999.5 757.5,999.5C 757.5,929.5 757.5,859.5 757.5,789.5 Z"/></g>
<g><path style="opacity:1" fill="#030303" d="M 745.5,789.5 C 749.5,790.833 753.5,790.833 757.5,789.5C 757.5,859.5 757.5,929.5 757.5,999.5C 762.167,999.5 766.833,999.5 771.5,999.5C 779.738,998.558 782.572,1001.89 780,1009.5C 778.559,1010.26 777.059,1010.93 775.5,1011.5C 760.925,1011.59 746.258,1011.43 731.5,1011C 726.586,1007.83 726.253,1004.16 730.5,1000C 735.489,999.501 740.489,999.334 745.5,999.5C 745.5,929.5 745.5,859.5 745.5,789.5 Z"/></g>
<g><path style="opacity:1" fill="#686868" d="M 715.5,793.5 C 714.341,795.25 712.674,796.25 710.5,796.5C 711.486,794.592 713.152,793.592 715.5,793.5 Z"/></g>
<g><path style="opacity:1" fill="#adadad" d="M 621.5,794.5 C 628.646,796.185 635.646,798.185 642.5,800.5C 634.897,800.187 627.897,798.187 621.5,794.5 Z"/></g>
<g><path style="opacity:1" fill="#a3a3a3" d="M 643.5,800.5 C 648.752,800.862 653.752,801.862 658.5,803.5C 654.165,803.083 649.832,802.583 645.5,802C 644.584,801.722 643.918,801.222 643.5,800.5 Z"/></g>
<g><path style="opacity:1" fill="#a0a0a0" d="M 230.5,791.5 C 227.23,796.44 223.23,800.773 218.5,804.5C 221.77,799.56 225.77,795.227 230.5,791.5 Z"/></g>
<g><path style="opacity:1" fill="#acacac" d="M 723.5,800.5 C 721.71,801.761 720.043,803.261 718.5,805C 713.167,807 707.833,809 702.5,811C 699.173,811.61 695.839,812.11 692.5,812.5C 703.02,809.273 713.353,805.273 723.5,800.5 Z"/></g>
<g><path style="opacity:1" fill="#646464" d="M 207.5,801.5 C 206.581,804.089 204.914,806.089 202.5,807.5C 203.419,804.911 205.086,802.911 207.5,801.5 Z"/></g>
<g><path style="opacity:1" fill="#6a6a6a" d="M 618.5,803.5 C 621.272,803.759 623.605,804.759 625.5,806.5C 622.615,806.357 620.282,805.357 618.5,803.5 Z"/></g>
<g><path style="opacity:1" fill="#6d6d6d" d="M 1215.5,793.5 C 1216.12,793.611 1216.62,793.944 1217,794.5C 1217.43,799.184 1217.93,803.851 1218.5,808.5C 1217.78,808.082 1217.28,807.416 1217,806.5C 1216.54,802.152 1216.04,797.819 1215.5,793.5 Z"/></g>
<g><path style="opacity:1" fill="#929292" d="M 638.5,809.5 C 641.01,809.927 643.343,810.593 645.5,811.5C 643.473,811.662 641.473,811.495 639.5,811C 638.944,810.617 638.611,810.117 638.5,809.5 Z"/></g>
<g><path style="opacity:1" fill="#adadad" d="M 652.5,812.5 C 663.807,813.384 675.14,813.717 686.5,813.5C 675.693,815.885 664.693,816.051 653.5,814C 652.944,813.617 652.611,813.117 652.5,812.5 Z"/></g>
<g><path style="opacity:1" fill="#787878" d="M 1218.5,809.5 C 1219.22,809.918 1219.72,810.584 1220,811.5C 1220.55,815.17 1221.05,818.837 1221.5,822.5C 1219.76,818.458 1218.76,814.124 1218.5,809.5 Z"/></g>
<g><path style="opacity:1" fill="#939393" d="M 910.5,689.5 C 911.831,738.002 911.831,786.668 910.5,835.5C 909.893,835.376 909.56,835.043 909.5,834.5C 910.499,786.336 910.832,738.003 910.5,689.5 Z"/></g>
<g><path style="opacity:1" fill="#aeaeae" d="M 1209.5,814.5 C 1211.22,817.845 1211.88,821.511 1211.5,825.5C 1209.78,822.155 1209.12,818.489 1209.5,814.5 Z"/></g>
<g><path style="opacity:1" fill="#a2a2a2" d="M 202.5,822.5 C 200.913,825.268 199.08,827.935 197,830.5C 196.329,831.252 195.496,831.586 194.5,831.5C 196.453,827.88 199.119,824.88 202.5,822.5 Z"/></g>
<g><path style="opacity:1" fill="#727272" d="M 1212.5,829.5 C 1214.21,830.635 1214.88,832.302 1214.5,834.5C 1212.79,833.365 1212.12,831.698 1212.5,829.5 Z"/></g>
<g><path style="opacity:1" fill="#4c4c4c" d="M 1214.5,837.5 C 1215.12,837.611 1215.62,837.944 1216,838.5C 1216.83,842.466 1217.33,846.466 1217.5,850.5C 1216.19,846.35 1215.19,842.017 1214.5,837.5 Z"/></g>
<g><path style="opacity:1" fill="#707070" d="M 1225.5,843.5 C 1226.22,843.918 1226.72,844.584 1227,845.5C 1227.5,848.146 1227.66,850.813 1227.5,853.5C 1226.42,850.373 1225.75,847.04 1225.5,843.5 Z"/></g>
<g><path style="opacity:1" fill="#6a6a6a" d="M 169.5,848.5 C 168.567,851.37 166.9,853.704 164.5,855.5C 165.433,852.63 167.1,850.296 169.5,848.5 Z"/></g>
<g><path style="opacity:1" fill="#a5a5a5" d="M 181.5,848.5 C 179.403,853.455 176.403,857.788 172.5,861.5C 174.763,856.635 177.763,852.302 181.5,848.5 Z"/></g>
<g><path style="opacity:1" fill="#fefefe" d="M 1246.5,1004.5 C 1247.2,1017.86 1254.2,1024.86 1267.5,1025.5C 1269.02,1028.73 1270.36,1032.06 1271.5,1035.5C 1271.65,1038.8 1272.65,1041.8 1274.5,1044.5C 1274.25,1045.71 1273.59,1046.38 1272.5,1046.5C 1269.88,1046.23 1267.38,1046.56 1265,1047.5C 1263.6,1052.71 1263.1,1058.04 1263.5,1063.5C 1150.5,1063.5 1037.5,1063.5 924.5,1063.5C 924.197,1043.98 924.53,1024.48 925.5,1005C 925.491,1003.6 924.991,1002.43 924,1001.5C 923.5,953.168 923.333,904.834 923.5,856.5C 1031.33,905.444 1139,954.778 1246.5,1004.5 Z"/></g>
<g><path style="opacity:1" fill="#2377e9" d="M 797.5,862.5 C 804.2,862.17 810.866,862.503 817.5,863.5C 823.432,879.462 829.265,895.462 835,911.5C 835.498,914.817 835.665,918.15 835.5,921.5C 816.833,921.5 798.167,921.5 779.5,921.5C 779.335,918.15 779.502,914.817 780,911.5C 786.337,895.321 792.17,878.988 797.5,862.5 Z"/></g>
<g><path style="opacity:1" fill="#646464" d="M 160.5,861.5 C 159.66,863.853 158.326,865.853 156.5,867.5C 156.845,864.802 158.178,862.802 160.5,861.5 Z"/></g>
<g><path style="opacity:1" fill="#9c9c9c" d="M 1217.5,851.5 C 1219.41,856.915 1220.74,862.582 1221.5,868.5C 1218.56,863.323 1217.23,857.657 1217.5,851.5 Z"/></g>
<g><path style="opacity:1" fill="#444444" d="M 1228.5,857.5 C 1230.29,862.584 1231.62,867.918 1232.5,873.5C 1231.88,873.389 1231.38,873.056 1231,872.5C 1229.95,867.526 1229.12,862.526 1228.5,857.5 Z"/></g>
<g><path style="opacity:1" fill="#acacac" d="M 165.5,871.5 C 164.575,875.272 162.575,878.272 159.5,880.5C 160.723,876.951 162.723,873.951 165.5,871.5 Z"/></g>
<g><path style="opacity:1" fill="#87b5f3" d="M 853.5,876.5 C 847.974,876.179 842.64,876.512 837.5,877.5C 836.957,877.44 836.624,877.107 836.5,876.5C 842.32,875.184 847.987,875.184 853.5,876.5 Z"/></g>
<g><path style="opacity:1" fill="#2879e9" d="M 837.5,877.5 C 842.64,876.512 847.974,876.179 853.5,876.5C 856.422,886.104 859.255,895.77 862,905.5C 864.942,895.511 867.775,885.511 870.5,875.5C 875.833,875.5 881.167,875.5 886.5,875.5C 880.054,896.057 872.22,916.057 863,935.5C 856.684,940.537 849.517,942.371 841.5,941C 840.536,936.934 840.203,932.767 840.5,928.5C 847.609,930.38 852.276,927.88 854.5,921C 848.729,906.516 843.062,892.016 837.5,877.5 Z"/></g>
<g><path style="opacity:1" fill="#f7f9fe" d="M 806.5,877.5 C 807.497,877.47 808.164,877.97 808.5,879C 812.014,888.707 815.014,898.541 817.5,908.5C 810.833,908.5 804.167,908.5 797.5,908.5C 800.703,898.226 803.703,887.892 806.5,877.5 Z"/></g>
<g><path style="opacity:1" fill="#797979" d="M 1222.5,874.5 C 1224.07,876.102 1224.74,878.102 1224.5,880.5C 1222.93,878.898 1222.26,876.898 1222.5,874.5 Z"/></g>
<g><path style="opacity:1" fill="#787878" d="M 1235.5,886.5 C 1236.92,888.515 1237.59,890.848 1237.5,893.5C 1236.08,891.485 1235.41,889.152 1235.5,886.5 Z"/></g>
<g><path style="opacity:1" fill="#999999" d="M 1225.5,888.5 C 1227.07,890.102 1227.74,892.102 1227.5,894.5C 1225.93,892.898 1225.26,890.898 1225.5,888.5 Z"/></g>
<g><path style="opacity:1" fill="#b7b7b7" d="M 149.5,895.5 C 148.948,899.533 146.948,902.533 143.5,904.5C 145.183,901.176 147.183,898.176 149.5,895.5 Z"/></g>
<g><path style="opacity:1" fill="#969696" d="M 1229.5,901.5 C 1230.58,904.627 1231.25,907.96 1231.5,911.5C 1230.78,911.082 1230.28,910.416 1230,909.5C 1229.5,906.854 1229.34,904.187 1229.5,901.5 Z"/></g>
<g><path style="opacity:1" fill="#767676" d="M 129.5,907.5 C 129.445,910.614 128.112,912.948 125.5,914.5C 126.584,911.996 127.917,909.663 129.5,907.5 Z"/></g>
<g><path style="opacity:1" fill="#959595" d="M 139.5,911.5 C 138.281,915.046 136.281,918.046 133.5,920.5C 134.791,916.903 136.791,913.903 139.5,911.5 Z"/></g>
<g><path style="opacity:1" fill="#959595" d="M 1232.5,913.5 C 1233.52,916.974 1234.19,920.64 1234.5,924.5C 1232.78,921.155 1232.12,917.489 1232.5,913.5 Z"/></g>
<g><path style="opacity:1" fill="#5d5d5d" d="M 116.5,928.5 C 116.51,932.503 114.843,935.503 111.5,937.5C 113.357,934.583 115.024,931.583 116.5,928.5 Z"/></g>
<g><path style="opacity:1" fill="#979797" d="M 111.5,937.5 C 111.008,939.819 110.008,941.819 108.5,943.5C 108.461,940.911 109.461,938.911 111.5,937.5 Z"/></g>
<g><path style="opacity:1" fill="#575757" d="M 1238.5,938.5 C 1239.77,940.905 1240.43,943.572 1240.5,946.5C 1238.96,944.162 1238.29,941.495 1238.5,938.5 Z"/></g>
<g><path style="opacity:1" fill="#b9b9b9" d="M 123.5,937.5 C 121.2,942.962 118.533,948.295 115.5,953.5C 115.043,954.298 114.376,954.631 113.5,954.5C 116.111,948.259 119.444,942.592 123.5,937.5 Z"/></g>
<g><path style="opacity:1" fill="#595959" d="M 1248.5,941.5 C 1250.07,943.102 1250.74,945.102 1250.5,947.5C 1248.93,945.898 1248.26,943.898 1248.5,941.5 Z"/></g>
<g><path style="opacity:1" fill="#adadad" d="M 1250.5,947.5 C 1251.12,947.611 1251.62,947.944 1252,948.5C 1253.37,953.486 1254.53,958.486 1255.5,963.5C 1252.66,958.628 1250.99,953.294 1250.5,947.5 Z"/></g>
<g><path style="opacity:1" fill="#6e6e6e" d="M 107.5,945.5 C 106.56,948.704 104.893,951.37 102.5,953.5C 103.68,951.307 104.68,948.974 105.5,946.5C 105.957,945.702 106.624,945.369 107.5,945.5 Z"/></g>
<g><path style="opacity:1" fill="#969696" d="M 1241.5,953.5 C 1243.07,955.102 1243.74,957.102 1243.5,959.5C 1241.93,957.898 1241.26,955.898 1241.5,953.5 Z"/></g>
<g><path style="opacity:1" fill="#a4a4a4" d="M 110.5,960.5 C 108.103,967.635 104.436,973.969 99.5,979.5C 102.433,972.619 106.1,966.285 110.5,960.5 Z"/></g>
<g><path style="opacity:1" fill="#7f7f7f" d="M 1255.5,963.5 C 1256.41,965.657 1257.07,967.99 1257.5,970.5C 1256.88,970.389 1256.38,970.056 1256,969.5C 1255.5,967.527 1255.34,965.527 1255.5,963.5 Z"/></g>
<g><path style="opacity:1" fill="#6d6d6d" d="M 1244.5,963.5 C 1245.12,963.611 1245.62,963.944 1246,964.5C 1246.44,966.866 1246.94,969.199 1247.5,971.5C 1246.88,971.389 1246.38,971.056 1246,970.5C 1245.56,968.134 1245.06,965.801 1244.5,963.5 Z"/></g>
<g><path style="opacity:1" fill="#5d5d5d" d="M 1247.5,973.5 C 1249.24,975.395 1250.24,977.728 1250.5,980.5C 1248.76,978.605 1247.76,976.272 1247.5,973.5 Z"/></g>
<g><path style="opacity:1" fill="#d5b9bd" d="M 1259.5,977.5 C 1261.83,979.176 1262.83,981.509 1262.5,984.5C 1265.71,984.19 1268.71,984.523 1271.5,985.5C 1268.17,985.5 1264.83,985.5 1261.5,985.5C 1261.04,982.779 1260.37,980.112 1259.5,977.5 Z"/></g>
<g><path style="opacity:1" fill="#909090" d="M 88.5,979.5 C 88.0075,981.819 87.0075,983.819 85.5,985.5C 85.461,982.911 86.461,980.911 88.5,979.5 Z"/></g>
<g><path style="opacity:1" fill="#cb0c2a" d="M 1261.5,985.5 C 1264.83,985.5 1268.17,985.5 1271.5,985.5C 1283.29,989.055 1288.62,997.055 1287.5,1009.5C 1285.75,1013.33 1283.75,1016.99 1281.5,1020.5C 1279.77,1021.03 1278.44,1022.03 1277.5,1023.5C 1274.3,1024.79 1270.97,1025.45 1267.5,1025.5C 1254.2,1024.86 1247.2,1017.86 1246.5,1004.5C 1246.84,1000.15 1248.17,996.155 1250.5,992.5C 1251.5,992.167 1252.17,991.5 1252.5,990.5C 1255.04,988.06 1258.04,986.394 1261.5,985.5 Z"/></g>
<g><path style="opacity:1" fill="#acacac" d="M 97.5,983.5 C 96.2432,987.845 94.5765,992.011 92.5,996C 91.3551,997.402 90.0217,998.569 88.5,999.5C 91.011,993.803 94.011,988.47 97.5,983.5 Z"/></g>
<g><path style="opacity:1" fill="#5d5d5d" d="M 81.5,992.5 C 80.7206,995.545 79.3873,998.211 77.5,1000.5C 77.8961,997.279 79.2295,994.612 81.5,992.5 Z"/></g>
<g><path style="opacity:1" fill="#121212" d="M 796.5,999.5 C 804.744,999.228 807.078,1002.73 803.5,1010C 800.055,1012.22 797.055,1011.72 794.5,1008.5C 792.875,1004.95 793.542,1001.95 796.5,999.5 Z"/></g>
<g><path style="opacity:1" fill="#121212" d="M 820.5,999.5 C 828.744,999.228 831.078,1002.73 827.5,1010C 824.055,1012.22 821.055,1011.72 818.5,1008.5C 816.875,1004.95 817.542,1001.95 820.5,999.5 Z"/></g>
<g><path style="opacity:1" fill="#121212" d="M 844.5,999.5 C 852.744,999.228 855.078,1002.73 851.5,1010C 848.055,1012.22 845.055,1011.72 842.5,1008.5C 840.875,1004.95 841.542,1001.95 844.5,999.5 Z"/></g>
<g><path style="opacity:1" fill="#121212" d="M 868.5,999.5 C 876.744,999.228 879.078,1002.73 875.5,1010C 872.055,1012.22 869.055,1011.72 866.5,1008.5C 864.875,1004.95 865.542,1001.95 868.5,999.5 Z"/></g>
<g><path style="opacity:1" fill="#121212" d="M 892.5,999.5 C 900.744,999.228 903.078,1002.73 899.5,1010C 896.055,1012.22 893.055,1011.72 890.5,1008.5C 888.875,1004.95 889.542,1001.95 892.5,999.5 Z"/></g>
<g><path style="opacity:1" fill="#121212" d="M 940.5,999.5 C 948.744,999.228 951.078,1002.73 947.5,1010C 944.055,1012.22 941.055,1011.72 938.5,1008.5C 936.875,1004.95 937.542,1001.95 940.5,999.5 Z"/></g>
<g><path style="opacity:1" fill="#121212" d="M 964.5,999.5 C 972.744,999.228 975.078,1002.73 971.5,1010C 968.055,1012.22 965.055,1011.72 962.5,1008.5C 960.875,1004.95 961.542,1001.95 964.5,999.5 Z"/></g>
<g><path style="opacity:1" fill="#121212" d="M 988.5,999.5 C 996.744,999.228 999.078,1002.73 995.5,1010C 992.055,1012.22 989.055,1011.72 986.5,1008.5C 984.875,1004.95 985.542,1001.95 988.5,999.5 Z"/></g>
<g><path style="opacity:1" fill="#121212" d="M 1012.5,999.5 C 1020.74,999.228 1023.08,1002.73 1019.5,1010C 1016.05,1012.22 1013.05,1011.72 1010.5,1008.5C 1008.88,1004.95 1009.54,1001.95 1012.5,999.5 Z"/></g>
<g><path style="opacity:1" fill="#121212" d="M 1036.5,999.5 C 1044.74,999.228 1047.08,1002.73 1043.5,1010C 1040.05,1012.22 1037.05,1011.72 1034.5,1008.5C 1032.88,1004.95 1033.54,1001.95 1036.5,999.5 Z"/></g>
<g><path style="opacity:1" fill="#121212" d="M 1060.5,999.5 C 1068.74,999.228 1071.08,1002.73 1067.5,1010C 1064.05,1012.22 1061.05,1011.72 1058.5,1008.5C 1056.88,1004.95 1057.54,1001.95 1060.5,999.5 Z"/></g>
<g><path style="opacity:1" fill="#121212" d="M 1084.5,999.5 C 1092.74,999.228 1095.08,1002.73 1091.5,1010C 1088.05,1012.22 1085.05,1011.72 1082.5,1008.5C 1080.88,1004.95 1081.54,1001.95 1084.5,999.5 Z"/></g>
<g><path style="opacity:1" fill="#121212" d="M 1108.5,999.5 C 1116.74,999.228 1119.08,1002.73 1115.5,1010C 1112.05,1012.22 1109.05,1011.72 1106.5,1008.5C 1104.88,1004.95 1105.54,1001.95 1108.5,999.5 Z"/></g>
<g><path style="opacity:1" fill="#121212" d="M 1132.5,999.5 C 1140.74,999.228 1143.08,1002.73 1139.5,1010C 1136.05,1012.22 1133.05,1011.72 1130.5,1008.5C 1128.88,1004.95 1129.54,1001.95 1132.5,999.5 Z"/></g>
<g><path style="opacity:1" fill="#121212" d="M 1156.5,999.5 C 1164.74,999.228 1167.08,1002.73 1163.5,1010C 1160.05,1012.22 1157.05,1011.72 1154.5,1008.5C 1152.88,1004.95 1153.54,1001.95 1156.5,999.5 Z"/></g>
<g><path style="opacity:1" fill="#121212" d="M 1180.5,999.5 C 1188.74,999.228 1191.08,1002.73 1187.5,1010C 1184.05,1012.22 1181.05,1011.72 1178.5,1008.5C 1176.88,1004.95 1177.54,1001.95 1180.5,999.5 Z"/></g>
<g><path style="opacity:1" fill="#121212" d="M 1204.5,999.5 C 1212.74,999.228 1215.08,1002.73 1211.5,1010C 1208.05,1012.22 1205.05,1011.72 1202.5,1008.5C 1200.88,1004.95 1201.54,1001.95 1204.5,999.5 Z"/></g>
<g><path style="opacity:1" fill="#121212" d="M 1228.5,999.5 C 1236.81,999.28 1239.14,1002.78 1235.5,1010C 1232.05,1012.22 1229.05,1011.72 1226.5,1008.5C 1224.88,1004.95 1225.54,1001.95 1228.5,999.5 Z"/></g>
<g><path style="opacity:1" fill="#606060" d="M 88.5,999.5 C 88.0075,1001.82 87.0075,1003.82 85.5,1005.5C 85.461,1002.91 86.461,1000.91 88.5,999.5 Z"/></g>
<g><path style="opacity:1" fill="#787878" d="M 76.5,1001.5 C 75.3521,1005.13 73.6855,1008.46 71.5,1011.5C 72.1322,1007.57 73.7989,1004.24 76.5,1001.5 Z"/></g>
<g><path style="opacity:1" fill="#9a9a9a" d="M 84.5,1007.5 C 84.2451,1009.97 83.2451,1011.97 81.5,1013.5C 81.7549,1011.03 82.7549,1009.03 84.5,1007.5 Z"/></g>
<g><path style="opacity:1" fill="#999999" d="M 81.5,1013.5 C 80.7216,1016.54 79.3883,1019.21 77.5,1021.5C 77.9116,1018.2 79.245,1015.53 81.5,1013.5 Z"/></g>
<g><path style="opacity:1" fill="#fbfbfb" d="M 1281.5,1020.5 C 1312.47,1034.65 1343.47,1048.82 1374.5,1063C 1348.5,1063.5 1322.5,1063.67 1296.5,1063.5C 1290.73,1053.06 1285.4,1042.4 1280.5,1031.5C 1280.25,1029.03 1279.25,1027.03 1277.5,1025.5C 1277.5,1024.83 1277.5,1024.17 1277.5,1023.5C 1278.44,1022.03 1279.77,1021.03 1281.5,1020.5 Z"/></g>
<g><path style="opacity:1" fill="#5a5a5a" d="M 1277.5,1025.5 C 1279.25,1027.03 1280.25,1029.03 1280.5,1031.5C 1278.75,1029.97 1277.75,1027.97 1277.5,1025.5 Z"/></g>
<g><path style="opacity:1" fill="#7b7b7b" d="M 74.5,1026.5 C 74.2451,1028.97 73.2451,1030.97 71.5,1032.5C 71.7549,1030.03 72.7549,1028.03 74.5,1026.5 Z"/></g>
<g><path style="opacity:1" fill="#737373" d="M 71.5,1033.5 C 71.2451,1035.97 70.2451,1037.97 68.5,1039.5C 68.7549,1037.03 69.7549,1035.03 71.5,1033.5 Z"/></g>
<g><path style="opacity:1" fill="#ababab" d="M 62.5,1030.5 C 60.961,1035.34 60.2943,1040.34 60.5,1045.5C 59.3567,1042.02 59.1901,1038.36 60,1034.5C 60.1216,1032.56 60.955,1031.23 62.5,1030.5 Z"/></g>
<g><path style="opacity:1" fill="#e5e5e5" d="M 1271.5,1035.5 C 1275.88,1044.58 1280.54,1053.58 1285.5,1062.5C 1282.23,1063.49 1278.9,1063.82 1275.5,1063.5C 1275.67,1058.82 1275.5,1054.15 1275,1049.5C 1273.96,1048.63 1273.12,1047.63 1272.5,1046.5C 1273.59,1046.38 1274.25,1045.71 1274.5,1044.5C 1272.65,1041.8 1271.65,1038.8 1271.5,1035.5 Z"/></g>
<g><path style="opacity:1" fill="#7e7e7e" d="M 61.5,1048.5 C 63.1667,1048.5 64.8333,1048.5 66.5,1048.5C 64.8333,1051.17 63.1667,1051.17 61.5,1048.5 Z"/></g>
<g><path style="opacity:1" fill="#959595" d="M 1293.5,1077.5 C 1295.25,1079.03 1296.25,1081.03 1296.5,1083.5C 1294.75,1081.97 1293.75,1079.97 1293.5,1077.5 Z"/></g>
<g><path style="opacity:1" fill="#9c9c9c" d="M 1301.5,1090.5 C 1302.49,1092.46 1303.49,1094.46 1304.5,1096.5C 1302.02,1095.31 1301.02,1093.31 1301.5,1090.5 Z"/></g>
<g><path style="opacity:1" fill="#2377e9" d="M 1021.5,1104.5 C 1028.17,1104.5 1034.83,1104.5 1041.5,1104.5C 1046.83,1120.99 1052.66,1137.32 1059,1153.5C 1059.5,1156.82 1059.67,1160.15 1059.5,1163.5C 1040.83,1163.5 1022.17,1163.5 1003.5,1163.5C 1003.33,1159.82 1003.5,1156.15 1004,1152.5C 1010.14,1136.59 1015.97,1120.59 1021.5,1104.5 Z"/></g>
<g><path style="opacity:1" fill="#5d9cef" d="M 1722.5,1113.5 C 1714.32,1113.17 1706.32,1113.51 1698.5,1114.5C 1697.96,1114.44 1697.62,1114.11 1697.5,1113.5C 1705.99,1112.18 1714.32,1112.18 1722.5,1113.5 Z"/></g>
<g><path style="opacity:1" fill="#5e9cef" d="M 1742.5,1113.5 C 1750.68,1112.18 1759.01,1112.18 1767.5,1113.5C 1767.38,1114.11 1767.04,1114.44 1766.5,1114.5C 1758.68,1113.51 1750.68,1113.17 1742.5,1113.5 Z"/></g>
<g><path style="opacity:1" fill="#2177e9" d="M 1722.5,1113.5 C 1725.82,1118.81 1729.16,1124.14 1732.5,1129.5C 1735.86,1124.1 1739.19,1118.77 1742.5,1113.5C 1750.68,1113.17 1758.68,1113.51 1766.5,1114.5C 1760.19,1124.48 1753.86,1134.48 1747.5,1144.5C 1754.62,1155.25 1761.62,1166.08 1768.5,1177C 1759.81,1177.83 1751.15,1177.67 1742.5,1176.5C 1739.25,1170.34 1735.75,1164.34 1732,1158.5C 1728.63,1164.75 1725.13,1170.91 1721.5,1177C 1713.15,1177.83 1704.81,1177.67 1696.5,1176.5C 1703.6,1166.08 1710.27,1155.41 1716.5,1144.5C 1710.5,1134.51 1704.5,1124.51 1698.5,1114.5C 1706.32,1113.51 1714.32,1113.17 1722.5,1113.5 Z"/></g>
<g><path style="opacity:1" fill="#85b4f3" d="M 1079.5,1118.5 C 1073.64,1118.18 1067.98,1118.51 1062.5,1119.5C 1061.96,1119.44 1061.62,1119.11 1061.5,1118.5C 1067.65,1117.18 1073.65,1117.18 1079.5,1118.5 Z"/></g>
<g><path style="opacity:1" fill="#2678e9" d="M 1062.5,1119.5 C 1067.98,1118.51 1073.64,1118.18 1079.5,1118.5C 1081.91,1122.31 1084.08,1126.31 1086,1130.5C 1088.37,1126.25 1090.87,1122.08 1093.5,1118C 1099.2,1117.17 1104.86,1117.34 1110.5,1118.5C 1106.13,1125.86 1101.8,1133.19 1097.5,1140.5C 1101.93,1148.11 1106.6,1155.61 1111.5,1163C 1105.47,1163.83 1099.47,1163.66 1093.5,1162.5C 1091.25,1158.33 1088.75,1154.33 1086,1150.5C 1083.63,1154.75 1081.13,1158.92 1078.5,1163C 1072.5,1163.67 1066.5,1163.67 1060.5,1163C 1065.56,1155.71 1070.22,1148.21 1074.5,1140.5C 1070.76,1133.35 1066.76,1126.35 1062.5,1119.5 Z"/></g>
<g><path style="opacity:1" fill="#f7f9fe" d="M 1030.5,1117.5 C 1034.74,1128.21 1038.4,1139.21 1041.5,1150.5C 1034.83,1150.5 1028.17,1150.5 1021.5,1150.5C 1023.62,1141.3 1026.46,1132.3 1030,1123.5C 1030.5,1121.53 1030.66,1119.53 1030.5,1117.5 Z"/></g>
<g><path style="opacity:1" fill="#9c9c9c" d="M 1343.5,1152.5 C 1349.47,1158.81 1355.47,1165.14 1361.5,1171.5C 1355.59,1167.1 1350.09,1162.1 1345,1156.5C 1344.21,1155.26 1343.71,1153.92 1343.5,1152.5 Z"/></g>
<g><path style="opacity:1" fill="#777777" d="M 1440.5,1219.5 C 1442.03,1219.43 1443.03,1220.09 1443.5,1221.5C 1441.97,1221.57 1440.97,1220.91 1440.5,1219.5 Z"/></g>
<g><path style="opacity:1" fill="#a8a8a8" d="M 1450.5,1225.5 C 1451.87,1225.34 1453.21,1225.51 1454.5,1226C 1457.19,1227.05 1459.52,1228.55 1461.5,1230.5C 1457.38,1229.6 1453.71,1227.93 1450.5,1225.5 Z"/></g>
<g><path style="opacity:1" fill="#5f5f5f" d="M 1430.5,1225.5 C 1433.81,1225.15 1436.14,1226.48 1437.5,1229.5C 1435.14,1228.13 1432.81,1226.79 1430.5,1225.5 Z"/></g>
<g><path style="opacity:1" fill="#8d8d8d" d="M 1461.5,1230.5 C 1463.97,1230.75 1465.97,1231.75 1467.5,1233.5C 1465.03,1233.25 1463.03,1232.25 1461.5,1230.5 Z"/></g>
<g><path style="opacity:1" fill="#565656" d="M 1454.5,1238.5 C 1455.87,1238.34 1457.21,1238.51 1458.5,1239C 1461.19,1240.05 1463.52,1241.55 1465.5,1243.5C 1461.38,1242.6 1457.71,1240.93 1454.5,1238.5 Z"/></g>
<g><path style="opacity:1" fill="#9f9f9f" d="M 1495.5,1244.5 C 1498.19,1244.34 1500.85,1244.5 1503.5,1245C 1504.06,1245.38 1504.39,1245.88 1504.5,1246.5C 1501.27,1246.32 1498.27,1245.66 1495.5,1244.5 Z"/></g>
<g><path style="opacity:1" fill="#757575" d="M 1473.5,1246.5 C 1475.97,1246.75 1477.97,1247.75 1479.5,1249.5C 1477.03,1249.25 1475.03,1248.25 1473.5,1246.5 Z"/></g>
<g><path style="opacity:1" fill="#b7b7b7" d="M 1510.5,1247.5 C 1515.15,1248.07 1519.82,1248.57 1524.5,1249C 1525.06,1249.38 1525.39,1249.88 1525.5,1250.5C 1523.44,1250.48 1521.44,1250.15 1519.5,1249.5C 1516.12,1249.93 1513.12,1249.27 1510.5,1247.5 Z"/></g>
<g><path style="opacity:1" fill="#555555" d="M 1519.5,1249.5 C 1521.44,1250.15 1523.44,1250.48 1525.5,1250.5C 1526.79,1250.26 1527.79,1250.6 1528.5,1251.5C 1525.81,1251.66 1523.15,1251.5 1520.5,1251C 1519.94,1250.62 1519.61,1250.12 1519.5,1249.5 Z"/></g>
<g><path style="opacity:1" fill="#b6b6b6" d="M 1528.5,1251.5 C 1534.6,1250.88 1540.26,1251.55 1545.5,1253.5C 1539.66,1253.1 1533.99,1252.43 1528.5,1251.5 Z"/></g>
<g><path style="opacity:1" fill="#545454" d="M 1494.5,1254.5 C 1497.19,1254.34 1499.85,1254.5 1502.5,1255C 1503.42,1255.28 1504.08,1255.78 1504.5,1256.5C 1502.71,1256.63 1501.04,1256.3 1499.5,1255.5C 1497.59,1255.78 1495.92,1255.45 1494.5,1254.5 Z"/></g>
<g><path style="opacity:1" fill="#b5b5b5" d="M 1551.5,1254.5 C 1564.54,1253.85 1577.21,1254.52 1589.5,1256.5C 1584.51,1256.08 1579.51,1255.75 1574.5,1255.5C 1566.65,1255.83 1558.98,1255.49 1551.5,1254.5 Z"/></g>
<g><path style="opacity:1" fill="#4b4b4b" d="M 1574.5,1255.5 C 1579.51,1255.75 1584.51,1256.08 1589.5,1256.5C 1595.36,1256.18 1601.02,1256.51 1606.5,1257.5C 1597.83,1257.67 1589.16,1257.5 1580.5,1257C 1578.29,1256.81 1576.29,1256.31 1574.5,1255.5 Z"/></g>
<g><path style="opacity:1" fill="#afafaf" d="M 1499.5,1255.5 C 1501.04,1256.3 1502.71,1256.63 1504.5,1256.5C 1508.14,1257.08 1511.81,1257.58 1515.5,1258C 1516.06,1258.38 1516.39,1258.88 1516.5,1259.5C 1511.66,1258.96 1506.82,1258.29 1502,1257.5C 1500.62,1257.32 1499.79,1256.65 1499.5,1255.5 Z"/></g>
<g><path style="opacity:1" fill="#3e3e3e" d="M 1528.5,1260.5 C 1534.54,1260.13 1540.2,1261.13 1545.5,1263.5C 1539.59,1263.14 1533.93,1262.14 1528.5,1260.5 Z"/></g>
<g><path style="opacity:1" fill="#a0a0a0" d="M 1574.5,1265.5 C 1584.83,1265.95 1595.16,1266.28 1605.5,1266.5C 1603.71,1268 1601.54,1268.66 1599,1268.5C 1590.69,1267.42 1582.53,1266.42 1574.5,1265.5 Z"/></g>
</svg>
