<?xml version="1.0" encoding="UTF-8"?>
<!DOCTYPE svg PUBLIC "-//W3C//DTD SVG 1.1//EN" "http://www.w3.org/Graphics/SVG/1.1/DTD/svg11.dtd">
<svg xmlns="http://www.w3.org/2000/svg" version="1.1" width="2000px" height="1500px" style="shape-rendering:geometricPrecision; text-rendering:geometricPrecision; image-rendering:optimizeQuality; fill-rule:evenodd; clip-rule:evenodd" xmlns:xlink="http://www.w3.org/1999/xlink">
<g><path style="opacity:1" fill="#fefefe" d="M -0.5,-0.5 C 666.167,-0.5 1332.83,-0.5 1999.5,-0.5C 1999.5,499.5 1999.5,999.5 1999.5,1499.5C 1332.83,1499.5 666.167,1499.5 -0.5,1499.5C -0.5,999.5 -0.5,499.5 -0.5,-0.5 Z"/></g>
<g><path style="opacity:1" fill="#070707" d="M 921.5,175.5 C 921.217,174.711 920.717,174.044 920,173.5C 919.174,185.674 919.34,197.674 920.5,209.5C 920.5,254.833 920.5,300.167 920.5,345.5C 920.168,354.857 920.502,364.19 921.5,373.5C 922.855,372.812 923.855,371.812 924.5,370.5C 928.5,367.167 932.167,363.5 935.5,359.5C 937.758,356.575 940.425,353.909 943.5,351.5C 946.135,350.527 948.135,348.86 949.5,346.5C 951.194,344.139 953.194,342.139 955.5,340.5C 958.292,340.378 960.292,339.044 961.5,336.5C 963.501,333.611 966.167,331.611 969.5,330.5C 973.408,329.25 976.408,326.917 978.5,323.5C 988.473,317.845 998.473,312.179 1008.5,306.5C 1013.79,304.196 1018.79,301.529 1023.5,298.5C 1025.44,297.85 1027.44,297.517 1029.5,297.5C 1031.97,297.245 1033.97,296.245 1035.5,294.5C 1036.17,294.5 1036.83,294.5 1037.5,294.5C 1044.19,294.008 1050.19,292.008 1055.5,288.5C 1056.5,288.5 1057.5,288.5 1058.5,288.5C 1066.35,287.365 1074.01,286.031 1081.5,284.5C 1083.61,283.532 1085.94,283.198 1088.5,283.5C 1099.17,283.5 1109.83,283.5 1120.5,283.5C 1121.79,283.263 1122.79,283.596 1123.5,284.5C 1128.67,285.381 1134,286.048 1139.5,286.5C 1141.51,287.924 1143.85,288.59 1146.5,288.5C 1149.45,289.694 1152.45,290.694 1155.5,291.5C 1157.03,293.245 1159.03,294.245 1161.5,294.5C 1161.83,294.5 1162.17,294.5 1162.5,294.5C 1164.03,296.245 1166.03,297.245 1168.5,297.5C 1182.02,304.755 1195.02,312.755 1207.5,321.5C 1208.91,323.914 1210.91,325.581 1213.5,326.5C 1260.26,362.881 1296.93,407.548 1323.5,460.5C 1323.93,463.157 1324.93,465.491 1326.5,467.5C 1331.58,477.465 1335.92,487.798 1339.5,498.5C 1339.76,501.272 1340.76,503.605 1342.5,505.5C 1350.14,527.433 1356.81,549.766 1362.5,572.5C 1363.06,574.801 1363.56,577.134 1364,579.5C 1364.38,580.056 1364.88,580.389 1365.5,580.5C 1365.5,581.167 1365.5,581.833 1365.5,582.5C 1365.26,584.898 1365.93,586.898 1367.5,588.5C 1367.76,592.171 1368.76,595.505 1370.5,598.5C 1371.24,605.966 1372.57,613.3 1374.5,620.5C 1374.16,622.483 1374.82,623.817 1376.5,624.5C 1376.5,625.5 1376.5,626.5 1376.5,627.5C 1377,631.49 1377.5,635.49 1378,639.5C 1378.28,640.416 1378.78,641.082 1379.5,641.5C 1379.83,644.167 1380.17,646.833 1380.5,649.5C 1379.93,653.329 1380.6,656.663 1382.5,659.5C 1382.5,660.833 1382.5,662.167 1382.5,663.5C 1382.55,667.078 1383.22,670.411 1384.5,673.5C 1384.83,677.5 1385.17,681.5 1385.5,685.5C 1385.87,691.172 1386.37,696.839 1387,702.5C 1387.38,703.056 1387.88,703.389 1388.5,703.5C 1389.18,711.537 1390.18,719.537 1391.5,727.5C 1391.86,731.509 1392.36,735.509 1393,739.5C 1393.28,740.416 1393.78,741.082 1394.5,741.5C 1395.76,747.445 1396.76,753.445 1397.5,759.5C 1397.75,763.04 1398.42,766.373 1399.5,769.5C 1400.79,773.313 1401.79,777.313 1402.5,781.5C 1403.04,784.813 1403.54,788.146 1404,791.5C 1404.38,792.056 1404.88,792.389 1405.5,792.5C 1407.32,802.61 1409.66,812.61 1412.5,822.5C 1412.93,828.051 1414.59,833.051 1417.5,837.5C 1417.26,838.791 1417.6,839.791 1418.5,840.5C 1418.34,842.527 1418.5,844.527 1419,846.5C 1419.38,847.056 1419.88,847.389 1420.5,847.5C 1420.5,847.833 1420.5,848.167 1420.5,848.5C 1420.76,851.272 1421.76,853.605 1423.5,855.5C 1423.88,857.698 1424.54,859.698 1425.5,861.5C 1425.94,865.313 1427.27,868.646 1429.5,871.5C 1432.44,877.718 1435.11,884.051 1437.5,890.5C 1437.59,892.848 1438.59,894.514 1440.5,895.5C 1448.8,916.783 1460.13,936.116 1474.5,953.5C 1476.17,957.167 1478.83,959.833 1482.5,961.5C 1485.5,964.167 1488.5,966.833 1491.5,969.5C 1492.9,970.89 1494.57,971.89 1496.5,972.5C 1499.01,974.926 1502.01,976.592 1505.5,977.5C 1508.05,978.999 1510.71,980.499 1513.5,982C 1514.79,982.49 1516.13,982.657 1517.5,982.5C 1517.61,983.117 1517.94,983.617 1518.5,984C 1527.74,986.588 1537.07,988.421 1546.5,989.5C 1558.49,990.781 1570.49,989.947 1582.5,987C 1583.06,986.617 1583.39,986.117 1583.5,985.5C 1584.17,985.5 1584.83,985.5 1585.5,985.5C 1587.85,985.33 1590.18,984.997 1592.5,984.5C 1594.03,984.36 1595.03,983.693 1595.5,982.5C 1596.17,982.5 1596.83,982.5 1597.5,982.5C 1600.27,982.241 1602.61,981.241 1604.5,979.5C 1607.56,977.751 1610.89,976.751 1614.5,976.5C 1619.93,974.999 1624.6,972.332 1628.5,968.5C 1631.95,966.684 1635.29,964.684 1638.5,962.5C 1645.22,960.775 1650.55,957.108 1654.5,951.5C 1655.51,949.478 1657.17,948.145 1659.5,947.5C 1662.11,946.557 1664.11,944.89 1665.5,942.5C 1672.25,934.743 1679.59,927.743 1687.5,921.5C 1689.91,920.089 1691.58,918.089 1692.5,915.5C 1693.83,913.5 1695.5,911.833 1697.5,910.5C 1699.89,909.109 1701.56,907.109 1702.5,904.5C 1703.79,901.883 1705.45,899.55 1707.5,897.5C 1710.59,895.732 1712.59,893.065 1713.5,889.5C 1716.59,887.732 1718.59,885.065 1719.5,881.5C 1719.43,879.973 1720.09,878.973 1721.5,878.5C 1723.82,877.198 1725.16,875.198 1725.5,872.5C 1726.83,870.5 1728.17,868.5 1729.5,866.5C 1730.91,866.027 1731.57,865.027 1731.5,863.5C 1733.33,861.853 1734.66,859.853 1735.5,857.5C 1739.55,851.433 1743.22,845.1 1746.5,838.5C 1750.32,835.389 1752.65,831.389 1753.5,826.5C 1754.17,825.5 1754.83,824.5 1755.5,823.5C 1757.01,821.819 1758.01,819.819 1758.5,817.5C 1761.19,815.203 1762.85,812.203 1763.5,808.5C 1765.25,806.967 1766.25,804.967 1766.5,802.5C 1771.6,792.664 1776.6,782.664 1781.5,772.5C 1782.87,770.75 1783.87,768.75 1784.5,766.5C 1786.82,760.683 1789.49,755.016 1792.5,749.5C 1794.22,748.395 1795.22,746.728 1795.5,744.5C 1801.35,731.427 1807.35,718.427 1813.5,705.5C 1815.07,703.491 1816.07,701.157 1816.5,698.5C 1817.67,697.486 1818.34,696.153 1818.5,694.5C 1820.09,692.887 1821.09,690.887 1821.5,688.5C 1831.41,665.31 1841.08,641.977 1850.5,618.5C 1852.07,616.898 1852.74,614.898 1852.5,612.5C 1853.23,611.292 1853.57,609.959 1853.5,608.5C 1855.09,606.887 1856.09,604.887 1856.5,602.5C 1856.5,601.833 1856.5,601.167 1856.5,600.5C 1858.09,598.887 1859.09,596.887 1859.5,594.5C 1859.5,593.833 1859.5,593.167 1859.5,592.5C 1861.09,590.887 1862.09,588.887 1862.5,586.5C 1862.61,584.282 1863.28,582.282 1864.5,580.5C 1865.12,580.389 1865.62,580.056 1866,579.5C 1867.79,574.559 1869.29,569.559 1870.5,564.5C 1870.5,564.167 1870.5,563.833 1870.5,563.5C 1872.24,561.605 1873.24,559.272 1873.5,556.5C 1875.89,546.906 1878.89,537.572 1882.5,528.5C 1884.02,525.762 1885.02,522.762 1885.5,519.5C 1887,512.346 1889,505.346 1891.5,498.5C 1893.07,496.898 1893.74,494.898 1893.5,492.5C 1893.37,490.708 1893.7,489.042 1894.5,487.5C 1896.07,485.898 1896.74,483.898 1896.5,481.5C 1898.85,470.818 1901.18,460.151 1903.5,449.5C 1905.23,445.816 1906.23,441.816 1906.5,437.5C 1907.57,435.299 1908.23,432.965 1908.5,430.5C 1910.24,426.458 1911.24,422.124 1911.5,417.5C 1911.5,416.5 1911.5,415.5 1911.5,414.5C 1912.12,414.389 1912.62,414.056 1913,413.5C 1913.44,411.134 1913.94,408.801 1914.5,406.5C 1914.11,403.487 1914.77,400.82 1916.5,398.5C 1917.69,398.03 1918.36,397.03 1918.5,395.5C 1919,393.182 1919.33,390.848 1919.5,388.5C 1920.08,382.582 1921.41,376.916 1923.5,371.5C 1925.07,369.898 1925.74,367.898 1925.5,365.5C 1925.52,363.435 1925.85,361.435 1926.5,359.5C 1928.07,357.898 1928.74,355.898 1928.5,353.5C 1930.34,349.841 1931.34,345.841 1931.5,341.5C 1931.45,339.097 1931.78,336.764 1932.5,334.5C 1935.93,325.981 1937.6,316.981 1937.5,307.5C 1937.27,301.305 1939.27,295.972 1943.5,291.5C 1944.58,291.461 1945.58,291.127 1946.5,290.5C 1947.5,296.128 1947.83,301.794 1947.5,307.5C 1946.87,316.475 1945.54,325.475 1943.5,334.5C 1943.5,335.167 1943.5,335.833 1943.5,336.5C 1942.31,336.97 1941.64,337.97 1941.5,339.5C 1941,341.818 1940.67,344.152 1940.5,346.5C 1939.19,351.094 1938.19,355.761 1937.5,360.5C 1936.03,362.583 1934.86,364.916 1934,367.5C 1933.3,370.478 1932.8,373.478 1932.5,376.5C 1932.01,378.806 1931.67,381.139 1931.5,383.5C 1929.02,387.727 1927.36,392.394 1926.5,397.5C 1924.55,404.7 1923.21,412.034 1922.5,419.5C 1919.52,424.544 1917.85,430.211 1917.5,436.5C 1917.17,438.5 1916.83,440.5 1916.5,442.5C 1914.31,448.924 1912.65,455.591 1911.5,462.5C 1911.5,463.167 1911.5,463.833 1911.5,464.5C 1909.63,467.809 1908.63,471.475 1908.5,475.5C 1908.5,475.833 1908.5,476.167 1908.5,476.5C 1907.88,476.611 1907.38,476.944 1907,477.5C 1906.64,480.544 1906.14,483.544 1905.5,486.5C 1905.5,487.167 1905.5,487.833 1905.5,488.5C 1903.68,491.016 1902.68,494.016 1902.5,497.5C 1900.84,503.465 1899.17,509.465 1897.5,515.5C 1895.64,517.282 1894.64,519.615 1894.5,522.5C 1894.5,523.167 1894.5,523.833 1894.5,524.5C 1893.88,524.611 1893.38,524.944 1893,525.5C 1892.56,527.866 1892.06,530.199 1891.5,532.5C 1891.33,534.861 1890.99,537.194 1890.5,539.5C 1889.32,540.974 1888.32,542.64 1887.5,544.5C 1884.95,551.807 1882.62,559.141 1880.5,566.5C 1880.17,567.833 1879.83,569.167 1879.5,570.5C 1877.76,572.395 1876.76,574.728 1876.5,577.5C 1874.96,581.4 1873.62,585.4 1872.5,589.5C 1870.36,592.8 1869.02,596.467 1868.5,600.5C 1866.4,603.876 1865.07,607.542 1864.5,611.5C 1863.36,613.1 1862.19,614.767 1861,616.5C 1858.65,623.569 1856.15,630.569 1853.5,637.5C 1853.5,638.5 1853.5,639.5 1853.5,640.5C 1851.59,641.486 1850.59,643.152 1850.5,645.5C 1850.5,646.167 1850.5,646.833 1850.5,647.5C 1848.62,648.895 1847.62,650.895 1847.5,653.5C 1847.67,654.492 1847.34,655.158 1846.5,655.5C 1844.42,659.612 1842.75,663.946 1841.5,668.5C 1839.87,673.848 1837.37,678.848 1834,683.5C 1833.34,685.813 1832.84,688.146 1832.5,690.5C 1829.68,692.701 1828.01,695.701 1827.5,699.5C 1827.5,699.833 1827.5,700.167 1827.5,700.5C 1823.57,706.233 1820.57,712.566 1818.5,719.5C 1818.67,720.492 1818.34,721.158 1817.5,721.5C 1815.07,724.709 1813.4,728.376 1812.5,732.5C 1812.5,732.833 1812.5,733.167 1812.5,733.5C 1809.25,736.315 1807.25,739.982 1806.5,744.5C 1805.06,745.82 1804.39,747.486 1804.5,749.5C 1803.5,749.47 1802.84,749.97 1802.5,751C 1799.93,757.55 1797.26,764.05 1794.5,770.5C 1792.9,771.287 1792.23,772.62 1792.5,774.5C 1790.59,775.486 1789.59,777.152 1789.5,779.5C 1789.5,779.833 1789.5,780.167 1789.5,780.5C 1787.75,782.033 1786.75,784.033 1786.5,786.5C 1782.75,792.035 1779.75,798.035 1777.5,804.5C 1775.55,806.346 1774.55,808.679 1774.5,811.5C 1771.79,813.404 1770.12,816.07 1769.5,819.5C 1767.23,821.612 1765.9,824.279 1765.5,827.5C 1763.05,829.629 1761.38,832.296 1760.5,835.5C 1757.89,838.761 1755.89,842.427 1754.5,846.5C 1752.63,848.034 1751.3,850.034 1750.5,852.5C 1749.11,853.899 1748.11,855.566 1747.5,857.5C 1744.92,860.989 1742.59,864.656 1740.5,868.5C 1740.5,869.167 1740.17,869.5 1739.5,869.5C 1737.84,872.159 1736.17,874.825 1734.5,877.5C 1734.5,878.167 1734.17,878.5 1733.5,878.5C 1731.84,881.159 1730.17,883.825 1728.5,886.5C 1728.5,886.833 1728.5,887.167 1728.5,887.5C 1725.41,889.268 1723.41,891.935 1722.5,895.5C 1719.85,898.159 1717.52,901.159 1715.5,904.5C 1712.44,906.949 1710.11,909.949 1708.5,913.5C 1707.83,913.5 1707.5,913.833 1707.5,914.5C 1703.79,917.211 1700.79,920.544 1698.5,924.5C 1691.12,931.215 1684.12,938.215 1677.5,945.5C 1674.24,947.094 1671.57,949.427 1669.5,952.5C 1666.17,954.169 1663.5,956.502 1661.5,959.5C 1657.93,960.41 1655.27,962.41 1653.5,965.5C 1649.9,966.791 1646.9,968.791 1644.5,971.5C 1640.6,972.775 1637.26,974.775 1634.5,977.5C 1634.17,977.5 1633.83,977.5 1633.5,977.5C 1628.02,979.424 1623.02,982.091 1618.5,985.5C 1618.17,985.5 1617.83,985.5 1617.5,985.5C 1612.95,987.272 1608.28,988.772 1603.5,990C 1602.94,990.383 1602.61,990.883 1602.5,991.5C 1601.83,991.5 1601.17,991.5 1600.5,991.5C 1598.2,992.06 1595.87,992.56 1593.5,993C 1592.94,993.383 1592.61,993.883 1592.5,994.5C 1592.17,994.5 1591.83,994.5 1591.5,994.5C 1588.57,994.565 1585.91,995.232 1583.5,996.5C 1578.87,997.329 1574.2,997.996 1569.5,998.5C 1557.8,998.746 1546.14,998.413 1534.5,997.5C 1524.64,995.784 1514.97,993.284 1505.5,990C 1499.34,986.007 1493.01,982.34 1486.5,979C 1479.66,972.995 1473,966.829 1466.5,960.5C 1465.58,957.911 1463.91,955.911 1461.5,954.5C 1461.07,953.29 1460.4,952.29 1459.5,951.5C 1458.89,949.566 1457.89,947.899 1456.5,946.5C 1453.25,940.913 1449.59,935.58 1445.5,930.5C 1443.67,925.516 1441.34,920.849 1438.5,916.5C 1437.93,913.679 1436.59,911.346 1434.5,909.5C 1434.74,907.102 1434.07,905.102 1432.5,903.5C 1432.5,902.833 1432.17,902.5 1431.5,902.5C 1430.48,898.988 1429.15,895.654 1427.5,892.5C 1426.66,892.158 1426.33,891.492 1426.5,890.5C 1424.82,886.458 1423.16,882.458 1421.5,878.5C 1415.51,864.818 1410.17,850.818 1405.5,836.5C 1405.13,830.755 1403.79,825.422 1401.5,820.5C 1400.33,815.846 1398.99,811.18 1397.5,806.5C 1397.19,802.64 1396.52,798.974 1395.5,795.5C 1394.34,792.727 1393.68,789.727 1393.5,786.5C 1392.81,780.086 1391.65,773.752 1390,767.5C 1389.62,766.944 1389.12,766.611 1388.5,766.5C 1388.5,765.5 1388.5,764.5 1388.5,763.5C 1388.34,759.159 1387.34,755.159 1385.5,751.5C 1385.5,750.833 1385.5,750.167 1385.5,749.5C 1383.15,735.359 1380.82,721.359 1378.5,707.5C 1376.84,695.614 1375.18,683.614 1373.5,671.5C 1373.72,666.9 1373.05,662.567 1371.5,658.5C 1370.96,654.181 1370.46,649.848 1370,645.5C 1369.72,644.584 1369.22,643.918 1368.5,643.5C 1368.26,638.306 1367.59,633.306 1366.5,628.5C 1365.42,625.373 1364.75,622.04 1364.5,618.5C 1364.74,616.102 1364.07,614.102 1362.5,612.5C 1362.5,612.167 1362.5,611.833 1362.5,611.5C 1360.02,600.736 1357.35,590.07 1354.5,579.5C 1353.89,578.609 1353.56,577.609 1353.5,576.5C 1353.88,574.302 1353.21,572.635 1351.5,571.5C 1348.52,558.721 1345.18,546.055 1341.5,533.5C 1341.24,530.728 1340.24,528.395 1338.5,526.5C 1338.53,523.924 1337.87,521.591 1336.5,519.5C 1336.07,516.99 1335.41,514.657 1334.5,512.5C 1332.23,508.738 1330.56,504.738 1329.5,500.5C 1328.41,496.674 1327.08,493.008 1325.5,489.5C 1324.66,489.158 1324.33,488.492 1324.5,487.5C 1324.25,485.033 1323.25,483.033 1321.5,481.5C 1321.5,481.167 1321.5,480.833 1321.5,480.5C 1319.32,474.807 1316.65,469.474 1313.5,464.5C 1312.33,460.822 1310.66,457.489 1308.5,454.5C 1307.53,451.9 1306.2,449.566 1304.5,447.5C 1303.89,445.566 1302.89,443.899 1301.5,442.5C 1300.6,438.999 1298.94,435.999 1296.5,433.5C 1288.01,418.687 1278.01,405.021 1266.5,392.5C 1265.58,389.911 1263.91,387.911 1261.5,386.5C 1234.04,354.183 1202.04,327.683 1165.5,307C 1159.08,304.367 1152.75,301.867 1146.5,299.5C 1144.7,298.542 1142.7,297.875 1140.5,297.5C 1138.59,297.784 1136.92,297.451 1135.5,296.5C 1129.88,295.202 1124.21,294.202 1118.5,293.5C 1113.85,292.834 1109.01,292.501 1104,292.5C 1096.93,292.303 1090.1,292.97 1083.5,294.5C 1079.31,294.544 1075.15,294.877 1071,295.5C 1069.01,295.569 1067.51,296.235 1066.5,297.5C 1065.83,297.5 1065.17,297.5 1064.5,297.5C 1060.16,297.658 1056.16,298.658 1052.5,300.5C 1052.17,300.5 1051.83,300.5 1051.5,300.5C 1046.44,301.524 1041.44,302.858 1036.5,304.5C 1032.81,305.88 1029.47,307.547 1026.5,309.5C 1026.17,309.5 1025.83,309.5 1025.5,309.5C 1023.03,309.755 1021.03,310.755 1019.5,312.5C 1019.17,312.5 1018.83,312.5 1018.5,312.5C 1014.57,314.133 1010.9,316.133 1007.5,318.5C 1003.04,321.641 998.378,324.308 993.5,326.5C 990.802,326.845 988.802,328.178 987.5,330.5C 981.299,333.765 975.632,337.765 970.5,342.5C 967.208,344.458 964.208,346.791 961.5,349.5C 959.81,349.856 958.81,350.856 958.5,352.5C 955.911,353.419 953.911,355.086 952.5,357.5C 946.537,361.795 941.204,366.795 936.5,372.5C 931.106,376.892 926.439,381.892 922.5,387.5C 921.833,410.164 921.5,432.998 921.5,456C 922.792,658.499 923.792,860.999 924.5,1063.5C 1210.17,1063.67 1495.83,1063.5 1781.5,1063C 1777.4,1060.53 1773.57,1057.7 1770,1054.5C 1768.1,1045.07 1771.6,1042.24 1780.5,1046C 1789.33,1052.83 1798.17,1059.67 1807,1066.5C 1808.18,1070.27 1807.35,1073.44 1804.5,1076C 1796.5,1082 1788.5,1088 1780.5,1094C 1773.01,1097.65 1769.17,1095.48 1769,1087.5C 1772.53,1083.31 1776.7,1079.81 1781.5,1077C 1495.83,1076.5 1210.17,1076.33 924.5,1076.5C 925.549,1163.16 925.716,1249.83 925,1336.5C 920.272,1340.9 916.605,1340.23 914,1334.5C 913.806,1248.49 913.306,1162.49 912.5,1076.5C 657.5,1076.67 402.5,1076.5 147.5,1076C 143.371,1073.37 142.538,1069.87 145,1065.5C 145.75,1064.87 146.584,1064.37 147.5,1064C 402.5,1063.5 657.5,1063.33 912.5,1063.5C 911.912,855.164 910.912,646.831 909.5,438.5C 909.832,426.482 909.499,414.482 908.5,402.5C 907.702,402.957 907.369,403.624 907.5,404.5C 903.408,408.258 900.074,412.591 897.5,417.5C 894.833,419.173 892.833,421.507 891.5,424.5C 889.453,426.55 887.786,428.883 886.5,431.5C 883.067,434.601 880.4,438.268 878.5,442.5C 876.178,443.802 874.845,445.802 874.5,448.5C 869.782,453.91 865.782,459.91 862.5,466.5C 860.518,468.502 858.852,470.835 857.5,473.5C 857.5,474.167 857.167,474.5 856.5,474.5C 854.693,477.382 853.026,480.382 851.5,483.5C 847.117,490.232 843.117,497.232 839.5,504.5C 837.75,505.659 836.75,507.326 836.5,509.5C 836.5,509.833 836.5,510.167 836.5,510.5C 834.12,512.582 832.454,515.249 831.5,518.5C 830.471,520.517 829.471,522.517 828.5,524.5C 823.939,532.158 819.939,540.158 816.5,548.5C 814.755,550.033 813.755,552.033 813.5,554.5C 812.962,556.117 812.629,557.784 812.5,559.5C 810.799,560.525 809.465,562.025 808.5,564C 806.916,567.413 805.583,570.913 804.5,574.5C 804.672,575.492 804.338,576.158 803.5,576.5C 801.979,579.723 800.646,583.057 799.5,586.5C 797.755,588.033 796.755,590.033 796.5,592.5C 796.5,593.167 796.5,593.833 796.5,594.5C 794.621,595.895 793.621,597.895 793.5,600.5C 793.5,600.833 793.5,601.167 793.5,601.5C 791.345,603.617 790.345,606.284 790.5,609.5C 788.621,610.895 787.621,612.895 787.5,615.5C 787.672,616.492 787.338,617.158 786.5,617.5C 783.949,622.45 782.282,627.784 781.5,633.5C 779.307,635.522 778.307,638.189 778.5,641.5C 778.167,642.167 777.833,642.833 777.5,643.5C 775.644,646.556 774.311,649.89 773.5,653.5C 772.883,653.611 772.383,653.944 772,654.5C 771.261,657.546 770.428,660.546 769.5,663.5C 769.5,663.833 769.5,664.167 769.5,664.5C 767.926,666.102 767.259,668.102 767.5,670.5C 764.9,675.534 762.9,680.868 761.5,686.5C 759.621,687.895 758.621,689.895 758.5,692.5C 757.901,695.963 756.901,699.296 755.5,702.5C 753.446,705.008 752.446,708.008 752.5,711.5C 749.188,715.382 747.188,720.049 746.5,725.5C 746.5,726.167 746.5,726.833 746.5,727.5C 744.755,729.033 743.755,731.033 743.5,733.5C 742.551,735.737 741.884,738.071 741.5,740.5C 739.345,742.617 738.345,745.284 738.5,748.5C 736.446,751.008 735.446,754.008 735.5,757.5C 733.115,760.653 731.782,764.32 731.5,768.5C 730.069,769.903 728.902,771.569 728,773.5C 726.979,778.066 725.479,782.4 723.5,786.5C 723.5,787.167 723.5,787.833 723.5,788.5C 721.621,789.895 720.621,791.895 720.5,794.5C 718.517,797.116 717.517,800.116 717.5,803.5C 714.681,805.701 713.015,808.701 712.5,812.5C 711.962,814.117 711.629,815.784 711.5,817.5C 709.592,818.486 708.592,820.152 708.5,822.5C 708.5,822.833 708.5,823.167 708.5,823.5C 705.372,827.176 703.372,831.509 702.5,836.5C 702.5,836.833 702.5,837.167 702.5,837.5C 698.724,841.763 696.057,846.763 694.5,852.5C 692.755,854.033 691.755,856.033 691.5,858.5C 689.75,859.659 688.75,861.326 688.5,863.5C 688.5,863.833 688.5,864.167 688.5,864.5C 685.67,866.709 684.003,869.709 683.5,873.5C 682.833,873.5 682.5,873.833 682.5,874.5C 677.739,881.686 673.739,889.353 670.5,897.5C 665.414,903.998 661.081,910.998 657.5,918.5C 654.723,920.951 652.723,923.951 651.5,927.5C 648.449,931.223 645.782,935.223 643.5,939.5C 641.178,940.802 639.845,942.802 639.5,945.5C 638.122,946.545 637.122,947.878 636.5,949.5C 634.636,950.82 632.969,952.487 631.5,954.5C 630.873,955.417 630.539,956.417 630.5,957.5C 627.916,959.578 625.416,961.912 623,964.5C 619.86,968.947 616.694,973.281 613.5,977.5C 610.867,979.132 608.533,981.132 606.5,983.5C 603.452,985.882 600.785,988.548 598.5,991.5C 596.5,991.5 595.5,992.5 595.5,994.5C 591.935,995.41 589.268,997.41 587.5,1000.5C 584.223,1002.12 581.223,1004.12 578.5,1006.5C 573.218,1009.13 568.218,1012.13 563.5,1015.5C 561.278,1016.69 558.945,1017.69 556.5,1018.5C 553.563,1019.47 550.897,1020.81 548.5,1022.5C 548.158,1023.34 547.492,1023.67 546.5,1023.5C 542.403,1024.38 538.737,1026.05 535.5,1028.5C 530.112,1029.3 524.778,1030.3 519.5,1031.5C 510.148,1031.57 500.815,1031.23 491.5,1030.5C 487.809,1028.51 483.809,1027.18 479.5,1026.5C 477.967,1024.75 475.967,1023.75 473.5,1023.5C 453.004,1013.69 434.337,1001.03 417.5,985.5C 412.438,980.443 407.772,975.11 403.5,969.5C 402.581,966.911 400.914,964.911 398.5,963.5C 395.514,959.183 392.18,955.183 388.5,951.5C 387.243,948.573 385.243,946.239 382.5,944.5C 373.103,935.282 362.436,927.782 350.5,922C 343.962,918.924 337.295,916.091 330.5,913.5C 328.605,911.759 326.272,910.759 323.5,910.5C 321.379,910.675 319.379,910.341 317.5,909.5C 313.241,908.252 308.907,907.086 304.5,906C 301.183,905.502 297.85,905.335 294.5,905.5C 285.343,904.342 276.009,904.176 266.5,905C 260.811,905.655 255.477,907.155 250.5,909.5C 248.784,909.629 247.117,909.962 245.5,910.5C 240.533,910.907 235.866,912.241 231.5,914.5C 229.269,915.309 227.602,916.643 226.5,918.5C 223.679,918.545 221.346,919.545 219.5,921.5C 215.569,922.132 212.235,923.799 209.5,926.5C 207.034,927.298 205.034,928.631 203.5,930.5C 200.802,930.845 198.802,932.178 197.5,934.5C 192.39,937.901 187.39,941.568 182.5,945.5C 179.452,947.882 176.785,950.548 174.5,953.5C 172.022,955.803 169.355,957.969 166.5,960C 164.79,961.651 163.456,963.484 162.5,965.5C 161.504,965.414 160.671,965.748 160,966.5C 156.927,970.061 154.094,973.728 151.5,977.5C 151.167,977.5 150.833,977.5 150.5,977.5C 147.152,980.851 144.152,984.518 141.5,988.5C 140.272,989.306 139.272,990.306 138.5,991.5C 135.601,994.952 132.934,998.618 130.5,1002.5C 125.399,1007.94 121.066,1013.94 117.5,1020.5C 115.178,1021.8 113.845,1023.8 113.5,1026.5C 109.795,1031.95 106.462,1037.62 103.5,1043.5C 102.326,1044.51 101.66,1045.85 101.5,1047.5C 98.3716,1051.18 96.3716,1055.51 95.5,1060.5C 95.5,1060.83 95.5,1061.17 95.5,1061.5C 93.9069,1062.35 92.7403,1063.68 92,1065.5C 90.6769,1070.29 89.1769,1074.95 87.5,1079.5C 87.3713,1081.22 87.038,1082.88 86.5,1084.5C 85.0431,1089.05 83.5431,1093.71 82,1098.5C 81.7188,1103.22 81.2188,1107.88 80.5,1112.5C 77.0505,1114.18 74.5505,1113.18 73,1109.5C 72.1864,1104.98 72.353,1100.65 73.5,1096.5C 74.5808,1093.37 75.2474,1090.04 75.5,1086.5C 75.5,1086.17 75.5,1085.83 75.5,1085.5C 77.0739,1083.9 77.7406,1081.9 77.5,1079.5C 78.6047,1075.65 79.938,1071.98 81.5,1068.5C 83.3558,1065.44 84.6891,1062.11 85.5,1058.5C 86.3627,1056.58 87.0293,1054.58 87.5,1052.5C 90.4257,1049.52 92.0923,1045.86 92.5,1041.5C 93.147,1039.86 94.147,1038.53 95.5,1037.5C 97.3873,1035.21 98.7206,1032.54 99.5,1029.5C 101.95,1027.37 103.617,1024.7 104.5,1021.5C 107.228,1017.76 109.561,1013.76 111.5,1009.5C 111.957,1008.7 112.624,1008.37 113.5,1008.5C 115.326,1006.85 116.66,1004.85 117.5,1002.5C 118.401,1001.71 119.068,1000.71 119.5,999.5C 121.587,998.415 122.92,996.749 123.5,994.5C 126.769,988.988 130.769,983.988 135.5,979.5C 139.5,976.497 142.834,972.83 145.5,968.5C 158.288,952.709 172.954,939.042 189.5,927.5C 191.889,927.021 193.556,925.688 194.5,923.5C 201.997,918.917 209.663,914.584 217.5,910.5C 222.387,908.223 227.387,906.223 232.5,904.5C 234.967,904.245 236.967,903.245 238.5,901.5C 243.042,899.895 247.708,898.895 252.5,898.5C 257.079,898.064 261.413,897.064 265.5,895.5C 276.833,895.5 288.167,895.5 299.5,895.5C 299.918,896.222 300.584,896.722 301.5,897C 304.146,897.497 306.813,897.664 309.5,897.5C 311.948,898.473 314.615,898.806 317.5,898.5C 321.159,900.342 325.159,901.342 329.5,901.5C 329.5,901.833 329.5,902.167 329.5,902.5C 331.657,903.407 333.99,904.073 336.5,904.5C 339.682,905.594 342.682,906.928 345.5,908.5C 351.456,911.492 357.456,914.492 363.5,917.5C 374.554,923.705 384.554,931.371 393.5,940.5C 402.515,950.852 411.182,961.519 419.5,972.5C 423.52,976.189 427.52,979.855 431.5,983.5C 432.911,985.914 434.911,987.581 437.5,988.5C 442.906,993.248 448.573,997.581 454.5,1001.5C 455.899,1002.89 457.566,1003.89 459.5,1004.5C 468.246,1010.87 477.913,1015.54 488.5,1018.5C 491.449,1020.46 494.782,1021.63 498.5,1022C 505.346,1022.82 512.013,1022.65 518.5,1021.5C 524.77,1020.56 531.103,1019.4 537.5,1018C 538.381,1017.29 539.047,1016.46 539.5,1015.5C 547.911,1011.8 556.244,1007.8 564.5,1003.5C 568.283,1002.59 571.283,1000.59 573.5,997.5C 575.417,995.297 577.75,993.631 580.5,992.5C 582.795,991.864 584.461,990.531 585.5,988.5C 599.654,975.925 612.654,962.258 624.5,947.5C 627.11,945.394 629.61,943.06 632,940.5C 632.49,939.207 632.657,937.873 632.5,936.5C 634.83,933.205 637.164,929.872 639.5,926.5C 642.682,924.807 644.348,922.141 644.5,918.5C 645.167,918.5 645.5,918.167 645.5,917.5C 649.691,914.548 652.357,910.548 653.5,905.5C 660.054,894.722 666.554,883.722 673,872.5C 674.768,868.914 676.268,865.247 677.5,861.5C 680.323,860.008 681.99,857.674 682.5,854.5C 682.5,854.167 682.5,853.833 682.5,853.5C 685.447,851.279 687.113,848.279 687.5,844.5C 696.355,823.373 705.355,802.373 714.5,781.5C 716.088,779.887 717.088,777.887 717.5,775.5C 721.045,767.065 724.045,758.398 726.5,749.5C 728.088,747.887 729.088,745.887 729.5,743.5C 730.859,738.736 732.526,734.069 734.5,729.5C 736.241,727.605 737.241,725.272 737.5,722.5C 739.5,716.501 741.5,710.501 743.5,704.5C 744.117,704.389 744.617,704.056 745,703.5C 745.44,701.134 745.94,698.801 746.5,696.5C 746.5,696.167 746.5,695.833 746.5,695.5C 748.088,693.887 749.088,691.887 749.5,689.5C 749.708,685.879 750.708,682.546 752.5,679.5C 754.113,677.539 755.113,675.206 755.5,672.5C 763.614,648.943 772.28,625.61 781.5,602.5C 783.739,598.351 785.739,594.018 787.5,589.5C 787.5,588.833 787.5,588.167 787.5,587.5C 789.088,585.887 790.088,583.887 790.5,581.5C 793.699,574.566 796.699,567.566 799.5,560.5C 802.344,555.333 805.01,550 807.5,544.5C 808.708,540.425 810.208,536.425 812,532.5C 815.264,527.232 818.097,521.732 820.5,516C 823.558,514.004 825.224,511.17 825.5,507.5C 828.323,506.008 829.99,503.674 830.5,500.5C 830.75,498.059 831.75,496.059 833.5,494.5C 835.387,492.211 836.721,489.545 837.5,486.5C 839.95,484.371 841.617,481.704 842.5,478.5C 843.794,477.71 844.961,476.71 846,475.5C 848.344,472.146 850.177,468.479 851.5,464.5C 855.35,459.462 858.683,454.129 861.5,448.5C 863.89,446.733 865.557,444.4 866.5,441.5C 870.064,434.281 874.731,427.948 880.5,422.5C 882.326,420.853 883.66,418.853 884.5,416.5C 886.423,413.236 888.756,410.236 891.5,407.5C 893.86,406.135 895.527,404.135 896.5,401.5C 899.468,399.523 901.802,396.856 903.5,393.5C 904.727,391.419 906.227,389.419 908,387.5C 908.5,328.501 908.667,269.501 908.5,210.5C 908.667,198.162 908.5,185.829 908,173.5C 907.283,174.044 906.783,174.711 906.5,175.5C 904.113,180.055 900.613,183.388 896,185.5C 890.977,184.458 889.31,181.458 891,176.5C 897.167,168.167 903.333,159.833 909.5,151.5C 911.527,149.661 913.86,149.161 916.5,150C 923.938,158.382 930.771,167.215 937,176.5C 938.098,183.743 935.265,186.243 928.5,184C 925.8,181.412 923.467,178.579 921.5,175.5 Z"/></g>
<g><path style="opacity:1" fill="#5f9def" d="M 851.5,199.5 C 859.01,198.18 866.677,198.18 874.5,199.5C 874.376,200.107 874.043,200.44 873.5,200.5C 866.352,199.508 859.019,199.175 851.5,199.5 Z"/></g>
<g><path style="opacity:1" fill="#2377e9" d="M 851.5,199.5 C 859.019,199.175 866.352,199.508 873.5,200.5C 864.361,226.749 854.528,252.749 844,278.5C 839.382,285.562 832.882,289.728 824.5,291C 819.316,291.816 814.316,291.65 809.5,290.5C 809.178,284.642 809.511,278.975 810.5,273.5C 820.268,275.454 826.268,271.621 828.5,262C 820.265,241.127 811.931,220.293 803.5,199.5C 811.392,198.186 819.225,198.186 827,199.5C 831.613,213.672 835.613,228.005 839,242.5C 842.671,227.991 846.838,213.657 851.5,199.5 Z"/></g>
<g><path style="opacity:1" fill="#626262" d="M 921.5,175.5 C 920.505,186.654 920.172,197.988 920.5,209.5C 919.34,197.674 919.174,185.674 920,173.5C 920.717,174.044 921.217,174.711 921.5,175.5 Z"/></g>
<g><path style="opacity:1" fill="#9d9d9d" d="M 908.5,210.5 C 907.833,198.833 907.167,187.167 906.5,175.5C 906.783,174.711 907.283,174.044 908,173.5C 908.5,185.829 908.667,198.162 908.5,210.5 Z"/></g>
<g><path style="opacity:1" fill="#9fc4f5" d="M 810.5,273.5 C 809.511,278.975 809.178,284.642 809.5,290.5C 808.183,284.654 808.183,278.654 809.5,272.5C 810.107,272.624 810.44,272.957 810.5,273.5 Z"/></g>
<g><path style="opacity:1" fill="#d5d5d5" d="M 1120.5,283.5 C 1109.83,283.5 1099.17,283.5 1088.5,283.5C 1088.61,282.883 1088.94,282.383 1089.5,282C 1099.5,281.333 1109.5,281.333 1119.5,282C 1120.06,282.383 1120.39,282.883 1120.5,283.5 Z"/></g>
<g><path style="opacity:1" fill="#a2a2a2" d="M 1081.5,284.5 C 1074.01,286.031 1066.35,287.365 1058.5,288.5C 1060.56,287.132 1062.9,286.132 1065.5,285.5C 1070.79,284.505 1076.13,284.172 1081.5,284.5 Z"/></g>
<g><path style="opacity:1" fill="#b7b7b7" d="M 1123.5,284.5 C 1128.51,284.334 1133.51,284.501 1138.5,285C 1139.06,285.383 1139.39,285.883 1139.5,286.5C 1134,286.048 1128.67,285.381 1123.5,284.5 Z"/></g>
<g><path style="opacity:1" fill="#9f9f9f" d="M 1139.5,286.5 C 1142.15,286.41 1144.49,287.076 1146.5,288.5C 1143.85,288.59 1141.51,287.924 1139.5,286.5 Z"/></g>
<g><path style="opacity:1" fill="#3d3d3d" d="M 1055.5,288.5 C 1050.19,292.008 1044.19,294.008 1037.5,294.5C 1037.79,293.351 1038.62,292.684 1040,292.5C 1045.27,291.466 1050.43,290.132 1055.5,288.5 Z"/></g>
<g><path style="opacity:1" fill="#535353" d="M 1118.5,293.5 C 1106.81,293.334 1095.15,293.667 1083.5,294.5C 1090.1,292.97 1096.93,292.303 1104,292.5C 1109.01,292.501 1113.85,292.834 1118.5,293.5 Z"/></g>
<g><path style="opacity:1" fill="#717171" d="M 1155.5,291.5 C 1157.97,291.755 1159.97,292.755 1161.5,294.5C 1159.03,294.245 1157.03,293.245 1155.5,291.5 Z"/></g>
<g><path style="opacity:1" fill="#c8c8c8" d="M 1118.5,293.5 C 1124.21,294.202 1129.88,295.202 1135.5,296.5C 1112.46,294.932 1089.46,295.265 1066.5,297.5C 1067.51,296.235 1069.01,295.569 1071,295.5C 1075.15,294.877 1079.31,294.544 1083.5,294.5C 1095.15,293.667 1106.81,293.334 1118.5,293.5 Z"/></g>
<g><path style="opacity:1" fill="#565656" d="M 1035.5,294.5 C 1033.97,296.245 1031.97,297.245 1029.5,297.5C 1031.03,295.755 1033.03,294.755 1035.5,294.5 Z"/></g>
<g><path style="opacity:1" fill="#777777" d="M 1162.5,294.5 C 1164.97,294.755 1166.97,295.755 1168.5,297.5C 1166.03,297.245 1164.03,296.245 1162.5,294.5 Z"/></g>
<g><path style="opacity:1" fill="#5b5b5b" d="M 1947.5,307.5 C 1947.83,301.794 1947.5,296.128 1946.5,290.5C 1945.58,291.127 1944.58,291.461 1943.5,291.5C 1944.64,289.787 1946.3,289.12 1948.5,289.5C 1948.82,295.69 1948.49,301.69 1947.5,307.5 Z"/></g>
<g><path style="opacity:1" fill="#9c9c9c" d="M 1140.5,297.5 C 1142.7,297.875 1144.7,298.542 1146.5,299.5C 1143.92,299.975 1141.92,299.308 1140.5,297.5 Z"/></g>
<g><path style="opacity:1" fill="#ababab" d="M 1023.5,298.5 C 1018.79,301.529 1013.79,304.196 1008.5,306.5C 1012.76,302.724 1017.76,300.057 1023.5,298.5 Z"/></g>
<g><path style="opacity:1" fill="#9f9f9f" d="M 1064.5,297.5 C 1060.84,299.342 1056.84,300.342 1052.5,300.5C 1056.16,298.658 1060.16,297.658 1064.5,297.5 Z"/></g>
<g><path style="opacity:1" fill="#a4a4a4" d="M 1051.5,300.5 C 1043.44,303.942 1035.11,306.942 1026.5,309.5C 1029.47,307.547 1032.81,305.88 1036.5,304.5C 1041.44,302.858 1046.44,301.524 1051.5,300.5 Z"/></g>
<g><path style="opacity:1" fill="#878787" d="M 1025.5,309.5 C 1023.97,311.245 1021.97,312.245 1019.5,312.5C 1021.03,310.755 1023.03,309.755 1025.5,309.5 Z"/></g>
<g><path style="opacity:1" fill="#818181" d="M 1018.5,312.5 C 1015.53,315.615 1011.87,317.615 1007.5,318.5C 1010.9,316.133 1014.57,314.133 1018.5,312.5 Z"/></g>
<g><path style="opacity:1" fill="#a8a8a8" d="M 1947.5,307.5 C 1947.67,313.176 1947.5,318.843 1947,324.5C 1946.06,327.98 1944.9,331.313 1943.5,334.5C 1945.54,325.475 1946.87,316.475 1947.5,307.5 Z"/></g>
<g><path style="opacity:1" fill="#b9b9b9" d="M 1937.5,307.5 C 1937.6,316.981 1935.93,325.981 1932.5,334.5C 1933.45,325.109 1935.11,316.109 1937.5,307.5 Z"/></g>
<g><path style="opacity:1" fill="#959595" d="M 1207.5,321.5 C 1210.09,322.419 1212.09,324.086 1213.5,326.5C 1210.91,325.581 1208.91,323.914 1207.5,321.5 Z"/></g>
<g><path style="opacity:1" fill="#626262" d="M 978.5,323.5 C 976.408,326.917 973.408,329.25 969.5,330.5C 972.19,327.815 975.19,325.482 978.5,323.5 Z"/></g>
<g><path style="opacity:1" fill="#858585" d="M 993.5,326.5 C 991.966,328.369 989.966,329.702 987.5,330.5C 988.802,328.178 990.802,326.845 993.5,326.5 Z"/></g>
<g><path style="opacity:1" fill="#656565" d="M 961.5,336.5 C 960.292,339.044 958.292,340.378 955.5,340.5C 957.223,338.782 959.223,337.449 961.5,336.5 Z"/></g>
<g><path style="opacity:1" fill="#6f6f6f" d="M 1943.5,336.5 C 1942.83,339.833 1942.17,343.167 1941.5,346.5C 1941.17,346.5 1940.83,346.5 1940.5,346.5C 1940.67,344.152 1941,341.818 1941.5,339.5C 1941.64,337.97 1942.31,336.97 1943.5,336.5 Z"/></g>
<g><path style="opacity:1" fill="#a0a0a0" d="M 970.5,342.5 C 968.363,345.973 965.363,348.306 961.5,349.5C 964.208,346.791 967.208,344.458 970.5,342.5 Z"/></g>
<g><path style="opacity:1" fill="#545454" d="M 949.5,346.5 C 948.135,348.86 946.135,350.527 943.5,351.5C 944.891,349.11 946.891,347.443 949.5,346.5 Z"/></g>
<g><path style="opacity:1" fill="#555555" d="M 1931.5,341.5 C 1931.34,345.841 1930.34,349.841 1928.5,353.5C 1928.66,349.159 1929.66,345.159 1931.5,341.5 Z"/></g>
<g><path style="opacity:1" fill="#9b9b9b" d="M 958.5,352.5 C 957.089,354.914 955.089,356.581 952.5,357.5C 953.911,355.086 955.911,353.419 958.5,352.5 Z"/></g>
<g><path style="opacity:1" fill="#787878" d="M 1928.5,353.5 C 1928.74,355.898 1928.07,357.898 1926.5,359.5C 1926.26,357.102 1926.93,355.102 1928.5,353.5 Z"/></g>
<g><path style="opacity:1" fill="#8a8a8a" d="M 920.5,345.5 C 921.33,353.99 921.83,362.657 922,371.5C 922.671,370.748 923.504,370.414 924.5,370.5C 923.855,371.812 922.855,372.812 921.5,373.5C 920.502,364.19 920.168,354.857 920.5,345.5 Z"/></g>
<g><path style="opacity:1" fill="#b8b8b8" d="M 1940.5,346.5 C 1940.83,346.5 1941.17,346.5 1941.5,346.5C 1940.78,351.46 1939.45,356.126 1937.5,360.5C 1938.19,355.761 1939.19,351.094 1940.5,346.5 Z"/></g>
<g><path style="opacity:1" fill="#656565" d="M 935.5,359.5 C 932.167,363.5 928.5,367.167 924.5,370.5C 927.167,365.833 930.833,362.167 935.5,359.5 Z"/></g>
<g><path style="opacity:1" fill="#a2a2a2" d="M 952.5,357.5 C 947.849,363.149 942.515,368.149 936.5,372.5C 941.204,366.795 946.537,361.795 952.5,357.5 Z"/></g>
<g><path style="opacity:1" fill="#5a5a5a" d="M 1925.5,365.5 C 1925.74,367.898 1925.07,369.898 1923.5,371.5C 1923.26,369.102 1923.93,367.102 1925.5,365.5 Z"/></g>
<g><path style="opacity:1" fill="#6f6f6f" d="M 1937.5,360.5 C 1937.29,366.435 1935.63,371.768 1932.5,376.5C 1932.8,373.478 1933.3,370.478 1934,367.5C 1934.86,364.916 1936.03,362.583 1937.5,360.5 Z"/></g>
<g><path style="opacity:1" fill="#a0a0a0" d="M 936.5,372.5 C 932.561,378.108 927.894,383.108 922.5,387.5C 926.439,381.892 931.106,376.892 936.5,372.5 Z"/></g>
<g><path style="opacity:1" fill="#9d9d9d" d="M 1261.5,386.5 C 1263.91,387.911 1265.58,389.911 1266.5,392.5C 1264.09,391.089 1262.42,389.089 1261.5,386.5 Z"/></g>
<g><path style="opacity:1" fill="#4b4b4b" d="M 1919.5,388.5 C 1919.33,390.848 1919,393.182 1918.5,395.5C 1918.36,397.03 1917.69,398.03 1916.5,398.5C 1916.76,394.829 1917.76,391.495 1919.5,388.5 Z"/></g>
<g><path style="opacity:1" fill="#616161" d="M 1931.5,383.5 C 1931.47,388.916 1929.8,393.582 1926.5,397.5C 1927.36,392.394 1929.02,387.727 1931.5,383.5 Z"/></g>
<g><path style="opacity:1" fill="#5d5d5d" d="M 903.5,393.5 C 901.802,396.856 899.468,399.523 896.5,401.5C 898.169,398.17 900.502,395.503 903.5,393.5 Z"/></g>
<g><path style="opacity:1" fill="#6c6c6c" d="M 896.5,401.5 C 895.527,404.135 893.86,406.135 891.5,407.5C 892.443,404.891 894.11,402.891 896.5,401.5 Z"/></g>
<g><path style="opacity:1" fill="#9b9b9b" d="M 1914.5,406.5 C 1913.94,408.801 1913.44,411.134 1913,413.5C 1912.62,414.056 1912.12,414.389 1911.5,414.5C 1912.06,412.199 1912.56,409.866 1913,407.5C 1913.38,406.944 1913.88,406.611 1914.5,406.5 Z"/></g>
<g><path style="opacity:1" fill="#646464" d="M 884.5,416.5 C 883.66,418.853 882.326,420.853 880.5,422.5C 880.845,419.802 882.178,417.802 884.5,416.5 Z"/></g>
<g><path style="opacity:1" fill="#999999" d="M 897.5,417.5 C 896.167,420.493 894.167,422.827 891.5,424.5C 892.833,421.507 894.833,419.173 897.5,417.5 Z"/></g>
<g><path style="opacity:1" fill="#717171" d="M 1911.5,417.5 C 1911.24,422.124 1910.24,426.458 1908.5,430.5C 1908.95,426.837 1909.45,423.17 1910,419.5C 1910.28,418.584 1910.78,417.918 1911.5,417.5 Z"/></g>
<g><path style="opacity:1" fill="#959595" d="M 1922.5,419.5 C 1921.63,424.901 1920.47,430.235 1919,435.5C 1918.62,436.056 1918.12,436.389 1917.5,436.5C 1917.85,430.211 1919.52,424.544 1922.5,419.5 Z"/></g>
<g><path style="opacity:1" fill="#949494" d="M 891.5,424.5 C 890.99,427.674 889.323,430.008 886.5,431.5C 887.786,428.883 889.453,426.55 891.5,424.5 Z"/></g>
<g><path style="opacity:1" fill="#c1c1c1" d="M 909.5,438.5 C 908.833,427.167 908.167,415.833 907.5,404.5C 907.369,403.624 907.702,402.957 908.5,402.5C 909.499,414.482 909.832,426.482 909.5,438.5 Z"/></g>
<g><path style="opacity:1" fill="#b7b7b7" d="M 1296.5,433.5 C 1298.94,435.999 1300.6,438.999 1301.5,442.5C 1298.54,440.212 1296.88,437.212 1296.5,433.5 Z"/></g>
<g><path style="opacity:1" fill="#bababa" d="M 1906.5,437.5 C 1906.23,441.816 1905.23,445.816 1903.5,449.5C 1903.53,445.017 1904.53,441.017 1906.5,437.5 Z"/></g>
<g><path style="opacity:1" fill="#818181" d="M 866.5,441.5 C 865.557,444.4 863.89,446.733 861.5,448.5C 862.456,445.561 864.123,443.228 866.5,441.5 Z"/></g>
<g><path style="opacity:1" fill="#909090" d="M 878.5,442.5 C 877.66,444.853 876.326,446.853 874.5,448.5C 874.845,445.802 876.178,443.802 878.5,442.5 Z"/></g>
<g><path style="opacity:1" fill="#9f9f9f" d="M 1304.5,447.5 C 1306.2,449.566 1307.53,451.9 1308.5,454.5C 1306.06,452.879 1304.72,450.546 1304.5,447.5 Z"/></g>
<g><path style="opacity:1" fill="#aaaaaa" d="M 1916.5,442.5 C 1916.66,445.187 1916.5,447.854 1916,450.5C 1914.26,453.957 1913.26,457.623 1913,461.5C 1912.62,462.056 1912.12,462.389 1911.5,462.5C 1912.65,455.591 1914.31,448.924 1916.5,442.5 Z"/></g>
<g><path style="opacity:1" fill="#9a9a9a" d="M 1323.5,460.5 C 1325.83,462.176 1326.83,464.509 1326.5,467.5C 1324.93,465.491 1323.93,463.157 1323.5,460.5 Z"/></g>
<g><path style="opacity:1" fill="#4d4d4d" d="M 851.5,464.5 C 850.177,468.479 848.344,472.146 846,475.5C 844.961,476.71 843.794,477.71 842.5,478.5C 844.639,474.102 846.972,469.768 849.5,465.5C 849.957,464.702 850.624,464.369 851.5,464.5 Z"/></g>
<g><path style="opacity:1" fill="#b1b1b1" d="M 1313.5,464.5 C 1316.65,469.474 1319.32,474.807 1321.5,480.5C 1317.53,475.988 1314.86,470.655 1313.5,464.5 Z"/></g>
<g><path style="opacity:1" fill="#7e7e7e" d="M 862.5,466.5 C 861.994,469.671 860.328,472.004 857.5,473.5C 858.852,470.835 860.518,468.502 862.5,466.5 Z"/></g>
<g><path style="opacity:1" fill="#949494" d="M 1911.5,464.5 C 1911.11,467.839 1910.61,471.173 1910,474.5C 1909.62,475.056 1909.12,475.389 1908.5,475.5C 1908.63,471.475 1909.63,467.809 1911.5,464.5 Z"/></g>
<g><path style="opacity:1" fill="#a3a3a3" d="M 856.5,474.5 C 856.622,478.597 854.956,481.597 851.5,483.5C 853.026,480.382 854.693,477.382 856.5,474.5 Z"/></g>
<g><path style="opacity:1" fill="#939393" d="M 1908.5,476.5 C 1907.86,479.456 1907.36,482.456 1907,485.5C 1906.62,486.056 1906.12,486.389 1905.5,486.5C 1906.14,483.544 1906.64,480.544 1907,477.5C 1907.38,476.944 1907.88,476.611 1908.5,476.5 Z"/></g>
<g><path style="opacity:1" fill="#797979" d="M 1321.5,481.5 C 1323.25,483.033 1324.25,485.033 1324.5,487.5C 1322.75,485.967 1321.75,483.967 1321.5,481.5 Z"/></g>
<g><path style="opacity:1" fill="#5d5d5d" d="M 1896.5,481.5 C 1896.74,483.898 1896.07,485.898 1894.5,487.5C 1894.26,485.102 1894.93,483.102 1896.5,481.5 Z"/></g>
<g><path style="opacity:1" fill="#7e7e7e" d="M 837.5,486.5 C 836.721,489.545 835.387,492.211 833.5,494.5C 833.896,491.279 835.229,488.612 837.5,486.5 Z"/></g>
<g><path style="opacity:1" fill="#9d9d9d" d="M 1905.5,488.5 C 1904.9,491.127 1904.4,493.793 1904,496.5C 1903.62,497.056 1903.12,497.389 1902.5,497.5C 1902.68,494.016 1903.68,491.016 1905.5,488.5 Z"/></g>
<g><path style="opacity:1" fill="#acacac" d="M 1325.5,489.5 C 1327.08,493.008 1328.41,496.674 1329.5,500.5C 1326.68,497.491 1325.35,493.825 1325.5,489.5 Z"/></g>
<g><path style="opacity:1" fill="#585858" d="M 1893.5,492.5 C 1893.74,494.898 1893.07,496.898 1891.5,498.5C 1891.26,496.102 1891.93,494.102 1893.5,492.5 Z"/></g>
<g><path style="opacity:1" fill="#5a5a5a" d="M 830.5,500.5 C 829.99,503.674 828.323,506.008 825.5,507.5C 826.443,504.571 828.11,502.237 830.5,500.5 Z"/></g>
<g><path style="opacity:1" fill="#686868" d="M 1339.5,498.5 C 1341.36,500.282 1342.36,502.615 1342.5,505.5C 1340.76,503.605 1339.76,501.272 1339.5,498.5 Z"/></g>
<g><path style="opacity:1" fill="#8f8f8f" d="M 839.5,504.5 C 839.408,506.848 838.408,508.514 836.5,509.5C 836.75,507.326 837.75,505.659 839.5,504.5 Z"/></g>
<g><path style="opacity:1" fill="#767676" d="M 836.5,510.5 C 835.621,513.701 833.955,516.368 831.5,518.5C 832.454,515.249 834.12,512.582 836.5,510.5 Z"/></g>
<g><path style="opacity:1" fill="#909090" d="M 1334.5,512.5 C 1335.41,514.657 1336.07,516.99 1336.5,519.5C 1335.88,519.389 1335.38,519.056 1335,518.5C 1334.5,516.527 1334.34,514.527 1334.5,512.5 Z"/></g>
<g><path style="opacity:1" fill="#616161" d="M 1897.5,515.5 C 1897.24,518.272 1896.24,520.605 1894.5,522.5C 1894.64,519.615 1895.64,517.282 1897.5,515.5 Z"/></g>
<g><path style="opacity:1" fill="#6a6a6a" d="M 1885.5,519.5 C 1885.02,522.762 1884.02,525.762 1882.5,528.5C 1882.59,526.304 1882.92,524.137 1883.5,522C 1883.68,520.624 1884.35,519.791 1885.5,519.5 Z"/></g>
<g><path style="opacity:1" fill="#626262" d="M 1894.5,524.5 C 1893.94,526.801 1893.44,529.134 1893,531.5C 1892.62,532.056 1892.12,532.389 1891.5,532.5C 1892.06,530.199 1892.56,527.866 1893,525.5C 1893.38,524.944 1893.88,524.611 1894.5,524.5 Z"/></g>
<g><path style="opacity:1" fill="#585858" d="M 1338.5,526.5 C 1340.24,528.395 1341.24,530.728 1341.5,533.5C 1339.76,531.605 1338.76,529.272 1338.5,526.5 Z"/></g>
<g><path style="opacity:1" fill="#888888" d="M 828.5,524.5 C 825.431,533.088 821.431,541.088 816.5,548.5C 819.939,540.158 823.939,532.158 828.5,524.5 Z"/></g>
<g><path style="opacity:1" fill="#7a7a7a" d="M 816.5,548.5 C 816.245,550.967 815.245,552.967 813.5,554.5C 813.755,552.033 814.755,550.033 816.5,548.5 Z"/></g>
<g><path style="opacity:1" fill="#aaaaaa" d="M 1890.5,539.5 C 1888.44,546.846 1886.27,554.18 1884,561.5C 1882.97,563.346 1881.8,565.013 1880.5,566.5C 1882.62,559.141 1884.95,551.807 1887.5,544.5C 1888.32,542.64 1889.32,540.974 1890.5,539.5 Z"/></g>
<g><path style="opacity:1" fill="#7f7f7f" d="M 807.5,544.5 C 805.01,550 802.344,555.333 799.5,560.5C 800.142,556.406 801.476,552.572 803.5,549C 804.465,547.025 805.799,545.525 807.5,544.5 Z"/></g>
<g><path style="opacity:1" fill="#6a6a6a" d="M 1873.5,556.5 C 1873.24,559.272 1872.24,561.605 1870.5,563.5C 1870.64,560.615 1871.64,558.282 1873.5,556.5 Z"/></g>
<g><path style="opacity:1" fill="#c1c1c1" d="M 812.5,559.5 C 810.399,563.207 808.899,567.207 808,571.5C 806.961,572.71 805.794,573.71 804.5,574.5C 805.583,570.913 806.916,567.413 808.5,564C 809.465,562.025 810.799,560.525 812.5,559.5 Z"/></g>
<g><path style="opacity:1" fill="#858585" d="M 1870.5,564.5 C 1869.29,569.559 1867.79,574.559 1866,579.5C 1865.62,580.056 1865.12,580.389 1864.5,580.5C 1864.99,574.476 1866.99,569.143 1870.5,564.5 Z"/></g>
<g><path style="opacity:1" fill="#959595" d="M 1351.5,571.5 C 1353.21,572.635 1353.88,574.302 1353.5,576.5C 1351.79,575.365 1351.12,573.698 1351.5,571.5 Z"/></g>
<g><path style="opacity:1" fill="#999999" d="M 1879.5,570.5 C 1879.36,573.385 1878.36,575.718 1876.5,577.5C 1876.76,574.728 1877.76,572.395 1879.5,570.5 Z"/></g>
<g><path style="opacity:1" fill="#676767" d="M 1362.5,572.5 C 1363.12,572.611 1363.62,572.944 1364,573.5C 1364.44,575.866 1364.94,578.199 1365.5,580.5C 1364.88,580.389 1364.38,580.056 1364,579.5C 1363.56,577.134 1363.06,574.801 1362.5,572.5 Z"/></g>
<g><path style="opacity:1" fill="#b7b7b7" d="M 803.5,576.5 C 803.662,578.527 803.495,580.527 803,582.5C 801.327,585.164 799.827,587.83 798.5,590.5C 798.833,589.167 799.167,587.833 799.5,586.5C 800.646,583.057 801.979,579.723 803.5,576.5 Z"/></g>
<g><path style="opacity:1" fill="#969696" d="M 790.5,581.5 C 790.088,583.887 789.088,585.887 787.5,587.5C 787.621,584.895 788.621,582.895 790.5,581.5 Z"/></g>
<g><path style="opacity:1" fill="#696969" d="M 1365.5,582.5 C 1367.07,584.102 1367.74,586.102 1367.5,588.5C 1365.93,586.898 1365.26,584.898 1365.5,582.5 Z"/></g>
<g><path style="opacity:1" fill="#565656" d="M 799.5,586.5 C 799.167,587.833 798.833,589.167 798.5,590.5C 798.167,591.5 797.5,592.167 796.5,592.5C 796.755,590.033 797.755,588.033 799.5,586.5 Z"/></g>
<g><path style="opacity:1" fill="#b0b0b0" d="M 1367.5,588.5 C 1368.69,588.97 1369.36,589.97 1369.5,591.5C 1370,593.818 1370.33,596.152 1370.5,598.5C 1368.76,595.505 1367.76,592.171 1367.5,588.5 Z"/></g>
<g><path style="opacity:1" fill="#969696" d="M 1862.5,586.5 C 1862.09,588.887 1861.09,590.887 1859.5,592.5C 1859.62,589.895 1860.62,587.895 1862.5,586.5 Z"/></g>
<g><path style="opacity:1" fill="#bcbcbc" d="M 1354.5,579.5 C 1357.35,590.07 1360.02,600.736 1362.5,611.5C 1360.65,605.477 1358.49,599.477 1356,593.5C 1355.01,588.882 1354.51,584.215 1354.5,579.5 Z"/></g>
<g><path style="opacity:1" fill="#878787" d="M 787.5,589.5 C 785.739,594.018 783.739,598.351 781.5,602.5C 782.233,597.379 784.233,593.045 787.5,589.5 Z"/></g>
<g><path style="opacity:1" fill="#afafaf" d="M 1872.5,589.5 C 1872.52,593.787 1871.19,597.453 1868.5,600.5C 1869.02,596.467 1870.36,592.8 1872.5,589.5 Z"/></g>
<g><path style="opacity:1" fill="#6b6b6b" d="M 796.5,594.5 C 796.088,596.887 795.088,598.887 793.5,600.5C 793.621,597.895 794.621,595.895 796.5,594.5 Z"/></g>
<g><path style="opacity:1" fill="#909090" d="M 1859.5,594.5 C 1859.09,596.887 1858.09,598.887 1856.5,600.5C 1856.62,597.895 1857.62,595.895 1859.5,594.5 Z"/></g>
<g><path style="opacity:1" fill="#929292" d="M 1856.5,602.5 C 1856.09,604.887 1855.09,606.887 1853.5,608.5C 1853.62,605.895 1854.62,603.895 1856.5,602.5 Z"/></g>
<g><path style="opacity:1" fill="#878787" d="M 793.5,601.5 C 793.097,604.486 792.097,607.152 790.5,609.5C 790.345,606.284 791.345,603.617 793.5,601.5 Z"/></g>
<g><path style="opacity:1" fill="#6e6e6e" d="M 790.5,609.5 C 790.088,611.887 789.088,613.887 787.5,615.5C 787.621,612.895 788.621,610.895 790.5,609.5 Z"/></g>
<g><path style="opacity:1" fill="#5c5c5c" d="M 1852.5,612.5 C 1852.74,614.898 1852.07,616.898 1850.5,618.5C 1850.26,616.102 1850.93,614.102 1852.5,612.5 Z"/></g>
<g><path style="opacity:1" fill="#6c6c6c" d="M 1362.5,612.5 C 1364.07,614.102 1364.74,616.102 1364.5,618.5C 1362.93,616.898 1362.26,614.898 1362.5,612.5 Z"/></g>
<g><path style="opacity:1" fill="#909090" d="M 1374.5,620.5 C 1376.18,621.183 1376.84,622.517 1376.5,624.5C 1374.82,623.817 1374.16,622.483 1374.5,620.5 Z"/></g>
<g><path style="opacity:1" fill="#8f8f8f" d="M 1864.5,611.5 C 1862.4,617.834 1860.23,624.168 1858,630.5C 1856.58,632.993 1855.08,635.326 1853.5,637.5C 1856.15,630.569 1858.65,623.569 1861,616.5C 1862.19,614.767 1863.36,613.1 1864.5,611.5 Z"/></g>
<g><path style="opacity:1" fill="#8f8f8f" d="M 786.5,617.5 C 786.662,619.527 786.495,621.527 786,623.5C 784.317,626.834 782.817,630.167 781.5,633.5C 782.282,627.784 783.949,622.45 786.5,617.5 Z"/></g>
<g><path style="opacity:1" fill="#9c9c9c" d="M 781.5,633.5 C 780.993,636.431 779.993,639.098 778.5,641.5C 778.307,638.189 779.307,635.522 781.5,633.5 Z"/></g>
<g><path style="opacity:1" fill="#949494" d="M 1376.5,627.5 C 1377.12,627.611 1377.62,627.944 1378,628.5C 1378.46,632.848 1378.96,637.181 1379.5,641.5C 1378.78,641.082 1378.28,640.416 1378,639.5C 1377.5,635.49 1377,631.49 1376.5,627.5 Z"/></g>
<g><path style="opacity:1" fill="#b9b9b9" d="M 1366.5,628.5 C 1367.59,633.306 1368.26,638.306 1368.5,643.5C 1367.88,643.389 1367.38,643.056 1367,642.5C 1366.5,637.845 1366.33,633.179 1366.5,628.5 Z"/></g>
<g><path style="opacity:1" fill="#8a8a8a" d="M 1853.5,640.5 C 1853.25,642.674 1852.25,644.341 1850.5,645.5C 1850.59,643.152 1851.59,641.486 1853.5,640.5 Z"/></g>
<g><path style="opacity:1" fill="#b3b3b3" d="M 777.5,643.5 C 777.67,647.535 776.337,650.869 773.5,653.5C 774.311,649.89 775.644,646.556 777.5,643.5 Z"/></g>
<g><path style="opacity:1" fill="#838383" d="M 1850.5,647.5 C 1850.09,649.887 1849.09,651.887 1847.5,653.5C 1847.62,650.895 1848.62,648.895 1850.5,647.5 Z"/></g>
<g><path style="opacity:1" fill="#a4a4a4" d="M 1368.5,643.5 C 1369.22,643.918 1369.72,644.584 1370,645.5C 1370.46,649.848 1370.96,654.181 1371.5,658.5C 1370.88,658.389 1370.38,658.056 1370,657.5C 1369.57,652.816 1369.07,648.149 1368.5,643.5 Z"/></g>
<g><path style="opacity:1" fill="#6c6c6c" d="M 1380.5,649.5 C 1381.78,652.589 1382.45,655.922 1382.5,659.5C 1380.6,656.663 1379.93,653.329 1380.5,649.5 Z"/></g>
<g><path style="opacity:1" fill="#6a6a6a" d="M 773.5,653.5 C 773.062,657.313 771.729,660.646 769.5,663.5C 770.428,660.546 771.261,657.546 772,654.5C 772.383,653.944 772.883,653.611 773.5,653.5 Z"/></g>
<g><path style="opacity:1" fill="#a8a8a8" d="M 1846.5,655.5 C 1846.66,657.527 1846.5,659.527 1846,661.5C 1844.46,663.957 1842.96,666.291 1841.5,668.5C 1842.75,663.946 1844.42,659.612 1846.5,655.5 Z"/></g>
<g><path style="opacity:1" fill="#bababa" d="M 1382.5,663.5 C 1384.4,666.337 1385.07,669.671 1384.5,673.5C 1383.22,670.411 1382.55,667.078 1382.5,663.5 Z"/></g>
<g><path style="opacity:1" fill="#909090" d="M 769.5,664.5 C 769.741,666.898 769.074,668.898 767.5,670.5C 767.259,668.102 767.926,666.102 769.5,664.5 Z"/></g>
<g><path style="opacity:1" fill="#7c7c7c" d="M 1371.5,658.5 C 1373.05,662.567 1373.72,666.9 1373.5,671.5C 1371.82,667.455 1371.16,663.122 1371.5,658.5 Z"/></g>
<g><path style="opacity:1" fill="#7f7f7f" d="M 755.5,672.5 C 755.113,675.206 754.113,677.539 752.5,679.5C 752.643,676.615 753.643,674.282 755.5,672.5 Z"/></g>
<g><path style="opacity:1" fill="#616161" d="M 761.5,686.5 C 761.088,688.887 760.088,690.887 758.5,692.5C 758.621,689.895 759.621,687.895 761.5,686.5 Z"/></g>
<g><path style="opacity:1" fill="#737373" d="M 1821.5,688.5 C 1821.09,690.887 1820.09,692.887 1818.5,694.5C 1818.62,691.895 1819.62,689.895 1821.5,688.5 Z"/></g>
<g><path style="opacity:1" fill="#999999" d="M 1832.5,690.5 C 1831.19,693.78 1829.53,696.78 1827.5,699.5C 1828.01,695.701 1829.68,692.701 1832.5,690.5 Z"/></g>
<g><path style="opacity:1" fill="#818181" d="M 749.5,689.5 C 749.088,691.887 748.088,693.887 746.5,695.5C 746.621,692.895 747.621,690.895 749.5,689.5 Z"/></g>
<g><path style="opacity:1" fill="#878787" d="M 1385.5,685.5 C 1387.04,691.28 1388.04,697.28 1388.5,703.5C 1387.88,703.389 1387.38,703.056 1387,702.5C 1386.37,696.839 1385.87,691.172 1385.5,685.5 Z"/></g>
<g><path style="opacity:1" fill="#6e6e6e" d="M 746.5,696.5 C 745.94,698.801 745.44,701.134 745,703.5C 744.617,704.056 744.117,704.389 743.5,704.5C 744.06,702.199 744.56,699.866 745,697.5C 745.383,696.944 745.883,696.611 746.5,696.5 Z"/></g>
<g><path style="opacity:1" fill="#989898" d="M 1816.5,698.5 C 1816.07,701.157 1815.07,703.491 1813.5,705.5C 1813.55,702.654 1814.55,700.32 1816.5,698.5 Z"/></g>
<g><path style="opacity:1" fill="#989898" d="M 755.5,702.5 C 755.117,705.811 754.117,708.811 752.5,711.5C 752.446,708.008 753.446,705.008 755.5,702.5 Z"/></g>
<g><path style="opacity:1" fill="#949494" d="M 1827.5,700.5 C 1825.63,707.448 1822.63,713.781 1818.5,719.5C 1820.57,712.566 1823.57,706.233 1827.5,700.5 Z"/></g>
<g><path style="opacity:1" fill="#6c6c6c" d="M 752.5,711.5 C 750.661,716.387 748.661,721.054 746.5,725.5C 747.188,720.049 749.188,715.382 752.5,711.5 Z"/></g>
<g><path style="opacity:1" fill="#aeaeae" d="M 1378.5,707.5 C 1380.82,721.359 1383.15,735.359 1385.5,749.5C 1384.88,749.389 1384.38,749.056 1384,748.5C 1381.17,734.854 1379.34,721.187 1378.5,707.5 Z"/></g>
<g><path style="opacity:1" fill="#545454" d="M 737.5,722.5 C 737.241,725.272 736.241,727.605 734.5,729.5C 734.643,726.615 735.643,724.282 737.5,722.5 Z"/></g>
<g><path style="opacity:1" fill="#6e6e6e" d="M 746.5,727.5 C 746.245,729.967 745.245,731.967 743.5,733.5C 743.755,731.033 744.755,729.033 746.5,727.5 Z"/></g>
<g><path style="opacity:1" fill="#9d9d9d" d="M 1817.5,721.5 C 1817.66,722.873 1817.49,724.207 1817,725.5C 1815.95,728.187 1814.45,730.52 1812.5,732.5C 1813.4,728.376 1815.07,724.709 1817.5,721.5 Z"/></g>
<g><path style="opacity:1" fill="#6a6a6a" d="M 1391.5,727.5 C 1393.13,731.911 1394.13,736.578 1394.5,741.5C 1393.78,741.082 1393.28,740.416 1393,739.5C 1392.36,735.509 1391.86,731.509 1391.5,727.5 Z"/></g>
<g><path style="opacity:1" fill="#7a7a7a" d="M 1812.5,733.5 C 1810.74,737.366 1808.74,741.033 1806.5,744.5C 1807.25,739.982 1809.25,736.315 1812.5,733.5 Z"/></g>
<g><path style="opacity:1" fill="#6f6f6f" d="M 741.5,740.5 C 741.097,743.486 740.097,746.152 738.5,748.5C 738.345,745.284 739.345,742.617 741.5,740.5 Z"/></g>
<g><path style="opacity:1" fill="#9e9e9e" d="M 729.5,743.5 C 729.088,745.887 728.088,747.887 726.5,749.5C 726.621,746.895 727.621,744.895 729.5,743.5 Z"/></g>
<g><path style="opacity:1" fill="#646464" d="M 1795.5,744.5 C 1795.22,746.728 1794.22,748.395 1792.5,749.5C 1792.59,747.152 1793.59,745.486 1795.5,744.5 Z"/></g>
<g><path style="opacity:1" fill="#818181" d="M 738.5,748.5 C 738.117,751.811 737.117,754.811 735.5,757.5C 735.446,754.008 736.446,751.008 738.5,748.5 Z"/></g>
<g><path style="opacity:1" fill="#787878" d="M 1385.5,751.5 C 1387.34,755.159 1388.34,759.159 1388.5,763.5C 1386.66,759.841 1385.66,755.841 1385.5,751.5 Z"/></g>
<g><path style="opacity:1" fill="#9f9f9f" d="M 1804.5,749.5 C 1802.2,757.074 1798.87,764.074 1794.5,770.5C 1797.26,764.05 1799.93,757.55 1802.5,751C 1802.84,749.97 1803.5,749.47 1804.5,749.5 Z"/></g>
<g><path style="opacity:1" fill="#717171" d="M 1397.5,759.5 C 1398.22,759.918 1398.72,760.584 1399,761.5C 1399.5,764.146 1399.66,766.813 1399.5,769.5C 1398.42,766.373 1397.75,763.04 1397.5,759.5 Z"/></g>
<g><path style="opacity:1" fill="#9e9e9e" d="M 1784.5,766.5 C 1783.87,768.75 1782.87,770.75 1781.5,772.5C 1781.39,769.784 1782.39,767.784 1784.5,766.5 Z"/></g>
<g><path style="opacity:1" fill="#444444" d="M 1388.5,766.5 C 1389.12,766.611 1389.62,766.944 1390,767.5C 1391.65,773.752 1392.81,780.086 1393.5,786.5C 1391.84,779.877 1390.17,773.211 1388.5,766.5 Z"/></g>
<g><path style="opacity:1" fill="#898989" d="M 1792.5,774.5 C 1792.22,776.728 1791.22,778.395 1789.5,779.5C 1789.59,777.152 1790.59,775.486 1792.5,774.5 Z"/></g>
<g><path style="opacity:1" fill="#808080" d="M 717.5,775.5 C 717.088,777.887 716.088,779.887 714.5,781.5C 714.621,778.895 715.621,776.895 717.5,775.5 Z"/></g>
<g><path style="opacity:1" fill="#979797" d="M 731.5,768.5 C 730.023,775.162 727.356,781.162 723.5,786.5C 725.479,782.4 726.979,778.066 728,773.5C 728.902,771.569 730.069,769.903 731.5,768.5 Z"/></g>
<g><path style="opacity:1" fill="#8d8d8d" d="M 1789.5,780.5 C 1789.25,782.967 1788.25,784.967 1786.5,786.5C 1786.75,784.033 1787.75,782.033 1789.5,780.5 Z"/></g>
<g><path style="opacity:1" fill="#a3a3a3" d="M 1402.5,781.5 C 1403.73,782.152 1404.39,783.319 1404.5,785C 1404.92,787.498 1405.25,789.998 1405.5,792.5C 1404.88,792.389 1404.38,792.056 1404,791.5C 1403.54,788.146 1403.04,784.813 1402.5,781.5 Z"/></g>
<g><path style="opacity:1" fill="#8c8c8c" d="M 1786.5,786.5 C 1784.25,792.965 1781.25,798.965 1777.5,804.5C 1779.75,798.035 1782.75,792.035 1786.5,786.5 Z"/></g>
<g><path style="opacity:1" fill="#797979" d="M 723.5,788.5 C 723.088,790.887 722.088,792.887 720.5,794.5C 720.621,791.895 721.621,789.895 723.5,788.5 Z"/></g>
<g><path style="opacity:1" fill="#898989" d="M 1395.5,795.5 C 1396.52,798.974 1397.19,802.64 1397.5,806.5C 1395.78,803.155 1395.12,799.489 1395.5,795.5 Z"/></g>
<g><path style="opacity:1" fill="#7a7a7a" d="M 717.5,803.5 C 716.193,806.78 714.527,809.78 712.5,812.5C 713.015,808.701 714.681,805.701 717.5,803.5 Z"/></g>
<g><path style="opacity:1" fill="#6c6c6c" d="M 1766.5,802.5 C 1766.25,804.967 1765.25,806.967 1763.5,808.5C 1763.75,806.033 1764.75,804.033 1766.5,802.5 Z"/></g>
<g><path style="opacity:1" fill="#a6a6a6" d="M 1774.5,811.5 C 1773.55,814.751 1771.88,817.418 1769.5,819.5C 1770.12,816.07 1771.79,813.404 1774.5,811.5 Z"/></g>
<g><path style="opacity:1" fill="#555555" d="M 1763.5,808.5 C 1762.85,812.203 1761.19,815.203 1758.5,817.5C 1759.61,814.142 1761.28,811.142 1763.5,808.5 Z"/></g>
<g><path style="opacity:1" fill="#949494" d="M 711.5,817.5 C 711.25,819.674 710.25,821.341 708.5,822.5C 708.592,820.152 709.592,818.486 711.5,817.5 Z"/></g>
<g><path style="opacity:1" fill="#898989" d="M 1758.5,817.5 C 1758.01,819.819 1757.01,821.819 1755.5,823.5C 1755.46,820.911 1756.46,818.911 1758.5,817.5 Z"/></g>
<g><path style="opacity:1" fill="#b8b8b8" d="M 1765.5,827.5 C 1765.33,831.186 1763.66,833.853 1760.5,835.5C 1761.38,832.296 1763.05,829.629 1765.5,827.5 Z"/></g>
<g><path style="opacity:1" fill="#919191" d="M 1401.5,820.5 C 1403.79,825.422 1405.13,830.755 1405.5,836.5C 1403,831.558 1401.67,826.225 1401.5,820.5 Z"/></g>
<g><path style="opacity:1" fill="#a5a5a5" d="M 708.5,823.5 C 707.553,826.934 706.386,830.267 705,833.5C 704.623,834.942 703.79,835.942 702.5,836.5C 703.372,831.509 705.372,827.176 708.5,823.5 Z"/></g>
<g><path style="opacity:1" fill="#575757" d="M 1753.5,826.5 C 1752.65,831.389 1750.32,835.389 1746.5,838.5C 1748.47,834.242 1750.8,830.242 1753.5,826.5 Z"/></g>
<g><path style="opacity:1" fill="#7c7c7c" d="M 1412.5,822.5 C 1414.59,827.293 1416.25,832.293 1417.5,837.5C 1414.59,833.051 1412.93,828.051 1412.5,822.5 Z"/></g>
<g><path style="opacity:1" fill="#a9a9a9" d="M 1760.5,835.5 C 1760.13,840.169 1758.13,843.836 1754.5,846.5C 1755.89,842.427 1757.89,838.761 1760.5,835.5 Z"/></g>
<g><path style="opacity:1" fill="#8d8d8d" d="M 702.5,837.5 C 700.576,842.976 697.909,847.976 694.5,852.5C 696.057,846.763 698.724,841.763 702.5,837.5 Z"/></g>
<g><path style="opacity:1" fill="#6e6e6e" d="M 1418.5,840.5 C 1419.41,842.657 1420.07,844.99 1420.5,847.5C 1419.88,847.389 1419.38,847.056 1419,846.5C 1418.5,844.527 1418.34,842.527 1418.5,840.5 Z"/></g>
<g><path style="opacity:1" fill="#3f3f3f" d="M 687.5,844.5 C 687.113,848.279 685.447,851.279 682.5,853.5C 683.395,849.999 685.062,846.999 687.5,844.5 Z"/></g>
<g><path style="opacity:1" fill="#8a8a8a" d="M 1754.5,846.5 C 1754.07,849.147 1752.74,851.147 1750.5,852.5C 1751.3,850.034 1752.63,848.034 1754.5,846.5 Z"/></g>
<g><path style="opacity:1" fill="#7a7a7a" d="M 1420.5,848.5 C 1422.36,850.282 1423.36,852.615 1423.5,855.5C 1421.76,853.605 1420.76,851.272 1420.5,848.5 Z"/></g>
<g><path style="opacity:1" fill="#5e5e5e" d="M 682.5,854.5 C 681.99,857.674 680.323,860.008 677.5,861.5C 678.443,858.571 680.11,856.237 682.5,854.5 Z"/></g>
<g><path style="opacity:1" fill="#898989" d="M 694.5,852.5 C 694.245,854.967 693.245,856.967 691.5,858.5C 691.755,856.033 692.755,854.033 694.5,852.5 Z"/></g>
<g><path style="opacity:1" fill="#797979" d="M 1735.5,857.5 C 1734.66,859.853 1733.33,861.853 1731.5,863.5C 1731.84,860.802 1733.18,858.802 1735.5,857.5 Z"/></g>
<g><path style="opacity:1" fill="#8d8d8d" d="M 691.5,858.5 C 691.408,860.848 690.408,862.514 688.5,863.5C 688.75,861.326 689.75,859.659 691.5,858.5 Z"/></g>
<g><path style="opacity:1" fill="#909090" d="M 1747.5,857.5 C 1746.43,861.976 1744.1,865.643 1740.5,868.5C 1742.59,864.656 1744.92,860.989 1747.5,857.5 Z"/></g>
<g><path style="opacity:1" fill="#777777" d="M 1731.5,863.5 C 1731.57,865.027 1730.91,866.027 1729.5,866.5C 1729.43,864.973 1730.09,863.973 1731.5,863.5 Z"/></g>
<g><path style="opacity:1" fill="#767676" d="M 1425.5,861.5 C 1426.79,862.058 1427.62,863.058 1428,864.5C 1428.44,866.866 1428.94,869.199 1429.5,871.5C 1427.27,868.646 1425.94,865.313 1425.5,861.5 Z"/></g>
<g><path style="opacity:1" fill="#6c6c6c" d="M 688.5,864.5 C 687.231,867.757 685.564,870.757 683.5,873.5C 684.003,869.709 685.67,866.709 688.5,864.5 Z"/></g>
<g><path style="opacity:1" fill="#707070" d="M 1725.5,872.5 C 1725.16,875.198 1723.82,877.198 1721.5,878.5C 1722.34,876.147 1723.67,874.147 1725.5,872.5 Z"/></g>
<g><path style="opacity:1" fill="#858585" d="M 1739.5,869.5 C 1739.35,873.141 1737.68,875.807 1734.5,877.5C 1736.17,874.825 1737.84,872.159 1739.5,869.5 Z"/></g>
<g><path style="opacity:1" fill="#b0b0b0" d="M 1733.5,878.5 C 1734.27,882.725 1732.6,885.391 1728.5,886.5C 1730.17,883.825 1731.84,881.159 1733.5,878.5 Z"/></g>
<g><path style="opacity:1" fill="#5a5a5a" d="M 1719.5,881.5 C 1718.59,885.065 1716.59,887.732 1713.5,889.5C 1715.15,886.527 1717.15,883.86 1719.5,881.5 Z"/></g>
<g><path style="opacity:1" fill="#9c9c9c" d="M 1421.5,878.5 C 1423.16,882.458 1424.82,886.458 1426.5,890.5C 1425.09,888.526 1423.59,886.526 1422,884.5C 1421.5,882.527 1421.34,880.527 1421.5,878.5 Z"/></g>
<g><path style="opacity:1" fill="#8c8c8c" d="M 1728.5,887.5 C 1727.02,890.569 1725.02,893.236 1722.5,895.5C 1723.41,891.935 1725.41,889.268 1728.5,887.5 Z"/></g>
<g><path style="opacity:1" fill="#808080" d="M 1437.5,890.5 C 1439.25,891.659 1440.25,893.326 1440.5,895.5C 1438.59,894.514 1437.59,892.848 1437.5,890.5 Z"/></g>
<g><path style="opacity:1" fill="#6c6c6c" d="M 1713.5,889.5 C 1712.59,893.065 1710.59,895.732 1707.5,897.5C 1709.15,894.527 1711.15,891.86 1713.5,889.5 Z"/></g>
<g><path style="opacity:1" fill="#989898" d="M 682.5,874.5 C 682.244,876.937 681.577,879.271 680.5,881.5C 677.646,887.225 674.313,892.558 670.5,897.5C 673.739,889.353 677.739,881.686 682.5,874.5 Z"/></g>
<g><path style="opacity:1" fill="#5f5f5f" d="M 265.5,895.5 C 261.413,897.064 257.079,898.064 252.5,898.5C 256.369,896.561 260.703,895.561 265.5,895.5 Z"/></g>
<g><path style="opacity:1" fill="#666666" d="M 299.5,895.5 C 303.04,895.753 306.373,896.419 309.5,897.5C 306.813,897.664 304.146,897.497 301.5,897C 300.584,896.722 299.918,896.222 299.5,895.5 Z"/></g>
<g><path style="opacity:1" fill="#b7b7b7" d="M 1427.5,892.5 C 1429.15,895.654 1430.48,898.988 1431.5,902.5C 1428.08,900.109 1426.75,896.775 1427.5,892.5 Z"/></g>
<g><path style="opacity:1" fill="#a4a4a4" d="M 1722.5,895.5 C 1721.31,899.36 1718.98,902.36 1715.5,904.5C 1717.52,901.159 1719.85,898.159 1722.5,895.5 Z"/></g>
<g><path style="opacity:1" fill="#a8a8a8" d="M 317.5,898.5 C 321.841,898.658 325.841,899.658 329.5,901.5C 325.159,901.342 321.159,900.342 317.5,898.5 Z"/></g>
<g><path style="opacity:1" fill="#5a5a5a" d="M 238.5,901.5 C 236.967,903.245 234.967,904.245 232.5,904.5C 232.833,903.833 233.167,903.167 233.5,902.5C 235.216,902.371 236.883,902.038 238.5,901.5 Z"/></g>
<g><path style="opacity:1" fill="#b4b4b4" d="M 233.5,902.5 C 233.167,903.167 232.833,903.833 232.5,904.5C 227.387,906.223 222.387,908.223 217.5,910.5C 222.261,906.899 227.594,904.232 233.5,902.5 Z"/></g>
<g><path style="opacity:1" fill="#9a9a9a" d="M 329.5,902.5 C 331.527,902.338 333.527,902.505 335.5,903C 336.056,903.383 336.389,903.883 336.5,904.5C 333.99,904.073 331.657,903.407 329.5,902.5 Z"/></g>
<g><path style="opacity:1" fill="#838383" d="M 294.5,905.5 C 285.494,905.334 276.494,905.5 267.5,906C 262.058,907.948 256.391,909.115 250.5,909.5C 255.477,907.155 260.811,905.655 266.5,905C 276.009,904.176 285.343,904.342 294.5,905.5 Z"/></g>
<g><path style="opacity:1" fill="#999999" d="M 1432.5,903.5 C 1434.07,905.102 1434.74,907.102 1434.5,909.5C 1432.93,907.898 1432.26,905.898 1432.5,903.5 Z"/></g>
<g><path style="opacity:1" fill="#969696" d="M 294.5,905.5 C 297.85,905.335 301.183,905.502 304.5,906C 308.907,907.086 313.241,908.252 317.5,909.5C 309.387,909.538 301.721,908.204 294.5,905.5 Z"/></g>
<g><path style="opacity:1" fill="#5f5f5f" d="M 1702.5,904.5 C 1701.56,907.109 1699.89,909.109 1697.5,910.5C 1698.47,907.865 1700.14,905.865 1702.5,904.5 Z"/></g>
<g><path style="opacity:1" fill="#4a4a4a" d="M 653.5,905.5 C 652.357,910.548 649.691,914.548 645.5,917.5C 647.612,912.999 650.278,908.999 653.5,905.5 Z"/></g>
<g><path style="opacity:1" fill="#959595" d="M 1715.5,904.5 C 1713.92,908.078 1711.59,911.078 1708.5,913.5C 1710.11,909.949 1712.44,906.949 1715.5,904.5 Z"/></g>
<g><path style="opacity:1" fill="#727272" d="M 323.5,910.5 C 326.272,910.759 328.605,911.759 330.5,913.5C 327.615,913.357 325.282,912.357 323.5,910.5 Z"/></g>
<g><path style="opacity:1" fill="#9f9f9f" d="M 345.5,908.5 C 351.126,909.808 356.459,911.975 361.5,915C 362.381,915.708 363.047,916.542 363.5,917.5C 357.456,914.492 351.456,911.492 345.5,908.5 Z"/></g>
<g><path style="opacity:1" fill="#a7a7a7" d="M 245.5,910.5 C 239.432,913.612 233.099,916.278 226.5,918.5C 227.602,916.643 229.269,915.309 231.5,914.5C 235.866,912.241 240.533,910.907 245.5,910.5 Z"/></g>
<g><path style="opacity:1" fill="#9c9c9c" d="M 1707.5,914.5 C 1705.58,917.603 1703.41,920.603 1701,923.5C 1700.33,924.252 1699.5,924.586 1698.5,924.5C 1700.79,920.544 1703.79,917.211 1707.5,914.5 Z"/></g>
<g><path style="opacity:1" fill="#545454" d="M 1692.5,915.5 C 1691.58,918.089 1689.91,920.089 1687.5,921.5C 1688.42,918.911 1690.09,916.911 1692.5,915.5 Z"/></g>
<g><path style="opacity:1" fill="#7e7e7e" d="M 657.5,918.5 C 656.241,922.025 654.241,925.025 651.5,927.5C 652.723,923.951 654.723,920.951 657.5,918.5 Z"/></g>
<g><path style="opacity:1" fill="#6c6c6c" d="M 644.5,918.5 C 644.348,922.141 642.682,924.807 639.5,926.5C 641.17,923.825 642.836,921.159 644.5,918.5 Z"/></g>
<g><path style="opacity:1" fill="#adadad" d="M 219.5,921.5 C 216.621,923.968 213.288,925.635 209.5,926.5C 212.235,923.799 215.569,922.132 219.5,921.5 Z"/></g>
<g><path style="opacity:1" fill="#b6b6b6" d="M 1438.5,916.5 C 1441.34,920.849 1443.67,925.516 1445.5,930.5C 1444.54,930.047 1443.71,929.381 1443,928.5C 1440.75,924.761 1439.25,920.761 1438.5,916.5 Z"/></g>
<g><path style="opacity:1" fill="#686868" d="M 194.5,923.5 C 193.556,925.688 191.889,927.021 189.5,927.5C 190.656,925.613 192.323,924.279 194.5,923.5 Z"/></g>
<g><path style="opacity:1" fill="#959595" d="M 209.5,926.5 C 208.147,928.738 206.147,930.071 203.5,930.5C 205.034,928.631 207.034,927.298 209.5,926.5 Z"/></g>
<g><path style="opacity:1" fill="#878787" d="M 203.5,930.5 C 201.853,932.326 199.853,933.66 197.5,934.5C 198.802,932.178 200.802,930.845 203.5,930.5 Z"/></g>
<g><path style="opacity:1" fill="#979797" d="M 651.5,927.5 C 651.657,928.873 651.49,930.207 651,931.5C 648.267,934.062 645.767,936.729 643.5,939.5C 645.782,935.223 648.449,931.223 651.5,927.5 Z"/></g>
<g><path style="opacity:1" fill="#8f8f8f" d="M 643.5,939.5 C 642.66,941.853 641.326,943.853 639.5,945.5C 639.845,942.802 641.178,940.802 643.5,939.5 Z"/></g>
<g><path style="opacity:1" fill="#565656" d="M 1665.5,942.5 C 1664.11,944.89 1662.11,946.557 1659.5,947.5C 1660.87,945.14 1662.87,943.473 1665.5,942.5 Z"/></g>
<g><path style="opacity:1" fill="#545454" d="M 632.5,936.5 C 632.657,937.873 632.49,939.207 632,940.5C 629.61,943.06 627.11,945.394 624.5,947.5C 626.934,943.618 629.601,939.952 632.5,936.5 Z"/></g>
<g><path style="opacity:1" fill="#969696" d="M 382.5,944.5 C 385.243,946.239 387.243,948.573 388.5,951.5C 385.757,949.761 383.757,947.427 382.5,944.5 Z"/></g>
<g><path style="opacity:1" fill="#9f9f9f" d="M 1677.5,945.5 C 1675.43,948.573 1672.76,950.906 1669.5,952.5C 1671.57,949.427 1674.24,947.094 1677.5,945.5 Z"/></g>
<g><path style="opacity:1" fill="#9d9d9d" d="M 182.5,945.5 C 180.855,949.145 178.188,951.812 174.5,953.5C 176.785,950.548 179.452,947.882 182.5,945.5 Z"/></g>
<g><path style="opacity:1" fill="#9b9b9b" d="M 1456.5,946.5 C 1457.89,947.899 1458.89,949.566 1459.5,951.5C 1457.24,950.656 1456.24,948.989 1456.5,946.5 Z"/></g>
<g><path style="opacity:1" fill="#b5b5b5" d="M 636.5,949.5 C 635.664,953.091 633.664,955.758 630.5,957.5C 630.539,956.417 630.873,955.417 631.5,954.5C 632.969,952.487 634.636,950.82 636.5,949.5 Z"/></g>
<g><path style="opacity:1" fill="#575757" d="M 1474.5,953.5 C 1477.5,955.833 1480.17,958.5 1482.5,961.5C 1478.83,959.833 1476.17,957.167 1474.5,953.5 Z"/></g>
<g><path style="opacity:1" fill="#8b8b8b" d="M 1461.5,954.5 C 1463.91,955.911 1465.58,957.911 1466.5,960.5C 1464.09,959.089 1462.42,957.089 1461.5,954.5 Z"/></g>
<g><path style="opacity:1" fill="#424242" d="M 1654.5,951.5 C 1650.55,957.108 1645.22,960.775 1638.5,962.5C 1643.83,958.836 1649.16,955.17 1654.5,951.5 Z"/></g>
<g><path style="opacity:1" fill="#868686" d="M 1661.5,959.5 C 1659.14,961.853 1656.47,963.853 1653.5,965.5C 1655.27,962.41 1657.93,960.41 1661.5,959.5 Z"/></g>
<g><path style="opacity:1" fill="#949494" d="M 398.5,963.5 C 400.914,964.911 402.581,966.911 403.5,969.5C 401.086,968.089 399.419,966.089 398.5,963.5 Z"/></g>
<g><path style="opacity:1" fill="#9b9b9b" d="M 1491.5,969.5 C 1493.99,969.241 1495.66,970.241 1496.5,972.5C 1494.57,971.89 1492.9,970.89 1491.5,969.5 Z"/></g>
<g><path style="opacity:1" fill="#989898" d="M 1653.5,965.5 C 1651.05,968.281 1648.05,970.281 1644.5,971.5C 1646.9,968.791 1649.9,966.791 1653.5,965.5 Z"/></g>
<g><path style="opacity:1" fill="#484848" d="M 1628.5,968.5 C 1624.6,972.332 1619.93,974.999 1614.5,976.5C 1618.58,972.908 1623.24,970.242 1628.5,968.5 Z"/></g>
<g><path style="opacity:1" fill="#b1b1b1" d="M 162.5,965.5 C 159.625,970.05 155.958,974.05 151.5,977.5C 154.094,973.728 156.927,970.061 160,966.5C 160.671,965.748 161.504,965.414 162.5,965.5 Z"/></g>
<g><path style="opacity:1" fill="#9d9d9d" d="M 630.5,957.5 C 625.762,964.99 620.095,971.657 613.5,977.5C 616.694,973.281 619.86,968.947 623,964.5C 625.416,961.912 627.916,959.578 630.5,957.5 Z"/></g>
<g><path style="opacity:1" fill="#b1b1b1" d="M 1644.5,971.5 C 1642.02,974.787 1638.68,976.787 1634.5,977.5C 1637.26,974.775 1640.6,972.775 1644.5,971.5 Z"/></g>
<g><path style="opacity:1" fill="#555555" d="M 145.5,968.5 C 142.834,972.83 139.5,976.497 135.5,979.5C 138.174,975.163 141.507,971.496 145.5,968.5 Z"/></g>
<g><path style="opacity:1" fill="#a8a8a8" d="M 1505.5,977.5 C 1510,978.165 1514,979.832 1517.5,982.5C 1516.13,982.657 1514.79,982.49 1513.5,982C 1510.71,980.499 1508.05,978.999 1505.5,977.5 Z"/></g>
<g><path style="opacity:1" fill="#5c5c5c" d="M 1604.5,979.5 C 1602.61,981.241 1600.27,982.241 1597.5,982.5C 1599.28,980.643 1601.61,979.643 1604.5,979.5 Z"/></g>
<g><path style="opacity:1" fill="#a9a9a9" d="M 150.5,977.5 C 150.229,979.312 149.562,980.978 148.5,982.5C 146.14,984.662 143.807,986.662 141.5,988.5C 144.152,984.518 147.152,980.851 150.5,977.5 Z"/></g>
<g><path style="opacity:1" fill="#636363" d="M 1595.5,982.5 C 1595.03,983.693 1594.03,984.36 1592.5,984.5C 1590.18,984.997 1587.85,985.33 1585.5,985.5C 1588.53,983.87 1591.86,982.87 1595.5,982.5 Z"/></g>
<g><path style="opacity:1" fill="#878787" d="M 1633.5,977.5 C 1632.43,978.885 1631.09,980.051 1629.5,981C 1625.91,982.768 1622.25,984.268 1618.5,985.5C 1623.02,982.091 1628.02,979.424 1633.5,977.5 Z"/></g>
<g><path style="opacity:1" fill="#a9a9a9" d="M 1517.5,982.5 C 1524.01,983.211 1530.34,984.711 1536.5,987C 1544.82,987.781 1553.15,988.281 1561.5,988.5C 1556.69,989.487 1551.69,989.821 1546.5,989.5C 1537.07,988.421 1527.74,986.588 1518.5,984C 1517.94,983.617 1517.61,983.117 1517.5,982.5 Z"/></g>
<g><path style="opacity:1" fill="#8c8c8c" d="M 431.5,983.5 C 434.089,984.419 436.089,986.086 437.5,988.5C 434.911,987.581 432.911,985.914 431.5,983.5 Z"/></g>
<g><path style="opacity:1" fill="#939393" d="M 606.5,983.5 C 604.855,987.145 602.188,989.812 598.5,991.5C 600.785,988.548 603.452,985.882 606.5,983.5 Z"/></g>
<g><path style="opacity:1" fill="#b4b4b4" d="M 1575.5,986.5 C 1575.08,987.222 1574.42,987.722 1573.5,988C 1570.18,988.498 1566.85,988.665 1563.5,988.5C 1567.29,987.383 1571.29,986.717 1575.5,986.5 Z"/></g>
<g><path style="opacity:1" fill="#323232" d="M 1583.5,985.5 C 1583.39,986.117 1583.06,986.617 1582.5,987C 1570.49,989.947 1558.49,990.781 1546.5,989.5C 1551.69,989.821 1556.69,989.487 1561.5,988.5C 1562.17,988.5 1562.83,988.5 1563.5,988.5C 1566.85,988.665 1570.18,988.498 1573.5,988C 1574.42,987.722 1575.08,987.222 1575.5,986.5C 1578.24,986.599 1580.9,986.265 1583.5,985.5 Z"/></g>
<g><path style="opacity:1" fill="#8f8f8f" d="M 1617.5,985.5 C 1613.14,988.839 1608.14,990.839 1602.5,991.5C 1602.61,990.883 1602.94,990.383 1603.5,990C 1608.28,988.772 1612.95,987.272 1617.5,985.5 Z"/></g>
<g><path style="opacity:1" fill="#616161" d="M 585.5,988.5 C 584.461,990.531 582.795,991.864 580.5,992.5C 581.579,990.457 583.246,989.124 585.5,988.5 Z"/></g>
<g><path style="opacity:1" fill="#646464" d="M 1600.5,991.5 C 1600.39,992.117 1600.06,992.617 1599.5,993C 1597.13,993.44 1594.8,993.94 1592.5,994.5C 1592.61,993.883 1592.94,993.383 1593.5,993C 1595.87,992.56 1598.2,992.06 1600.5,991.5 Z"/></g>
<g><path style="opacity:1" fill="#848484" d="M 1591.5,994.5 C 1589.22,996.223 1586.55,996.889 1583.5,996.5C 1585.91,995.232 1588.57,994.565 1591.5,994.5 Z"/></g>
<g><path style="opacity:1" fill="#898989" d="M 595.5,994.5 C 593.14,996.853 590.473,998.853 587.5,1000.5C 589.268,997.41 591.935,995.41 595.5,994.5 Z"/></g>
<g><path style="opacity:1" fill="#7b7b7b" d="M 123.5,994.5 C 122.92,996.749 121.587,998.415 119.5,999.5C 120.08,997.251 121.413,995.585 123.5,994.5 Z"/></g>
<g><path style="opacity:1" fill="#5d5d5d" d="M 1534.5,997.5 C 1546.14,998.413 1557.8,998.746 1569.5,998.5C 1559.01,999.659 1548.34,999.825 1537.5,999C 1536.26,998.768 1535.26,998.268 1534.5,997.5 Z"/></g>
<g><path style="opacity:1" fill="#999999" d="M 138.5,991.5 C 137.047,996.082 134.38,999.749 130.5,1002.5C 132.934,998.618 135.601,994.952 138.5,991.5 Z"/></g>
<g><path style="opacity:1" fill="#565656" d="M 573.5,997.5 C 571.283,1000.59 568.283,1002.59 564.5,1003.5C 564.369,1002.62 564.702,1001.96 565.5,1001.5C 568.195,1000.12 570.861,998.784 573.5,997.5 Z"/></g>
<g><path style="opacity:1" fill="#9a9a9a" d="M 454.5,1001.5 C 456.989,1001.24 458.656,1002.24 459.5,1004.5C 457.566,1003.89 455.899,1002.89 454.5,1001.5 Z"/></g>
<g><path style="opacity:1" fill="#aaaaaa" d="M 587.5,1000.5 C 585.539,1003.95 582.539,1005.95 578.5,1006.5C 581.223,1004.12 584.223,1002.12 587.5,1000.5 Z"/></g>
<g><path style="opacity:1" fill="#6a6a6a" d="M 117.5,1002.5 C 116.66,1004.85 115.326,1006.85 113.5,1008.5C 113.845,1005.8 115.178,1003.8 117.5,1002.5 Z"/></g>
<g><path style="opacity:1" fill="#9a9a9a" d="M 578.5,1006.5 C 576.36,1009.28 573.693,1011.44 570.5,1013C 568.257,1014.14 565.924,1014.97 563.5,1015.5C 568.218,1012.13 573.218,1009.13 578.5,1006.5 Z"/></g>
<g><path style="opacity:1" fill="#3f3f3f" d="M 539.5,1015.5 C 539.047,1016.46 538.381,1017.29 537.5,1018C 531.103,1019.4 524.77,1020.56 518.5,1021.5C 525.414,1019.4 532.414,1017.4 539.5,1015.5 Z"/></g>
<g><path style="opacity:1" fill="#565656" d="M 488.5,1018.5 C 498.305,1021.11 508.305,1022.11 518.5,1021.5C 512.013,1022.65 505.346,1022.82 498.5,1022C 494.782,1021.63 491.449,1020.46 488.5,1018.5 Z"/></g>
<g><path style="opacity:1" fill="#797979" d="M 556.5,1018.5 C 554.518,1021.14 551.852,1022.47 548.5,1022.5C 550.897,1020.81 553.563,1019.47 556.5,1018.5 Z"/></g>
<g><path style="opacity:1" fill="#787878" d="M 117.5,1020.5 C 116.66,1022.85 115.326,1024.85 113.5,1026.5C 113.845,1023.8 115.178,1021.8 117.5,1020.5 Z"/></g>
<g><path style="opacity:1" fill="#686868" d="M 473.5,1023.5 C 475.967,1023.75 477.967,1024.75 479.5,1026.5C 477.033,1026.25 475.033,1025.25 473.5,1023.5 Z"/></g>
<g><path style="opacity:1" fill="#b9b9b9" d="M 546.5,1023.5 C 543.557,1026.37 539.89,1028.03 535.5,1028.5C 538.737,1026.05 542.403,1024.38 546.5,1023.5 Z"/></g>
<g><path style="opacity:1" fill="#858585" d="M 104.5,1021.5 C 103.617,1024.7 101.95,1027.37 99.5,1029.5C 100.383,1026.3 102.05,1023.63 104.5,1021.5 Z"/></g>
<g><path style="opacity:1" fill="#888888" d="M 491.5,1030.5 C 500.815,1031.23 510.148,1031.57 519.5,1031.5C 516.016,1032.17 512.349,1032.5 508.5,1032.5C 502.591,1032.65 496.925,1031.98 491.5,1030.5 Z"/></g>
<g><path style="opacity:1" fill="#606060" d="M 99.5,1029.5 C 98.7206,1032.54 97.3873,1035.21 95.5,1037.5C 95.8961,1034.28 97.2295,1031.61 99.5,1029.5 Z"/></g>
<g><path style="opacity:1" fill="#a1a1a1" d="M 113.5,1026.5 C 111.423,1033 108.09,1038.66 103.5,1043.5C 106.462,1037.62 109.795,1031.95 113.5,1026.5 Z"/></g>
<g><path style="opacity:1" fill="#777777" d="M 92.5,1041.5 C 92.0923,1045.86 90.4257,1049.52 87.5,1052.5C 88.7687,1048.59 90.4353,1044.93 92.5,1041.5 Z"/></g>
<g><path style="opacity:1" fill="#9d9d9d" d="M 101.5,1047.5 C 100.553,1050.93 99.3861,1054.27 98,1057.5C 97.6232,1058.94 96.7899,1059.94 95.5,1060.5C 96.3716,1055.51 98.3716,1051.18 101.5,1047.5 Z"/></g>
<g><path style="opacity:1" fill="#858585" d="M 95.5,1061.5 C 93.201,1067.75 90.5343,1073.75 87.5,1079.5C 89.1769,1074.95 90.6769,1070.29 92,1065.5C 92.7403,1063.68 93.9069,1062.35 95.5,1061.5 Z"/></g>
<g><path style="opacity:1" fill="#454545" d="M 85.5,1058.5 C 84.6891,1062.11 83.3558,1065.44 81.5,1068.5C 81.4859,1064.53 82.8193,1061.19 85.5,1058.5 Z"/></g>
<g><path style="opacity:1" fill="#686868" d="M 77.5,1079.5 C 77.7406,1081.9 77.0739,1083.9 75.5,1085.5C 75.2594,1083.1 75.9261,1081.1 77.5,1079.5 Z"/></g>
<g><path style="opacity:1" fill="#7e7e7e" d="M 75.5,1086.5 C 75.2474,1090.04 74.5808,1093.37 73.5,1096.5C 73.3359,1093.81 73.5026,1091.15 74,1088.5C 74.2784,1087.58 74.7784,1086.92 75.5,1086.5 Z"/></g>
<g><path style="opacity:1" fill="#b8b8b8" d="M 86.5,1084.5 C 86.0013,1088.49 85.5013,1092.49 85,1096.5C 83.4095,1101.99 81.9095,1107.33 80.5,1112.5C 81.2188,1107.88 81.7188,1103.22 82,1098.5C 83.5431,1093.71 85.0431,1089.05 86.5,1084.5 Z"/></g>
<g><path style="opacity:1" fill="#5d9cef" d="M 1722.5,1113.5 C 1714.32,1113.17 1706.32,1113.51 1698.5,1114.5C 1697.96,1114.44 1697.62,1114.11 1697.5,1113.5C 1705.99,1112.18 1714.32,1112.18 1722.5,1113.5 Z"/></g>
<g><path style="opacity:1" fill="#5e9cef" d="M 1742.5,1113.5 C 1750.68,1112.18 1759.01,1112.18 1767.5,1113.5C 1767.38,1114.11 1767.04,1114.44 1766.5,1114.5C 1758.68,1113.51 1750.68,1113.17 1742.5,1113.5 Z"/></g>
<g><path style="opacity:1" fill="#2177e9" d="M 1722.5,1113.5 C 1725.82,1118.81 1729.16,1124.14 1732.5,1129.5C 1735.86,1124.1 1739.19,1118.77 1742.5,1113.5C 1750.68,1113.17 1758.68,1113.51 1766.5,1114.5C 1760.19,1124.48 1753.86,1134.48 1747.5,1144.5C 1754.62,1155.25 1761.62,1166.08 1768.5,1177C 1759.81,1177.83 1751.15,1177.67 1742.5,1176.5C 1739.25,1170.34 1735.75,1164.34 1732,1158.5C 1728.63,1164.75 1725.13,1170.91 1721.5,1177C 1713.15,1177.83 1704.81,1177.67 1696.5,1176.5C 1703.6,1166.08 1710.27,1155.41 1716.5,1144.5C 1710.5,1134.51 1704.5,1124.51 1698.5,1114.5C 1706.32,1113.51 1714.32,1113.17 1722.5,1113.5 Z"/></g>
</svg>
