<?xml version="1.0" encoding="UTF-8"?>
<!DOCTYPE svg PUBLIC "-//W3C//DTD SVG 1.1//EN" "http://www.w3.org/Graphics/SVG/1.1/DTD/svg11.dtd">
<svg xmlns="http://www.w3.org/2000/svg" version="1.1" width="666px" height="670px" style="shape-rendering:geometricPrecision; text-rendering:geometricPrecision; image-rendering:optimizeQuality; fill-rule:evenodd; clip-rule:evenodd" xmlns:xlink="http://www.w3.org/1999/xlink">
<g><path style="opacity:1" fill="#fefefe" d="M -0.5,-0.5 C 221.5,-0.5 443.5,-0.5 665.5,-0.5C 665.5,222.833 665.5,446.167 665.5,669.5C 443.5,669.5 221.5,669.5 -0.5,669.5C -0.5,446.167 -0.5,222.833 -0.5,-0.5 Z"/></g>
<g><path style="opacity:1" fill="#301e24" d="M 610.5,50.5 C 609.432,51.4345 608.099,51.7678 606.5,51.5C 593.869,38.3682 581.035,25.3682 568,12.5C 554.965,25.3682 542.131,38.3682 529.5,51.5C 529.167,51.5 528.833,51.5 528.5,51.5C 527.209,51.7373 526.209,51.404 525.5,50.5C 539.173,35.9937 553.34,21.9937 568,8.5C 581.959,22.6256 596.126,36.6256 610.5,50.5 Z"/></g>
<g><path style="opacity:1" fill="#fefefe" d="M 606.5,51.5 C 580.833,51.5 555.167,51.5 529.5,51.5C 542.131,38.3682 554.965,25.3682 568,12.5C 581.035,25.3682 593.869,38.3682 606.5,51.5 Z"/></g>
<g><path style="opacity:1" fill="#dd4d7c" d="M 525.5,50.5 C 526.209,51.404 527.209,51.7373 528.5,51.5C 568.663,52.4986 608.997,52.8319 649.5,52.5C 649.5,106.833 649.5,161.167 649.5,215.5C 597.167,215.5 544.833,215.5 492.5,215.5C 490.5,215.5 488.5,215.5 486.5,215.5C 486.5,161.167 486.5,106.833 486.5,52.5C 499.011,52.8286 511.345,52.4952 523.5,51.5C 524.167,51.1667 524.833,50.8333 525.5,50.5 Z"/></g>
<g><path style="opacity:1" fill="#c9b1b9" d="M 650.5,59.5 C 651.29,60.6085 651.79,61.9419 652,63.5C 652.167,72.8333 652.333,82.1667 652.5,91.5C 652.483,133.184 652.15,174.851 651.5,216.5C 598.5,216.5 545.5,216.5 492.5,216.5C 492.5,216.167 492.5,215.833 492.5,215.5C 544.833,215.5 597.167,215.5 649.5,215.5C 650.499,163.669 650.832,111.669 650.5,59.5 Z"/></g>
<g><path style="opacity:1" fill="#c4b9bd" d="M 650.5,59.5 C 650.5,59.1667 650.5,58.8333 650.5,58.5C 652.5,58.5 654.5,58.5 656.5,58.5C 656.5,113.167 656.5,167.833 656.5,222.5C 601.833,222.5 547.167,222.5 492.5,222.5C 492.5,220.5 492.5,218.5 492.5,216.5C 545.5,216.5 598.5,216.5 651.5,216.5C 652.15,174.851 652.483,133.184 652.5,91.5C 652.333,82.1667 652.167,72.8333 652,63.5C 651.79,61.9419 651.29,60.6085 650.5,59.5 Z"/></g>
<g><path style="opacity:1" fill="#cdfdf8" d="M 294.5,68.5 C 296.175,71.5072 296.841,74.8405 296.5,78.5C 300.997,77.5425 305.33,77.5425 309.5,78.5C 304.507,78.9157 299.507,79.2491 294.5,79.5C 294.5,75.8333 294.5,72.1667 294.5,68.5 Z"/></g>
<g><path style="opacity:1" fill="#33f6cc" d="M 294.5,68.5 C 294.5,72.1667 294.5,75.8333 294.5,79.5C 299.507,79.2491 304.507,78.9157 309.5,78.5C 311.075,80.8859 312.075,83.5525 312.5,86.5C 312.01,92.8416 311.343,99.1749 310.5,105.5C 302.048,107.915 293.381,108.915 284.5,108.5C 282.76,102.359 281.26,96.0253 280,89.5C 279.333,86.8333 279.333,84.1667 280,81.5C 283.167,77.1667 286.333,72.8333 289.5,68.5C 291.299,67.2121 292.965,67.2121 294.5,68.5 Z"/></g>
<g><path style="opacity:1" fill="#fccade" d="M 620.5,80.5 C 620.5,80.8333 620.5,81.1667 620.5,81.5C 585.5,81.5 550.5,81.5 515.5,81.5C 515.5,95.5 515.5,109.5 515.5,123.5C 515.167,123.5 514.833,123.5 514.5,123.5C 514.5,109.167 514.5,94.8333 514.5,80.5C 549.833,80.5 585.167,80.5 620.5,80.5 Z"/></g>
<g><path style="opacity:1" fill="#fcfefe" d="M 620.5,81.5 C 620.5,116.5 620.5,151.5 620.5,186.5C 609.167,186.5 597.833,186.5 586.5,186.5C 586.622,181.768 586.122,177.102 585,172.5C 584.576,169.975 583.41,167.975 581.5,166.5C 579.5,163.006 576.5,160.84 572.5,160C 566.645,158.412 560.812,158.245 555,159.5C 556.097,154.526 557.43,149.526 559,144.5C 559.667,139.5 559.667,134.5 559,129.5C 558.722,128.584 558.222,127.918 557.5,127.5C 555.19,122.493 551.19,119.66 545.5,119C 534.955,117.302 524.955,118.802 515.5,123.5C 515.5,109.5 515.5,95.5 515.5,81.5C 550.5,81.5 585.5,81.5 620.5,81.5 Z"/></g>
<g><path style="opacity:1" fill="#e6a5bd" d="M 620.5,80.5 C 621.498,115.996 621.832,151.663 621.5,187.5C 609.5,187.5 597.5,187.5 585.5,187.5C 585.5,187.167 585.5,186.833 585.5,186.5C 585.833,186.5 586.167,186.5 586.5,186.5C 597.833,186.5 609.167,186.5 620.5,186.5C 620.5,151.5 620.5,116.5 620.5,81.5C 620.5,81.1667 620.5,80.8333 620.5,80.5 Z"/></g>
<g><path style="opacity:1" fill="#d6fefa" d="M 274.5,81.5 C 270.259,81.1846 266.426,82.1846 263,84.5C 263.317,94.2553 264.483,103.922 266.5,113.5C 265.883,113.389 265.383,113.056 265,112.5C 262.733,102.958 261.733,93.2917 262,83.5C 262.374,82.5838 262.874,81.7504 263.5,81C 267.358,80.1901 271.024,80.3567 274.5,81.5 Z"/></g>
<g><path style="opacity:1" fill="#1b1a1a" d="M 145.5,113.5 C 145.44,117.514 143.773,120.681 140.5,123C 136.049,123.846 131.716,125.013 127.5,126.5C 132.513,137.104 131.013,146.77 123,155.5C 115.574,148.358 106.741,145.192 96.5,146C 92.4099,148.513 90.4099,152.179 90.5,157C 91.8149,168.475 97.8149,176.308 108.5,180.5C 108.5,181.5 108.5,182.5 108.5,183.5C 108.5,188.833 108.5,194.167 108.5,199.5C 108.029,201.579 107.363,203.579 106.5,205.5C 104.986,206.68 103.319,207.68 101.5,208.5C 101.833,209.167 102.167,209.833 102.5,210.5C 101.05,211.85 100.383,213.516 100.5,215.5C 98.8561,215.714 97.3561,215.38 96,214.5C 95.5078,215.549 95.6744,216.549 96.5,217.5C 93.7879,219.523 90.7879,221.023 87.5,222C 80.4718,222.675 73.4718,222.508 66.5,221.5C 63.3559,220.567 60.6892,218.9 58.5,216.5C 48.0255,202.305 49.6922,189.472 63.5,178C 67.1762,176.353 70.1762,174.019 72.5,171C 70.2665,158.865 68.2665,146.698 66.5,134.5C 67.323,113.17 78.323,100.67 99.5,97C 113.614,94.4885 126.614,97.1552 138.5,105C 141.423,107.416 143.757,110.25 145.5,113.5 Z"/></g>
<g><path style="opacity:1" fill="#2ea4f2" d="M 584.5,100.5 C 598.51,99.667 604.01,106 601,119.5C 593.676,128.459 586.009,128.792 578,120.5C 574.406,111.788 576.573,105.121 584.5,100.5 Z"/></g>
<g><path style="opacity:1" fill="#3cf5cc" d="M 274.5,81.5 C 276.807,87.1678 278.307,93.1678 279,99.5C 279.499,103.821 279.666,108.154 279.5,112.5C 275.176,112.927 270.842,113.261 266.5,113.5C 264.483,103.922 263.317,94.2553 263,84.5C 266.426,82.1846 270.259,81.1846 274.5,81.5 Z"/></g>
<g><path style="opacity:1" fill="#d1fef8" d="M 312.5,86.5 C 313.161,88.134 313.494,89.9674 313.5,92C 313.033,97.1698 312.533,102.337 312,107.5C 311.086,106.346 310.253,106.513 309.5,108C 301.025,109.474 292.692,109.641 284.5,108.5C 293.381,108.915 302.048,107.915 310.5,105.5C 311.343,99.1749 312.01,92.8416 312.5,86.5 Z"/></g>
<g><path style="opacity:1" fill="#25a3f5" d="M 557.5,127.5 C 558.222,127.918 558.722,128.584 559,129.5C 559.667,134.5 559.667,139.5 559,144.5C 557.43,149.526 556.097,154.526 555,159.5C 560.812,158.245 566.645,158.412 572.5,160C 576.5,160.84 579.5,163.006 581.5,166.5C 582.32,168.812 583.153,171.146 584,173.5C 584.093,177.248 584.26,180.914 584.5,184.5C 561.843,185.5 539.176,185.833 516.5,185.5C 516.333,166.164 516.5,146.83 517,127.5C 517.832,148.823 518.332,148.823 518.5,127.5C 521.797,127.671 522.131,127.005 519.5,125.5C 521.169,124.329 522.669,122.996 524,121.5C 533.729,118.506 543.229,119.006 552.5,123C 554.037,124.707 555.704,126.207 557.5,127.5 Z"/></g>
<g><path style="opacity:1" fill="#e7b1c3" d="M 523.5,51.5 C 511.345,52.4952 499.011,52.8286 486.5,52.5C 486.5,106.833 486.5,161.167 486.5,215.5C 485.501,161.003 485.168,106.336 485.5,51.5C 498.167,51.5 510.833,51.5 523.5,51.5 Z"/></g>
<g><path style="opacity:1" fill="#cf90a5" d="M 610.5,50.5 C 623.754,51.4808 637.087,51.8142 650.5,51.5C 650.5,53.8333 650.5,56.1667 650.5,58.5C 650.5,58.8333 650.5,59.1667 650.5,59.5C 650.832,111.669 650.499,163.669 649.5,215.5C 649.5,161.167 649.5,106.833 649.5,52.5C 608.997,52.8319 568.663,52.4986 528.5,51.5C 528.833,51.5 529.167,51.5 529.5,51.5C 555.167,51.5 580.833,51.5 606.5,51.5C 608.099,51.7678 609.432,51.4345 610.5,50.5 Z"/></g>
<g><path style="opacity:1" fill="#f49e77" d="M 145.5,113.5 C 150.194,121.572 153.527,130.238 155.5,139.5C 159.776,139.302 162.776,141.136 164.5,145C 163.284,147.93 161.951,150.763 160.5,153.5C 166.172,165.23 165.672,176.563 159,187.5C 151.119,193.739 142.286,195.739 132.5,193.5C 132.586,192.504 132.252,191.671 131.5,191C 128.61,189.971 125.776,188.805 123,187.5C 122.235,187.57 121.735,187.903 121.5,188.5C 120.853,189.274 120.52,190.274 120.5,191.5C 120.886,193.932 121.553,196.266 122.5,198.5C 118.167,198.5 113.833,198.5 109.5,198.5C 109.821,193.305 109.487,188.305 108.5,183.5C 108.5,182.5 108.5,181.5 108.5,180.5C 97.8149,176.308 91.8149,168.475 90.5,157C 90.4099,152.179 92.4099,148.513 96.5,146C 106.741,145.192 115.574,148.358 123,155.5C 131.013,146.77 132.513,137.104 127.5,126.5C 131.716,125.013 136.049,123.846 140.5,123C 143.773,120.681 145.44,117.514 145.5,113.5 Z"/></g>
<g><path style="opacity:1" fill="#4b2718" d="M 143.5,140.5 C 144.833,140.5 146.167,140.5 147.5,140.5C 147.5,141.833 147.5,143.167 147.5,144.5C 146.167,144.5 144.833,144.5 143.5,144.5C 143.5,143.167 143.5,141.833 143.5,140.5 Z"/></g>
<g><path style="opacity:1" fill="#814b31" d="M 142.5,154.5 C 145.084,154.569 147.084,155.735 148.5,158C 150.74,158.977 153.073,159.477 155.5,159.5C 155.5,160.5 155.5,161.5 155.5,162.5C 149.296,162.578 144.963,159.911 142.5,154.5 Z"/></g>
<g><path style="opacity:1" fill="#834c32" d="M 104.5,161.5 C 107.879,161.853 110.879,163.187 113.5,165.5C 114.833,166.833 114.833,168.167 113.5,169.5C 111.167,168 108.833,166.5 106.5,165C 105.177,164.184 104.511,163.017 104.5,161.5 Z"/></g>
<g><path style="opacity:1" fill="#489be0" d="M 557.5,127.5 C 555.704,126.207 554.037,124.707 552.5,123C 543.229,119.006 533.729,118.506 524,121.5C 522.669,122.996 521.169,124.329 519.5,125.5C 522.131,127.005 521.797,127.671 518.5,127.5C 518.332,148.823 517.832,148.823 517,127.5C 516.5,146.83 516.333,166.164 516.5,185.5C 539.176,185.833 561.843,185.5 584.5,184.5C 584.26,180.914 584.093,177.248 584,173.5C 583.153,171.146 582.32,168.812 581.5,166.5C 583.41,167.975 584.576,169.975 585,172.5C 586.122,177.102 586.622,181.768 586.5,186.5C 586.167,186.5 585.833,186.5 585.5,186.5C 562.167,186.5 538.833,186.5 515.5,186.5C 515.5,165.5 515.5,144.5 515.5,123.5C 524.955,118.802 534.955,117.302 545.5,119C 551.19,119.66 555.19,122.493 557.5,127.5 Z"/></g>
<g><path style="opacity:1" fill="#9d99d1" d="M 514.5,123.5 C 514.833,123.5 515.167,123.5 515.5,123.5C 515.5,144.5 515.5,165.5 515.5,186.5C 538.833,186.5 562.167,186.5 585.5,186.5C 585.5,186.833 585.5,187.167 585.5,187.5C 561.833,187.5 538.167,187.5 514.5,187.5C 514.5,166.167 514.5,144.833 514.5,123.5 Z"/></g>
<g><path style="opacity:1" fill="#7e4c32" d="M 132.5,193.5 C 132.5,193.833 132.5,194.167 132.5,194.5C 132.167,194.5 131.833,194.5 131.5,194.5C 128.559,193.18 125.559,191.847 122.5,190.5C 121.702,190.043 121.369,189.376 121.5,188.5C 121.735,187.903 122.235,187.57 123,187.5C 125.776,188.805 128.61,189.971 131.5,191C 132.252,191.671 132.586,192.504 132.5,193.5 Z"/></g>
<g><path style="opacity:1" fill="#4df0cc" d="M 316.5,177.5 C 315.261,209.741 315.261,242.074 316.5,274.5C 319.167,274.5 321.833,274.5 324.5,274.5C 324.5,275.167 324.5,275.833 324.5,276.5C 320.833,276.5 317.167,276.5 313.5,276.5C 313.5,243.5 313.5,210.5 313.5,177.5C 314.5,177.5 315.5,177.5 316.5,177.5 Z"/></g>
<g><path style="opacity:1" fill="#404040" d="M 297.5,270.5 C 266.167,270.5 234.833,270.5 203.5,270.5C 201.339,267.511 199.672,264.178 198.5,260.5C 198.5,238.167 198.5,215.833 198.5,193.5C 231.5,193.5 264.5,193.5 297.5,193.5C 297.5,219.167 297.5,244.833 297.5,270.5 Z"/></g>
<g><path style="opacity:1" fill="#cb8562" d="M 121.5,188.5 C 121.369,189.376 121.702,190.043 122.5,190.5C 125.559,191.847 128.559,193.18 131.5,194.5C 131.5,195.833 131.5,197.167 131.5,198.5C 128.5,198.5 125.5,198.5 122.5,198.5C 121.553,196.266 120.886,193.932 120.5,191.5C 120.52,190.274 120.853,189.274 121.5,188.5 Z"/></g>
<g><path style="opacity:1" fill="#af8f83" d="M 108.5,183.5 C 109.487,188.305 109.821,193.305 109.5,198.5C 113.833,198.5 118.167,198.5 122.5,198.5C 125.5,198.5 128.5,198.5 131.5,198.5C 131.5,197.167 131.5,195.833 131.5,194.5C 131.833,194.5 132.167,194.5 132.5,194.5C 132.5,196.167 132.5,197.833 132.5,199.5C 124.5,199.5 116.5,199.5 108.5,199.5C 108.5,194.167 108.5,188.833 108.5,183.5 Z"/></g>
<g><path style="opacity:1" fill="#b0b1b1" d="M 297.5,270.5 C 297.5,244.833 297.5,219.167 297.5,193.5C 264.5,193.5 231.5,193.5 198.5,193.5C 198.5,215.833 198.5,238.167 198.5,260.5C 197.662,260.158 197.328,259.492 197.5,258.5C 197.5,236.5 197.5,214.5 197.5,192.5C 231.167,192.5 264.833,192.5 298.5,192.5C 298.831,218.672 298.498,244.672 297.5,270.5 Z"/></g>
<g><path style="opacity:1" fill="#2cf0c5" d="M 316.5,177.5 C 319.167,177.5 321.833,177.5 324.5,177.5C 324.5,182.167 324.5,186.833 324.5,191.5C 323.167,218.167 323.167,244.833 324.5,271.5C 324.5,272.5 324.5,273.5 324.5,274.5C 321.833,274.5 319.167,274.5 316.5,274.5C 315.261,242.074 315.261,209.741 316.5,177.5 Z"/></g>
<g><path style="opacity:1" fill="#2cf7cc" d="M 329.5,195.5 C 338.617,197.761 347.617,200.428 356.5,203.5C 357.5,222.488 357.833,241.488 357.5,260.5C 350.755,261.853 344.089,263.52 337.5,265.5C 334.61,242.167 331.943,218.833 329.5,195.5 Z"/></g>
<g><path style="opacity:1" fill="#25a3f5" d="M 108.5,199.5 C 116.5,199.5 124.5,199.5 132.5,199.5C 134.124,199.36 135.29,200.027 136,201.5C 136.497,203.81 136.663,206.143 136.5,208.5C 133.167,208.5 129.833,208.5 126.5,208.5C 126.5,209.5 126.5,210.5 126.5,211.5C 130.702,211.817 134.702,211.483 138.5,210.5C 158.553,213.435 174.387,223.102 186,239.5C 189.859,245.897 193.692,252.23 197.5,258.5C 197.328,259.492 197.662,260.158 198.5,260.5C 199.672,264.178 201.339,267.511 203.5,270.5C 205.438,274.043 207.105,277.71 208.5,281.5C 206.275,287.957 204.942,294.623 204.5,301.5C 205.531,302.249 206.698,302.915 208,303.5C 209.811,299.024 210.811,294.357 211,289.5C 211.333,289.833 211.667,290.167 212,290.5C 212.497,288.19 212.663,285.857 212.5,283.5C 226.5,282.167 240.5,280.833 254.5,279.5C 255.059,287.745 256.393,295.745 258.5,303.5C 259.414,312.48 260.081,321.48 260.5,330.5C 249.336,336.221 237.669,340.554 225.5,343.5C 214.822,344.701 204.155,344.701 193.5,343.5C 181.452,339.633 171.118,332.967 162.5,323.5C 162.649,322.448 162.483,321.448 162,320.5C 156.947,314.448 152.281,308.115 148,301.5C 146.743,299.254 144.91,297.921 142.5,297.5C 140.801,297.34 139.134,297.506 137.5,298C 136.903,299.062 136.57,300.228 136.5,301.5C 138.37,307.109 140.036,312.776 141.5,318.5C 140.167,318.5 138.833,318.5 137.5,318.5C 110.878,317.518 84.2111,317.184 57.5,317.5C 57.1667,317.5 56.8333,317.5 56.5,317.5C 56.5,314.833 56.5,312.167 56.5,309.5C 55.3049,298.817 54.8049,288.15 55,277.5C 52.6062,278.136 50.1062,278.136 47.5,277.5C 47.3528,289.367 49.0195,300.7 52.5,311.5C 53.4614,313.265 53.7947,315.265 53.5,317.5C 35.0246,316.44 20.3579,323.44 9.5,338.5C 8.2698,327.526 9.10314,316.526 12,305.5C 18.1559,279.2 28.1559,254.534 42,231.5C 46.8286,225.685 52.3286,220.685 58.5,216.5C 60.6892,218.9 63.3559,220.567 66.5,221.5C 80.0861,227.066 92.2527,224.733 103,214.5C 105.05,211.852 106.216,208.852 106.5,205.5C 107.363,203.579 108.029,201.579 108.5,199.5 Z"/></g>
<g><path style="opacity:1" fill="#dedede" d="M 211.5,206.5 C 224.167,206.5 236.833,206.5 249.5,206.5C 249.5,207.833 249.5,209.167 249.5,210.5C 236.829,210.667 224.162,210.5 211.5,210C 210.316,208.855 210.316,207.688 211.5,206.5 Z"/></g>
<g><path style="opacity:1" fill="#062238" d="M 136.5,208.5 C 137.5,208.833 138.167,209.5 138.5,210.5C 134.702,211.483 130.702,211.817 126.5,211.5C 126.5,210.5 126.5,209.5 126.5,208.5C 129.833,208.5 133.167,208.5 136.5,208.5 Z"/></g>
<g><path style="opacity:1" fill="#f9f9f9" d="M 210.5,217.5 C 217.167,217.5 223.833,217.5 230.5,217.5C 230.5,218.5 230.5,219.5 230.5,220.5C 223.833,220.5 217.167,220.5 210.5,220.5C 210.5,219.5 210.5,218.5 210.5,217.5 Z"/></g>
<g><path style="opacity:1" fill="#010f08" d="M 324.5,191.5 C 325.906,191.973 326.573,192.973 326.5,194.5C 326.5,219.5 326.5,244.5 326.5,269.5C 326.5,270.833 325.833,271.5 324.5,271.5C 323.167,244.833 323.167,218.167 324.5,191.5 Z"/></g>
<g><path style="opacity:1" fill="#0e273a" d="M 106.5,205.5 C 106.216,208.852 105.05,211.852 103,214.5C 92.2527,224.733 80.0861,227.066 66.5,221.5C 73.4718,222.508 80.4718,222.675 87.5,222C 90.7879,221.023 93.7879,219.523 96.5,217.5C 95.6744,216.549 95.5078,215.549 96,214.5C 97.3561,215.38 98.8561,215.714 100.5,215.5C 100.383,213.516 101.05,211.85 102.5,210.5C 102.167,209.833 101.833,209.167 101.5,208.5C 103.319,207.68 104.986,206.68 106.5,205.5 Z"/></g>
<g><path style="opacity:1" fill="#08090b" d="M 429.5,231.5 C 429.245,234.016 428.411,236.35 427,238.5C 418.889,252.393 411.056,266.393 403.5,280.5C 401.15,283.349 399.15,286.515 397.5,290C 401.356,290.177 405.023,290.677 408.5,291.5C 403.36,297.883 396.693,300.05 388.5,298C 385.117,296.314 382.117,294.147 379.5,291.5C 382.689,290.834 386.023,290.167 389.5,289.5C 388.82,288.14 388.153,286.807 387.5,285.5C 380.01,271.521 373.343,257.187 367.5,242.5C 367.56,241.957 367.893,241.624 368.5,241.5C 369.518,242.193 370.518,242.859 371.5,243.5C 377.668,257.832 384.334,271.832 391.5,285.5C 391.795,287.423 392.628,289.09 394,290.5C 395.86,286.78 397.693,283.114 399.5,279.5C 408.738,264.032 417.738,248.365 426.5,232.5C 427.221,230.618 428.221,230.285 429.5,231.5 Z"/></g>
<g><path style="opacity:1" fill="#f9f9f9" d="M 210.5,233.5 C 220.5,233.5 230.5,233.5 240.5,233.5C 240.5,234.5 240.5,235.5 240.5,236.5C 230.5,236.5 220.5,236.5 210.5,236.5C 210.5,235.5 210.5,234.5 210.5,233.5 Z"/></g>
<g><path style="opacity:1" fill="#22ae90" d="M 326.5,194.5 C 327.791,194.263 328.791,194.596 329.5,195.5C 331.943,218.833 334.61,242.167 337.5,265.5C 334.045,267.209 330.379,268.542 326.5,269.5C 326.5,244.5 326.5,219.5 326.5,194.5 Z"/></g>
<g><path style="opacity:1" fill="#383838" d="M 429.5,231.5 C 430.85,241.673 428.516,251.173 422.5,260C 428.643,258.212 434.976,256.546 441.5,255C 445.358,254.19 449.024,254.357 452.5,255.5C 440.969,259.735 429.303,263.901 417.5,268C 416.833,269 416.167,270 415.5,271C 428.407,267.089 441.407,263.256 454.5,259.5C 453.375,261.129 452.041,262.629 450.5,264C 438.161,271.269 424.827,275.269 410.5,276C 408.789,278.519 406.455,280.019 403.5,280.5C 411.056,266.393 418.889,252.393 427,238.5C 428.411,236.35 429.245,234.016 429.5,231.5 Z"/></g>
<g><path style="opacity:1" fill="#444444" d="M 371.5,243.5 C 384.057,254.617 390.724,268.617 391.5,285.5C 384.334,271.832 377.668,257.832 371.5,243.5 Z"/></g>
<g><path style="opacity:1" fill="#080808" d="M 452.5,255.5 C 453.833,255.5 455.167,255.5 456.5,255.5C 456.771,257.38 456.104,258.713 454.5,259.5C 441.407,263.256 428.407,267.089 415.5,271C 416.167,270 416.833,269 417.5,268C 429.303,263.901 440.969,259.735 452.5,255.5 Z"/></g>
<g><path style="opacity:1" fill="#373737" d="M 367.5,242.5 C 373.343,257.187 380.01,271.521 387.5,285.5C 380.043,281.193 374.876,274.86 372,266.5C 370.136,261.909 368.47,257.243 367,252.5C 366.192,248.973 366.359,245.64 367.5,242.5 Z"/></g>
<g><path style="opacity:1" fill="#424242" d="M 426.5,232.5 C 417.738,248.365 408.738,264.032 399.5,279.5C 400.75,260.501 408.75,245.001 423.5,233C 424.448,232.517 425.448,232.351 426.5,232.5 Z"/></g>
<g><path style="opacity:1" fill="#3399da" d="M 56.5,309.5 C 54.6814,300.363 53.1814,291.03 52,281.5C 51.2904,280.027 50.1238,279.36 48.5,279.5C 50.4855,290.081 51.8188,300.747 52.5,311.5C 49.0195,300.7 47.3528,289.367 47.5,277.5C 50.1062,278.136 52.6062,278.136 55,277.5C 54.8049,288.15 55.3049,298.817 56.5,309.5 Z"/></g>
<g><path style="opacity:1" fill="#f49f76" d="M 313.5,276.5 C 317.167,276.5 320.833,276.5 324.5,276.5C 333.548,276.756 342.548,277.589 351.5,279C 359.452,282.14 359.452,285.474 351.5,289C 345.865,289.904 340.198,290.404 334.5,290.5C 327.155,286.281 319.155,284.281 310.5,284.5C 310.5,285.5 310.5,286.5 310.5,287.5C 313.518,287.335 316.518,287.502 319.5,288C 324.239,289.243 328.906,290.41 333.5,291.5C 333.569,296.616 332.902,301.616 331.5,306.5C 331.532,309.076 330.865,311.409 329.5,313.5C 328.833,314.167 328.167,314.833 327.5,315.5C 320.838,312.571 313.838,311.571 306.5,312.5C 306.709,313.086 307.043,313.586 307.5,314C 314.214,314.977 320.881,316.143 327.5,317.5C 327.799,319.604 327.466,321.604 326.5,323.5C 321.527,328.253 315.527,330.586 308.5,330.5C 307.058,329.18 306.392,327.514 306.5,325.5C 292.846,325.623 279.179,325.623 265.5,325.5C 265.297,323.61 265.963,322.11 267.5,321C 264.067,311.022 261.4,300.855 259.5,290.5C 258.725,286.186 258.059,281.853 257.5,277.5C 276.156,276.722 294.823,276.389 313.5,276.5 Z"/></g>
<g><path style="opacity:1" fill="#082134" d="M 254.5,277.5 C 255.777,278.694 256.444,280.36 256.5,282.5C 257.714,289.451 258.381,296.451 258.5,303.5C 256.393,295.745 255.059,287.745 254.5,279.5C 254.5,279.167 254.5,278.833 254.5,278.5C 254.5,278.167 254.5,277.833 254.5,277.5 Z"/></g>
<g><path style="opacity:1" fill="#062033" d="M 56.5,309.5 C 56.5,312.167 56.5,314.833 56.5,317.5C 55.6522,318.625 54.6522,318.625 53.5,317.5C 53.7947,315.265 53.4614,313.265 52.5,311.5C 51.8188,300.747 50.4855,290.081 48.5,279.5C 50.1238,279.36 51.2904,280.027 52,281.5C 53.1814,291.03 54.6814,300.363 56.5,309.5 Z"/></g>
<g><path style="opacity:1" fill="#071f32" d="M 208.5,281.5 C 209.492,281.328 210.158,281.662 210.5,282.5C 209.656,288.547 208.489,294.547 207,300.5C 206.329,301.252 205.496,301.586 204.5,301.5C 204.942,294.623 206.275,287.957 208.5,281.5 Z"/></g>
<g><path style="opacity:1" fill="#7f4932" d="M 334.5,290.5 C 333.833,290.5 333.5,290.833 333.5,291.5C 328.906,290.41 324.239,289.243 319.5,288C 316.518,287.502 313.518,287.335 310.5,287.5C 310.5,286.5 310.5,285.5 310.5,284.5C 319.155,284.281 327.155,286.281 334.5,290.5 Z"/></g>
<g><path style="opacity:1" fill="#409ad4" d="M 254.5,278.5 C 254.5,278.833 254.5,279.167 254.5,279.5C 240.5,280.833 226.5,282.167 212.5,283.5C 212.663,285.857 212.497,288.19 212,290.5C 211.667,290.167 211.333,289.833 211,289.5C 210.811,294.357 209.811,299.024 208,303.5C 206.698,302.915 205.531,302.249 204.5,301.5C 205.496,301.586 206.329,301.252 207,300.5C 208.489,294.547 209.656,288.547 210.5,282.5C 225.135,280.837 239.802,279.504 254.5,278.5 Z"/></g>
<g><path style="opacity:1" fill="#7f4b31" d="M 308.5,298.5 C 315.729,298.649 322.729,299.983 329.5,302.5C 330.386,303.325 330.719,304.325 330.5,305.5C 323.234,303.78 315.901,302.447 308.5,301.5C 308.5,300.5 308.5,299.5 308.5,298.5 Z"/></g>
<g><path style="opacity:1" fill="#091f2f" d="M 142.5,297.5 C 144.91,297.921 146.743,299.254 148,301.5C 152.281,308.115 156.947,314.448 162,320.5C 162.483,321.448 162.649,322.448 162.5,323.5C 162.167,323.5 161.833,323.5 161.5,323.5C 160.504,323.586 159.671,323.252 159,322.5C 154.719,315.885 150.053,309.552 145,303.5C 143.441,301.783 142.608,299.783 142.5,297.5 Z"/></g>
<g><path style="opacity:1" fill="#0a1727" d="M 383.5,306.5 C 386.518,306.335 389.518,306.502 392.5,307C 392.957,307.414 393.291,307.914 393.5,308.5C 391.833,308.833 390.167,309.167 388.5,309.5C 386.36,309.444 384.694,308.777 383.5,307.5C 383.5,307.167 383.5,306.833 383.5,306.5 Z"/></g>
<g><path style="opacity:1" fill="#2cf8cb" d="M 331.5,306.5 C 340.5,306.5 349.5,306.5 358.5,306.5C 358.5,318.167 358.5,329.833 358.5,341.5C 340.341,342.497 322.008,342.83 303.5,342.5C 302.903,337.706 303.57,333.373 305.5,329.5C 306.167,329.833 306.833,330.167 307.5,330.5C 315.102,332.421 321.935,330.754 328,325.5C 329.156,321.582 329.656,317.582 329.5,313.5C 330.865,311.409 331.532,309.076 331.5,306.5 Z"/></g>
<g><path style="opacity:1" fill="#291e1c" d="M 254.5,277.5 C 255.5,276.167 256.5,276.167 257.5,277.5C 258.059,281.853 258.725,286.186 259.5,290.5C 260.641,303.247 262.308,315.914 264.5,328.5C 264.163,331.336 262.829,332.002 260.5,330.5C 260.081,321.48 259.414,312.48 258.5,303.5C 258.381,296.451 257.714,289.451 256.5,282.5C 256.444,280.36 255.777,278.694 254.5,277.5 Z"/></g>
<g><path style="opacity:1" fill="#25a3f5" d="M 382.5,309.5 C 383.871,310.787 385.705,311.453 388,311.5C 391.238,311.608 394.238,310.941 397,309.5C 399.261,309.865 401.427,310.531 403.5,311.5C 404.192,310.975 404.692,310.308 405,309.5C 406.198,313.214 408.532,314.214 412,312.5C 412.75,313.126 413.584,313.626 414.5,314C 413.062,314.219 411.729,314.719 410.5,315.5C 412.385,316.197 412.718,317.197 411.5,318.5C 412.906,320.026 414.072,321.693 415,323.5C 415.667,329.167 415.667,334.833 415,340.5C 414.5,341 414,341.5 413.5,342C 397.17,342.5 380.837,342.667 364.5,342.5C 358.115,324.944 364.115,313.944 382.5,309.5 Z"/></g>
<g><path style="opacity:1" fill="#7b4930" d="M 327.5,315.5 C 327.5,316.167 327.5,316.833 327.5,317.5C 320.881,316.143 314.214,314.977 307.5,314C 307.043,313.586 306.709,313.086 306.5,312.5C 313.838,311.571 320.838,312.571 327.5,315.5 Z"/></g>
<g><path style="opacity:1" fill="#2578ae" d="M 142.5,297.5 C 142.608,299.783 143.441,301.783 145,303.5C 150.053,309.552 154.719,315.885 159,322.5C 159.671,323.252 160.504,323.586 161.5,323.5C 159.919,325.142 159.253,327.142 159.5,329.5C 154.787,325.475 149.454,322.475 143.5,320.5C 141.5,319.833 139.5,319.167 137.5,318.5C 138.833,318.5 140.167,318.5 141.5,318.5C 140.036,312.776 138.37,307.109 136.5,301.5C 136.57,300.228 136.903,299.062 137.5,298C 139.134,297.506 140.801,297.34 142.5,297.5 Z"/></g>
<g><path style="opacity:1" fill="#2e5874" d="M 57.5,317.5 C 84.2111,317.184 110.878,317.518 137.5,318.5C 139.5,319.167 141.5,319.833 143.5,320.5C 114.494,320.238 85.8272,319.238 57.5,317.5 Z"/></g>
<g><path style="opacity:1" fill="#3f4040" d="M 53.5,317.5 C 54.6522,318.625 55.6522,318.625 56.5,317.5C 56.8333,317.5 57.1667,317.5 57.5,317.5C 85.8272,319.238 114.494,320.238 143.5,320.5C 149.454,322.475 154.787,325.475 159.5,329.5C 163.23,333.281 166.23,337.615 168.5,342.5C 176.807,343.498 185.14,343.831 193.5,343.5C 204.155,344.701 214.822,344.701 225.5,343.5C 251.167,343.5 276.833,343.5 302.5,343.5C 321.5,343.5 340.5,343.5 359.5,343.5C 361.167,343.5 362.833,343.5 364.5,343.5C 384.167,343.5 403.833,343.5 423.5,343.5C 443.832,341.585 460.332,348.585 473,364.5C 482.617,377.18 487.783,391.513 488.5,407.5C 488.5,494.167 488.5,580.833 488.5,667.5C 483.167,667.5 477.833,667.5 472.5,667.5C 472.833,579.332 472.499,491.332 471.5,403.5C 468.653,382.158 456.986,368.325 436.5,362C 392.5,361.833 348.5,361.667 304.5,361.5C 260.162,361.5 216.162,362.167 172.5,363.5C 170.025,379.658 161.358,391.324 146.5,398.5C 143.474,399.174 140.474,400.007 137.5,401C 125.838,401.5 114.171,401.667 102.5,401.5C 102.389,400.883 102.056,400.383 101.5,400C 92.8333,399.333 84.1667,399.333 75.5,400C 74.944,400.383 74.6107,400.883 74.5,401.5C 64.5,401.5 54.5,401.5 44.5,401.5C 19.7097,398.208 6.37636,384.041 4.5,359C 4.64104,355.448 5.14104,351.948 6,348.5C 7.46651,345.242 8.63317,341.908 9.5,338.5C 20.3579,323.44 35.0246,316.44 53.5,317.5 Z"/></g>
<g><path style="opacity:1" fill="#3b98d7" d="M 379.5,291.5 C 382.117,294.147 385.117,296.314 388.5,298C 396.693,300.05 403.36,297.883 408.5,291.5C 407.254,296.651 405.92,301.818 404.5,307C 407.516,309.232 410.849,310.899 414.5,312C 427.4,319.849 430.4,330.349 423.5,343.5C 403.833,343.5 384.167,343.5 364.5,343.5C 364.5,343.167 364.5,342.833 364.5,342.5C 380.837,342.667 397.17,342.5 413.5,342C 414,341.5 414.5,341 415,340.5C 415.667,334.833 415.667,329.167 415,323.5C 414.072,321.693 412.906,320.026 411.5,318.5C 412.718,317.197 412.385,316.197 410.5,315.5C 411.729,314.719 413.062,314.219 414.5,314C 413.584,313.626 412.75,313.126 412,312.5C 408.532,314.214 406.198,313.214 405,309.5C 404.692,310.308 404.192,310.975 403.5,311.5C 401.427,310.531 399.261,309.865 397,309.5C 394.238,310.941 391.238,311.608 388,311.5C 385.705,311.453 383.871,310.787 382.5,309.5C 382.328,308.508 382.662,307.842 383.5,307.5C 384.694,308.777 386.36,309.444 388.5,309.5C 390.167,309.167 391.833,308.833 393.5,308.5C 393.291,307.914 392.957,307.414 392.5,307C 389.518,306.502 386.518,306.335 383.5,306.5C 382.456,301.415 381.122,296.415 379.5,291.5 Z"/></g>
<g><path style="opacity:1" fill="#eaa381" d="M 259.5,290.5 C 261.4,300.855 264.067,311.022 267.5,321C 265.963,322.11 265.297,323.61 265.5,325.5C 279.179,325.623 292.846,325.623 306.5,325.5C 306.392,327.514 307.058,329.18 308.5,330.5C 308.167,330.5 307.833,330.5 307.5,330.5C 306.833,330.167 306.167,329.833 305.5,329.5C 305.179,327.952 304.179,327.285 302.5,327.5C 291.885,329.093 281.385,328.76 271,326.5C 268.774,327.033 266.607,327.7 264.5,328.5C 262.308,315.914 260.641,303.247 259.5,290.5 Z"/></g>
<g><path style="opacity:1" fill="#f2f7f7" d="M 161.5,323.5 C 161.833,323.5 162.167,323.5 162.5,323.5C 171.118,332.967 181.452,339.633 193.5,343.5C 185.14,343.831 176.807,343.498 168.5,342.5C 166.23,337.615 163.23,333.281 159.5,329.5C 159.253,327.142 159.919,325.142 161.5,323.5 Z"/></g>
<g><path style="opacity:1" fill="#78d8ac" d="M 329.5,313.5 C 329.656,317.582 329.156,321.582 328,325.5C 321.935,330.754 315.102,332.421 307.5,330.5C 307.833,330.5 308.167,330.5 308.5,330.5C 315.527,330.586 321.527,328.253 326.5,323.5C 327.466,321.604 327.799,319.604 327.5,317.5C 327.5,316.833 327.5,316.167 327.5,315.5C 328.167,314.833 328.833,314.167 329.5,313.5 Z"/></g>
<g><path style="opacity:1" fill="#f8faf9" d="M 302.5,327.5 C 302.5,332.833 302.5,338.167 302.5,343.5C 276.833,343.5 251.167,343.5 225.5,343.5C 237.669,340.554 249.336,336.221 260.5,330.5C 262.829,332.002 264.163,331.336 264.5,328.5C 266.607,327.7 268.774,327.033 271,326.5C 281.385,328.76 291.885,329.093 302.5,327.5 Z"/></g>
<g><path style="opacity:1" fill="#a1e2d4" d="M 302.5,327.5 C 304.179,327.285 305.179,327.952 305.5,329.5C 303.57,333.373 302.903,337.706 303.5,342.5C 322.008,342.83 340.341,342.497 358.5,341.5C 359.338,341.842 359.672,342.508 359.5,343.5C 340.5,343.5 321.5,343.5 302.5,343.5C 302.5,338.167 302.5,332.833 302.5,327.5 Z"/></g>
<g><path style="opacity:1" fill="#000000" d="M 53.5,358.5 C 76.8333,358.5 100.167,358.5 123.5,358.5C 123.5,359.5 123.5,360.5 123.5,361.5C 100.167,361.5 76.8333,361.5 53.5,361.5C 53.5,360.5 53.5,359.5 53.5,358.5 Z"/></g>
<g><path style="opacity:1" fill="#2bf8cc" d="M 172.5,363.5 C 208.341,370.206 242.674,381.373 275.5,397C 294.127,409.057 306.293,425.89 312,447.5C 319.129,479.313 325.296,511.313 330.5,543.5C 304.75,556.709 278.75,569.375 252.5,581.5C 248.529,564.952 245.196,548.285 242.5,531.5C 242.5,531.167 242.5,530.833 242.5,530.5C 243.139,529.903 243.472,529.07 243.5,528C 241.777,514.553 240.777,501.053 240.5,487.5C 240.5,484.5 240.5,481.5 240.5,478.5C 240.343,477.127 240.51,475.793 241,474.5C 245.846,468.988 250.68,463.488 255.5,458C 255.15,456.743 254.483,456.409 253.5,457C 248.936,461.395 244.602,465.895 240.5,470.5C 194.828,470.833 149.162,470.5 103.5,469.5C 102.345,447.543 102.178,425.543 103,403.5C 111.108,404.815 119.275,404.815 127.5,403.5C 132.833,402.833 138.167,402.167 143.5,401.5C 144.77,400.712 145.77,399.712 146.5,398.5C 161.358,391.324 170.025,379.658 172.5,363.5 Z"/></g>
<g><path style="opacity:1" fill="#0c0e0e" d="M 102.5,401.5 C 102.167,402.5 101.5,403.167 100.5,403.5C 100.167,403.5 99.8333,403.5 99.5,403.5C 92.5,403.5 85.5,403.5 78.5,403.5C 77.8333,403.5 77.1667,403.5 76.5,403.5C 75.5,403.167 74.8333,402.5 74.5,401.5C 74.6107,400.883 74.944,400.383 75.5,400C 84.1667,399.333 92.8333,399.333 101.5,400C 102.056,400.383 102.389,400.883 102.5,401.5 Z"/></g>
<g><path style="opacity:1" fill="#2c2d2d" d="M 78.5,403.5 C 85.5,403.5 92.5,403.5 99.5,403.5C 99.5,408.833 99.5,414.167 99.5,419.5C 92.559,417.246 85.559,415.246 78.5,413.5C 78.5,410.167 78.5,406.833 78.5,403.5 Z"/></g>
<g><path style="opacity:1" fill="#31f6cb" d="M 44.5,401.5 C 54.5,401.5 64.5,401.5 74.5,401.5C 74.8333,402.5 75.5,403.167 76.5,403.5C 76.5,425.833 76.5,448.167 76.5,470.5C 76.1667,470.5 75.8333,470.5 75.5,470.5C 75.1667,470.5 74.8333,470.5 74.5,470.5C 61.4276,464.254 52.2609,454.254 47,440.5C 42.4644,427.675 41.6311,414.675 44.5,401.5 Z"/></g>
<g><path style="opacity:1" fill="#cccccc" d="M 471.5,403.5 C 472.499,491.332 472.833,579.332 472.5,667.5C 477.833,667.5 483.167,667.5 488.5,667.5C 488.5,580.833 488.5,494.167 488.5,407.5C 489.499,494.332 489.833,581.332 489.5,668.5C 483.5,668.5 477.5,668.5 471.5,668.5C 471.5,580.167 471.5,491.833 471.5,403.5 Z"/></g>
<g><path style="opacity:1" fill="#3d403f" d="M 99.5,403.5 C 99.8333,403.5 100.167,403.5 100.5,403.5C 100.5,425.833 100.5,448.167 100.5,470.5C 93.1667,470.5 85.8333,470.5 78.5,470.5C 78.5318,451.708 78.5318,432.708 78.5,413.5C 85.559,415.246 92.559,417.246 99.5,419.5C 99.5,414.167 99.5,408.833 99.5,403.5 Z"/></g>
<g><path style="opacity:1" fill="#254a41" d="M 76.5,403.5 C 77.1667,403.5 77.8333,403.5 78.5,403.5C 78.5,406.833 78.5,410.167 78.5,413.5C 78.5318,432.708 78.5318,451.708 78.5,470.5C 77.8333,470.5 77.1667,470.5 76.5,470.5C 76.5,448.167 76.5,425.833 76.5,403.5 Z"/></g>
<g><path style="opacity:1" fill="#061810" d="M 240.5,478.5 C 238.729,477.134 237.062,475.634 235.5,474C 236.737,473.768 237.737,473.268 238.5,472.5C 239.5,472.167 240.167,471.5 240.5,470.5C 244.602,465.895 248.936,461.395 253.5,457C 254.483,456.409 255.15,456.743 255.5,458C 250.68,463.488 245.846,468.988 241,474.5C 240.51,475.793 240.343,477.127 240.5,478.5 Z"/></g>
<g><path style="opacity:1" fill="#47e6c4" d="M 146.5,398.5 C 145.77,399.712 144.77,400.712 143.5,401.5C 138.167,402.167 132.833,402.833 127.5,403.5C 119.275,404.815 111.108,404.815 103,403.5C 102.178,425.543 102.345,447.543 103.5,469.5C 149.162,470.5 194.828,470.833 240.5,470.5C 240.167,471.5 239.5,472.167 238.5,472.5C 192.778,471.859 147.111,471.192 101.5,470.5C 101.167,470.5 100.833,470.5 100.5,470.5C 100.5,448.167 100.5,425.833 100.5,403.5C 101.5,403.167 102.167,402.5 102.5,401.5C 114.171,401.667 125.838,401.5 137.5,401C 140.474,400.007 143.474,399.174 146.5,398.5 Z"/></g>
<g><path style="opacity:1" fill="#2ef8cc" d="M 593.5,466.5 C 600.216,469.389 604.716,474.389 607,481.5C 611.958,501.657 605.791,517.157 588.5,528C 585.077,529.904 581.41,530.737 577.5,530.5C 577.5,529.833 577.5,529.167 577.5,528.5C 578.966,527.653 579.8,526.32 580,524.5C 580.699,518.511 581.199,512.511 581.5,506.5C 581.405,503.303 582.072,500.303 583.5,497.5C 587.07,487.171 590.403,476.837 593.5,466.5 Z"/></g>
<g><path style="opacity:1" fill="#404241" d="M 74.5,470.5 C 74.8333,470.5 75.1667,470.5 75.5,470.5C 75.5,471.5 75.5,472.5 75.5,473.5C 84.1667,473.5 92.8333,473.5 101.5,473.5C 101.5,472.5 101.5,471.5 101.5,470.5C 147.111,471.192 192.778,471.859 238.5,472.5C 237.737,473.268 236.737,473.768 235.5,474C 237.062,475.634 238.729,477.134 240.5,478.5C 240.5,481.5 240.5,484.5 240.5,487.5C 239.692,489.22 238.692,490.887 237.5,492.5C 236.833,492.833 236.167,493.167 235.5,493.5C 211.686,494.127 188.02,494.794 164.5,495.5C 152.913,494.889 141.58,495.556 130.5,497.5C 130.5,496.5 130.5,495.5 130.5,494.5C 112.659,494.17 94.9921,494.503 77.5,495.5C 55.4975,495.667 33.4975,495.5 11.5,495C 4.45896,490.206 2.95896,484.039 7,476.5C 8.73092,474.383 10.8976,472.883 13.5,472C 34.0041,471.832 54.3375,471.332 74.5,470.5 Z"/></g>
<g><path style="opacity:1" fill="#020303" d="M 75.5,470.5 C 75.8333,470.5 76.1667,470.5 76.5,470.5C 77.1667,470.5 77.8333,470.5 78.5,470.5C 85.8333,470.5 93.1667,470.5 100.5,470.5C 100.833,470.5 101.167,470.5 101.5,470.5C 101.5,471.5 101.5,472.5 101.5,473.5C 92.8333,473.5 84.1667,473.5 75.5,473.5C 75.5,472.5 75.5,471.5 75.5,470.5 Z"/></g>
<g><path style="opacity:1" fill="#2ef7cb" d="M 588.5,464.5 C 581.708,486.044 577.041,508.044 574.5,530.5C 562.078,527.386 554.911,519.386 553,506.5C 551.514,487.334 559.348,473.501 576.5,465C 580.486,464.501 584.486,464.334 588.5,464.5 Z"/></g>
<g><path style="opacity:1" fill="#3ed9b7" d="M 591.5,465.5 C 592.492,465.328 593.158,465.662 593.5,466.5C 590.403,476.837 587.07,487.171 583.5,497.5C 585.532,486.672 588.199,476.005 591.5,465.5 Z"/></g>
<g><path style="opacity:1" fill="#010101" d="M 130.5,497.5 C 130.167,497.5 129.833,497.5 129.5,497.5C 112.5,497.5 95.5,497.5 78.5,497.5C 77.6618,497.158 77.3284,496.492 77.5,495.5C 94.9921,494.503 112.659,494.17 130.5,494.5C 130.5,495.5 130.5,496.5 130.5,497.5 Z"/></g>
<g><path style="opacity:1" fill="#2b4944" d="M 235.5,493.5 C 235.082,494.222 234.416,494.722 233.5,495C 210.502,495.5 187.502,495.667 164.5,495.5C 188.02,494.794 211.686,494.127 235.5,493.5 Z"/></g>
<g><path style="opacity:1" fill="#071812" d="M 240.5,487.5 C 240.777,501.053 241.777,514.553 243.5,528C 243.472,529.07 243.139,529.903 242.5,530.5C 241.252,529.666 240.585,528.333 240.5,526.5C 238.838,515.222 237.838,503.889 237.5,492.5C 238.692,490.887 239.692,489.22 240.5,487.5 Z"/></g>
<g><path style="opacity:1" fill="#fcfcfc" d="M 164.5,495.5 C 162.833,499.5 161.167,503.5 159.5,507.5C 151.575,529.461 144.908,551.795 139.5,574.5C 138.375,575.348 138.375,576.348 139.5,577.5C 137.779,586.105 136.446,594.772 135.5,603.5C 144.967,603.889 153.967,605.889 162.5,609.5C 151.833,609.5 141.167,609.5 130.5,609.5C 130.818,604.968 130.485,600.634 129.5,596.5C 127.335,590.573 123.002,587.907 116.5,588.5C 116.5,571.167 116.5,553.833 116.5,536.5C 116.5,530.833 116.5,525.167 116.5,519.5C 120.986,520.006 124.819,518.672 128,515.5C 129.361,509.593 129.861,503.593 129.5,497.5C 129.833,497.5 130.167,497.5 130.5,497.5C 141.58,495.556 152.913,494.889 164.5,495.5 Z"/></g>
<g><path style="opacity:1" fill="#414141" d="M 78.5,497.5 C 95.5,497.5 112.5,497.5 129.5,497.5C 129.861,503.593 129.361,509.593 128,515.5C 124.819,518.672 120.986,520.006 116.5,519.5C 108.5,519.5 100.5,519.5 92.5,519.5C 85.7687,520.552 81.2687,517.886 79,511.5C 78.5008,506.845 78.3342,502.179 78.5,497.5 Z"/></g>
<g><path style="opacity:1" fill="#1eac8e" d="M 237.5,492.5 C 237.838,503.889 238.838,515.222 240.5,526.5C 240.585,528.333 241.252,529.666 242.5,530.5C 242.5,530.833 242.5,531.167 242.5,531.5C 241.503,531.47 240.836,531.97 240.5,533C 237.962,541.457 234.962,549.624 231.5,557.5C 222.833,544.984 213.166,533.151 202.5,522C 189.494,513.329 175.16,508.496 159.5,507.5C 161.167,503.5 162.833,499.5 164.5,495.5C 187.502,495.667 210.502,495.5 233.5,495C 234.416,494.722 235.082,494.222 235.5,493.5C 236.167,493.167 236.833,492.833 237.5,492.5 Z"/></g>
<g><path style="opacity:1" fill="#2cf6ca" d="M 159.5,507.5 C 175.16,508.496 189.494,513.329 202.5,522C 213.166,533.151 222.833,544.984 231.5,557.5C 229.635,563.097 227.968,568.764 226.5,574.5C 197.5,574.5 168.5,574.5 139.5,574.5C 144.908,551.795 151.575,529.461 159.5,507.5 Z"/></g>
<g><path style="opacity:1" fill="#2d2d2d" d="M 92.5,519.5 C 100.5,519.5 108.5,519.5 116.5,519.5C 116.5,525.167 116.5,530.833 116.5,536.5C 108.355,534.562 100.355,532.228 92.5,529.5C 92.5,526.167 92.5,522.833 92.5,519.5 Z"/></g>
<g><path style="opacity:1" fill="#3ec4a4" d="M 581.5,506.5 C 581.199,512.511 580.699,518.511 580,524.5C 579.8,526.32 578.966,527.653 577.5,528.5C 578.637,521.003 579.97,513.669 581.5,506.5 Z"/></g>
<g><path style="opacity:1" fill="#2ff7cb" d="M 558.5,540.5 C 537.842,539.414 518.842,544.414 501.5,555.5C 501.098,539.817 508.432,529.651 523.5,525C 536.319,521.791 547.152,524.958 556,534.5C 557.122,536.407 557.955,538.407 558.5,540.5 Z"/></g>
<g><path style="opacity:1" fill="#404040" d="M 92.5,529.5 C 100.355,532.228 108.355,534.562 116.5,536.5C 116.5,553.833 116.5,571.167 116.5,588.5C 123.002,587.907 127.335,590.573 129.5,596.5C 129.5,601.167 129.5,605.833 129.5,610.5C 142.167,610.5 154.833,610.5 167.5,610.5C 169.426,611.486 171.426,612.486 173.5,613.5C 176.061,617.739 177.061,622.406 176.5,627.5C 175.5,627.5 174.5,627.5 173.5,627.5C 173.665,624.482 173.498,621.482 173,618.5C 171.891,616.185 170.057,614.685 167.5,614C 148.836,613.5 130.17,613.333 111.5,613.5C 111.5,618.5 111.5,623.5 111.5,628.5C 106.18,627.225 100.847,627.225 95.5,628.5C 95.5,623.5 95.5,618.5 95.5,613.5C 77.4969,613.333 59.4969,613.5 41.5,614C 39.1523,614.346 37.3189,615.513 36,617.5C 35.5017,620.817 35.335,624.15 35.5,627.5C 34.1667,627.5 32.8333,627.5 31.5,627.5C 30.0391,618.327 33.7058,612.66 42.5,610.5C 54.8333,610.5 67.1667,610.5 79.5,610.5C 79.5,605.5 79.5,600.5 79.5,595.5C 81.9215,589.787 86.2549,587.454 92.5,588.5C 92.5,568.833 92.5,549.167 92.5,529.5 Z"/></g>
<g><path style="opacity:1" fill="#101a16" d="M 588.5,464.5 C 589.791,464.263 590.791,464.596 591.5,465.5C 588.199,476.005 585.532,486.672 583.5,497.5C 582.072,500.303 581.405,503.303 581.5,506.5C 579.97,513.669 578.637,521.003 577.5,528.5C 577.5,529.167 577.5,529.833 577.5,530.5C 576.937,537.195 576.103,543.861 575,550.5C 574.169,557.192 574.336,563.858 575.5,570.5C 580.362,567.237 585.362,564.237 590.5,561.5C 606.032,554.521 622.366,550.188 639.5,548.5C 640.625,549.348 640.625,550.348 639.5,551.5C 638.5,551.5 637.5,551.5 636.5,551.5C 622.501,553.159 609.168,556.825 596.5,562.5C 594.847,562.66 593.514,563.326 592.5,564.5C 585.453,567.109 579.286,571.109 574,576.5C 573.501,581.823 573.334,587.156 573.5,592.5C 573.5,592.833 573.5,593.167 573.5,593.5C 572.5,594.833 571.5,594.833 570.5,593.5C 570.5,591.833 570.5,590.167 570.5,588.5C 570.502,575.796 571.169,563.129 572.5,550.5C 572.291,549.006 571.624,547.839 570.5,547C 566.867,545.951 563.201,545.118 559.5,544.5C 542.67,542.832 526.67,545.665 511.5,553C 508.273,555.112 504.94,556.945 501.5,558.5C 500.375,557.652 500.375,556.652 501.5,555.5C 518.842,544.414 537.842,539.414 558.5,540.5C 563.051,542.482 567.718,543.149 572.5,542.5C 573.24,538.508 573.906,534.508 574.5,530.5C 577.041,508.044 581.708,486.044 588.5,464.5 Z"/></g>
<g><path style="opacity:1" fill="#33f5ca" d="M 639.5,548.5 C 622.366,550.188 606.032,554.521 590.5,561.5C 590.778,557.268 591.944,553.268 594,549.5C 604.904,537.72 617.737,534.887 632.5,541C 635.011,543.344 637.344,545.844 639.5,548.5 Z"/></g>
<g><path style="opacity:1" fill="#30f7cb" d="M 559.5,544.5 C 559.819,559.722 552.486,569.555 537.5,574C 521.534,577.846 509.534,572.68 501.5,558.5C 504.94,556.945 508.273,555.112 511.5,553C 526.67,545.665 542.67,542.832 559.5,544.5 Z"/></g>
<g><path style="opacity:1" fill="#12120c" d="M 330.5,543.5 C 332.62,544.403 332.954,545.737 331.5,547.5C 305.738,559.547 280.071,571.88 254.5,584.5C 252.952,584.179 252.285,583.179 252.5,581.5C 278.75,569.375 304.75,556.709 330.5,543.5 Z"/></g>
<g><path style="opacity:1" fill="#3dd8b4" d="M 636.5,551.5 C 636.209,552.649 635.376,553.316 634,553.5C 631.538,554.159 629.038,554.493 626.5,554.5C 626.762,555.978 626.429,557.311 625.5,558.5C 624.304,558.154 624.304,557.654 625.5,557C 622.833,556.333 620.167,556.333 617.5,557C 610.672,559.269 603.672,561.102 596.5,562.5C 609.168,556.825 622.501,553.159 636.5,551.5 Z"/></g>
<g><path style="opacity:1" fill="#2ef8cb" d="M 636.5,551.5 C 637.5,551.5 638.5,551.5 639.5,551.5C 639.822,555.747 638.989,559.747 637,563.5C 626.769,575.182 614.269,578.682 599.5,574C 595.357,572.043 593.024,568.876 592.5,564.5C 593.514,563.326 594.847,562.66 596.5,562.5C 603.672,561.102 610.672,559.269 617.5,557C 620.167,556.333 622.833,556.333 625.5,557C 624.304,557.654 624.304,558.154 625.5,558.5C 626.429,557.311 626.762,555.978 626.5,554.5C 629.038,554.493 631.538,554.159 634,553.5C 635.376,553.316 636.209,552.649 636.5,551.5 Z"/></g>
<g><path style="opacity:1" fill="#f49f77" d="M 331.5,547.5 C 332.258,552.369 333.258,557.202 334.5,562C 334.167,562.833 333.833,563.667 333.5,564.5C 328.992,567.254 324.326,569.754 319.5,572C 314.407,576.017 312.574,581.184 314,587.5C 317.101,591.391 319.934,595.391 322.5,599.5C 322.5,600.5 322.5,601.5 322.5,602.5C 308.943,600.307 295.276,599.974 281.5,601.5C 279.456,602.065 277.79,603.065 276.5,604.5C 271.723,606.791 266.723,608.457 261.5,609.5C 259.322,601.122 256.989,592.789 254.5,584.5C 280.071,571.88 305.738,559.547 331.5,547.5 Z"/></g>
<g><path style="opacity:1" fill="#171108" d="M 139.5,574.5 C 168.5,574.5 197.5,574.5 226.5,574.5C 227.718,576.332 227.051,577.332 224.5,577.5C 196.167,577.5 167.833,577.5 139.5,577.5C 138.375,576.348 138.375,575.348 139.5,574.5 Z"/></g>
<g><path style="opacity:1" fill="#414141" d="M 344.5,580.5 C 345.5,580.5 346.5,580.5 347.5,580.5C 347.649,581.552 347.483,582.552 347,583.5C 344.055,587.067 340.889,590.4 337.5,593.5C 336.417,592.635 336.251,591.635 337,590.5C 339.717,587.29 342.217,583.956 344.5,580.5 Z"/></g>
<g><path style="opacity:1" fill="#f49f77" d="M 139.5,577.5 C 167.833,577.5 196.167,577.5 224.5,577.5C 223.257,582.429 222.257,587.429 221.5,592.5C 213.187,593.332 204.853,593.832 196.5,594C 190.829,598.53 188.996,604.363 191,611.5C 191.325,616.191 192.492,620.524 194.5,624.5C 193.5,624.5 192.5,624.5 191.5,624.5C 185.806,620.32 179.806,616.654 173.5,613.5C 171.426,612.486 169.426,611.486 167.5,610.5C 166.081,609.549 164.415,609.216 162.5,609.5C 153.967,605.889 144.967,603.889 135.5,603.5C 136.446,594.772 137.779,586.105 139.5,577.5 Z"/></g>
<g><path style="opacity:1" fill="#b9e0f9" d="M 570.5,588.5 C 570.5,590.167 570.5,591.833 570.5,593.5C 556.833,593.5 543.167,593.5 529.5,593.5C 529.5,601.833 529.5,610.167 529.5,618.5C 528.507,610.016 528.174,601.349 528.5,592.5C 542.167,592.5 555.833,592.5 569.5,592.5C 569.232,590.901 569.566,589.568 570.5,588.5 Z"/></g>
<g><path style="opacity:1" fill="#454545" d="M 354.5,587.5 C 355.5,587.5 356.5,587.5 357.5,587.5C 356.969,590.237 356.136,592.904 355,595.5C 354.359,597.813 353.026,599.48 351,600.5C 350.5,600.167 350,599.833 349.5,599.5C 351.179,595.479 352.846,591.479 354.5,587.5 Z"/></g>
<g><path style="opacity:1" fill="#24a2f3" d="M 570.5,593.5 C 571.5,594.833 572.5,594.833 573.5,593.5C 587.5,593.5 601.5,593.5 615.5,593.5C 615.5,601.833 615.5,610.167 615.5,618.5C 613.167,618.5 610.833,618.5 608.5,618.5C 596.671,617.833 584.671,617.5 572.5,617.5C 560.148,617.501 548.148,618.168 536.5,619.5C 534.283,618.631 531.95,618.298 529.5,618.5C 529.5,610.167 529.5,601.833 529.5,593.5C 543.167,593.5 556.833,593.5 570.5,593.5 Z"/></g>
<g><path style="opacity:1" fill="#d2ebfb" d="M 573.5,593.5 C 573.5,593.167 573.5,592.833 573.5,592.5C 587.833,592.5 602.167,592.5 616.5,592.5C 616.5,601.5 616.5,610.5 616.5,619.5C 613.43,619.368 610.43,619.701 607.5,620.5C 607.833,619.833 608.167,619.167 608.5,618.5C 610.833,618.5 613.167,618.5 615.5,618.5C 615.5,610.167 615.5,601.833 615.5,593.5C 601.5,593.5 587.5,593.5 573.5,593.5 Z"/></g>
<g><path style="opacity:1" fill="#e7a789" d="M 322.5,599.5 C 323.338,599.842 323.672,600.508 323.5,601.5C 323.5,602.5 323.5,603.5 323.5,604.5C 307.902,600.578 292.235,600.578 276.5,604.5C 277.79,603.065 279.456,602.065 281.5,601.5C 295.276,599.974 308.943,600.307 322.5,602.5C 322.5,601.5 322.5,600.5 322.5,599.5 Z"/></g>
<g><path style="opacity:1" fill="#c0c0c0" d="M 79.5,595.5 C 79.5,600.5 79.5,605.5 79.5,610.5C 67.1667,610.5 54.8333,610.5 42.5,610.5C 54.3217,609.505 66.3217,609.172 78.5,609.5C 78.1805,604.637 78.5139,599.97 79.5,595.5 Z"/></g>
<g><path style="opacity:1" fill="#ccc9c6" d="M 129.5,596.5 C 130.485,600.634 130.818,604.968 130.5,609.5C 141.167,609.5 151.833,609.5 162.5,609.5C 164.415,609.216 166.081,609.549 167.5,610.5C 154.833,610.5 142.167,610.5 129.5,610.5C 129.5,605.833 129.5,601.167 129.5,596.5 Z"/></g>
<g><path style="opacity:1" fill="#404142" d="M 323.5,601.5 C 325.017,601.511 326.184,602.177 327,603.5C 330.943,609.741 335.109,615.741 339.5,621.5C 339.179,623.048 338.179,623.715 336.5,623.5C 332.401,616.956 328.068,610.623 323.5,604.5C 323.5,603.5 323.5,602.5 323.5,601.5 Z"/></g>
<g><path style="opacity:1" fill="#f6f4f1" d="M 173.5,613.5 C 179.806,616.654 185.806,620.32 191.5,624.5C 192.057,628.175 192.724,631.841 193.5,635.5C 193.457,636.416 193.124,637.083 192.5,637.5C 189.002,631.354 183.669,628.021 176.5,627.5C 177.061,622.406 176.061,617.739 173.5,613.5 Z"/></g>
<g><path style="opacity:1" fill="#0d3855" d="M 608.5,618.5 C 608.167,619.167 607.833,619.833 607.5,620.5C 607.167,620.5 606.833,620.5 606.5,620.5C 601.5,620.5 596.5,620.5 591.5,620.5C 573.833,620.5 556.167,620.5 538.5,620.5C 537.508,620.672 536.842,620.338 536.5,619.5C 548.148,618.168 560.148,617.501 572.5,617.5C 584.671,617.5 596.671,617.833 608.5,618.5 Z"/></g>
<g><path style="opacity:1" fill="#3f3f3f" d="M 221.5,615.5 C 222.5,615.5 223.5,615.5 224.5,615.5C 224.719,616.675 224.386,617.675 223.5,618.5C 218.926,620.371 214.426,622.371 210,624.5C 208.511,623.576 208.344,622.576 209.5,621.5C 213.592,619.454 217.592,617.454 221.5,615.5 Z"/></g>
<g><path style="opacity:1" fill="#25a3f5" d="M 538.5,620.5 C 556.167,620.5 573.833,620.5 591.5,620.5C 586.997,636.008 582.997,651.675 579.5,667.5C 567.087,667.813 554.753,667.479 542.5,666.5C 540.653,651.212 539.32,635.879 538.5,620.5 Z"/></g>
<g><path style="opacity:1" fill="#2381be" d="M 591.5,620.5 C 596.5,620.5 601.5,620.5 606.5,620.5C 605.217,635.176 603.884,649.843 602.5,664.5C 601.596,665.209 601.263,666.209 601.5,667.5C 594.167,667.5 586.833,667.5 579.5,667.5C 582.997,651.675 586.997,636.008 591.5,620.5 Z"/></g>
<g><path style="opacity:1" fill="#242121" d="M 111.5,628.5 C 124.287,635.101 127.787,645.101 122,658.5C 119.253,661.754 116.086,664.42 112.5,666.5C 106.925,667.452 101.259,667.786 95.5,667.5C 84.478,659.58 81.6446,649.247 87,636.5C 89.7291,633.601 92.5624,630.934 95.5,628.5C 100.847,627.225 106.18,627.225 111.5,628.5 Z"/></g>
<g><path style="opacity:1" fill="#242123" d="M 173.5,627.5 C 174.5,627.5 175.5,627.5 176.5,627.5C 183.669,628.021 189.002,631.354 192.5,637.5C 194.274,640.926 195.274,644.593 195.5,648.5C 195.141,653.884 193.141,658.551 189.5,662.5C 187.021,664.539 184.354,666.206 181.5,667.5C 176.848,668.762 172.181,668.762 167.5,667.5C 167.158,666.662 166.492,666.328 165.5,666.5C 161.224,663.279 157.891,659.279 155.5,654.5C 155.5,650.833 155.5,647.167 155.5,643.5C 158.032,634.303 164.032,628.97 173.5,627.5 Z"/></g>
<g><path style="opacity:1" fill="#252122" d="M 31.5,627.5 C 32.8333,627.5 34.1667,627.5 35.5,627.5C 50.8128,631.449 56.3128,641.116 52,656.5C 42.4918,670.335 31.1585,672.002 18,661.5C 10.9876,650.286 12.1543,640.119 21.5,631C 24.5612,628.965 27.8945,627.799 31.5,627.5 Z"/></g>
<g><path style="opacity:1" fill="#2ba4f4" d="M 336.5,623.5 C 338.179,623.715 339.179,623.048 339.5,621.5C 354.508,614.078 369.675,607.078 385,600.5C 390.313,602.982 394.147,606.982 396.5,612.5C 360.884,630.891 325.051,648.891 289,666.5C 287.233,665.66 285.899,664.327 285,662.5C 283.694,658.554 281.861,654.888 279.5,651.5C 298.342,641.913 317.342,632.579 336.5,623.5 Z"/></g>
<g><path style="opacity:1" fill="#404040" d="M 227.5,626.5 C 228.5,626.5 229.5,626.5 230.5,626.5C 230.67,627.822 230.337,628.989 229.5,630C 226.064,632.712 222.397,634.879 218.5,636.5C 218.281,635.325 218.614,634.325 219.5,633.5C 222.614,631.62 225.28,629.287 227.5,626.5 Z"/></g>
<g><path style="opacity:1" fill="#3f3c3d" d="M 100.5,643.5 C 107.342,641.743 109.675,644.076 107.5,650.5C 100.161,653.161 97.8275,650.827 100.5,643.5 Z"/></g>
<g><path style="opacity:1" fill="#414141" d="M 191.5,624.5 C 192.5,624.5 193.5,624.5 194.5,624.5C 196.483,633.099 198.149,641.766 199.5,650.5C 197.801,650.473 196.467,649.806 195.5,648.5C 195.274,644.593 194.274,640.926 192.5,637.5C 193.124,637.083 193.457,636.416 193.5,635.5C 192.724,631.841 192.057,628.175 191.5,624.5 Z"/></g>
<g><path style="opacity:1" fill="#3e3c3d" d="M 171.5,643.5 C 178.342,641.743 180.675,644.076 178.5,650.5C 171.825,652.492 169.492,650.158 171.5,643.5 Z"/></g>
<g><path style="opacity:1" fill="#403e3f" d="M 30.5,643.5 C 36.8848,642.214 38.8848,644.547 36.5,650.5C 29.7466,652.54 27.7466,650.206 30.5,643.5 Z"/></g>
<g><path style="opacity:1" fill="#2fa4f4" d="M 250.5,651.5 C 253.229,656.376 254.562,661.71 254.5,667.5C 230.167,667.5 205.833,667.5 181.5,667.5C 184.354,666.206 187.021,664.539 189.5,662.5C 190.239,662.631 190.906,662.464 191.5,662C 193.81,658.555 196.477,655.389 199.5,652.5C 216.487,651.501 233.487,651.167 250.5,651.5 Z"/></g>
<g><path style="opacity:1" fill="#25a3f4" d="M 155.5,654.5 C 157.891,659.279 161.224,663.279 165.5,666.5C 154.833,666.5 144.167,666.5 133.5,666.5C 133.5,661.5 133.5,656.5 133.5,651.5C 140.5,651.5 147.5,651.5 154.5,651.5C 154.263,652.791 154.596,653.791 155.5,654.5 Z"/></g>
<g><path style="opacity:1" fill="#4e9dd1" d="M 195.5,648.5 C 196.467,649.806 197.801,650.473 199.5,650.5C 216.675,650.17 233.675,650.503 250.5,651.5C 233.487,651.167 216.487,651.501 199.5,652.5C 196.477,655.389 193.81,658.555 191.5,662C 190.906,662.464 190.239,662.631 189.5,662.5C 193.141,658.551 195.141,653.884 195.5,648.5 Z"/></g>
<g><path style="opacity:1" fill="#75b3da" d="M 155.5,643.5 C 155.5,647.167 155.5,650.833 155.5,654.5C 154.596,653.791 154.263,652.791 154.5,651.5C 147.5,651.5 140.5,651.5 133.5,651.5C 133.5,656.5 133.5,661.5 133.5,666.5C 144.167,666.5 154.833,666.5 165.5,666.5C 166.492,666.328 167.158,666.662 167.5,667.5C 155.833,667.5 144.167,667.5 132.5,667.5C 132.5,661.833 132.5,656.167 132.5,650.5C 139.833,650.5 147.167,650.5 154.5,650.5C 154.198,647.941 154.532,645.607 155.5,643.5 Z"/></g>
<g><path style="opacity:1" fill="#737171" d="M 112.5,666.5 C 110.085,667.814 107.252,668.481 104,668.5C 100.979,668.498 98.1459,668.164 95.5,667.5C 101.259,667.786 106.925,667.452 112.5,666.5 Z"/></g>
<g><path style="opacity:1" fill="#5bb1ea" d="M 602.5,664.5 C 602.5,665.833 602.5,667.167 602.5,668.5C 582.139,669.155 562.139,668.488 542.5,666.5C 554.753,667.479 567.087,667.813 579.5,667.5C 586.833,667.5 594.167,667.5 601.5,667.5C 601.263,666.209 601.596,665.209 602.5,664.5 Z"/></g>
</svg>
