<?xml version="1.0" encoding="UTF-8"?>
<!DOCTYPE svg PUBLIC "-//W3C//DTD SVG 1.1//EN" "http://www.w3.org/Graphics/SVG/1.1/DTD/svg11.dtd">
<svg xmlns="http://www.w3.org/2000/svg" version="1.1" width="512px" height="512px" style="shape-rendering:geometricPrecision; text-rendering:geometricPrecision; image-rendering:optimizeQuality; fill-rule:evenodd; clip-rule:evenodd" xmlns:xlink="http://www.w3.org/1999/xlink">
<g><path style="opacity:0.961" fill="#fefffe" d="M 180.5,91.5 C 228.181,87.9528 273.848,95.7861 317.5,115C 371.841,140.517 405.008,182.683 417,241.5C 421.463,271.641 417.296,300.474 404.5,328C 398.698,331.951 393.865,331.117 390,325.5C 391.497,306.214 392.163,286.881 392,267.5C 389.152,225.967 371.652,192.134 339.5,166C 304.439,140.531 265.106,126.531 221.5,124C 172.367,121.227 125.367,129.894 80.5,150C 68.8425,152.331 62.1758,147.664 60.5,136C 60.4944,133.7 60.9944,131.534 62,129.5C 70.3073,122.926 79.474,117.76 89.5,114C 118.825,101.919 149.158,94.4185 180.5,91.5 Z"/></g>
<g><path style="opacity:0.933" fill="#fefffe" d="M 442.5,297.5 C 445.505,297.253 448.005,298.253 450,300.5C 449.373,313.344 446.373,325.677 441,337.5C 437,345.5 433,353.5 429,361.5C 417.582,379.338 405.915,397.005 394,414.5C 390.212,419.153 385.378,420.653 379.5,419C 357.961,398.463 339.795,375.297 325,349.5C 323.338,338.831 327.838,334.664 338.5,337C 343.333,341.833 348.167,346.667 353,351.5C 363.333,365.5 373.667,379.5 384,393.5C 406.657,365.206 424.99,334.206 439,300.5C 440.145,299.364 441.312,298.364 442.5,297.5 Z"/></g>
</svg>
