<svg xmlns="http://www.w3.org/2000/svg" xmlns:xlink="http://www.w3.org/1999/xlink" width="2000" zoomAndPan="magnify" viewBox="0 0 1500 1124.99995" height="1500" preserveAspectRatio="xMidYMid meet" version="1.0"><rect x="-150" width="1800" fill="#ffffff" y="-112.499995" height="1349.99994" fill-opacity="1"/><rect x="-150" width="1800" fill="#ffffff" y="-112.499995" height="1349.99994" fill-opacity="1"/><path stroke-linecap="round" transform="matrix(0.529925, 0.530281, -0.530508, 0.530152, 482.935624, 336.873935)" fill="none" stroke-linejoin="miter" d="M 6.500593 6.497286 L 431.686918 6.498547 " stroke="#000000" stroke-width="13" stroke-opacity="1" stroke-miterlimit="4"/><path fill="#000000" d="M 301.644531 644.320312 L 329.574219 619.277344 C 329.945312 618.945312 330.367188 618.695312 330.835938 618.53125 C 331.304688 618.363281 331.785156 618.296875 332.285156 618.324219 C 332.78125 618.351562 333.253906 618.472656 333.699219 618.6875 C 334.148438 618.902344 334.539062 619.191406 334.871094 619.5625 C 335.203125 619.933594 335.453125 620.351562 335.617188 620.824219 C 335.78125 621.292969 335.851562 621.773438 335.824219 622.269531 C 335.796875 622.769531 335.675781 623.242188 335.460938 623.6875 C 335.246094 624.136719 334.953125 624.527344 334.582031 624.859375 L 306.652344 649.902344 C 306.28125 650.234375 305.863281 650.484375 305.390625 650.648438 C 304.921875 650.816406 304.441406 650.882812 303.945312 650.855469 C 303.445312 650.828125 302.972656 650.707031 302.527344 650.492188 C 302.078125 650.277344 301.6875 649.984375 301.355469 649.617188 C 301.023438 649.246094 300.773438 648.824219 300.609375 648.355469 C 300.445312 647.886719 300.375 647.40625 300.402344 646.910156 C 300.429688 646.410156 300.550781 645.9375 300.765625 645.492188 C 300.980469 645.042969 301.273438 644.652344 301.644531 644.320312 Z M 340.746094 609.257812 L 368.675781 584.214844 C 369.046875 583.882812 369.46875 583.632812 369.9375 583.46875 C 370.40625 583.304688 370.890625 583.234375 371.386719 583.261719 C 371.882812 583.289062 372.355469 583.410156 372.804688 583.625 C 373.25 583.839844 373.640625 584.132812 373.972656 584.503906 C 374.304688 584.871094 374.554688 585.292969 374.71875 585.761719 C 374.882812 586.230469 374.953125 586.714844 374.925781 587.210938 C 374.898438 587.707031 374.777344 588.179688 374.5625 588.628906 C 374.347656 589.078125 374.054688 589.464844 373.683594 589.796875 L 345.753906 614.84375 C 345.382812 615.175781 344.964844 615.421875 344.496094 615.589844 C 344.027344 615.753906 343.542969 615.824219 343.046875 615.796875 C 342.550781 615.769531 342.078125 615.648438 341.628906 615.433594 C 341.179688 615.21875 340.789062 614.925781 340.457031 614.554688 C 340.125 614.183594 339.878906 613.765625 339.710938 613.296875 C 339.546875 612.828125 339.476562 612.34375 339.503906 611.847656 C 339.53125 611.351562 339.652344 610.878906 339.867188 610.429688 C 340.085938 609.980469 340.375 609.589844 340.746094 609.257812 Z M 379.847656 574.195312 L 407.78125 549.152344 C 408.148438 548.820312 408.570312 548.574219 409.039062 548.40625 C 409.507812 548.242188 409.992188 548.171875 410.488281 548.199219 C 410.984375 548.226562 411.457031 548.347656 411.90625 548.5625 C 412.355469 548.777344 412.742188 549.070312 413.074219 549.441406 C 413.40625 549.8125 413.65625 550.230469 413.820312 550.699219 C 413.984375 551.167969 414.054688 551.652344 414.027344 552.148438 C 414 552.644531 413.878906 553.117188 413.664062 553.566406 C 413.449219 554.015625 413.15625 554.40625 412.785156 554.738281 L 384.855469 579.78125 C 384.484375 580.113281 384.066406 580.363281 383.597656 580.527344 C 383.128906 580.691406 382.644531 580.761719 382.148438 580.734375 C 381.652344 580.707031 381.179688 580.585938 380.730469 580.371094 C 380.28125 580.15625 379.890625 579.863281 379.558594 579.492188 C 379.226562 579.125 378.980469 578.703125 378.8125 578.234375 C 378.648438 577.765625 378.582031 577.28125 378.609375 576.785156 C 378.632812 576.289062 378.757812 575.816406 378.972656 575.367188 C 379.1875 574.917969 379.480469 574.53125 379.847656 574.195312 Z M 418.953125 539.136719 L 446.882812 514.09375 C 447.25 513.761719 447.671875 513.511719 448.140625 513.347656 C 448.609375 513.179688 449.09375 513.113281 449.589844 513.140625 C 450.085938 513.167969 450.558594 513.289062 451.007812 513.503906 C 451.457031 513.71875 451.847656 514.007812 452.179688 514.378906 C 452.511719 514.75 452.757812 515.167969 452.921875 515.640625 C 453.089844 516.109375 453.15625 516.589844 453.128906 517.085938 C 453.101562 517.585938 452.980469 518.058594 452.765625 518.503906 C 452.550781 518.953125 452.257812 519.34375 451.886719 519.675781 L 423.957031 544.71875 C 423.589844 545.050781 423.167969 545.300781 422.699219 545.464844 C 422.230469 545.632812 421.746094 545.699219 421.25 545.671875 C 420.753906 545.644531 420.28125 545.523438 419.832031 545.308594 C 419.382812 545.09375 418.992188 544.800781 418.660156 544.433594 C 418.328125 544.0625 418.082031 543.640625 417.917969 543.171875 C 417.75 542.703125 417.683594 542.222656 417.710938 541.726562 C 417.738281 541.226562 417.859375 540.753906 418.074219 540.308594 C 418.289062 539.859375 418.582031 539.46875 418.953125 539.136719 Z M 458.054688 504.074219 L 485.984375 479.03125 C 486.355469 478.699219 486.773438 478.449219 487.242188 478.285156 C 487.710938 478.121094 488.195312 478.050781 488.691406 478.078125 C 489.1875 478.105469 489.660156 478.226562 490.109375 478.441406 C 490.558594 478.65625 490.949219 478.949219 491.28125 479.320312 C 491.613281 479.6875 491.859375 480.109375 492.027344 480.578125 C 492.191406 481.046875 492.257812 481.53125 492.230469 482.027344 C 492.207031 482.523438 492.085938 482.996094 491.867188 483.445312 C 491.652344 483.894531 491.359375 484.28125 490.992188 484.613281 L 463.058594 509.660156 C 462.691406 509.992188 462.269531 510.238281 461.800781 510.40625 C 461.332031 510.570312 460.847656 510.640625 460.351562 510.613281 C 459.855469 510.585938 459.382812 510.464844 458.933594 510.25 C 458.484375 510.035156 458.097656 509.742188 457.765625 509.371094 C 457.433594 509 457.183594 508.582031 457.019531 508.113281 C 456.855469 507.644531 456.785156 507.160156 456.8125 506.664062 C 456.839844 506.167969 456.960938 505.695312 457.175781 505.246094 C 457.390625 504.796875 457.683594 504.40625 458.054688 504.074219 Z M 497.15625 469.011719 L 525.085938 443.96875 C 525.457031 443.636719 525.875 443.390625 526.34375 443.222656 C 526.816406 443.058594 527.296875 442.988281 527.792969 443.015625 C 528.289062 443.042969 528.761719 443.164062 529.210938 443.378906 C 529.660156 443.59375 530.050781 443.886719 530.382812 444.257812 C 530.714844 444.628906 530.960938 445.046875 531.128906 445.515625 C 531.292969 445.984375 531.363281 446.46875 531.335938 446.964844 C 531.308594 447.460938 531.1875 447.933594 530.972656 448.382812 C 530.757812 448.832031 530.464844 449.222656 530.09375 449.554688 L 502.164062 474.597656 C 501.792969 474.929688 501.371094 475.179688 500.902344 475.34375 C 500.433594 475.507812 499.949219 475.578125 499.453125 475.550781 C 498.957031 475.523438 498.484375 475.402344 498.035156 475.1875 C 497.589844 474.972656 497.199219 474.679688 496.867188 474.308594 C 496.535156 473.941406 496.285156 473.519531 496.121094 473.050781 C 495.957031 472.582031 495.886719 472.097656 495.914062 471.601562 C 495.941406 471.105469 496.0625 470.632812 496.277344 470.183594 C 496.492188 469.734375 496.785156 469.34375 497.15625 469.011719 Z M 536.257812 433.953125 L 564.1875 408.910156 C 564.558594 408.578125 564.976562 408.328125 565.449219 408.164062 C 565.917969 407.996094 566.398438 407.929688 566.894531 407.957031 C 567.394531 407.984375 567.867188 408.101562 568.3125 408.320312 C 568.761719 408.535156 569.152344 408.824219 569.484375 409.195312 C 569.816406 409.566406 570.066406 409.984375 570.230469 410.457031 C 570.394531 410.925781 570.464844 411.40625 570.4375 411.902344 C 570.410156 412.402344 570.289062 412.875 570.074219 413.320312 C 569.859375 413.769531 569.566406 414.160156 569.195312 414.492188 L 541.265625 439.535156 C 540.894531 439.867188 540.476562 440.117188 540.003906 440.28125 C 539.535156 440.449219 539.054688 440.515625 538.558594 440.488281 C 538.058594 440.460938 537.585938 440.339844 537.140625 440.125 C 536.691406 439.910156 536.300781 439.617188 535.96875 439.25 C 535.636719 438.878906 535.386719 438.457031 535.222656 437.988281 C 535.058594 437.519531 534.988281 437.039062 535.015625 436.539062 C 535.042969 436.042969 535.164062 435.570312 535.378906 435.125 C 535.59375 434.675781 535.886719 434.285156 536.257812 433.953125 Z M 575.359375 398.890625 L 603.289062 373.847656 C 603.660156 373.515625 604.082031 373.265625 604.550781 373.101562 C 605.019531 372.9375 605.5 372.867188 606 372.894531 C 606.496094 372.921875 606.96875 373.042969 607.414062 373.257812 C 607.863281 373.472656 608.253906 373.765625 608.585938 374.136719 C 608.917969 374.503906 609.167969 374.925781 609.332031 375.394531 C 609.496094 375.863281 609.566406 376.347656 609.539062 376.84375 C 609.511719 377.339844 609.390625 377.8125 609.175781 378.261719 C 608.960938 378.707031 608.667969 379.097656 608.296875 379.429688 L 580.367188 404.476562 C 579.996094 404.808594 579.578125 405.054688 579.109375 405.222656 C 578.636719 405.386719 578.15625 405.457031 577.660156 405.429688 C 577.164062 405.402344 576.691406 405.28125 576.242188 405.066406 C 575.792969 404.851562 575.402344 404.558594 575.070312 404.1875 C 574.738281 403.816406 574.488281 403.398438 574.324219 402.929688 C 574.160156 402.460938 574.089844 401.976562 574.117188 401.480469 C 574.144531 400.984375 574.265625 400.511719 574.480469 400.0625 C 574.695312 399.613281 574.988281 399.222656 575.359375 398.890625 Z M 614.460938 363.828125 L 642.390625 338.785156 C 642.761719 338.453125 643.183594 338.207031 643.652344 338.039062 C 644.121094 337.875 644.605469 337.804688 645.101562 337.832031 C 645.597656 337.859375 646.070312 337.980469 646.519531 338.195312 C 646.964844 338.410156 647.355469 338.703125 647.6875 339.074219 C 648.019531 339.445312 648.269531 339.863281 648.433594 340.332031 C 648.597656 340.800781 648.667969 341.285156 648.640625 341.78125 C 648.613281 342.277344 648.492188 342.75 648.277344 343.199219 C 648.0625 343.648438 647.769531 344.039062 647.398438 344.371094 L 619.46875 369.414062 C 619.097656 369.746094 618.679688 369.996094 618.210938 370.160156 C 617.742188 370.324219 617.257812 370.394531 616.761719 370.367188 C 616.265625 370.339844 615.792969 370.21875 615.34375 370.003906 C 614.894531 369.789062 614.503906 369.496094 614.171875 369.125 C 613.839844 368.757812 613.59375 368.335938 613.425781 367.867188 C 613.261719 367.398438 613.191406 366.914062 613.21875 366.417969 C 613.246094 365.921875 613.367188 365.449219 613.582031 365 C 613.800781 364.550781 614.09375 364.160156 614.460938 363.828125 Z M 653.5625 328.769531 L 681.496094 303.726562 C 681.863281 303.394531 682.285156 303.144531 682.753906 302.980469 C 683.222656 302.8125 683.707031 302.746094 684.203125 302.773438 C 684.699219 302.796875 685.171875 302.917969 685.621094 303.132812 C 686.070312 303.351562 686.460938 303.640625 686.789062 304.011719 C 687.121094 304.382812 687.371094 304.800781 687.535156 305.273438 C 687.703125 305.742188 687.769531 306.222656 687.742188 306.71875 C 687.714844 307.21875 687.59375 307.6875 687.378906 308.136719 C 687.164062 308.585938 686.871094 308.976562 686.5 309.308594 L 658.570312 334.351562 C 658.199219 334.683594 657.78125 334.933594 657.3125 335.097656 C 656.84375 335.261719 656.359375 335.332031 655.863281 335.304688 C 655.367188 335.277344 654.894531 335.15625 654.445312 334.941406 C 653.996094 334.726562 653.605469 334.433594 653.273438 334.066406 C 652.941406 333.695312 652.695312 333.273438 652.53125 332.804688 C 652.363281 332.335938 652.296875 331.855469 652.324219 331.355469 C 652.351562 330.859375 652.472656 330.386719 652.6875 329.941406 C 652.902344 329.492188 653.195312 329.101562 653.5625 328.769531 Z M 692.667969 293.707031 L 720.597656 268.664062 C 720.96875 268.332031 721.386719 268.082031 721.855469 267.917969 C 722.324219 267.753906 722.808594 267.683594 723.304688 267.710938 C 723.800781 267.738281 724.273438 267.859375 724.722656 268.074219 C 725.171875 268.289062 725.5625 268.582031 725.894531 268.953125 C 726.226562 269.320312 726.472656 269.742188 726.636719 270.210938 C 726.804688 270.679688 726.871094 271.164062 726.84375 271.660156 C 726.816406 272.15625 726.695312 272.628906 726.480469 273.078125 C 726.265625 273.523438 725.972656 273.914062 725.605469 274.246094 L 697.671875 299.292969 C 697.304688 299.625 696.882812 299.871094 696.414062 300.039062 C 695.945312 300.203125 695.460938 300.269531 694.964844 300.246094 C 694.46875 300.21875 693.996094 300.097656 693.546875 299.882812 C 693.097656 299.667969 692.707031 299.375 692.378906 299.003906 C 692.046875 298.632812 691.796875 298.214844 691.632812 297.746094 C 691.464844 297.277344 691.398438 296.792969 691.425781 296.296875 C 691.453125 295.800781 691.574219 295.328125 691.789062 294.878906 C 692.003906 294.429688 692.296875 294.039062 692.667969 293.707031 Z M 731.769531 258.644531 L 759.699219 233.601562 C 760.070312 233.269531 760.488281 233.023438 760.957031 232.855469 C 761.425781 232.691406 761.910156 232.621094 762.40625 232.648438 C 762.902344 232.675781 763.375 232.796875 763.824219 233.011719 C 764.273438 233.226562 764.664062 233.519531 764.996094 233.890625 C 765.328125 234.261719 765.574219 234.679688 765.742188 235.148438 C 765.90625 235.617188 765.976562 236.101562 765.949219 236.597656 C 765.921875 237.09375 765.800781 237.566406 765.585938 238.015625 C 765.367188 238.464844 765.074219 238.855469 764.707031 239.1875 L 736.777344 264.230469 C 736.40625 264.5625 735.984375 264.8125 735.515625 264.976562 C 735.046875 265.140625 734.5625 265.210938 734.066406 265.183594 C 733.570312 265.15625 733.097656 265.035156 732.648438 264.820312 C 732.203125 264.605469 731.8125 264.3125 731.480469 263.941406 C 731.148438 263.574219 730.898438 263.152344 730.734375 262.683594 C 730.570312 262.214844 730.5 261.730469 730.527344 261.234375 C 730.554688 260.738281 730.675781 260.265625 730.890625 259.816406 C 731.105469 259.367188 731.398438 258.976562 731.769531 258.644531 Z M 770.871094 223.585938 L 798.800781 198.542969 C 799.171875 198.210938 799.589844 197.960938 800.058594 197.796875 C 800.53125 197.628906 801.011719 197.5625 801.507812 197.589844 C 802.003906 197.613281 802.476562 197.734375 802.925781 197.949219 C 803.375 198.164062 803.765625 198.457031 804.097656 198.828125 C 804.429688 199.199219 804.679688 199.617188 804.84375 200.089844 C 805.007812 200.558594 805.078125 201.039062 805.050781 201.535156 C 805.023438 202.03125 804.902344 202.503906 804.6875 202.953125 C 804.472656 203.402344 804.179688 203.792969 803.808594 204.125 L 775.878906 229.167969 C 775.507812 229.5 775.085938 229.75 774.617188 229.914062 C 774.148438 230.078125 773.667969 230.148438 773.167969 230.121094 C 772.671875 230.09375 772.199219 229.972656 771.75 229.757812 C 771.304688 229.542969 770.914062 229.25 770.582031 228.882812 C 770.25 228.511719 770 228.089844 769.835938 227.621094 C 769.671875 227.152344 769.601562 226.671875 769.628906 226.171875 C 769.65625 225.675781 769.777344 225.203125 769.992188 224.753906 C 770.207031 224.308594 770.5 223.917969 770.871094 223.585938 Z M 809.972656 188.523438 L 837.902344 163.480469 C 838.273438 163.148438 838.691406 162.898438 839.164062 162.734375 C 839.632812 162.570312 840.113281 162.5 840.613281 162.527344 C 841.109375 162.554688 841.582031 162.675781 842.027344 162.890625 C 842.476562 163.105469 842.867188 163.398438 843.199219 163.765625 C 843.53125 164.136719 843.78125 164.558594 843.945312 165.027344 C 844.109375 165.496094 844.179688 165.980469 844.152344 166.476562 C 844.125 166.972656 844.003906 167.445312 843.789062 167.894531 C 843.574219 168.339844 843.28125 168.730469 842.910156 169.0625 L 814.980469 194.109375 C 814.609375 194.441406 814.191406 194.6875 813.71875 194.855469 C 813.25 195.019531 812.769531 195.085938 812.273438 195.0625 C 811.773438 195.035156 811.300781 194.914062 810.855469 194.699219 C 810.40625 194.484375 810.015625 194.191406 809.683594 193.820312 C 809.351562 193.449219 809.101562 193.03125 808.9375 192.5625 C 808.773438 192.09375 808.703125 191.609375 808.730469 191.113281 C 808.757812 190.617188 808.878906 190.144531 809.09375 189.695312 C 809.308594 189.246094 809.601562 188.855469 809.972656 188.523438 Z M 849.074219 153.460938 L 877.003906 128.417969 C 877.375 128.085938 877.796875 127.839844 878.265625 127.671875 C 878.734375 127.507812 879.21875 127.4375 879.714844 127.464844 C 880.210938 127.492188 880.683594 127.613281 881.132812 127.828125 C 881.578125 128.042969 881.96875 128.335938 882.300781 128.707031 C 882.632812 129.078125 882.882812 129.496094 883.046875 129.964844 C 883.210938 130.433594 883.28125 130.917969 883.253906 131.414062 C 883.226562 131.910156 883.105469 132.382812 882.890625 132.832031 C 882.675781 133.28125 882.382812 133.671875 882.011719 134.003906 L 854.082031 159.046875 C 853.710938 159.378906 853.292969 159.628906 852.824219 159.792969 C 852.351562 159.957031 851.871094 160.027344 851.375 160 C 850.878906 159.972656 850.40625 159.851562 849.957031 159.636719 C 849.507812 159.421875 849.117188 159.128906 848.785156 158.757812 C 848.453125 158.386719 848.207031 157.96875 848.039062 157.5 C 847.875 157.03125 847.804688 156.546875 847.832031 156.050781 C 847.859375 155.554688 847.980469 155.082031 848.195312 154.632812 C 848.410156 154.183594 848.703125 153.792969 849.074219 153.460938 Z M 888.175781 118.402344 L 916.109375 93.359375 C 916.476562 93.023438 916.898438 92.777344 917.367188 92.613281 C 917.835938 92.445312 918.320312 92.378906 918.816406 92.40625 C 919.3125 92.429688 919.785156 92.550781 920.234375 92.765625 C 920.683594 92.980469 921.070312 93.273438 921.402344 93.644531 C 921.734375 94.015625 921.984375 94.433594 922.148438 94.902344 C 922.3125 95.375 922.382812 95.855469 922.355469 96.351562 C 922.328125 96.847656 922.207031 97.320312 921.992188 97.769531 C 921.777344 98.21875 921.484375 98.609375 921.113281 98.941406 L 893.183594 123.984375 C 892.8125 124.316406 892.394531 124.566406 891.925781 124.730469 C 891.457031 124.894531 890.972656 124.964844 890.476562 124.9375 C 889.980469 124.910156 889.507812 124.789062 889.058594 124.574219 C 888.609375 124.359375 888.21875 124.066406 887.886719 123.699219 C 887.554688 123.328125 887.308594 122.90625 887.140625 122.4375 C 886.976562 121.96875 886.910156 121.488281 886.9375 120.988281 C 886.960938 120.492188 887.082031 120.019531 887.300781 119.570312 C 887.515625 119.125 887.808594 118.734375 888.175781 118.402344 Z M 927.28125 83.339844 L 939.339844 72.527344 C 939.710938 72.195312 940.128906 71.945312 940.597656 71.78125 C 941.066406 71.617188 941.550781 71.546875 942.046875 71.574219 C 942.542969 71.601562 943.015625 71.722656 943.464844 71.9375 C 943.914062 72.152344 944.304688 72.445312 944.636719 72.8125 C 944.96875 73.183594 945.214844 73.605469 945.382812 74.074219 C 945.546875 74.542969 945.613281 75.023438 945.589844 75.523438 C 945.5625 76.019531 945.441406 76.492188 945.222656 76.941406 C 945.007812 77.386719 944.714844 77.777344 944.347656 78.109375 L 932.285156 88.925781 C 931.917969 89.257812 931.496094 89.503906 931.027344 89.667969 C 930.558594 89.835938 930.074219 89.902344 929.578125 89.878906 C 929.082031 89.851562 928.609375 89.730469 928.160156 89.515625 C 927.710938 89.300781 927.320312 89.007812 926.988281 88.636719 C 926.65625 88.265625 926.410156 87.847656 926.246094 87.378906 C 926.078125 86.90625 926.011719 86.425781 926.039062 85.929688 C 926.066406 85.433594 926.1875 84.960938 926.402344 84.511719 C 926.617188 84.0625 926.910156 83.671875 927.28125 83.339844 Z M 927.28125 83.339844 " fill-opacity="1" fill-rule="nonzero"/><path fill="#000000" d="M 301.84375 648.085938 L 338.667969 641.035156 C 339.15625 640.941406 339.644531 640.945312 340.132812 641.046875 C 340.621094 641.148438 341.070312 641.335938 341.480469 641.617188 C 341.890625 641.894531 342.234375 642.242188 342.507812 642.660156 C 342.78125 643.074219 342.964844 643.527344 343.058594 644.015625 C 343.152344 644.503906 343.148438 644.992188 343.046875 645.476562 C 342.945312 645.964844 342.757812 646.414062 342.476562 646.824219 C 342.199219 647.238281 341.851562 647.578125 341.433594 647.851562 C 341.019531 648.125 340.566406 648.308594 340.078125 648.402344 L 303.253906 655.453125 C 302.765625 655.546875 302.28125 655.542969 301.792969 655.441406 C 301.304688 655.339844 300.855469 655.152344 300.445312 654.871094 C 300.035156 654.59375 299.691406 654.246094 299.417969 653.832031 C 299.144531 653.414062 298.960938 652.964844 298.867188 652.472656 C 298.773438 651.984375 298.777344 651.5 298.878906 651.011719 C 298.980469 650.523438 299.167969 650.074219 299.449219 649.664062 C 299.726562 649.253906 300.074219 648.910156 300.488281 648.636719 C 300.90625 648.363281 301.355469 648.179688 301.84375 648.085938 Z M 353.398438 638.21875 L 390.222656 631.167969 C 390.710938 631.074219 391.199219 631.078125 391.6875 631.179688 C 392.171875 631.277344 392.621094 631.46875 393.035156 631.746094 C 393.445312 632.027344 393.789062 632.375 394.058594 632.789062 C 394.332031 633.203125 394.515625 633.65625 394.609375 634.144531 C 394.703125 634.632812 394.699219 635.121094 394.601562 635.609375 C 394.5 636.09375 394.308594 636.542969 394.03125 636.957031 C 393.75 637.367188 393.402344 637.710938 392.988281 637.984375 C 392.574219 638.257812 392.121094 638.441406 391.632812 638.535156 L 354.808594 645.582031 C 354.320312 645.675781 353.832031 645.671875 353.347656 645.574219 C 352.859375 645.472656 352.410156 645.28125 352 645.003906 C 351.585938 644.722656 351.246094 644.375 350.972656 643.960938 C 350.699219 643.546875 350.515625 643.09375 350.421875 642.605469 C 350.328125 642.117188 350.332031 641.628906 350.433594 641.140625 C 350.53125 640.65625 350.722656 640.207031 351 639.792969 C 351.28125 639.382812 351.628906 639.039062 352.042969 638.765625 C 352.457031 638.492188 352.910156 638.308594 353.398438 638.21875 Z M 404.953125 628.347656 L 441.777344 621.296875 C 442.265625 621.203125 442.753906 621.207031 443.238281 621.308594 C 443.726562 621.410156 444.175781 621.597656 444.585938 621.878906 C 445 622.15625 445.339844 622.503906 445.613281 622.921875 C 445.886719 623.335938 446.070312 623.789062 446.164062 624.277344 C 446.257812 624.765625 446.253906 625.253906 446.152344 625.738281 C 446.054688 626.226562 445.863281 626.675781 445.585938 627.085938 C 445.304688 627.5 444.957031 627.839844 444.542969 628.113281 C 444.128906 628.386719 443.675781 628.570312 443.1875 628.664062 L 406.363281 635.714844 C 405.875 635.808594 405.386719 635.804688 404.898438 635.703125 C 404.414062 635.601562 403.964844 635.414062 403.550781 635.132812 C 403.140625 634.855469 402.796875 634.507812 402.527344 634.089844 C 402.253906 633.675781 402.070312 633.222656 401.976562 632.734375 C 401.882812 632.246094 401.886719 631.757812 401.984375 631.273438 C 402.085938 630.785156 402.277344 630.335938 402.554688 629.925781 C 402.835938 629.511719 403.183594 629.171875 403.597656 628.898438 C 404.011719 628.625 404.464844 628.441406 404.953125 628.347656 Z M 456.507812 618.476562 L 493.332031 611.429688 C 493.820312 611.335938 494.304688 611.339844 494.792969 611.4375 C 495.28125 611.539062 495.730469 611.730469 496.140625 612.007812 C 496.550781 612.289062 496.894531 612.636719 497.167969 613.050781 C 497.441406 613.464844 497.625 613.917969 497.71875 614.40625 C 497.8125 614.894531 497.808594 615.382812 497.707031 615.871094 C 497.605469 616.355469 497.417969 616.804688 497.136719 617.21875 C 496.859375 617.628906 496.511719 617.972656 496.097656 618.246094 C 495.679688 618.515625 495.230469 618.699219 494.742188 618.792969 L 457.917969 625.84375 C 457.429688 625.9375 456.941406 625.933594 456.453125 625.832031 C 455.964844 625.734375 455.515625 625.542969 455.105469 625.265625 C 454.695312 624.984375 454.351562 624.636719 454.078125 624.222656 C 453.804688 623.804688 453.621094 623.355469 453.527344 622.867188 C 453.433594 622.378906 453.4375 621.890625 453.539062 621.402344 C 453.640625 620.914062 453.828125 620.464844 454.109375 620.054688 C 454.386719 619.644531 454.734375 619.300781 455.152344 619.027344 C 455.566406 618.753906 456.019531 618.570312 456.507812 618.476562 Z M 508.058594 608.609375 L 544.882812 601.558594 C 545.371094 601.464844 545.859375 601.46875 546.347656 601.570312 C 546.832031 601.667969 547.28125 601.859375 547.695312 602.140625 C 548.105469 602.417969 548.449219 602.765625 548.722656 603.179688 C 548.996094 603.597656 549.179688 604.046875 549.269531 604.535156 C 549.363281 605.023438 549.363281 605.511719 549.261719 606 C 549.160156 606.488281 548.96875 606.9375 548.691406 607.347656 C 548.414062 607.757812 548.066406 608.101562 547.648438 608.375 C 547.234375 608.648438 546.78125 608.832031 546.292969 608.925781 L 509.46875 615.972656 C 508.980469 616.066406 508.492188 616.066406 508.007812 615.964844 C 507.519531 615.863281 507.070312 615.671875 506.660156 615.394531 C 506.25 615.113281 505.90625 614.769531 505.632812 614.351562 C 505.359375 613.9375 505.175781 613.484375 505.082031 612.996094 C 504.988281 612.507812 504.992188 612.019531 505.09375 611.535156 C 505.195312 611.046875 505.382812 610.597656 505.664062 610.183594 C 505.941406 609.773438 506.289062 609.433594 506.703125 609.160156 C 507.121094 608.886719 507.570312 608.703125 508.058594 608.609375 Z M 559.613281 598.738281 L 596.4375 591.6875 C 596.925781 591.59375 597.414062 591.597656 597.898438 591.699219 C 598.386719 591.800781 598.835938 591.988281 599.246094 592.269531 C 599.660156 592.546875 600 592.894531 600.273438 593.3125 C 600.546875 593.726562 600.730469 594.179688 600.824219 594.667969 C 600.917969 595.15625 600.914062 595.644531 600.816406 596.128906 C 600.714844 596.617188 600.523438 597.066406 600.246094 597.476562 C 599.964844 597.890625 599.617188 598.230469 599.203125 598.503906 C 598.789062 598.777344 598.335938 598.960938 597.847656 599.054688 L 561.023438 606.105469 C 560.535156 606.199219 560.046875 606.195312 559.5625 606.09375 C 559.074219 605.992188 558.625 605.804688 558.214844 605.523438 C 557.800781 605.246094 557.460938 604.898438 557.1875 604.484375 C 556.914062 604.066406 556.730469 603.617188 556.636719 603.125 C 556.542969 602.636719 556.546875 602.152344 556.648438 601.664062 C 556.746094 601.175781 556.9375 600.726562 557.214844 600.316406 C 557.496094 599.90625 557.84375 599.5625 558.257812 599.289062 C 558.671875 599.015625 559.125 598.832031 559.613281 598.738281 Z M 611.167969 588.871094 L 647.992188 581.820312 C 648.480469 581.726562 648.96875 581.730469 649.453125 581.832031 C 649.941406 581.929688 650.390625 582.121094 650.800781 582.398438 C 651.210938 582.679688 651.554688 583.027344 651.828125 583.441406 C 652.101562 583.855469 652.285156 584.308594 652.378906 584.796875 C 652.472656 585.285156 652.46875 585.773438 652.367188 586.261719 C 652.269531 586.746094 652.078125 587.195312 651.796875 587.609375 C 651.519531 588.019531 651.171875 588.363281 650.757812 588.636719 C 650.339844 588.910156 649.890625 589.09375 649.402344 589.1875 L 612.578125 596.234375 C 612.089844 596.328125 611.601562 596.324219 611.113281 596.226562 C 610.628906 596.125 610.179688 595.933594 609.765625 595.65625 C 609.355469 595.375 609.011719 595.027344 608.738281 594.613281 C 608.464844 594.199219 608.285156 593.746094 608.191406 593.257812 C 608.097656 592.769531 608.101562 592.28125 608.199219 591.792969 C 608.300781 591.308594 608.492188 590.859375 608.769531 590.445312 C 609.050781 590.035156 609.394531 589.691406 609.8125 589.417969 C 610.226562 589.144531 610.679688 588.960938 611.167969 588.871094 Z M 662.722656 579 L 699.542969 571.949219 C 700.03125 571.855469 700.519531 571.859375 701.007812 571.960938 C 701.496094 572.0625 701.945312 572.25 702.355469 572.53125 C 702.765625 572.808594 703.109375 573.15625 703.382812 573.574219 C 703.65625 573.988281 703.839844 574.441406 703.933594 574.929688 C 704.027344 575.417969 704.023438 575.902344 703.921875 576.390625 C 703.820312 576.878906 703.632812 577.328125 703.351562 577.738281 C 703.074219 578.152344 702.726562 578.492188 702.308594 578.765625 C 701.894531 579.039062 701.441406 579.222656 700.953125 579.316406 L 664.132812 586.367188 C 663.644531 586.460938 663.15625 586.457031 662.667969 586.355469 C 662.179688 586.253906 661.730469 586.066406 661.320312 585.785156 C 660.910156 585.507812 660.566406 585.160156 660.292969 584.742188 C 660.019531 584.328125 659.835938 583.875 659.742188 583.386719 C 659.648438 582.898438 659.652344 582.410156 659.753906 581.925781 C 659.855469 581.4375 660.042969 580.988281 660.324219 580.578125 C 660.601562 580.164062 660.949219 579.824219 661.363281 579.550781 C 661.78125 579.277344 662.230469 579.09375 662.722656 579 Z M 662.722656 579 " fill-opacity="1" fill-rule="nonzero"/><path stroke-linecap="round" transform="matrix(0.416814, -0.623419, 0.623483, 0.416856, 387.978163, 1048.333714)" fill="none" stroke-linejoin="miter" d="M 6.4974 6.498836 L 760.580075 6.499799 " stroke="#000000" stroke-width="13" stroke-opacity="1" stroke-miterlimit="4"/><path stroke-linecap="round" transform="matrix(-0.744587, 0.0915364, -0.0915128, -0.744396, 1342.268246, 503.109537)" fill="none" stroke-linejoin="miter" d="M 6.50227 6.498616 L 844.293165 6.49974 " stroke="#000000" stroke-width="13" stroke-opacity="1" stroke-miterlimit="4"/><path fill="#000000" d="M 945.871094 78.183594 L 930.140625 112.246094 C 929.929688 112.699219 929.644531 113.09375 929.277344 113.429688 C 928.914062 113.765625 928.496094 114.023438 928.03125 114.195312 C 927.5625 114.367188 927.082031 114.441406 926.585938 114.421875 C 926.089844 114.402344 925.613281 114.289062 925.164062 114.078125 C 924.710938 113.871094 924.316406 113.585938 923.980469 113.21875 C 923.640625 112.855469 923.386719 112.4375 923.214844 111.96875 C 923.042969 111.503906 922.96875 111.023438 922.988281 110.523438 C 923.007812 110.027344 923.121094 109.554688 923.332031 109.101562 L 939.0625 75.039062 C 939.269531 74.585938 939.558594 74.191406 939.921875 73.855469 C 940.289062 73.515625 940.703125 73.261719 941.171875 73.089844 C 941.636719 72.917969 942.117188 72.84375 942.617188 72.863281 C 943.113281 72.882812 943.585938 72.996094 944.039062 73.203125 C 944.488281 73.414062 944.882812 73.699219 945.222656 74.066406 C 945.558594 74.429688 945.8125 74.847656 945.984375 75.3125 C 946.15625 75.78125 946.234375 76.261719 946.214844 76.757812 C 946.191406 77.257812 946.078125 77.730469 945.871094 78.183594 Z M 923.847656 125.871094 L 908.117188 159.933594 C 907.910156 160.386719 907.621094 160.78125 907.257812 161.117188 C 906.890625 161.457031 906.476562 161.710938 906.007812 161.882812 C 905.542969 162.054688 905.058594 162.128906 904.5625 162.109375 C 904.066406 162.089844 903.589844 161.976562 903.140625 161.769531 C 902.6875 161.558594 902.292969 161.273438 901.957031 160.90625 C 901.621094 160.542969 901.363281 160.125 901.195312 159.660156 C 901.023438 159.191406 900.945312 158.710938 900.964844 158.214844 C 900.984375 157.714844 901.101562 157.242188 901.308594 156.789062 L 917.039062 122.726562 C 917.246094 122.273438 917.535156 121.878906 917.898438 121.542969 C 918.265625 121.207031 918.679688 120.949219 919.148438 120.777344 C 919.613281 120.605469 920.097656 120.53125 920.59375 120.550781 C 921.089844 120.570312 921.566406 120.683594 922.015625 120.894531 C 922.46875 121.101562 922.863281 121.386719 923.199219 121.753906 C 923.535156 122.117188 923.792969 122.535156 923.964844 123.003906 C 924.132812 123.46875 924.210938 123.949219 924.191406 124.449219 C 924.171875 124.945312 924.054688 125.417969 923.847656 125.871094 Z M 901.824219 173.558594 L 886.09375 207.621094 C 885.886719 208.074219 885.601562 208.46875 885.234375 208.804688 C 884.867188 209.144531 884.453125 209.398438 883.984375 209.570312 C 883.519531 209.742188 883.039062 209.820312 882.539062 209.800781 C 882.042969 209.78125 881.570312 209.664062 881.117188 209.457031 C 880.667969 209.25 880.273438 208.960938 879.933594 208.597656 C 879.597656 208.230469 879.34375 207.8125 879.171875 207.347656 C 879 206.878906 878.921875 206.398438 878.945312 205.902344 C 878.964844 205.40625 879.078125 204.929688 879.285156 204.476562 L 895.015625 170.414062 C 895.226562 169.964844 895.511719 169.570312 895.878906 169.230469 C 896.242188 168.894531 896.660156 168.640625 897.125 168.46875 C 897.59375 168.296875 898.074219 168.21875 898.570312 168.238281 C 899.070312 168.257812 899.542969 168.371094 899.992188 168.582031 C 900.445312 168.789062 900.839844 169.078125 901.175781 169.441406 C 901.515625 169.808594 901.769531 170.222656 901.941406 170.691406 C 902.113281 171.15625 902.1875 171.640625 902.167969 172.136719 C 902.148438 172.632812 902.035156 173.109375 901.824219 173.558594 Z M 879.804688 221.246094 L 864.074219 255.3125 C 863.863281 255.761719 863.578125 256.15625 863.210938 256.496094 C 862.847656 256.832031 862.429688 257.085938 861.964844 257.257812 C 861.496094 257.429688 861.015625 257.507812 860.519531 257.488281 C 860.019531 257.46875 859.546875 257.355469 859.09375 257.144531 C 858.644531 256.9375 858.25 256.648438 857.914062 256.285156 C 857.574219 255.917969 857.320312 255.503906 857.148438 255.035156 C 856.976562 254.570312 856.902344 254.085938 856.921875 253.589844 C 856.941406 253.09375 857.054688 252.617188 857.265625 252.167969 L 872.996094 218.105469 C 873.203125 217.652344 873.488281 217.257812 873.855469 216.917969 C 874.222656 216.582031 874.636719 216.328125 875.105469 216.15625 C 875.570312 215.984375 876.050781 215.90625 876.550781 215.925781 C 877.046875 215.945312 877.519531 216.0625 877.972656 216.269531 C 878.421875 216.476562 878.816406 216.765625 879.15625 217.128906 C 879.492188 217.496094 879.746094 217.910156 879.917969 218.378906 C 880.089844 218.84375 880.167969 219.328125 880.144531 219.824219 C 880.125 220.320312 880.011719 220.796875 879.804688 221.246094 Z M 857.78125 268.9375 L 842.050781 303 C 841.84375 303.453125 841.554688 303.847656 841.191406 304.183594 C 840.824219 304.519531 840.40625 304.777344 839.941406 304.949219 C 839.476562 305.121094 838.992188 305.195312 838.496094 305.175781 C 838 305.15625 837.523438 305.042969 837.074219 304.832031 C 836.621094 304.625 836.226562 304.339844 835.890625 303.972656 C 835.554688 303.605469 835.296875 303.191406 835.125 302.722656 C 834.953125 302.257812 834.878906 301.777344 834.898438 301.277344 C 834.917969 300.78125 835.03125 300.308594 835.242188 299.855469 L 850.972656 265.792969 C 851.179688 265.339844 851.46875 264.945312 851.832031 264.609375 C 852.199219 264.269531 852.613281 264.015625 853.082031 263.84375 C 853.546875 263.671875 854.03125 263.597656 854.527344 263.617188 C 855.023438 263.636719 855.5 263.75 855.949219 263.957031 C 856.402344 264.167969 856.796875 264.453125 857.132812 264.820312 C 857.46875 265.183594 857.722656 265.601562 857.894531 266.066406 C 858.066406 266.535156 858.144531 267.015625 858.125 267.511719 C 858.105469 268.011719 857.988281 268.484375 857.78125 268.9375 Z M 835.757812 316.625 L 820.027344 350.6875 C 819.820312 351.140625 819.53125 351.535156 819.167969 351.871094 C 818.800781 352.210938 818.386719 352.464844 817.917969 352.636719 C 817.453125 352.808594 816.96875 352.882812 816.472656 352.863281 C 815.976562 352.84375 815.503906 352.730469 815.050781 352.523438 C 814.597656 352.3125 814.207031 352.027344 813.867188 351.660156 C 813.53125 351.296875 813.277344 350.878906 813.105469 350.414062 C 812.933594 349.945312 812.855469 349.464844 812.875 348.964844 C 812.898438 348.46875 813.011719 347.996094 813.21875 347.542969 L 828.949219 313.480469 C 829.160156 313.027344 829.445312 312.632812 829.8125 312.296875 C 830.175781 311.957031 830.59375 311.703125 831.058594 311.53125 C 831.527344 311.359375 832.007812 311.285156 832.503906 311.304688 C 833 311.324219 833.476562 311.4375 833.925781 311.644531 C 834.378906 311.855469 834.773438 312.140625 835.109375 312.507812 C 835.449219 312.871094 835.703125 313.289062 835.875 313.753906 C 836.046875 314.222656 836.121094 314.703125 836.101562 315.203125 C 836.082031 315.699219 835.96875 316.171875 835.757812 316.625 Z M 813.738281 364.3125 L 798.007812 398.375 C 797.796875 398.828125 797.511719 399.222656 797.144531 399.558594 C 796.78125 399.898438 796.363281 400.152344 795.898438 400.324219 C 795.429688 400.496094 794.949219 400.574219 794.453125 400.554688 C 793.953125 400.53125 793.480469 400.417969 793.027344 400.210938 C 792.578125 400 792.183594 399.714844 791.84375 399.347656 C 791.507812 398.984375 791.253906 398.566406 791.082031 398.101562 C 790.910156 397.632812 790.835938 397.152344 790.855469 396.65625 C 790.875 396.15625 790.988281 395.683594 791.195312 395.230469 L 806.925781 361.167969 C 807.136719 360.71875 807.421875 360.324219 807.789062 359.984375 C 808.152344 359.648438 808.570312 359.394531 809.035156 359.21875 C 809.503906 359.046875 809.984375 358.972656 810.480469 358.992188 C 810.980469 359.011719 811.453125 359.125 811.90625 359.335938 C 812.355469 359.542969 812.75 359.832031 813.089844 360.195312 C 813.425781 360.5625 813.679688 360.976562 813.851562 361.445312 C 814.023438 361.910156 814.097656 362.394531 814.078125 362.890625 C 814.058594 363.386719 813.945312 363.863281 813.738281 364.3125 Z M 791.714844 412 L 775.984375 446.066406 C 775.773438 446.515625 775.488281 446.910156 775.121094 447.25 C 774.757812 447.585938 774.339844 447.839844 773.875 448.011719 C 773.40625 448.183594 772.925781 448.261719 772.429688 448.242188 C 771.933594 448.222656 771.457031 448.105469 771.007812 447.898438 C 770.554688 447.691406 770.160156 447.402344 769.824219 447.039062 C 769.484375 446.671875 769.230469 446.257812 769.058594 445.789062 C 768.886719 445.324219 768.8125 444.839844 768.832031 444.34375 C 768.851562 443.847656 768.964844 443.371094 769.175781 442.921875 L 784.90625 408.855469 C 785.113281 408.40625 785.402344 408.011719 785.765625 407.671875 C 786.132812 407.335938 786.546875 407.082031 787.015625 406.910156 C 787.480469 406.738281 787.964844 406.660156 788.460938 406.679688 C 788.957031 406.699219 789.429688 406.816406 789.882812 407.023438 C 790.335938 407.230469 790.730469 407.519531 791.066406 407.882812 C 791.402344 408.25 791.65625 408.664062 791.828125 409.132812 C 792 409.597656 792.078125 410.082031 792.058594 410.578125 C 792.035156 411.074219 791.921875 411.550781 791.714844 412 Z M 769.691406 459.691406 L 753.960938 493.753906 C 753.753906 494.203125 753.464844 494.597656 753.101562 494.9375 C 752.734375 495.273438 752.320312 495.527344 751.851562 495.703125 C 751.386719 495.875 750.902344 495.949219 750.40625 495.929688 C 749.910156 495.910156 749.4375 495.796875 748.984375 495.585938 C 748.53125 495.378906 748.136719 495.09375 747.800781 494.726562 C 747.464844 494.359375 747.210938 493.945312 747.039062 493.476562 C 746.867188 493.011719 746.789062 492.527344 746.808594 492.03125 C 746.828125 491.535156 746.945312 491.058594 747.152344 490.609375 L 762.882812 456.546875 C 763.089844 456.09375 763.378906 455.699219 763.742188 455.363281 C 764.109375 455.023438 764.527344 454.769531 764.992188 454.597656 C 765.460938 454.425781 765.941406 454.347656 766.4375 454.367188 C 766.933594 454.390625 767.410156 454.503906 767.859375 454.710938 C 768.3125 454.921875 768.707031 455.207031 769.042969 455.574219 C 769.378906 455.9375 769.636719 456.355469 769.808594 456.820312 C 769.980469 457.289062 770.054688 457.769531 770.035156 458.265625 C 770.015625 458.765625 769.902344 459.238281 769.691406 459.691406 Z M 747.667969 507.378906 L 731.9375 541.441406 C 731.730469 541.894531 731.445312 542.289062 731.078125 542.625 C 730.710938 542.964844 730.296875 543.21875 729.828125 543.390625 C 729.363281 543.5625 728.882812 543.636719 728.382812 543.617188 C 727.886719 543.597656 727.414062 543.484375 726.960938 543.277344 C 726.511719 543.066406 726.117188 542.78125 725.777344 542.414062 C 725.441406 542.050781 725.1875 541.632812 725.015625 541.167969 C 724.84375 540.699219 724.769531 540.21875 724.789062 539.71875 C 724.808594 539.222656 724.921875 538.75 725.128906 538.296875 L 740.859375 504.234375 C 741.070312 503.78125 741.355469 503.386719 741.722656 503.050781 C 742.085938 502.710938 742.503906 502.457031 742.96875 502.285156 C 743.4375 502.113281 743.917969 502.039062 744.414062 502.058594 C 744.914062 502.078125 745.386719 502.191406 745.839844 502.398438 C 746.289062 502.609375 746.683594 502.894531 747.019531 503.261719 C 747.359375 503.625 747.613281 504.042969 747.785156 504.507812 C 747.957031 504.976562 748.03125 505.457031 748.011719 505.957031 C 747.992188 506.453125 747.878906 506.925781 747.667969 507.378906 Z M 725.648438 555.066406 L 716.644531 574.5625 C 716.433594 575.015625 716.148438 575.410156 715.78125 575.75 C 715.417969 576.085938 715 576.339844 714.535156 576.511719 C 714.066406 576.683594 713.585938 576.761719 713.089844 576.742188 C 712.589844 576.722656 712.117188 576.605469 711.664062 576.398438 C 711.214844 576.191406 710.820312 575.902344 710.484375 575.539062 C 710.144531 575.171875 709.890625 574.753906 709.71875 574.289062 C 709.546875 573.820312 709.472656 573.339844 709.492188 572.84375 C 709.511719 572.347656 709.625 571.871094 709.835938 571.417969 L 718.839844 551.921875 C 719.046875 551.472656 719.332031 551.074219 719.699219 550.738281 C 720.066406 550.402344 720.480469 550.144531 720.949219 549.972656 C 721.414062 549.800781 721.894531 549.726562 722.394531 549.746094 C 722.890625 549.765625 723.363281 549.878906 723.816406 550.089844 C 724.265625 550.296875 724.660156 550.582031 725 550.949219 C 725.335938 551.316406 725.589844 551.730469 725.761719 552.199219 C 725.933594 552.664062 726.011719 553.144531 725.988281 553.644531 C 725.96875 554.140625 725.855469 554.613281 725.648438 555.066406 Z M 725.648438 555.066406 " fill-opacity="1" fill-rule="nonzero"/><path stroke-linecap="round" transform="matrix(0.648946, -0.375312, 0.375483, 0.64924, 474.217144, 340.782841)" fill="none" stroke-linejoin="miter" d="M 6.499507 6.498374 L 717.842384 6.503303 " stroke="#000000" stroke-width="13" stroke-opacity="1" stroke-miterlimit="4"/><path stroke-linecap="round" transform="matrix(0.738007, 0.131832, -0.131886, 0.738313, 477.51568, 335.855106)" fill="none" stroke-linejoin="miter" d="M 6.50221 6.500518 L 1163.995021 6.500151 " stroke="#000000" stroke-width="13" stroke-opacity="1" stroke-miterlimit="4"/><path stroke-linecap="round" transform="matrix(0.514284, 0.546425, -0.546149, 0.514024, 943.80792, 69.722787)" fill="none" stroke-linejoin="miter" d="M 6.502131 6.500611 L 766.113116 6.500282 " stroke="#000000" stroke-width="13" stroke-opacity="1" stroke-miterlimit="4"/><path stroke-linecap="round" transform="matrix(0.167771, 0.730649, -0.730977, 0.167846, 303.244313, 646.668428)" fill="none" stroke-linejoin="miter" d="M 6.498484 6.501623 L 550.765259 6.501038 " stroke="#000000" stroke-width="13" stroke-opacity="1" stroke-miterlimit="4"/><path stroke-linecap="round" transform="matrix(-0.381585, 0.644921, -0.645477, -0.381915, 489.682695, 339.007919)" fill="none" stroke-linejoin="miter" d="M 6.500785 6.497946 L 482.929973 6.501529 " stroke="#000000" stroke-width="13" stroke-opacity="1" stroke-miterlimit="4"/><path stroke-linecap="round" transform="matrix(-0.0924999, 0.744089, -0.744271, -0.0925225, 485.616784, 337.127764)" fill="none" stroke-linejoin="miter" d="M 6.500126 6.497411 L 952.744513 6.502475 " stroke="#000000" stroke-width="13" stroke-opacity="1" stroke-miterlimit="4"/></svg>