<svg xmlns="http://www.w3.org/2000/svg" xmlns:xlink="http://www.w3.org/1999/xlink" width="2000" zoomAndPan="magnify" viewBox="0 0 1500 1124.99995" height="1500" preserveAspectRatio="xMidYMid meet" version="1.0"><defs><g/><clipPath id="b3f0274bd2"><path d="M 203 459 L 972 459 L 972 865.277344 L 203 865.277344 Z M 203 459 " clip-rule="nonzero"/></clipPath><clipPath id="4663227e60"><path d="M 966 312 L 1192 312 L 1192 865.277344 L 966 865.277344 Z M 966 312 " clip-rule="nonzero"/></clipPath><clipPath id="4cf0fc56ee"><path d="M 969.800781 319.652344 L 1184.503906 319.652344 L 1184.503906 858.308594 L 969.800781 858.308594 Z M 969.800781 319.652344 " clip-rule="nonzero"/></clipPath><clipPath id="e04a3788bc"><path d="M 1184.503906 713.050781 L 1184.503906 319.652344 L 969.800781 464.910156 L 969.800781 858.308594 L 1184.503906 713.050781 " clip-rule="nonzero"/></clipPath><clipPath id="eb244f2437"><path d="M 953.886719 842.875 L 985.726562 842.875 L 985.726562 874.714844 L 953.886719 874.714844 Z M 953.886719 842.875 " clip-rule="nonzero"/></clipPath><clipPath id="b8010e033b"><path d="M 969.804688 842.875 C 961.011719 842.875 953.886719 850.003906 953.886719 858.796875 C 953.886719 867.589844 961.011719 874.714844 969.804688 874.714844 C 978.597656 874.714844 985.726562 867.589844 985.726562 858.796875 C 985.726562 850.003906 978.597656 842.875 969.804688 842.875 " clip-rule="nonzero"/></clipPath></defs><rect x="-150" width="1800" fill="#ffffff" y="-112.499995" height="1349.99994" fill-opacity="1"/><rect x="-150" width="1800" fill="#ffffff" y="-112.499995" height="1349.99994" fill-opacity="1"/><path fill="#ffffff" d="M 205.828125 462.398438 L 969.253906 462.398438 L 969.253906 862.417969 L 205.828125 862.417969 Z M 205.828125 462.398438 " fill-opacity="1" fill-rule="evenodd"/><g clip-path="url(#b3f0274bd2)"><path stroke-linecap="round" transform="matrix(2.462658, 0, 0, 2.460518, -31133.963446, 68.715238)" fill="none" stroke-linejoin="round" d="M 12725.99988 160.000102 L 13036.00055 160.000102 L 13036.00055 322.575406 L 12725.99988 322.575406 Z M 12725.99988 160.000102 " stroke="#000000" stroke-width="2.18" stroke-opacity="1" stroke-miterlimit="1.5"/></g><path stroke-linecap="round" transform="matrix(2.462658, 0, 0, 2.460518, -30998.515377, 60.223979)" fill-opacity="1" fill="#ffffff" fill-rule="evenodd" stroke-linejoin="round" d="M 12671.000714 163.451106 L 12760.30017 103.450412 L 13070.299254 103.450412 L 12980.999798 163.451106 Z M 12671.000714 163.451106 " stroke="#000000" stroke-width="2.18" stroke-opacity="1" stroke-miterlimit="1.5"/><path fill="#ffffff" d="M 969.253906 862.417969 L 1189.167969 713.707031 L 1189.167969 314.765625 L 969.253906 462.398438 Z M 969.253906 862.417969 " fill-opacity="1" fill-rule="evenodd"/><g clip-path="url(#4663227e60)"><path stroke-linecap="round" transform="matrix(2.462658, 0, 0, 2.460518, -30998.515377, 60.223979)" fill="none" stroke-linejoin="round" d="M 12980.999798 326.02641 L 13070.299254 265.587546 L 13070.299254 103.450412 L 12980.999798 163.451106 Z M 12980.999798 326.02641 " stroke="#000000" stroke-width="2.18" stroke-opacity="1" stroke-miterlimit="1.5"/></g><path fill="#000000" d="M 1174.640625 716.160156 L 1186.707031 716.160156 L 1186.707031 711.25 L 1174.640625 711.25 Z M 791.203125 716.160156 L 810.90625 716.160156 L 810.90625 711.25 L 791.203125 711.25 Z M 997.574219 716.160156 L 1017.277344 716.160156 L 1017.277344 711.25 L 997.574219 711.25 Z M 968.269531 716.160156 L 987.96875 716.160156 L 987.96875 711.25 L 968.269531 711.25 Z M 820.757812 716.160156 L 840.457031 716.160156 L 840.457031 711.25 L 820.757812 711.25 Z M 761.652344 716.160156 L 781.355469 716.160156 L 781.355469 711.25 L 761.652344 711.25 Z M 1027.125 716.160156 L 1046.828125 716.160156 L 1046.828125 711.25 L 1027.125 711.25 Z M 555.035156 716.160156 L 574.734375 716.160156 L 574.734375 711.25 L 555.035156 711.25 Z M 614.136719 716.160156 L 633.839844 716.160156 L 633.839844 711.25 L 614.136719 711.25 Z M 643.691406 716.160156 L 663.390625 716.160156 L 663.390625 711.25 L 643.691406 711.25 Z M 673.242188 716.160156 L 692.945312 716.160156 L 692.945312 711.25 L 673.242188 711.25 Z M 702.550781 716.160156 L 722.25 716.160156 L 722.25 711.25 L 702.550781 711.25 Z M 732.101562 716.160156 L 751.800781 716.160156 L 751.800781 711.25 L 732.101562 711.25 Z M 850.0625 716.160156 L 869.761719 716.160156 L 869.761719 711.25 L 850.0625 711.25 Z M 938.714844 716.160156 L 958.417969 716.160156 L 958.417969 711.25 L 938.714844 711.25 Z M 1056.679688 716.160156 L 1076.378906 716.160156 L 1076.378906 711.25 L 1056.679688 711.25 Z M 1086.230469 716.160156 L 1105.933594 716.160156 L 1105.933594 711.25 L 1086.230469 711.25 Z M 1115.78125 716.160156 L 1135.484375 716.160156 L 1135.484375 711.25 L 1115.78125 711.25 Z M 437.074219 716.160156 L 456.777344 716.160156 L 456.777344 711.25 L 437.074219 711.25 Z M 584.585938 716.160156 L 604.289062 716.160156 L 604.289062 711.25 L 584.585938 711.25 Z M 909.164062 716.160156 L 928.867188 716.160156 L 928.867188 711.25 L 909.164062 711.25 Z M 496.179688 716.160156 L 515.878906 716.160156 L 515.878906 711.25 L 496.179688 711.25 Z M 466.625 716.160156 L 486.328125 716.160156 L 486.328125 711.25 L 466.625 711.25 Z M 525.730469 716.160156 L 545.433594 716.160156 L 545.433594 711.25 L 525.730469 711.25 Z M 879.613281 716.160156 L 899.3125 716.160156 L 899.3125 711.25 L 879.613281 711.25 Z M 1145.089844 716.160156 L 1164.789062 716.160156 L 1164.789062 711.25 L 1145.089844 711.25 Z M 423.28125 695.515625 L 423.28125 715.167969 L 428.207031 715.167969 L 428.207031 695.515625 Z M 423.28125 666.039062 L 423.28125 685.691406 L 428.207031 685.691406 L 428.207031 666.039062 Z M 423.28125 636.5625 L 423.28125 656.214844 L 428.207031 656.214844 L 428.207031 636.5625 Z M 423.28125 607.085938 L 423.28125 626.734375 L 428.207031 626.734375 L 428.207031 607.085938 Z M 423.28125 577.605469 L 423.28125 597.257812 L 428.207031 597.257812 L 428.207031 577.605469 Z M 423.28125 548.128906 L 423.28125 567.78125 L 428.207031 567.78125 L 428.207031 548.128906 Z M 423.28125 518.652344 L 423.28125 538.304688 L 428.207031 538.304688 L 428.207031 518.652344 Z M 423.28125 489.175781 L 423.28125 508.828125 L 428.207031 508.828125 L 428.207031 489.175781 Z M 423.28125 459.699219 L 423.28125 479.347656 L 428.207031 479.347656 L 428.207031 459.699219 Z M 423.28125 430.21875 L 423.28125 449.871094 L 428.207031 449.871094 L 428.207031 430.21875 Z M 423.28125 400.742188 L 423.28125 420.394531 L 428.207031 420.394531 L 428.207031 400.742188 Z M 423.28125 371.265625 L 423.28125 390.917969 L 428.207031 390.917969 L 428.207031 371.265625 Z M 423.28125 341.789062 L 423.28125 361.441406 L 428.207031 361.441406 L 428.207031 341.789062 Z M 423.28125 317.234375 L 423.28125 331.960938 L 428.207031 331.960938 L 428.207031 317.234375 Z M 423.28125 317.234375 " fill-opacity="1" fill-rule="evenodd"/><path fill="#000000" d="M 208.507812 862.417969 L 224.761719 851.410156 L 222.054688 847.339844 L 205.796875 858.351562 Z M 233.132812 845.902344 L 249.386719 834.890625 L 246.679688 830.820312 L 230.179688 841.832031 Z M 257.511719 829.382812 L 273.769531 818.371094 L 271.058594 814.300781 L 254.804688 825.316406 Z M 281.894531 812.867188 L 298.148438 801.855469 L 295.441406 797.785156 L 279.1875 808.796875 Z M 306.277344 796.347656 L 322.527344 785.335938 L 319.820312 781.265625 L 303.566406 792.28125 Z M 330.65625 779.828125 L 347.15625 768.816406 L 344.199219 764.75 L 327.945312 775.761719 Z M 355.28125 763.3125 L 371.535156 752.300781 L 368.828125 748.230469 L 352.324219 759.242188 Z M 379.664062 746.792969 L 395.914062 735.78125 L 393.207031 731.710938 L 376.953125 742.726562 Z M 404.042969 730.273438 L 420.296875 719.265625 L 417.585938 715.195312 L 401.332031 726.207031 Z M 404.042969 730.273438 " fill-opacity="1" fill-rule="evenodd"/><path stroke-linecap="round" transform="matrix(0.75032, 0, 0, 0.75, 422.006589, 310.651828)" fill="none" stroke-linejoin="miter" d="M 5.999075 6.000689 L 1020.566778 6.000689 " stroke="#5e17eb" stroke-width="12" stroke-opacity="1" stroke-miterlimit="4"/><g clip-path="url(#4cf0fc56ee)"><g clip-path="url(#e04a3788bc)"><path fill="#00ff4e" d="M 1184.503906 319.652344 L 1184.503906 858.308594 L 969.800781 858.308594 L 969.800781 319.652344 Z M 1184.503906 319.652344 " fill-opacity="1" fill-rule="nonzero"/></g></g><g clip-path="url(#eb244f2437)"><g clip-path="url(#b8010e033b)"><path fill="#1e76e9" d="M 953.886719 842.875 L 985.726562 842.875 L 985.726562 874.714844 L 953.886719 874.714844 Z M 953.886719 842.875 " fill-opacity="1" fill-rule="nonzero"/></g></g><g fill="#5e17eb" fill-opacity="1"><g transform="translate(675.793778, 287.051674)"><g><path d="M 15.375 0.625 C 13.125 0.625 11.066406 0.363281 9.203125 -0.15625 C 7.335938 -0.6875 5.742188 -1.410156 4.421875 -2.328125 C 3.097656 -3.253906 2.117188 -4.316406 1.484375 -5.515625 L 6.078125 -10.453125 L 6.703125 -10.453125 C 7.796875 -8.984375 9.085938 -7.878906 10.578125 -7.140625 C 12.066406 -6.410156 13.679688 -6.046875 15.421875 -6.046875 C 17.035156 -6.046875 18.25 -6.332031 19.0625 -6.90625 C 19.875 -7.488281 20.28125 -8.3125 20.28125 -9.375 C 20.28125 -10.21875 19.988281 -10.921875 19.40625 -11.484375 C 18.820312 -12.046875 17.875 -12.488281 16.5625 -12.8125 L 12.21875 -13.84375 C 8.957031 -14.625 6.578125 -15.8125 5.078125 -17.40625 C 3.578125 -19.007812 2.828125 -21.039062 2.828125 -23.5 C 2.828125 -25.539062 3.347656 -27.316406 4.390625 -28.828125 C 5.429688 -30.335938 6.898438 -31.488281 8.796875 -32.28125 C 10.691406 -33.082031 12.898438 -33.484375 15.421875 -33.484375 C 18.378906 -33.484375 20.832031 -33.054688 22.78125 -32.203125 C 24.726562 -31.347656 26.25 -30.203125 27.34375 -28.765625 L 22.9375 -24 L 22.34375 -24 C 21.425781 -25.039062 20.394531 -25.796875 19.25 -26.265625 C 18.113281 -26.742188 16.835938 -26.984375 15.421875 -26.984375 C 12.171875 -26.984375 10.546875 -25.972656 10.546875 -23.953125 C 10.546875 -23.097656 10.847656 -22.398438 11.453125 -21.859375 C 12.054688 -21.328125 13.125 -20.890625 14.65625 -20.546875 L 18.703125 -19.65625 C 22.035156 -18.945312 24.472656 -17.800781 26.015625 -16.21875 C 27.554688 -14.632812 28.328125 -12.515625 28.328125 -9.859375 C 28.328125 -7.773438 27.8125 -5.9375 26.78125 -4.34375 C 25.75 -2.757812 24.257812 -1.535156 22.3125 -0.671875 C 20.363281 0.191406 18.050781 0.625 15.375 0.625 Z M 15.375 0.625 "/></g></g></g><g fill="#5e17eb" fill-opacity="1"><g transform="translate(706.083345, 287.051674)"><g><path d="M 4.734375 13.3125 L 4.734375 -32.859375 L 12.984375 -32.859375 L 12.984375 -28.5625 L 13.609375 -28.4375 C 14.585938 -30.113281 15.890625 -31.375 17.515625 -32.21875 C 19.140625 -33.0625 21.046875 -33.484375 23.234375 -33.484375 C 25.867188 -33.484375 28.175781 -32.851562 30.15625 -31.59375 C 32.132812 -30.34375 33.671875 -28.441406 34.765625 -25.890625 C 35.867188 -23.347656 36.421875 -20.1875 36.421875 -16.40625 C 36.421875 -12.65625 35.835938 -9.507812 34.671875 -6.96875 C 33.515625 -4.425781 31.90625 -2.523438 29.84375 -1.265625 C 27.78125 -0.00390625 25.398438 0.625 22.703125 0.625 C 20.648438 0.625 18.878906 0.28125 17.390625 -0.40625 C 15.898438 -1.09375 14.640625 -2.160156 13.609375 -3.609375 L 12.984375 -3.484375 L 12.984375 13.3125 Z M 20.40625 -6.375 C 22.863281 -6.375 24.726562 -7.175781 26 -8.78125 C 27.269531 -10.394531 27.90625 -12.9375 27.90625 -16.40625 C 27.90625 -19.882812 27.269531 -22.429688 26 -24.046875 C 24.726562 -25.671875 22.863281 -26.484375 20.40625 -26.484375 C 18.101562 -26.484375 16.273438 -25.644531 14.921875 -23.96875 C 13.566406 -22.300781 12.890625 -19.78125 12.890625 -16.40625 C 12.890625 -13.050781 13.566406 -10.539062 14.921875 -8.875 C 16.273438 -7.207031 18.101562 -6.375 20.40625 -6.375 Z M 20.40625 -6.375 "/></g></g></g><g fill="#5e17eb" fill-opacity="1"><g transform="translate(745.427019, 287.051674)"><g><path d="M 8.84375 -36.78125 C 7.351562 -36.78125 6.140625 -37.234375 5.203125 -38.140625 C 4.273438 -39.046875 3.8125 -40.210938 3.8125 -41.640625 C 3.8125 -43.046875 4.273438 -44.203125 5.203125 -45.109375 C 6.140625 -46.015625 7.351562 -46.46875 8.84375 -46.46875 C 9.832031 -46.46875 10.710938 -46.257812 11.484375 -45.84375 C 12.265625 -45.425781 12.867188 -44.851562 13.296875 -44.125 C 13.722656 -43.40625 13.9375 -42.578125 13.9375 -41.640625 C 13.9375 -40.703125 13.722656 -39.863281 13.296875 -39.125 C 12.867188 -38.394531 12.265625 -37.820312 11.484375 -37.40625 C 10.710938 -36.988281 9.832031 -36.78125 8.84375 -36.78125 Z M 4.734375 0 L 4.734375 -32.859375 L 12.984375 -32.859375 L 12.984375 0 Z M 4.734375 0 "/></g></g></g><g fill="#5e17eb" fill-opacity="1"><g transform="translate(763.118267, 287.051674)"><g><path d="M 17.03125 13.9375 C 11.613281 13.9375 7.613281 13.140625 5.03125 11.546875 C 2.445312 9.960938 1.15625 7.753906 1.15625 4.921875 C 1.15625 3.191406 1.707031 1.773438 2.8125 0.671875 C 3.914062 -0.429688 5.5 -1.171875 7.5625 -1.546875 L 7.5625 -2.171875 C 6.445312 -2.847656 5.644531 -3.597656 5.15625 -4.421875 C 4.675781 -5.242188 4.4375 -6.203125 4.4375 -7.296875 C 4.4375 -9.941406 6.15625 -11.71875 9.59375 -12.625 L 9.59375 -13.25 C 7.820312 -14.269531 6.488281 -15.523438 5.59375 -17.015625 C 4.707031 -18.515625 4.265625 -20.328125 4.265625 -22.453125 C 4.265625 -24.640625 4.765625 -26.5625 5.765625 -28.21875 C 6.765625 -29.875 8.234375 -31.164062 10.171875 -32.09375 C 12.109375 -33.019531 14.425781 -33.484375 17.125 -33.484375 C 19.863281 -33.484375 22.046875 -33.003906 23.671875 -32.046875 C 24.691406 -33.515625 25.28125 -35.210938 25.4375 -37.140625 L 26.0625 -37.53125 L 31.984375 -36.0625 C 31.804688 -34.5 31.347656 -33.1875 30.609375 -32.125 C 29.878906 -31.0625 28.738281 -30.113281 27.1875 -29.28125 L 27.1875 -28.625 C 29.039062 -27 29.96875 -24.722656 29.96875 -21.796875 C 29.96875 -19.773438 29.457031 -17.957031 28.4375 -16.34375 C 27.425781 -14.738281 25.953125 -13.46875 24.015625 -12.53125 C 22.085938 -11.601562 19.789062 -11.140625 17.125 -11.140625 L 15.875 -11.171875 C 15.082031 -11.210938 14.523438 -11.234375 14.203125 -11.234375 C 13.453125 -11.234375 12.863281 -11.03125 12.4375 -10.625 C 12.007812 -10.21875 11.796875 -9.695312 11.796875 -9.0625 C 11.796875 -8.363281 12.070312 -7.816406 12.625 -7.421875 C 13.1875 -7.035156 14.003906 -6.828125 15.078125 -6.796875 L 22.421875 -6.515625 C 29.691406 -6.304688 33.328125 -3.179688 33.328125 2.859375 C 33.328125 4.984375 32.785156 6.875 31.703125 8.53125 C 30.617188 10.1875 28.863281 11.5 26.4375 12.46875 C 24.019531 13.445312 20.882812 13.9375 17.03125 13.9375 Z M 17.125 -16.921875 C 18.71875 -16.921875 19.957031 -17.382812 20.84375 -18.3125 C 21.738281 -19.25 22.1875 -20.582031 22.1875 -22.3125 C 22.1875 -24.039062 21.738281 -25.363281 20.84375 -26.28125 C 19.957031 -27.207031 18.71875 -27.671875 17.125 -27.671875 C 15.519531 -27.671875 14.28125 -27.207031 13.40625 -26.28125 C 12.53125 -25.363281 12.09375 -24.039062 12.09375 -22.3125 C 12.09375 -20.5625 12.53125 -19.222656 13.40625 -18.296875 C 14.28125 -17.378906 15.519531 -16.921875 17.125 -16.921875 Z M 17.03125 7.953125 C 19.851562 7.953125 21.90625 7.550781 23.1875 6.75 C 24.46875 5.957031 25.109375 4.925781 25.109375 3.65625 C 25.109375 2.625 24.78125 1.863281 24.125 1.375 C 23.46875 0.894531 22.425781 0.632812 21 0.59375 L 14.5 0.296875 C 14.28125 0.296875 14.078125 0.285156 13.890625 0.265625 C 13.703125 0.242188 13.519531 0.234375 13.34375 0.234375 C 11.957031 0.234375 10.898438 0.53125 10.171875 1.125 C 9.441406 1.726562 9.078125 2.554688 9.078125 3.609375 C 9.078125 4.992188 9.742188 6.0625 11.078125 6.8125 C 12.410156 7.570312 14.394531 7.953125 17.03125 7.953125 Z M 17.03125 7.953125 "/></g></g></g><g fill="#5e17eb" fill-opacity="1"><g transform="translate(797.279657, 287.051674)"><g><path d="M 19.09375 0.625 C 15.875 0.625 13.046875 -0.0351562 10.609375 -1.359375 C 8.179688 -2.679688 6.296875 -4.613281 4.953125 -7.15625 C 3.617188 -9.707031 2.953125 -12.789062 2.953125 -16.40625 C 2.953125 -20.019531 3.617188 -23.109375 4.953125 -25.671875 C 6.296875 -28.234375 8.179688 -30.175781 10.609375 -31.5 C 13.046875 -32.820312 15.875 -33.484375 19.09375 -33.484375 C 22.3125 -33.484375 25.132812 -32.820312 27.5625 -31.5 C 30 -30.175781 31.890625 -28.234375 33.234375 -25.671875 C 34.585938 -23.109375 35.265625 -20.019531 35.265625 -16.40625 C 35.265625 -12.789062 34.585938 -9.707031 33.234375 -7.15625 C 31.890625 -4.613281 30 -2.679688 27.5625 -1.359375 C 25.132812 -0.0351562 22.3125 0.625 19.09375 0.625 Z M 19.09375 -6.375 C 24.195312 -6.375 26.75 -9.71875 26.75 -16.40625 C 26.75 -19.882812 26.09375 -22.429688 24.78125 -24.046875 C 23.46875 -25.671875 21.570312 -26.484375 19.09375 -26.484375 C 13.988281 -26.484375 11.4375 -23.125 11.4375 -16.40625 C 11.4375 -9.71875 13.988281 -6.375 19.09375 -6.375 Z M 19.09375 -6.375 "/></g></g></g><g fill="#5e17eb" fill-opacity="1"><g transform="translate(835.461778, 287.051674)"><g><path d="M 13.640625 0.625 C 10.679688 0.625 8.421875 -0.171875 6.859375 -1.765625 C 5.304688 -3.367188 4.53125 -5.800781 4.53125 -9.0625 L 4.53125 -46.046875 L 12.78125 -46.046875 L 12.78125 -9.375 C 12.78125 -7.375 13.613281 -6.375 15.28125 -6.375 C 15.757812 -6.375 16.265625 -6.453125 16.796875 -6.609375 L 17.21875 -6.5 L 17.953125 -0.15625 C 17.503906 0.0820312 16.898438 0.269531 16.140625 0.40625 C 15.390625 0.550781 14.554688 0.625 13.640625 0.625 Z M 13.640625 0.625 "/></g></g></g><g fill="#5e17eb" fill-opacity="1"><g transform="translate(854.344356, 287.051674)"><g><path d="M 19.09375 0.625 C 15.875 0.625 13.046875 -0.0351562 10.609375 -1.359375 C 8.179688 -2.679688 6.296875 -4.613281 4.953125 -7.15625 C 3.617188 -9.707031 2.953125 -12.789062 2.953125 -16.40625 C 2.953125 -20.019531 3.617188 -23.109375 4.953125 -25.671875 C 6.296875 -28.234375 8.179688 -30.175781 10.609375 -31.5 C 13.046875 -32.820312 15.875 -33.484375 19.09375 -33.484375 C 22.3125 -33.484375 25.132812 -32.820312 27.5625 -31.5 C 30 -30.175781 31.890625 -28.234375 33.234375 -25.671875 C 34.585938 -23.109375 35.265625 -20.019531 35.265625 -16.40625 C 35.265625 -12.789062 34.585938 -9.707031 33.234375 -7.15625 C 31.890625 -4.613281 30 -2.679688 27.5625 -1.359375 C 25.132812 -0.0351562 22.3125 0.625 19.09375 0.625 Z M 19.09375 -6.375 C 24.195312 -6.375 26.75 -9.71875 26.75 -16.40625 C 26.75 -19.882812 26.09375 -22.429688 24.78125 -24.046875 C 23.46875 -25.671875 21.570312 -26.484375 19.09375 -26.484375 C 13.988281 -26.484375 11.4375 -23.125 11.4375 -16.40625 C 11.4375 -9.71875 13.988281 -6.375 19.09375 -6.375 Z M 19.09375 -6.375 "/></g></g></g><g fill="#1e76e9" fill-opacity="1"><g transform="translate(880.933904, 918.695997)"><g><path d="M 22.609375 0 L 12.78125 0 L 0.625 -32.859375 L 9.265625 -32.859375 L 17.421875 -9.4375 L 18.109375 -9.4375 L 26.296875 -32.859375 L 34.734375 -32.859375 Z M 22.609375 0 "/></g></g></g><g fill="#1e76e9" fill-opacity="1"><g transform="translate(916.256834, 918.695997)"><g><path d="M 32.46875 -14.5625 L 11.34375 -14.5625 C 11.582031 -11.707031 12.394531 -9.628906 13.78125 -8.328125 C 15.175781 -7.023438 17.078125 -6.375 19.484375 -6.375 C 21.367188 -6.375 22.894531 -6.722656 24.0625 -7.421875 C 25.238281 -8.128906 26.179688 -9.203125 26.890625 -10.640625 L 27.515625 -10.640625 L 33 -7.125 C 31.925781 -4.8125 30.304688 -2.941406 28.140625 -1.515625 C 25.984375 -0.0859375 23.097656 0.625 19.484375 0.625 C 16.085938 0.625 13.148438 -0.0195312 10.671875 -1.3125 C 8.203125 -2.601562 6.296875 -4.523438 4.953125 -7.078125 C 3.617188 -9.628906 2.953125 -12.738281 2.953125 -16.40625 C 2.953125 -20.144531 3.65625 -23.296875 5.0625 -25.859375 C 6.46875 -28.421875 8.375 -30.332031 10.78125 -31.59375 C 13.1875 -32.851562 15.890625 -33.484375 18.890625 -33.484375 C 23.535156 -33.484375 27.09375 -32.25 29.5625 -29.78125 C 32.03125 -27.320312 33.265625 -23.707031 33.265625 -18.9375 C 33.265625 -17.21875 33.207031 -15.878906 33.09375 -14.921875 Z M 25.375 -19.890625 C 25.300781 -22.398438 24.722656 -24.222656 23.640625 -25.359375 C 22.554688 -26.503906 20.972656 -27.078125 18.890625 -27.078125 C 14.710938 -27.078125 12.257812 -24.679688 11.53125 -19.890625 Z M 25.375 -19.890625 "/></g></g></g><g fill="#1e76e9" fill-opacity="1"><g transform="translate(951.966953, 918.695997)"><g><path d="M 4.734375 0 L 4.734375 -32.859375 L 12.75 -32.859375 L 12.75 -27.96875 L 13.375 -27.84375 C 14.164062 -29.675781 15.207031 -31.019531 16.5 -31.875 C 17.789062 -32.726562 19.359375 -33.15625 21.203125 -33.15625 C 23.066406 -33.15625 24.488281 -32.835938 25.46875 -32.203125 L 24.0625 -25.078125 L 23.4375 -24.953125 C 22.90625 -25.171875 22.390625 -25.328125 21.890625 -25.421875 C 21.390625 -25.523438 20.785156 -25.578125 20.078125 -25.578125 C 17.773438 -25.578125 16.015625 -24.769531 14.796875 -23.15625 C 13.585938 -21.539062 12.984375 -18.945312 12.984375 -15.375 L 12.984375 0 Z M 4.734375 0 "/></g></g></g><g fill="#1e76e9" fill-opacity="1"><g transform="translate(977.729466, 918.695997)"><g><path d="M 22.671875 -7.828125 L 24.8125 -1.734375 C 23.914062 -0.992188 22.789062 -0.414062 21.4375 0 C 20.09375 0.414062 18.566406 0.625 16.859375 0.625 C 13.304688 0.625 10.601562 -0.34375 8.75 -2.28125 C 6.90625 -4.21875 5.984375 -7.03125 5.984375 -10.71875 L 5.984375 -26.328125 L 0.984375 -26.328125 L 0.984375 -32.890625 L 5.984375 -32.890625 L 5.984375 -39.28125 L 14.234375 -40.625 L 14.234375 -32.890625 L 23.5625 -32.890625 L 23.5625 -26.328125 L 14.234375 -26.328125 L 14.234375 -11.3125 C 14.234375 -9.6875 14.570312 -8.5 15.25 -7.75 C 15.925781 -7.007812 16.910156 -6.640625 18.203125 -6.640625 C 19.671875 -6.640625 20.953125 -7.035156 22.046875 -7.828125 Z M 22.671875 -7.828125 "/></g></g></g><g fill="#1e76e9" fill-opacity="1"><g transform="translate(1003.253714, 918.695997)"><g><path d="M 8.84375 -36.78125 C 7.351562 -36.78125 6.140625 -37.234375 5.203125 -38.140625 C 4.273438 -39.046875 3.8125 -40.210938 3.8125 -41.640625 C 3.8125 -43.046875 4.273438 -44.203125 5.203125 -45.109375 C 6.140625 -46.015625 7.351562 -46.46875 8.84375 -46.46875 C 9.832031 -46.46875 10.710938 -46.257812 11.484375 -45.84375 C 12.265625 -45.425781 12.867188 -44.851562 13.296875 -44.125 C 13.722656 -43.40625 13.9375 -42.578125 13.9375 -41.640625 C 13.9375 -40.703125 13.722656 -39.863281 13.296875 -39.125 C 12.867188 -38.394531 12.265625 -37.820312 11.484375 -37.40625 C 10.710938 -36.988281 9.832031 -36.78125 8.84375 -36.78125 Z M 4.734375 0 L 4.734375 -32.859375 L 12.984375 -32.859375 L 12.984375 0 Z M 4.734375 0 "/></g></g></g><g fill="#1e76e9" fill-opacity="1"><g transform="translate(1020.944962, 918.695997)"><g><path d="M 19.15625 0.625 C 15.976562 0.625 13.164062 -0.0351562 10.71875 -1.359375 C 8.28125 -2.679688 6.375 -4.617188 5 -7.171875 C 3.632812 -9.734375 2.953125 -12.8125 2.953125 -16.40625 C 2.953125 -20.019531 3.632812 -23.109375 5 -25.671875 C 6.375 -28.234375 8.269531 -30.175781 10.6875 -31.5 C 13.113281 -32.820312 15.882812 -33.484375 19 -33.484375 C 25.925781 -33.484375 30.363281 -30.96875 32.3125 -25.9375 L 26.65625 -21.890625 L 26.03125 -21.890625 C 25.351562 -23.441406 24.472656 -24.59375 23.390625 -25.34375 C 22.304688 -26.101562 20.84375 -26.484375 19 -26.484375 C 16.613281 -26.484375 14.753906 -25.65625 13.421875 -24 C 12.097656 -22.351562 11.4375 -19.820312 11.4375 -16.40625 C 11.4375 -13.03125 12.109375 -10.515625 13.453125 -8.859375 C 14.804688 -7.203125 16.707031 -6.375 19.15625 -6.375 C 20.9375 -6.375 22.445312 -6.851562 23.6875 -7.8125 C 24.9375 -8.78125 25.828125 -10.164062 26.359375 -11.96875 L 26.984375 -12.03125 L 32.859375 -8.8125 C 32.023438 -6.03125 30.476562 -3.757812 28.21875 -2 C 25.96875 -0.25 22.945312 0.625 19.15625 0.625 Z M 19.15625 0.625 "/></g></g></g><g fill="#1e76e9" fill-opacity="1"><g transform="translate(1054.808519, 918.695997)"><g><path d="M 32.46875 -14.5625 L 11.34375 -14.5625 C 11.582031 -11.707031 12.394531 -9.628906 13.78125 -8.328125 C 15.175781 -7.023438 17.078125 -6.375 19.484375 -6.375 C 21.367188 -6.375 22.894531 -6.722656 24.0625 -7.421875 C 25.238281 -8.128906 26.179688 -9.203125 26.890625 -10.640625 L 27.515625 -10.640625 L 33 -7.125 C 31.925781 -4.8125 30.304688 -2.941406 28.140625 -1.515625 C 25.984375 -0.0859375 23.097656 0.625 19.484375 0.625 C 16.085938 0.625 13.148438 -0.0195312 10.671875 -1.3125 C 8.203125 -2.601562 6.296875 -4.523438 4.953125 -7.078125 C 3.617188 -9.628906 2.953125 -12.738281 2.953125 -16.40625 C 2.953125 -20.144531 3.65625 -23.296875 5.0625 -25.859375 C 6.46875 -28.421875 8.375 -30.332031 10.78125 -31.59375 C 13.1875 -32.851562 15.890625 -33.484375 18.890625 -33.484375 C 23.535156 -33.484375 27.09375 -32.25 29.5625 -29.78125 C 32.03125 -27.320312 33.265625 -23.707031 33.265625 -18.9375 C 33.265625 -17.21875 33.207031 -15.878906 33.09375 -14.921875 Z M 25.375 -19.890625 C 25.300781 -22.398438 24.722656 -24.222656 23.640625 -25.359375 C 22.554688 -26.503906 20.972656 -27.078125 18.890625 -27.078125 C 14.710938 -27.078125 12.257812 -24.679688 11.53125 -19.890625 Z M 25.375 -19.890625 "/></g></g></g><g fill="#000000" fill-opacity="1"><g transform="translate(993.170112, 612.333431)"><g><path d="M 5.75 0 L 5.75 -26.328125 L 1.109375 -26.328125 L 1.109375 -32.890625 L 5.75 -32.890625 C 5.414062 -34.273438 5.25 -35.570312 5.25 -36.78125 C 5.25 -38.863281 5.722656 -40.644531 6.671875 -42.125 C 7.628906 -43.601562 9 -44.726562 10.78125 -45.5 C 12.570312 -46.28125 14.695312 -46.671875 17.15625 -46.671875 C 20.789062 -46.671875 23.5 -46.046875 25.28125 -44.796875 L 23.359375 -38.71875 L 22.71875 -38.609375 C 21.488281 -39.472656 19.910156 -39.90625 17.984375 -39.90625 C 16.492188 -39.90625 15.375 -39.539062 14.625 -38.8125 C 13.882812 -38.09375 13.515625 -37.109375 13.515625 -35.859375 C 13.515625 -35.328125 13.550781 -34.835938 13.625 -34.390625 C 13.695312 -33.941406 13.820312 -33.441406 14 -32.890625 L 23.375 -32.890625 L 23.375 -26.328125 L 14 -26.328125 L 14 0 Z M 5.75 0 "/></g></g></g><g fill="#000000" fill-opacity="1"><g transform="translate(1016.877577, 612.333431)"><g><path d="M 12.8125 0.625 C 10.707031 0.625 8.878906 0.238281 7.328125 -0.53125 C 5.773438 -1.3125 4.582031 -2.453125 3.75 -3.953125 C 2.914062 -5.453125 2.5 -7.253906 2.5 -9.359375 C 2.5 -11.296875 2.914062 -12.925781 3.75 -14.25 C 4.582031 -15.570312 5.875 -16.65625 7.625 -17.5 C 9.375 -18.34375 11.65625 -18.992188 14.46875 -19.453125 C 16.4375 -19.765625 17.929688 -20.109375 18.953125 -20.484375 C 19.984375 -20.867188 20.675781 -21.296875 21.03125 -21.765625 C 21.382812 -22.242188 21.5625 -22.851562 21.5625 -23.59375 C 21.5625 -24.644531 21.191406 -25.445312 20.453125 -26 C 19.722656 -26.5625 18.503906 -26.84375 16.796875 -26.84375 C 14.972656 -26.84375 13.234375 -26.429688 11.578125 -25.609375 C 9.929688 -24.796875 8.503906 -23.726562 7.296875 -22.40625 L 6.703125 -22.40625 L 3.25 -27.609375 C 4.914062 -29.453125 6.945312 -30.890625 9.34375 -31.921875 C 11.75 -32.960938 14.375 -33.484375 17.21875 -33.484375 C 21.5625 -33.484375 24.707031 -32.554688 26.65625 -30.703125 C 28.601562 -28.859375 29.578125 -26.238281 29.578125 -22.84375 L 29.578125 -8.578125 C 29.578125 -7.109375 30.222656 -6.375 31.515625 -6.375 C 32.003906 -6.375 32.488281 -6.460938 32.96875 -6.640625 L 33.390625 -6.515625 L 33.984375 -0.78125 C 33.523438 -0.476562 32.890625 -0.234375 32.078125 -0.046875 C 31.265625 0.140625 30.367188 0.234375 29.390625 0.234375 C 27.429688 0.234375 25.898438 -0.140625 24.796875 -0.890625 C 23.691406 -1.648438 22.898438 -2.832031 22.421875 -4.4375 L 21.796875 -4.5 C 20.191406 -1.082031 17.195312 0.625 12.8125 0.625 Z M 15.421875 -5.546875 C 17.328125 -5.546875 18.851562 -6.179688 20 -7.453125 C 21.144531 -8.734375 21.71875 -10.519531 21.71875 -12.8125 L 21.71875 -16.140625 L 21.140625 -16.265625 C 20.648438 -15.867188 20 -15.535156 19.1875 -15.265625 C 18.382812 -14.992188 17.234375 -14.726562 15.734375 -14.46875 C 13.941406 -14.175781 12.648438 -13.664062 11.859375 -12.9375 C 11.078125 -12.21875 10.6875 -11.191406 10.6875 -9.859375 C 10.6875 -8.453125 11.101562 -7.378906 11.9375 -6.640625 C 12.769531 -5.910156 13.929688 -5.546875 15.421875 -5.546875 Z M 15.421875 -5.546875 "/></g></g></g><g fill="#000000" fill-opacity="1"><g transform="translate(1051.515498, 612.333431)"><g><path d="M 19.15625 0.625 C 15.976562 0.625 13.164062 -0.0351562 10.71875 -1.359375 C 8.28125 -2.679688 6.375 -4.617188 5 -7.171875 C 3.632812 -9.734375 2.953125 -12.8125 2.953125 -16.40625 C 2.953125 -20.019531 3.632812 -23.109375 5 -25.671875 C 6.375 -28.234375 8.269531 -30.175781 10.6875 -31.5 C 13.113281 -32.820312 15.882812 -33.484375 19 -33.484375 C 25.925781 -33.484375 30.363281 -30.96875 32.3125 -25.9375 L 26.65625 -21.890625 L 26.03125 -21.890625 C 25.351562 -23.441406 24.472656 -24.59375 23.390625 -25.34375 C 22.304688 -26.101562 20.84375 -26.484375 19 -26.484375 C 16.613281 -26.484375 14.753906 -25.65625 13.421875 -24 C 12.097656 -22.351562 11.4375 -19.820312 11.4375 -16.40625 C 11.4375 -13.03125 12.109375 -10.515625 13.453125 -8.859375 C 14.804688 -7.203125 16.707031 -6.375 19.15625 -6.375 C 20.9375 -6.375 22.445312 -6.851562 23.6875 -7.8125 C 24.9375 -8.78125 25.828125 -10.164062 26.359375 -11.96875 L 26.984375 -12.03125 L 32.859375 -8.8125 C 32.023438 -6.03125 30.476562 -3.757812 28.21875 -2 C 25.96875 -0.25 22.945312 0.625 19.15625 0.625 Z M 19.15625 0.625 "/></g></g></g><g fill="#000000" fill-opacity="1"><g transform="translate(1085.379055, 612.333431)"><g><path d="M 19.15625 0.625 C 15.976562 0.625 13.164062 -0.0351562 10.71875 -1.359375 C 8.28125 -2.679688 6.375 -4.617188 5 -7.171875 C 3.632812 -9.734375 2.953125 -12.8125 2.953125 -16.40625 C 2.953125 -20.019531 3.632812 -23.109375 5 -25.671875 C 6.375 -28.234375 8.269531 -30.175781 10.6875 -31.5 C 13.113281 -32.820312 15.882812 -33.484375 19 -33.484375 C 25.925781 -33.484375 30.363281 -30.96875 32.3125 -25.9375 L 26.65625 -21.890625 L 26.03125 -21.890625 C 25.351562 -23.441406 24.472656 -24.59375 23.390625 -25.34375 C 22.304688 -26.101562 20.84375 -26.484375 19 -26.484375 C 16.613281 -26.484375 14.753906 -25.65625 13.421875 -24 C 12.097656 -22.351562 11.4375 -19.820312 11.4375 -16.40625 C 11.4375 -13.03125 12.109375 -10.515625 13.453125 -8.859375 C 14.804688 -7.203125 16.707031 -6.375 19.15625 -6.375 C 20.9375 -6.375 22.445312 -6.851562 23.6875 -7.8125 C 24.9375 -8.78125 25.828125 -10.164062 26.359375 -11.96875 L 26.984375 -12.03125 L 32.859375 -8.8125 C 32.023438 -6.03125 30.476562 -3.757812 28.21875 -2 C 25.96875 -0.25 22.945312 0.625 19.15625 0.625 Z M 19.15625 0.625 "/></g></g></g><g fill="#000000" fill-opacity="1"><g transform="translate(1119.242611, 612.333431)"><g><path d="M 8.84375 -36.78125 C 7.351562 -36.78125 6.140625 -37.234375 5.203125 -38.140625 C 4.273438 -39.046875 3.8125 -40.210938 3.8125 -41.640625 C 3.8125 -43.046875 4.273438 -44.203125 5.203125 -45.109375 C 6.140625 -46.015625 7.351562 -46.46875 8.84375 -46.46875 C 9.832031 -46.46875 10.710938 -46.257812 11.484375 -45.84375 C 12.265625 -45.425781 12.867188 -44.851562 13.296875 -44.125 C 13.722656 -43.40625 13.9375 -42.578125 13.9375 -41.640625 C 13.9375 -40.703125 13.722656 -39.863281 13.296875 -39.125 C 12.867188 -38.394531 12.265625 -37.820312 11.484375 -37.40625 C 10.710938 -36.988281 9.832031 -36.78125 8.84375 -36.78125 Z M 4.734375 0 L 4.734375 -32.859375 L 12.984375 -32.859375 L 12.984375 0 Z M 4.734375 0 "/></g></g></g><g fill="#000000" fill-opacity="1"><g transform="translate(1136.93386, 612.333431)"><g><path d="M 12.8125 0.625 C 10.707031 0.625 8.878906 0.238281 7.328125 -0.53125 C 5.773438 -1.3125 4.582031 -2.453125 3.75 -3.953125 C 2.914062 -5.453125 2.5 -7.253906 2.5 -9.359375 C 2.5 -11.296875 2.914062 -12.925781 3.75 -14.25 C 4.582031 -15.570312 5.875 -16.65625 7.625 -17.5 C 9.375 -18.34375 11.65625 -18.992188 14.46875 -19.453125 C 16.4375 -19.765625 17.929688 -20.109375 18.953125 -20.484375 C 19.984375 -20.867188 20.675781 -21.296875 21.03125 -21.765625 C 21.382812 -22.242188 21.5625 -22.851562 21.5625 -23.59375 C 21.5625 -24.644531 21.191406 -25.445312 20.453125 -26 C 19.722656 -26.5625 18.503906 -26.84375 16.796875 -26.84375 C 14.972656 -26.84375 13.234375 -26.429688 11.578125 -25.609375 C 9.929688 -24.796875 8.503906 -23.726562 7.296875 -22.40625 L 6.703125 -22.40625 L 3.25 -27.609375 C 4.914062 -29.453125 6.945312 -30.890625 9.34375 -31.921875 C 11.75 -32.960938 14.375 -33.484375 17.21875 -33.484375 C 21.5625 -33.484375 24.707031 -32.554688 26.65625 -30.703125 C 28.601562 -28.859375 29.578125 -26.238281 29.578125 -22.84375 L 29.578125 -8.578125 C 29.578125 -7.109375 30.222656 -6.375 31.515625 -6.375 C 32.003906 -6.375 32.488281 -6.460938 32.96875 -6.640625 L 33.390625 -6.515625 L 33.984375 -0.78125 C 33.523438 -0.476562 32.890625 -0.234375 32.078125 -0.046875 C 31.265625 0.140625 30.367188 0.234375 29.390625 0.234375 C 27.429688 0.234375 25.898438 -0.140625 24.796875 -0.890625 C 23.691406 -1.648438 22.898438 -2.832031 22.421875 -4.4375 L 21.796875 -4.5 C 20.191406 -1.082031 17.195312 0.625 12.8125 0.625 Z M 15.421875 -5.546875 C 17.328125 -5.546875 18.851562 -6.179688 20 -7.453125 C 21.144531 -8.734375 21.71875 -10.519531 21.71875 -12.8125 L 21.71875 -16.140625 L 21.140625 -16.265625 C 20.648438 -15.867188 20 -15.535156 19.1875 -15.265625 C 18.382812 -14.992188 17.234375 -14.726562 15.734375 -14.46875 C 13.941406 -14.175781 12.648438 -13.664062 11.859375 -12.9375 C 11.078125 -12.21875 10.6875 -11.191406 10.6875 -9.859375 C 10.6875 -8.453125 11.101562 -7.378906 11.9375 -6.640625 C 12.769531 -5.910156 13.929688 -5.546875 15.421875 -5.546875 Z M 15.421875 -5.546875 "/></g></g></g><g fill="#cc0829" fill-opacity="1"><g transform="translate(336.765121, 833.997796)"><g><path d="M 10.296875 0.390625 C 8.648438 0.390625 7.191406 -0.00390625 5.921875 -0.796875 C 4.660156 -1.597656 3.671875 -2.804688 2.953125 -4.421875 C 2.234375 -6.046875 1.875 -8.046875 1.875 -10.421875 C 1.875 -12.796875 2.238281 -14.789062 2.96875 -16.40625 C 3.707031 -18.03125 4.726562 -19.242188 6.03125 -20.046875 C 7.34375 -20.847656 8.851562 -21.25 10.5625 -21.25 C 11.863281 -21.25 12.988281 -21.023438 13.9375 -20.578125 C 14.894531 -20.128906 15.703125 -19.429688 16.359375 -18.484375 L 16.75 -18.578125 L 16.75 -29.234375 L 21.984375 -29.234375 L 21.984375 0 L 16.75 0 L 16.75 -2.703125 L 16.359375 -2.78125 C 15.773438 -1.789062 14.976562 -1.015625 13.96875 -0.453125 C 12.957031 0.109375 11.734375 0.390625 10.296875 0.390625 Z M 12 -4.046875 C 13.476562 -4.046875 14.644531 -4.570312 15.5 -5.625 C 16.351562 -6.675781 16.78125 -8.273438 16.78125 -10.421875 C 16.78125 -12.554688 16.351562 -14.15625 15.5 -15.21875 C 14.644531 -16.28125 13.476562 -16.8125 12 -16.8125 C 10.46875 -16.8125 9.296875 -16.296875 8.484375 -15.265625 C 7.671875 -14.234375 7.265625 -12.617188 7.265625 -10.421875 C 7.265625 -8.222656 7.671875 -6.609375 8.484375 -5.578125 C 9.296875 -4.554688 10.46875 -4.046875 12 -4.046875 Z M 12 -4.046875 "/></g></g></g><g fill="#cc0829" fill-opacity="1"><g transform="translate(361.75081, 833.997796)"><g><path d="M 5.609375 -23.34375 C 4.671875 -23.34375 3.90625 -23.628906 3.3125 -24.203125 C 2.71875 -24.773438 2.421875 -25.519531 2.421875 -26.4375 C 2.421875 -27.320312 2.71875 -28.050781 3.3125 -28.625 C 3.90625 -29.207031 4.671875 -29.5 5.609375 -29.5 C 6.242188 -29.5 6.804688 -29.363281 7.296875 -29.09375 C 7.785156 -28.832031 8.164062 -28.46875 8.4375 -28 C 8.707031 -27.539062 8.84375 -27.019531 8.84375 -26.4375 C 8.84375 -25.84375 8.707031 -25.3125 8.4375 -24.84375 C 8.164062 -24.375 7.785156 -24.003906 7.296875 -23.734375 C 6.804688 -23.472656 6.242188 -23.34375 5.609375 -23.34375 Z M 3 0 L 3 -20.859375 L 8.25 -20.859375 L 8.25 0 Z M 3 0 "/></g></g></g><g fill="#cc0829" fill-opacity="1"><g transform="translate(372.97736, 833.997796)"><g><path d="M 8.125 0.390625 C 6.789062 0.390625 5.628906 0.144531 4.640625 -0.34375 C 3.660156 -0.832031 2.90625 -1.550781 2.375 -2.5 C 1.851562 -3.457031 1.59375 -4.601562 1.59375 -5.9375 C 1.59375 -7.175781 1.851562 -8.210938 2.375 -9.046875 C 2.90625 -9.878906 3.722656 -10.5625 4.828125 -11.09375 C 5.941406 -11.632812 7.394531 -12.050781 9.1875 -12.34375 C 10.4375 -12.539062 11.382812 -12.757812 12.03125 -13 C 12.675781 -13.238281 13.113281 -13.507812 13.34375 -13.8125 C 13.570312 -14.125 13.6875 -14.507812 13.6875 -14.96875 C 13.6875 -15.632812 13.453125 -16.144531 12.984375 -16.5 C 12.515625 -16.851562 11.738281 -17.03125 10.65625 -17.03125 C 9.5 -17.03125 8.394531 -16.769531 7.34375 -16.25 C 6.300781 -15.738281 5.394531 -15.0625 4.625 -14.21875 L 4.25 -14.21875 L 2.0625 -17.53125 C 3.125 -18.695312 4.414062 -19.609375 5.9375 -20.265625 C 7.457031 -20.921875 9.117188 -21.25 10.921875 -21.25 C 13.679688 -21.25 15.675781 -20.660156 16.90625 -19.484375 C 18.144531 -18.316406 18.765625 -16.65625 18.765625 -14.5 L 18.765625 -5.4375 C 18.765625 -4.507812 19.175781 -4.046875 20 -4.046875 C 20.3125 -4.046875 20.617188 -4.101562 20.921875 -4.21875 L 21.1875 -4.140625 L 21.578125 -0.484375 C 21.285156 -0.296875 20.878906 -0.140625 20.359375 -0.015625 C 19.847656 0.0976562 19.28125 0.15625 18.65625 0.15625 C 17.40625 0.15625 16.429688 -0.0820312 15.734375 -0.5625 C 15.035156 -1.039062 14.535156 -1.789062 14.234375 -2.8125 L 13.84375 -2.859375 C 12.820312 -0.691406 10.914062 0.390625 8.125 0.390625 Z M 9.796875 -3.515625 C 11.003906 -3.515625 11.96875 -3.921875 12.6875 -4.734375 C 13.414062 -5.546875 13.78125 -6.675781 13.78125 -8.125 L 13.78125 -10.25 L 13.421875 -10.328125 C 13.109375 -10.066406 12.695312 -9.851562 12.1875 -9.6875 C 11.675781 -9.519531 10.941406 -9.351562 9.984375 -9.1875 C 8.847656 -9 8.03125 -8.675781 7.53125 -8.21875 C 7.03125 -7.757812 6.78125 -7.101562 6.78125 -6.25 C 6.78125 -5.363281 7.046875 -4.6875 7.578125 -4.21875 C 8.109375 -3.75 8.847656 -3.515625 9.796875 -3.515625 Z M 9.796875 -3.515625 "/></g></g></g><g fill="#cc0829" fill-opacity="1"><g transform="translate(394.957968, 833.997796)"><g><path d="M 10.8125 8.84375 C 7.375 8.84375 4.832031 8.335938 3.1875 7.328125 C 1.550781 6.328125 0.734375 4.925781 0.734375 3.125 C 0.734375 2.019531 1.082031 1.117188 1.78125 0.421875 C 2.476562 -0.273438 3.484375 -0.742188 4.796875 -0.984375 L 4.796875 -1.375 C 4.097656 -1.800781 3.59375 -2.273438 3.28125 -2.796875 C 2.96875 -3.328125 2.8125 -3.9375 2.8125 -4.625 C 2.8125 -6.300781 3.90625 -7.429688 6.09375 -8.015625 L 6.09375 -8.40625 C 4.96875 -9.050781 4.117188 -9.847656 3.546875 -10.796875 C 2.984375 -11.753906 2.703125 -12.90625 2.703125 -14.25 C 2.703125 -15.632812 3.019531 -16.851562 3.65625 -17.90625 C 4.289062 -18.957031 5.222656 -19.773438 6.453125 -20.359375 C 7.679688 -20.953125 9.15625 -21.25 10.875 -21.25 C 12.613281 -21.25 14 -20.945312 15.03125 -20.34375 C 15.675781 -21.269531 16.046875 -22.347656 16.140625 -23.578125 L 16.546875 -23.828125 L 20.296875 -22.890625 C 20.191406 -21.898438 19.90625 -21.066406 19.4375 -20.390625 C 18.96875 -19.710938 18.242188 -19.109375 17.265625 -18.578125 L 17.265625 -18.171875 C 18.429688 -17.140625 19.015625 -15.695312 19.015625 -13.84375 C 19.015625 -12.550781 18.691406 -11.394531 18.046875 -10.375 C 17.410156 -9.351562 16.476562 -8.546875 15.25 -7.953125 C 14.019531 -7.367188 12.5625 -7.078125 10.875 -7.078125 L 10.078125 -7.09375 C 9.578125 -7.113281 9.222656 -7.125 9.015625 -7.125 C 8.535156 -7.125 8.160156 -6.992188 7.890625 -6.734375 C 7.617188 -6.484375 7.484375 -6.15625 7.484375 -5.75 C 7.484375 -5.300781 7.660156 -4.953125 8.015625 -4.703125 C 8.367188 -4.460938 8.882812 -4.332031 9.5625 -4.3125 L 14.234375 -4.140625 C 18.847656 -4.003906 21.15625 -2.019531 21.15625 1.8125 C 21.15625 3.164062 20.8125 4.367188 20.125 5.421875 C 19.4375 6.472656 18.320312 7.304688 16.78125 7.921875 C 15.25 8.535156 13.257812 8.84375 10.8125 8.84375 Z M 10.875 -10.734375 C 11.882812 -10.734375 12.671875 -11.03125 13.234375 -11.625 C 13.796875 -12.21875 14.078125 -13.0625 14.078125 -14.15625 C 14.078125 -15.257812 13.796875 -16.101562 13.234375 -16.6875 C 12.671875 -17.269531 11.882812 -17.5625 10.875 -17.5625 C 9.851562 -17.5625 9.0625 -17.269531 8.5 -16.6875 C 7.945312 -16.101562 7.671875 -15.257812 7.671875 -14.15625 C 7.671875 -13.050781 7.945312 -12.203125 8.5 -11.609375 C 9.0625 -11.023438 9.851562 -10.734375 10.875 -10.734375 Z M 10.8125 5.046875 C 12.601562 5.046875 13.90625 4.789062 14.71875 4.28125 C 15.53125 3.78125 15.9375 3.128906 15.9375 2.328125 C 15.9375 1.671875 15.726562 1.1875 15.3125 0.875 C 14.894531 0.570312 14.234375 0.40625 13.328125 0.375 L 9.203125 0.1875 C 9.066406 0.1875 8.9375 0.179688 8.8125 0.171875 C 8.695312 0.160156 8.582031 0.15625 8.46875 0.15625 C 7.582031 0.15625 6.910156 0.34375 6.453125 0.71875 C 5.992188 1.09375 5.765625 1.613281 5.765625 2.28125 C 5.765625 3.164062 6.1875 3.847656 7.03125 4.328125 C 7.875 4.804688 9.132812 5.046875 10.8125 5.046875 Z M 10.8125 5.046875 "/></g></g></g><g fill="#cc0829" fill-opacity="1"><g transform="translate(416.636178, 833.997796)"><g><path d="M 12.125 0.390625 C 10.082031 0.390625 8.285156 -0.0234375 6.734375 -0.859375 C 5.191406 -1.703125 3.992188 -2.929688 3.140625 -4.546875 C 2.296875 -6.160156 1.875 -8.117188 1.875 -10.421875 C 1.875 -12.710938 2.296875 -14.671875 3.140625 -16.296875 C 3.992188 -17.921875 5.191406 -19.148438 6.734375 -19.984375 C 8.285156 -20.828125 10.082031 -21.25 12.125 -21.25 C 14.164062 -21.25 15.957031 -20.828125 17.5 -19.984375 C 19.039062 -19.148438 20.238281 -17.921875 21.09375 -16.296875 C 21.957031 -14.671875 22.390625 -12.710938 22.390625 -10.421875 C 22.390625 -8.117188 21.957031 -6.160156 21.09375 -4.546875 C 20.238281 -2.929688 19.039062 -1.703125 17.5 -0.859375 C 15.957031 -0.0234375 14.164062 0.390625 12.125 0.390625 Z M 12.125 -4.046875 C 15.363281 -4.046875 16.984375 -6.171875 16.984375 -10.421875 C 16.984375 -12.617188 16.566406 -14.234375 15.734375 -15.265625 C 14.898438 -16.296875 13.695312 -16.8125 12.125 -16.8125 C 8.882812 -16.8125 7.265625 -14.679688 7.265625 -10.421875 C 7.265625 -6.171875 8.882812 -4.046875 12.125 -4.046875 Z M 12.125 -4.046875 "/></g></g></g><g fill="#cc0829" fill-opacity="1"><g transform="translate(440.86587, 833.997796)"><g><path d="M 3 0 L 3 -20.859375 L 8.03125 -20.859375 L 8.03125 -17.796875 L 8.4375 -17.703125 C 9.726562 -20.066406 11.832031 -21.25 14.75 -21.25 C 17.15625 -21.25 18.921875 -20.59375 20.046875 -19.28125 C 21.171875 -17.96875 21.734375 -16.0625 21.734375 -13.5625 L 21.734375 0 L 16.5 0 L 16.5 -12.90625 C 16.5 -14.289062 16.222656 -15.289062 15.671875 -15.90625 C 15.117188 -16.519531 14.226562 -16.828125 13 -16.828125 C 11.5 -16.828125 10.332031 -16.34375 9.5 -15.375 C 8.664062 -14.40625 8.25 -12.878906 8.25 -10.796875 L 8.25 0 Z M 3 0 "/></g></g></g><g fill="#cc0829" fill-opacity="1"><g transform="translate(465.284562, 833.997796)"><g><path d="M 8.125 0.390625 C 6.789062 0.390625 5.628906 0.144531 4.640625 -0.34375 C 3.660156 -0.832031 2.90625 -1.550781 2.375 -2.5 C 1.851562 -3.457031 1.59375 -4.601562 1.59375 -5.9375 C 1.59375 -7.175781 1.851562 -8.210938 2.375 -9.046875 C 2.90625 -9.878906 3.722656 -10.5625 4.828125 -11.09375 C 5.941406 -11.632812 7.394531 -12.050781 9.1875 -12.34375 C 10.4375 -12.539062 11.382812 -12.757812 12.03125 -13 C 12.675781 -13.238281 13.113281 -13.507812 13.34375 -13.8125 C 13.570312 -14.125 13.6875 -14.507812 13.6875 -14.96875 C 13.6875 -15.632812 13.453125 -16.144531 12.984375 -16.5 C 12.515625 -16.851562 11.738281 -17.03125 10.65625 -17.03125 C 9.5 -17.03125 8.394531 -16.769531 7.34375 -16.25 C 6.300781 -15.738281 5.394531 -15.0625 4.625 -14.21875 L 4.25 -14.21875 L 2.0625 -17.53125 C 3.125 -18.695312 4.414062 -19.609375 5.9375 -20.265625 C 7.457031 -20.921875 9.117188 -21.25 10.921875 -21.25 C 13.679688 -21.25 15.675781 -20.660156 16.90625 -19.484375 C 18.144531 -18.316406 18.765625 -16.65625 18.765625 -14.5 L 18.765625 -5.4375 C 18.765625 -4.507812 19.175781 -4.046875 20 -4.046875 C 20.3125 -4.046875 20.617188 -4.101562 20.921875 -4.21875 L 21.1875 -4.140625 L 21.578125 -0.484375 C 21.285156 -0.296875 20.878906 -0.140625 20.359375 -0.015625 C 19.847656 0.0976562 19.28125 0.15625 18.65625 0.15625 C 17.40625 0.15625 16.429688 -0.0820312 15.734375 -0.5625 C 15.035156 -1.039062 14.535156 -1.789062 14.234375 -2.8125 L 13.84375 -2.859375 C 12.820312 -0.691406 10.914062 0.390625 8.125 0.390625 Z M 9.796875 -3.515625 C 11.003906 -3.515625 11.96875 -3.921875 12.6875 -4.734375 C 13.414062 -5.546875 13.78125 -6.675781 13.78125 -8.125 L 13.78125 -10.25 L 13.421875 -10.328125 C 13.109375 -10.066406 12.695312 -9.851562 12.1875 -9.6875 C 11.675781 -9.519531 10.941406 -9.351562 9.984375 -9.1875 C 8.847656 -9 8.03125 -8.675781 7.53125 -8.21875 C 7.03125 -7.757812 6.78125 -7.101562 6.78125 -6.25 C 6.78125 -5.363281 7.046875 -4.6875 7.578125 -4.21875 C 8.109375 -3.75 8.847656 -3.515625 9.796875 -3.515625 Z M 9.796875 -3.515625 "/></g></g></g><g fill="#cc0829" fill-opacity="1"><g transform="translate(487.26517, 833.997796)"><g><path d="M 8.65625 0.390625 C 6.78125 0.390625 5.347656 -0.113281 4.359375 -1.125 C 3.367188 -2.132812 2.875 -3.675781 2.875 -5.75 L 2.875 -29.234375 L 8.109375 -29.234375 L 8.109375 -5.953125 C 8.109375 -4.679688 8.640625 -4.046875 9.703125 -4.046875 C 10.003906 -4.046875 10.320312 -4.097656 10.65625 -4.203125 L 10.921875 -4.125 L 11.40625 -0.09375 C 11.113281 0.0507812 10.726562 0.164062 10.25 0.25 C 9.769531 0.34375 9.238281 0.390625 8.65625 0.390625 Z M 8.65625 0.390625 "/></g></g></g><g fill="#cc0829" fill-opacity="1"><g transform="translate(499.247716, 833.997796)"><g><path d="M 20.609375 -9.25 L 7.203125 -9.25 C 7.359375 -7.425781 7.875 -6.101562 8.75 -5.28125 C 9.632812 -4.457031 10.835938 -4.046875 12.359375 -4.046875 C 13.554688 -4.046875 14.523438 -4.269531 15.265625 -4.71875 C 16.015625 -5.164062 16.617188 -5.84375 17.078125 -6.75 L 17.46875 -6.75 L 20.953125 -4.515625 C 20.265625 -3.054688 19.234375 -1.875 17.859375 -0.96875 C 16.492188 -0.0625 14.660156 0.390625 12.359375 0.390625 C 10.203125 0.390625 8.335938 -0.015625 6.765625 -0.828125 C 5.203125 -1.648438 3.992188 -2.867188 3.140625 -4.484375 C 2.296875 -6.109375 1.875 -8.085938 1.875 -10.421875 C 1.875 -12.785156 2.320312 -14.78125 3.21875 -16.40625 C 4.113281 -18.03125 5.320312 -19.242188 6.84375 -20.046875 C 8.363281 -20.847656 10.078125 -21.25 11.984375 -21.25 C 14.929688 -21.25 17.191406 -20.46875 18.765625 -18.90625 C 20.335938 -17.34375 21.125 -15.050781 21.125 -12.03125 C 21.125 -10.925781 21.082031 -10.070312 21 -9.46875 Z M 16.109375 -12.625 C 16.054688 -14.21875 15.6875 -15.375 15 -16.09375 C 14.3125 -16.820312 13.304688 -17.1875 11.984375 -17.1875 C 9.335938 -17.1875 7.78125 -15.664062 7.3125 -12.625 Z M 16.109375 -12.625 "/></g></g></g><g fill="#cc0829" fill-opacity="1"><g transform="translate(521.908721, 833.997796)"><g/></g></g><g fill="#cc0829" fill-opacity="1"><g transform="translate(531.037398, 833.997796)"><g><path d="M 20.609375 -9.25 L 7.203125 -9.25 C 7.359375 -7.425781 7.875 -6.101562 8.75 -5.28125 C 9.632812 -4.457031 10.835938 -4.046875 12.359375 -4.046875 C 13.554688 -4.046875 14.523438 -4.269531 15.265625 -4.71875 C 16.015625 -5.164062 16.617188 -5.84375 17.078125 -6.75 L 17.46875 -6.75 L 20.953125 -4.515625 C 20.265625 -3.054688 19.234375 -1.875 17.859375 -0.96875 C 16.492188 -0.0625 14.660156 0.390625 12.359375 0.390625 C 10.203125 0.390625 8.335938 -0.015625 6.765625 -0.828125 C 5.203125 -1.648438 3.992188 -2.867188 3.140625 -4.484375 C 2.296875 -6.109375 1.875 -8.085938 1.875 -10.421875 C 1.875 -12.785156 2.320312 -14.78125 3.21875 -16.40625 C 4.113281 -18.03125 5.320312 -19.242188 6.84375 -20.046875 C 8.363281 -20.847656 10.078125 -21.25 11.984375 -21.25 C 14.929688 -21.25 17.191406 -20.46875 18.765625 -18.90625 C 20.335938 -17.34375 21.125 -15.050781 21.125 -12.03125 C 21.125 -10.925781 21.082031 -10.070312 21 -9.46875 Z M 16.109375 -12.625 C 16.054688 -14.21875 15.6875 -15.375 15 -16.09375 C 14.3125 -16.820312 13.304688 -17.1875 11.984375 -17.1875 C 9.335938 -17.1875 7.78125 -15.664062 7.3125 -12.625 Z M 16.109375 -12.625 "/></g></g></g><g fill="#cc0829" fill-opacity="1"><g transform="translate(553.698392, 833.997796)"><g><path d="M 9.75 0.390625 C 8.332031 0.390625 7.03125 0.222656 5.84375 -0.109375 C 4.65625 -0.441406 3.640625 -0.898438 2.796875 -1.484375 C 1.960938 -2.066406 1.34375 -2.738281 0.9375 -3.5 L 3.859375 -6.640625 L 4.25 -6.640625 C 4.945312 -5.703125 5.765625 -5 6.703125 -4.53125 C 7.648438 -4.070312 8.679688 -3.84375 9.796875 -3.84375 C 10.816406 -3.84375 11.582031 -4.023438 12.09375 -4.390625 C 12.613281 -4.753906 12.875 -5.273438 12.875 -5.953125 C 12.875 -6.484375 12.6875 -6.925781 12.3125 -7.28125 C 11.945312 -7.644531 11.347656 -7.925781 10.515625 -8.125 L 7.75 -8.796875 C 5.6875 -9.285156 4.175781 -10.035156 3.21875 -11.046875 C 2.269531 -12.066406 1.796875 -13.359375 1.796875 -14.921875 C 1.796875 -16.210938 2.125 -17.335938 2.78125 -18.296875 C 3.445312 -19.253906 4.378906 -19.984375 5.578125 -20.484375 C 6.785156 -20.992188 8.191406 -21.25 9.796875 -21.25 C 11.671875 -21.25 13.222656 -20.976562 14.453125 -20.4375 C 15.691406 -19.894531 16.660156 -19.171875 17.359375 -18.265625 L 14.5625 -15.234375 L 14.171875 -15.234375 C 13.597656 -15.890625 12.945312 -16.367188 12.21875 -16.671875 C 11.5 -16.972656 10.691406 -17.125 9.796875 -17.125 C 7.722656 -17.125 6.6875 -16.484375 6.6875 -15.203125 C 6.6875 -14.660156 6.878906 -14.21875 7.265625 -13.875 C 7.648438 -13.53125 8.328125 -13.253906 9.296875 -13.046875 L 11.875 -12.484375 C 13.988281 -12.023438 15.535156 -11.296875 16.515625 -10.296875 C 17.492188 -9.296875 17.984375 -7.945312 17.984375 -6.25 C 17.984375 -4.925781 17.65625 -3.757812 17 -2.75 C 16.34375 -1.75 15.394531 -0.972656 14.15625 -0.421875 C 12.925781 0.117188 11.457031 0.390625 9.75 0.390625 Z M 9.75 0.390625 "/></g></g></g><g fill="#cc0829" fill-opacity="1"><g transform="translate(572.919612, 833.997796)"><g><path d="M 14.390625 -4.96875 L 15.75 -1.09375 C 15.175781 -0.625 14.460938 -0.257812 13.609375 0 C 12.753906 0.257812 11.785156 0.390625 10.703125 0.390625 C 8.441406 0.390625 6.722656 -0.222656 5.546875 -1.453125 C 4.378906 -2.679688 3.796875 -4.46875 3.796875 -6.8125 L 3.796875 -16.71875 L 0.625 -16.71875 L 0.625 -20.875 L 3.796875 -20.875 L 3.796875 -24.9375 L 9.03125 -25.78125 L 9.03125 -20.875 L 14.953125 -20.875 L 14.953125 -16.71875 L 9.03125 -16.71875 L 9.03125 -7.1875 C 9.03125 -6.15625 9.242188 -5.398438 9.671875 -4.921875 C 10.109375 -4.453125 10.734375 -4.21875 11.546875 -4.21875 C 12.484375 -4.21875 13.296875 -4.46875 13.984375 -4.96875 Z M 14.390625 -4.96875 "/></g></g></g><g fill="#cc0829" fill-opacity="1"><g transform="translate(589.116846, 833.997796)"><g><path d="M 20.609375 -9.25 L 7.203125 -9.25 C 7.359375 -7.425781 7.875 -6.101562 8.75 -5.28125 C 9.632812 -4.457031 10.835938 -4.046875 12.359375 -4.046875 C 13.554688 -4.046875 14.523438 -4.269531 15.265625 -4.71875 C 16.015625 -5.164062 16.617188 -5.84375 17.078125 -6.75 L 17.46875 -6.75 L 20.953125 -4.515625 C 20.265625 -3.054688 19.234375 -1.875 17.859375 -0.96875 C 16.492188 -0.0625 14.660156 0.390625 12.359375 0.390625 C 10.203125 0.390625 8.335938 -0.015625 6.765625 -0.828125 C 5.203125 -1.648438 3.992188 -2.867188 3.140625 -4.484375 C 2.296875 -6.109375 1.875 -8.085938 1.875 -10.421875 C 1.875 -12.785156 2.320312 -14.78125 3.21875 -16.40625 C 4.113281 -18.03125 5.320312 -19.242188 6.84375 -20.046875 C 8.363281 -20.847656 10.078125 -21.25 11.984375 -21.25 C 14.929688 -21.25 17.191406 -20.46875 18.765625 -18.90625 C 20.335938 -17.34375 21.125 -15.050781 21.125 -12.03125 C 21.125 -10.925781 21.082031 -10.070312 21 -9.46875 Z M 16.109375 -12.625 C 16.054688 -14.21875 15.6875 -15.375 15 -16.09375 C 14.3125 -16.820312 13.304688 -17.1875 11.984375 -17.1875 C 9.335938 -17.1875 7.78125 -15.664062 7.3125 -12.625 Z M 16.109375 -12.625 "/></g></g></g><g fill="#cc0829" fill-opacity="1"><g transform="translate(611.777839, 833.997796)"><g><path d="M 3 0 L 3 -20.859375 L 8.09375 -20.859375 L 8.09375 -17.75 L 8.484375 -17.671875 C 8.992188 -18.835938 9.65625 -19.691406 10.46875 -20.234375 C 11.289062 -20.773438 12.285156 -21.046875 13.453125 -21.046875 C 14.640625 -21.046875 15.546875 -20.84375 16.171875 -20.4375 L 15.28125 -15.921875 L 14.875 -15.84375 C 14.539062 -15.976562 14.210938 -16.078125 13.890625 -16.140625 C 13.578125 -16.203125 13.195312 -16.234375 12.75 -16.234375 C 11.28125 -16.234375 10.160156 -15.71875 9.390625 -14.6875 C 8.628906 -13.664062 8.25 -12.019531 8.25 -9.75 L 8.25 0 Z M 3 0 "/></g></g></g><g fill="#cc0829" fill-opacity="1"><g transform="translate(628.126273, 833.997796)"><g><path d="M 3 0 L 3 -20.859375 L 8.03125 -20.859375 L 8.03125 -17.796875 L 8.4375 -17.703125 C 9.726562 -20.066406 11.832031 -21.25 14.75 -21.25 C 17.15625 -21.25 18.921875 -20.59375 20.046875 -19.28125 C 21.171875 -17.96875 21.734375 -16.0625 21.734375 -13.5625 L 21.734375 0 L 16.5 0 L 16.5 -12.90625 C 16.5 -14.289062 16.222656 -15.289062 15.671875 -15.90625 C 15.117188 -16.519531 14.226562 -16.828125 13 -16.828125 C 11.5 -16.828125 10.332031 -16.34375 9.5 -15.375 C 8.664062 -14.40625 8.25 -12.878906 8.25 -10.796875 L 8.25 0 Z M 3 0 "/></g></g></g><g fill="#cc0829" fill-opacity="1"><g transform="translate(652.544964, 833.997796)"><g><path d="M 8.125 0.390625 C 6.789062 0.390625 5.628906 0.144531 4.640625 -0.34375 C 3.660156 -0.832031 2.90625 -1.550781 2.375 -2.5 C 1.851562 -3.457031 1.59375 -4.601562 1.59375 -5.9375 C 1.59375 -7.175781 1.851562 -8.210938 2.375 -9.046875 C 2.90625 -9.878906 3.722656 -10.5625 4.828125 -11.09375 C 5.941406 -11.632812 7.394531 -12.050781 9.1875 -12.34375 C 10.4375 -12.539062 11.382812 -12.757812 12.03125 -13 C 12.675781 -13.238281 13.113281 -13.507812 13.34375 -13.8125 C 13.570312 -14.125 13.6875 -14.507812 13.6875 -14.96875 C 13.6875 -15.632812 13.453125 -16.144531 12.984375 -16.5 C 12.515625 -16.851562 11.738281 -17.03125 10.65625 -17.03125 C 9.5 -17.03125 8.394531 -16.769531 7.34375 -16.25 C 6.300781 -15.738281 5.394531 -15.0625 4.625 -14.21875 L 4.25 -14.21875 L 2.0625 -17.53125 C 3.125 -18.695312 4.414062 -19.609375 5.9375 -20.265625 C 7.457031 -20.921875 9.117188 -21.25 10.921875 -21.25 C 13.679688 -21.25 15.675781 -20.660156 16.90625 -19.484375 C 18.144531 -18.316406 18.765625 -16.65625 18.765625 -14.5 L 18.765625 -5.4375 C 18.765625 -4.507812 19.175781 -4.046875 20 -4.046875 C 20.3125 -4.046875 20.617188 -4.101562 20.921875 -4.21875 L 21.1875 -4.140625 L 21.578125 -0.484375 C 21.285156 -0.296875 20.878906 -0.140625 20.359375 -0.015625 C 19.847656 0.0976562 19.28125 0.15625 18.65625 0.15625 C 17.40625 0.15625 16.429688 -0.0820312 15.734375 -0.5625 C 15.035156 -1.039062 14.535156 -1.789062 14.234375 -2.8125 L 13.84375 -2.859375 C 12.820312 -0.691406 10.914062 0.390625 8.125 0.390625 Z M 9.796875 -3.515625 C 11.003906 -3.515625 11.96875 -3.921875 12.6875 -4.734375 C 13.414062 -5.546875 13.78125 -6.675781 13.78125 -8.125 L 13.78125 -10.25 L 13.421875 -10.328125 C 13.109375 -10.066406 12.695312 -9.851562 12.1875 -9.6875 C 11.675781 -9.519531 10.941406 -9.351562 9.984375 -9.1875 C 8.847656 -9 8.03125 -8.675781 7.53125 -8.21875 C 7.03125 -7.757812 6.78125 -7.101562 6.78125 -6.25 C 6.78125 -5.363281 7.046875 -4.6875 7.578125 -4.21875 C 8.109375 -3.75 8.847656 -3.515625 9.796875 -3.515625 Z M 9.796875 -3.515625 "/></g></g></g><path fill="#004aad" d="M 951.671875 847.492188 L 917.265625 812.925781 C 917.039062 812.699219 916.835938 812.453125 916.660156 812.183594 C 916.484375 811.917969 916.332031 811.636719 916.210938 811.339844 C 916.089844 811.042969 915.996094 810.738281 915.9375 810.425781 C 915.875 810.109375 915.84375 809.792969 915.84375 809.472656 C 915.84375 809.152344 915.875 808.835938 915.941406 808.523438 C 916.003906 808.210938 916.097656 807.90625 916.21875 807.609375 C 916.34375 807.3125 916.492188 807.03125 916.671875 806.765625 C 916.851562 806.5 917.050781 806.253906 917.28125 806.03125 C 917.507812 805.804688 917.753906 805.601562 918.019531 805.425781 C 918.285156 805.246094 918.566406 805.097656 918.863281 804.976562 C 919.160156 804.855469 919.464844 804.761719 919.777344 804.703125 C 920.09375 804.640625 920.410156 804.609375 920.730469 804.609375 C 921.050781 804.609375 921.367188 804.644531 921.679688 804.707031 C 921.996094 804.769531 922.300781 804.863281 922.59375 804.984375 C 922.890625 805.109375 923.171875 805.261719 923.4375 805.4375 C 923.703125 805.617188 923.949219 805.820312 924.175781 806.046875 L 958.582031 840.613281 C 958.808594 840.839844 959.011719 841.089844 959.1875 841.355469 C 959.367188 841.621094 959.515625 841.902344 959.636719 842.199219 C 959.757812 842.496094 959.851562 842.800781 959.914062 843.113281 C 959.976562 843.429688 960.003906 843.746094 960.003906 844.066406 C 960.003906 844.386719 959.972656 844.703125 959.910156 845.015625 C 959.847656 845.332031 959.753906 845.636719 959.628906 845.929688 C 959.507812 846.226562 959.355469 846.507812 959.175781 846.773438 C 959 847.039062 958.796875 847.285156 958.570312 847.511719 C 958.34375 847.738281 958.097656 847.9375 957.828125 848.117188 C 957.5625 848.292969 957.28125 848.441406 956.984375 848.5625 C 956.6875 848.683594 956.382812 848.777344 956.070312 848.839844 C 955.757812 848.902344 955.4375 848.929688 955.117188 848.929688 C 954.796875 848.929688 954.480469 848.898438 954.167969 848.835938 C 953.855469 848.769531 953.550781 848.675781 953.253906 848.554688 C 952.957031 848.429688 952.675781 848.28125 952.410156 848.101562 C 952.144531 847.921875 951.898438 847.71875 951.671875 847.492188 Z M 903.5 799.097656 L 869.09375 764.53125 C 868.867188 764.304688 868.664062 764.058594 868.488281 763.789062 C 868.3125 763.523438 868.160156 763.242188 868.039062 762.945312 C 867.917969 762.648438 867.824219 762.34375 867.765625 762.03125 C 867.703125 761.714844 867.671875 761.398438 867.671875 761.078125 C 867.671875 760.757812 867.703125 760.441406 867.769531 760.128906 C 867.832031 759.816406 867.925781 759.511719 868.046875 759.214844 C 868.171875 758.917969 868.320312 758.636719 868.5 758.371094 C 868.679688 758.105469 868.878906 757.859375 869.109375 757.636719 C 869.335938 757.410156 869.582031 757.207031 869.847656 757.03125 C 870.113281 756.851562 870.394531 756.703125 870.691406 756.582031 C 870.988281 756.460938 871.292969 756.367188 871.605469 756.308594 C 871.921875 756.246094 872.238281 756.214844 872.558594 756.214844 C 872.878906 756.214844 873.195312 756.25 873.507812 756.3125 C 873.824219 756.375 874.128906 756.46875 874.421875 756.589844 C 874.71875 756.714844 875 756.867188 875.265625 757.042969 C 875.53125 757.222656 875.777344 757.425781 876.003906 757.652344 L 910.410156 792.21875 C 910.636719 792.445312 910.839844 792.695312 911.015625 792.960938 C 911.195312 793.226562 911.34375 793.507812 911.464844 793.804688 C 911.585938 794.101562 911.679688 794.40625 911.742188 794.71875 C 911.804688 795.035156 911.832031 795.351562 911.832031 795.671875 C 911.832031 795.992188 911.800781 796.308594 911.738281 796.621094 C 911.675781 796.9375 911.582031 797.242188 911.457031 797.535156 C 911.335938 797.832031 911.183594 798.113281 911.003906 798.378906 C 910.828125 798.644531 910.625 798.890625 910.398438 799.117188 C 910.171875 799.34375 909.925781 799.542969 909.65625 799.71875 C 909.390625 799.898438 909.109375 800.046875 908.8125 800.167969 C 908.515625 800.289062 908.210938 800.382812 907.898438 800.445312 C 907.585938 800.507812 907.265625 800.535156 906.945312 800.535156 C 906.625 800.535156 906.308594 800.503906 905.996094 800.4375 C 905.683594 800.375 905.378906 800.28125 905.082031 800.160156 C 904.785156 800.035156 904.503906 799.886719 904.238281 799.707031 C 903.972656 799.527344 903.726562 799.324219 903.5 799.097656 Z M 855.328125 750.703125 L 820.921875 716.136719 C 820.695312 715.910156 820.492188 715.664062 820.316406 715.394531 C 820.140625 715.128906 819.988281 714.847656 819.867188 714.550781 C 819.746094 714.253906 819.652344 713.949219 819.59375 713.636719 C 819.53125 713.320312 819.5 713.003906 819.5 712.683594 C 819.5 712.363281 819.53125 712.046875 819.597656 711.734375 C 819.660156 711.417969 819.753906 711.113281 819.875 710.820312 C 820 710.523438 820.148438 710.242188 820.328125 709.976562 C 820.507812 709.710938 820.707031 709.464844 820.933594 709.242188 C 821.164062 709.015625 821.410156 708.8125 821.675781 708.636719 C 821.941406 708.457031 822.222656 708.308594 822.519531 708.1875 C 822.816406 708.066406 823.121094 707.972656 823.433594 707.914062 C 823.75 707.851562 824.066406 707.820312 824.386719 707.820312 C 824.707031 707.820312 825.023438 707.855469 825.335938 707.917969 C 825.652344 707.980469 825.957031 708.074219 826.25 708.195312 C 826.546875 708.320312 826.828125 708.472656 827.09375 708.648438 C 827.359375 708.828125 827.605469 709.03125 827.832031 709.257812 L 862.238281 743.824219 C 862.464844 744.050781 862.667969 744.300781 862.84375 744.566406 C 863.023438 744.832031 863.171875 745.113281 863.292969 745.410156 C 863.414062 745.707031 863.507812 746.011719 863.570312 746.324219 C 863.632812 746.640625 863.660156 746.957031 863.660156 747.277344 C 863.660156 747.597656 863.628906 747.914062 863.566406 748.226562 C 863.503906 748.542969 863.410156 748.847656 863.285156 749.140625 C 863.164062 749.4375 863.011719 749.71875 862.832031 749.984375 C 862.65625 750.25 862.453125 750.496094 862.226562 750.722656 C 862 750.949219 861.753906 751.148438 861.484375 751.324219 C 861.21875 751.503906 860.9375 751.652344 860.640625 751.773438 C 860.34375 751.894531 860.039062 751.988281 859.726562 752.050781 C 859.414062 752.113281 859.09375 752.140625 858.773438 752.140625 C 858.453125 752.140625 858.136719 752.109375 857.824219 752.042969 C 857.511719 751.980469 857.207031 751.886719 856.910156 751.765625 C 856.613281 751.640625 856.332031 751.492188 856.066406 751.3125 C 855.800781 751.132812 855.554688 750.929688 855.328125 750.703125 Z M 807.15625 702.308594 L 772.75 667.742188 C 772.523438 667.515625 772.320312 667.269531 772.144531 667 C 771.96875 666.734375 771.816406 666.453125 771.695312 666.15625 C 771.574219 665.859375 771.480469 665.554688 771.421875 665.242188 C 771.359375 664.925781 771.328125 664.609375 771.328125 664.289062 C 771.328125 663.96875 771.359375 663.652344 771.425781 663.339844 C 771.488281 663.023438 771.582031 662.71875 771.703125 662.425781 C 771.828125 662.128906 771.976562 661.847656 772.15625 661.582031 C 772.335938 661.316406 772.535156 661.070312 772.761719 660.847656 C 772.992188 660.621094 773.238281 660.417969 773.503906 660.242188 C 773.769531 660.0625 774.050781 659.914062 774.347656 659.792969 C 774.644531 659.671875 774.949219 659.578125 775.261719 659.519531 C 775.578125 659.457031 775.894531 659.425781 776.214844 659.425781 C 776.535156 659.425781 776.851562 659.460938 777.164062 659.523438 C 777.480469 659.585938 777.785156 659.679688 778.078125 659.800781 C 778.375 659.925781 778.65625 660.078125 778.921875 660.253906 C 779.1875 660.433594 779.433594 660.636719 779.660156 660.863281 L 814.066406 695.429688 C 814.292969 695.65625 814.496094 695.90625 814.671875 696.171875 C 814.851562 696.4375 815 696.71875 815.121094 697.015625 C 815.242188 697.3125 815.335938 697.617188 815.398438 697.929688 C 815.460938 698.246094 815.488281 698.5625 815.488281 698.882812 C 815.488281 699.203125 815.457031 699.519531 815.394531 699.832031 C 815.332031 700.148438 815.238281 700.453125 815.113281 700.746094 C 814.992188 701.042969 814.839844 701.324219 814.660156 701.589844 C 814.484375 701.855469 814.28125 702.101562 814.054688 702.328125 C 813.828125 702.554688 813.582031 702.753906 813.3125 702.929688 C 813.046875 703.109375 812.765625 703.257812 812.46875 703.378906 C 812.171875 703.5 811.867188 703.59375 811.554688 703.65625 C 811.242188 703.714844 810.921875 703.746094 810.601562 703.746094 C 810.28125 703.746094 809.964844 703.714844 809.652344 703.648438 C 809.339844 703.585938 809.035156 703.492188 808.738281 703.371094 C 808.441406 703.246094 808.160156 703.097656 807.894531 702.917969 C 807.628906 702.738281 807.382812 702.535156 807.15625 702.308594 Z M 758.984375 653.914062 L 724.578125 619.347656 C 724.351562 619.121094 724.148438 618.875 723.972656 618.605469 C 723.796875 618.339844 723.644531 618.058594 723.523438 617.761719 C 723.402344 617.464844 723.308594 617.160156 723.25 616.847656 C 723.1875 616.53125 723.15625 616.214844 723.15625 615.894531 C 723.15625 615.574219 723.1875 615.257812 723.253906 614.945312 C 723.316406 614.628906 723.410156 614.324219 723.53125 614.03125 C 723.65625 613.734375 723.804688 613.453125 723.984375 613.1875 C 724.164062 612.921875 724.363281 612.675781 724.589844 612.453125 C 724.820312 612.226562 725.066406 612.023438 725.332031 611.847656 C 725.597656 611.667969 725.878906 611.519531 726.175781 611.398438 C 726.472656 611.277344 726.777344 611.183594 727.089844 611.125 C 727.40625 611.0625 727.722656 611.03125 728.042969 611.03125 C 728.363281 611.03125 728.679688 611.066406 728.992188 611.128906 C 729.308594 611.191406 729.613281 611.285156 729.90625 611.40625 C 730.203125 611.53125 730.484375 611.683594 730.75 611.859375 C 731.015625 612.039062 731.261719 612.242188 731.488281 612.46875 L 765.894531 647.035156 C 766.121094 647.261719 766.324219 647.511719 766.5 647.777344 C 766.679688 648.042969 766.828125 648.324219 766.949219 648.621094 C 767.070312 648.917969 767.164062 649.222656 767.226562 649.535156 C 767.289062 649.851562 767.316406 650.167969 767.316406 650.488281 C 767.316406 650.808594 767.285156 651.125 767.222656 651.4375 C 767.160156 651.753906 767.066406 652.058594 766.941406 652.351562 C 766.820312 652.648438 766.667969 652.929688 766.488281 653.195312 C 766.3125 653.460938 766.109375 653.707031 765.882812 653.933594 C 765.65625 654.15625 765.410156 654.359375 765.140625 654.535156 C 764.875 654.714844 764.59375 654.863281 764.296875 654.984375 C 764 655.105469 763.695312 655.199219 763.382812 655.261719 C 763.070312 655.320312 762.75 655.351562 762.429688 655.351562 C 762.109375 655.351562 761.792969 655.320312 761.480469 655.253906 C 761.167969 655.191406 760.863281 655.097656 760.566406 654.976562 C 760.269531 654.851562 759.988281 654.703125 759.722656 654.523438 C 759.457031 654.34375 759.210938 654.140625 758.984375 653.914062 Z M 710.8125 605.519531 L 676.40625 570.953125 C 676.179688 570.726562 675.976562 570.480469 675.800781 570.210938 C 675.625 569.945312 675.472656 569.664062 675.351562 569.367188 C 675.230469 569.070312 675.136719 568.765625 675.078125 568.453125 C 675.015625 568.136719 674.984375 567.820312 674.984375 567.5 C 674.984375 567.179688 675.015625 566.863281 675.082031 566.550781 C 675.144531 566.234375 675.238281 565.929688 675.359375 565.636719 C 675.484375 565.339844 675.632812 565.058594 675.8125 564.792969 C 675.992188 564.527344 676.191406 564.28125 676.417969 564.058594 C 676.648438 563.832031 676.894531 563.628906 677.160156 563.453125 C 677.425781 563.273438 677.707031 563.125 678.003906 563.003906 C 678.300781 562.882812 678.605469 562.789062 678.917969 562.730469 C 679.234375 562.667969 679.550781 562.636719 679.871094 562.636719 C 680.191406 562.636719 680.507812 562.671875 680.820312 562.734375 C 681.136719 562.796875 681.441406 562.890625 681.734375 563.011719 C 682.03125 563.136719 682.3125 563.289062 682.578125 563.464844 C 682.84375 563.644531 683.089844 563.847656 683.316406 564.074219 L 717.722656 598.640625 C 717.949219 598.867188 718.152344 599.117188 718.328125 599.382812 C 718.507812 599.648438 718.65625 599.929688 718.777344 600.226562 C 718.898438 600.523438 718.992188 600.828125 719.054688 601.140625 C 719.117188 601.457031 719.144531 601.773438 719.144531 602.09375 C 719.144531 602.414062 719.113281 602.730469 719.050781 603.042969 C 718.988281 603.359375 718.894531 603.664062 718.769531 603.957031 C 718.648438 604.253906 718.496094 604.535156 718.316406 604.800781 C 718.140625 605.066406 717.9375 605.3125 717.710938 605.539062 C 717.484375 605.761719 717.238281 605.964844 716.96875 606.140625 C 716.703125 606.320312 716.421875 606.46875 716.125 606.589844 C 715.828125 606.710938 715.523438 606.804688 715.210938 606.867188 C 714.898438 606.925781 714.578125 606.957031 714.257812 606.957031 C 713.9375 606.957031 713.621094 606.925781 713.308594 606.859375 C 712.996094 606.796875 712.691406 606.703125 712.394531 606.582031 C 712.097656 606.457031 711.816406 606.308594 711.550781 606.128906 C 711.285156 605.949219 711.039062 605.746094 710.8125 605.519531 Z M 662.640625 557.125 L 628.234375 522.558594 C 628.007812 522.332031 627.804688 522.085938 627.628906 521.816406 C 627.453125 521.550781 627.300781 521.269531 627.179688 520.972656 C 627.058594 520.675781 626.964844 520.371094 626.90625 520.058594 C 626.84375 519.742188 626.8125 519.425781 626.8125 519.105469 C 626.8125 518.785156 626.84375 518.46875 626.910156 518.15625 C 626.972656 517.839844 627.066406 517.535156 627.1875 517.242188 C 627.3125 516.945312 627.460938 516.664062 627.640625 516.398438 C 627.820312 516.132812 628.019531 515.886719 628.246094 515.660156 C 628.476562 515.4375 628.722656 515.234375 628.988281 515.058594 C 629.253906 514.878906 629.535156 514.730469 629.832031 514.609375 C 630.128906 514.488281 630.433594 514.394531 630.746094 514.332031 C 631.0625 514.273438 631.378906 514.242188 631.699219 514.242188 C 632.019531 514.242188 632.335938 514.277344 632.648438 514.339844 C 632.964844 514.402344 633.269531 514.496094 633.5625 514.617188 C 633.859375 514.742188 634.140625 514.894531 634.40625 515.070312 C 634.671875 515.25 634.917969 515.453125 635.144531 515.679688 L 669.550781 550.246094 C 669.777344 550.472656 669.980469 550.722656 670.15625 550.988281 C 670.335938 551.253906 670.484375 551.535156 670.605469 551.832031 C 670.726562 552.128906 670.820312 552.433594 670.882812 552.746094 C 670.945312 553.0625 670.972656 553.378906 670.972656 553.699219 C 670.972656 554.019531 670.941406 554.335938 670.878906 554.648438 C 670.816406 554.964844 670.722656 555.269531 670.597656 555.5625 C 670.476562 555.859375 670.324219 556.140625 670.144531 556.40625 C 669.96875 556.671875 669.765625 556.917969 669.539062 557.144531 C 669.3125 557.367188 669.066406 557.570312 668.796875 557.746094 C 668.53125 557.925781 668.25 558.074219 667.953125 558.195312 C 667.65625 558.316406 667.351562 558.410156 667.039062 558.472656 C 666.726562 558.53125 666.40625 558.5625 666.085938 558.5625 C 665.765625 558.5625 665.449219 558.53125 665.136719 558.464844 C 664.824219 558.402344 664.515625 558.308594 664.222656 558.1875 C 663.925781 558.0625 663.644531 557.914062 663.378906 557.734375 C 663.113281 557.554688 662.867188 557.351562 662.640625 557.125 Z M 614.46875 508.730469 L 580.0625 474.164062 C 579.835938 473.9375 579.632812 473.691406 579.457031 473.421875 C 579.28125 473.15625 579.128906 472.875 579.007812 472.578125 C 578.886719 472.28125 578.792969 471.976562 578.734375 471.664062 C 578.671875 471.347656 578.640625 471.03125 578.640625 470.710938 C 578.640625 470.390625 578.671875 470.074219 578.738281 469.761719 C 578.800781 469.445312 578.894531 469.140625 579.015625 468.847656 C 579.140625 468.550781 579.289062 468.269531 579.46875 468.003906 C 579.648438 467.738281 579.847656 467.492188 580.074219 467.265625 C 580.304688 467.042969 580.550781 466.839844 580.816406 466.664062 C 581.082031 466.484375 581.363281 466.335938 581.660156 466.214844 C 581.957031 466.09375 582.261719 466 582.574219 465.9375 C 582.890625 465.878906 583.207031 465.847656 583.527344 465.847656 C 583.847656 465.847656 584.164062 465.882812 584.476562 465.945312 C 584.792969 466.007812 585.097656 466.101562 585.390625 466.222656 C 585.6875 466.347656 585.96875 466.5 586.234375 466.675781 C 586.5 466.855469 586.746094 467.058594 586.972656 467.285156 L 621.378906 501.851562 C 621.605469 502.078125 621.808594 502.328125 621.984375 502.59375 C 622.164062 502.859375 622.3125 503.140625 622.433594 503.4375 C 622.554688 503.734375 622.648438 504.039062 622.710938 504.351562 C 622.773438 504.667969 622.800781 504.984375 622.800781 505.304688 C 622.800781 505.625 622.769531 505.941406 622.707031 506.253906 C 622.644531 506.570312 622.550781 506.875 622.425781 507.167969 C 622.304688 507.464844 622.152344 507.746094 621.972656 508.011719 C 621.796875 508.277344 621.59375 508.523438 621.367188 508.75 C 621.140625 508.972656 620.894531 509.175781 620.625 509.351562 C 620.359375 509.53125 620.078125 509.679688 619.78125 509.800781 C 619.484375 509.921875 619.179688 510.015625 618.867188 510.078125 C 618.554688 510.136719 618.234375 510.167969 617.914062 510.167969 C 617.59375 510.167969 617.277344 510.136719 616.964844 510.070312 C 616.652344 510.007812 616.347656 509.914062 616.050781 509.792969 C 615.753906 509.667969 615.472656 509.519531 615.207031 509.339844 C 614.941406 509.160156 614.695312 508.957031 614.46875 508.730469 Z M 566.296875 460.335938 L 531.890625 425.769531 C 531.664062 425.542969 531.460938 425.296875 531.285156 425.027344 C 531.109375 424.761719 530.957031 424.480469 530.835938 424.183594 C 530.714844 423.886719 530.621094 423.582031 530.5625 423.269531 C 530.5 422.953125 530.46875 422.636719 530.46875 422.316406 C 530.46875 421.996094 530.5 421.679688 530.566406 421.367188 C 530.628906 421.050781 530.722656 420.746094 530.84375 420.453125 C 530.96875 420.15625 531.117188 419.875 531.296875 419.609375 C 531.476562 419.34375 531.675781 419.097656 531.902344 418.871094 C 532.132812 418.648438 532.378906 418.445312 532.644531 418.269531 C 532.910156 418.089844 533.191406 417.941406 533.488281 417.820312 C 533.785156 417.699219 534.089844 417.605469 534.402344 417.542969 C 534.71875 417.484375 535.035156 417.453125 535.355469 417.453125 C 535.675781 417.453125 535.992188 417.488281 536.304688 417.550781 C 536.621094 417.613281 536.925781 417.707031 537.21875 417.828125 C 537.515625 417.953125 537.796875 418.105469 538.0625 418.28125 C 538.328125 418.460938 538.574219 418.664062 538.800781 418.890625 L 573.207031 453.457031 C 573.433594 453.683594 573.636719 453.933594 573.8125 454.199219 C 573.992188 454.464844 574.140625 454.746094 574.261719 455.042969 C 574.382812 455.339844 574.476562 455.644531 574.539062 455.957031 C 574.601562 456.273438 574.628906 456.589844 574.628906 456.910156 C 574.628906 457.230469 574.597656 457.546875 574.535156 457.859375 C 574.472656 458.175781 574.378906 458.480469 574.253906 458.773438 C 574.132812 459.070312 573.980469 459.351562 573.800781 459.617188 C 573.625 459.882812 573.421875 460.128906 573.195312 460.355469 C 572.96875 460.578125 572.722656 460.78125 572.453125 460.957031 C 572.1875 461.136719 571.90625 461.285156 571.609375 461.40625 C 571.3125 461.527344 571.007812 461.621094 570.695312 461.683594 C 570.382812 461.742188 570.0625 461.773438 569.742188 461.773438 C 569.421875 461.773438 569.105469 461.742188 568.792969 461.675781 C 568.476562 461.613281 568.171875 461.519531 567.878906 461.398438 C 567.582031 461.273438 567.300781 461.125 567.035156 460.945312 C 566.769531 460.765625 566.523438 460.5625 566.296875 460.335938 Z M 518.125 411.941406 L 483.71875 377.375 C 483.492188 377.148438 483.289062 376.902344 483.113281 376.632812 C 482.9375 376.367188 482.785156 376.085938 482.664062 375.789062 C 482.542969 375.492188 482.449219 375.1875 482.390625 374.875 C 482.328125 374.558594 482.296875 374.242188 482.296875 373.921875 C 482.296875 373.601562 482.328125 373.285156 482.394531 372.972656 C 482.457031 372.65625 482.550781 372.351562 482.671875 372.058594 C 482.796875 371.761719 482.945312 371.480469 483.125 371.214844 C 483.304688 370.949219 483.503906 370.703125 483.730469 370.476562 C 483.960938 370.253906 484.207031 370.050781 484.472656 369.875 C 484.738281 369.695312 485.019531 369.546875 485.316406 369.425781 C 485.613281 369.304688 485.917969 369.210938 486.230469 369.148438 C 486.546875 369.089844 486.863281 369.058594 487.183594 369.058594 C 487.503906 369.058594 487.820312 369.089844 488.132812 369.15625 C 488.449219 369.21875 488.753906 369.3125 489.046875 369.433594 C 489.34375 369.558594 489.625 369.707031 489.890625 369.886719 C 490.15625 370.066406 490.402344 370.269531 490.628906 370.496094 L 525.035156 405.0625 C 525.261719 405.289062 525.464844 405.539062 525.640625 405.804688 C 525.820312 406.070312 525.96875 406.351562 526.089844 406.648438 C 526.210938 406.945312 526.304688 407.25 526.367188 407.5625 C 526.429688 407.878906 526.457031 408.195312 526.457031 408.515625 C 526.457031 408.835938 526.425781 409.152344 526.363281 409.464844 C 526.300781 409.78125 526.207031 410.085938 526.082031 410.378906 C 525.960938 410.675781 525.808594 410.957031 525.628906 411.222656 C 525.453125 411.488281 525.25 411.734375 525.023438 411.960938 C 524.796875 412.183594 524.550781 412.386719 524.28125 412.5625 C 524.015625 412.742188 523.734375 412.890625 523.4375 413.011719 C 523.140625 413.132812 522.835938 413.226562 522.523438 413.289062 C 522.210938 413.347656 521.890625 413.378906 521.570312 413.378906 C 521.25 413.378906 520.933594 413.347656 520.621094 413.28125 C 520.308594 413.21875 520.003906 413.125 519.707031 413.003906 C 519.410156 412.878906 519.128906 412.730469 518.863281 412.550781 C 518.597656 412.371094 518.351562 412.167969 518.125 411.941406 Z M 469.953125 363.546875 L 435.546875 328.980469 C 435.320312 328.753906 435.117188 328.507812 434.941406 328.238281 C 434.765625 327.972656 434.613281 327.691406 434.492188 327.394531 C 434.371094 327.097656 434.277344 326.792969 434.21875 326.480469 C 434.15625 326.164062 434.125 325.847656 434.125 325.527344 C 434.125 325.207031 434.15625 324.890625 434.222656 324.578125 C 434.285156 324.261719 434.378906 323.957031 434.5 323.664062 C 434.625 323.367188 434.773438 323.085938 434.953125 322.820312 C 435.132812 322.554688 435.332031 322.308594 435.558594 322.082031 C 435.789062 321.859375 436.035156 321.65625 436.300781 321.480469 C 436.566406 321.300781 436.847656 321.152344 437.144531 321.03125 C 437.441406 320.910156 437.746094 320.816406 438.058594 320.753906 C 438.375 320.695312 438.691406 320.664062 439.011719 320.664062 C 439.332031 320.664062 439.648438 320.695312 439.960938 320.761719 C 440.277344 320.824219 440.582031 320.917969 440.875 321.039062 C 441.171875 321.164062 441.453125 321.3125 441.71875 321.492188 C 441.984375 321.671875 442.230469 321.875 442.457031 322.101562 L 476.863281 356.667969 C 477.089844 356.894531 477.292969 357.144531 477.46875 357.410156 C 477.648438 357.675781 477.796875 357.957031 477.917969 358.253906 C 478.039062 358.550781 478.132812 358.855469 478.195312 359.167969 C 478.257812 359.484375 478.285156 359.800781 478.285156 360.121094 C 478.285156 360.441406 478.253906 360.757812 478.191406 361.070312 C 478.128906 361.386719 478.035156 361.691406 477.910156 361.984375 C 477.789062 362.28125 477.636719 362.5625 477.457031 362.828125 C 477.28125 363.09375 477.078125 363.339844 476.851562 363.566406 C 476.625 363.789062 476.378906 363.992188 476.109375 364.167969 C 475.84375 364.347656 475.5625 364.496094 475.265625 364.617188 C 474.96875 364.738281 474.664062 364.832031 474.351562 364.894531 C 474.035156 364.953125 473.71875 364.984375 473.398438 364.984375 C 473.078125 364.984375 472.761719 364.953125 472.449219 364.886719 C 472.132812 364.824219 471.828125 364.730469 471.535156 364.609375 C 471.238281 364.484375 470.957031 364.335938 470.691406 364.15625 C 470.425781 363.976562 470.179688 363.773438 469.953125 363.546875 Z M 469.953125 363.546875 " fill-opacity="1" fill-rule="nonzero"/><path stroke-linecap="round" transform="matrix(0.667963, -0.341693, 0.341563, 0.667709, 200.670909, 853.966082)" fill="none" stroke-linejoin="miter" d="M 6.50138 6.501836 L 1142.074459 6.498604 " stroke="#cc0829" stroke-width="13" stroke-opacity="1" stroke-miterlimit="4"/><g fill="#004aad" fill-opacity="1"><g transform="translate(543.767501, 404.90479)"><g><path d="M 10.296875 0.390625 C 8.648438 0.390625 7.191406 -0.00390625 5.921875 -0.796875 C 4.660156 -1.597656 3.671875 -2.804688 2.953125 -4.421875 C 2.234375 -6.046875 1.875 -8.046875 1.875 -10.421875 C 1.875 -12.796875 2.238281 -14.789062 2.96875 -16.40625 C 3.707031 -18.03125 4.726562 -19.242188 6.03125 -20.046875 C 7.34375 -20.847656 8.851562 -21.25 10.5625 -21.25 C 11.863281 -21.25 12.988281 -21.023438 13.9375 -20.578125 C 14.894531 -20.128906 15.703125 -19.429688 16.359375 -18.484375 L 16.75 -18.578125 L 16.75 -29.234375 L 21.984375 -29.234375 L 21.984375 0 L 16.75 0 L 16.75 -2.703125 L 16.359375 -2.78125 C 15.773438 -1.789062 14.976562 -1.015625 13.96875 -0.453125 C 12.957031 0.109375 11.734375 0.390625 10.296875 0.390625 Z M 12 -4.046875 C 13.476562 -4.046875 14.644531 -4.570312 15.5 -5.625 C 16.351562 -6.675781 16.78125 -8.273438 16.78125 -10.421875 C 16.78125 -12.554688 16.351562 -14.15625 15.5 -15.21875 C 14.644531 -16.28125 13.476562 -16.8125 12 -16.8125 C 10.46875 -16.8125 9.296875 -16.296875 8.484375 -15.265625 C 7.671875 -14.234375 7.265625 -12.617188 7.265625 -10.421875 C 7.265625 -8.222656 7.671875 -6.609375 8.484375 -5.578125 C 9.296875 -4.554688 10.46875 -4.046875 12 -4.046875 Z M 12 -4.046875 "/></g></g></g><g fill="#004aad" fill-opacity="1"><g transform="translate(568.75319, 404.90479)"><g><path d="M 5.609375 -23.34375 C 4.671875 -23.34375 3.90625 -23.628906 3.3125 -24.203125 C 2.71875 -24.773438 2.421875 -25.519531 2.421875 -26.4375 C 2.421875 -27.320312 2.71875 -28.050781 3.3125 -28.625 C 3.90625 -29.207031 4.671875 -29.5 5.609375 -29.5 C 6.242188 -29.5 6.804688 -29.363281 7.296875 -29.09375 C 7.785156 -28.832031 8.164062 -28.46875 8.4375 -28 C 8.707031 -27.539062 8.84375 -27.019531 8.84375 -26.4375 C 8.84375 -25.84375 8.707031 -25.3125 8.4375 -24.84375 C 8.164062 -24.375 7.785156 -24.003906 7.296875 -23.734375 C 6.804688 -23.472656 6.242188 -23.34375 5.609375 -23.34375 Z M 3 0 L 3 -20.859375 L 8.25 -20.859375 L 8.25 0 Z M 3 0 "/></g></g></g><g fill="#004aad" fill-opacity="1"><g transform="translate(579.97974, 404.90479)"><g><path d="M 8.125 0.390625 C 6.789062 0.390625 5.628906 0.144531 4.640625 -0.34375 C 3.660156 -0.832031 2.90625 -1.550781 2.375 -2.5 C 1.851562 -3.457031 1.59375 -4.601562 1.59375 -5.9375 C 1.59375 -7.175781 1.851562 -8.210938 2.375 -9.046875 C 2.90625 -9.878906 3.722656 -10.5625 4.828125 -11.09375 C 5.941406 -11.632812 7.394531 -12.050781 9.1875 -12.34375 C 10.4375 -12.539062 11.382812 -12.757812 12.03125 -13 C 12.675781 -13.238281 13.113281 -13.507812 13.34375 -13.8125 C 13.570312 -14.125 13.6875 -14.507812 13.6875 -14.96875 C 13.6875 -15.632812 13.453125 -16.144531 12.984375 -16.5 C 12.515625 -16.851562 11.738281 -17.03125 10.65625 -17.03125 C 9.5 -17.03125 8.394531 -16.769531 7.34375 -16.25 C 6.300781 -15.738281 5.394531 -15.0625 4.625 -14.21875 L 4.25 -14.21875 L 2.0625 -17.53125 C 3.125 -18.695312 4.414062 -19.609375 5.9375 -20.265625 C 7.457031 -20.921875 9.117188 -21.25 10.921875 -21.25 C 13.679688 -21.25 15.675781 -20.660156 16.90625 -19.484375 C 18.144531 -18.316406 18.765625 -16.65625 18.765625 -14.5 L 18.765625 -5.4375 C 18.765625 -4.507812 19.175781 -4.046875 20 -4.046875 C 20.3125 -4.046875 20.617188 -4.101562 20.921875 -4.21875 L 21.1875 -4.140625 L 21.578125 -0.484375 C 21.285156 -0.296875 20.878906 -0.140625 20.359375 -0.015625 C 19.847656 0.0976562 19.28125 0.15625 18.65625 0.15625 C 17.40625 0.15625 16.429688 -0.0820312 15.734375 -0.5625 C 15.035156 -1.039062 14.535156 -1.789062 14.234375 -2.8125 L 13.84375 -2.859375 C 12.820312 -0.691406 10.914062 0.390625 8.125 0.390625 Z M 9.796875 -3.515625 C 11.003906 -3.515625 11.96875 -3.921875 12.6875 -4.734375 C 13.414062 -5.546875 13.78125 -6.675781 13.78125 -8.125 L 13.78125 -10.25 L 13.421875 -10.328125 C 13.109375 -10.066406 12.695312 -9.851562 12.1875 -9.6875 C 11.675781 -9.519531 10.941406 -9.351562 9.984375 -9.1875 C 8.847656 -9 8.03125 -8.675781 7.53125 -8.21875 C 7.03125 -7.757812 6.78125 -7.101562 6.78125 -6.25 C 6.78125 -5.363281 7.046875 -4.6875 7.578125 -4.21875 C 8.109375 -3.75 8.847656 -3.515625 9.796875 -3.515625 Z M 9.796875 -3.515625 "/></g></g></g><g fill="#004aad" fill-opacity="1"><g transform="translate(601.960349, 404.90479)"><g><path d="M 10.8125 8.84375 C 7.375 8.84375 4.832031 8.335938 3.1875 7.328125 C 1.550781 6.328125 0.734375 4.925781 0.734375 3.125 C 0.734375 2.019531 1.082031 1.117188 1.78125 0.421875 C 2.476562 -0.273438 3.484375 -0.742188 4.796875 -0.984375 L 4.796875 -1.375 C 4.097656 -1.800781 3.59375 -2.273438 3.28125 -2.796875 C 2.96875 -3.328125 2.8125 -3.9375 2.8125 -4.625 C 2.8125 -6.300781 3.90625 -7.429688 6.09375 -8.015625 L 6.09375 -8.40625 C 4.96875 -9.050781 4.117188 -9.847656 3.546875 -10.796875 C 2.984375 -11.753906 2.703125 -12.90625 2.703125 -14.25 C 2.703125 -15.632812 3.019531 -16.851562 3.65625 -17.90625 C 4.289062 -18.957031 5.222656 -19.773438 6.453125 -20.359375 C 7.679688 -20.953125 9.15625 -21.25 10.875 -21.25 C 12.613281 -21.25 14 -20.945312 15.03125 -20.34375 C 15.675781 -21.269531 16.046875 -22.347656 16.140625 -23.578125 L 16.546875 -23.828125 L 20.296875 -22.890625 C 20.191406 -21.898438 19.90625 -21.066406 19.4375 -20.390625 C 18.96875 -19.710938 18.242188 -19.109375 17.265625 -18.578125 L 17.265625 -18.171875 C 18.429688 -17.140625 19.015625 -15.695312 19.015625 -13.84375 C 19.015625 -12.550781 18.691406 -11.394531 18.046875 -10.375 C 17.410156 -9.351562 16.476562 -8.546875 15.25 -7.953125 C 14.019531 -7.367188 12.5625 -7.078125 10.875 -7.078125 L 10.078125 -7.09375 C 9.578125 -7.113281 9.222656 -7.125 9.015625 -7.125 C 8.535156 -7.125 8.160156 -6.992188 7.890625 -6.734375 C 7.617188 -6.484375 7.484375 -6.15625 7.484375 -5.75 C 7.484375 -5.300781 7.660156 -4.953125 8.015625 -4.703125 C 8.367188 -4.460938 8.882812 -4.332031 9.5625 -4.3125 L 14.234375 -4.140625 C 18.847656 -4.003906 21.15625 -2.019531 21.15625 1.8125 C 21.15625 3.164062 20.8125 4.367188 20.125 5.421875 C 19.4375 6.472656 18.320312 7.304688 16.78125 7.921875 C 15.25 8.535156 13.257812 8.84375 10.8125 8.84375 Z M 10.875 -10.734375 C 11.882812 -10.734375 12.671875 -11.03125 13.234375 -11.625 C 13.796875 -12.21875 14.078125 -13.0625 14.078125 -14.15625 C 14.078125 -15.257812 13.796875 -16.101562 13.234375 -16.6875 C 12.671875 -17.269531 11.882812 -17.5625 10.875 -17.5625 C 9.851562 -17.5625 9.0625 -17.269531 8.5 -16.6875 C 7.945312 -16.101562 7.671875 -15.257812 7.671875 -14.15625 C 7.671875 -13.050781 7.945312 -12.203125 8.5 -11.609375 C 9.0625 -11.023438 9.851562 -10.734375 10.875 -10.734375 Z M 10.8125 5.046875 C 12.601562 5.046875 13.90625 4.789062 14.71875 4.28125 C 15.53125 3.78125 15.9375 3.128906 15.9375 2.328125 C 15.9375 1.671875 15.726562 1.1875 15.3125 0.875 C 14.894531 0.570312 14.234375 0.40625 13.328125 0.375 L 9.203125 0.1875 C 9.066406 0.1875 8.9375 0.179688 8.8125 0.171875 C 8.695312 0.160156 8.582031 0.15625 8.46875 0.15625 C 7.582031 0.15625 6.910156 0.34375 6.453125 0.71875 C 5.992188 1.09375 5.765625 1.613281 5.765625 2.28125 C 5.765625 3.164062 6.1875 3.847656 7.03125 4.328125 C 7.875 4.804688 9.132812 5.046875 10.8125 5.046875 Z M 10.8125 5.046875 "/></g></g></g><g fill="#004aad" fill-opacity="1"><g transform="translate(623.638558, 404.90479)"><g><path d="M 12.125 0.390625 C 10.082031 0.390625 8.285156 -0.0234375 6.734375 -0.859375 C 5.191406 -1.703125 3.992188 -2.929688 3.140625 -4.546875 C 2.296875 -6.160156 1.875 -8.117188 1.875 -10.421875 C 1.875 -12.710938 2.296875 -14.671875 3.140625 -16.296875 C 3.992188 -17.921875 5.191406 -19.148438 6.734375 -19.984375 C 8.285156 -20.828125 10.082031 -21.25 12.125 -21.25 C 14.164062 -21.25 15.957031 -20.828125 17.5 -19.984375 C 19.039062 -19.148438 20.238281 -17.921875 21.09375 -16.296875 C 21.957031 -14.671875 22.390625 -12.710938 22.390625 -10.421875 C 22.390625 -8.117188 21.957031 -6.160156 21.09375 -4.546875 C 20.238281 -2.929688 19.039062 -1.703125 17.5 -0.859375 C 15.957031 -0.0234375 14.164062 0.390625 12.125 0.390625 Z M 12.125 -4.046875 C 15.363281 -4.046875 16.984375 -6.171875 16.984375 -10.421875 C 16.984375 -12.617188 16.566406 -14.234375 15.734375 -15.265625 C 14.898438 -16.296875 13.695312 -16.8125 12.125 -16.8125 C 8.882812 -16.8125 7.265625 -14.679688 7.265625 -10.421875 C 7.265625 -6.171875 8.882812 -4.046875 12.125 -4.046875 Z M 12.125 -4.046875 "/></g></g></g><g fill="#004aad" fill-opacity="1"><g transform="translate(647.86825, 404.90479)"><g><path d="M 3 0 L 3 -20.859375 L 8.03125 -20.859375 L 8.03125 -17.796875 L 8.4375 -17.703125 C 9.726562 -20.066406 11.832031 -21.25 14.75 -21.25 C 17.15625 -21.25 18.921875 -20.59375 20.046875 -19.28125 C 21.171875 -17.96875 21.734375 -16.0625 21.734375 -13.5625 L 21.734375 0 L 16.5 0 L 16.5 -12.90625 C 16.5 -14.289062 16.222656 -15.289062 15.671875 -15.90625 C 15.117188 -16.519531 14.226562 -16.828125 13 -16.828125 C 11.5 -16.828125 10.332031 -16.34375 9.5 -15.375 C 8.664062 -14.40625 8.25 -12.878906 8.25 -10.796875 L 8.25 0 Z M 3 0 "/></g></g></g><g fill="#004aad" fill-opacity="1"><g transform="translate(672.286942, 404.90479)"><g><path d="M 8.125 0.390625 C 6.789062 0.390625 5.628906 0.144531 4.640625 -0.34375 C 3.660156 -0.832031 2.90625 -1.550781 2.375 -2.5 C 1.851562 -3.457031 1.59375 -4.601562 1.59375 -5.9375 C 1.59375 -7.175781 1.851562 -8.210938 2.375 -9.046875 C 2.90625 -9.878906 3.722656 -10.5625 4.828125 -11.09375 C 5.941406 -11.632812 7.394531 -12.050781 9.1875 -12.34375 C 10.4375 -12.539062 11.382812 -12.757812 12.03125 -13 C 12.675781 -13.238281 13.113281 -13.507812 13.34375 -13.8125 C 13.570312 -14.125 13.6875 -14.507812 13.6875 -14.96875 C 13.6875 -15.632812 13.453125 -16.144531 12.984375 -16.5 C 12.515625 -16.851562 11.738281 -17.03125 10.65625 -17.03125 C 9.5 -17.03125 8.394531 -16.769531 7.34375 -16.25 C 6.300781 -15.738281 5.394531 -15.0625 4.625 -14.21875 L 4.25 -14.21875 L 2.0625 -17.53125 C 3.125 -18.695312 4.414062 -19.609375 5.9375 -20.265625 C 7.457031 -20.921875 9.117188 -21.25 10.921875 -21.25 C 13.679688 -21.25 15.675781 -20.660156 16.90625 -19.484375 C 18.144531 -18.316406 18.765625 -16.65625 18.765625 -14.5 L 18.765625 -5.4375 C 18.765625 -4.507812 19.175781 -4.046875 20 -4.046875 C 20.3125 -4.046875 20.617188 -4.101562 20.921875 -4.21875 L 21.1875 -4.140625 L 21.578125 -0.484375 C 21.285156 -0.296875 20.878906 -0.140625 20.359375 -0.015625 C 19.847656 0.0976562 19.28125 0.15625 18.65625 0.15625 C 17.40625 0.15625 16.429688 -0.0820312 15.734375 -0.5625 C 15.035156 -1.039062 14.535156 -1.789062 14.234375 -2.8125 L 13.84375 -2.859375 C 12.820312 -0.691406 10.914062 0.390625 8.125 0.390625 Z M 9.796875 -3.515625 C 11.003906 -3.515625 11.96875 -3.921875 12.6875 -4.734375 C 13.414062 -5.546875 13.78125 -6.675781 13.78125 -8.125 L 13.78125 -10.25 L 13.421875 -10.328125 C 13.109375 -10.066406 12.695312 -9.851562 12.1875 -9.6875 C 11.675781 -9.519531 10.941406 -9.351562 9.984375 -9.1875 C 8.847656 -9 8.03125 -8.675781 7.53125 -8.21875 C 7.03125 -7.757812 6.78125 -7.101562 6.78125 -6.25 C 6.78125 -5.363281 7.046875 -4.6875 7.578125 -4.21875 C 8.109375 -3.75 8.847656 -3.515625 9.796875 -3.515625 Z M 9.796875 -3.515625 "/></g></g></g><g fill="#004aad" fill-opacity="1"><g transform="translate(694.26755, 404.90479)"><g><path d="M 8.65625 0.390625 C 6.78125 0.390625 5.347656 -0.113281 4.359375 -1.125 C 3.367188 -2.132812 2.875 -3.675781 2.875 -5.75 L 2.875 -29.234375 L 8.109375 -29.234375 L 8.109375 -5.953125 C 8.109375 -4.679688 8.640625 -4.046875 9.703125 -4.046875 C 10.003906 -4.046875 10.320312 -4.097656 10.65625 -4.203125 L 10.921875 -4.125 L 11.40625 -0.09375 C 11.113281 0.0507812 10.726562 0.164062 10.25 0.25 C 9.769531 0.34375 9.238281 0.390625 8.65625 0.390625 Z M 8.65625 0.390625 "/></g></g></g><g fill="#004aad" fill-opacity="1"><g transform="translate(706.250097, 404.90479)"><g><path d="M 20.609375 -9.25 L 7.203125 -9.25 C 7.359375 -7.425781 7.875 -6.101562 8.75 -5.28125 C 9.632812 -4.457031 10.835938 -4.046875 12.359375 -4.046875 C 13.554688 -4.046875 14.523438 -4.269531 15.265625 -4.71875 C 16.015625 -5.164062 16.617188 -5.84375 17.078125 -6.75 L 17.46875 -6.75 L 20.953125 -4.515625 C 20.265625 -3.054688 19.234375 -1.875 17.859375 -0.96875 C 16.492188 -0.0625 14.660156 0.390625 12.359375 0.390625 C 10.203125 0.390625 8.335938 -0.015625 6.765625 -0.828125 C 5.203125 -1.648438 3.992188 -2.867188 3.140625 -4.484375 C 2.296875 -6.109375 1.875 -8.085938 1.875 -10.421875 C 1.875 -12.785156 2.320312 -14.78125 3.21875 -16.40625 C 4.113281 -18.03125 5.320312 -19.242188 6.84375 -20.046875 C 8.363281 -20.847656 10.078125 -21.25 11.984375 -21.25 C 14.929688 -21.25 17.191406 -20.46875 18.765625 -18.90625 C 20.335938 -17.34375 21.125 -15.050781 21.125 -12.03125 C 21.125 -10.925781 21.082031 -10.070312 21 -9.46875 Z M 16.109375 -12.625 C 16.054688 -14.21875 15.6875 -15.375 15 -16.09375 C 14.3125 -16.820312 13.304688 -17.1875 11.984375 -17.1875 C 9.335938 -17.1875 7.78125 -15.664062 7.3125 -12.625 Z M 16.109375 -12.625 "/></g></g></g><g fill="#004aad" fill-opacity="1"><g transform="translate(728.911102, 404.90479)"><g/></g></g><g fill="#004aad" fill-opacity="1"><g transform="translate(738.039778, 404.90479)"><g><path d="M 5.609375 -23.34375 C 4.671875 -23.34375 3.90625 -23.628906 3.3125 -24.203125 C 2.71875 -24.773438 2.421875 -25.519531 2.421875 -26.4375 C 2.421875 -27.320312 2.71875 -28.050781 3.3125 -28.625 C 3.90625 -29.207031 4.671875 -29.5 5.609375 -29.5 C 6.242188 -29.5 6.804688 -29.363281 7.296875 -29.09375 C 7.785156 -28.832031 8.164062 -28.46875 8.4375 -28 C 8.707031 -27.539062 8.84375 -27.019531 8.84375 -26.4375 C 8.84375 -25.84375 8.707031 -25.3125 8.4375 -24.84375 C 8.164062 -24.375 7.785156 -24.003906 7.296875 -23.734375 C 6.804688 -23.472656 6.242188 -23.34375 5.609375 -23.34375 Z M 3 0 L 3 -20.859375 L 8.25 -20.859375 L 8.25 0 Z M 3 0 "/></g></g></g><g fill="#004aad" fill-opacity="1"><g transform="translate(749.26634, 404.90479)"><g><path d="M 3 0 L 3 -20.859375 L 8.03125 -20.859375 L 8.03125 -17.796875 L 8.4375 -17.703125 C 9.726562 -20.066406 11.832031 -21.25 14.75 -21.25 C 17.15625 -21.25 18.921875 -20.59375 20.046875 -19.28125 C 21.171875 -17.96875 21.734375 -16.0625 21.734375 -13.5625 L 21.734375 0 L 16.5 0 L 16.5 -12.90625 C 16.5 -14.289062 16.222656 -15.289062 15.671875 -15.90625 C 15.117188 -16.519531 14.226562 -16.828125 13 -16.828125 C 11.5 -16.828125 10.332031 -16.34375 9.5 -15.375 C 8.664062 -14.40625 8.25 -12.878906 8.25 -10.796875 L 8.25 0 Z M 3 0 "/></g></g></g><g fill="#004aad" fill-opacity="1"><g transform="translate(773.685031, 404.90479)"><g><path d="M 14.390625 -4.96875 L 15.75 -1.09375 C 15.175781 -0.625 14.460938 -0.257812 13.609375 0 C 12.753906 0.257812 11.785156 0.390625 10.703125 0.390625 C 8.441406 0.390625 6.722656 -0.222656 5.546875 -1.453125 C 4.378906 -2.679688 3.796875 -4.46875 3.796875 -6.8125 L 3.796875 -16.71875 L 0.625 -16.71875 L 0.625 -20.875 L 3.796875 -20.875 L 3.796875 -24.9375 L 9.03125 -25.78125 L 9.03125 -20.875 L 14.953125 -20.875 L 14.953125 -16.71875 L 9.03125 -16.71875 L 9.03125 -7.1875 C 9.03125 -6.15625 9.242188 -5.398438 9.671875 -4.921875 C 10.109375 -4.453125 10.734375 -4.21875 11.546875 -4.21875 C 12.484375 -4.21875 13.296875 -4.46875 13.984375 -4.96875 Z M 14.390625 -4.96875 "/></g></g></g><g fill="#004aad" fill-opacity="1"><g transform="translate(789.882264, 404.90479)"><g><path d="M 20.609375 -9.25 L 7.203125 -9.25 C 7.359375 -7.425781 7.875 -6.101562 8.75 -5.28125 C 9.632812 -4.457031 10.835938 -4.046875 12.359375 -4.046875 C 13.554688 -4.046875 14.523438 -4.269531 15.265625 -4.71875 C 16.015625 -5.164062 16.617188 -5.84375 17.078125 -6.75 L 17.46875 -6.75 L 20.953125 -4.515625 C 20.265625 -3.054688 19.234375 -1.875 17.859375 -0.96875 C 16.492188 -0.0625 14.660156 0.390625 12.359375 0.390625 C 10.203125 0.390625 8.335938 -0.015625 6.765625 -0.828125 C 5.203125 -1.648438 3.992188 -2.867188 3.140625 -4.484375 C 2.296875 -6.109375 1.875 -8.085938 1.875 -10.421875 C 1.875 -12.785156 2.320312 -14.78125 3.21875 -16.40625 C 4.113281 -18.03125 5.320312 -19.242188 6.84375 -20.046875 C 8.363281 -20.847656 10.078125 -21.25 11.984375 -21.25 C 14.929688 -21.25 17.191406 -20.46875 18.765625 -18.90625 C 20.335938 -17.34375 21.125 -15.050781 21.125 -12.03125 C 21.125 -10.925781 21.082031 -10.070312 21 -9.46875 Z M 16.109375 -12.625 C 16.054688 -14.21875 15.6875 -15.375 15 -16.09375 C 14.3125 -16.820312 13.304688 -17.1875 11.984375 -17.1875 C 9.335938 -17.1875 7.78125 -15.664062 7.3125 -12.625 Z M 16.109375 -12.625 "/></g></g></g><g fill="#004aad" fill-opacity="1"><g transform="translate(812.543281, 404.90479)"><g><path d="M 3 0 L 3 -20.859375 L 8.09375 -20.859375 L 8.09375 -17.75 L 8.484375 -17.671875 C 8.992188 -18.835938 9.65625 -19.691406 10.46875 -20.234375 C 11.289062 -20.773438 12.285156 -21.046875 13.453125 -21.046875 C 14.640625 -21.046875 15.546875 -20.84375 16.171875 -20.4375 L 15.28125 -15.921875 L 14.875 -15.84375 C 14.539062 -15.976562 14.210938 -16.078125 13.890625 -16.140625 C 13.578125 -16.203125 13.195312 -16.234375 12.75 -16.234375 C 11.28125 -16.234375 10.160156 -15.71875 9.390625 -14.6875 C 8.628906 -13.664062 8.25 -12.019531 8.25 -9.75 L 8.25 0 Z M 3 0 "/></g></g></g><g fill="#004aad" fill-opacity="1"><g transform="translate(828.891714, 404.90479)"><g><path d="M 3 0 L 3 -20.859375 L 8.03125 -20.859375 L 8.03125 -17.796875 L 8.4375 -17.703125 C 9.726562 -20.066406 11.832031 -21.25 14.75 -21.25 C 17.15625 -21.25 18.921875 -20.59375 20.046875 -19.28125 C 21.171875 -17.96875 21.734375 -16.0625 21.734375 -13.5625 L 21.734375 0 L 16.5 0 L 16.5 -12.90625 C 16.5 -14.289062 16.222656 -15.289062 15.671875 -15.90625 C 15.117188 -16.519531 14.226562 -16.828125 13 -16.828125 C 11.5 -16.828125 10.332031 -16.34375 9.5 -15.375 C 8.664062 -14.40625 8.25 -12.878906 8.25 -10.796875 L 8.25 0 Z M 3 0 "/></g></g></g><g fill="#004aad" fill-opacity="1"><g transform="translate(853.310405, 404.90479)"><g><path d="M 8.125 0.390625 C 6.789062 0.390625 5.628906 0.144531 4.640625 -0.34375 C 3.660156 -0.832031 2.90625 -1.550781 2.375 -2.5 C 1.851562 -3.457031 1.59375 -4.601562 1.59375 -5.9375 C 1.59375 -7.175781 1.851562 -8.210938 2.375 -9.046875 C 2.90625 -9.878906 3.722656 -10.5625 4.828125 -11.09375 C 5.941406 -11.632812 7.394531 -12.050781 9.1875 -12.34375 C 10.4375 -12.539062 11.382812 -12.757812 12.03125 -13 C 12.675781 -13.238281 13.113281 -13.507812 13.34375 -13.8125 C 13.570312 -14.125 13.6875 -14.507812 13.6875 -14.96875 C 13.6875 -15.632812 13.453125 -16.144531 12.984375 -16.5 C 12.515625 -16.851562 11.738281 -17.03125 10.65625 -17.03125 C 9.5 -17.03125 8.394531 -16.769531 7.34375 -16.25 C 6.300781 -15.738281 5.394531 -15.0625 4.625 -14.21875 L 4.25 -14.21875 L 2.0625 -17.53125 C 3.125 -18.695312 4.414062 -19.609375 5.9375 -20.265625 C 7.457031 -20.921875 9.117188 -21.25 10.921875 -21.25 C 13.679688 -21.25 15.675781 -20.660156 16.90625 -19.484375 C 18.144531 -18.316406 18.765625 -16.65625 18.765625 -14.5 L 18.765625 -5.4375 C 18.765625 -4.507812 19.175781 -4.046875 20 -4.046875 C 20.3125 -4.046875 20.617188 -4.101562 20.921875 -4.21875 L 21.1875 -4.140625 L 21.578125 -0.484375 C 21.285156 -0.296875 20.878906 -0.140625 20.359375 -0.015625 C 19.847656 0.0976562 19.28125 0.15625 18.65625 0.15625 C 17.40625 0.15625 16.429688 -0.0820312 15.734375 -0.5625 C 15.035156 -1.039062 14.535156 -1.789062 14.234375 -2.8125 L 13.84375 -2.859375 C 12.820312 -0.691406 10.914062 0.390625 8.125 0.390625 Z M 9.796875 -3.515625 C 11.003906 -3.515625 11.96875 -3.921875 12.6875 -4.734375 C 13.414062 -5.546875 13.78125 -6.675781 13.78125 -8.125 L 13.78125 -10.25 L 13.421875 -10.328125 C 13.109375 -10.066406 12.695312 -9.851562 12.1875 -9.6875 C 11.675781 -9.519531 10.941406 -9.351562 9.984375 -9.1875 C 8.847656 -9 8.03125 -8.675781 7.53125 -8.21875 C 7.03125 -7.757812 6.78125 -7.101562 6.78125 -6.25 C 6.78125 -5.363281 7.046875 -4.6875 7.578125 -4.21875 C 8.109375 -3.75 8.847656 -3.515625 9.796875 -3.515625 Z M 9.796875 -3.515625 "/></g></g></g></svg>