<svg xmlns="http://www.w3.org/2000/svg" xmlns:xlink="http://www.w3.org/1999/xlink" width="2000" zoomAndPan="magnify" viewBox="0 0 1500 1124.99995" height="1500" preserveAspectRatio="xMidYMid meet" version="1.0"><defs><clipPath id="35f143f687"><path d="M 411.363281 112.5 L 1088.613281 112.5 L 1088.613281 954 L 411.363281 954 Z M 411.363281 112.5 " clip-rule="nonzero"/></clipPath></defs><rect x="-150" width="1800" fill="#ffffff" y="-112.499995" height="1349.99994" fill-opacity="1"/><rect x="-150" width="1800" fill="#ffffff" y="-112.499995" height="1349.99994" fill-opacity="1"/><g clip-path="url(#35f143f687)"><path fill="#000000" d="M 1088.613281 634 C 1088.613281 633.835938 1088.613281 633.671875 1088.613281 633.503906 C 1088.613281 633.339844 1088.613281 633.007812 1088.613281 632.84375 C 1088.613281 632.84375 1088.613281 632.84375 1088.613281 632.679688 C 1088.613281 632.511719 1088.613281 632.183594 1088.449219 632.015625 C 1088.449219 631.851562 1088.449219 631.519531 1088.285156 631.355469 C 1088.285156 631.027344 1088.117188 630.859375 1087.953125 630.695312 C 1087.953125 630.53125 1087.789062 630.199219 1087.621094 630.035156 L 756.765625 115.78125 C 756.765625 115.78125 756.765625 115.78125 756.765625 115.617188 C 756.597656 115.285156 756.269531 114.957031 755.9375 114.625 C 755.9375 114.625 755.9375 114.625 755.773438 114.460938 C 755.441406 114.128906 755.113281 113.800781 754.78125 113.632812 C 754.78125 113.632812 754.617188 113.632812 754.449219 113.632812 C 754.121094 113.46875 753.789062 113.304688 753.460938 113.136719 C 753.460938 113.136719 753.292969 113.136719 753.128906 113.136719 C 752.632812 112.972656 752.300781 112.808594 751.808594 112.808594 C 751.808594 112.808594 751.640625 112.808594 751.476562 112.808594 C 750.980469 112.808594 750.484375 112.808594 749.988281 112.808594 C 749.492188 112.808594 748.996094 112.808594 748.5 112.808594 C 748.5 112.808594 748.335938 112.808594 748.171875 112.808594 C 747.675781 112.808594 747.34375 112.972656 746.847656 113.136719 C 746.847656 113.136719 746.683594 113.136719 746.519531 113.136719 C 746.1875 113.136719 745.855469 113.46875 745.527344 113.632812 C 745.527344 113.632812 745.363281 113.632812 745.195312 113.632812 C 744.867188 113.964844 744.535156 114.128906 744.203125 114.460938 C 744.203125 114.460938 744.203125 114.460938 744.039062 114.625 C 743.707031 114.957031 743.542969 115.285156 743.214844 115.617188 C 743.214844 115.617188 743.214844 115.617188 743.214844 115.78125 L 412.355469 629.371094 C 412.355469 629.539062 412.191406 629.703125 412.023438 630.035156 C 412.023438 630.199219 411.695312 630.53125 411.695312 630.695312 C 411.695312 630.859375 411.695312 631.191406 411.527344 631.355469 C 411.527344 631.519531 411.527344 631.851562 411.363281 632.015625 C 411.363281 632.015625 411.363281 632.015625 411.363281 632.183594 C 411.363281 632.347656 411.363281 632.679688 411.363281 632.84375 C 411.363281 633.007812 411.363281 633.175781 411.363281 633.339844 C 411.363281 633.503906 411.363281 633.339844 411.363281 633.339844 C 411.363281 633.503906 411.363281 633.835938 411.363281 634 C 411.363281 634 411.363281 634 411.363281 634.167969 C 411.363281 634.332031 411.363281 634.496094 411.363281 634.828125 C 411.363281 635.15625 411.363281 635.324219 411.527344 635.652344 C 411.527344 635.984375 411.527344 636.148438 411.695312 636.316406 C 411.695312 636.480469 411.859375 636.644531 412.023438 636.976562 C 412.023438 637.140625 412.191406 637.472656 412.355469 637.636719 C 412.355469 637.636719 412.6875 637.96875 412.6875 638.132812 C 412.851562 638.296875 413.015625 638.628906 413.183594 638.792969 L 743.707031 951.710938 C 743.707031 951.710938 744.039062 952.039062 744.203125 952.039062 C 744.371094 952.207031 744.699219 952.371094 744.867188 952.535156 C 745.03125 952.535156 745.363281 952.867188 745.527344 952.867188 C 745.691406 952.867188 746.023438 953.03125 746.1875 953.195312 C 746.519531 953.195312 746.847656 953.363281 747.015625 953.527344 C 747.179688 953.527344 747.34375 953.527344 747.675781 953.691406 C 748.171875 953.691406 748.667969 953.691406 749.328125 953.691406 C 749.988281 953.691406 750.320312 953.691406 750.980469 953.691406 C 751.144531 953.691406 751.476562 953.691406 751.640625 953.527344 C 751.972656 953.527344 752.300781 953.527344 752.46875 953.195312 C 752.632812 953.195312 752.964844 953.03125 753.128906 952.867188 C 753.292969 952.867188 753.625 952.699219 753.789062 952.535156 C 753.957031 952.535156 754.285156 952.203125 754.449219 952.039062 C 754.617188 952.039062 754.78125 951.875 754.945312 951.710938 L 1085.472656 638.792969 C 1085.640625 638.628906 1085.804688 638.296875 1085.96875 638.132812 C 1085.96875 638.132812 1086.300781 637.800781 1086.300781 637.636719 C 1086.300781 637.472656 1086.628906 637.140625 1086.628906 636.976562 C 1086.628906 636.8125 1086.796875 636.644531 1086.960938 636.316406 C 1086.960938 636.148438 1086.960938 635.820312 1087.125 635.652344 C 1087.125 635.324219 1087.292969 635.15625 1087.292969 634.828125 C 1087.292969 634.660156 1087.292969 634.496094 1087.292969 634.167969 C 1087.292969 634.167969 1087.292969 634.167969 1087.292969 634 C 1087.292969 633.835938 1087.292969 633.503906 1087.292969 633.339844 Z M 433.675781 626.894531 L 741.558594 148.347656 L 741.558594 927.574219 L 436.152344 638.464844 C 436.980469 637.140625 437.476562 635.652344 437.476562 634 C 437.476562 631.027344 435.988281 628.546875 433.675781 627.058594 Z M 758.085938 148.347656 L 1065.972656 626.894531 C 1063.660156 628.378906 1062.171875 630.859375 1062.171875 633.835938 C 1062.171875 636.8125 1062.667969 637.140625 1063.492188 638.296875 L 758.085938 927.410156 Z M 460.941406 633.835938 C 460.941406 629.207031 464.578125 625.570312 469.207031 625.570312 L 489.203125 625.570312 C 493.832031 625.570312 497.464844 629.207031 497.464844 633.835938 C 497.464844 638.464844 493.832031 642.101562 489.203125 642.101562 L 469.207031 642.101562 C 464.578125 642.101562 460.941406 638.464844 460.941406 633.835938 Z M 581.253906 633.835938 C 581.253906 629.207031 584.890625 625.570312 589.519531 625.570312 L 609.515625 625.570312 C 614.140625 625.570312 617.777344 629.207031 617.777344 633.835938 C 617.777344 638.464844 614.140625 642.101562 609.515625 642.101562 L 589.519531 642.101562 C 584.890625 642.101562 581.253906 638.464844 581.253906 633.835938 Z M 521.097656 633.835938 C 521.097656 629.207031 524.734375 625.570312 529.363281 625.570312 L 549.359375 625.570312 C 553.988281 625.570312 557.621094 629.207031 557.621094 633.835938 C 557.621094 638.464844 553.988281 642.101562 549.359375 642.101562 L 529.363281 642.101562 C 524.734375 642.101562 521.097656 638.464844 521.097656 633.835938 Z M 701.402344 633.835938 C 701.402344 629.207031 705.039062 625.570312 709.664062 625.570312 L 729.660156 625.570312 C 734.289062 625.570312 737.925781 629.207031 737.925781 633.835938 C 737.925781 638.464844 734.289062 642.101562 729.660156 642.101562 L 709.664062 642.101562 C 705.039062 642.101562 701.402344 638.464844 701.402344 633.835938 Z M 641.246094 633.835938 C 641.246094 629.207031 644.882812 625.570312 649.507812 625.570312 L 669.503906 625.570312 C 674.132812 625.570312 677.769531 629.207031 677.769531 633.835938 C 677.769531 638.464844 674.132812 642.101562 669.503906 642.101562 L 649.507812 642.101562 C 644.882812 642.101562 641.246094 638.464844 641.246094 633.835938 Z M 1038.539062 633.835938 C 1038.539062 638.464844 1034.902344 642.101562 1030.277344 642.101562 L 1010.277344 642.101562 C 1005.652344 642.101562 1002.015625 638.464844 1002.015625 633.835938 C 1002.015625 629.207031 1005.652344 625.570312 1010.277344 625.570312 L 1030.277344 625.570312 C 1034.902344 625.570312 1038.539062 629.207031 1038.539062 633.835938 Z M 978.382812 633.835938 C 978.382812 638.464844 974.746094 642.101562 970.121094 642.101562 L 950.125 642.101562 C 945.496094 642.101562 941.859375 638.464844 941.859375 633.835938 C 941.859375 629.207031 945.496094 625.570312 950.125 625.570312 L 970.121094 625.570312 C 974.746094 625.570312 978.382812 629.207031 978.382812 633.835938 Z M 918.226562 633.835938 C 918.226562 638.464844 914.589844 642.101562 909.964844 642.101562 L 889.96875 642.101562 C 885.339844 642.101562 881.703125 638.464844 881.703125 633.835938 C 881.703125 629.207031 885.339844 625.570312 889.96875 625.570312 L 909.964844 625.570312 C 914.589844 625.570312 918.226562 629.207031 918.226562 633.835938 Z M 858.070312 633.835938 C 858.070312 638.464844 854.433594 642.101562 849.808594 642.101562 L 829.8125 642.101562 C 825.183594 642.101562 821.546875 638.464844 821.546875 633.835938 C 821.546875 629.207031 825.183594 625.570312 829.8125 625.570312 L 849.808594 625.570312 C 854.433594 625.570312 858.070312 629.207031 858.070312 633.835938 Z M 797.914062 633.835938 C 797.914062 638.464844 794.28125 642.101562 789.652344 642.101562 L 769.65625 642.101562 C 765.027344 642.101562 761.390625 638.464844 761.390625 633.835938 C 761.390625 629.207031 765.027344 625.570312 769.65625 625.570312 L 789.652344 625.570312 C 794.28125 625.570312 797.914062 629.207031 797.914062 633.835938 Z M 797.914062 633.835938 " fill-opacity="1" fill-rule="nonzero"/></g></svg>