<?xml version="1.0" encoding="UTF-8"?>
<!DOCTYPE svg PUBLIC "-//W3C//DTD SVG 1.1//EN" "http://www.w3.org/Graphics/SVG/1.1/DTD/svg11.dtd">
<svg xmlns="http://www.w3.org/2000/svg" version="1.1" width="128px" height="128px" style="shape-rendering:geometricPrecision; text-rendering:geometricPrecision; image-rendering:optimizeQuality; fill-rule:evenodd; clip-rule:evenodd" xmlns:xlink="http://www.w3.org/1999/xlink">
<g><path style="opacity:0.911" fill="#02275b" d="M 31.5,2.5 C 50.1786,2.16709 68.8452,2.50042 87.5,3.5C 98.8165,15.9839 110.317,28.3173 122,40.5C 122.667,65.1667 122.667,89.8333 122,114.5C 120.895,119.206 118.062,122.373 113.5,124C 86.1667,124.667 58.8333,124.667 31.5,124C 24.4873,120.792 21.4873,115.292 22.5,107.5C 16.9066,107.807 11.4066,107.473 6,106.5C 4.86284,98.4315 4.36284,90.2649 4.5,82C 4.66667,74.5 4.83333,67 5,59.5C 5.83333,58.6667 6.66667,57.8333 7.5,57C 12.4889,56.5007 17.4889,56.3341 22.5,56.5C 22.3334,41.8295 22.5001,27.1629 23,12.5C 24.2613,7.74518 27.0947,4.41184 31.5,2.5 Z M 34.5,8.5 C 50.1667,8.5 65.8333,8.5 81.5,8.5C 81.0471,19.2702 81.5471,29.9369 83,40.5C 84.6374,42.8102 86.804,44.3102 89.5,45C 98.4938,45.4998 107.494,45.6664 116.5,45.5C 116.667,67.5025 116.5,89.5025 116,111.5C 115.654,113.848 114.487,115.681 112.5,117C 86.5871,118.648 60.5871,118.981 34.5,118C 30.175,115.882 28.175,112.382 28.5,107.5C 52.8356,107.667 77.1689,107.5 101.5,107C 102,106.5 102.5,106 103,105.5C 103.667,89.8333 103.667,74.1667 103,58.5C 102.25,57.8742 101.416,57.3742 100.5,57C 76.5023,56.5 52.5023,56.3334 28.5,56.5C 28.3334,42.8293 28.5001,29.1626 29,15.5C 29.9383,12.4025 31.7716,10.0691 34.5,8.5 Z"/></g>
<g><path style="opacity:1" fill="#d3e8fc" d="M 87.5,12.5 C 95.9668,21.1356 104.3,29.9689 112.5,39C 104.833,39.6667 97.1667,39.6667 89.5,39C 89,38.5 88.5,38 88,37.5C 87.5003,29.1733 87.3336,20.84 87.5,12.5 Z"/></g>
<g><path style="opacity:1" fill="#d4e9fc" d="M 97.5,62.5 C 97.5,75.5 97.5,88.5 97.5,101.5C 68.5,101.5 39.5,101.5 10.5,101.5C 10.5,88.5 10.5,75.5 10.5,62.5C 39.5,62.5 68.5,62.5 97.5,62.5 Z"/></g>
<g><path style="opacity:1" fill="#113063" d="M 29.5,70.5 C 33.1817,70.3347 36.8484,70.5014 40.5,71C 44.9337,74.2669 45.6003,78.2669 42.5,83C 39.3117,84.3158 35.9783,84.8158 32.5,84.5C 32.5,87.5 32.5,90.5 32.5,93.5C 31.5,93.5 30.5,93.5 29.5,93.5C 29.5,85.8333 29.5,78.1667 29.5,70.5 Z"/></g>
<g><path style="opacity:1" fill="#0a2b5f" d="M 47.5,70.5 C 51.6372,70.1463 55.6372,70.6463 59.5,72C 60,72.5 60.5,73 61,73.5C 61.6667,78.8333 61.6667,84.1667 61,89.5C 60.5348,90.9308 59.7014,92.0975 58.5,93C 54.8484,93.4986 51.1817,93.6653 47.5,93.5C 47.5,85.8333 47.5,78.1667 47.5,70.5 Z"/></g>
<g><path style="opacity:1" fill="#113064" d="M 65.5,70.5 C 70.1667,70.5 74.8333,70.5 79.5,70.5C 79.5,71.5 79.5,72.5 79.5,73.5C 76.1667,73.5 72.8333,73.5 69.5,73.5C 69.5,75.8333 69.5,78.1667 69.5,80.5C 71.1667,80.5 72.8333,80.5 74.5,80.5C 74.5,81.5 74.5,82.5 74.5,83.5C 72.5,83.5 70.5,83.5 68.5,83.5C 68.5,86.8333 68.5,90.1667 68.5,93.5C 67.5,93.5 66.5,93.5 65.5,93.5C 65.5,85.8333 65.5,78.1667 65.5,70.5 Z"/></g>
<g><path style="opacity:1" fill="#6d89ad" d="M 33.5,73.5 C 33.5,76.1667 33.5,78.8333 33.5,81.5C 35.1667,81.5 36.8333,81.5 38.5,81.5C 36.7354,82.4614 34.7354,82.7947 32.5,82.5C 32.19,79.2869 32.5233,76.2869 33.5,73.5 Z"/></g>
<g><path style="opacity:1" fill="#d3e9fc" d="M 33.5,73.5 C 39.6739,72.1729 41.8406,74.5062 40,80.5C 39.6174,81.056 39.1174,81.3893 38.5,81.5C 36.8333,81.5 35.1667,81.5 33.5,81.5C 33.5,78.8333 33.5,76.1667 33.5,73.5 Z"/></g>
<g><path style="opacity:1" fill="#cde3f8" d="M 50.5,73.5 C 57.0774,72.5785 59.7441,75.4118 58.5,82C 59.7441,88.5882 57.0774,91.4215 50.5,90.5C 50.5,84.8333 50.5,79.1667 50.5,73.5 Z"/></g>
<g><path style="opacity:1" fill="#57759d" d="M 97.5,62.5 C 98.4956,75.6562 98.8289,88.9895 98.5,102.5C 68.9953,102.831 39.6619,102.498 10.5,101.5C 39.5,101.5 68.5,101.5 97.5,101.5C 97.5,88.5 97.5,75.5 97.5,62.5 Z"/></g>
</svg>
