<svg xmlns="http://www.w3.org/2000/svg" xmlns:xlink="http://www.w3.org/1999/xlink" width="2000" zoomAndPan="magnify" viewBox="0 0 1500 1124.99995" height="1500" preserveAspectRatio="xMidYMid meet" version="1.0"><defs><clipPath id="7ebfd0dfa5"><path d="M 312 187 L 1189 187 L 1189 939.449219 L 312 939.449219 Z M 312 187 " clip-rule="nonzero"/></clipPath></defs><rect x="-150" width="1800" fill="#ffffff" y="-112.499995" height="1349.99994" fill-opacity="1"/><rect x="-150" width="1800" fill="#ffffff" y="-112.499995" height="1349.99994" fill-opacity="1"/><path fill="#0f0f0f" d="M 735.042969 229.324219 L 719.355469 224.898438 L 728.203125 193.5 L 743.886719 197.925781 Z M 1147.832031 783.777344 L 1147.894531 767.46875 L 1180.488281 767.585938 L 1180.425781 783.894531 Z M 315.980469 918.238281 L 334.921875 906.882812 L 343.296875 920.871094 L 324.359375 932.226562 Z M 357.277344 912.492188 L 348.902344 898.496094 L 376.863281 881.734375 L 385.246094 895.726562 Z M 399.230469 887.34375 L 390.847656 873.355469 L 418.816406 856.59375 L 427.191406 870.582031 Z M 441.171875 862.199219 L 432.796875 848.210938 L 460.761719 831.449219 L 469.140625 845.4375 Z M 483.121094 837.058594 L 474.742188 823.070312 L 502.710938 806.308594 L 511.085938 820.296875 Z M 525.070312 811.914062 L 516.695312 797.925781 L 544.65625 781.164062 L 553.035156 795.152344 Z M 567.011719 786.777344 L 558.632812 772.785156 C 574.867188 763.046875 569.09375 765.339844 593.714844 765.433594 L 593.65625 781.742188 L 575.527344 781.675781 Z M 609.957031 781.796875 L 610.019531 765.488281 L 642.617188 765.609375 L 642.558594 781.917969 Z M 658.855469 781.980469 L 658.917969 765.671875 L 691.515625 765.789062 L 691.457031 782.101562 Z M 707.753906 782.15625 L 707.816406 765.847656 L 740.414062 765.96875 L 740.351562 782.277344 Z M 756.652344 782.339844 L 756.714844 766.027344 L 789.3125 766.152344 L 789.25 782.460938 Z M 805.550781 782.523438 L 805.613281 766.210938 L 838.210938 766.332031 L 838.148438 782.640625 Z M 854.449219 782.703125 L 854.511719 766.394531 L 887.109375 766.511719 L 887.046875 782.820312 Z M 903.34375 782.878906 L 903.402344 766.570312 L 936.003906 766.6875 L 935.941406 782.996094 Z M 952.242188 783.058594 L 952.300781 766.75 L 984.902344 766.867188 L 984.839844 783.179688 Z M 1001.136719 783.238281 L 1001.199219 766.929688 L 1033.796875 767.050781 L 1033.738281 783.359375 Z M 1050.035156 783.417969 L 1050.097656 767.109375 L 1082.695312 767.230469 L 1082.636719 783.539062 Z M 1098.933594 783.597656 L 1098.996094 767.285156 L 1131.59375 767.40625 L 1131.535156 783.714844 Z M 589.128906 747.34375 L 573.4375 742.917969 L 582.285156 711.519531 L 597.976562 715.945312 Z M 602.398438 700.25 L 586.710938 695.824219 L 595.554688 664.425781 L 611.242188 668.851562 Z M 615.664062 653.15625 L 599.972656 648.730469 L 608.820312 617.335938 L 624.511719 621.761719 Z M 628.925781 606.0625 L 613.234375 601.632812 L 622.078125 570.238281 L 637.769531 574.664062 Z M 642.1875 558.96875 L 626.5 554.542969 L 635.347656 523.148438 L 651.035156 527.574219 Z M 655.457031 511.878906 L 639.765625 507.453125 L 648.613281 476.058594 L 664.300781 480.484375 Z M 668.71875 464.785156 L 653.035156 460.359375 L 661.878906 428.964844 L 677.566406 433.390625 Z M 681.988281 417.691406 L 666.296875 413.269531 L 675.140625 381.871094 L 690.832031 386.296875 Z M 695.25 370.597656 L 679.5625 366.171875 L 688.40625 334.777344 L 704.097656 339.203125 Z M 708.515625 323.507812 L 692.828125 319.082031 L 701.671875 287.6875 L 717.359375 292.113281 Z M 721.78125 276.414062 L 706.089844 271.988281 L 714.933594 240.59375 L 730.625 245.019531 Z M 721.78125 276.414062 " fill-opacity="1" fill-rule="evenodd"/><g clip-path="url(#7ebfd0dfa5)"><path fill="#000000" d="M 313.101562 921.21875 L 728.976562 191.703125 C 731.804688 186.734375 738.988281 185.847656 742.792969 191.15625 L 1187.683594 772.015625 C 1189.738281 776.007812 1188.171875 780.914062 1184.179688 782.972656 L 884.285156 937.40625 C 881.828125 939.148438 881.191406 939.660156 878.003906 939.644531 L 320.105469 933.351562 C 313.824219 933.292969 310.097656 926.511719 313.109375 921.21875 Z M 879.878906 895.101562 L 884.574219 919.316406 L 1168.089844 772.976562 L 750.605469 228.09375 Z M 732.234375 218.8125 L 334.066406 917.261719 L 868.769531 923.289062 Z M 732.234375 218.8125 " fill-opacity="1" fill-rule="evenodd"/></g></svg>