<svg xmlns="http://www.w3.org/2000/svg" xmlns:xlink="http://www.w3.org/1999/xlink" width="2000" zoomAndPan="magnify" viewBox="0 0 1500 1124.99995" height="1500" preserveAspectRatio="xMidYMid meet" version="1.0"><rect x="-150" width="1800" fill="#ffffff" y="-112.499995" height="1349.99994" fill-opacity="1"/><rect x="-150" width="1800" fill="#ffffff" y="-112.499995" height="1349.99994" fill-opacity="1"/><rect x="-150" width="1800" fill="#ffffff" y="-112.499995" height="1349.99994" fill-opacity="1"/><path fill="#0f0f0f" d="M 505.851562 896.664062 L 519.609375 905.589844 C 514.03125 914.175781 511.765625 922.308594 511.214844 932.503906 L 494.84375 931.578125 C 495.585938 918.46875 498.667969 907.714844 505.851562 896.664062 Z M 1004.164062 922.410156 L 987.992188 925.136719 C 986.429688 915.542969 981.746094 907.15625 975.761719 899.632812 L 988.519531 889.324219 C 996.246094 898.890625 1002.171875 910.183594 1004.164062 922.410156 Z M 976.316406 876.515625 L 965.347656 888.710938 C 953.566406 879.632812 952.519531 878.445312 940.0625 870.738281 L 948.25 856.519531 C 961.988281 865.023438 963.320312 866.492188 976.316406 876.515625 Z M 933.195312 848.601562 L 926.09375 863.386719 L 896.632812 851.445312 L 901.886719 835.90625 Z M 885.859375 830.886719 L 881.371094 846.667969 L 850.152344 839.132812 L 853.324219 823.035156 Z M 836.894531 820.070312 L 834.300781 836.265625 L 802.285156 832.136719 L 803.855469 815.8125 Z M 787.277344 814.449219 L 786.175781 830.820312 L 753.890625 829.582031 L 754.015625 813.175781 Z M 737.386719 813.257812 L 737.726562 829.652344 L 705.472656 831.261719 L 704.128906 814.910156 Z M 687.507812 816.574219 L 689.453125 832.863281 L 657.578125 837.730469 L 654.542969 821.613281 Z M 638.199219 824.972656 L 641.796875 840.976562 L 610.753906 849.21875 L 605.851562 833.5625 Z M 589.945312 838.929688 L 595.582031 854.332031 L 566.46875 866.980469 L 558.929688 852.410156 Z M 544.078125 860.886719 L 552.835938 874.761719 C 544.199219 880.230469 535.984375 886.519531 528.933594 893.949219 L 516.988281 882.710938 C 524.988281 874.265625 534.265625 867.097656 544.078125 860.886719 Z M 544.078125 860.886719 " fill-opacity="1" fill-rule="evenodd"/><path fill="#000000" d="M 1004.957031 205.945312 L 1004.957031 932.035156 C 1004.679688 940.789062 1003.003906 950.238281 999 958.109375 L 999.007812 958.113281 L 992.179688 969.910156 L 992.1875 969.917969 L 983.113281 980.960938 L 983.117188 980.964844 C 975.640625 988.386719 967.90625 995.214844 958.941406 1000.894531 L 958.949219 1000.902344 L 944.125 1009.777344 L 944.125 1009.78125 L 936.109375 1013.929688 L 909.632812 1025.238281 L 909.636719 1025.25 L 890.148438 1031.761719 L 890.15625 1031.789062 L 869.375 1037.417969 L 869.382812 1037.4375 L 847.382812 1042.171875 L 847.386719 1042.199219 L 812.417969 1047.472656 L 812.417969 1047.480469 L 800.28125 1048.734375 L 800.285156 1048.75 C 778.828125 1049.710938 758.28125 1051.097656 736.933594 1050.851562 L 736.933594 1050.855469 L 724.203125 1050.421875 L 724.203125 1050.429688 L 711.65625 1049.707031 L 711.65625 1049.722656 L 675.265625 1045.925781 L 675.261719 1045.953125 L 641.042969 1039.863281 L 641.039062 1039.878906 L 619.644531 1034.644531 L 619.640625 1034.671875 L 599.472656 1028.519531 L 599.464844 1028.539062 L 580.703125 1021.566406 L 580.699219 1021.574219 C 564.867188 1014.789062 547.339844 1006.511719 533.738281 995.921875 L 533.734375 995.925781 L 521.605469 985.863281 L 521.605469 985.867188 L 511.484375 975.050781 L 511.46875 975.058594 L 503.527344 963.472656 L 498.003906 951.109375 L 497.988281 951.113281 C 496.039062 944.238281 494.84375 939.378906 494.84375 932.03125 L 494.824219 932.03125 L 494.824219 205.941406 C 493.707031 173.925781 519.417969 141.726562 571.996094 118.132812 C 670.570312 73.890625 829.199219 73.890625 927.769531 118.132812 C 980.363281 141.734375 1006.074219 173.929688 1004.957031 205.945312 Z M 511.339844 206.128906 C 514.109375 245.339844 563.863281 269.527344 595.589844 281.730469 L 595.59375 281.722656 L 614.113281 287.957031 L 614.113281 287.9375 L 634.054688 293.398438 L 655.214844 297.96875 C 699.558594 304.734375 721.445312 307.898438 770.035156 306.167969 C 803.464844 304.976562 843.683594 299.527344 875.664062 290.839844 L 875.660156 290.824219 L 894.875 285.019531 L 894.871094 285.011719 L 912.671875 278.433594 C 931.671875 270.308594 958.050781 257.066406 974.171875 238.511719 C 1004.4375 203.074219 986.757812 162.53125 921.117188 133.070312 C 826.882812 90.777344 672.898438 90.777344 578.667969 133.070312 C 532.453125 153.8125 510.011719 180.050781 511.339844 206.128906 Z M 969.660156 265.007812 L 590.148438 297.15625 L 590.144531 297.167969 L 609.632812 303.691406 L 609.625 303.703125 L 630.402344 309.34375 L 652.398438 314.085938 L 652.394531 314.105469 L 687.363281 319.382812 L 687.363281 319.386719 L 699.496094 320.640625 L 699.496094 320.65625 C 740.75 322.535156 746.628906 324.054688 788.125 321.617188 L 788.125 321.628906 L 824.511719 317.835938 L 824.515625 317.859375 L 858.742188 311.785156 L 880.136719 306.5625 L 880.140625 306.578125 L 900.3125 300.4375 L 900.320312 300.449219 L 919.078125 293.472656 L 919.082031 293.480469 C 935.269531 286.542969 952.515625 278.367188 966.042969 267.828125 L 966.046875 267.832031 Z M 590.148438 297.15625 L 563.675781 285.847656 L 555.660156 281.699219 L 555.664062 281.695312 L 540.839844 272.816406 L 540.84375 272.808594 C 529.546875 265.648438 520.46875 257.257812 511.863281 247.460938 L 511.234375 246.660156 L 511.234375 932.042969 L 511.226562 932.042969 C 513.421875 970.914062 555.398438 992.957031 587.113281 1006.527344 L 587.113281 1006.53125 L 604.914062 1013.109375 L 604.914062 1013.125 L 624.128906 1018.917969 L 624.121094 1018.941406 L 644.695312 1023.933594 L 644.691406 1023.945312 L 677.699219 1029.75 L 677.699219 1029.773438 L 712.941406 1033.386719 L 712.941406 1033.398438 L 725.101562 1034.09375 C 752.980469 1035.050781 771.113281 1034.644531 799.003906 1032.410156 L 799.003906 1032.421875 L 810.753906 1031.207031 L 810.753906 1031.210938 L 844.574219 1026.046875 L 844.578125 1026.070312 L 865.734375 1021.476562 L 865.738281 1021.492188 L 885.671875 1016.027344 L 885.679688 1016.046875 L 904.199219 1009.804688 L 904.203125 1009.8125 C 935.230469 997.753906 988.785156 971.902344 988.554688 932.035156 L 988.554688 246.65625 L 983.503906 252.488281 L 983.492188 252.476562 L 978.175781 257.78125 L 978.171875 257.777344 L 969.660156 265.007812 Z M 927.605469 1017.933594 L 917.050781 1013.875 C 918.925781 1017.851562 923.589844 1019.613281 927.605469 1017.933594 Z M 927.605469 1017.933594 " fill-opacity="1" fill-rule="evenodd"/></svg>