<svg xmlns="http://www.w3.org/2000/svg" xmlns:xlink="http://www.w3.org/1999/xlink" width="2000" zoomAndPan="magnify" viewBox="0 0 1500 1124.99995" height="1500" preserveAspectRatio="xMidYMid meet" version="1.0"><defs><clipPath id="2059eada1c"><path d="M 355.375 114.0625 L 1144.375 114.0625 L 1144.375 1011 L 355.375 1011 Z M 355.375 114.0625 " clip-rule="nonzero"/></clipPath></defs><rect x="-150" width="1800" fill="#ffffff" y="-112.499995" height="1349.99994" fill-opacity="1"/><rect x="-150" width="1800" fill="#ffffff" y="-112.499995" height="1349.99994" fill-opacity="1"/><rect x="-150" width="1800" fill="#ffffff" y="-112.499995" height="1349.99994" fill-opacity="1"/><g clip-path="url(#2059eada1c)"><path fill="#000000" d="M 749.835938 114.265625 L 360.894531 339.292969 L 355.730469 341.136719 L 356.074219 342.070312 L 355.375 342.5 L 355.375 782.636719 L 746.738281 1009.0625 L 749.855469 1010.855469 L 1141.21875 784.414062 L 1144.320312 782.621094 L 1144.320312 342.5 Z M 889.894531 589.476562 L 826.300781 701.785156 L 702.789062 701.785156 L 603.992188 531.878906 L 609.171875 523.183594 L 598.507812 516.816406 L 596.839844 519.597656 L 537.65625 417.816406 L 657.496094 417.816406 L 645.164062 438.507812 L 655.828125 444.875 L 671.386719 418.78125 L 669.773438 417.816406 L 788.820312 417.816406 L 802.390625 440.875 L 813.089844 434.5625 L 803.230469 417.816406 L 987.074219 417.816406 L 896.9375 576.996094 L 890.160156 565.484375 L 879.460938 571.796875 Z M 819.253906 714.210938 L 765.359375 809.390625 L 710.011719 714.210938 Z M 718.078125 340.476562 L 730.785156 319.171875 L 740.769531 336.152344 L 751.46875 329.839844 L 742.167969 314.023438 L 920.992188 331.328125 L 984.277344 405.386719 L 539.484375 405.386719 L 601.144531 325.144531 L 687.246094 315.371094 L 718.882812 311.785156 L 720.621094 311.945312 L 707.414062 334.125 Z M 938.824219 333.050781 L 1114.851562 350.085938 L 999.425781 403.972656 Z M 1110.230469 337.140625 L 927.175781 319.421875 L 778.121094 144.980469 Z M 755.105469 162.070312 L 757.722656 140.230469 L 909.375 317.703125 L 719.4375 299.320312 L 718.792969 299.265625 L 685.851562 303.015625 L 611.683594 311.441406 L 745.570312 137.21875 L 742.757812 160.601562 Z M 725.800781 142.542969 L 594.511719 313.378906 L 390.484375 336.546875 Z M 583.972656 327.097656 L 524.789062 404.097656 L 386.953125 349.457031 Z M 367.792969 369.113281 L 377.707031 365.542969 L 375.035156 358.082031 L 518.550781 414.964844 L 450.117188 567.097656 L 449.617188 565.714844 L 437.929688 569.914062 L 442.785156 583.414062 L 367.792969 750.074219 Z M 449.867188 597.921875 L 459.867188 594.316406 L 456.140625 583.953125 L 527.566406 425.183594 L 589.5625 531.808594 L 582.949219 542.90625 L 593.613281 549.273438 L 596.699219 544.089844 L 688.394531 701.785156 L 502.722656 701.785156 L 515.84375 679.761719 L 505.179688 673.398438 L 494.640625 691.078125 L 490.695312 680.105469 L 479.011719 684.300781 L 485.964844 703.667969 L 374.875 764.652344 Z M 492.597656 714.210938 L 695.652344 714.210938 L 753.90625 814.394531 L 565.277344 794.382812 L 572.609375 788.054688 L 552.730469 765.066406 L 543.339844 773.1875 L 561.296875 793.953125 L 381.953125 774.945312 Z M 744.460938 993.371094 L 390 788.304688 L 758.082031 827.34375 Z M 771.722656 983.832031 L 778.585938 974.277344 L 768.496094 967.03125 L 757.886719 981.824219 L 770.539062 827.539062 L 1109.117188 788.628906 Z M 903.765625 799.710938 L 920.238281 776.757812 L 910.148438 769.511719 L 892.4375 794.203125 L 900.628906 800.085938 L 776.867188 814.304688 L 833.539062 714.210938 L 960.691406 714.210938 L 1113.078125 775.664062 Z M 970.335938 704.707031 L 982.074219 679.925781 L 970.855469 674.597656 L 963.523438 690.074219 L 951.835938 670.222656 L 941.136719 676.535156 L 955.996094 701.785156 L 840.585938 701.785156 L 901.597656 594.03125 L 905.59375 591.664062 L 904.230469 589.351562 L 996.664062 426.136719 L 1037.691406 533.566406 L 1035.917969 537.292969 L 1039.808594 539.140625 L 1127.183594 767.933594 Z M 1131.898438 745.359375 L 1131.878906 745.359375 L 1051.207031 534.101562 L 1060.1875 515.167969 L 1048.964844 509.839844 L 1045.074219 518.035156 L 1005.644531 414.785156 L 1119.15625 361.796875 L 1114.046875 372.574219 L 1125.265625 377.898438 L 1131.898438 363.910156 Z M 512.957031 719.140625 L 532.835938 742.128906 L 523.445312 750.253906 L 503.566406 727.265625 Z M 711.769531 948.957031 L 731.644531 971.945312 L 722.253906 980.066406 L 702.375 957.078125 Z M 592.433594 811.042969 L 612.308594 834.03125 L 602.917969 842.152344 L 583.039062 819.164062 Z M 632.1875 857 L 652.0625 879.988281 L 642.671875 888.113281 L 622.792969 865.125 Z M 672.03125 902.996094 L 691.90625 925.984375 L 682.515625 934.109375 L 662.640625 911.121094 Z M 731.894531 251.085938 L 744.226562 252.574219 L 740.605469 282.753906 L 728.273438 281.265625 Z M 739.136719 190.742188 L 751.46875 192.230469 L 747.847656 222.410156 L 735.515625 220.921875 Z M 562.480469 601.453125 L 551.816406 595.089844 L 567.375 568.980469 L 578.039062 575.347656 Z M 691.835938 360.199219 L 702.5 366.566406 L 686.941406 392.675781 L 676.277344 386.308594 Z M 629.605469 464.597656 L 640.269531 470.964844 L 624.710938 497.074219 L 614.046875 490.707031 Z M 531.382812 653.65625 L 520.71875 647.289062 L 536.277344 621.179688 L 546.941406 627.546875 Z M 859.421875 513.121094 L 874.835938 539.320312 L 864.136719 545.632812 L 848.722656 519.433594 Z M 921.082031 617.84375 L 936.496094 644.042969 L 925.792969 650.355469 L 910.378906 624.15625 Z M 771.632812 388.496094 L 756.21875 362.296875 L 766.917969 355.984375 L 782.332031 382.183594 Z M 828.574219 460.742188 L 843.992188 486.941406 L 833.289062 493.253906 L 817.875 467.054688 Z M 996.933594 619.691406 L 1008.152344 625.015625 L 995.140625 652.488281 L 983.921875 647.164062 Z M 1022.957031 564.785156 L 1034.179688 570.109375 L 1021.164062 597.582031 L 1009.945312 592.253906 Z M 1074.917969 454.953125 L 1086.140625 460.277344 L 1073.125 487.730469 L 1061.90625 482.40625 Z M 1100.960938 400.042969 L 1112.183594 405.371094 L 1099.167969 432.824219 L 1087.949219 427.496094 Z M 796.207031 949.582031 L 786.113281 942.339844 L 803.824219 917.648438 L 813.914062 924.890625 Z M 945.492188 720.128906 L 955.582031 727.371094 L 937.875 752.0625 L 927.785156 744.820312 Z M 831.625 900.199219 L 821.53125 892.953125 L 839.242188 868.261719 L 849.332031 875.507812 Z M 867.039062 850.816406 L 856.949219 843.570312 L 874.65625 818.878906 L 884.75 826.121094 Z M 439.347656 537.132812 L 427.660156 541.328125 L 417.390625 512.726562 L 429.074219 508.53125 Z M 398.265625 422.746094 L 386.578125 426.941406 L 376.308594 398.339844 L 387.996094 394.144531 Z M 418.804688 479.949219 L 407.117188 484.144531 L 396.847656 455.542969 L 408.535156 451.347656 Z M 480.410156 651.519531 L 468.722656 655.714844 L 458.453125 627.113281 L 470.136719 622.917969 Z M 480.410156 651.519531 " fill-opacity="1" fill-rule="nonzero"/></g></svg>