<svg xmlns="http://www.w3.org/2000/svg" xmlns:xlink="http://www.w3.org/1999/xlink" width="2000" zoomAndPan="magnify" viewBox="0 0 1500 1124.99995" height="1500" preserveAspectRatio="xMidYMid meet" version="1.0"><defs><clipPath id="400b125c87"><path d="M 292.117188 112.5 L 1207.867188 112.5 L 1207.867188 954 L 292.117188 954 Z M 292.117188 112.5 " clip-rule="nonzero"/></clipPath></defs><rect x="-150" width="1800" fill="#ffffff" y="-112.499995" height="1349.99994" fill-opacity="1"/><rect x="-150" width="1800" fill="#ffffff" y="-112.499995" height="1349.99994" fill-opacity="1"/><g clip-path="url(#400b125c87)"><path fill="#231f20" d="M 1207.867188 470.304688 C 1207.863281 469.039062 1207.535156 467.859375 1206.890625 466.769531 L 1031.644531 167.117188 C 1030.980469 165.996094 1030.074219 165.125 1028.925781 164.511719 L 934.558594 113.566406 C 933.523438 113.007812 932.414062 112.726562 931.234375 112.730469 L 567.238281 112.730469 C 566.050781 112.722656 564.933594 113.003906 563.890625 113.566406 L 481.496094 158.535156 C 480.378906 159.148438 479.496094 160 478.847656 161.09375 L 300.578125 462.261719 C 300.011719 463.222656 299.695312 464.261719 299.625 465.375 L 292.117188 586.730469 C 292.023438 588.222656 292.371094 589.601562 293.164062 590.871094 L 487.914062 900.988281 C 488.449219 901.808594 489.132812 902.484375 489.960938 903.011719 L 563.355469 952.46875 C 564.535156 953.261719 565.835938 953.65625 567.261719 953.65625 L 931.234375 953.65625 C 932.492188 953.652344 933.660156 953.335938 934.746094 952.699219 L 1020.113281 903.3125 C 1021.183594 902.691406 1022.027344 901.847656 1022.648438 900.777344 L 1206.914062 584.542969 C 1207.550781 583.46875 1207.875 582.308594 1207.890625 581.058594 Z M 1193.917969 472.1875 L 1193.917969 473.28125 L 1189.269531 478.839844 L 1193.917969 482.628906 L 1193.917969 562.664062 L 1160.554688 524.691406 L 1177.203125 504.488281 L 1171.808594 500.070312 L 1155.882812 519.367188 L 1022.785156 367.855469 L 961.339844 186.695312 L 984.84375 182.042969 L 983.519531 175.207031 L 959.0625 179.859375 L 943.558594 134.285156 L 1011.464844 170.859375 L 1012.582031 176.648438 L 1019.671875 175.277344 L 1020.578125 175.789062 Z M 572.421875 126.679688 L 926.238281 126.679688 L 1008.164062 368.34375 L 748.457031 525.113281 L 497.585938 377.179688 Z M 948.671875 908.382812 L 956.390625 886.734375 L 999.097656 899.382812 L 938.417969 934.519531 L 932.605469 932.425781 L 930.28125 939.402344 L 929.445312 939.890625 L 569.351562 939.890625 L 568.539062 939.332031 L 566.445312 932.378906 L 560.984375 934.097656 L 509.835938 899.640625 L 545.523438 888.523438 L 551.636719 908.101562 L 558.285156 906.011719 L 552.171875 886.453125 L 748.667969 825.183594 L 949.695312 884.710938 L 942.09375 905.988281 Z M 489.867188 169.859375 L 490.496094 169.511719 L 497.679688 171.140625 L 499.027344 164.816406 L 555.707031 133.933594 L 543.59375 174.417969 L 525.484375 170.300781 L 523.949219 177.113281 L 541.59375 181.113281 L 483.125 376.855469 L 353.632812 517.578125 L 335.960938 496.09375 L 330.59375 500.511719 L 348.425781 522.226562 L 352.28125 519.066406 L 307.273438 567.894531 L 312.761719 478.675781 L 318.132812 474.28125 L 313.480469 468.515625 L 313.480469 467.816406 Z M 307.832031 587.964844 L 490.65625 389.269531 L 741.507812 537.203125 L 741.507812 541.851562 L 734.53125 545.574219 L 737.832031 551.710938 L 741.507812 549.757812 L 741.507812 812.769531 L 496.886719 889.035156 Z M 1013.347656 889.058594 L 755.453125 812.628906 L 755.453125 549.480469 L 759.335938 551.457031 L 762.5 545.226562 L 755.523438 541.667969 L 755.523438 537.15625 L 1015.136719 380.386719 L 1192.21875 581.988281 Z M 707.84375 218.851562 L 681.570312 212.902344 L 683.105469 206.085938 L 709.375 212.0625 Z M 576.488281 189.042969 L 578.023438 182.230469 L 604.292969 188.207031 L 602.761719 194.996094 Z M 655.300781 206.925781 L 629.03125 201.089844 L 630.566406 194.277344 L 656.835938 200.25 Z M 744.992188 227.292969 L 734.113281 224.828125 L 735.648438 218.015625 L 748.550781 220.945312 L 761.523438 218.433594 L 762.847656 225.269531 L 751.96875 227.386719 L 751.96875 238.457031 L 744.992188 238.457031 Z M 744.992188 317.445312 L 751.96875 317.445312 L 751.96875 343.765625 L 744.992188 343.765625 Z M 744.992188 422.753906 L 751.96875 422.753906 L 751.96875 449.097656 L 744.992188 449.097656 Z M 744.992188 264.800781 L 751.96875 264.800781 L 751.96875 291.121094 L 744.992188 291.121094 Z M 744.992188 475.421875 L 751.96875 475.421875 L 751.96875 501.742188 L 744.992188 501.742188 Z M 744.992188 370.109375 L 751.96875 370.109375 L 751.96875 396.410156 L 744.992188 396.410156 Z M 631.542969 608.402344 L 628.261719 602.238281 L 654.8125 588.054688 L 658.089844 594.21875 Z M 578.417969 636.769531 L 575.140625 630.609375 L 601.691406 616.425781 L 604.992188 622.585938 Z M 525.296875 665.113281 L 522.019531 658.976562 L 548.570312 644.792969 L 551.871094 650.929688 Z M 684.710938 580.105469 L 681.433594 573.964844 L 707.980469 559.78125 L 711.261719 565.917969 Z M 489.03125 684.507812 L 492.332031 695.0625 L 485.660156 697.15625 L 481.707031 684.484375 L 473.289062 674.230469 L 478.683594 669.8125 L 485.660156 678.367188 L 495.515625 673.113281 L 498.792969 679.253906 Z M 533.480469 826.90625 L 541.710938 853.273438 L 535.0625 855.367188 L 526.925781 828.90625 Z M 518.601562 802.628906 L 510.371094 776.261719 L 517.019531 774.167969 L 525.25 800.535156 Z M 502.140625 749.847656 L 493.910156 723.523438 L 500.5625 721.433594 L 508.789062 747.800781 Z M 371.648438 539.503906 L 389.480469 561.222656 L 384.109375 565.664062 L 366.253906 543.945312 Z M 442.996094 626.375 L 460.851562 648.09375 L 455.460938 652.511719 L 437.605469 630.792969 Z M 407.335938 582.941406 L 425.167969 604.660156 L 419.773438 609.078125 L 401.941406 587.382812 Z M 901.59375 198.296875 L 900.269531 191.460938 L 928.003906 186.066406 L 929.351562 192.902344 Z M 846.101562 209.085938 L 844.75 202.25 L 872.511719 196.855469 L 873.835938 203.691406 Z M 790.605469 219.875 L 789.257812 213.039062 L 817.015625 207.644531 L 818.339844 214.480469 Z M 1142.191406 546.945312 L 1124.683594 568.152344 L 1119.3125 563.828125 L 1136.820312 542.621094 Z M 1066.796875 627.375 L 1072.191406 631.816406 L 1054.660156 653.023438 L 1049.289062 648.605469 Z M 1101.808594 584.941406 L 1107.179688 589.382812 L 1089.695312 610.585938 L 1084.300781 606.167969 Z M 1037.175781 674.253906 L 1028.691406 684.554688 L 1024.203125 697.109375 L 1017.625 694.785156 L 1021.300781 684.53125 L 1011.605469 679.625 L 1014.765625 673.390625 L 1024.691406 678.4375 L 1031.808594 669.835938 Z M 785.445312 556.851562 L 808.367188 568.476562 L 805.207031 574.6875 L 782.285156 563.058594 Z M 988.660156 667.90625 L 965.734375 656.277344 L 968.898438 650.046875 L 991.820312 661.671875 Z M 831.289062 580.105469 L 854.238281 591.730469 L 851.074219 597.960938 L 828.152344 586.335938 Z M 877.160156 603.355469 L 900.105469 614.980469 L 896.945312 621.214844 L 873.996094 609.585938 Z M 923.027344 626.609375 L 945.953125 638.234375 L 942.8125 644.464844 L 919.867188 632.839844 Z M 970.433594 826.578125 L 976.988281 828.90625 L 967.550781 855.320312 L 960.992188 852.996094 Z M 1008.164062 721.175781 L 1014.742188 723.5 L 1005.328125 749.847656 L 998.863281 747.519531 Z M 989.285156 773.984375 L 995.84375 776.308594 L 986.402344 802.722656 L 979.847656 800.398438 Z M 989.285156 773.984375 " fill-opacity="1" fill-rule="nonzero"/></g></svg>