<?xml version="1.0" encoding="UTF-8"?>
<!DOCTYPE svg PUBLIC "-//W3C//DTD SVG 1.1//EN" "http://www.w3.org/Graphics/SVG/1.1/DTD/svg11.dtd">
<svg xmlns="http://www.w3.org/2000/svg" version="1.1" width="1740px" height="248px" style="shape-rendering:geometricPrecision; text-rendering:geometricPrecision; image-rendering:optimizeQuality; fill-rule:evenodd; clip-rule:evenodd" xmlns:xlink="http://www.w3.org/1999/xlink">
<g><path style="opacity:1" fill="#010101" d="M -0.5,-0.5 C 579.5,-0.5 1159.5,-0.5 1739.5,-0.5C 1739.5,82.1667 1739.5,164.833 1739.5,247.5C 1159.5,247.5 579.5,247.5 -0.5,247.5C -0.5,164.833 -0.5,82.1667 -0.5,-0.5 Z"/></g>
<g><path style="opacity:1" fill="#fcfcfc" d="M 185.5,69.5 C 186.5,69.1667 187.167,68.5 187.5,67.5C 197.101,56.6222 209.268,51.2889 224,51.5C 247.35,51.1534 262.016,62.1534 268,84.5C 268.5,112.498 268.667,140.498 268.5,168.5C 260.167,168.5 251.833,168.5 243.5,168.5C 243.962,143.115 243.462,117.782 242,92.5C 237.162,81.0752 228.495,75.4086 216,75.5C 197.072,76.761 186.072,86.761 183,105.5C 182.5,126.497 182.333,147.497 182.5,168.5C 174.167,168.5 165.833,168.5 157.5,168.5C 157.5,114.5 157.5,60.5 157.5,6.5C 165.833,6.5 174.167,6.5 182.5,6.5C 182.333,29.1691 182.5,51.8358 183,74.5C 183.847,72.8068 184.68,71.1401 185.5,69.5 Z"/></g>
<g><path style="opacity:1" fill="#292929" d="M 187.5,67.5 C 187.167,68.5 186.5,69.1667 185.5,69.5C 184.337,48.6707 184.171,27.6707 185,6.5C 185.333,26.5 185.667,46.5 186,66.5C 186.383,67.056 186.883,67.3893 187.5,67.5 Z"/></g>
<g><path style="opacity:1" fill="#949494" d="M 13.5,16.5 C 54.3299,15.5014 95.3299,15.168 136.5,15.5C 136.826,23.6841 136.492,31.6841 135.5,39.5C 135.5,31.8333 135.5,24.1667 135.5,16.5C 94.8333,16.5 54.1667,16.5 13.5,16.5 Z"/></g>
<g><path style="opacity:1" fill="#fdfdfd" d="M 13.5,16.5 C 54.1667,16.5 94.8333,16.5 135.5,16.5C 135.5,24.1667 135.5,31.8333 135.5,39.5C 119.5,39.5 103.5,39.5 87.5,39.5C 87.5,82.5 87.5,125.5 87.5,168.5C 78.8333,168.5 70.1667,168.5 61.5,168.5C 61.5,125.5 61.5,82.5 61.5,39.5C 45.5,39.5 29.5,39.5 13.5,39.5C 13.5,31.8333 13.5,24.1667 13.5,16.5 Z"/></g>
<g><path style="opacity:1" fill="#1b1b1b" d="M 89.5,40.5 C 104.848,40.1673 120.181,40.5006 135.5,41.5C 120.515,42.4993 105.515,42.8327 90.5,42.5C 90.6667,84.5013 90.5,126.501 90,168.5C 89.5,125.835 89.3333,83.168 89.5,40.5 Z"/></g>
<g><path style="opacity:1" fill="#fafafa" d="M 403.5,95.5 C 403.5,103.5 403.5,111.5 403.5,119.5C 374.5,119.5 345.5,119.5 316.5,119.5C 316.054,122.01 316.72,124.01 318.5,125.5C 319.305,127.915 320.305,130.249 321.5,132.5C 332.746,147.914 347.746,152.747 366.5,147C 371.368,145.67 375.701,143.504 379.5,140.5C 380.962,139.542 382.295,138.376 383.5,137C 384.5,136.333 385.5,136.333 386.5,137C 390.881,141.045 394.881,145.378 398.5,150C 381.704,166.96 361.371,173.294 337.5,169C 327.854,167.182 319.188,163.348 311.5,157.5C 303.843,150.832 298.177,142.832 294.5,133.5C 286.594,108.523 291.261,86.356 308.5,67C 325.16,53.3296 344.16,48.6629 365.5,53C 387.719,58.5938 400.386,72.7604 403.5,95.5 Z"/></g>
<g><path style="opacity:1" fill="#fafafa" d="M 471.5,51.5 C 500.172,48.9174 521.672,59.9174 536,84.5C 541.611,101.047 541.944,117.714 537,134.5C 529.299,152.102 516.133,163.268 497.5,168C 470.414,174.45 447.914,167.284 430,146.5C 418.773,127.978 416.44,108.312 423,87.5C 432.826,66.827 448.992,54.827 471.5,51.5 Z"/></g>
<g><path style="opacity:1" fill="#fdfdfd" d="M 624.5,52.5 C 626.833,52.5 629.167,52.5 631.5,52.5C 631.5,60.1667 631.5,67.8333 631.5,75.5C 627.958,75.1872 624.625,75.5206 621.5,76.5C 605.046,79.9538 595.379,89.9538 592.5,106.5C 591.503,126.993 591.169,147.66 591.5,168.5C 583.5,168.5 575.5,168.5 567.5,168.5C 567.5,130.167 567.5,91.8333 567.5,53.5C 575.5,53.5 583.5,53.5 591.5,53.5C 591.334,60.8409 591.5,68.1742 592,75.5C 592.717,74.9558 593.217,74.2891 593.5,73.5C 599.853,60.8103 610.186,53.8103 624.5,52.5 Z"/></g>
<g><path style="opacity:1" fill="#a5a5a5" d="M 624.5,52.5 C 626.948,51.5269 629.615,51.1936 632.5,51.5C 632.5,59.8333 632.5,68.1667 632.5,76.5C 628.833,76.5 625.167,76.5 621.5,76.5C 624.625,75.5206 627.958,75.1872 631.5,75.5C 631.5,67.8333 631.5,60.1667 631.5,52.5C 629.167,52.5 626.833,52.5 624.5,52.5 Z"/></g>
<g><path style="opacity:1" fill="#fafafa" d="M 754.5,98.5 C 754.5,105.5 754.5,112.5 754.5,119.5C 725.329,119.169 696.329,119.502 667.5,120.5C 674.207,142.867 689.207,152.033 712.5,148C 721.704,146.316 729.538,142.149 736,135.5C 740.133,140.634 744.633,145.468 749.5,150C 739.266,161.117 726.599,167.45 711.5,169C 680.383,173.529 658.216,161.696 645,133.5C 636.387,106.532 642.22,83.3649 662.5,64C 684.078,49.8057 706.745,47.8057 730.5,58C 745.045,67.5849 753.045,81.0849 754.5,98.5 Z"/></g>
<g><path style="opacity:1" fill="#fcfcfc" d="M 974.5,89.5 C 974.5,115.833 974.5,142.167 974.5,168.5C 966.167,168.5 957.833,168.5 949.5,168.5C 949.667,144.498 949.5,120.498 949,96.5C 947.372,86.2062 941.539,79.7062 931.5,77C 915.311,72.8592 903.311,78.0258 895.5,92.5C 893.267,95.39 891.934,98.7233 891.5,102.5C 890.503,124.327 890.169,146.327 890.5,168.5C 882.167,168.5 873.833,168.5 865.5,168.5C 865.667,145.164 865.5,121.831 865,98.5C 864.08,95.8987 863.413,93.2321 863,90.5C 862.303,88.4156 861.136,86.7489 859.5,85.5C 853.839,78.4313 846.339,75.098 837,75.5C 829.213,75.3649 822.713,78.0316 817.5,83.5C 810.612,89.9476 806.945,97.9476 806.5,107.5C 805.503,127.66 805.17,147.993 805.5,168.5C 797.5,168.5 789.5,168.5 781.5,168.5C 781.5,130.167 781.5,91.8333 781.5,53.5C 789.5,53.5 797.5,53.5 805.5,53.5C 805.334,60.5079 805.5,67.5079 806,74.5C 806.717,73.9558 807.217,73.2891 807.5,72.5C 816.33,57.8292 829.497,50.8292 847,51.5C 866.554,51.1866 880.387,59.8532 888.5,77.5C 899.232,57.6332 915.898,49.1332 938.5,52C 954.437,53.5989 965.604,61.7656 972,76.5C 973.631,80.6879 974.464,85.0212 974.5,89.5 Z"/></g>
<g><path style="opacity:1" fill="#c4c4c4" d="M 593.5,73.5 C 593.217,74.2891 592.717,74.9558 592,75.5C 591.5,68.1742 591.334,60.8409 591.5,53.5C 583.5,53.5 575.5,53.5 567.5,53.5C 567.5,91.8333 567.5,130.167 567.5,168.5C 567.167,168.5 566.833,168.5 566.5,168.5C 566.5,129.833 566.5,91.1667 566.5,52.5C 575.167,52.5 583.833,52.5 592.5,52.5C 592.175,59.6866 592.509,66.6866 593.5,73.5 Z"/></g>
<g><path style="opacity:1" fill="#fcfcfc" d="M 1096.5,70.5 C 1075.51,96.1513 1054.18,121.485 1032.5,146.5C 1031.96,146.56 1031.62,146.893 1031.5,147.5C 1044.48,148.499 1057.48,148.832 1070.5,148.5C 1079.83,148.5 1089.17,148.5 1098.5,148.5C 1098.5,155.167 1098.5,161.833 1098.5,168.5C 1065.5,168.5 1032.5,168.5 999.5,168.5C 999.334,162.824 999.501,157.157 1000,151.5C 1021.83,125.667 1043.67,99.8333 1065.5,74C 1044.5,73.5 1023.5,73.3334 1002.5,73.5C 1002.5,66.8333 1002.5,60.1667 1002.5,53.5C 1033.83,53.5 1065.17,53.5 1096.5,53.5C 1096.5,59.1667 1096.5,64.8333 1096.5,70.5 Z"/></g>
<g><path style="opacity:1" fill="#b4b4b4" d="M 807.5,72.5 C 807.217,73.2891 806.717,73.9558 806,74.5C 805.5,67.5079 805.334,60.5079 805.5,53.5C 797.5,53.5 789.5,53.5 781.5,53.5C 781.5,91.8333 781.5,130.167 781.5,168.5C 781.167,168.5 780.833,168.5 780.5,168.5C 780.5,129.833 780.5,91.1667 780.5,52.5C 789.167,52.5 797.833,52.5 806.5,52.5C 806.176,59.3543 806.509,66.021 807.5,72.5 Z"/></g>
<g><path style="opacity:1" fill="#c2c2c2" d="M 1096.5,70.5 C 1096.5,64.8333 1096.5,59.1667 1096.5,53.5C 1065.17,53.5 1033.83,53.5 1002.5,53.5C 1002.5,60.1667 1002.5,66.8333 1002.5,73.5C 1001.51,66.6866 1001.18,59.6866 1001.5,52.5C 1033.5,52.5 1065.5,52.5 1097.5,52.5C 1097.82,58.69 1097.49,64.69 1096.5,70.5 Z"/></g>
<g><path style="opacity:1" fill="#f6c230" d="M 1184.5,64.5 C 1205.23,62.2398 1222.4,68.9065 1236,84.5C 1246.22,100.872 1247.22,117.872 1239,135.5C 1225.2,160.991 1204.36,177.824 1176.5,186C 1167.18,188.08 1158.85,186.247 1151.5,180.5C 1146.73,196.59 1143.06,212.923 1140.5,229.5C 1132.93,229.432 1129.27,225.599 1129.5,218C 1136.38,174.641 1149.21,133.141 1168,93.5C 1172.19,92.2489 1175.52,93.5823 1178,97.5C 1179.3,99.3646 1179.63,101.365 1179,103.5C 1173.44,114.205 1169.11,125.205 1166,136.5C 1171.03,132.103 1175.36,132.77 1179,138.5C 1179.67,140.5 1179.67,142.5 1179,144.5C 1172.69,148.814 1167.02,153.814 1162,159.5C 1158.98,164.062 1157.48,169.062 1157.5,174.5C 1190.9,170.887 1214.73,153.887 1229,123.5C 1232.61,113.678 1233.27,103.678 1231,93.5C 1225.72,83.107 1217.22,77.607 1205.5,77C 1174.45,77.4597 1147.29,87.9597 1124,108.5C 1119.43,113.304 1115.6,118.637 1112.5,124.5C 1113.37,126.747 1113.71,129.08 1113.5,131.5C 1107.69,132.348 1103.86,130.015 1102,124.5C 1100.43,117.315 1102.09,110.982 1107,105.5C 1128.32,83.2563 1154.16,69.5897 1184.5,64.5 Z"/></g>
<g><path style="opacity:1" fill="#050505" d="M 342.5,72.5 C 365.299,69.5347 378.633,79.2014 382.5,101.5C 360.497,101.667 338.497,101.5 316.5,101C 319.152,85.854 327.819,76.354 342.5,72.5 Z"/></g>
<g><path style="opacity:1" fill="#020202" d="M 721.5,79.5 C 720.761,79.369 720.094,79.5357 719.5,80C 721.96,81.4578 724.127,83.2911 726,85.5C 727.893,90.0068 729.059,94.6734 729.5,99.5C 709.833,99.5 690.167,99.5 670.5,99.5C 670.435,94.304 669.768,94.304 668.5,99.5C 679,99.8333 689.5,100.167 700,100.5C 711.059,100.477 721.893,99.8106 732.5,98.5C 732.5,99.5 732.5,100.5 732.5,101.5C 710.474,102.156 688.808,101.489 667.5,99.5C 672.925,78.9426 686.258,70.1092 707.5,73C 711.009,73.4219 714.343,74.4219 717.5,76C 719.324,76.66 720.657,77.8267 721.5,79.5 Z"/></g>
<g><path style="opacity:1" fill="#1a1a1a" d="M 859.5,85.5 C 859.631,86.2389 859.464,86.9056 859,87.5C 853.869,80.8553 847.035,77.8553 838.5,78.5C 831.259,78.1921 824.759,80.1921 819,84.5C 818.617,83.944 818.117,83.6107 817.5,83.5C 822.713,78.0316 829.213,75.3649 837,75.5C 846.339,75.098 853.839,78.4313 859.5,85.5 Z"/></g>
<g><path style="opacity:1" fill="#040404" d="M 473.5,73.5 C 499.469,72.4786 513.469,84.8119 515.5,110.5C 512.353,141.248 495.686,153.081 465.5,146C 450.387,137.277 443.553,124.111 445,106.5C 447.099,88.8981 456.599,77.8981 473.5,73.5 Z"/></g>
<g><path style="opacity:1" fill="#8b8b8b" d="M 974.5,89.5 C 975.498,115.995 975.831,142.661 975.5,169.5C 966.651,169.826 957.984,169.493 949.5,168.5C 957.833,168.5 966.167,168.5 974.5,168.5C 974.5,142.167 974.5,115.833 974.5,89.5 Z"/></g>
<g><path style="opacity:1" fill="#1e1e1e" d="M 721.5,79.5 C 724.428,80.5914 726.594,82.5914 728,85.5C 730.354,89.2023 731.854,93.2023 732.5,97.5C 732.5,97.8333 732.5,98.1667 732.5,98.5C 721.893,99.8106 711.059,100.477 700,100.5C 689.5,100.167 679,99.8333 668.5,99.5C 669.768,94.304 670.435,94.304 670.5,99.5C 690.167,99.5 709.833,99.5 729.5,99.5C 729.059,94.6734 727.893,90.0068 726,85.5C 724.127,83.2911 721.96,81.4578 719.5,80C 720.094,79.5357 720.761,79.369 721.5,79.5 Z"/></g>
<g><path style="opacity:1" fill="#b1b1b1" d="M 732.5,97.5 C 733.451,98.9187 733.784,100.585 733.5,102.5C 711.167,102.5 688.833,102.5 666.5,102.5C 666.263,101.209 666.596,100.209 667.5,99.5C 688.808,101.489 710.474,102.156 732.5,101.5C 732.5,100.5 732.5,99.5 732.5,98.5C 732.5,98.1667 732.5,97.8333 732.5,97.5 Z"/></g>
<g><path style="opacity:1" fill="#949494" d="M 592.5,106.5 C 592.5,127.5 592.5,148.5 592.5,169.5C 583.651,169.826 574.984,169.493 566.5,168.5C 566.833,168.5 567.167,168.5 567.5,168.5C 575.5,168.5 583.5,168.5 591.5,168.5C 591.169,147.66 591.503,126.993 592.5,106.5 Z"/></g>
<g><path style="opacity:1" fill="#232323" d="M 895.5,92.5 C 895.923,93.2646 896.257,94.0979 896.5,95C 895.287,98.0662 894.453,101.233 894,104.5C 893.667,125.833 893.333,147.167 893,168.5C 892.832,146.33 892.332,124.33 891.5,102.5C 891.934,98.7233 893.267,95.39 895.5,92.5 Z"/></g>
<g><path style="opacity:1" fill="#848484" d="M 806.5,107.5 C 806.5,128.167 806.5,148.833 806.5,169.5C 797.651,169.826 788.984,169.493 780.5,168.5C 780.833,168.5 781.167,168.5 781.5,168.5C 789.5,168.5 797.5,168.5 805.5,168.5C 805.17,147.993 805.503,127.66 806.5,107.5 Z"/></g>
<g><path style="opacity:1" fill="#dbdbdb" d="M 403.5,95.5 C 404.493,103.65 404.826,111.983 404.5,120.5C 375.5,120.5 346.5,120.5 317.5,120.5C 317.629,122.216 317.962,123.883 318.5,125.5C 316.72,124.01 316.054,122.01 316.5,119.5C 345.5,119.5 374.5,119.5 403.5,119.5C 403.5,111.5 403.5,103.5 403.5,95.5 Z"/></g>
<g><path style="opacity:1" fill="#d4d4d4" d="M 754.5,98.5 C 755.492,105.648 755.825,112.981 755.5,120.5C 726.167,120.5 696.833,120.5 667.5,120.5C 696.329,119.502 725.329,119.169 754.5,119.5C 754.5,112.5 754.5,105.5 754.5,98.5 Z"/></g>
<g><path style="opacity:1" fill="#f3c02f" d="M 1494.5,121.5 C 1500.42,121.087 1504.09,123.754 1505.5,129.5C 1504.02,132.464 1502.52,135.464 1501,138.5C 1500.26,139.574 1499.26,140.241 1498,140.5C 1488.1,135.87 1486.93,129.536 1494.5,121.5 Z"/></g>
<g><path style="opacity:1" fill="#191919" d="M 379.5,140.5 C 375.701,143.504 371.368,145.67 366.5,147C 347.746,152.747 332.746,147.914 321.5,132.5C 322.117,132.389 322.617,132.056 323,131.5C 332.138,143.554 344.304,148.387 359.5,146C 366.029,145.233 372.029,143.066 377.5,139.5C 378.183,139.863 378.85,140.196 379.5,140.5 Z"/></g>
<g><path style="opacity:1" fill="#222222" d="M 294.5,133.5 C 298.177,142.832 303.843,150.832 311.5,157.5C 310.883,157.611 310.383,157.944 310,158.5C 304.247,153.084 299.247,147.084 295,140.5C 294.503,138.19 294.337,135.857 294.5,133.5 Z"/></g>
<g><path style="opacity:1" fill="#242424" d="M 1035.5,144.5 C 1056.43,145.322 1077.43,145.822 1098.5,146C 1077.17,146.667 1055.83,146.667 1034.5,146C 1035.06,145.617 1035.39,145.117 1035.5,144.5 Z"/></g>
<g><path style="opacity:1" fill="#606060" d="M 1032.5,146.5 C 1045.17,147.167 1057.83,147.833 1070.5,148.5C 1057.48,148.832 1044.48,148.499 1031.5,147.5C 1031.62,146.893 1031.96,146.56 1032.5,146.5 Z"/></g>
<g><path style="opacity:1" fill="#f7c330" d="M 1289.5,156.5 C 1293.32,162.754 1291.65,165.254 1284.5,164C 1283.65,162.978 1282.65,162.145 1281.5,161.5C 1267.34,168.987 1257.01,179.987 1250.5,194.5C 1248.96,198.053 1246.29,199.22 1242.5,198C 1239.72,195.888 1237.72,193.221 1236.5,190C 1241.16,176.19 1246.49,162.69 1252.5,149.5C 1254.22,148.339 1255.89,148.505 1257.5,150C 1260,151.167 1261.83,153 1263,155.5C 1272.31,148.527 1281.15,148.86 1289.5,156.5 Z"/></g>
<g><path style="opacity:1" fill="#f7c330" d="M 1528.5,173.5 C 1526.23,176.772 1524.23,180.272 1522.5,184C 1524.81,183.553 1526.81,182.387 1528.5,180.5C 1540.8,170.868 1552.8,160.868 1564.5,150.5C 1569.25,151.659 1571.91,154.659 1572.5,159.5C 1571.24,166.272 1569.58,172.938 1567.5,179.5C 1568,179.833 1568.5,180.167 1569,180.5C 1580.63,175.203 1590.13,167.37 1597.5,157C 1602.56,155.709 1606.06,157.542 1608,162.5C 1608.54,165.419 1608.21,168.086 1607,170.5C 1616.42,163.203 1626.58,157.036 1637.5,152C 1649.83,150.665 1655,156.165 1653,168.5C 1652.63,169.416 1652.13,170.25 1651.5,171C 1654.48,170.021 1657.48,168.688 1660.5,167C 1670.58,166.552 1676.92,171.386 1679.5,181.5C 1693.43,175.87 1706.43,168.704 1718.5,160C 1722.51,158.584 1724.84,159.918 1725.5,164C 1725.36,166.151 1724.36,167.818 1722.5,169C 1709.82,180.002 1695.82,189.002 1680.5,196C 1669.21,196.542 1663.88,191.375 1664.5,180.5C 1657.63,185.429 1650.63,190.095 1643.5,194.5C 1638.24,193.239 1635.57,189.906 1635.5,184.5C 1636.62,178.395 1637.79,172.395 1639,166.5C 1631.24,170.959 1623.74,175.793 1616.5,181C 1609.46,186.844 1602.46,192.678 1595.5,198.5C 1587.97,196.112 1585.14,191.112 1587,183.5C 1582.4,188.104 1577.23,191.938 1571.5,195C 1559.66,196.164 1553.82,190.664 1554,178.5C 1545.04,187.978 1534.37,194.644 1522,198.5C 1513.23,196.376 1508.89,190.709 1509,181.5C 1501.54,188.231 1492.87,192.564 1483,194.5C 1479.36,194.597 1476.19,193.43 1473.5,191C 1471.38,187.918 1469.38,184.751 1467.5,181.5C 1458.82,188.342 1449.15,193.342 1438.5,196.5C 1429.68,194.839 1425.51,189.506 1426,180.5C 1419.23,185.617 1412.23,190.283 1405,194.5C 1400.43,192.927 1397.6,189.76 1396.5,185C 1398.16,178.557 1399.5,172.39 1400.5,166.5C 1388.34,173.009 1377.34,181.009 1367.5,190.5C 1364.7,192.795 1362.04,195.295 1359.5,198C 1357.83,198.667 1356.17,198.667 1354.5,198C 1352.67,196.167 1350.83,194.333 1349,192.5C 1348.46,187.363 1348.8,182.363 1350,177.5C 1340.83,183.858 1331.33,189.525 1321.5,194.5C 1317.48,195.895 1313.48,197.395 1309.5,199C 1297.82,201.308 1291.16,196.642 1289.5,185C 1292.13,169.097 1300.79,157.764 1315.5,151C 1323.68,149.756 1329.01,153.09 1331.5,161C 1329.7,165.815 1326.7,169.815 1322.5,173C 1316.78,176.527 1310.78,179.527 1304.5,182C 1302.96,183.11 1302.3,184.61 1302.5,186.5C 1320.93,181.119 1338.26,173.285 1354.5,163C 1356.5,160.131 1358.84,157.631 1361.5,155.5C 1368.98,158.377 1371.48,163.377 1369,170.5C 1379.14,161.679 1390.64,155.346 1403.5,151.5C 1407.56,151.446 1410.72,153.112 1413,156.5C 1414.66,161.457 1415,166.457 1414,171.5C 1427.23,162.857 1436.06,166.19 1440.5,181.5C 1451.39,177.388 1461.72,172.221 1471.5,166C 1474.46,161.249 1477.29,156.416 1480,151.5C 1482.28,149.016 1484.78,148.849 1487.5,151C 1489.96,152.787 1491.62,155.121 1492.5,158C 1488.3,165.408 1484.63,173.075 1481.5,181C 1493.08,177.151 1504.08,171.817 1514.5,165C 1517.21,162.629 1519.54,159.963 1521.5,157C 1529,156.5 1532.5,160 1532,167.5C 1530.05,169.063 1528.89,171.063 1528.5,173.5 Z"/></g>
<g><path style="opacity:1" fill="#9f9f9f" d="M 1098.5,148.5 C 1099.49,155.313 1099.82,162.313 1099.5,169.5C 1066,169.832 1032.66,169.498 999.5,168.5C 1032.5,168.5 1065.5,168.5 1098.5,168.5C 1098.5,161.833 1098.5,155.167 1098.5,148.5 Z"/></g>
<g><path style="opacity:1" fill="#291f08" d="M 1528.5,173.5 C 1527.9,176.103 1527.9,178.436 1528.5,180.5C 1526.81,182.387 1524.81,183.553 1522.5,184C 1524.23,180.272 1526.23,176.772 1528.5,173.5 Z"/></g>
<g><path style="opacity:1" fill="#181102" d="M 1250.5,194.5 C 1257.01,179.987 1267.34,168.987 1281.5,161.5C 1282.65,162.145 1283.65,162.978 1284.5,164C 1291.65,165.254 1293.32,162.754 1289.5,156.5C 1289.37,155.761 1289.54,155.094 1290,154.5C 1296.43,160.286 1295.6,164.619 1287.5,167.5C 1285.5,166.5 1283.5,165.5 1281.5,164.5C 1267.78,171.72 1257.61,182.387 1251,196.5C 1250.54,195.906 1250.37,195.239 1250.5,194.5 Z"/></g>
<g><path style="opacity:1" fill="#181102" d="M 1367.5,190.5 C 1368.24,190.369 1368.91,190.536 1369.5,191C 1365.33,194.5 1361.17,198 1357,201.5C 1353.09,199.593 1349.76,196.927 1347,193.5C 1346.67,189.833 1346.33,186.167 1346,182.5C 1339.5,186.752 1332.83,190.752 1326,194.5C 1324.98,193.366 1324.32,193.699 1324,195.5C 1323.33,194.748 1322.5,194.414 1321.5,194.5C 1331.33,189.525 1340.83,183.858 1350,177.5C 1348.8,182.363 1348.46,187.363 1349,192.5C 1350.83,194.333 1352.67,196.167 1354.5,198C 1356.17,198.667 1357.83,198.667 1359.5,198C 1362.04,195.295 1364.7,192.795 1367.5,190.5 Z"/></g>
</svg>
