<?xml version="1.0" encoding="UTF-8"?>
<!DOCTYPE svg PUBLIC "-//W3C//DTD SVG 1.1//EN" "http://www.w3.org/Graphics/SVG/1.1/DTD/svg11.dtd">
<svg xmlns="http://www.w3.org/2000/svg" version="1.1" width="512px" height="512px" style="shape-rendering:geometricPrecision; text-rendering:geometricPrecision; image-rendering:optimizeQuality; fill-rule:evenodd; clip-rule:evenodd" xmlns:xlink="http://www.w3.org/1999/xlink">
<g><path style="opacity:0.933" fill="#fefffe" d="M 164.5,153.5 C 178.382,151.068 189.549,155.402 198,166.5C 208.287,182.96 213.953,200.96 215,220.5C 216.61,243.875 218.61,267.209 221,290.5C 222.255,297.598 223.922,304.598 226,311.5C 227.349,317.557 229.849,323.057 233.5,328C 234.833,328.667 236.167,328.667 237.5,328C 240.952,324.266 243.785,320.1 246,315.5C 252.589,300.068 258.589,284.401 264,268.5C 268.548,257.892 274.715,248.392 282.5,240C 291.365,234.364 298.865,235.864 305,244.5C 310.861,254.888 316.194,265.554 321,276.5C 325.451,284.618 331.617,291.118 339.5,296C 344.983,297.954 350.649,298.954 356.5,299C 360.5,302.667 360.5,306.333 356.5,310C 336.476,311.402 321.643,303.236 312,285.5C 306.651,274.802 301.318,264.136 296,253.5C 293,249.5 290,249.5 287,253.5C 279.117,269.932 271.784,286.599 265,303.5C 260.37,313.415 255.37,323.082 250,332.5C 235.748,346.389 224.748,344.056 217,325.5C 211.099,308.562 206.766,291.229 204,273.5C 201.52,256.138 198.853,238.805 196,221.5C 193.904,207.542 189.237,194.542 182,182.5C 173.502,172.795 165.835,173.462 159,184.5C 148.715,203.017 141.381,222.684 137,243.5C 131.744,267.778 126.744,292.112 122,316.5C 119.523,327.266 115.856,337.599 111,347.5C 108.861,350.939 106.361,354.106 103.5,357C 97.0115,359.176 92.6782,357.176 90.5,351C 93.0579,342.602 95.2246,334.102 97,325.5C 102.452,295.457 108.118,265.457 114,235.5C 119.393,210.392 129.393,187.392 144,166.5C 150.035,160.742 156.868,156.409 164.5,153.5 Z"/></g>
<g><path style="opacity:0.937" fill="#fefffe" d="M 360.5,262.5 C 365.901,261.966 370.901,263.133 375.5,266C 387.544,276.379 399.877,286.379 412.5,296C 419.202,300.668 421.369,306.835 419,314.5C 417.786,316.049 416.286,317.215 414.5,318C 390.816,323.45 367.482,330.117 344.5,338C 337.757,339.799 333.757,337.299 332.5,330.5C 332.97,328.226 333.97,326.226 335.5,324.5C 351.597,316.285 368.264,309.452 385.5,304C 377.706,296.939 369.372,290.605 360.5,285C 354.161,279.487 352.661,272.987 356,265.5C 357.652,264.601 359.152,263.601 360.5,262.5 Z"/></g>
</svg>
