<?xml version="1.0" encoding="UTF-8"?>
<!DOCTYPE svg PUBLIC "-//W3C//DTD SVG 1.1//EN" "http://www.w3.org/Graphics/SVG/1.1/DTD/svg11.dtd">
<svg xmlns="http://www.w3.org/2000/svg" version="1.1" width="1280px" height="960px" style="shape-rendering:geometricPrecision; text-rendering:geometricPrecision; image-rendering:optimizeQuality; fill-rule:evenodd; clip-rule:evenodd" xmlns:xlink="http://www.w3.org/1999/xlink">
<g><path style="opacity:0.993" fill="#242020" d="M 826.5,357.5 C 818.484,358.719 811.818,356.385 806.5,350.5C 811.954,345.865 816.121,340.198 819,333.5C 820.368,327.731 818.534,323.231 813.5,320C 809.625,318.48 805.625,318.146 801.5,319C 796.888,320.639 792.554,322.806 788.5,325.5C 786.433,323.044 784.599,320.378 783,317.5C 782.81,311.584 782.31,305.751 781.5,300C 775.538,300.471 769.538,300.471 763.5,300C 761.548,299.634 759.882,298.801 758.5,297.5C 762.66,286.242 770.66,279.409 782.5,277C 796.853,273.725 810.187,276.059 822.5,284C 830.934,290.369 834.934,298.869 834.5,309.5C 832.479,325.626 829.812,341.626 826.5,357.5 Z"/></g>
<g><path style="opacity:0.983" fill="#33cbfe" d="M 705.5,440.5 C 699.606,442.153 693.606,443.82 687.5,445.5C 680.804,401.71 673.304,358.044 665,314.5C 662.101,307.268 656.934,302.435 649.5,300C 579.833,299.333 510.167,299.333 440.5,300C 433.602,302.265 429.935,307.099 429.5,314.5C 438.226,362.52 447.059,410.52 456,458.5C 458.659,464.492 463.159,468.325 469.5,470C 505.165,470.5 540.832,470.667 576.5,470.5C 577.5,473.5 579.5,475.5 582.5,476.5C 582.5,477.5 582.5,478.5 582.5,479.5C 580.457,480.579 579.124,482.246 578.5,484.5C 563.258,483.875 548.258,484.541 533.5,486.5C 513.833,486.5 494.167,486.5 474.5,486.5C 474.046,484.741 474.046,482.741 474.5,480.5C 465.682,479.507 456.682,479.173 447.5,479.5C 441.94,474.387 438.44,468.053 437,460.5C 428.333,411.167 419.667,361.833 411,312.5C 407.69,298.281 412.857,288.781 426.5,284C 503.5,283.333 580.5,283.333 657.5,284C 671.1,287.933 679.6,296.767 683,310.5C 690.826,353.789 698.326,397.122 705.5,440.5 Z"/></g>
<g><path style="opacity:0.994" fill="#f59f75" d="M 758.5,297.5 C 759.882,298.801 761.548,299.634 763.5,300C 769.538,300.471 775.538,300.471 781.5,300C 782.31,305.751 782.81,311.584 783,317.5C 784.599,320.378 786.433,323.044 788.5,325.5C 792.554,322.806 796.888,320.639 801.5,319C 805.625,318.146 809.625,318.48 813.5,320C 818.534,323.231 820.368,327.731 819,333.5C 816.121,340.198 811.954,345.865 806.5,350.5C 811.818,356.385 818.484,358.719 826.5,357.5C 825.861,362.696 824.861,367.696 823.5,372.5C 806.675,371.503 789.675,371.17 772.5,371.5C 772.833,369.5 773.167,367.5 773.5,365.5C 777.479,363.846 781.479,362.179 785.5,360.5C 786.386,359.675 786.719,358.675 786.5,357.5C 782.687,358.16 779.021,359.326 775.5,361C 773.574,361.422 772.574,362.589 772.5,364.5C 750.814,367.646 741.647,358.313 745,336.5C 747.591,331.971 747.591,327.638 745,323.5C 744.333,321.5 744.333,319.5 745,317.5C 747.052,316.277 749.219,315.277 751.5,314.5C 753.645,308.724 755.979,303.057 758.5,297.5 Z"/></g>
<g><path style="opacity:1" fill="#fefefe" d="M 687.5,445.5 C 680.97,447.785 674.636,450.452 668.5,453.5C 667.5,453.5 666.5,453.5 665.5,453.5C 646.371,441.511 625.705,433.345 603.5,429C 596.464,428.28 589.464,428.447 582.5,429.5C 583.834,439.503 585.167,449.503 586.5,459.5C 586.5,460.833 586.5,462.167 586.5,463.5C 580.532,462.459 577.199,464.792 576.5,470.5C 540.832,470.667 505.165,470.5 469.5,470C 463.159,468.325 458.659,464.492 456,458.5C 447.059,410.52 438.226,362.52 429.5,314.5C 429.935,307.099 433.602,302.265 440.5,300C 510.167,299.333 579.833,299.333 649.5,300C 656.934,302.435 662.101,307.268 665,314.5C 673.304,358.044 680.804,401.71 687.5,445.5 Z"/></g>
<g><path style="opacity:1" fill="#342927" d="M 760.5,315.5 C 763.956,316.536 764.29,318.203 761.5,320.5C 759.296,319.218 758.962,317.551 760.5,315.5 Z"/></g>
<g><path style="opacity:1" fill="#2e1d16" d="M 802.5,331.5 C 804.225,331.843 804.725,332.843 804,334.5C 801.933,337.07 799.433,339.07 796.5,340.5C 795.417,339.635 795.251,338.635 796,337.5C 798.664,336.002 800.83,334.002 802.5,331.5 Z"/></g>
<g><path style="opacity:1" fill="#2a1b14" d="M 758.5,333.5 C 759.5,333.5 760.5,333.5 761.5,333.5C 761.67,334.822 761.337,335.989 760.5,337C 757.649,338.289 754.649,338.789 751.5,338.5C 751.5,337.5 751.5,336.5 751.5,335.5C 754.388,336.01 756.721,335.344 758.5,333.5 Z"/></g>
<g><path style="opacity:1" fill="#27f9cb" d="M 491.5,340.5 C 516.502,340.333 541.502,340.5 566.5,341C 576.832,343.998 583.998,350.498 588,360.5C 592.15,380.734 595.65,401.067 598.5,421.5C 573.164,421.667 547.831,421.5 522.5,421C 512.333,417.5 505.5,410.667 502,400.5C 498.494,380.483 494.994,360.483 491.5,340.5 Z"/></g>
<g><path style="opacity:1" fill="#2df9cc" d="M 618.5,349.5 C 621.547,348.855 623.713,349.855 625,352.5C 629.341,372.705 632.841,393.039 635.5,413.5C 633.801,413.66 632.134,413.494 630.5,413C 620.998,407.081 611.331,401.414 601.5,396C 598.933,387.336 596.933,378.503 595.5,369.5C 595.833,368.5 596.167,367.5 596.5,366.5C 603.902,360.813 611.235,355.147 618.5,349.5 Z"/></g>
<g><path style="opacity:1" fill="#321f18" d="M 773.5,365.5 C 772.833,365.5 772.5,365.167 772.5,364.5C 772.574,362.589 773.574,361.422 775.5,361C 779.021,359.326 782.687,358.16 786.5,357.5C 786.719,358.675 786.386,359.675 785.5,360.5C 781.479,362.179 777.479,363.846 773.5,365.5 Z"/></g>
<g><path style="opacity:0.995" fill="#25f8ca" d="M 772.5,371.5 C 789.675,371.17 806.675,371.503 823.5,372.5C 823.5,373.833 823.5,375.167 823.5,376.5C 819.5,376.5 815.5,376.5 811.5,376.5C 811.5,377.5 811.5,378.5 811.5,379.5C 815.514,379.666 819.514,379.499 823.5,379C 824.056,378.617 824.389,378.117 824.5,377.5C 848.108,383.268 864.941,397.268 875,419.5C 884.686,443.413 890.52,468.246 892.5,494C 893.229,510.171 887.562,523.505 875.5,534C 871.394,536.202 867.06,537.702 862.5,538.5C 834.852,539.448 807.185,539.781 779.5,539.5C 785.979,538.509 792.646,538.176 799.5,538.5C 798.347,523.511 797.347,508.511 796.5,493.5C 796.5,492.167 796.5,490.833 796.5,489.5C 811.4,488.356 826.233,487.023 841,485.5C 839.122,472.251 837.288,458.917 835.5,445.5C 834.5,445.5 833.5,445.5 832.5,445.5C 829.861,447.309 827.694,449.642 826,452.5C 823.91,464.295 819.41,474.962 812.5,484.5C 804.68,484.633 797.347,486.3 790.5,489.5C 784.071,490.515 777.738,491.848 771.5,493.5C 768.776,476.156 765.943,458.823 763,441.5C 760.404,439.98 757.571,439.147 754.5,439C 741.838,437.412 729.172,437.245 716.5,438.5C 721.202,424.881 727.702,412.214 736,400.5C 745.022,388.739 756.856,381.739 771.5,379.5C 771.575,376.794 771.908,374.127 772.5,371.5 Z"/></g>
<g><path style="opacity:0.982" fill="#3b9380" d="M 823.5,376.5 C 824.167,376.5 824.5,376.833 824.5,377.5C 824.389,378.117 824.056,378.617 823.5,379C 819.514,379.499 815.514,379.666 811.5,379.5C 811.5,378.5 811.5,377.5 811.5,376.5C 815.5,376.5 819.5,376.5 823.5,376.5 Z"/></g>
<g><path style="opacity:1" fill="#df4d7d" d="M 665.5,453.5 C 670.886,495.204 676.553,536.871 682.5,578.5C 677.239,574.703 671.572,571.703 665.5,569.5C 665.158,568.662 664.492,568.328 663.5,568.5C 655.48,563.821 646.813,560.487 637.5,558.5C 636.5,558.5 635.5,558.5 634.5,558.5C 630.48,556.705 626.147,555.538 621.5,555C 615.115,554.207 608.782,554.374 602.5,555.5C 601.808,554.975 601.308,554.308 601,553.5C 600.68,549.786 600.18,546.119 599.5,542.5C 599.218,538.426 598.552,534.426 597.5,530.5C 598.167,530.5 598.833,530.5 599.5,530.5C 601.729,533.094 603.895,532.76 606,529.5C 606.407,525.716 607.241,522.049 608.5,518.5C 608.563,516.519 607.896,514.852 606.5,513.5C 607.592,511.817 608.259,509.984 608.5,508C 607.49,504.817 605.823,501.984 603.5,499.5C 605.481,494.84 604.481,491.006 600.5,488C 599.563,487.308 598.897,487.475 598.5,488.5C 596.046,486.94 593.38,485.94 590.5,485.5C 590.784,483.585 590.451,481.919 589.5,480.5C 589.5,479.5 589.5,478.5 589.5,477.5C 588.816,471.32 587.816,465.32 586.5,459.5C 585.167,449.503 583.834,439.503 582.5,429.5C 589.464,428.447 596.464,428.28 603.5,429C 625.705,433.345 646.371,441.511 665.5,453.5 Z"/></g>
<g><path style="opacity:0.999" fill="#de4e7e" d="M 771.5,493.5 C 766.058,494.758 760.724,496.425 755.5,498.5C 754.817,498.137 754.15,497.804 753.5,497.5C 752.443,486.538 750.777,475.705 748.5,465C 737.632,462.025 726.632,461.692 715.5,464C 710.101,465.121 704.768,466.454 699.5,468C 695.637,469.181 692.137,471.014 689,473.5C 691.952,500.172 695.286,526.839 699,553.5C 704.272,549.614 710.106,546.947 716.5,545.5C 713.883,550.619 713.217,555.953 714.5,561.5C 714.957,562.298 715.624,562.631 716.5,562.5C 716.5,563.833 717.167,564.5 718.5,564.5C 718.5,565.167 718.5,565.833 718.5,566.5C 707.172,568.835 696.505,572.835 686.5,578.5C 679.942,536.929 673.942,495.262 668.5,453.5C 674.636,450.452 680.97,447.785 687.5,445.5C 693.606,443.82 699.606,442.153 705.5,440.5C 709.112,439.578 712.779,438.911 716.5,438.5C 729.172,437.245 741.838,437.412 754.5,439C 757.571,439.147 760.404,439.98 763,441.5C 765.943,458.823 768.776,476.156 771.5,493.5 Z"/></g>
<g><path style="opacity:1" fill="#3e9985" d="M 832.5,445.5 C 833.5,445.5 834.5,445.5 835.5,445.5C 837.288,458.917 839.122,472.251 841,485.5C 826.233,487.023 811.4,488.356 796.5,489.5C 796.5,490.833 796.5,492.167 796.5,493.5C 795.566,492.432 795.232,491.099 795.5,489.5C 793.833,489.5 792.167,489.5 790.5,489.5C 797.347,486.3 804.68,484.633 812.5,484.5C 820.822,483.945 829.156,483.612 837.5,483.5C 835.833,470.83 834.166,458.163 832.5,445.5 Z"/></g>
<g><path style="opacity:1" fill="#29e2ba" d="M 832.5,445.5 C 834.166,458.163 835.833,470.83 837.5,483.5C 829.156,483.612 820.822,483.945 812.5,484.5C 819.41,474.962 823.91,464.295 826,452.5C 827.694,449.642 829.861,447.309 832.5,445.5 Z"/></g>
<g><path style="opacity:1" fill="#1c0e12" d="M 665.5,453.5 C 666.5,453.5 667.5,453.5 668.5,453.5C 673.942,495.262 679.942,536.929 686.5,578.5C 686.5,579.5 686.5,580.5 686.5,581.5C 684.381,581.532 683.048,580.532 682.5,578.5C 676.553,536.871 670.886,495.204 665.5,453.5 Z"/></g>
<g><path style="opacity:1" fill="#f49f79" d="M 586.5,459.5 C 587.816,465.32 588.816,471.32 589.5,477.5C 587.283,476.631 584.95,476.298 582.5,476.5C 579.5,475.5 577.5,473.5 576.5,470.5C 577.199,464.792 580.532,462.459 586.5,463.5C 586.5,462.167 586.5,460.833 586.5,459.5 Z"/></g>
<g><path style="opacity:1" fill="#fefdfd" d="M 753.5,497.5 C 753.631,498.376 753.298,499.043 752.5,499.5C 741.299,504.348 730.799,510.348 721,517.5C 715.383,524.02 716.883,527.687 725.5,528.5C 722.94,534.395 719.94,540.062 716.5,545.5C 710.106,546.947 704.272,549.614 699,553.5C 695.286,526.839 691.952,500.172 689,473.5C 692.137,471.014 695.637,469.181 699.5,468C 704.768,466.454 710.101,465.121 715.5,464C 726.632,461.692 737.632,462.025 748.5,465C 750.777,475.705 752.443,486.538 753.5,497.5 Z"/></g>
<g><path style="opacity:1" fill="#33231c" d="M 582.5,476.5 C 584.95,476.298 587.283,476.631 589.5,477.5C 589.5,478.5 589.5,479.5 589.5,480.5C 587.194,480.007 584.861,479.674 582.5,479.5C 582.5,478.5 582.5,477.5 582.5,476.5 Z"/></g>
<g><path style="opacity:1" fill="#152623" d="M 447.5,479.5 C 456.682,479.173 465.682,479.507 474.5,480.5C 463.185,492.323 449.518,496.156 433.5,492C 427.671,489.104 422.671,485.271 418.5,480.5C 417.475,480.103 417.308,479.437 418,478.5C 427.75,479.486 437.584,479.819 447.5,479.5 Z"/></g>
<g><path style="opacity:1" fill="#f19d75" d="M 582.5,479.5 C 584.861,479.674 587.194,480.007 589.5,480.5C 590.451,481.919 590.784,483.585 590.5,485.5C 593.38,485.94 596.046,486.94 598.5,488.5C 599.71,490.552 600.71,492.718 601.5,495C 601.667,497.5 600.5,498.667 598,498.5C 591.502,496.499 585.336,493.832 579.5,490.5C 579.672,489.508 579.338,488.842 578.5,488.5C 578.5,487.167 578.5,485.833 578.5,484.5C 579.124,482.246 580.457,480.579 582.5,479.5 Z"/></g>
<g><path style="opacity:0.987" fill="#24f7c9" d="M 418.5,480.5 C 422.671,485.271 427.671,489.104 433.5,492C 449.518,496.156 463.185,492.323 474.5,480.5C 474.046,482.741 474.046,484.741 474.5,486.5C 471.951,504.769 469.618,523.103 467.5,541.5C 453.5,542.833 439.5,542.833 425.5,541.5C 422.597,521.275 420.264,500.941 418.5,480.5 Z"/></g>
<g><path style="opacity:0.986" fill="#056a8b" d="M 578.5,484.5 C 578.5,485.833 578.5,487.167 578.5,488.5C 564.167,488.5 549.833,488.5 535.5,488.5C 534.5,488.167 533.833,487.5 533.5,486.5C 548.258,484.541 563.258,483.875 578.5,484.5 Z"/></g>
<g><path style="opacity:0.998" fill="#28b4e3" d="M 535.5,488.5 C 549.833,488.5 564.167,488.5 578.5,488.5C 579.338,488.842 579.672,489.508 579.5,490.5C 579.5,491.5 579.5,492.5 579.5,493.5C 579.264,496.609 579.597,499.609 580.5,502.5C 566.699,504.878 553.032,507.878 539.5,511.5C 538.275,503.814 536.941,496.147 535.5,488.5 Z"/></g>
<g><path style="opacity:1" fill="#2b1a15" d="M 599.5,530.5 C 602.734,529.911 604.067,527.911 603.5,524.5C 598.21,524.591 593.21,523.591 588.5,521.5C 587.89,520.609 587.557,519.609 587.5,518.5C 593.259,520.748 599.259,521.748 605.5,521.5C 605.335,519.173 604.669,517.007 603.5,515C 595.911,513.972 588.911,511.472 582.5,507.5C 581.89,506.609 581.557,505.609 581.5,504.5C 582.873,504.343 584.207,504.51 585.5,505C 591.062,509.449 597.396,511.616 604.5,511.5C 604.846,508.398 604.179,505.565 602.5,503C 594.107,501.466 586.44,498.3 579.5,493.5C 579.5,492.5 579.5,491.5 579.5,490.5C 585.336,493.832 591.502,496.499 598,498.5C 600.5,498.667 601.667,497.5 601.5,495C 600.71,492.718 599.71,490.552 598.5,488.5C 598.897,487.475 599.563,487.308 600.5,488C 604.481,491.006 605.481,494.84 603.5,499.5C 605.823,501.984 607.49,504.817 608.5,508C 608.259,509.984 607.592,511.817 606.5,513.5C 607.896,514.852 608.563,516.519 608.5,518.5C 607.241,522.049 606.407,525.716 606,529.5C 603.895,532.76 601.729,533.094 599.5,530.5 Z"/></g>
<g><path style="opacity:1" fill="#f59f76" d="M 790.5,489.5 C 792.167,489.5 793.833,489.5 795.5,489.5C 795.232,491.099 795.566,492.432 796.5,493.5C 797.347,508.511 798.347,523.511 799.5,538.5C 792.646,538.176 785.979,538.509 779.5,539.5C 776.737,539.744 774.571,541.077 773,543.5C 768.906,549.359 765.073,555.359 761.5,561.5C 758.45,564.07 755.45,564.07 752.5,561.5C 752.5,558.833 752.5,556.167 752.5,553.5C 756.402,549.584 759.069,544.917 760.5,539.5C 759.325,539.281 758.325,539.614 757.5,540.5C 754.678,544.476 752.678,548.809 751.5,553.5C 749.833,556.167 748.167,558.833 746.5,561.5C 743.061,567.952 737.728,570.952 730.5,570.5C 737.05,557.068 744.383,544.068 752.5,531.5C 752,531.167 751.5,530.833 751,530.5C 741.372,542.752 733.539,556.086 727.5,570.5C 726.209,570.263 725.209,570.596 724.5,571.5C 721.31,571.313 719.31,569.646 718.5,566.5C 718.5,565.833 718.5,565.167 718.5,564.5C 726.106,551.462 734.106,538.629 742.5,526C 742.167,525.5 741.833,525 741.5,524.5C 731.569,536.101 723.235,548.768 716.5,562.5C 715.624,562.631 714.957,562.298 714.5,561.5C 713.217,555.953 713.883,550.619 716.5,545.5C 719.94,540.062 722.94,534.395 725.5,528.5C 716.883,527.687 715.383,524.02 721,517.5C 730.799,510.348 741.299,504.348 752.5,499.5C 753.298,499.043 753.631,498.376 753.5,497.5C 754.15,497.804 754.817,498.137 755.5,498.5C 760.724,496.425 766.058,494.758 771.5,493.5C 777.738,491.848 784.071,490.515 790.5,489.5 Z"/></g>
<g><path style="opacity:1" fill="#ee9b73" d="M 579.5,493.5 C 586.44,498.3 594.107,501.466 602.5,503C 604.179,505.565 604.846,508.398 604.5,511.5C 597.396,511.616 591.062,509.449 585.5,505C 584.207,504.51 582.873,504.343 581.5,504.5C 581.167,503.833 580.833,503.167 580.5,502.5C 579.597,499.609 579.264,496.609 579.5,493.5 Z"/></g>
<g><path style="opacity:0.993" fill="#31c8fb" d="M 580.5,502.5 C 580.833,503.167 581.167,503.833 581.5,504.5C 581.557,505.609 581.89,506.609 582.5,507.5C 582.296,512.088 583.963,515.755 587.5,518.5C 587.557,519.609 587.89,520.609 588.5,521.5C 590.528,525.528 593.528,528.528 597.5,530.5C 598.552,534.426 599.218,538.426 599.5,542.5C 581.09,542.82 562.757,542.486 544.5,541.5C 543.089,531.449 541.423,521.449 539.5,511.5C 553.032,507.878 566.699,504.878 580.5,502.5 Z"/></g>
<g><path style="opacity:1" fill="#eb9972" d="M 582.5,507.5 C 588.911,511.472 595.911,513.972 603.5,515C 604.669,517.007 605.335,519.173 605.5,521.5C 599.259,521.748 593.259,520.748 587.5,518.5C 583.963,515.755 582.296,512.088 582.5,507.5 Z"/></g>
<g><path style="opacity:1" fill="#e79770" d="M 588.5,521.5 C 593.21,523.591 598.21,524.591 603.5,524.5C 604.067,527.911 602.734,529.911 599.5,530.5C 598.833,530.5 598.167,530.5 597.5,530.5C 593.528,528.528 590.528,525.528 588.5,521.5 Z"/></g>
<g><path style="opacity:1" fill="#2c1c15" d="M 718.5,564.5 C 717.167,564.5 716.5,563.833 716.5,562.5C 723.235,548.768 731.569,536.101 741.5,524.5C 741.833,525 742.167,525.5 742.5,526C 734.106,538.629 726.106,551.462 718.5,564.5 Z"/></g>
<g><path style="opacity:1" fill="#2e1e18" d="M 730.5,570.5 C 728.621,571.341 726.621,571.675 724.5,571.5C 725.209,570.596 726.209,570.263 727.5,570.5C 733.539,556.086 741.372,542.752 751,530.5C 751.5,530.833 752,531.167 752.5,531.5C 744.383,544.068 737.05,557.068 730.5,570.5 Z"/></g>
<g><path style="opacity:1" fill="#221916" d="M 752.5,553.5 C 752.167,553.5 751.833,553.5 751.5,553.5C 752.678,548.809 754.678,544.476 757.5,540.5C 758.325,539.614 759.325,539.281 760.5,539.5C 759.069,544.917 756.402,549.584 752.5,553.5 Z"/></g>
<g><path style="opacity:1" fill="#1d53d9" d="M 862.5,538.5 C 863.26,543.15 863.926,547.817 864.5,552.5C 854.5,552.5 844.5,552.5 834.5,552.5C 834.5,557.167 834.5,561.833 834.5,566.5C 826.545,561.849 818.879,556.682 811.5,551C 801.107,543.702 791.107,543.869 781.5,551.5C 780.407,547.606 779.74,543.606 779.5,539.5C 807.185,539.781 834.852,539.448 862.5,538.5 Z"/></g>
<g><path style="opacity:1" fill="#de4e7f" d="M 779.5,539.5 C 779.74,543.606 780.407,547.606 781.5,551.5C 782.021,555.481 782.354,559.481 782.5,563.5C 775.534,562.506 768.534,561.839 761.5,561.5C 765.073,555.359 768.906,549.359 773,543.5C 774.571,541.077 776.737,539.744 779.5,539.5 Z"/></g>
<g><path style="opacity:0.942" fill="#222222" d="M 425.5,541.5 C 439.5,542.833 453.5,542.833 467.5,541.5C 493.167,541.5 518.833,541.5 544.5,541.5C 562.757,542.486 581.09,542.82 599.5,542.5C 600.18,546.119 600.68,549.786 601,553.5C 601.308,554.308 601.808,554.975 602.5,555.5C 608.782,554.374 615.115,554.207 621.5,555C 626.147,555.538 630.48,556.705 634.5,558.5C 547.499,558.333 460.499,558.5 373.5,559C 355.364,562.473 343.53,572.973 338,590.5C 336.544,617.791 336.044,645.124 336.5,672.5C 333.833,671.167 331.167,669.833 328.5,668.5C 328.759,662.538 327.593,656.871 325,651.5C 321.962,648.631 319.129,645.631 316.5,642.5C 316.067,624.12 316.567,605.786 318,587.5C 326.1,562.851 342.933,548.018 368.5,543C 387.459,541.579 406.459,541.079 425.5,541.5 Z"/></g>
<g><path style="opacity:0.998" fill="#1557fe" d="M 834.5,566.5 C 834.5,567.167 834.833,567.5 835.5,567.5C 835.232,569.099 835.566,570.432 836.5,571.5C 838.009,585.87 845.009,596.537 857.5,603.5C 849.043,617.615 836.71,626.282 820.5,629.5C 806.188,630.391 791.855,630.725 777.5,630.5C 773.104,628.634 768.771,626.467 764.5,624C 757.833,618.667 751.167,613.333 744.5,608C 741.647,606.57 738.647,605.737 735.5,605.5C 735.179,603.952 734.179,603.285 732.5,603.5C 733.673,612.546 735.173,621.546 737,630.5C 737.383,631.056 737.883,631.389 738.5,631.5C 739.097,634.941 739.763,638.275 740.5,641.5C 740.5,642.5 740.5,643.5 740.5,644.5C 740.5,644.833 740.5,645.167 740.5,645.5C 741.821,671.166 741.821,696.833 740.5,722.5C 713.167,722.5 685.833,722.5 658.5,722.5C 657.332,698.818 655.832,675.151 654,651.5C 653.333,634.5 653.333,617.5 654,600.5C 655.863,589.344 659.696,579.011 665.5,569.5C 671.572,571.703 677.239,574.703 682.5,578.5C 683.048,580.532 684.381,581.532 686.5,581.5C 686.5,580.5 686.5,579.5 686.5,578.5C 696.505,572.835 707.172,568.835 718.5,566.5C 719.31,569.646 721.31,571.313 724.5,571.5C 726.621,571.675 728.621,571.341 730.5,570.5C 737.728,570.952 743.061,567.952 746.5,561.5C 748.5,561.5 750.5,561.5 752.5,561.5C 755.45,564.07 758.45,564.07 761.5,561.5C 768.534,561.839 775.534,562.506 782.5,563.5C 782.354,559.481 782.021,555.481 781.5,551.5C 791.107,543.869 801.107,543.702 811.5,551C 818.879,556.682 826.545,561.849 834.5,566.5 Z"/></g>
<g><path style="opacity:1" fill="#2699c3" d="M 864.5,552.5 C 864.5,553.833 864.5,555.167 864.5,556.5C 863.596,555.791 863.263,554.791 863.5,553.5C 854.167,553.5 844.833,553.5 835.5,553.5C 835.5,558.167 835.5,562.833 835.5,567.5C 834.833,567.5 834.5,567.167 834.5,566.5C 834.5,561.833 834.5,557.167 834.5,552.5C 844.5,552.5 854.5,552.5 864.5,552.5 Z"/></g>
<g><path style="opacity:1" fill="#2bd2b1" d="M 864.5,556.5 C 865.724,565.485 865.724,574.485 864.5,583.5C 863.532,581.393 863.198,579.059 863.5,576.5C 853.757,576.752 844.924,574.085 837,568.5C 836.517,569.448 836.351,570.448 836.5,571.5C 835.566,570.432 835.232,569.099 835.5,567.5C 835.5,562.833 835.5,558.167 835.5,553.5C 844.833,553.5 854.167,553.5 863.5,553.5C 863.263,554.791 863.596,555.791 864.5,556.5 Z"/></g>
<g><path style="opacity:1" fill="#de537f" d="M 751.5,553.5 C 751.833,553.5 752.167,553.5 752.5,553.5C 752.5,556.167 752.5,558.833 752.5,561.5C 750.5,561.5 748.5,561.5 746.5,561.5C 748.167,558.833 749.833,556.167 751.5,553.5 Z"/></g>
<g><path style="opacity:0.991" fill="#1456fe" d="M 637.5,558.5 C 646.813,560.487 655.48,563.821 663.5,568.5C 660.865,571.079 658.699,574.079 657,577.5C 655.183,582.431 653.683,587.431 652.5,592.5C 644.971,596.559 640.137,602.892 638,611.5C 637,616.5 636,621.5 635,626.5C 635.223,658.512 636.056,690.512 637.5,722.5C 624.167,722.5 610.833,722.5 597.5,722.5C 600.154,694.545 602.321,666.545 604,638.5C 605.413,617.09 610.746,596.756 620,577.5C 624.992,570.344 630.825,564.01 637.5,558.5 Z"/></g>
<g><path style="opacity:1" fill="#424450" d="M 663.5,568.5 C 664.492,568.328 665.158,568.662 665.5,569.5C 659.696,579.011 655.863,589.344 654,600.5C 653.333,617.5 653.333,634.5 654,651.5C 655.832,675.151 657.332,698.818 658.5,722.5C 658.5,730.167 658.5,737.833 658.5,745.5C 658.62,753.711 656.286,761.045 651.5,767.5C 650.292,766.766 648.959,766.433 647.5,766.5C 650.753,763 653.253,759 655,754.5C 655.5,743.839 655.667,733.172 655.5,722.5C 653.271,690.686 651.271,658.852 649.5,627C 649.415,615.355 650.415,603.855 652.5,592.5C 653.683,587.431 655.183,582.431 657,577.5C 658.699,574.079 660.865,571.079 663.5,568.5 Z"/></g>
<g><path style="opacity:1" fill="#25f6cb" d="M 864.5,583.5 C 863.34,590.651 861.006,597.317 857.5,603.5C 845.009,596.537 838.009,585.87 836.5,571.5C 836.351,570.448 836.517,569.448 837,568.5C 844.924,574.085 853.757,576.752 863.5,576.5C 863.198,579.059 863.532,581.393 864.5,583.5 Z"/></g>
<g><path style="opacity:1" fill="#1d52d7" d="M 652.5,592.5 C 650.415,603.855 649.415,615.355 649.5,627C 651.271,658.852 653.271,690.686 655.5,722.5C 649.5,722.5 643.5,722.5 637.5,722.5C 636.056,690.512 635.223,658.512 635,626.5C 636,621.5 637,616.5 638,611.5C 640.137,602.892 644.971,596.559 652.5,592.5 Z"/></g>
<g><path style="opacity:0.985" fill="#41434e" d="M 735.5,605.5 C 737.288,613.771 738.954,622.104 740.5,630.5C 740.158,631.338 739.492,631.672 738.5,631.5C 737.883,631.389 737.383,631.056 737,630.5C 735.173,621.546 733.673,612.546 732.5,603.5C 734.179,603.285 735.179,603.952 735.5,605.5 Z"/></g>
<g><path style="opacity:1" fill="#1d51d5" d="M 735.5,605.5 C 738.647,605.737 741.647,606.57 744.5,608C 751.167,613.333 757.833,618.667 764.5,624C 768.771,626.467 773.104,628.634 777.5,630.5C 768.167,630.5 758.833,630.5 749.5,630.5C 746.5,630.5 743.5,630.5 740.5,630.5C 738.954,622.104 737.288,613.771 735.5,605.5 Z"/></g>
<g><path style="opacity:0.985" fill="#1457ff" d="M 288.5,642.5 C 286.205,645.297 283.705,647.964 281,650.5C 278.924,653.893 277.758,657.56 277.5,661.5C 276.686,663.631 276.186,665.964 276,668.5C 249.189,683.115 237.356,705.781 240.5,736.5C 236.341,730.189 232.675,723.523 229.5,716.5C 229.25,714.326 228.25,712.659 226.5,711.5C 219.307,697.614 211.973,683.781 204.5,670C 230.095,656.62 255.595,643.12 281,629.5C 284.005,633.505 286.505,637.839 288.5,642.5 Z"/></g>
<g><path style="opacity:0.965" fill="#212122" d="M 820.5,629.5 C 838.503,629.333 856.503,629.5 874.5,630C 878.799,630.259 882.466,631.759 885.5,634.5C 852.463,642.579 818.796,646.579 784.5,646.5C 769.807,646.32 755.14,645.654 740.5,644.5C 740.5,643.5 740.5,642.5 740.5,641.5C 741.708,636.299 744.708,632.632 749.5,630.5C 758.833,630.5 768.167,630.5 777.5,630.5C 791.855,630.725 806.188,630.391 820.5,629.5 Z"/></g>
<g><path style="opacity:1" fill="#181818" d="M 885.5,634.5 C 890.936,640.215 890.603,645.715 884.5,651C 882.283,652.275 879.949,653.275 877.5,654C 870.174,654.5 862.841,654.666 855.5,654.5C 854.167,654.5 852.833,654.5 851.5,654.5C 827.167,654.5 802.833,654.5 778.5,654.5C 771.5,654.5 764.5,654.5 757.5,654.5C 749.941,654.889 744.274,651.889 740.5,645.5C 740.5,645.167 740.5,644.833 740.5,644.5C 755.14,645.654 769.807,646.32 784.5,646.5C 818.796,646.579 852.463,642.579 885.5,634.5 Z"/></g>
<g><path style="opacity:0.874" fill="#f3f4f7" d="M 316.5,642.5 C 319.129,645.631 321.962,648.631 325,651.5C 327.593,656.871 328.759,662.538 328.5,668.5C 327.167,667.833 325.833,667.167 324.5,666.5C 325.317,658.598 322.651,652.265 316.5,647.5C 308.213,641.648 299.88,641.315 291.5,646.5C 290.448,646.351 289.448,646.517 288.5,647C 282.374,652.085 279.707,658.585 280.5,666.5C 279.85,666.804 279.183,667.137 278.5,667.5C 277.534,665.604 277.201,663.604 277.5,661.5C 277.758,657.56 278.924,653.893 281,650.5C 283.705,647.964 286.205,645.297 288.5,642.5C 297.833,637.167 307.167,637.167 316.5,642.5 Z M 316.5,647.5 C 316.5,652.833 316.5,658.167 316.5,663.5C 310.855,662.866 305.189,662.532 299.5,662.5C 296.308,657.45 293.642,652.117 291.5,646.5C 299.88,641.315 308.213,641.648 316.5,647.5 Z"/></g>
<g><path style="opacity:0.973" fill="#1e5bff" d="M 291.5,646.5 C 293.642,652.117 296.308,657.45 299.5,662.5C 293.078,663.003 286.745,664.336 280.5,666.5C 279.707,658.585 282.374,652.085 288.5,647C 289.448,646.517 290.448,646.351 291.5,646.5 Z"/></g>
<g><path style="opacity:0.92" fill="#262728" d="M 316.5,647.5 C 322.651,652.265 325.317,658.598 324.5,666.5C 321.557,666.02 318.89,665.02 316.5,663.5C 316.5,658.167 316.5,652.833 316.5,647.5 Z"/></g>
<g><path style="opacity:0.99" fill="#30cafe" d="M 277.5,661.5 C 277.201,663.604 277.534,665.604 278.5,667.5C 279.183,667.137 279.85,666.804 280.5,666.5C 286.745,664.336 293.078,663.003 299.5,662.5C 305.189,662.532 310.855,662.866 316.5,663.5C 318.89,665.02 321.557,666.02 324.5,666.5C 325.833,667.167 327.167,667.833 328.5,668.5C 331.167,669.833 333.833,671.167 336.5,672.5C 350.207,681.717 359.041,694.384 363,710.5C 364.12,726.63 364.62,742.796 364.5,759C 364.333,773.167 364.167,787.333 364,801.5C 362.5,807 359,810.5 353.5,812C 319.5,812.667 285.5,812.667 251.5,812C 244.226,809.894 240.56,805.061 240.5,797.5C 240.5,795.833 240.5,794.167 240.5,792.5C 240.5,773.833 240.5,755.167 240.5,736.5C 237.356,705.781 249.189,683.115 276,668.5C 276.186,665.964 276.686,663.631 277.5,661.5 Z"/></g>
<g><path style="opacity:0.969" fill="#1356fe" d="M 1062.5,753.5 C 1054.66,752.738 1047.66,750.071 1041.5,745.5C 1044.57,743.17 1046.23,740.003 1046.5,736C 1044.84,726.712 1043.51,717.379 1042.5,708C 1042.47,697.109 1045.8,687.443 1052.5,679C 1061.83,674.999 1067.5,677.832 1069.5,687.5C 1068.87,692.437 1067.37,697.104 1065,701.5C 1064.2,709.943 1064.87,718.276 1067,726.5C 1068.05,734.663 1067.38,742.663 1065,750.5C 1064.62,751.942 1063.79,752.942 1062.5,753.5 Z"/></g>
<g><path style="opacity:1" fill="#1659ff" d="M 298.5,689.5 C 311.936,689.743 316.436,696.076 312,708.5C 303.188,716.199 296.188,714.866 291,704.5C 290.333,702.167 290.333,699.833 291,697.5C 293.028,694.308 295.528,691.641 298.5,689.5 Z"/></g>
<g><path style="opacity:0.769" fill="#fefeff" d="M 226.5,711.5 C 228.25,712.659 229.25,714.326 229.5,716.5C 223.419,725.334 218.919,735 216,745.5C 213.487,762.296 218.32,776.463 230.5,788C 233.48,790.324 236.813,791.824 240.5,792.5C 240.5,794.167 240.5,795.833 240.5,797.5C 224.349,791.841 214.849,780.508 212,763.5C 210.971,754.69 211.637,746.023 214,737.5C 217.905,728.69 222.072,720.023 226.5,711.5 Z"/></g>
<g><path style="opacity:0.929" fill="#212122" d="M 757.5,654.5 C 764.5,654.5 771.5,654.5 778.5,654.5C 777.539,672.799 777.206,691.132 777.5,709.5C 806.508,709.833 835.508,709.5 864.5,708.5C 859.851,690.57 855.517,672.57 851.5,654.5C 852.833,654.5 854.167,654.5 855.5,654.5C 865.814,696.424 875.814,738.424 885.5,780.5C 885.25,782.674 884.25,784.341 882.5,785.5C 877.379,761.852 871.713,738.352 865.5,715C 836.169,714.5 806.835,714.333 777.5,714.5C 777.5,746.833 777.5,779.167 777.5,811.5C 770.833,811.5 764.167,811.5 757.5,811.5C 757.667,789.164 757.5,766.831 757,744.5C 751.667,766.5 746.333,788.5 741,810.5C 739.989,811.337 738.822,811.67 737.5,811.5C 743.52,783.084 750.02,754.75 757,726.5C 757.5,702.502 757.667,678.502 757.5,654.5 Z M 778.5,654.5 C 802.833,654.5 827.167,654.5 851.5,654.5C 855.517,672.57 859.851,690.57 864.5,708.5C 835.508,709.5 806.508,709.833 777.5,709.5C 777.206,691.132 777.539,672.799 778.5,654.5 Z"/></g>
<g><path style="opacity:1" fill="#bd928e" d="M 658.5,722.5 C 685.833,722.5 713.167,722.5 740.5,722.5C 740.5,722.833 740.5,723.167 740.5,723.5C 713.5,723.5 686.5,723.5 659.5,723.5C 659.5,730.5 659.5,737.5 659.5,744.5C 668.682,744.173 677.682,744.507 686.5,745.5C 677.167,745.5 667.833,745.5 658.5,745.5C 658.5,737.833 658.5,730.167 658.5,722.5 Z"/></g>
<g><path style="opacity:0.996" fill="#f6a177" d="M 597.5,723.5 C 610.833,723.5 624.167,723.5 637.5,723.5C 638.728,735.194 636.561,746.194 631,756.5C 629.667,757.833 628.333,759.167 627,760.5C 626.536,759.906 626.369,759.239 626.5,758.5C 627.372,753.553 626.039,749.387 622.5,746C 612.172,745.5 601.839,745.334 591.5,745.5C 594.145,738.225 596.145,730.892 597.5,723.5 Z"/></g>
<g><path style="opacity:1" fill="#d28d6e" d="M 597.5,723.5 C 597.5,723.167 597.5,722.833 597.5,722.5C 610.833,722.5 624.167,722.5 637.5,722.5C 643.5,722.5 649.5,722.5 655.5,722.5C 655.667,733.172 655.5,743.839 655,754.5C 653.253,759 650.753,763 647.5,766.5C 647.167,766.5 646.833,766.5 646.5,766.5C 639.5,766.5 632.5,766.5 625.5,766.5C 625.5,765.5 625.5,764.5 625.5,763.5C 625.216,761.585 625.549,759.919 626.5,758.5C 626.369,759.239 626.536,759.906 627,760.5C 628.333,759.167 629.667,757.833 631,756.5C 636.561,746.194 638.728,735.194 637.5,723.5C 624.167,723.5 610.833,723.5 597.5,723.5 Z"/></g>
<g><path style="opacity:0.996" fill="#f7a177" d="M 740.5,723.5 C 739.199,737.879 737.532,752.212 735.5,766.5C 720.833,766.5 706.167,766.5 691.5,766.5C 692.337,761.5 692.837,756.5 693,751.5C 692.242,747.906 690.075,745.906 686.5,745.5C 677.682,744.507 668.682,744.173 659.5,744.5C 659.5,737.5 659.5,730.5 659.5,723.5C 686.5,723.5 713.5,723.5 740.5,723.5 Z"/></g>
<g><path style="opacity:1" fill="#282960" d="M 342.5,742.5 C 342.5,745.833 342.5,749.167 342.5,752.5C 341.5,752.5 340.5,752.5 339.5,752.5C 341.679,743.693 338.679,737.526 330.5,734C 321,733.833 311.5,733.667 302,733.5C 291.739,733.356 281.572,733.856 271.5,735C 265.701,739.432 263.368,745.266 264.5,752.5C 263.391,752.557 262.391,752.89 261.5,753.5C 259.402,742.56 263.402,735.06 273.5,731C 292.5,730.333 311.5,730.333 330.5,731C 336.98,732.314 340.98,736.147 342.5,742.5 Z"/></g>
<g><path style="opacity:1" fill="#1456fd" d="M 339.5,752.5 C 314.5,752.5 289.5,752.5 264.5,752.5C 263.368,745.266 265.701,739.432 271.5,735C 281.572,733.856 291.739,733.356 302,733.5C 311.5,733.667 321,733.833 330.5,734C 338.679,737.526 341.679,743.693 339.5,752.5 Z"/></g>
<g><path style="opacity:1" fill="#165aff" d="M 1014.5,735.5 C 1006.28,754.456 992.951,759.623 974.5,751C 973.252,749.6 972.252,748.1 971.5,746.5C 984.27,736.391 998.603,732.725 1014.5,735.5 Z"/></g>
<g><path style="opacity:0.99" fill="#2fc9fd" d="M 1014.5,735.5 C 1023.43,737.249 1031.43,740.916 1038.5,746.5C 1042.93,752.347 1046.59,758.68 1049.5,765.5C 1052.75,781.093 1051.75,796.427 1046.5,811.5C 1013.51,812.5 980.507,812.833 947.5,812.5C 945.285,807.046 946.618,802.546 951.5,799C 959.827,798.5 968.16,798.334 976.5,798.5C 975.673,774.831 987.007,761.998 1010.5,760C 1011.61,757.106 1010.45,755.939 1007,756.5C 985.202,760.459 974.035,773.459 973.5,795.5C 965.826,795.334 958.159,795.5 950.5,796C 948.333,798.167 946.167,800.333 944,802.5C 943.502,805.817 943.335,809.15 943.5,812.5C 927.833,812.5 912.167,812.5 896.5,812.5C 891.02,810.36 886.353,807.027 882.5,802.5C 884.39,802.703 885.89,802.037 887,800.5C 892.7,793.624 891.2,789.291 882.5,787.5C 882.5,786.833 882.5,786.167 882.5,785.5C 884.25,784.341 885.25,782.674 885.5,780.5C 888.582,773.522 893.582,768.355 900.5,765C 902.74,764.023 905.073,763.523 907.5,763.5C 907.334,757.824 907.501,752.157 908,746.5C 908.949,743.8 910.783,742.967 913.5,744C 919.5,750.667 925.5,757.333 931.5,764C 936.257,767.942 941.257,767.942 946.5,764C 954.891,758.147 963.225,752.314 971.5,746.5C 972.252,748.1 973.252,749.6 974.5,751C 992.951,759.623 1006.28,754.456 1014.5,735.5 Z"/></g>
<g><path style="opacity:0.989" fill="#24f7ca" d="M 591.5,745.5 C 601.839,745.334 612.172,745.5 622.5,746C 626.039,749.387 627.372,753.553 626.5,758.5C 625.549,759.919 625.216,761.585 625.5,763.5C 614.653,770.499 604.487,778.499 595,787.5C 593.223,790.059 591.723,792.726 590.5,795.5C 575.167,795.5 559.833,795.5 544.5,795.5C 544.167,795.5 543.833,795.5 543.5,795.5C 549.231,786.136 556.898,778.803 566.5,773.5C 569.481,777.079 572.981,780.079 577,782.5C 578.257,782.15 578.591,781.483 578,780.5C 574.962,777.631 572.129,774.631 569.5,771.5C 571.142,770.197 572.809,768.864 574.5,767.5C 578.43,769.581 582.264,771.914 586,774.5C 587.23,773.725 587.563,772.725 587,771.5C 583.636,769.745 580.802,767.412 578.5,764.5C 584.069,759.035 588.402,752.701 591.5,745.5 Z"/></g>
<g><path style="opacity:0.997" fill="#28f7c9" d="M 658.5,745.5 C 667.833,745.5 677.167,745.5 686.5,745.5C 690.075,745.906 692.242,747.906 693,751.5C 692.837,756.5 692.337,761.5 691.5,766.5C 706.167,766.5 720.833,766.5 735.5,766.5C 734.48,776.313 732.813,785.98 730.5,795.5C 692.832,795.667 655.165,795.5 617.5,795C 623.322,786.437 630.989,780.27 640.5,776.5C 642.848,778.68 645.348,780.68 648,782.5C 649.257,782.15 649.591,781.483 649,780.5C 646.833,778.333 644.667,776.167 642.5,774C 644.455,773.047 646.122,771.713 647.5,770C 651.088,771.453 654.755,772.953 658.5,774.5C 658.649,773.448 658.483,772.448 658,771.5C 655.722,770.281 653.555,768.948 651.5,767.5C 656.286,761.045 658.62,753.711 658.5,745.5 Z"/></g>
<g><path style="opacity:0.995" fill="#134ddd" d="M 1041.5,745.5 C 1047.66,750.071 1054.66,752.738 1062.5,753.5C 1059.45,758.887 1055.11,762.887 1049.5,765.5C 1046.59,758.68 1042.93,752.347 1038.5,746.5C 1039.61,746.443 1040.61,746.11 1041.5,745.5 Z"/></g>
<g><path style="opacity:1" fill="#f3f3f6" d="M 264.5,752.5 C 289.5,752.5 314.5,752.5 339.5,752.5C 340.5,752.5 341.5,752.5 342.5,752.5C 342.5,753.5 342.5,754.5 342.5,755.5C 316.167,755.5 289.833,755.5 263.5,755.5C 262.167,755.5 261.5,754.833 261.5,753.5C 262.391,752.89 263.391,752.557 264.5,752.5 Z"/></g>
<g><path style="opacity:1" fill="#5d77b9" d="M 342.5,742.5 C 343.163,744.641 343.497,746.975 343.5,749.5C 343.471,752.269 342.805,754.603 341.5,756.5C 315.5,756.5 289.5,756.5 263.5,756.5C 263.5,756.167 263.5,755.833 263.5,755.5C 289.833,755.5 316.167,755.5 342.5,755.5C 342.5,754.5 342.5,753.5 342.5,752.5C 342.5,749.167 342.5,745.833 342.5,742.5 Z"/></g>
<g><path style="opacity:1" fill="#0035ba" d="M 263.5,756.5 C 289.5,756.5 315.5,756.5 341.5,756.5C 341.5,764.833 341.5,773.167 341.5,781.5C 339.353,785.811 336.02,788.978 331.5,791C 311.833,791.667 292.167,791.667 272.5,791C 270.667,789.833 268.833,788.667 267,787.5C 266.059,785.273 264.892,783.273 263.5,781.5C 263.5,773.167 263.5,764.833 263.5,756.5 Z"/></g>
<g><path style="opacity:0.998" fill="#11242a" d="M 947.5,812.5 C 946.167,815.167 944.833,815.167 943.5,812.5C 943.335,809.15 943.502,805.817 944,802.5C 946.167,800.333 948.333,798.167 950.5,796C 958.159,795.5 965.826,795.334 973.5,795.5C 974.035,773.459 985.202,760.459 1007,756.5C 1010.45,755.939 1011.61,757.106 1010.5,760C 987.007,761.998 975.673,774.831 976.5,798.5C 968.16,798.334 959.827,798.5 951.5,799C 946.618,802.546 945.285,807.046 947.5,812.5 Z"/></g>
<g><path style="opacity:0.988" fill="#0c241e" d="M 578.5,764.5 C 580.802,767.412 583.636,769.745 587,771.5C 587.563,772.725 587.23,773.725 586,774.5C 582.264,771.914 578.43,769.581 574.5,767.5C 574.694,765.088 576.027,764.088 578.5,764.5 Z"/></g>
<g><path style="opacity:1" fill="#2dd2ae" d="M 625.5,763.5 C 625.5,764.5 625.5,765.5 625.5,766.5C 632.5,766.5 639.5,766.5 646.5,766.5C 643.833,768.833 641.167,771.167 638.5,773.5C 632.779,776.384 627.445,779.884 622.5,784C 618.975,786.901 616.308,790.401 614.5,794.5C 606.586,795.467 598.586,795.801 590.5,795.5C 591.723,792.726 593.223,790.059 595,787.5C 604.487,778.499 614.653,770.499 625.5,763.5 Z"/></g>
<g><path style="opacity:1" fill="#172a25" d="M 646.5,766.5 C 646.833,766.5 647.167,766.5 647.5,766.5C 648.959,766.433 650.292,766.766 651.5,767.5C 653.555,768.948 655.722,770.281 658,771.5C 658.483,772.448 658.649,773.448 658.5,774.5C 654.755,772.953 651.088,771.453 647.5,770C 646.122,771.713 644.455,773.047 642.5,774C 644.667,776.167 646.833,778.333 649,780.5C 649.591,781.483 649.257,782.15 648,782.5C 645.348,780.68 642.848,778.68 640.5,776.5C 639.449,775.778 638.782,774.778 638.5,773.5C 641.167,771.167 643.833,768.833 646.5,766.5 Z"/></g>
<g><path style="opacity:1" fill="#1558ff" d="M 1016.5,766.5 C 1031.88,766.902 1036.38,774.235 1030,788.5C 1022.81,796.778 1015.15,797.445 1007,790.5C 1003.38,784.551 1003.71,778.884 1008,773.5C 1010.46,770.519 1013.3,768.186 1016.5,766.5 Z"/></g>
<g><path style="opacity:0.955" fill="#0c241e" d="M 569.5,771.5 C 572.129,774.631 574.962,777.631 578,780.5C 578.591,781.483 578.257,782.15 577,782.5C 572.981,780.079 569.481,777.079 566.5,773.5C 566.821,771.952 567.821,771.285 569.5,771.5 Z"/></g>
<g><path style="opacity:1" fill="#334e47" d="M 638.5,773.5 C 638.782,774.778 639.449,775.778 640.5,776.5C 630.989,780.27 623.322,786.437 617.5,795C 655.165,795.5 692.832,795.667 730.5,795.5C 730.5,795.833 730.5,796.167 730.5,796.5C 691.626,796.485 652.959,796.485 614.5,796.5C 614.5,795.833 614.5,795.167 614.5,794.5C 616.308,790.401 618.975,786.901 622.5,784C 627.445,779.884 632.779,776.384 638.5,773.5 Z"/></g>
<g><path style="opacity:1" fill="#2ca9da" d="M 263.5,781.5 C 264.892,783.273 266.059,785.273 267,787.5C 268.833,788.667 270.667,789.833 272.5,791C 292.167,791.667 311.833,791.667 331.5,791C 336.02,788.978 339.353,785.811 341.5,781.5C 342.127,789.415 338.794,794.915 331.5,798C 312.167,798.667 292.833,798.667 273.5,798C 266.216,794.938 262.883,789.438 263.5,781.5 Z"/></g>
<g><path style="opacity:1" fill="#11252d" d="M 893.5,785.5 C 897.122,786.605 900.789,787.605 904.5,788.5C 901.24,791.059 897.906,791.059 894.5,788.5C 893.614,787.675 893.281,786.675 893.5,785.5 Z"/></g>
<g><path style="opacity:1" fill="#091014" d="M 882.5,787.5 C 891.2,789.291 892.7,793.624 887,800.5C 885.89,802.037 884.39,802.703 882.5,802.5C 881.167,800.5 879.833,798.5 878.5,796.5C 878.502,792.835 879.835,789.835 882.5,787.5 Z"/></g>
<g><path style="opacity:1" fill="#17735f" d="M 614.5,794.5 C 614.5,795.167 614.5,795.833 614.5,796.5C 590.994,796.831 567.661,796.498 544.5,795.5C 559.833,795.5 575.167,795.5 590.5,795.5C 598.586,795.801 606.586,795.467 614.5,794.5 Z"/></g>
<g><path style="opacity:0.997" fill="#081814" d="M 543.5,795.5 C 543.833,795.5 544.167,795.5 544.5,795.5C 567.661,796.498 590.994,796.831 614.5,796.5C 652.959,796.485 691.626,796.485 730.5,796.5C 729.756,801.219 728.756,805.886 727.5,810.5C 665.504,811.5 603.504,811.833 541.5,811.5C 541.15,806.009 541.816,800.676 543.5,795.5 Z"/></g>
<g><path style="opacity:0.967" fill="#1457fe" d="M 878.5,796.5 C 879.833,798.5 881.167,800.5 882.5,802.5C 886.353,807.027 891.02,810.36 896.5,812.5C 882.167,812.5 867.833,812.5 853.5,812.5C 852.053,806.676 853.72,801.842 858.5,798C 865.05,796.58 871.716,796.08 878.5,796.5 Z"/></g>
</svg>
