<?xml version="1.0" encoding="UTF-8"?>
<!DOCTYPE svg PUBLIC "-//W3C//DTD SVG 1.1//EN" "http://www.w3.org/Graphics/SVG/1.1/DTD/svg11.dtd">
<svg xmlns="http://www.w3.org/2000/svg" version="1.1" width="1280px" height="960px" style="shape-rendering:geometricPrecision; text-rendering:geometricPrecision; image-rendering:optimizeQuality; fill-rule:evenodd; clip-rule:evenodd" xmlns:xlink="http://www.w3.org/1999/xlink">
<g><path style="opacity:0.718" fill="#000000" d="M 1144.5,186.5 C 1145.83,186.5 1147.17,186.5 1148.5,186.5C 1148.26,189.263 1146.92,191.429 1144.5,193C 1099.42,228.621 1054.26,264.121 1009,299.5C 1006.97,296.903 1007.47,294.737 1010.5,293C 1055.35,257.636 1100.02,222.136 1144.5,186.5 Z"/></g>
<g><path style="opacity:0.948" fill="#070609" d="M 978.5,190.5 C 979.833,190.5 981.167,190.5 982.5,190.5C 982.657,191.873 982.49,193.207 982,194.5C 975.167,203.333 968.333,212.167 961.5,221C 973.035,226.868 980.535,236.034 984,248.5C 984.333,326.167 984.667,403.833 985,481.5C 988.702,492.271 992.202,503.105 995.5,514C 991.721,538.786 988.221,563.619 985,588.5C 984.5,596.827 984.334,605.16 984.5,613.5C 994.833,613.5 1005.17,613.5 1015.5,613.5C 1008.66,668.852 1001.66,724.185 994.5,779.5C 789.834,778.472 585.168,778.306 380.5,779C 376.141,791.744 371.974,804.577 368,817.5C 366.989,818.337 365.822,818.67 364.5,818.5C 367.383,805.306 371.049,792.306 375.5,779.5C 358.51,778.667 341.51,778.167 324.5,778C 309.333,773.5 299.5,763.667 295,748.5C 294.5,733.837 294.333,719.17 294.5,704.5C 258.415,720.04 222.415,735.874 186.5,752C 184.597,752.774 182.93,752.44 181.5,751C 184.456,748.515 187.79,746.515 191.5,745C 225.618,730.108 259.618,714.941 293.5,699.5C 294.667,621.835 294.833,544.169 294,466.5C 283.055,453.932 277.055,439.265 276,422.5C 273.016,393.443 279.016,366.443 294,341.5C 294.333,310.5 294.667,279.5 295,248.5C 299.608,232.892 309.774,223.059 325.5,219C 535.521,218.169 745.521,218.336 955.5,219.5C 964.232,210.758 971.899,201.091 978.5,190.5 Z"/></g>
<g><path style="opacity:1" fill="#d2d2d2" d="M 906.5,285.5 C 703.833,285.5 501.167,285.5 298.5,285.5C 298.5,274.167 298.5,262.833 298.5,251.5C 301.901,235.599 311.567,225.765 327.5,222C 534.833,221.333 742.167,221.333 949.5,222C 951.256,222.202 952.922,222.702 954.5,223.5C 938.828,244.495 922.828,265.162 906.5,285.5 Z"/></g>
<g><path style="opacity:1" fill="#d3d3d3" d="M 980.5,251.5 C 980.5,262.833 980.5,274.167 980.5,285.5C 957.661,285.831 934.994,285.497 912.5,284.5C 927.284,264.543 942.284,244.71 957.5,225C 970.566,228.913 978.232,237.747 980.5,251.5 Z"/></g>
<g><path style="opacity:1" fill="#151515" d="M 344.5,241.5 C 357.827,241.314 363.327,247.647 361,260.5C 356.983,267.138 351.15,269.304 343.5,267C 332.62,258.096 332.954,249.596 344.5,241.5 Z"/></g>
<g><path style="opacity:1" fill="#141414" d="M 382.5,241.5 C 398,241.83 402.833,249.163 397,263.5C 392.483,267.242 387.316,268.409 381.5,267C 372.969,261.274 371.469,254.107 377,245.5C 379.015,244.303 380.849,242.97 382.5,241.5 Z"/></g>
<g><path style="opacity:1" fill="#131313" d="M 420.5,241.5 C 436.024,241.85 440.858,249.184 435,263.5C 430.483,267.242 425.316,268.409 419.5,267C 410.969,261.274 409.469,254.107 415,245.5C 417.015,244.303 418.849,242.97 420.5,241.5 Z"/></g>
<g><path style="opacity:1" fill="#f5f5f5" d="M 345.5,244.5 C 356.032,244.199 360.199,249.199 358,259.5C 352.975,265.355 347.308,266.021 341,261.5C 336.758,254.274 338.258,248.607 345.5,244.5 Z"/></g>
<g><path style="opacity:1" fill="#f6f6f6" d="M 383.5,244.5 C 393.453,244.096 397.62,248.763 396,258.5C 393.081,264.025 388.581,265.858 382.5,264C 374.287,257.096 374.621,250.596 383.5,244.5 Z"/></g>
<g><path style="opacity:1" fill="#f6f6f6" d="M 421.5,244.5 C 431.453,244.096 435.62,248.763 434,258.5C 431.081,264.025 426.581,265.858 420.5,264C 412.287,257.096 412.621,250.596 421.5,244.5 Z"/></g>
<g><path style="opacity:1" fill="#161616" d="M 551.5,253.5 C 610.17,253.167 668.837,253.5 727.5,254.5C 727.291,255.086 726.957,255.586 726.5,256C 668.5,256.667 610.5,256.667 552.5,256C 551.748,255.329 551.414,254.496 551.5,253.5 Z"/></g>
<g><path style="opacity:1" fill="#8b8b8b" d="M 298.5,251.5 C 298.5,262.833 298.5,274.167 298.5,285.5C 501.167,285.5 703.833,285.5 906.5,285.5C 703.667,286.5 500.667,286.833 297.5,286.5C 297.172,274.655 297.505,262.988 298.5,251.5 Z"/></g>
<g><path style="opacity:1" fill="#909090" d="M 980.5,251.5 C 981.495,262.988 981.828,274.655 981.5,286.5C 957.831,286.667 934.164,286.5 910.5,286C 911.044,285.283 911.711,284.783 912.5,284.5C 934.994,285.497 957.661,285.831 980.5,285.5C 980.5,274.167 980.5,262.833 980.5,251.5 Z"/></g>
<g><path style="opacity:1" fill="#272727" d="M 297.5,289.5 C 499.667,288.167 702,288.167 904.5,289.5C 904.376,290.107 904.043,290.44 903.5,290.5C 702.001,289.5 500.334,289.167 298.5,289.5C 298.167,289.5 297.833,289.5 297.5,289.5 Z"/></g>
<g><path style="opacity:1" fill="#bebebe" d="M 297.5,289.5 C 297.833,289.5 298.167,289.5 298.5,289.5C 298.171,304.343 298.504,319.01 299.5,333.5C 299.217,334.289 298.717,334.956 298,335.5C 297.5,320.17 297.333,304.837 297.5,289.5 Z"/></g>
<g><path style="opacity:1" fill="#fefefe" d="M 298.5,289.5 C 500.334,289.167 702.001,289.5 903.5,290.5C 894.317,302.518 885.317,314.685 876.5,327C 876.833,327.5 877.167,328 877.5,328.5C 887.85,316.145 897.85,303.478 907.5,290.5C 932.158,289.5 956.824,289.167 981.5,289.5C 981.667,352.501 981.5,415.501 981,478.5C 974.915,488.338 968.582,498.004 962,507.5C 956.967,542.158 952.134,576.825 947.5,611.5C 944.855,613.242 941.855,613.909 938.5,613.5C 935.132,587.83 931.632,562.164 928,536.5C 921.697,526.54 915.031,516.873 908,507.5C 906.347,507.82 905.347,508.82 905,510.5C 901.016,521.117 897.849,531.95 895.5,543C 898.538,565.467 901.204,587.967 903.5,610.5C 903.5,611.5 903.5,612.5 903.5,613.5C 891.322,613.172 879.322,613.505 867.5,614.5C 874.493,668.123 881.159,721.79 887.5,775.5C 718.499,775.833 549.499,775.5 380.5,774.5C 386.833,754.5 393.167,734.5 399.5,714.5C 399.167,713.5 398.5,712.833 397.5,712.5C 390.041,733.213 383.374,754.213 377.5,775.5C 360.497,775.667 343.497,775.5 326.5,775C 312.105,770.939 302.605,761.772 298,747.5C 297.167,732.156 297.334,716.822 298.5,701.5C 308.048,696.892 317.715,692.559 327.5,688.5C 328.386,687.675 328.719,686.675 328.5,685.5C 318.285,688.94 308.285,692.94 298.5,697.5C 298.167,621.998 298.501,546.665 299.5,471.5C 321.8,490.771 346.8,494.938 374.5,484C 401.529,471.284 415.196,449.951 415.5,420C 413.879,388.595 398.879,366.095 370.5,352.5C 370.167,352.833 369.833,353.167 369.5,353.5C 375.502,368.761 377.002,384.428 374,400.5C 369.319,393.469 365.985,385.802 364,377.5C 362.453,360.991 358.786,344.991 353,329.5C 346.912,317.738 338.912,307.405 329,298.5C 328.667,304.167 328.333,309.833 328,315.5C 324.538,328.765 320.205,341.765 315,354.5C 313.188,362.055 312.188,369.722 312,377.5C 307.907,367.285 305.907,356.618 306,345.5C 304.667,340.167 303.333,334.833 302,329.5C 301.338,330.984 300.504,332.317 299.5,333.5C 298.504,319.01 298.171,304.343 298.5,289.5 Z"/></g>
<g><path style="opacity:1" fill="#2956fb" d="M 331.5,305.5 C 340.265,313.658 347.098,323.324 352,334.5C 356.404,351.317 360.071,368.317 363,385.5C 365.447,393.731 369.447,401.064 375,407.5C 379.62,396.217 380.62,384.551 378,372.5C 377.098,368.247 375.931,364.08 374.5,360C 374.833,359.5 375.167,359 375.5,358.5C 405.003,376.827 416.837,403.161 411,437.5C 397.1,475.822 369.933,491.656 329.5,485C 302.279,476.115 286.112,457.615 281,429.5C 276.094,398.6 281.428,369.6 297,342.5C 297.941,340.939 299.108,339.605 300.5,338.5C 302.423,349.471 304.256,360.471 306,371.5C 307.492,377.153 310.492,381.82 315,385.5C 315.247,376.797 315.914,368.13 317,359.5C 322.468,345.096 327.134,330.43 331,315.5C 331.498,312.183 331.665,308.85 331.5,305.5 Z"/></g>
<g><path style="opacity:1" fill="#0c1212" d="M 597.5,373.5 C 603.97,373.28 610.303,374.114 616.5,376C 651.659,394.412 686.659,413.079 721.5,432C 736.834,440.675 747.001,453.509 752,470.5C 761.333,505.833 770.667,541.167 780,576.5C 785.188,607.285 774.355,630.452 747.5,646C 698.731,660.109 649.731,673.443 600.5,686C 574.784,691.207 553.618,683.707 537,663.5C 534.412,659.326 532.079,654.993 530,650.5C 519.2,612.965 508.866,575.299 499,537.5C 495.191,520.572 497.524,504.572 506,489.5C 526,457.5 546,425.5 566,393.5C 573.948,382.62 584.448,375.954 597.5,373.5 Z"/></g>
<g><path style="opacity:1" fill="#26f3c6" d="M 594.5,377.5 C 603.961,376.483 612.961,377.983 621.5,382C 657.5,401.667 693.5,421.333 729.5,441C 736.545,447.377 742.045,454.877 746,463.5C 746.667,464.833 746.667,466.167 746,467.5C 742.318,471.349 738.485,475.016 734.5,478.5C 731.172,465.677 723.839,455.844 712.5,449C 679.341,431.588 646.341,413.921 613.5,396C 599.966,390.292 589.133,393.459 581,405.5C 562.396,436.432 543.396,467.098 524,497.5C 516.239,509.282 514.406,521.949 518.5,535.5C 512.324,534.941 506.657,533.107 501.5,530C 499.015,515.416 501.849,501.916 510,489.5C 530,457.5 550,425.5 570,393.5C 576.431,385.22 584.598,379.887 594.5,377.5 Z"/></g>
<g><path style="opacity:1" fill="#2956fb" d="M 596.5,396.5 C 600.514,396.334 604.514,396.501 608.5,397C 643.802,415.985 679.135,434.985 714.5,454C 725.675,461.525 731.175,472.025 731,485.5C 722.333,494.833 713.667,504.167 705,513.5C 701.016,499.055 696.849,484.722 692.5,470.5C 645.5,483 598.5,495.5 551.5,508C 550.978,508.561 550.645,509.228 550.5,510C 553.981,523.913 557.647,537.747 561.5,551.5C 548.767,547.982 536.1,544.149 523.5,540C 517.766,526.956 518.266,514.123 525,501.5C 545.958,468.418 566.792,435.251 587.5,402C 590.263,399.626 593.263,397.792 596.5,396.5 Z"/></g>
<g><path style="opacity:1" fill="#bebebe" d="M 299.5,471.5 C 298.501,546.665 298.167,621.998 298.5,697.5C 297.83,660.571 297.497,622.904 297.5,584.5C 297.833,546.5 298.167,508.5 298.5,470.5C 299.107,470.624 299.44,470.957 299.5,471.5 Z"/></g>
<g><path style="opacity:1" fill="#26f6c9" d="M 747.5,471.5 C 748.41,473.019 749.243,474.685 750,476.5C 758,506.5 766,536.5 774,566.5C 776.459,574.334 777.959,582.334 778.5,590.5C 742.31,579.492 706.31,567.992 670.5,556C 696.004,527.664 721.671,499.497 747.5,471.5 Z"/></g>
<g><path style="opacity:1" fill="#ebebeb" d="M 687.5,474.5 C 688.833,474.5 690.167,474.5 691.5,474.5C 694.535,488.341 698.201,502.008 702.5,515.5C 690.864,529.303 678.697,542.637 666,555.5C 656.57,552.268 647.07,549.268 637.5,546.5C 630.067,553.101 623.067,560.268 616.5,568C 599.226,564.245 582.226,559.245 565.5,553C 562.238,540.455 558.738,527.955 555,515.5C 554.202,513.741 554.369,512.074 555.5,510.5C 599.765,499.007 643.765,487.007 687.5,474.5 Z"/></g>
<g><path style="opacity:1" fill="#23e2b8" d="M 981.5,483.5 C 983.335,487.656 985.001,491.989 986.5,496.5C 982.154,497.585 977.821,497.418 973.5,496C 976.552,492.059 979.218,487.893 981.5,483.5 Z"/></g>
<g><path style="opacity:1" fill="#2751ed" d="M 970.5,499.5 C 976.234,499.582 981.901,500.248 987.5,501.5C 988.909,504.727 989.909,508.06 990.5,511.5C 982.5,510.5 974.5,509.5 966.5,508.5C 967.553,505.393 968.886,502.393 970.5,499.5 Z"/></g>
<g><path style="opacity:1" fill="#26f4c6" d="M 964.5,511.5 C 973.237,511.939 981.903,512.939 990.5,514.5C 986.659,547.893 982.326,581.227 977.5,614.5C 968.5,614.5 959.5,614.5 950.5,614.5C 954.608,580.08 959.274,545.747 964.5,511.5 Z"/></g>
<g><path style="opacity:1" fill="#254ee3" d="M 907.5,511.5 C 910.143,515.435 912.81,519.435 915.5,523.5C 911.655,525.128 907.655,526.128 903.5,526.5C 904.833,521.5 906.167,516.5 907.5,511.5 Z"/></g>
<g><path style="opacity:1" fill="#2752ef" d="M 911.5,527.5 C 913.857,527.337 916.19,527.503 918.5,528C 920.85,530.869 922.516,534.035 923.5,537.5C 915.492,538.073 907.492,538.739 899.5,539.5C 900.022,536.432 900.855,533.432 902,530.5C 905.134,529.091 908.301,528.091 911.5,527.5 Z"/></g>
<g><path style="opacity:1" fill="#26f7c9" d="M 502.5,536.5 C 539.134,548.433 575.8,560.267 612.5,572C 587.691,599.976 562.357,627.476 536.5,654.5C 535.201,653.91 534.368,652.91 534,651.5C 522.803,613.341 512.303,575.008 502.5,536.5 Z"/></g>
<g><path style="opacity:1" fill="#2955f8" d="M 918.5,540.5 C 921.394,540.042 923.894,540.709 926,542.5C 929.237,566.466 932.07,590.466 934.5,614.5C 925.5,614.5 916.5,614.5 907.5,614.5C 904.869,591.285 901.869,568.118 898.5,545C 898.905,544.055 899.572,543.388 900.5,543C 906.721,542.729 912.721,541.896 918.5,540.5 Z"/></g>
<g><path style="opacity:1" fill="#26f7c9" d="M 637.5,549.5 C 683.656,564.791 729.99,579.624 776.5,594C 776.877,609.094 771.544,621.927 760.5,632.5C 752.679,639.412 743.679,644.246 733.5,647C 686.552,659.487 639.552,671.821 592.5,684C 573.073,685.532 556.573,679.365 543,665.5C 540.66,663.209 539.327,660.542 539,657.5C 572.409,621.929 605.242,585.929 637.5,549.5 Z"/></g>
<g><path style="opacity:1" fill="#0a1115" d="M 676.5,607.5 C 689.011,607.176 694.845,613.176 694,625.5C 692.623,627.754 691.123,629.92 689.5,632C 672.95,636.972 656.283,641.638 639.5,646C 626.913,647.076 621.413,641.243 623,628.5C 624.449,625.384 626.616,622.884 629.5,621C 645.436,617.008 661.102,612.508 676.5,607.5 Z"/></g>
<g><path style="opacity:1" fill="#2854f5" d="M 674.5,611.5 C 681.421,610.043 686.921,612.043 691,617.5C 692.076,622.607 690.576,626.774 686.5,630C 670.918,634.584 655.252,638.917 639.5,643C 629.333,644.167 624.833,639.667 626,629.5C 626.785,627.714 627.951,626.214 629.5,625C 644.664,620.631 659.664,616.131 674.5,611.5 Z"/></g>
<g><path style="opacity:1" fill="#818181" d="M 903.5,610.5 C 904.434,611.568 904.768,612.901 904.5,614.5C 892.167,614.5 879.833,614.5 867.5,614.5C 879.322,613.505 891.322,613.172 903.5,613.5C 903.5,612.5 903.5,611.5 903.5,610.5 Z"/></g>
<g><path style="opacity:1" fill="#838383" d="M 947.5,611.5 C 947.5,612.5 947.5,613.5 947.5,614.5C 944.287,614.81 941.287,614.477 938.5,613.5C 941.855,613.909 944.855,613.242 947.5,611.5 Z"/></g>
<g><path style="opacity:1" fill="#5a2b2f" d="M 870.5,617.5 C 917.5,617.5 964.5,617.5 1011.5,617.5C 1008.97,636.479 1006.64,655.479 1004.5,674.5C 962.167,674.5 919.833,674.5 877.5,674.5C 875.493,655.458 873.16,636.458 870.5,617.5 Z"/></g>
<g><path style="opacity:1" fill="#0d0a1a" d="M 670.5,621.5 C 672.5,621.5 674.5,621.5 676.5,621.5C 676.5,622.5 676.5,623.5 676.5,624.5C 664.77,627.195 653.104,630.195 641.5,633.5C 638.956,632.265 638.956,631.099 641.5,630C 651.346,627.294 661.013,624.461 670.5,621.5 Z"/></g>
<g><path style="opacity:1" fill="#2956fc" d="M 991.5,775.5 C 958.167,775.5 924.833,775.5 891.5,775.5C 891.737,774.209 891.404,773.209 890.5,772.5C 886.762,740.807 882.762,709.14 878.5,677.5C 920.167,677.5 961.833,677.5 1003.5,677.5C 999.501,710.153 995.501,742.819 991.5,775.5 Z"/></g>
<g><path style="opacity:1" fill="#070f2c" d="M 890.5,772.5 C 891.404,773.209 891.737,774.209 891.5,775.5C 924.833,775.5 958.167,775.5 991.5,775.5C 958.004,776.498 924.337,776.832 890.5,776.5C 890.5,775.167 890.5,773.833 890.5,772.5 Z"/></g>
</svg>
