<svg xmlns="http://www.w3.org/2000/svg" xmlns:xlink="http://www.w3.org/1999/xlink" width="2000" zoomAndPan="magnify" viewBox="0 0 1500 1124.99995" height="1500" preserveAspectRatio="xMidYMid meet" version="1.0"><defs><g/><clipPath id="cb6946b097"><path d="M 1045.066406 442.011719 L 1077.558594 442.011719 L 1077.558594 474.503906 L 1045.066406 474.503906 Z M 1045.066406 442.011719 " clip-rule="nonzero"/></clipPath><clipPath id="e2407307b8"><path d="M 1061.3125 442.011719 C 1052.339844 442.011719 1045.066406 449.285156 1045.066406 458.257812 C 1045.066406 467.230469 1052.339844 474.503906 1061.3125 474.503906 C 1070.285156 474.503906 1077.558594 467.230469 1077.558594 458.257812 C 1077.558594 449.285156 1070.285156 442.011719 1061.3125 442.011719 " clip-rule="nonzero"/></clipPath><clipPath id="5b6a4aac69"><path d="M 861.257812 474.503906 L 939 474.503906 L 939 510.503906 L 861.257812 510.503906 Z M 861.257812 474.503906 " clip-rule="nonzero"/></clipPath></defs><rect x="-150" width="1800" fill="#ffffff" y="-112.499995" height="1349.99994" fill-opacity="1"/><rect x="-150" width="1800" fill="#ffffff" y="-112.499995" height="1349.99994" fill-opacity="1"/><rect x="-150" width="1800" fill="#ffffff" y="-112.499995" height="1349.99994" fill-opacity="1"/><path stroke-linecap="round" transform="matrix(0.750038, -0.00319043, 0.00319024, 0.749993, 167.263994, 883.446648)" fill="none" stroke-linejoin="miter" d="M 6.500235 6.499889 L 1544.171543 6.49934 " stroke="#000000" stroke-width="13" stroke-opacity="1" stroke-miterlimit="4"/><path stroke-linecap="round" transform="matrix(0.750038, -0.00319043, 0.00319024, 0.749993, 167.263994, 883.446648)" fill="none" stroke-linejoin="round" d="M 1521.422311 -12.998653 L 1547.421384 6.49754 L 1521.423084 26.001708 " stroke="#000000" stroke-width="13" stroke-opacity="1" stroke-miterlimit="4"/><path stroke-linecap="round" transform="matrix(-0.00344348, -0.750227, 0.749992, -0.0034424, 498.926054, 1066.733672)" fill="none" stroke-linejoin="miter" d="M 6.498516 6.498292 L 1334.840585 6.498165 " stroke="#000000" stroke-width="13" stroke-opacity="1" stroke-miterlimit="4"/><path stroke-linecap="round" transform="matrix(-0.00344348, -0.750227, 0.749992, -0.0034424, 498.926054, 1066.733672)" fill="none" stroke-linejoin="round" d="M 1312.093236 -13.002316 L 1338.09481 6.497481 L 1312.091313 25.998089 " stroke="#000000" stroke-width="13" stroke-opacity="1" stroke-miterlimit="4"/><g fill="#1e76e9" fill-opacity="1"><g transform="translate(406.893214, 179.408127)"><g><path d="M -0.09375 -53.46875 L 19.34375 -53.46875 L 28.40625 -22.796875 C 28.851562 -21.191406 29.15625 -19.253906 29.3125 -16.984375 L 29.6875 -16.984375 C 29.9375 -19.160156 30.3125 -21.066406 30.8125 -22.703125 L 40.109375 -53.46875 L 58.953125 -53.46875 L 37.796875 3.390625 C 35.097656 10.628906 31.773438 15.742188 27.828125 18.734375 C 23.878906 21.722656 18.722656 23.21875 12.359375 23.21875 C 9.910156 23.21875 7.394531 22.953125 4.8125 22.421875 L 4.8125 7.921875 C 6.476562 8.304688 8.382812 8.5 10.53125 8.5 C 12.164062 8.5 13.59375 8.179688 14.8125 7.546875 C 16.039062 6.921875 17.109375 6.03125 18.015625 4.875 C 18.929688 3.726562 19.910156 1.851562 20.953125 -0.75 Z M -0.09375 -53.46875 "/></g></g></g><g fill="#1e76e9" fill-opacity="1"><g transform="translate(1201.240706, 972.452508)"><g><path d="M 17.703125 -27.28125 L 1.375 -53.46875 L 22.328125 -53.46875 L 30.4375 -38.46875 L 38.75 -53.46875 L 59.75 -53.46875 L 43 -27.28125 L 60.40625 0 L 39.453125 0 L 30.4375 -16.234375 L 21.46875 0 L 0.46875 0 Z M 17.703125 -27.28125 "/></g></g></g><path stroke-linecap="round" transform="matrix(0.685972, -0.303483, 0.30344, 0.685875, 272.789717, 981.748719)" fill="none" stroke-linejoin="miter" d="M 6.502089 6.50108 L 1089.101133 6.500147 " stroke="#000000" stroke-width="13" stroke-opacity="1" stroke-miterlimit="4"/><path stroke-linecap="round" transform="matrix(0.685972, -0.303483, 0.30344, 0.685875, 272.789717, 981.748719)" fill="none" stroke-linejoin="round" d="M 1066.349682 -12.998196 L 1092.353482 6.498325 L 1066.3535 25.999081 " stroke="#000000" stroke-width="13" stroke-opacity="1" stroke-miterlimit="4"/><g fill="#1e76e9" fill-opacity="1"><g transform="translate(1007.595523, 733.028767)"><g><path d="M 39.625 0 L 1.96875 0 L 1.96875 -8.953125 L 20.796875 -33.484375 L 3.046875 -33.484375 L 3.046875 -45.5 L 38.75 -45.5 L 38.75 -35.78125 L 20.71875 -12 L 39.625 -12 Z M 39.625 0 "/></g></g></g><path stroke-linecap="round" transform="matrix(0.595616, -0.455389, 0.455536, 0.595808, 495.018807, 883.201728)" fill="none" stroke-linejoin="miter" d="M 8.500115 8.498812 L 909.549633 8.498512 " stroke="#5e17eb" stroke-width="17" stroke-opacity="1" stroke-miterlimit="4"/><path stroke-linecap="round" transform="matrix(0.595616, -0.455389, 0.455536, 0.595808, 495.018807, 883.201728)" fill="none" stroke-linejoin="round" d="M 879.798815 -17.000846 L 913.798041 8.500332 L 879.80059 34.001361 " stroke="#5e17eb" stroke-width="17" stroke-opacity="1" stroke-miterlimit="4"/><g clip-path="url(#cb6946b097)"><g clip-path="url(#e2407307b8)"><path fill="#cc0829" d="M 1045.066406 442.011719 L 1077.558594 442.011719 L 1077.558594 474.503906 L 1045.066406 474.503906 Z M 1045.066406 442.011719 " fill-opacity="1" fill-rule="nonzero"/></g></g><g fill="#222222" fill-opacity="1"><g transform="translate(879.22647, 558.987568)"><g><path d="M 5.109375 0 L 5.109375 -43.6875 L 20.1875 -43.6875 L 20.1875 -37.390625 L 20.359375 -37.390625 C 20.460938 -37.609375 20.640625 -37.890625 20.890625 -38.234375 C 21.148438 -38.578125 21.707031 -39.171875 22.5625 -40.015625 C 23.414062 -40.867188 24.320312 -41.632812 25.28125 -42.3125 C 26.25 -43 27.5 -43.613281 29.03125 -44.15625 C 30.570312 -44.695312 32.132812 -44.96875 33.71875 -44.96875 C 35.363281 -44.96875 36.976562 -44.738281 38.5625 -44.28125 C 40.15625 -43.820312 41.320312 -43.367188 42.0625 -42.921875 L 43.265625 -42.234375 L 36.953125 -29.46875 C 35.078125 -31.050781 32.46875 -31.84375 29.125 -31.84375 C 27.300781 -31.84375 25.738281 -31.445312 24.4375 -30.65625 C 23.132812 -29.863281 22.210938 -28.898438 21.671875 -27.765625 C 21.128906 -26.628906 20.742188 -25.660156 20.515625 -24.859375 C 20.296875 -24.066406 20.1875 -23.441406 20.1875 -22.984375 L 20.1875 0 Z M 5.109375 0 "/></g></g></g><g clip-path="url(#5b6a4aac69)"><path fill="#222222" d="M 938.722656 488.863281 C 938.507812 487.867188 937.832031 486.851562 937.921875 486.050781 C 938.257812 483.148438 936.523438 482.273438 934.351562 481.546875 C 925.195312 478.472656 915.878906 476.109375 906.289062 474.933594 C 902.859375 474.511719 902.015625 475.445312 902.773438 478.851562 C 902.867188 479.273438 903.023438 479.679688 903.140625 480.101562 C 903.515625 481.519531 904.5625 482.167969 905.851562 481.925781 C 907.117188 481.683594 908.25 481.988281 909.40625 482.222656 C 912.363281 482.816406 915.292969 483.507812 918.238281 484.164062 C 918.324219 484.324219 918.339844 484.488281 918.277344 484.664062 C 915.101562 484.9375 911.933594 485.320312 908.753906 485.464844 C 900.605469 485.832031 892.601562 487.804688 884.355469 487.417969 C 880.4375 487.238281 876.453125 487.894531 872.539062 488.460938 C 869.460938 488.910156 866.339844 488.675781 863.292969 489.332031 C 861.742188 489.664062 861.453125 490.066406 862.371094 491.34375 C 864.1875 493.902344 866.085938 496.445312 869.847656 495.621094 C 870.511719 495.476562 871.222656 495.550781 871.910156 495.476562 C 878.339844 494.820312 884.789062 494.453125 891.226562 494.039062 C 898.1875 493.589844 905.148438 493.113281 912.109375 492.628906 C 914.433594 492.46875 916.746094 492.25 919.296875 492.042969 C 918.585938 493.195312 917.664062 493.535156 916.90625 494.058594 C 914.335938 495.835938 912.054688 497.949219 909.699219 499.988281 C 906.097656 503.097656 907.640625 507.242188 909.398438 509.785156 C 909.726562 510.261719 910.148438 510.53125 910.605469 509.882812 C 911.992188 507.921875 914.054688 506.761719 915.949219 505.417969 C 921.371094 501.5625 927.054688 498.117188 932.738281 494.667969 C 934.214844 493.769531 935.695312 492.886719 937.175781 492.015625 C 938.386719 491.308594 939.082031 490.542969 938.722656 488.863281 Z M 919.289062 484.289062 C 919.328125 484.269531 919.371094 484.261719 919.410156 484.226562 C 919.382812 484.261719 919.351562 484.28125 919.316406 484.304688 C 919.308594 484.304688 919.300781 484.296875 919.289062 484.289062 Z M 919.289062 484.289062 " fill-opacity="1" fill-rule="nonzero"/></g><g fill="#cc0829" fill-opacity="1"><g transform="translate(1045.064943, 419.996864)"><g><path d="M 48.953125 -40.03125 C 48.953125 -33.476562 47.015625 -28.410156 43.140625 -24.828125 C 39.273438 -21.253906 33.78125 -19.46875 26.65625 -19.46875 L 22.203125 -19.46875 L 22.203125 0 L 6.34375 0 L 6.34375 -58.703125 L 26.65625 -58.703125 C 34.070312 -58.703125 39.640625 -57.082031 43.359375 -53.84375 C 47.085938 -50.601562 48.953125 -46 48.953125 -40.03125 Z M 22.203125 -32.40625 L 25.09375 -32.40625 C 27.476562 -32.40625 29.375 -33.070312 30.78125 -34.40625 C 32.1875 -35.75 32.890625 -37.597656 32.890625 -39.953125 C 32.890625 -43.910156 30.691406 -45.890625 26.296875 -45.890625 L 22.203125 -45.890625 Z M 22.203125 -32.40625 "/></g></g></g></svg>