<svg xmlns="http://www.w3.org/2000/svg" xmlns:xlink="http://www.w3.org/1999/xlink" width="2000" zoomAndPan="magnify" viewBox="0 0 1500 1124.99995" height="1500" preserveAspectRatio="xMidYMid meet" version="1.0"><defs><g/><clipPath id="e09db77114"><path d="M 1045.066406 442.011719 L 1077.558594 442.011719 L 1077.558594 474.503906 L 1045.066406 474.503906 Z M 1045.066406 442.011719 " clip-rule="nonzero"/></clipPath><clipPath id="dd697ccb4c"><path d="M 1061.3125 442.011719 C 1052.339844 442.011719 1045.066406 449.285156 1045.066406 458.257812 C 1045.066406 467.230469 1052.339844 474.503906 1061.3125 474.503906 C 1070.285156 474.503906 1077.558594 467.230469 1077.558594 458.257812 C 1077.558594 449.285156 1070.285156 442.011719 1061.3125 442.011719 " clip-rule="nonzero"/></clipPath><clipPath id="facbb7c775"><path d="M 861.257812 474.503906 L 939 474.503906 L 939 510.503906 L 861.257812 510.503906 Z M 861.257812 474.503906 " clip-rule="nonzero"/></clipPath><clipPath id="97222c52ba"><path d="M 658 438.316406 L 717.882812 438.316406 L 717.882812 465.316406 L 658 465.316406 Z M 658 438.316406 " clip-rule="nonzero"/></clipPath><clipPath id="17530dc9cf"><path d="M 725 438.316406 L 787.792969 438.316406 L 787.792969 466.816406 L 725 466.816406 Z M 725 438.316406 " clip-rule="nonzero"/></clipPath><clipPath id="e465dbd3f4"><path d="M 873.636719 367.097656 L 906.132812 367.097656 L 906.132812 399.59375 L 873.636719 399.59375 Z M 873.636719 367.097656 " clip-rule="nonzero"/></clipPath><clipPath id="c80ad6092e"><path d="M 889.882812 367.097656 C 880.910156 367.097656 873.636719 374.375 873.636719 383.347656 C 873.636719 392.320312 880.910156 399.59375 889.882812 399.59375 C 898.855469 399.59375 906.132812 392.320312 906.132812 383.347656 C 906.132812 374.375 898.855469 367.097656 889.882812 367.097656 " clip-rule="nonzero"/></clipPath><clipPath id="2f8d176295"><path d="M 959 318 L 1036 318 L 1036 353.8125 L 959 353.8125 Z M 959 318 " clip-rule="nonzero"/></clipPath></defs><rect x="-150" width="1800" fill="#ffffff" y="-112.499995" height="1349.99994" fill-opacity="1"/><rect x="-150" width="1800" fill="#ffffff" y="-112.499995" height="1349.99994" fill-opacity="1"/><path stroke-linecap="round" transform="matrix(0.750038, -0.00319043, 0.00319024, 0.749993, 167.263994, 883.446696)" fill="none" stroke-linejoin="miter" d="M 6.500235 6.499825 L 1544.171543 6.499276 " stroke="#000000" stroke-width="13" stroke-opacity="1" stroke-miterlimit="4"/><path stroke-linecap="round" transform="matrix(0.750038, -0.00319043, 0.00319024, 0.749993, 167.263994, 883.446696)" fill="none" stroke-linejoin="round" d="M 1521.422312 -12.998717 L 1547.421384 6.497476 L 1521.423084 26.001644 " stroke="#000000" stroke-width="13" stroke-opacity="1" stroke-miterlimit="4"/><path stroke-linecap="round" transform="matrix(-0.00344348, -0.750227, 0.749992, -0.0034424, 498.926054, 1066.733792)" fill="none" stroke-linejoin="miter" d="M 6.498676 6.498292 L 1334.840745 6.498165 " stroke="#000000" stroke-width="13" stroke-opacity="1" stroke-miterlimit="4"/><path stroke-linecap="round" transform="matrix(-0.00344348, -0.750227, 0.749992, -0.0034424, 498.926054, 1066.733792)" fill="none" stroke-linejoin="round" d="M 1312.093396 -13.002315 L 1338.094969 6.497481 L 1312.091473 25.99809 " stroke="#000000" stroke-width="13" stroke-opacity="1" stroke-miterlimit="4"/><g fill="#1e76e9" fill-opacity="1"><g transform="translate(406.893214, 179.407959)"><g><path d="M -0.09375 -53.46875 L 19.34375 -53.46875 L 28.40625 -22.796875 C 28.851562 -21.191406 29.15625 -19.253906 29.3125 -16.984375 L 29.6875 -16.984375 C 29.9375 -19.160156 30.3125 -21.066406 30.8125 -22.703125 L 40.109375 -53.46875 L 58.953125 -53.46875 L 37.796875 3.390625 C 35.097656 10.628906 31.773438 15.742188 27.828125 18.734375 C 23.878906 21.722656 18.722656 23.21875 12.359375 23.21875 C 9.910156 23.21875 7.394531 22.953125 4.8125 22.421875 L 4.8125 7.921875 C 6.476562 8.304688 8.382812 8.5 10.53125 8.5 C 12.164062 8.5 13.59375 8.179688 14.8125 7.546875 C 16.039062 6.921875 17.109375 6.03125 18.015625 4.875 C 18.929688 3.726562 19.910156 1.851562 20.953125 -0.75 Z M -0.09375 -53.46875 "/></g></g></g><g fill="#1e76e9" fill-opacity="1"><g transform="translate(1201.240706, 972.452508)"><g><path d="M 17.703125 -27.28125 L 1.375 -53.46875 L 22.328125 -53.46875 L 30.4375 -38.46875 L 38.75 -53.46875 L 59.75 -53.46875 L 43 -27.28125 L 60.40625 0 L 39.453125 0 L 30.4375 -16.234375 L 21.46875 0 L 0.46875 0 Z M 17.703125 -27.28125 "/></g></g></g><path stroke-linecap="round" transform="matrix(0.459797, -0.592526, 0.592526, 0.459797, 499.065686, 877.192416)" fill="none" stroke-linejoin="miter" d="M 8.001855 7.998744 L 806.002368 7.998767 " stroke="#1e76e9" stroke-width="16" stroke-opacity="1" stroke-miterlimit="4"/><path stroke-linecap="round" transform="matrix(0.459797, -0.592526, 0.592526, 0.459797, 499.065686, 877.192416)" fill="none" stroke-linejoin="round" d="M 778.004297 -16.000744 L 810.003949 7.99865 L 778.004354 31.99949 " stroke="#1e76e9" stroke-width="16" stroke-opacity="1" stroke-miterlimit="4"/><path stroke-linecap="round" transform="matrix(0.685972, -0.303483, 0.30344, 0.685875, 272.789717, 981.748719)" fill="none" stroke-linejoin="miter" d="M 6.502089 6.50108 L 1089.101133 6.500147 " stroke="#000000" stroke-width="13" stroke-opacity="1" stroke-miterlimit="4"/><path stroke-linecap="round" transform="matrix(0.685972, -0.303483, 0.30344, 0.685875, 272.789717, 981.748719)" fill="none" stroke-linejoin="round" d="M 1066.349682 -12.998196 L 1092.353482 6.498325 L 1066.3535 25.999081 " stroke="#000000" stroke-width="13" stroke-opacity="1" stroke-miterlimit="4"/><g fill="#1e76e9" fill-opacity="1"><g transform="translate(1007.595523, 733.028767)"><g><path d="M 39.625 0 L 1.96875 0 L 1.96875 -8.953125 L 20.796875 -33.484375 L 3.046875 -33.484375 L 3.046875 -45.5 L 38.75 -45.5 L 38.75 -35.78125 L 20.71875 -12 L 39.625 -12 Z M 39.625 0 "/></g></g></g><path stroke-linecap="round" transform="matrix(0.595616, -0.455389, 0.455536, 0.595808, 495.018807, 883.201776)" fill="none" stroke-linejoin="miter" d="M 8.500154 8.498762 L 909.549672 8.498461 " stroke="#5e17eb" stroke-width="17" stroke-opacity="1" stroke-miterlimit="4"/><path stroke-linecap="round" transform="matrix(0.595616, -0.455389, 0.455536, 0.595808, 495.018807, 883.201776)" fill="none" stroke-linejoin="round" d="M 879.798854 -17.000897 L 913.79808 8.500281 L 879.800629 34.00131 " stroke="#5e17eb" stroke-width="17" stroke-opacity="1" stroke-miterlimit="4"/><g clip-path="url(#e09db77114)"><g clip-path="url(#dd697ccb4c)"><path fill="#cc0829" d="M 1045.066406 442.011719 L 1077.558594 442.011719 L 1077.558594 474.503906 L 1045.066406 474.503906 Z M 1045.066406 442.011719 " fill-opacity="1" fill-rule="nonzero"/></g></g><g fill="#222222" fill-opacity="1"><g transform="translate(879.22647, 558.987496)"><g><path d="M 5.109375 0 L 5.109375 -43.6875 L 20.1875 -43.6875 L 20.1875 -37.390625 L 20.359375 -37.390625 C 20.460938 -37.609375 20.640625 -37.890625 20.890625 -38.234375 C 21.148438 -38.578125 21.707031 -39.171875 22.5625 -40.015625 C 23.414062 -40.867188 24.320312 -41.632812 25.28125 -42.3125 C 26.25 -43 27.5 -43.613281 29.03125 -44.15625 C 30.570312 -44.695312 32.132812 -44.96875 33.71875 -44.96875 C 35.363281 -44.96875 36.976562 -44.738281 38.5625 -44.28125 C 40.15625 -43.820312 41.320312 -43.367188 42.0625 -42.921875 L 43.265625 -42.234375 L 36.953125 -29.46875 C 35.078125 -31.050781 32.46875 -31.84375 29.125 -31.84375 C 27.300781 -31.84375 25.738281 -31.445312 24.4375 -30.65625 C 23.132812 -29.863281 22.210938 -28.898438 21.671875 -27.765625 C 21.128906 -26.628906 20.742188 -25.660156 20.515625 -24.859375 C 20.296875 -24.066406 20.1875 -23.441406 20.1875 -22.984375 L 20.1875 0 Z M 5.109375 0 "/></g></g></g><g clip-path="url(#facbb7c775)"><path fill="#222222" d="M 938.722656 488.863281 C 938.507812 487.867188 937.832031 486.851562 937.921875 486.050781 C 938.257812 483.148438 936.523438 482.273438 934.351562 481.546875 C 925.195312 478.472656 915.878906 476.109375 906.289062 474.933594 C 902.859375 474.511719 902.015625 475.445312 902.773438 478.851562 C 902.867188 479.273438 903.023438 479.679688 903.140625 480.101562 C 903.515625 481.519531 904.5625 482.167969 905.851562 481.925781 C 907.117188 481.683594 908.25 481.988281 909.40625 482.222656 C 912.363281 482.816406 915.292969 483.507812 918.238281 484.164062 C 918.324219 484.324219 918.339844 484.488281 918.277344 484.664062 C 915.101562 484.9375 911.933594 485.320312 908.753906 485.464844 C 900.605469 485.832031 892.601562 487.804688 884.355469 487.417969 C 880.4375 487.238281 876.453125 487.894531 872.539062 488.460938 C 869.460938 488.910156 866.339844 488.675781 863.292969 489.332031 C 861.742188 489.664062 861.453125 490.066406 862.371094 491.34375 C 864.1875 493.902344 866.085938 496.445312 869.847656 495.621094 C 870.511719 495.476562 871.222656 495.550781 871.910156 495.476562 C 878.339844 494.820312 884.789062 494.453125 891.226562 494.039062 C 898.1875 493.589844 905.148438 493.113281 912.109375 492.628906 C 914.433594 492.46875 916.746094 492.25 919.296875 492.042969 C 918.585938 493.195312 917.664062 493.535156 916.90625 494.058594 C 914.335938 495.835938 912.054688 497.949219 909.699219 499.988281 C 906.097656 503.097656 907.640625 507.242188 909.398438 509.785156 C 909.726562 510.261719 910.148438 510.53125 910.605469 509.882812 C 911.992188 507.921875 914.054688 506.761719 915.949219 505.417969 C 921.371094 501.5625 927.054688 498.117188 932.738281 494.667969 C 934.214844 493.769531 935.695312 492.886719 937.175781 492.015625 C 938.386719 491.308594 939.082031 490.542969 938.722656 488.863281 Z M 919.289062 484.289062 C 919.328125 484.269531 919.371094 484.261719 919.410156 484.226562 C 919.382812 484.261719 919.351562 484.28125 919.316406 484.304688 C 919.308594 484.304688 919.300781 484.296875 919.289062 484.289062 Z M 919.289062 484.289062 " fill-opacity="1" fill-rule="nonzero"/></g><g fill="#222222" fill-opacity="1"><g transform="translate(658.418305, 509.229869)"><g><path d="M 4.5 0 L 4.5 -38.5 L 17.796875 -38.5 L 17.796875 -32.953125 L 17.9375 -32.953125 C 18.039062 -33.148438 18.203125 -33.398438 18.421875 -33.703125 C 18.648438 -34.003906 19.140625 -34.53125 19.890625 -35.28125 C 20.640625 -36.03125 21.4375 -36.703125 22.28125 -37.296875 C 23.132812 -37.898438 24.238281 -38.441406 25.59375 -38.921875 C 26.945312 -39.398438 28.320312 -39.640625 29.71875 -39.640625 C 31.175781 -39.640625 32.601562 -39.4375 34 -39.03125 C 35.40625 -38.632812 36.429688 -38.234375 37.078125 -37.828125 L 38.125 -37.234375 L 32.578125 -25.96875 C 30.921875 -27.375 28.617188 -28.078125 25.671875 -28.078125 C 24.066406 -28.078125 22.6875 -27.722656 21.53125 -27.015625 C 20.382812 -26.316406 19.570312 -25.46875 19.09375 -24.46875 C 18.625 -23.46875 18.289062 -22.617188 18.09375 -21.921875 C 17.894531 -21.222656 17.796875 -20.671875 17.796875 -20.265625 L 17.796875 0 Z M 4.5 0 "/></g></g></g><g clip-path="url(#97222c52ba)"><path fill="#222222" d="M 717.464844 449.085938 C 717.304688 448.339844 716.785156 447.578125 716.851562 446.976562 C 717.109375 444.800781 715.773438 444.140625 714.105469 443.597656 C 707.0625 441.292969 699.898438 439.519531 692.519531 438.636719 C 689.882812 438.320312 689.230469 439.023438 689.816406 441.578125 C 689.886719 441.894531 690.007812 442.199219 690.097656 442.515625 C 690.386719 443.578125 691.191406 444.0625 692.183594 443.882812 C 693.15625 443.703125 694.027344 443.929688 694.917969 444.105469 C 697.191406 444.550781 699.445312 445.070312 701.710938 445.5625 C 701.777344 445.679688 701.789062 445.804688 701.742188 445.933594 C 699.296875 446.140625 696.859375 446.425781 694.417969 446.535156 C 688.148438 446.8125 681.992188 448.292969 675.648438 448.003906 C 672.632812 447.867188 669.570312 448.359375 666.558594 448.785156 C 664.191406 449.121094 661.789062 448.945312 659.445312 449.4375 C 658.253906 449.6875 658.035156 449.988281 658.738281 450.945312 C 660.136719 452.863281 661.59375 454.769531 664.492188 454.152344 C 665 454.046875 665.546875 454.101562 666.078125 454.046875 C 671.019531 453.554688 675.980469 453.277344 680.933594 452.96875 C 686.289062 452.628906 691.644531 452.273438 696.996094 451.910156 C 698.785156 451.789062 700.5625 451.625 702.523438 451.46875 C 701.976562 452.335938 701.269531 452.589844 700.683594 452.984375 C 698.710938 454.316406 696.953125 455.902344 695.140625 457.429688 C 692.375 459.761719 693.5625 462.871094 694.910156 464.777344 C 695.164062 465.136719 695.488281 465.335938 695.839844 464.851562 C 696.90625 463.378906 698.496094 462.507812 699.949219 461.503906 C 704.121094 458.609375 708.492188 456.023438 712.863281 453.4375 C 714 452.765625 715.140625 452.101562 716.277344 451.449219 C 717.210938 450.921875 717.746094 450.34375 717.464844 449.085938 Z M 702.519531 445.65625 C 702.550781 445.640625 702.582031 445.632812 702.613281 445.609375 C 702.59375 445.632812 702.566406 445.648438 702.539062 445.664062 C 702.535156 445.664062 702.53125 445.660156 702.519531 445.65625 Z M 702.519531 445.65625 " fill-opacity="1" fill-rule="nonzero"/></g><g fill="#222222" fill-opacity="1"><g transform="translate(734.946234, 508.14652)"><g><path d="M 12.890625 -34.796875 L 21.359375 -15.875 L 29.84375 -34.796875 L 44.09375 -34.796875 L 25.4375 0 L 17.296875 0 L -1.359375 -34.796875 Z M 12.890625 -34.796875 "/></g></g></g><g clip-path="url(#17530dc9cf)"><path fill="#222222" d="M 787.355469 449.683594 C 787.183594 448.894531 786.636719 448.09375 786.710938 447.457031 C 786.980469 445.160156 785.578125 444.464844 783.824219 443.890625 C 776.433594 441.457031 768.910156 439.585938 761.164062 438.65625 C 758.394531 438.324219 757.710938 439.0625 758.324219 441.757812 C 758.402344 442.089844 758.527344 442.414062 758.621094 442.746094 C 758.925781 443.867188 759.769531 444.382812 760.8125 444.191406 C 761.832031 444 762.746094 444.242188 763.679688 444.425781 C 766.066406 444.898438 768.433594 445.445312 770.8125 445.964844 C 770.882812 446.089844 770.894531 446.222656 770.84375 446.359375 C 768.28125 446.578125 765.722656 446.878906 763.15625 446.992188 C 756.574219 447.28125 750.109375 448.847656 743.453125 448.539062 C 740.285156 448.398438 737.070312 448.917969 733.910156 449.367188 C 731.421875 449.722656 728.902344 449.535156 726.441406 450.054688 C 725.1875 450.320312 724.957031 450.636719 725.695312 451.648438 C 727.164062 453.671875 728.695312 455.683594 731.734375 455.035156 C 732.269531 454.917969 732.84375 454.980469 733.402344 454.917969 C 738.59375 454.398438 743.800781 454.109375 749 453.78125 C 754.621094 453.425781 760.242188 453.046875 765.863281 452.664062 C 767.738281 452.539062 769.609375 452.363281 771.667969 452.199219 C 771.09375 453.113281 770.347656 453.382812 769.738281 453.796875 C 767.664062 455.203125 765.820312 456.878906 763.917969 458.492188 C 761.011719 460.953125 762.257812 464.234375 763.675781 466.246094 C 763.9375 466.625 764.28125 466.839844 764.652344 466.324219 C 765.769531 464.769531 767.4375 463.851562 768.964844 462.789062 C 773.34375 459.738281 777.933594 457.007812 782.523438 454.277344 C 783.714844 453.566406 784.910156 452.867188 786.109375 452.179688 C 787.085938 451.621094 787.648438 451.011719 787.355469 449.683594 Z M 771.660156 446.0625 C 771.695312 446.046875 771.726562 446.039062 771.761719 446.011719 C 771.738281 446.039062 771.710938 446.058594 771.683594 446.074219 C 771.679688 446.074219 771.671875 446.066406 771.660156 446.0625 Z M 771.660156 446.0625 " fill-opacity="1" fill-rule="nonzero"/></g><g fill="#222222" fill-opacity="1"><g transform="translate(695.184045, 520.952853)"><g><path d="M 24.953125 -10.03125 L 15.234375 -10.03125 L 15.234375 -21.46875 L 3.8125 -21.46875 L 3.8125 -31.171875 L 15.234375 -31.171875 L 15.234375 -42.609375 L 24.953125 -42.609375 L 24.953125 -31.171875 L 36.390625 -31.171875 L 36.390625 -21.46875 L 24.953125 -21.46875 Z M 24.953125 -10.03125 "/></g></g></g><g fill="#cc0829" fill-opacity="1"><g transform="translate(1045.064943, 419.996835)"><g><path d="M 48.953125 -40.03125 C 48.953125 -33.476562 47.015625 -28.410156 43.140625 -24.828125 C 39.273438 -21.253906 33.78125 -19.46875 26.65625 -19.46875 L 22.203125 -19.46875 L 22.203125 0 L 6.34375 0 L 6.34375 -58.703125 L 26.65625 -58.703125 C 34.070312 -58.703125 39.640625 -57.082031 43.359375 -53.84375 C 47.085938 -50.601562 48.953125 -46 48.953125 -40.03125 Z M 22.203125 -32.40625 L 25.09375 -32.40625 C 27.476562 -32.40625 29.375 -33.070312 30.78125 -34.40625 C 32.1875 -35.75 32.890625 -37.597656 32.890625 -39.953125 C 32.890625 -43.910156 30.691406 -45.890625 26.296875 -45.890625 L 22.203125 -45.890625 Z M 22.203125 -32.40625 "/></g></g></g><path stroke-linecap="round" transform="matrix(-0.687043, -0.303602, 0.303144, -0.686006, 1043.861655, 457.517989)" fill="none" stroke-linejoin="miter" d="M 8.501504 8.500579 L 193.947934 8.498891 " stroke="#5e17eb" stroke-width="17" stroke-opacity="1" stroke-miterlimit="4"/><path stroke-linecap="round" transform="matrix(-0.687043, -0.303602, 0.303144, -0.686006, 1043.861655, 457.517989)" fill="none" stroke-linejoin="round" d="M 164.201773 -17.000081 L 198.201731 8.501087 L 164.200011 33.997912 " stroke="#5e17eb" stroke-width="17" stroke-opacity="1" stroke-miterlimit="4"/><g clip-path="url(#e465dbd3f4)"><g clip-path="url(#c80ad6092e)"><path fill="#cc0829" d="M 873.636719 367.097656 L 906.132812 367.097656 L 906.132812 399.59375 L 873.636719 399.59375 Z M 873.636719 367.097656 " fill-opacity="1" fill-rule="nonzero"/></g></g><g fill="#cc0829" fill-opacity="1"><g transform="translate(865.586263, 348.779184)"><g><path d="M 32.25 0 L 16.375 0 L 16.375 -45.734375 L 2.046875 -45.734375 L 2.046875 -58.703125 L 46.53125 -58.703125 L 46.53125 -45.734375 L 32.25 -45.734375 Z M 32.25 0 "/></g></g></g><g fill="#222222" fill-opacity="1"><g transform="translate(970.77031, 402.293765)"><g><path d="M 16.171875 -43.6875 L 26.828125 -19.921875 L 37.46875 -43.6875 L 55.34375 -43.6875 L 31.9375 0 L 21.71875 0 L -1.703125 -43.6875 Z M 16.171875 -43.6875 "/></g></g></g><g clip-path="url(#2f8d176295)"><path fill="#222222" d="M 1035.882812 332.167969 C 1035.671875 331.175781 1034.996094 330.160156 1035.085938 329.359375 C 1035.417969 326.457031 1033.683594 325.578125 1031.511719 324.851562 C 1022.359375 321.777344 1013.042969 319.414062 1003.453125 318.238281 C 1000.023438 317.816406 999.175781 318.75 999.933594 322.15625 C 1000.03125 322.578125 1000.1875 322.988281 1000.304688 323.410156 C 1000.679688 324.824219 1001.722656 325.472656 1003.015625 325.230469 C 1004.277344 324.992188 1005.414062 325.292969 1006.566406 325.53125 C 1009.523438 326.125 1012.453125 326.816406 1015.398438 327.472656 C 1015.488281 327.628906 1015.5 327.796875 1015.441406 327.96875 C 1012.261719 328.246094 1009.09375 328.625 1005.917969 328.769531 C 997.769531 329.136719 989.761719 331.113281 981.519531 330.726562 C 977.597656 330.546875 973.617188 331.203125 969.703125 331.769531 C 966.621094 332.21875 963.5 331.984375 960.453125 332.640625 C 958.902344 332.972656 958.617188 333.371094 959.53125 334.652344 C 961.347656 337.207031 963.246094 339.75 967.011719 338.925781 C 967.671875 338.78125 968.382812 338.859375 969.074219 338.78125 C 975.5 338.125 981.949219 337.761719 988.390625 337.34375 C 995.351562 336.894531 1002.3125 336.417969 1009.273438 335.9375 C 1011.59375 335.777344 1013.910156 335.554688 1016.457031 335.347656 C 1015.746094 336.503906 1014.824219 336.839844 1014.066406 337.367188 C 1011.5 339.140625 1009.21875 341.257812 1006.859375 343.292969 C 1003.261719 346.402344 1004.804688 350.550781 1006.558594 353.09375 C 1006.886719 353.570312 1007.3125 353.839844 1007.769531 353.1875 C 1009.15625 351.226562 1011.21875 350.066406 1013.109375 348.726562 C 1018.535156 344.871094 1024.21875 341.421875 1029.898438 337.972656 C 1031.375 337.074219 1032.859375 336.191406 1034.339844 335.320312 C 1035.546875 334.617188 1036.246094 333.847656 1035.882812 332.167969 Z M 1016.449219 327.59375 C 1016.492188 327.574219 1016.53125 327.566406 1016.574219 327.535156 C 1016.546875 327.566406 1016.511719 327.589844 1016.476562 327.609375 C 1016.472656 327.609375 1016.464844 327.601562 1016.449219 327.59375 Z M 1016.449219 327.59375 " fill-opacity="1" fill-rule="nonzero"/></g></svg>