<svg xmlns="http://www.w3.org/2000/svg" xmlns:xlink="http://www.w3.org/1999/xlink" width="2000" zoomAndPan="magnify" viewBox="0 0 1500 1124.99995" height="1500" preserveAspectRatio="xMidYMid meet" version="1.0"><defs><g/><clipPath id="95cb015a8b"><path d="M 886.292969 553.808594 L 913.328125 553.808594 L 913.328125 580.847656 L 886.292969 580.847656 Z M 886.292969 553.808594 " clip-rule="nonzero"/></clipPath><clipPath id="69e171ff5d"><path d="M 899.808594 553.808594 C 892.34375 553.808594 886.292969 559.863281 886.292969 567.328125 C 886.292969 574.796875 892.34375 580.847656 899.808594 580.847656 C 907.277344 580.847656 913.328125 574.796875 913.328125 567.328125 C 913.328125 559.863281 907.277344 553.808594 899.808594 553.808594 " clip-rule="nonzero"/></clipPath><clipPath id="676f849ba5"><path d="M 733.347656 581 L 798.597656 581 L 798.597656 610.847656 L 733.347656 610.847656 Z M 733.347656 581 " clip-rule="nonzero"/></clipPath><clipPath id="81d8f4a42d"><path d="M 903 663.644531 L 952.304688 663.644531 L 952.304688 686 L 903 686 Z M 903 663.644531 " clip-rule="nonzero"/></clipPath><clipPath id="698ba2d549"><path d="M 964.429688 650 L 1004 650 L 1004 667.878906 L 964.429688 667.878906 Z M 964.429688 650 " clip-rule="nonzero"/></clipPath><clipPath id="d3cf63d1ce"><path d="M 452 462.390625 L 501 462.390625 L 501 484.890625 L 452 484.890625 Z M 452 462.390625 " clip-rule="nonzero"/></clipPath><clipPath id="a74e4b14fb"><path d="M 507.320312 462.390625 L 559.820312 462.390625 L 559.820312 486.390625 L 507.320312 486.390625 Z M 507.320312 462.390625 " clip-rule="nonzero"/></clipPath><clipPath id="2babe360c3"><path d="M 1120 764.160156 L 1169.40625 764.160156 L 1169.40625 786.660156 L 1120 786.660156 Z M 1120 764.160156 " clip-rule="nonzero"/></clipPath><clipPath id="b0803f7787"><path d="M 1175.582031 764.160156 L 1228 764.160156 L 1228 788.160156 L 1175.582031 788.160156 Z M 1175.582031 764.160156 " clip-rule="nonzero"/></clipPath><clipPath id="3a3b632bfb"><path d="M 743.648438 491.476562 L 770.6875 491.476562 L 770.6875 518.515625 L 743.648438 518.515625 Z M 743.648438 491.476562 " clip-rule="nonzero"/></clipPath><clipPath id="b24508fd06"><path d="M 757.167969 491.476562 C 749.699219 491.476562 743.648438 497.53125 743.648438 504.996094 C 743.648438 512.464844 749.699219 518.515625 757.167969 518.515625 C 764.632812 518.515625 770.6875 512.464844 770.6875 504.996094 C 770.6875 497.53125 764.632812 491.476562 757.167969 491.476562 " clip-rule="nonzero"/></clipPath><clipPath id="a817ffde99"><path d="M 814.195312 450.464844 L 879.445312 450.464844 L 879.445312 480.464844 L 814.195312 480.464844 Z M 814.195312 450.464844 " clip-rule="nonzero"/></clipPath><clipPath id="3de1fabf34"><path d="M 655.433594 379.710938 L 720.683594 379.710938 L 720.683594 409.710938 L 655.433594 409.710938 Z M 655.433594 379.710938 " clip-rule="nonzero"/></clipPath><clipPath id="9c1a9f7ad7"><path d="M 939.117188 510.433594 L 972 510.433594 L 972 525.433594 L 939.117188 525.433594 Z M 939.117188 510.433594 " clip-rule="nonzero"/></clipPath><clipPath id="4044e36638"><path d="M 1112.113281 575.554688 L 1164.613281 575.554688 L 1164.613281 599.554688 L 1112.113281 599.554688 Z M 1112.113281 575.554688 " clip-rule="nonzero"/></clipPath></defs><rect x="-150" width="1800" fill="#ffffff" y="-112.499995" height="1349.99994" fill-opacity="1"/><rect x="-150" width="1800" fill="#ffffff" y="-112.499995" height="1349.99994" fill-opacity="1"/><rect x="-150" width="1800" fill="#ffffff" y="-112.499995" height="1349.99994" fill-opacity="1"/><path stroke-linecap="round" transform="matrix(0.750116, 0.00285819, -0.00285773, 0.749995, 204.121365, 918.945909)" fill="none" stroke-linejoin="miter" d="M 5.498906 5.499123 L 1435.527239 5.502524 " stroke="#000000" stroke-width="11" stroke-opacity="1" stroke-miterlimit="4"/><path stroke-linecap="round" transform="matrix(0.750116, 0.00285819, -0.00285773, 0.749995, 204.121365, 918.945909)" fill="none" stroke-linejoin="round" d="M 1416.279835 -11.002372 L 1438.276813 5.502462 L 1416.280575 21.997867 " stroke="#000000" stroke-width="11" stroke-opacity="1" stroke-miterlimit="4"/><path stroke-linecap="round" transform="matrix(-0.00150212, -0.750007, 0.749998, -0.0015021, 431.790836, 1073.626304)" fill="none" stroke-linejoin="miter" d="M 5.501092 5.498248 L 1354.738559 5.497411 " stroke="#000000" stroke-width="11" stroke-opacity="1" stroke-miterlimit="4"/><path stroke-linecap="round" transform="matrix(-0.00150212, -0.750007, 0.749998, -0.0015021, 431.790836, 1073.626304)" fill="none" stroke-linejoin="round" d="M 1335.490528 -10.999508 L 1357.488533 5.497711 L 1335.486935 22.000555 " stroke="#000000" stroke-width="11" stroke-opacity="1" stroke-miterlimit="4"/><g fill="#1e76e9" fill-opacity="1"><g transform="translate(364.464376, 152.074759)"><g><path d="M -0.078125 -44.484375 L 16.09375 -44.484375 L 23.640625 -18.96875 C 24.003906 -17.632812 24.253906 -16.023438 24.390625 -14.140625 L 24.703125 -14.140625 C 24.910156 -15.941406 25.222656 -17.523438 25.640625 -18.890625 L 33.375 -44.484375 L 49.046875 -44.484375 L 31.453125 2.828125 C 29.203125 8.847656 26.429688 13.097656 23.140625 15.578125 C 19.859375 18.066406 15.570312 19.3125 10.28125 19.3125 C 8.238281 19.3125 6.144531 19.09375 4 18.65625 L 4 6.59375 C 5.394531 6.90625 6.976562 7.0625 8.75 7.0625 C 10.113281 7.0625 11.304688 6.800781 12.328125 6.28125 C 13.347656 5.757812 14.238281 5.019531 15 4.0625 C 15.757812 3.101562 16.570312 1.539062 17.4375 -0.625 Z M -0.078125 -44.484375 "/></g></g></g><g fill="#1e76e9" fill-opacity="1"><g transform="translate(1182.934275, 997.649094)"><g><path d="M 14.71875 -22.703125 L 1.140625 -44.484375 L 18.578125 -44.484375 L 25.328125 -32 L 32.234375 -44.484375 L 49.71875 -44.484375 L 35.78125 -22.703125 L 50.265625 0 L 32.828125 0 L 25.328125 -13.515625 L 17.859375 0 L 0.390625 0 Z M 14.71875 -22.703125 "/></g></g></g><path stroke-linecap="round" transform="matrix(0.252901, -0.705817, 0.706045, 0.252983, 432.03362, 917.588397)" fill="none" stroke-linejoin="miter" d="M 5.500541 5.500895 L 668.971671 5.501122 " stroke="#1e76e9" stroke-width="11" stroke-opacity="1" stroke-miterlimit="4"/><path stroke-linecap="round" transform="matrix(0.252901, -0.705817, 0.706045, 0.252983, 432.03362, 917.588397)" fill="none" stroke-linejoin="round" d="M 649.71938 -11.000094 L 671.722111 5.500728 L 649.720954 22.001183 " stroke="#1e76e9" stroke-width="11" stroke-opacity="1" stroke-miterlimit="4"/><path stroke-linecap="round" transform="matrix(0.685629, -0.303331, 0.30344, 0.685875, 243.66391, 1002.85559)" fill="none" stroke-linejoin="miter" d="M 5.501322 5.50256 L 906.088933 5.502679 " stroke="#000000" stroke-width="11" stroke-opacity="1" stroke-miterlimit="4"/><path stroke-linecap="round" transform="matrix(0.685629, -0.303331, 0.30344, 0.685875, 243.66391, 1002.85559)" fill="none" stroke-linejoin="round" d="M 886.838014 -11.00159 L 908.83664 5.499072 L 886.839061 22.003025 " stroke="#000000" stroke-width="11" stroke-opacity="1" stroke-miterlimit="4"/><g fill="#1e76e9" fill-opacity="1"><g transform="translate(855.113288, 795.962605)"><g><path d="M 32.96875 0 L 1.640625 0 L 1.640625 -7.453125 L 17.3125 -27.859375 L 2.546875 -27.859375 L 2.546875 -37.859375 L 32.234375 -37.859375 L 32.234375 -29.765625 L 17.234375 -9.984375 L 32.96875 -9.984375 Z M 32.96875 0 "/></g></g></g><path stroke-linecap="round" transform="matrix(0.686667, 0.302229, -0.302134, 0.686451, 272.731709, 286.867045)" fill="none" stroke-linejoin="miter" d="M 5.501185 5.499338 L 1485.032162 5.498688 " stroke="#000000" stroke-width="11" stroke-opacity="1" stroke-miterlimit="4"/><path stroke-linecap="round" transform="matrix(0.649411, -0.375495, 0.375418, 0.649278, 433.852196, 921.560589)" fill="none" stroke-linejoin="miter" d="M 5.499448 5.499699 L 829.588169 5.498987 " stroke="#1e76e9" stroke-width="11" stroke-opacity="1" stroke-miterlimit="4"/><path stroke-linecap="round" transform="matrix(0.649411, -0.375495, 0.375418, 0.649278, 433.852196, 921.560589)" fill="none" stroke-linejoin="round" d="M 810.338155 -11.000355 L 832.340935 5.502681 L 810.340534 22.000435 " stroke="#1e76e9" stroke-width="11" stroke-opacity="1" stroke-miterlimit="4"/><path stroke-linecap="round" transform="matrix(0.726535, -0.184894, 0.18497, 0.726833, 433.17914, 921.136245)" fill="none" stroke-linejoin="miter" d="M 5.4986 5.500029 L 1098.206264 5.500208 " stroke="#1e76e9" stroke-width="11" stroke-opacity="1" stroke-miterlimit="4"/><path stroke-linecap="round" transform="matrix(0.726535, -0.184894, 0.18497, 0.726833, 433.17914, 921.136245)" fill="none" stroke-linejoin="round" d="M 1078.954662 -11.000287 L 1100.953624 5.500426 L 1078.956916 21.998757 " stroke="#1e76e9" stroke-width="11" stroke-opacity="1" stroke-miterlimit="4"/><path stroke-linecap="round" transform="matrix(0.595481, -0.455285, 0.455536, 0.595808, 428.637956, 920.960877)" fill="none" stroke-linejoin="miter" d="M 7.000458 7.001651 L 756.933461 7.001191 " stroke="#5e17eb" stroke-width="14" stroke-opacity="1" stroke-miterlimit="4"/><path stroke-linecap="round" transform="matrix(0.595481, -0.455285, 0.455536, 0.595808, 428.637956, 920.960877)" fill="none" stroke-linejoin="round" d="M 732.434219 -14.001403 L 760.431386 6.999182 L 732.431799 28.002462 " stroke="#5e17eb" stroke-width="14" stroke-opacity="1" stroke-miterlimit="4"/><path stroke-linecap="round" transform="matrix(0.685135, 0.311317, -0.310263, 0.682815, 904.074339, 563.574075)" fill="none" stroke-linejoin="miter" d="M 5.501348 5.501093 L 111.342202 5.499886 " stroke="#1e76e9" stroke-width="11" stroke-opacity="1" stroke-miterlimit="4"/><path stroke-linecap="round" transform="matrix(0.685135, 0.311317, -0.310263, 0.682815, 904.074339, 563.574075)" fill="none" stroke-linejoin="round" d="M 92.096771 -11.000014 L 114.094986 5.497661 L 92.091614 21.999911 " stroke="#1e76e9" stroke-width="11" stroke-opacity="1" stroke-miterlimit="4"/><g clip-path="url(#95cb015a8b)"><g clip-path="url(#69e171ff5d)"><path fill="#cc0829" d="M 886.292969 553.808594 L 913.328125 553.808594 L 913.328125 580.847656 L 886.292969 580.847656 Z M 886.292969 553.808594 " fill-opacity="1" fill-rule="nonzero"/></g></g><g fill="#222222" fill-opacity="1"><g transform="translate(748.299161, 651.145402)"><g><path d="M 4.25 0 L 4.25 -36.34375 L 16.796875 -36.34375 L 16.796875 -31.109375 L 16.9375 -31.109375 C 17.03125 -31.296875 17.179688 -31.53125 17.390625 -31.8125 C 17.609375 -32.09375 18.070312 -32.585938 18.78125 -33.296875 C 19.488281 -34.003906 20.242188 -34.640625 21.046875 -35.203125 C 21.847656 -35.773438 22.882812 -36.285156 24.15625 -36.734375 C 25.4375 -37.179688 26.738281 -37.40625 28.0625 -37.40625 C 29.425781 -37.40625 30.769531 -37.21875 32.09375 -36.84375 C 33.414062 -36.46875 34.382812 -36.09375 35 -35.71875 L 36 -35.140625 L 30.75 -24.515625 C 29.195312 -25.835938 27.023438 -26.5 24.234375 -26.5 C 22.722656 -26.5 21.421875 -26.164062 20.328125 -25.5 C 19.242188 -24.84375 18.476562 -24.039062 18.03125 -23.09375 C 17.582031 -22.15625 17.265625 -21.351562 17.078125 -20.6875 C 16.890625 -20.03125 16.796875 -19.507812 16.796875 -19.125 L 16.796875 0 Z M 4.25 0 "/></g></g></g><g clip-path="url(#676f849ba5)"><path fill="#222222" d="M 798.148438 592.8125 C 797.96875 591.984375 797.40625 591.136719 797.480469 590.46875 C 797.757812 588.050781 796.308594 587.320312 794.492188 586.714844 C 786.835938 584.152344 779.039062 582.183594 771.019531 581.207031 C 768.148438 580.855469 767.441406 581.632812 768.074219 584.46875 C 768.15625 584.820312 768.289062 585.160156 768.382812 585.511719 C 768.699219 586.691406 769.574219 587.234375 770.652344 587.03125 C 771.710938 586.832031 772.660156 587.085938 773.625 587.28125 C 776.097656 587.777344 778.550781 588.351562 781.011719 588.898438 C 781.085938 589.03125 781.097656 589.167969 781.046875 589.3125 C 778.390625 589.542969 775.738281 589.859375 773.082031 589.980469 C 766.265625 590.285156 759.566406 591.933594 752.671875 591.609375 C 749.390625 591.460938 746.0625 592.007812 742.785156 592.480469 C 740.210938 592.855469 737.597656 592.660156 735.050781 593.207031 C 733.753906 593.480469 733.511719 593.816406 734.277344 594.882812 C 735.796875 597.011719 737.386719 599.128906 740.535156 598.445312 C 741.089844 598.324219 741.683594 598.386719 742.261719 598.324219 C 747.636719 597.777344 753.03125 597.472656 758.417969 597.128906 C 764.242188 596.753906 770.0625 596.355469 775.886719 595.953125 C 777.828125 595.820312 779.765625 595.636719 781.898438 595.460938 C 781.304688 596.425781 780.53125 596.707031 779.898438 597.144531 C 777.75 598.625 775.839844 600.386719 773.871094 602.085938 C 770.859375 604.675781 772.148438 608.128906 773.617188 610.25 C 773.894531 610.648438 774.246094 610.871094 774.628906 610.332031 C 775.789062 608.695312 777.515625 607.726562 779.097656 606.609375 C 783.632812 603.398438 788.386719 600.523438 793.140625 597.652344 C 794.375 596.902344 795.617188 596.164062 796.855469 595.441406 C 797.867188 594.851562 798.449219 594.214844 798.148438 592.8125 Z M 781.890625 589.003906 C 781.925781 588.984375 781.960938 588.980469 781.996094 588.949219 C 781.972656 588.980469 781.945312 588.996094 781.914062 589.015625 C 781.910156 589.015625 781.902344 589.007812 781.890625 589.003906 Z M 781.890625 589.003906 " fill-opacity="1" fill-rule="nonzero"/></g><g fill="#222222" fill-opacity="1"><g transform="translate(913.531251, 716.21175)"><g><path d="M 3.40625 0 L 3.40625 -29.078125 L 13.4375 -29.078125 L 13.4375 -24.890625 L 13.546875 -24.890625 C 13.617188 -25.035156 13.738281 -25.222656 13.90625 -25.453125 C 14.082031 -25.679688 14.453125 -26.078125 15.015625 -26.640625 C 15.585938 -27.210938 16.191406 -27.722656 16.828125 -28.171875 C 17.472656 -28.628906 18.304688 -29.035156 19.328125 -29.390625 C 20.347656 -29.753906 21.390625 -29.9375 22.453125 -29.9375 C 23.546875 -29.9375 24.617188 -29.785156 25.671875 -29.484375 C 26.734375 -29.179688 27.507812 -28.878906 28 -28.578125 L 28.796875 -28.109375 L 24.609375 -19.609375 C 23.359375 -20.671875 21.617188 -21.203125 19.390625 -21.203125 C 18.179688 -21.203125 17.140625 -20.9375 16.265625 -20.40625 C 15.398438 -19.875 14.785156 -19.226562 14.421875 -18.46875 C 14.066406 -17.71875 13.8125 -17.078125 13.65625 -16.546875 C 13.507812 -16.023438 13.4375 -15.613281 13.4375 -15.3125 L 13.4375 0 Z M 3.40625 0 "/></g></g></g><g clip-path="url(#81d8f4a42d)"><path fill="#222222" d="M 951.964844 672.621094 C 951.832031 672 951.402344 671.363281 951.457031 670.863281 C 951.671875 669.046875 950.570312 668.5 949.191406 668.046875 C 943.382812 666.125 937.46875 664.648438 931.382812 663.914062 C 929.207031 663.652344 928.671875 664.234375 929.152344 666.363281 C 929.210938 666.625 929.3125 666.882812 929.386719 667.144531 C 929.625 668.03125 930.289062 668.4375 931.105469 668.285156 C 931.910156 668.132812 932.628906 668.324219 933.359375 668.46875 C 935.238281 668.839844 937.097656 669.273438 938.964844 669.683594 C 939.023438 669.78125 939.03125 669.886719 938.992188 669.996094 C 936.976562 670.167969 934.964844 670.40625 932.949219 670.496094 C 927.777344 670.722656 922.695312 671.960938 917.464844 671.71875 C 914.976562 671.605469 912.449219 672.015625 909.964844 672.371094 C 908.011719 672.652344 906.03125 672.503906 904.097656 672.914062 C 903.113281 673.121094 902.929688 673.371094 903.511719 674.171875 C 904.664062 675.769531 905.871094 677.359375 908.257812 676.84375 C 908.679688 676.753906 909.128906 676.800781 909.566406 676.753906 C 913.644531 676.34375 917.738281 676.113281 921.824219 675.855469 C 926.242188 675.574219 930.660156 675.277344 935.078125 674.972656 C 936.550781 674.875 938.019531 674.738281 939.636719 674.605469 C 939.1875 675.328125 938.601562 675.539062 938.121094 675.867188 C 936.492188 676.976562 935.042969 678.300781 933.546875 679.574219 C 931.261719 681.515625 932.242188 684.109375 933.355469 685.695312 C 933.5625 685.996094 933.832031 686.164062 934.125 685.757812 C 935.003906 684.53125 936.3125 683.804688 937.511719 682.96875 C 940.953125 680.558594 944.5625 678.402344 948.167969 676.246094 C 949.105469 675.6875 950.042969 675.132812 950.984375 674.589844 C 951.753906 674.148438 952.195312 673.667969 951.964844 672.621094 Z M 939.632812 669.761719 C 939.660156 669.75 939.683594 669.742188 939.710938 669.722656 C 939.695312 669.742188 939.671875 669.757812 939.648438 669.769531 C 939.644531 669.769531 939.640625 669.765625 939.632812 669.761719 Z M 939.632812 669.761719 " fill-opacity="1" fill-rule="nonzero"/></g><g fill="#222222" fill-opacity="1"><g transform="translate(968.345446, 697.29228)"><g><path d="M 8.703125 -23.484375 L 14.421875 -10.703125 L 20.140625 -23.484375 L 29.75 -23.484375 L 17.15625 0 L 11.671875 0 L -0.921875 -23.484375 Z M 8.703125 -23.484375 "/></g></g></g><g clip-path="url(#698ba2d549)"><path fill="#222222" d="M 1003.898438 657.058594 C 1003.792969 656.558594 1003.445312 656.050781 1003.492188 655.652344 C 1003.664062 654.199219 1002.777344 653.761719 1001.671875 653.398438 C 997.007812 651.863281 992.261719 650.679688 987.378906 650.09375 C 985.632812 649.882812 985.199219 650.347656 985.585938 652.050781 C 985.636719 652.261719 985.714844 652.464844 985.773438 652.675781 C 985.964844 653.386719 986.496094 653.710938 987.15625 653.589844 C 987.800781 653.46875 988.375 653.621094 988.964844 653.738281 C 990.472656 654.035156 991.964844 654.378906 993.464844 654.707031 C 993.507812 654.789062 993.515625 654.871094 993.484375 654.957031 C 991.867188 655.09375 990.253906 655.285156 988.632812 655.359375 C 984.484375 655.539062 980.40625 656.527344 976.207031 656.335938 C 974.207031 656.246094 972.179688 656.574219 970.1875 656.855469 C 968.617188 657.082031 967.027344 656.964844 965.476562 657.292969 C 964.683594 657.457031 964.539062 657.660156 965.003906 658.296875 C 965.929688 659.578125 966.898438 660.847656 968.816406 660.4375 C 969.152344 660.363281 969.515625 660.402344 969.867188 660.363281 C 973.140625 660.035156 976.425781 659.851562 979.707031 659.644531 C 983.25 659.421875 986.796875 659.183594 990.34375 658.941406 C 991.527344 658.859375 992.707031 658.75 994.003906 658.648438 C 993.640625 659.222656 993.171875 659.394531 992.785156 659.65625 C 991.476562 660.542969 990.316406 661.601562 989.113281 662.621094 C 987.28125 664.175781 988.066406 666.246094 988.960938 667.519531 C 989.128906 667.757812 989.34375 667.890625 989.578125 667.566406 C 990.285156 666.585938 991.335938 666.003906 992.296875 665.335938 C 995.0625 663.40625 997.957031 661.683594 1000.851562 659.960938 C 1001.601562 659.511719 1002.359375 659.070312 1003.113281 658.632812 C 1003.726562 658.28125 1004.082031 657.898438 1003.898438 657.058594 Z M 994 654.769531 C 994.019531 654.761719 994.042969 654.757812 994.0625 654.738281 C 994.046875 654.757812 994.03125 654.765625 994.011719 654.777344 C 994.011719 654.777344 994.007812 654.773438 994 654.769531 Z M 994 654.769531 " fill-opacity="1" fill-rule="nonzero"/></g><g fill="#222222" fill-opacity="1"><g transform="translate(945.276504, 716.702556)"><g><path d="M 2.875 -17.546875 L 18.3125 -17.546875 L 18.3125 -10.21875 L 2.875 -10.21875 Z M 2.875 -17.546875 "/></g></g></g><g fill="#222222" fill-opacity="1"><g transform="translate(971.450926, 736.553928)"><g><path d="M 12.265625 -23 C 11.359375 -23 10.492188 -22.554688 9.671875 -21.671875 C 8.859375 -20.785156 8.257812 -19.898438 7.875 -19.015625 L 7.296875 -17.703125 L 2 -20.265625 C 2.0625 -20.492188 2.171875 -20.785156 2.328125 -21.140625 C 2.484375 -21.503906 2.851562 -22.148438 3.4375 -23.078125 C 4.03125 -24.015625 4.679688 -24.835938 5.390625 -25.546875 C 6.097656 -26.265625 7.066406 -26.914062 8.296875 -27.5 C 9.523438 -28.082031 10.847656 -28.375 12.265625 -28.375 C 14.085938 -28.375 15.679688 -28.140625 17.046875 -27.671875 C 18.410156 -27.210938 19.460938 -26.640625 20.203125 -25.953125 C 20.941406 -25.273438 21.539062 -24.46875 22 -23.53125 C 22.46875 -22.59375 22.765625 -21.738281 22.890625 -20.96875 C 23.015625 -20.207031 23.078125 -19.410156 23.078125 -18.578125 C 23.078125 -17.359375 22.738281 -16.078125 22.0625 -14.734375 C 21.382812 -13.398438 20.566406 -12.207031 19.609375 -11.15625 C 18.648438 -10.113281 17.6875 -9.160156 16.71875 -8.296875 C 15.75 -7.429688 14.925781 -6.757812 14.25 -6.28125 L 13.25 -5.578125 L 23.578125 -5.578125 L 23.578125 0 L 1.859375 0 L 1.859375 -1.59375 C 2.242188 -1.90625 2.757812 -2.335938 3.40625 -2.890625 C 4.0625 -3.441406 5.210938 -4.492188 6.859375 -6.046875 C 8.503906 -7.597656 9.957031 -9.054688 11.21875 -10.421875 C 12.476562 -11.785156 13.625 -13.242188 14.65625 -14.796875 C 15.695312 -16.347656 16.21875 -17.609375 16.21875 -18.578125 C 16.21875 -18.960938 16.175781 -19.34375 16.09375 -19.71875 C 16.019531 -20.101562 15.867188 -20.570312 15.640625 -21.125 C 15.410156 -21.675781 15.003906 -22.125 14.421875 -22.46875 C 13.835938 -22.820312 13.117188 -23 12.265625 -23 Z M 12.265625 -23 "/></g></g></g><g fill="#222222" fill-opacity="1"><g transform="translate(454.61013, 524.04079)"><g><path d="M 3.40625 0 L 3.40625 -29.078125 L 13.4375 -29.078125 L 13.4375 -24.890625 L 13.546875 -24.890625 C 13.617188 -25.035156 13.738281 -25.222656 13.90625 -25.453125 C 14.082031 -25.679688 14.453125 -26.078125 15.015625 -26.640625 C 15.585938 -27.210938 16.191406 -27.722656 16.828125 -28.171875 C 17.472656 -28.628906 18.304688 -29.035156 19.328125 -29.390625 C 20.347656 -29.753906 21.390625 -29.9375 22.453125 -29.9375 C 23.546875 -29.9375 24.617188 -29.785156 25.671875 -29.484375 C 26.734375 -29.179688 27.507812 -28.878906 28 -28.578125 L 28.796875 -28.109375 L 24.609375 -19.609375 C 23.359375 -20.671875 21.617188 -21.203125 19.390625 -21.203125 C 18.179688 -21.203125 17.140625 -20.9375 16.265625 -20.40625 C 15.398438 -19.875 14.785156 -19.226562 14.421875 -18.46875 C 14.066406 -17.71875 13.8125 -17.078125 13.65625 -16.546875 C 13.507812 -16.023438 13.4375 -15.613281 13.4375 -15.3125 L 13.4375 0 Z M 3.40625 0 "/></g></g></g><g clip-path="url(#d3cf63d1ce)"><path fill="#222222" d="M 500.800781 471.367188 C 500.667969 470.742188 500.238281 470.109375 500.292969 469.609375 C 500.507812 467.792969 499.40625 467.246094 498.027344 466.792969 C 492.21875 464.871094 486.304688 463.394531 480.21875 462.660156 C 478.042969 462.394531 477.507812 462.980469 477.988281 465.109375 C 478.046875 465.371094 478.148438 465.625 478.222656 465.890625 C 478.460938 466.773438 479.121094 467.179688 479.941406 467.03125 C 480.746094 466.878906 481.464844 467.070312 482.195312 467.214844 C 484.074219 467.585938 485.933594 468.019531 487.800781 468.429688 C 487.855469 468.527344 487.867188 468.632812 487.828125 468.738281 C 485.8125 468.914062 483.800781 469.152344 481.785156 469.242188 C 476.613281 469.46875 471.53125 470.707031 466.300781 470.464844 C 463.8125 470.351562 461.285156 470.761719 458.800781 471.117188 C 456.847656 471.394531 454.867188 471.25 452.933594 471.660156 C 451.949219 471.867188 451.765625 472.117188 452.347656 472.917969 C 453.5 474.515625 454.707031 476.101562 457.09375 475.589844 C 457.515625 475.5 457.964844 475.546875 458.402344 475.5 C 462.480469 475.089844 466.574219 474.859375 470.660156 474.601562 C 475.078125 474.320312 479.496094 474.023438 483.914062 473.71875 C 485.386719 473.621094 486.855469 473.480469 488.472656 473.351562 C 488.023438 474.074219 487.4375 474.285156 486.957031 474.613281 C 485.324219 475.722656 483.878906 477.042969 482.382812 478.320312 C 480.097656 480.261719 481.078125 482.851562 482.191406 484.441406 C 482.398438 484.742188 482.667969 484.910156 482.960938 484.503906 C 483.839844 483.277344 485.148438 482.550781 486.347656 481.714844 C 489.789062 479.304688 493.398438 477.148438 497.003906 474.992188 C 497.941406 474.433594 498.878906 473.878906 499.820312 473.335938 C 500.589844 472.894531 501.03125 472.414062 500.800781 471.367188 Z M 488.46875 468.507812 C 488.496094 468.492188 488.519531 468.488281 488.546875 468.46875 C 488.53125 468.488281 488.507812 468.503906 488.484375 468.515625 C 488.480469 468.515625 488.476562 468.511719 488.46875 468.507812 Z M 488.46875 468.507812 " fill-opacity="1" fill-rule="nonzero"/></g><g fill="#222222" fill-opacity="1"><g transform="translate(539.141891, 523.222771)"><g><path d="M 9.734375 -26.28125 L 16.140625 -11.984375 L 22.53125 -26.28125 L 33.296875 -26.28125 L 19.203125 0 L 13.0625 0 L -1.03125 -26.28125 Z M 9.734375 -26.28125 "/></g></g></g><g clip-path="url(#a74e4b14fb)"><path fill="#222222" d="M 559.460938 471.964844 C 559.316406 471.300781 558.863281 470.625 558.921875 470.089844 C 559.144531 468.15625 557.980469 467.570312 556.515625 467.085938 C 550.355469 465.035156 544.085938 463.460938 537.628906 462.675781 C 535.320312 462.394531 534.75 463.019531 535.261719 465.289062 C 535.324219 465.570312 535.429688 465.84375 535.507812 466.125 C 535.761719 467.066406 536.464844 467.5 537.335938 467.339844 C 538.183594 467.179688 538.949219 467.378906 539.726562 467.539062 C 541.714844 467.933594 543.6875 468.394531 545.671875 468.832031 C 545.730469 468.9375 545.738281 469.046875 545.699219 469.164062 C 543.558594 469.347656 541.425781 469.601562 539.289062 469.699219 C 533.804688 469.941406 528.414062 471.257812 522.867188 471 C 520.226562 470.882812 517.546875 471.320312 514.910156 471.695312 C 512.835938 471.996094 510.738281 471.839844 508.6875 472.277344 C 507.640625 472.5 507.449219 472.765625 508.066406 473.617188 C 509.289062 475.324219 510.566406 477.015625 513.101562 476.46875 C 513.546875 476.371094 514.023438 476.421875 514.488281 476.371094 C 518.816406 475.933594 523.15625 475.691406 527.492188 475.414062 C 532.175781 475.113281 536.859375 474.796875 541.546875 474.476562 C 543.109375 474.367188 544.667969 474.222656 546.382812 474.082031 C 545.90625 474.851562 545.285156 475.078125 544.773438 475.429688 C 543.046875 476.613281 541.507812 478.023438 539.921875 479.378906 C 537.5 481.453125 538.539062 484.21875 539.722656 485.914062 C 539.941406 486.230469 540.226562 486.410156 540.535156 485.976562 C 541.46875 484.667969 542.855469 483.894531 544.128906 483 C 547.78125 480.429688 551.605469 478.132812 555.429688 475.832031 C 556.425781 475.234375 557.421875 474.644531 558.421875 474.066406 C 559.234375 473.59375 559.703125 473.082031 559.460938 471.964844 Z M 546.378906 468.914062 C 546.40625 468.902344 546.433594 468.894531 546.460938 468.875 C 546.441406 468.894531 546.417969 468.910156 546.398438 468.925781 C 546.390625 468.925781 546.386719 468.917969 546.378906 468.914062 Z M 546.378906 468.914062 " fill-opacity="1" fill-rule="nonzero"/></g><g fill="#222222" fill-opacity="1"><g transform="translate(478.892248, 531.604516)"><g><path d="M 18.84375 -7.578125 L 11.515625 -7.578125 L 11.515625 -16.203125 L 2.875 -16.203125 L 2.875 -23.546875 L 11.515625 -23.546875 L 11.515625 -32.171875 L 18.84375 -32.171875 L 18.84375 -23.546875 L 27.484375 -23.546875 L 27.484375 -16.203125 L 18.84375 -16.203125 Z M 18.84375 -7.578125 "/></g></g></g><g fill="#222222" fill-opacity="1"><g transform="translate(509.417643, 523.478723)"><g><path d="M 14.234375 -26.703125 C 13.191406 -26.703125 12.191406 -26.1875 11.234375 -25.15625 C 10.273438 -24.125 9.578125 -23.097656 9.140625 -22.078125 L 8.46875 -20.546875 L 2.3125 -23.53125 C 2.394531 -23.789062 2.523438 -24.128906 2.703125 -24.546875 C 2.890625 -24.960938 3.320312 -25.710938 4 -26.796875 C 4.675781 -27.890625 5.425781 -28.847656 6.25 -29.671875 C 7.070312 -30.492188 8.195312 -31.242188 9.625 -31.921875 C 11.050781 -32.597656 12.585938 -32.9375 14.234375 -32.9375 C 16.347656 -32.9375 18.195312 -32.664062 19.78125 -32.125 C 21.363281 -31.59375 22.585938 -30.925781 23.453125 -30.125 C 24.316406 -29.332031 25.015625 -28.394531 25.546875 -27.3125 C 26.085938 -26.226562 26.425781 -25.238281 26.5625 -24.34375 C 26.707031 -23.457031 26.78125 -22.53125 26.78125 -21.5625 C 26.78125 -20.15625 26.390625 -18.671875 25.609375 -17.109375 C 24.828125 -15.554688 23.878906 -14.171875 22.765625 -12.953125 C 21.648438 -11.742188 20.53125 -10.632812 19.40625 -9.625 C 18.289062 -8.625 17.335938 -7.847656 16.546875 -7.296875 L 15.375 -6.46875 L 27.375 -6.46875 L 27.375 0 L 2.15625 0 L 2.15625 -1.84375 C 2.601562 -2.207031 3.203125 -2.707031 3.953125 -3.34375 C 4.710938 -3.988281 6.046875 -5.210938 7.953125 -7.015625 C 9.867188 -8.816406 11.554688 -10.507812 13.015625 -12.09375 C 14.484375 -13.675781 15.816406 -15.367188 17.015625 -17.171875 C 18.222656 -18.984375 18.828125 -20.445312 18.828125 -21.5625 C 18.828125 -22.007812 18.78125 -22.457031 18.6875 -22.90625 C 18.59375 -23.351562 18.414062 -23.894531 18.15625 -24.53125 C 17.894531 -25.164062 17.425781 -25.6875 16.75 -26.09375 C 16.070312 -26.5 15.234375 -26.703125 14.234375 -26.703125 Z M 14.234375 -26.703125 "/></g></g></g><g fill="#222222" fill-opacity="1"><g transform="translate(975.505965, 701.000715)"><g><path d="M 0 0.5 L 17.328125 0.5 L 17.328125 3.375 L 0 3.375 Z M 0 0.5 "/></g></g></g><g fill="#222222" fill-opacity="1"><g transform="translate(1122.873801, 825.809804)"><g><path d="M 3.40625 0 L 3.40625 -29.078125 L 13.4375 -29.078125 L 13.4375 -24.890625 L 13.546875 -24.890625 C 13.617188 -25.035156 13.738281 -25.222656 13.90625 -25.453125 C 14.082031 -25.679688 14.453125 -26.078125 15.015625 -26.640625 C 15.585938 -27.210938 16.191406 -27.722656 16.828125 -28.171875 C 17.472656 -28.628906 18.304688 -29.035156 19.328125 -29.390625 C 20.347656 -29.753906 21.390625 -29.9375 22.453125 -29.9375 C 23.546875 -29.9375 24.617188 -29.785156 25.671875 -29.484375 C 26.734375 -29.179688 27.507812 -28.878906 28 -28.578125 L 28.796875 -28.109375 L 24.609375 -19.609375 C 23.359375 -20.671875 21.617188 -21.203125 19.390625 -21.203125 C 18.179688 -21.203125 17.140625 -20.9375 16.265625 -20.40625 C 15.398438 -19.875 14.785156 -19.226562 14.421875 -18.46875 C 14.066406 -17.71875 13.8125 -17.078125 13.65625 -16.546875 C 13.507812 -16.023438 13.4375 -15.613281 13.4375 -15.3125 L 13.4375 0 Z M 3.40625 0 "/></g></g></g><g clip-path="url(#2babe360c3)"><path fill="#222222" d="M 1169.066406 773.136719 C 1168.929688 772.511719 1168.5 771.878906 1168.558594 771.378906 C 1168.769531 769.5625 1167.667969 769.015625 1166.289062 768.5625 C 1160.480469 766.640625 1154.570312 765.164062 1148.484375 764.429688 C 1146.308594 764.164062 1145.769531 764.75 1146.25 766.878906 C 1146.3125 767.140625 1146.410156 767.394531 1146.484375 767.660156 C 1146.722656 768.542969 1147.386719 768.949219 1148.207031 768.800781 C 1149.007812 768.648438 1149.726562 768.835938 1150.460938 768.984375 C 1152.335938 769.355469 1154.195312 769.789062 1156.066406 770.199219 C 1156.121094 770.296875 1156.128906 770.402344 1156.089844 770.507812 C 1154.074219 770.683594 1152.0625 770.917969 1150.046875 771.011719 C 1144.875 771.238281 1139.796875 772.472656 1134.566406 772.230469 C 1132.078125 772.121094 1129.550781 772.53125 1127.066406 772.882812 C 1125.109375 773.164062 1123.128906 773.019531 1121.195312 773.429688 C 1120.210938 773.636719 1120.03125 773.886719 1120.609375 774.683594 C 1121.765625 776.28125 1122.96875 777.871094 1125.359375 777.359375 C 1125.777344 777.269531 1126.230469 777.316406 1126.667969 777.269531 C 1130.746094 776.859375 1134.835938 776.628906 1138.925781 776.371094 C 1143.34375 776.089844 1147.757812 775.789062 1152.175781 775.488281 C 1153.648438 775.390625 1155.121094 775.25 1156.738281 775.121094 C 1156.285156 775.84375 1155.699219 776.054688 1155.21875 776.382812 C 1153.589844 777.492188 1152.140625 778.8125 1150.644531 780.085938 C 1148.363281 782.03125 1149.339844 784.621094 1150.457031 786.210938 C 1150.664062 786.507812 1150.933594 786.679688 1151.222656 786.273438 C 1152.101562 785.046875 1153.410156 784.320312 1154.613281 783.480469 C 1158.054688 781.074219 1161.660156 778.917969 1165.265625 776.761719 C 1166.203125 776.199219 1167.144531 775.648438 1168.085938 775.105469 C 1168.851562 774.664062 1169.292969 774.183594 1169.066406 773.136719 Z M 1156.730469 770.277344 C 1156.757812 770.261719 1156.785156 770.257812 1156.808594 770.238281 C 1156.792969 770.257812 1156.769531 770.273438 1156.75 770.285156 C 1156.746094 770.285156 1156.742188 770.28125 1156.730469 770.277344 Z M 1156.730469 770.277344 " fill-opacity="1" fill-rule="nonzero"/></g><g fill="#222222" fill-opacity="1"><g transform="translate(1211.844649, 824.991665)"><g><path d="M 9.734375 -26.28125 L 16.140625 -11.984375 L 22.53125 -26.28125 L 33.296875 -26.28125 L 19.203125 0 L 13.0625 0 L -1.03125 -26.28125 Z M 9.734375 -26.28125 "/></g></g></g><g clip-path="url(#b0803f7787)"><path fill="#222222" d="M 1227.722656 773.734375 C 1227.582031 773.070312 1227.125 772.394531 1227.183594 771.859375 C 1227.410156 769.921875 1226.242188 769.339844 1224.78125 768.855469 C 1218.621094 766.804688 1212.347656 765.230469 1205.890625 764.445312 C 1203.585938 764.164062 1203.015625 764.789062 1203.523438 767.058594 C 1203.589844 767.339844 1203.695312 767.609375 1203.773438 767.890625 C 1204.027344 768.835938 1204.730469 769.269531 1205.597656 769.109375 C 1206.449219 768.945312 1207.210938 769.148438 1207.988281 769.304688 C 1209.980469 769.703125 1211.953125 770.164062 1213.933594 770.601562 C 1213.992188 770.707031 1214.003906 770.816406 1213.960938 770.933594 C 1211.824219 771.117188 1209.691406 771.371094 1207.550781 771.464844 C 1202.066406 771.710938 1196.679688 773.027344 1191.128906 772.769531 C 1188.488281 772.652344 1185.808594 773.089844 1183.175781 773.464844 C 1181.101562 773.765625 1179 773.609375 1176.949219 774.046875 C 1175.90625 774.265625 1175.710938 774.535156 1176.328125 775.386719 C 1177.550781 777.089844 1178.832031 778.785156 1181.363281 778.238281 C 1181.808594 778.140625 1182.289062 778.191406 1182.753906 778.140625 C 1187.078125 777.703125 1191.417969 777.460938 1195.753906 777.183594 C 1200.441406 776.882812 1205.125 776.566406 1209.808594 776.242188 C 1211.375 776.136719 1212.933594 775.992188 1214.648438 775.851562 C 1214.167969 776.621094 1213.546875 776.847656 1213.039062 777.195312 C 1211.308594 778.382812 1209.773438 779.789062 1208.1875 781.148438 C 1205.765625 783.222656 1206.804688 785.988281 1207.984375 787.683594 C 1208.207031 788 1208.492188 788.179688 1208.796875 787.746094 C 1209.730469 786.4375 1211.121094 785.664062 1212.394531 784.769531 C 1216.042969 782.199219 1219.871094 779.902344 1223.695312 777.601562 C 1224.6875 777.003906 1225.6875 776.414062 1226.683594 775.832031 C 1227.496094 775.363281 1227.964844 774.851562 1227.722656 773.734375 Z M 1214.640625 770.683594 C 1214.667969 770.667969 1214.699219 770.664062 1214.726562 770.640625 C 1214.707031 770.664062 1214.683594 770.679688 1214.660156 770.691406 C 1214.65625 770.691406 1214.652344 770.6875 1214.640625 770.683594 Z M 1214.640625 770.683594 " fill-opacity="1" fill-rule="nonzero"/></g><g fill="#222222" fill-opacity="1"><g transform="translate(1152.03555, 828.659619)"><g><path d="M 2.875 -17.546875 L 18.3125 -17.546875 L 18.3125 -10.21875 L 2.875 -10.21875 Z M 2.875 -17.546875 "/></g></g></g><g fill="#222222" fill-opacity="1"><g transform="translate(1175.541604, 822.011978)"><g><path d="M 28.90625 -5.953125 C 29.375 -5.953125 29.910156 -6.015625 30.515625 -6.140625 C 31.117188 -6.273438 31.65625 -6.457031 32.125 -6.6875 L 32.125 -1.09375 C 31.414062 -0.65625 30.476562 -0.289062 29.3125 0 C 28.144531 0.28125 26.988281 0.421875 25.84375 0.421875 C 23.445312 0.421875 21.675781 -0.207031 20.53125 -1.46875 C 19.394531 -2.738281 18.828125 -4.6875 18.828125 -7.3125 L 18.828125 -17.46875 L 13.59375 -17.46875 L 13.59375 0 L 5.484375 0 L 5.484375 -17.46875 L 0.484375 -17.46875 L 0.484375 -20.921875 L 4.625 -23.515625 L 32.125 -23.515625 L 32.125 -17.46875 L 26.9375 -17.46875 L 26.9375 -8.203125 C 26.9375 -7.492188 27.109375 -6.941406 27.453125 -6.546875 C 27.796875 -6.148438 28.28125 -5.953125 28.90625 -5.953125 Z M 28.90625 -5.953125 "/></g></g></g><g fill="#cc0829" fill-opacity="1"><g transform="translate(886.291133, 535.493244)"><g><path d="M 40.71875 -33.3125 C 40.71875 -27.851562 39.109375 -23.632812 35.890625 -20.65625 C 32.679688 -17.6875 28.113281 -16.203125 22.1875 -16.203125 L 18.46875 -16.203125 L 18.46875 0 L 5.28125 0 L 5.28125 -48.84375 L 22.1875 -48.84375 C 28.351562 -48.84375 32.984375 -47.492188 36.078125 -44.796875 C 39.171875 -42.109375 40.71875 -38.28125 40.71875 -33.3125 Z M 18.46875 -26.96875 L 20.875 -26.96875 C 22.863281 -26.96875 24.441406 -27.519531 25.609375 -28.625 C 26.773438 -29.738281 27.359375 -31.273438 27.359375 -33.234375 C 27.359375 -36.535156 25.535156 -38.1875 21.890625 -38.1875 L 18.46875 -38.1875 Z M 18.46875 -26.96875 "/></g></g></g><g fill="#222222" fill-opacity="1"><g transform="translate(942.248328, 544.306534)"><g><path d="M 6.5625 -17.71875 L 10.875 -8.078125 L 15.203125 -17.71875 L 22.453125 -17.71875 L 12.953125 0 L 8.8125 0 L -0.6875 -17.71875 Z M 6.5625 -17.71875 "/></g></g></g><g fill="#222222" fill-opacity="1"><g transform="translate(924.832634, 558.960151)"><g><path d="M 2.171875 -13.25 L 13.828125 -13.25 L 13.828125 -7.71875 L 2.171875 -7.71875 Z M 2.171875 -13.25 "/></g></g></g><g fill="#222222" fill-opacity="1"><g transform="translate(943.533816, 575.51836)"><g><path d="M 9.25 -17.359375 C 8.570312 -17.359375 7.921875 -17.019531 7.296875 -16.34375 C 6.679688 -15.675781 6.226562 -15.015625 5.9375 -14.359375 L 5.515625 -13.359375 L 1.5 -15.296875 C 1.550781 -15.472656 1.632812 -15.695312 1.75 -15.96875 C 1.875 -16.238281 2.15625 -16.722656 2.59375 -17.421875 C 3.039062 -18.128906 3.53125 -18.75 4.0625 -19.28125 C 4.601562 -19.820312 5.335938 -20.3125 6.265625 -20.75 C 7.191406 -21.195312 8.1875 -21.421875 9.25 -21.421875 C 10.632812 -21.421875 11.835938 -21.242188 12.859375 -20.890625 C 13.890625 -20.546875 14.6875 -20.113281 15.25 -19.59375 C 15.8125 -19.070312 16.265625 -18.457031 16.609375 -17.75 C 16.960938 -17.050781 17.1875 -16.410156 17.28125 -15.828125 C 17.375 -15.253906 17.421875 -14.65625 17.421875 -14.03125 C 17.421875 -13.101562 17.164062 -12.132812 16.65625 -11.125 C 16.144531 -10.113281 15.523438 -9.210938 14.796875 -8.421875 C 14.078125 -7.628906 13.351562 -6.90625 12.625 -6.25 C 11.894531 -5.601562 11.273438 -5.101562 10.765625 -4.75 L 10 -4.203125 L 17.796875 -4.203125 L 17.796875 0 L 1.40625 0 L 1.40625 -1.203125 C 1.695312 -1.441406 2.085938 -1.769531 2.578125 -2.1875 C 3.066406 -2.601562 3.929688 -3.394531 5.171875 -4.5625 C 6.410156 -5.738281 7.503906 -6.835938 8.453125 -7.859375 C 9.410156 -8.890625 10.28125 -9.988281 11.0625 -11.15625 C 11.84375 -12.332031 12.234375 -13.289062 12.234375 -14.03125 C 12.234375 -14.3125 12.203125 -14.597656 12.140625 -14.890625 C 12.085938 -15.179688 11.972656 -15.535156 11.796875 -15.953125 C 11.628906 -16.367188 11.320312 -16.707031 10.875 -16.96875 C 10.4375 -17.226562 9.894531 -17.359375 9.25 -17.359375 Z M 9.25 -17.359375 "/></g></g></g><g fill="#222222" fill-opacity="1"><g transform="translate(947.654136, 547.106202)"><g><path d="M 0 0.375 L 13.078125 0.375 L 13.078125 2.546875 L 0 2.546875 Z M 0 0.375 "/></g></g></g><path stroke-linecap="round" transform="matrix(-0.686068, -0.303171, 0.303144, -0.686006, 885.313733, 566.664603)" fill="none" stroke-linejoin="miter" d="M 6.999569 6.997533 L 161.493024 7.000227 " stroke="#5e17eb" stroke-width="14" stroke-opacity="1" stroke-miterlimit="4"/><path stroke-linecap="round" transform="matrix(-0.686068, -0.303171, 0.303144, -0.686006, 885.313733, 566.664603)" fill="none" stroke-linejoin="round" d="M 136.99339 -14.003026 L 164.995127 7.001339 L 136.990686 27.998554 " stroke="#5e17eb" stroke-width="14" stroke-opacity="1" stroke-miterlimit="4"/><path stroke-linecap="round" transform="matrix(-0.687099, -0.300804, 0.30078, -0.687045, 743.860049, 503.082465)" fill="none" stroke-linejoin="miter" d="M 5.501581 5.500555 L 190.739318 5.498421 " stroke="#1e76e9" stroke-width="11" stroke-opacity="1" stroke-miterlimit="4"/><path stroke-linecap="round" transform="matrix(-0.687099, -0.300804, 0.30078, -0.687045, 743.860049, 503.082465)" fill="none" stroke-linejoin="round" d="M 171.492764 -11.000583 L 193.491154 5.498949 L 171.492389 21.998679 " stroke="#1e76e9" stroke-width="11" stroke-opacity="1" stroke-miterlimit="4"/><g clip-path="url(#3a3b632bfb)"><g clip-path="url(#b24508fd06)"><path fill="#cc0829" d="M 743.648438 491.476562 L 770.6875 491.476562 L 770.6875 518.515625 L 743.648438 518.515625 Z M 743.648438 491.476562 " fill-opacity="1" fill-rule="nonzero"/></g></g><g fill="#cc0829" fill-opacity="1"><g transform="translate(736.949394, 476.233851)"><g><path d="M 26.828125 0 L 13.625 0 L 13.625 -38.046875 L 1.703125 -38.046875 L 1.703125 -48.84375 L 38.71875 -48.84375 L 38.71875 -38.046875 L 26.828125 -38.046875 Z M 26.828125 0 "/></g></g></g><g fill="#222222" fill-opacity="1"><g transform="translate(824.471626, 520.762677)"><g><path d="M 13.46875 -36.34375 L 22.328125 -16.578125 L 31.171875 -36.34375 L 46.0625 -36.34375 L 26.578125 0 L 18.0625 0 L -1.421875 -36.34375 Z M 13.46875 -36.34375 "/></g></g></g><g clip-path="url(#a817ffde99)"><path fill="#222222" d="M 878.996094 462.429688 C 878.816406 461.601562 878.253906 460.753906 878.328125 460.085938 C 878.605469 457.667969 877.15625 456.9375 875.339844 456.332031 C 867.683594 453.769531 859.886719 451.800781 851.867188 450.824219 C 848.996094 450.472656 848.289062 451.25 848.921875 454.085938 C 849.003906 454.4375 849.132812 454.777344 849.230469 455.128906 C 849.546875 456.308594 850.421875 456.851562 851.5 456.648438 C 852.558594 456.449219 853.503906 456.703125 854.472656 456.898438 C 856.945312 457.394531 859.398438 457.96875 861.859375 458.515625 C 861.933594 458.648438 861.945312 458.785156 861.894531 458.929688 C 859.238281 459.160156 856.585938 459.476562 853.929688 459.597656 C 847.113281 459.902344 840.414062 461.550781 833.519531 461.226562 C 830.238281 461.078125 826.90625 461.625 823.632812 462.097656 C 821.058594 462.472656 818.445312 462.277344 815.898438 462.824219 C 814.601562 463.097656 814.359375 463.433594 815.125 464.5 C 816.644531 466.628906 818.234375 468.75 821.382812 468.0625 C 821.9375 467.941406 822.53125 468.003906 823.109375 467.941406 C 828.484375 467.394531 833.878906 467.089844 839.265625 466.746094 C 845.089844 466.371094 850.910156 465.972656 856.734375 465.570312 C 858.675781 465.4375 860.613281 465.253906 862.746094 465.082031 C 862.152344 466.042969 861.378906 466.324219 860.746094 466.761719 C 858.597656 468.242188 856.6875 470.003906 854.71875 471.703125 C 851.707031 474.292969 852.996094 477.75 854.464844 479.867188 C 854.738281 480.265625 855.09375 480.488281 855.476562 479.949219 C 856.636719 478.3125 858.363281 477.34375 859.945312 476.226562 C 864.480469 473.015625 869.234375 470.140625 873.988281 467.269531 C 875.222656 466.519531 876.464844 465.78125 877.703125 465.058594 C 878.714844 464.46875 879.296875 463.832031 878.996094 462.429688 Z M 862.738281 458.621094 C 862.773438 458.601562 862.808594 458.597656 862.84375 458.566406 C 862.820312 458.597656 862.789062 458.613281 862.761719 458.632812 C 862.757812 458.632812 862.75 458.625 862.738281 458.621094 Z M 862.738281 458.621094 " fill-opacity="1" fill-rule="nonzero"/></g><g fill="#222222" fill-opacity="1"><g transform="translate(679.478745, 443.846404)"><g><path d="M 12.21875 -33 L 20.265625 -15.046875 L 28.296875 -33 L 41.796875 -33 L 24.109375 0 L 16.40625 0 L -1.28125 -33 Z M 12.21875 -33 "/></g></g></g><g clip-path="url(#3de1fabf34)"><path fill="#222222" d="M 720.234375 391.675781 C 720.054688 390.84375 719.492188 390 719.566406 389.332031 C 719.84375 386.914062 718.394531 386.179688 716.578125 385.578125 C 708.921875 383.015625 701.125 381.046875 693.105469 380.066406 C 690.234375 379.714844 689.527344 380.492188 690.160156 383.332031 C 690.242188 383.683594 690.375 384.023438 690.46875 384.375 C 690.785156 385.554688 691.660156 386.09375 692.738281 385.894531 C 693.796875 385.691406 694.746094 385.945312 695.710938 386.140625 C 698.183594 386.636719 700.636719 387.210938 703.097656 387.757812 C 703.171875 387.890625 703.183594 388.03125 703.132812 388.171875 C 700.476562 388.402344 697.824219 388.71875 695.167969 388.839844 C 688.351562 389.148438 681.652344 390.792969 674.757812 390.472656 C 671.476562 390.320312 668.148438 390.867188 664.871094 391.339844 C 662.296875 391.714844 659.683594 391.519531 657.136719 392.066406 C 655.839844 392.34375 655.597656 392.675781 656.363281 393.742188 C 657.882812 395.871094 659.472656 397.992188 662.621094 397.304688 C 663.175781 397.183594 663.769531 397.25 664.347656 397.183594 C 669.722656 396.636719 675.117188 396.332031 680.503906 395.988281 C 686.328125 395.613281 692.148438 395.214844 697.972656 394.8125 C 699.914062 394.679688 701.851562 394.496094 703.984375 394.324219 C 703.390625 395.285156 702.617188 395.566406 701.984375 396.003906 C 699.835938 397.484375 697.925781 399.246094 695.957031 400.945312 C 692.945312 403.535156 694.234375 406.992188 695.703125 409.109375 C 695.976562 409.507812 696.332031 409.730469 696.714844 409.191406 C 697.875 407.554688 699.601562 406.589844 701.183594 405.472656 C 705.71875 402.257812 710.472656 399.386719 715.226562 396.511719 C 716.460938 395.761719 717.703125 395.027344 718.941406 394.300781 C 719.953125 393.714844 720.535156 393.074219 720.234375 391.675781 Z M 703.976562 387.863281 C 704.011719 387.84375 704.046875 387.839844 704.082031 387.8125 C 704.058594 387.839844 704.027344 387.855469 704 387.875 C 703.996094 387.875 703.988281 387.867188 703.976562 387.863281 Z M 703.976562 387.863281 " fill-opacity="1" fill-rule="nonzero"/></g><g fill="#222222" fill-opacity="1"><g transform="translate(648.697839, 445.396351)"><g><path d="M 15.03125 -28.203125 C 13.925781 -28.203125 12.867188 -27.65625 11.859375 -26.5625 C 10.847656 -25.46875 10.109375 -24.382812 9.640625 -23.3125 L 8.9375 -21.703125 L 2.4375 -24.84375 C 2.519531 -25.113281 2.65625 -25.46875 2.84375 -25.90625 C 3.039062 -26.351562 3.5 -27.148438 4.21875 -28.296875 C 4.9375 -29.441406 5.726562 -30.445312 6.59375 -31.3125 C 7.46875 -32.1875 8.65625 -32.984375 10.15625 -33.703125 C 11.664062 -34.421875 13.289062 -34.78125 15.03125 -34.78125 C 17.269531 -34.78125 19.222656 -34.492188 20.890625 -33.921875 C 22.554688 -33.359375 23.84375 -32.65625 24.75 -31.8125 C 25.664062 -30.976562 26.40625 -29.988281 26.96875 -28.84375 C 27.539062 -27.695312 27.898438 -26.65625 28.046875 -25.71875 C 28.203125 -24.78125 28.28125 -23.796875 28.28125 -22.765625 C 28.28125 -21.273438 27.863281 -19.707031 27.03125 -18.0625 C 26.207031 -16.425781 25.207031 -14.96875 24.03125 -13.6875 C 22.863281 -12.40625 21.6875 -11.234375 20.5 -10.171875 C 19.3125 -9.109375 18.300781 -8.285156 17.46875 -7.703125 L 16.234375 -6.828125 L 28.90625 -6.828125 L 28.90625 0 L 2.28125 0 L 2.28125 -1.953125 C 2.75 -2.335938 3.378906 -2.863281 4.171875 -3.53125 C 4.972656 -4.207031 6.378906 -5.5 8.390625 -7.40625 C 10.410156 -9.3125 12.191406 -11.097656 13.734375 -12.765625 C 15.285156 -14.441406 16.695312 -16.234375 17.96875 -18.140625 C 19.238281 -20.046875 19.875 -21.585938 19.875 -22.765625 C 19.875 -23.242188 19.820312 -23.71875 19.71875 -24.1875 C 19.625 -24.65625 19.4375 -25.222656 19.15625 -25.890625 C 18.882812 -26.566406 18.390625 -27.117188 17.671875 -27.546875 C 16.960938 -27.984375 16.082031 -28.203125 15.03125 -28.203125 Z M 15.03125 -28.203125 "/></g></g></g><g clip-path="url(#9c1a9f7ad7)"><path fill="#222222" d="M 971.882812 516.417969 C 971.792969 516.003906 971.507812 515.578125 971.546875 515.246094 C 971.6875 514.035156 970.953125 513.671875 970.035156 513.367188 C 966.164062 512.085938 962.226562 511.101562 958.167969 510.613281 C 956.71875 510.4375 956.363281 510.824219 956.683594 512.246094 C 956.722656 512.421875 956.789062 512.589844 956.839844 512.765625 C 956.996094 513.355469 957.4375 513.628906 957.984375 513.527344 C 958.519531 513.425781 959 513.550781 959.488281 513.652344 C 960.738281 513.898438 961.976562 514.1875 963.222656 514.460938 C 963.257812 514.527344 963.265625 514.59375 963.238281 514.667969 C 961.894531 514.78125 960.554688 514.941406 959.210938 515 C 955.765625 515.152344 952.382812 515.976562 948.894531 515.816406 C 947.238281 515.742188 945.554688 516.015625 943.898438 516.25 C 942.59375 516.4375 941.273438 516.339844 939.988281 516.613281 C 939.332031 516.75 939.210938 516.917969 939.597656 517.449219 C 940.367188 518.515625 941.167969 519.574219 942.757812 519.234375 C 943.039062 519.171875 943.339844 519.203125 943.632812 519.171875 C 946.351562 518.898438 949.078125 518.746094 951.800781 518.574219 C 954.742188 518.386719 957.6875 518.1875 960.628906 517.988281 C 961.613281 517.921875 962.589844 517.828125 963.667969 517.742188 C 963.367188 518.222656 962.980469 518.363281 962.65625 518.582031 C 961.570312 519.320312 960.605469 520.203125 959.609375 521.050781 C 958.089844 522.347656 958.742188 524.074219 959.484375 525.136719 C 959.621094 525.332031 959.800781 525.445312 959.996094 525.175781 C 960.582031 524.359375 961.453125 523.875 962.253906 523.316406 C 964.546875 521.707031 966.949219 520.273438 969.355469 518.835938 C 969.976562 518.460938 970.605469 518.09375 971.230469 517.730469 C 971.742188 517.4375 972.035156 517.117188 971.882812 516.417969 Z M 963.667969 514.511719 C 963.683594 514.503906 963.699219 514.5 963.71875 514.484375 C 963.707031 514.5 963.691406 514.507812 963.679688 514.515625 C 963.675781 514.515625 963.671875 514.515625 963.667969 514.511719 Z M 963.667969 514.511719 " fill-opacity="1" fill-rule="nonzero"/></g><path stroke-linecap="round" transform="matrix(0.687344, 0.301935, -0.301639, 0.686669, 913.849947, 568.991883)" fill="none" stroke-linejoin="miter" d="M 5.501878 5.499876 L 468.283119 5.500541 " stroke="#1e76e9" stroke-width="11" stroke-opacity="1" stroke-miterlimit="4"/><path stroke-linecap="round" transform="matrix(0.687344, 0.301935, -0.301639, 0.686669, 913.849947, 568.991883)" fill="none" stroke-linejoin="round" d="M 449.03454 -10.997659 L 471.034556 5.502398 L 449.035745 22.001937 " stroke="#1e76e9" stroke-width="11" stroke-opacity="1" stroke-miterlimit="4"/><g fill="#222222" fill-opacity="1"><g transform="translate(1148.376966, 636.386769)"><g><path d="M 9.734375 -26.28125 L 16.140625 -11.984375 L 22.53125 -26.28125 L 33.296875 -26.28125 L 19.203125 0 L 13.0625 0 L -1.03125 -26.28125 Z M 9.734375 -26.28125 "/></g></g></g><g clip-path="url(#4044e36638)"><path fill="#222222" d="M 1164.253906 585.128906 C 1164.113281 584.464844 1163.65625 583.789062 1163.71875 583.253906 C 1163.941406 581.320312 1162.773438 580.734375 1161.3125 580.25 C 1155.152344 578.199219 1148.878906 576.625 1142.425781 575.839844 C 1140.117188 575.558594 1139.546875 576.183594 1140.058594 578.453125 C 1140.121094 578.734375 1140.226562 579.007812 1140.304688 579.285156 C 1140.558594 580.230469 1141.261719 580.664062 1142.128906 580.503906 C 1142.980469 580.34375 1143.746094 580.542969 1144.519531 580.703125 C 1146.511719 581.097656 1148.484375 581.558594 1150.464844 581.996094 C 1150.527344 582.101562 1150.535156 582.210938 1150.492188 582.328125 C 1148.355469 582.511719 1146.222656 582.765625 1144.085938 582.863281 C 1138.597656 583.105469 1133.210938 584.421875 1127.660156 584.164062 C 1125.023438 584.046875 1122.34375 584.484375 1119.707031 584.859375 C 1117.632812 585.160156 1115.53125 585.003906 1113.480469 585.441406 C 1112.4375 585.664062 1112.246094 585.929688 1112.859375 586.78125 C 1114.085938 588.484375 1115.363281 590.179688 1117.894531 589.632812 C 1118.339844 589.535156 1118.820312 589.585938 1119.285156 589.535156 C 1123.609375 589.097656 1127.949219 588.855469 1132.285156 588.578125 C 1136.972656 588.277344 1141.65625 587.960938 1146.34375 587.640625 C 1147.90625 587.53125 1149.464844 587.386719 1151.179688 587.246094 C 1150.699219 588.015625 1150.082031 588.242188 1149.570312 588.59375 C 1147.839844 589.777344 1146.304688 591.1875 1144.71875 592.542969 C 1142.296875 594.617188 1143.335938 597.382812 1144.515625 599.078125 C 1144.738281 599.394531 1145.023438 599.574219 1145.332031 599.140625 C 1146.265625 597.832031 1147.652344 597.058594 1148.925781 596.164062 C 1152.578125 593.59375 1156.402344 591.296875 1160.226562 588.996094 C 1161.21875 588.398438 1162.21875 587.808594 1163.214844 587.230469 C 1164.03125 586.757812 1164.5 586.246094 1164.253906 585.128906 Z M 1151.175781 582.078125 C 1151.203125 582.066406 1151.230469 582.058594 1151.257812 582.039062 C 1151.238281 582.058594 1151.214844 582.074219 1151.191406 582.085938 C 1151.1875 582.085938 1151.183594 582.082031 1151.175781 582.078125 Z M 1151.175781 582.078125 " fill-opacity="1" fill-rule="nonzero"/></g><g fill="#222222" fill-opacity="1"><g transform="translate(1088.567868, 640.054675)"><g><path d="M 2.875 -17.546875 L 18.3125 -17.546875 L 18.3125 -10.21875 L 2.875 -10.21875 Z M 2.875 -17.546875 "/></g></g></g><g fill="#222222" fill-opacity="1"><g transform="translate(1112.073922, 633.406986)"><g><path d="M 28.90625 -5.953125 C 29.375 -5.953125 29.910156 -6.015625 30.515625 -6.140625 C 31.117188 -6.273438 31.65625 -6.457031 32.125 -6.6875 L 32.125 -1.09375 C 31.414062 -0.65625 30.476562 -0.289062 29.3125 0 C 28.144531 0.28125 26.988281 0.421875 25.84375 0.421875 C 23.445312 0.421875 21.675781 -0.207031 20.53125 -1.46875 C 19.394531 -2.738281 18.828125 -4.6875 18.828125 -7.3125 L 18.828125 -17.46875 L 13.59375 -17.46875 L 13.59375 0 L 5.484375 0 L 5.484375 -17.46875 L 0.484375 -17.46875 L 0.484375 -20.921875 L 4.625 -23.515625 L 32.125 -23.515625 L 32.125 -17.46875 L 26.9375 -17.46875 L 26.9375 -8.203125 C 26.9375 -7.492188 27.109375 -6.941406 27.453125 -6.546875 C 27.796875 -6.148438 28.28125 -5.953125 28.90625 -5.953125 Z M 28.90625 -5.953125 "/></g></g></g></svg>