<?xml version="1.0" encoding="UTF-8"?>
<!DOCTYPE svg PUBLIC "-//W3C//DTD SVG 1.1//EN" "http://www.w3.org/Graphics/SVG/1.1/DTD/svg11.dtd">
<svg xmlns="http://www.w3.org/2000/svg" version="1.1" width="512px" height="512px" style="shape-rendering:geometricPrecision; text-rendering:geometricPrecision; image-rendering:optimizeQuality; fill-rule:evenodd; clip-rule:evenodd" xmlns:xlink="http://www.w3.org/1999/xlink">
<g><path style="opacity:0.991" fill="#fefffe" d="M 235.5,7.5 C 252.53,7.16331 269.53,7.66331 286.5,9C 303.564,10.2769 315.397,18.7769 322,34.5C 323.573,42.0855 324.573,49.7522 325,57.5C 332.517,85.3539 350.684,99.1873 379.5,99C 385.033,98.4894 390.367,97.156 395.5,95C 410.496,85.8332 425.829,85.1666 441.5,93C 444.63,95.128 447.463,97.628 450,100.5C 466.55,121.26 479.217,144.26 488,169.5C 490.722,190.558 482.555,205.724 463.5,215C 442.932,234.138 438.766,256.305 451,281.5C 456.932,290.766 464.765,297.932 474.5,303C 488.416,315.495 492.249,330.662 486,348.5C 476.167,373.018 462.667,395.185 445.5,415C 435.487,422.999 424.154,425.665 411.5,423C 403.279,419.39 394.946,416.057 386.5,413C 354.603,409.235 334.103,422.735 325,453.5C 325.181,486.653 308.681,503.153 275.5,503C 258.473,503.837 241.473,503.503 224.5,502C 205.466,500.63 193.299,490.797 188,472.5C 189.119,445.545 177.619,426.378 153.5,415C 140.704,410.182 128.038,410.516 115.5,416C 100.504,425.167 85.1711,425.833 69.5,418C 66.3699,415.872 63.5366,413.372 61,410.5C 44.4497,389.74 31.783,366.74 23,341.5C 20.2616,320.477 28.4283,305.311 47.5,296C 68.0678,276.862 72.2344,254.695 60,229.5C 54.3996,220.566 46.8996,213.732 37.5,209C 22.8151,196.434 18.6485,180.934 25,162.5C 34.9201,137.473 48.7534,114.973 66.5,95C 76.4429,87.9401 87.4429,85.6068 99.5,88C 107.721,91.6102 116.054,94.9435 124.5,98C 156.397,101.765 176.897,88.265 186,57.5C 185.995,24.3389 202.495,7.67219 235.5,7.5 Z M 246.5,182.5 C 282.111,180.709 307.611,195.709 323,227.5C 334.099,258.932 327.933,286.432 304.5,310C 274.441,333.073 243.441,334.407 211.5,314C 184.142,290.578 176.309,261.744 188,227.5C 199.552,202.109 219.052,187.109 246.5,182.5 Z"/></g>
</svg>
