<?xml version="1.0" encoding="UTF-8"?>
<!DOCTYPE svg PUBLIC "-//W3C//DTD SVG 1.1//EN" "http://www.w3.org/Graphics/SVG/1.1/DTD/svg11.dtd">
<svg xmlns="http://www.w3.org/2000/svg" version="1.1" width="512px" height="512px" style="shape-rendering:geometricPrecision; text-rendering:geometricPrecision; image-rendering:optimizeQuality; fill-rule:evenodd; clip-rule:evenodd" xmlns:xlink="http://www.w3.org/1999/xlink">
<g><path style="opacity:0.995" fill="#dfdfdf" d="M 236.5,-0.5 C 249.167,-0.5 261.833,-0.5 274.5,-0.5C 337.552,7.73837 385.386,39.0717 418,93.5C 432.85,119.899 440.683,148.232 441.5,178.5C 435.242,242.237 405.242,291.403 351.5,326C 287.456,361.226 223.456,361.226 159.5,326C 105.771,291.412 75.7709,242.245 69.5,178.5C 73.6676,110.966 104.334,59.4663 161.5,24C 185.06,11.0353 210.06,2.86865 236.5,-0.5 Z"/></g>
<g><path style="opacity:1" fill="#9e9e9e" d="M 401.5,184.5 C 388.96,253.208 348.626,295.374 280.5,311C 210.416,319.043 158.249,292.543 124,231.5C 117.415,216.585 112.582,201.252 109.5,185.5C 112.35,118.618 144.684,72.4509 206.5,47C 262.013,30.1897 311.68,40.5231 355.5,78C 385.443,107.066 400.777,142.566 401.5,184.5 Z"/></g>
<g><path style="opacity:1" fill="#dfdfdf" d="M 312.5,252.5 C 310.9,257.926 307.233,261.093 301.5,262C 270.5,262.667 239.5,262.667 208.5,262C 203.044,260.037 199.044,256.537 196.5,251.5C 198.088,241.235 201.921,231.902 208,223.5C 230.043,197.792 251.71,171.792 273,145.5C 273.632,129.542 266.132,123.709 250.5,128C 247.705,129.793 245.205,131.96 243,134.5C 240.763,142.654 238.096,150.654 235,158.5C 225.637,166.439 216.303,166.439 207,158.5C 202.784,152.119 201.451,145.119 203,137.5C 210.009,107.819 228.676,91.8194 259,89.5C 286.694,91.1767 303.694,105.51 310,132.5C 311.406,146.21 308.406,158.877 301,170.5C 280.542,195.294 259.708,219.794 238.5,244C 259.5,244.333 280.5,244.667 301.5,245C 306.241,246.029 309.908,248.529 312.5,252.5 Z"/></g>
<g><path style="opacity:0.982" fill="#cdcecd" d="M 69.5,178.5 C 75.7709,242.245 105.771,291.412 159.5,326C 223.456,361.226 287.456,361.226 351.5,326C 405.242,291.403 435.242,242.237 441.5,178.5C 442.765,241.955 418.765,293.288 369.5,332.5C 311.955,373.624 249.955,381.791 183.5,357C 168.652,350.083 154.652,341.917 141.5,332.5C 92.234,293.287 68.234,241.954 69.5,178.5 Z"/></g>
<g><path style="opacity:1" fill="#898989" d="M 401.5,184.5 C 399.434,246.489 370.768,291.323 315.5,319C 249.014,344.501 191.514,331.335 143,279.5C 120.834,252.174 109.667,220.841 109.5,185.5C 112.582,201.252 117.415,216.585 124,231.5C 158.249,292.543 210.416,319.043 280.5,311C 348.626,295.374 388.96,253.208 401.5,184.5 Z"/></g>
<g><path style="opacity:1" fill="#cdcdcd" d="M 196.5,251.5 C 199.044,256.537 203.044,260.037 208.5,262C 239.5,262.667 270.5,262.667 301.5,262C 307.233,261.093 310.9,257.926 312.5,252.5C 316.313,259.255 316.48,266.255 313,273.5C 310.072,277.381 306.239,279.881 301.5,281C 270.833,281.667 240.167,281.667 209.5,281C 202.763,279.264 198.263,275.097 196,268.5C 195.215,262.751 195.382,257.084 196.5,251.5 Z"/></g>
<g><path style="opacity:0.995" fill="#82d361" d="M 141.5,332.5 C 154.652,341.917 168.652,350.083 183.5,357C 249.955,381.791 311.955,373.624 369.5,332.5C 372.168,340.172 374.835,347.838 377.5,355.5C 343.03,379.768 304.696,392.434 262.5,393.5C 260.453,387.07 258.12,380.737 255.5,374.5C 252.785,381.247 250.118,387.913 247.5,394.5C 205.573,392.636 167.573,379.636 133.5,355.5C 136.165,347.838 138.832,340.172 141.5,332.5 Z"/></g>
<g><path style="opacity:0.995" fill="#98db7b" d="M 133.5,355.5 C 167.573,379.636 205.573,392.636 247.5,394.5C 234.654,433.843 220.988,472.843 206.5,511.5C 204.167,511.5 201.833,511.5 199.5,511.5C 185.728,498.229 172.062,484.729 158.5,471C 139.079,471.843 119.745,473.676 100.5,476.5C 94.909,475.341 93.0757,472.008 95,466.5C 107.847,429.479 120.681,392.479 133.5,355.5 Z"/></g>
<g><path style="opacity:0.994" fill="#98db7b" d="M 377.5,355.5 C 390.319,392.479 403.153,429.479 416,466.5C 417.924,472.008 416.091,475.341 410.5,476.5C 391.255,473.676 371.921,471.843 352.5,471C 338.938,484.729 325.272,498.229 311.5,511.5C 309.167,511.5 306.833,511.5 304.5,511.5C 289.962,472.411 275.962,433.078 262.5,393.5C 304.696,392.434 343.03,379.768 377.5,355.5 Z"/></g>
</svg>
