<svg xmlns="http://www.w3.org/2000/svg" xmlns:xlink="http://www.w3.org/1999/xlink" width="2000" zoomAndPan="magnify" viewBox="0 0 1500 1124.99995" height="1500" preserveAspectRatio="xMidYMid meet" version="1.0"><defs><clipPath id="fac48d26e1"><path d="M 343.738281 156.238281 L 1155.988281 156.238281 L 1155.988281 968.488281 L 343.738281 968.488281 Z M 343.738281 156.238281 " clip-rule="nonzero"/></clipPath><clipPath id="43bf3923f9"><path d="M 550 156.238281 L 750 156.238281 L 750 968.488281 L 550 968.488281 Z M 550 156.238281 " clip-rule="nonzero"/></clipPath><clipPath id="b703b10f82"><path d="M 749 156.238281 L 950 156.238281 L 950 968.488281 L 749 968.488281 Z M 749 156.238281 " clip-rule="nonzero"/></clipPath><clipPath id="7736826f6c"><path d="M 343.738281 362 L 1155.988281 362 L 1155.988281 563 L 343.738281 563 Z M 343.738281 362 " clip-rule="nonzero"/></clipPath><clipPath id="b242bff196"><path d="M 343.738281 562 L 1155.988281 562 L 1155.988281 762 L 343.738281 762 Z M 343.738281 562 " clip-rule="nonzero"/></clipPath></defs><rect x="-150" width="1800" fill="#ffffff" y="-112.499995" height="1349.99994" fill-opacity="1"/><rect x="-150" width="1800" fill="#ffffff" y="-112.499995" height="1349.99994" fill-opacity="1"/><g clip-path="url(#fac48d26e1)"><path fill="#000000" d="M 749.863281 171.007812 C 534.050781 171.007812 358.507812 346.550781 358.507812 562.363281 C 358.507812 778.175781 534.050781 953.71875 749.863281 953.71875 C 965.675781 953.71875 1141.21875 778.175781 1141.21875 562.363281 C 1141.21875 346.550781 965.675781 171.007812 749.863281 171.007812 Z M 749.863281 968.488281 C 525.917969 968.488281 343.738281 786.308594 343.738281 562.363281 C 343.738281 338.417969 525.917969 156.238281 749.863281 156.238281 C 973.808594 156.238281 1155.988281 338.417969 1155.988281 562.363281 C 1155.988281 786.308594 973.808594 968.488281 749.863281 968.488281 " fill-opacity="1" fill-rule="nonzero"/></g><g clip-path="url(#43bf3923f9)"><path fill="#000000" d="M 723.09375 175.160156 L 718.652344 161.082031 C 728.921875 157.851562 739.421875 156.238281 749.863281 156.238281 L 749.863281 171.007812 C 740.921875 171.007812 731.921875 172.390625 723.09375 175.160156 Z M 676.078125 204.0625 L 665.984375 193.332031 C 673.828125 185.949219 682.023438 179.542969 690.328125 174.351562 L 698.175781 186.871094 C 690.675781 191.542969 683.234375 197.371094 676.078125 204.0625 Z M 640.199219 248.421875 L 627.679688 240.519531 C 633.273438 231.695312 639.21875 223.386719 645.273438 215.828125 L 656.8125 225.058594 C 651.101562 232.214844 645.503906 240.058594 640.199219 248.421875 Z M 613.429688 299.707031 L 599.875 293.882812 C 603.910156 284.480469 608.238281 275.363281 612.679688 266.710938 L 625.832031 273.519531 C 621.507812 281.824219 617.351562 290.652344 613.429688 299.707031 Z M 593.699219 354.453125 L 579.566406 350.242188 C 582.453125 340.492188 585.566406 330.976562 588.855469 321.804688 L 602.757812 326.765625 C 599.585938 335.761719 596.527344 344.992188 593.699219 354.453125 Z M 579.683594 411.160156 L 565.203125 408.277344 C 567.222656 398.355469 569.355469 388.605469 571.722656 379.085938 L 586.027344 382.664062 C 583.777344 391.953125 581.644531 401.46875 579.683594 411.160156 Z M 570.625 468.90625 L 555.972656 467.234375 C 557.125 457.195312 558.453125 447.332031 560.011719 437.640625 L 574.605469 439.949219 C 573.105469 449.46875 571.78125 459.101562 570.625 468.90625 Z M 566.011719 527.289062 L 551.242188 526.652344 C 551.644531 516.617188 552.28125 506.695312 553.03125 496.886719 L 567.742188 498.039062 C 566.992188 507.675781 566.414062 517.421875 566.011719 527.289062 Z M 550.839844 586.246094 C 550.609375 578.34375 550.492188 570.382812 550.492188 562.363281 L 550.492188 556.421875 L 565.261719 556.535156 L 565.261719 562.363281 C 565.261719 570.207031 565.375 578.054688 565.605469 585.84375 Z M 554.644531 645.722656 C 553.664062 635.972656 552.859375 626.050781 552.222656 616.011719 L 566.933594 615.089844 C 567.566406 624.898438 568.375 634.644531 569.355469 644.222656 Z M 563.011719 704.796875 C 561.222656 695.160156 559.664062 685.355469 558.222656 675.375 L 572.875 673.296875 C 574.261719 683.046875 575.816406 692.679688 577.492188 702.140625 Z M 576.222656 763.058594 C 573.625 753.597656 571.203125 743.964844 568.953125 734.042969 L 583.375 730.8125 C 585.566406 740.445312 587.933594 749.90625 590.46875 759.078125 Z M 595.257812 819.824219 C 591.683594 810.769531 588.21875 801.363281 584.988281 791.671875 L 599.007812 787 C 602.125 796.402344 605.46875 805.519531 608.988281 814.34375 Z M 621.449219 873.9375 C 616.546875 865.570312 611.816406 856.628906 607.371094 847.34375 L 620.640625 840.9375 C 624.96875 849.882812 629.523438 858.476562 634.199219 866.496094 Z M 657.332031 922.796875 C 650.640625 915.703125 644.179688 907.859375 637.949219 899.320312 L 649.890625 890.609375 C 655.714844 898.628906 661.832031 906.070312 668.0625 912.644531 Z M 706.941406 959.199219 C 697.828125 955.21875 688.828125 949.855469 680.175781 943.394531 L 689.058594 931.566406 C 696.789062 937.394531 704.808594 942.183594 712.882812 945.699219 Z M 749.691406 968.488281 C 745.535156 968.488281 741.382812 968.199219 737.285156 967.738281 L 739.074219 953.085938 C 742.652344 953.488281 745.941406 953.488281 749.863281 953.71875 L 749.863281 968.488281 C 749.804688 968.488281 749.746094 968.488281 749.691406 968.488281 " fill-opacity="1" fill-rule="nonzero"/></g><g clip-path="url(#b703b10f82)"><path fill="#000000" d="M 749.863281 968.488281 L 749.863281 953.71875 C 851.683594 953.71875 934.464844 778.175781 934.464844 562.363281 C 934.464844 346.550781 851.683594 171.007812 749.863281 171.007812 L 749.863281 156.238281 C 859.816406 156.238281 949.234375 338.417969 949.234375 562.363281 C 949.234375 786.308594 859.816406 968.488281 749.863281 968.488281 " fill-opacity="1" fill-rule="nonzero"/></g><g clip-path="url(#7736826f6c)"><path fill="#000000" d="M 726.382812 378.105469 L 725.980469 363.339844 C 733.882812 363.109375 741.84375 362.992188 749.863281 362.992188 L 755.804688 362.992188 L 755.6875 377.761719 L 749.863281 377.761719 C 742.015625 377.761719 734.171875 377.875 726.382812 378.105469 Z M 814.183594 380.242188 C 804.550781 379.492188 794.800781 378.914062 784.9375 378.511719 L 785.570312 363.742188 C 795.609375 364.144531 805.53125 364.78125 815.339844 365.53125 Z M 668.003906 381.855469 L 666.503906 367.144531 C 676.253906 366.164062 686.175781 365.359375 696.210938 364.722656 L 697.136719 379.433594 C 687.328125 380.066406 677.578125 380.875 668.003906 381.855469 Z M 872.277344 387.046875 C 862.757812 385.605469 853.125 384.28125 843.316406 383.125 L 845.046875 368.414062 C 855.027344 369.625 864.894531 370.953125 874.585938 372.453125 Z M 610.085938 389.992188 L 607.429688 375.511719 C 617.066406 373.722656 626.871094 372.164062 636.851562 370.722656 L 638.929688 385.375 C 629.179688 386.761719 619.546875 388.316406 610.085938 389.992188 Z M 929.621094 398.527344 C 920.273438 396.277344 910.8125 394.144531 901.0625 392.183594 L 903.949219 377.703125 C 913.871094 379.722656 923.621094 381.855469 933.136719 384.222656 Z M 553.144531 402.96875 L 549.164062 388.722656 C 558.625 386.125 568.261719 383.703125 578.183594 381.453125 L 581.414062 395.875 C 571.78125 398.066406 562.320312 400.433594 553.144531 402.96875 Z M 985.460938 415.257812 C 976.460938 412.085938 967.230469 409.027344 957.769531 406.199219 L 961.980469 392.066406 C 971.730469 394.953125 981.191406 398.066406 990.421875 401.355469 Z M 497.878906 421.488281 L 492.398438 407.757812 C 501.457031 404.183594 510.859375 400.71875 520.550781 397.488281 L 525.226562 411.507812 C 515.820312 414.625 506.707031 417.96875 497.878906 421.488281 Z M 1038.707031 438.332031 C 1030.402344 434.007812 1021.574219 429.851562 1012.460938 425.929688 L 1018.285156 412.375 C 1027.746094 416.410156 1036.863281 420.738281 1045.515625 425.179688 Z M 445.730469 446.699219 L 438.289062 433.949219 C 446.652344 429.046875 455.59375 424.316406 464.882812 419.871094 L 471.285156 433.140625 C 462.34375 437.46875 453.75 442.023438 445.730469 446.699219 Z M 1087.222656 469.3125 C 1080.070312 463.601562 1072.167969 458.003906 1063.800781 452.699219 L 1071.707031 440.179688 C 1080.53125 445.832031 1088.894531 451.71875 1096.453125 457.773438 Z M 399.578125 480.5625 L 389.425781 469.832031 C 396.523438 463.140625 404.367188 456.679688 412.90625 450.449219 L 421.617188 462.390625 C 413.597656 468.214844 406.15625 474.332031 399.578125 480.5625 Z M 1125.355469 510.675781 C 1120.683594 503.175781 1114.914062 495.734375 1108.164062 488.523438 L 1118.894531 478.425781 C 1126.277344 486.328125 1132.683594 494.523438 1137.875 502.828125 Z M 366.523438 525.382812 L 353.027344 519.441406 C 357.007812 510.328125 362.371094 501.328125 368.832031 492.675781 L 380.660156 501.558594 C 374.832031 509.289062 370.042969 517.308594 366.523438 525.382812 Z M 358.507812 562.363281 L 343.738281 562.363281 C 343.738281 558.152344 344.027344 553.941406 344.546875 549.785156 L 359.199219 551.574219 C 358.738281 555.152344 358.507812 558.726562 358.507812 562.363281 Z M 1155.988281 562.363281 L 1141.21875 562.363281 C 1141.21875 553.421875 1139.835938 544.421875 1137.066406 535.59375 L 1151.140625 531.152344 C 1154.371094 541.421875 1155.988281 551.921875 1155.988281 562.363281 " fill-opacity="1" fill-rule="nonzero"/></g><g clip-path="url(#b242bff196)"><path fill="#000000" d="M 749.863281 761.734375 C 525.917969 761.734375 343.738281 672.316406 343.738281 562.363281 L 358.507812 562.363281 C 358.507812 664.183594 534.050781 746.964844 749.863281 746.964844 C 965.675781 746.964844 1141.21875 664.183594 1141.21875 562.363281 L 1155.988281 562.363281 C 1155.988281 672.316406 973.808594 761.734375 749.863281 761.734375 " fill-opacity="1" fill-rule="nonzero"/></g></svg>