<svg xmlns="http://www.w3.org/2000/svg" xmlns:xlink="http://www.w3.org/1999/xlink" width="2000" zoomAndPan="magnify" viewBox="0 0 1500 1124.99995" height="1500" preserveAspectRatio="xMidYMid meet" version="1.0"><defs><g/><clipPath id="25cc83d4e9"><path d="M 315.296875 387 L 1085 387 L 1085 793 L 315.296875 793 Z M 315.296875 387 " clip-rule="nonzero"/></clipPath><clipPath id="f23cdb549c"><path d="M 315.296875 239.664062 L 1304.546875 239.664062 L 1304.546875 393 L 315.296875 393 Z M 315.296875 239.664062 " clip-rule="nonzero"/></clipPath><clipPath id="83c2c009c6"><path d="M 1078 239.664062 L 1304.546875 239.664062 L 1304.546875 793 L 1078 793 Z M 1078 239.664062 " clip-rule="nonzero"/></clipPath></defs><rect x="-150" width="1800" fill="#ffffff" y="-112.499995" height="1349.99994" fill-opacity="1"/><rect x="-150" width="1800" fill="#ffffff" y="-112.499995" height="1349.99994" fill-opacity="1"/><path fill="#ffffff" d="M 318.234375 390.285156 L 1081.660156 390.285156 L 1081.660156 790.308594 L 318.234375 790.308594 Z M 318.234375 390.285156 " fill-opacity="1" fill-rule="evenodd"/><g clip-path="url(#25cc83d4e9)"><path stroke-linecap="round" transform="matrix(2.462658, 0, 0, 2.460518, -31021.557295, -3.396787)" fill="none" stroke-linejoin="round" d="M 12725.99992 159.999592 L 13036.000591 159.999592 L 13036.000591 322.576483 L 12725.99992 322.576483 Z M 12725.99992 159.999592 " stroke="#000000" stroke-width="2.18" stroke-opacity="1" stroke-miterlimit="1.5"/></g><path fill="#ffffff" d="M 318.238281 390.285156 L 538.152344 242.65625 L 1301.574219 242.65625 L 1081.660156 390.285156 Z M 318.238281 390.285156 " fill-opacity="1" fill-rule="evenodd"/><g clip-path="url(#f23cdb549c)"><path stroke-linecap="round" transform="matrix(2.462658, 0, 0, 2.460518, -30886.109227, -11.888046)" fill="none" stroke-linejoin="round" d="M 12671.000755 163.450596 L 12760.30021 103.451489 L 13070.299295 103.451489 L 12980.999839 163.450596 Z M 12671.000755 163.450596 " stroke="#000000" stroke-width="2.18" stroke-opacity="1" stroke-miterlimit="1.5"/></g><path fill="#ffffff" d="M 1081.660156 790.308594 L 1301.574219 641.59375 L 1301.574219 242.65625 L 1081.660156 390.285156 Z M 1081.660156 790.308594 " fill-opacity="1" fill-rule="evenodd"/><g clip-path="url(#83c2c009c6)"><path stroke-linecap="round" transform="matrix(2.462658, 0, 0, 2.460518, -30886.109227, -11.888046)" fill="none" stroke-linejoin="round" d="M 12980.999839 326.027487 L 13070.299295 265.587036 L 13070.299295 103.451489 L 12980.999839 163.450596 Z M 12980.999839 326.027487 " stroke="#000000" stroke-width="2.18" stroke-opacity="1" stroke-miterlimit="1.5"/></g><path fill="#000000" d="M 1287.046875 644.050781 L 1299.113281 644.050781 L 1299.113281 639.136719 L 1287.046875 639.136719 Z M 903.609375 644.050781 L 923.3125 644.050781 L 923.3125 639.136719 L 903.609375 639.136719 Z M 1109.980469 644.050781 L 1129.683594 644.050781 L 1129.683594 639.136719 L 1109.980469 639.136719 Z M 1080.675781 644.050781 L 1100.375 644.050781 L 1100.375 639.136719 L 1080.675781 639.136719 Z M 933.164062 644.050781 L 952.863281 644.050781 L 952.863281 639.136719 L 933.164062 639.136719 Z M 874.058594 644.050781 L 893.761719 644.050781 L 893.761719 639.136719 L 874.058594 639.136719 Z M 1139.53125 644.050781 L 1159.234375 644.050781 L 1159.234375 639.136719 L 1139.53125 639.136719 Z M 667.441406 644.050781 L 687.140625 644.050781 L 687.140625 639.136719 L 667.441406 639.136719 Z M 726.542969 644.050781 L 746.246094 644.050781 L 746.246094 639.136719 L 726.542969 639.136719 Z M 756.097656 644.050781 L 775.796875 644.050781 L 775.796875 639.136719 L 756.097656 639.136719 Z M 785.648438 644.050781 L 805.351562 644.050781 L 805.351562 639.136719 L 785.648438 639.136719 Z M 814.957031 644.050781 L 834.65625 644.050781 L 834.65625 639.136719 L 814.957031 639.136719 Z M 844.507812 644.050781 L 864.207031 644.050781 L 864.207031 639.136719 L 844.507812 639.136719 Z M 962.46875 644.050781 L 982.167969 644.050781 L 982.167969 639.136719 L 962.46875 639.136719 Z M 1051.121094 644.050781 L 1070.824219 644.050781 L 1070.824219 639.136719 L 1051.121094 639.136719 Z M 1169.085938 644.050781 L 1188.785156 644.050781 L 1188.785156 639.136719 L 1169.085938 639.136719 Z M 1198.636719 644.050781 L 1218.339844 644.050781 L 1218.339844 639.136719 L 1198.636719 639.136719 Z M 1228.1875 644.050781 L 1247.890625 644.050781 L 1247.890625 639.136719 L 1228.1875 639.136719 Z M 549.480469 644.050781 L 569.183594 644.050781 L 569.183594 639.136719 L 549.480469 639.136719 Z M 696.992188 644.050781 L 716.695312 644.050781 L 716.695312 639.136719 L 696.992188 639.136719 Z M 1021.570312 644.050781 L 1041.273438 644.050781 L 1041.273438 639.136719 L 1021.570312 639.136719 Z M 608.585938 644.050781 L 628.285156 644.050781 L 628.285156 639.136719 L 608.585938 639.136719 Z M 579.03125 644.050781 L 598.734375 644.050781 L 598.734375 639.136719 L 579.03125 639.136719 Z M 638.136719 644.050781 L 657.839844 644.050781 L 657.839844 639.136719 L 638.136719 639.136719 Z M 992.019531 644.050781 L 1011.71875 644.050781 L 1011.71875 639.136719 L 992.019531 639.136719 Z M 1257.496094 644.050781 L 1277.195312 644.050781 L 1277.195312 639.136719 L 1257.496094 639.136719 Z M 535.6875 623.40625 L 535.6875 643.058594 L 540.613281 643.058594 L 540.613281 623.40625 Z M 535.6875 593.929688 L 535.6875 613.582031 L 540.613281 613.582031 L 540.613281 593.929688 Z M 535.6875 564.453125 L 535.6875 584.105469 L 540.613281 584.105469 L 540.613281 564.453125 Z M 535.6875 534.972656 L 535.6875 554.625 L 540.613281 554.625 L 540.613281 534.972656 Z M 535.6875 505.496094 L 535.6875 525.148438 L 540.613281 525.148438 L 540.613281 505.496094 Z M 535.6875 476.019531 L 535.6875 495.671875 L 540.613281 495.671875 L 540.613281 476.019531 Z M 535.6875 446.539062 L 535.6875 466.191406 L 540.613281 466.191406 L 540.613281 446.539062 Z M 535.6875 417.0625 L 535.6875 436.714844 L 540.613281 436.714844 L 540.613281 417.0625 Z M 535.6875 387.585938 L 535.6875 407.238281 L 540.613281 407.238281 L 540.613281 387.585938 Z M 535.6875 358.109375 L 535.6875 377.757812 L 540.613281 377.757812 L 540.613281 358.109375 Z M 535.6875 328.628906 L 535.6875 348.28125 L 540.613281 348.28125 L 540.613281 328.628906 Z M 535.6875 299.152344 L 535.6875 318.804688 L 540.613281 318.804688 L 540.613281 299.152344 Z M 535.6875 269.675781 L 535.6875 289.328125 L 540.613281 289.328125 L 540.613281 269.675781 Z M 535.6875 245.121094 L 535.6875 259.847656 L 540.613281 259.847656 L 540.613281 245.121094 Z M 535.6875 245.121094 " fill-opacity="1" fill-rule="evenodd"/><path fill="#000000" d="M 320.914062 790.308594 L 337.167969 779.296875 L 334.460938 775.226562 L 318.203125 786.238281 Z M 345.542969 773.789062 L 361.792969 762.777344 L 359.085938 758.710938 L 342.585938 769.71875 Z M 369.921875 757.273438 L 386.175781 746.257812 L 383.464844 742.191406 L 367.210938 753.203125 Z M 394.300781 740.753906 L 410.554688 729.742188 L 407.847656 725.671875 L 391.59375 736.683594 Z M 418.683594 724.234375 L 434.933594 713.222656 L 432.226562 709.15625 L 415.972656 720.167969 Z M 443.0625 707.71875 L 459.5625 696.703125 L 456.605469 692.636719 L 440.351562 703.648438 Z M 467.6875 691.199219 L 483.941406 680.1875 L 481.234375 676.117188 L 464.730469 687.128906 Z M 492.070312 674.679688 L 508.320312 663.667969 L 505.613281 659.601562 L 489.359375 670.613281 Z M 516.449219 658.164062 L 532.703125 647.152344 L 529.992188 643.082031 L 513.738281 654.09375 Z M 516.449219 658.164062 " fill-opacity="1" fill-rule="evenodd"/><g fill="#1e76e9" fill-opacity="1"><g transform="translate(673.575156, 865.485145)"><g><path d="M 19.734375 0.96875 C 16.492188 0.96875 13.675781 0.375 11.28125 -0.8125 C 8.894531 -2.007812 7.0625 -3.765625 5.78125 -6.078125 C 4.5 -8.390625 3.859375 -11.164062 3.859375 -14.40625 C 3.859375 -17.40625 4.5 -19.921875 5.78125 -21.953125 C 7.0625 -23.992188 9.046875 -25.660156 11.734375 -26.953125 C 14.429688 -28.253906 17.953125 -29.257812 22.296875 -29.96875 C 25.328125 -30.457031 27.628906 -30.988281 29.203125 -31.5625 C 30.785156 -32.144531 31.847656 -32.800781 32.390625 -33.53125 C 32.941406 -34.269531 33.21875 -35.207031 33.21875 -36.34375 C 33.21875 -37.96875 32.648438 -39.207031 31.515625 -40.0625 C 30.390625 -40.914062 28.507812 -41.34375 25.875 -41.34375 C 23.0625 -41.34375 20.382812 -40.710938 17.84375 -39.453125 C 15.3125 -38.203125 13.113281 -36.554688 11.25 -34.515625 L 10.328125 -34.515625 L 5 -42.546875 C 7.570312 -45.390625 10.707031 -47.601562 14.40625 -49.1875 C 18.113281 -50.78125 22.15625 -51.578125 26.53125 -51.578125 C 33.226562 -51.578125 38.070312 -50.15625 41.0625 -47.3125 C 44.0625 -44.46875 45.5625 -40.429688 45.5625 -35.203125 L 45.5625 -13.21875 C 45.5625 -10.957031 46.554688 -9.828125 48.546875 -9.828125 C 49.316406 -9.828125 50.066406 -9.960938 50.796875 -10.234375 L 51.4375 -10.046875 L 52.359375 -1.1875 C 51.660156 -0.726562 50.679688 -0.351562 49.421875 -0.0625 C 48.171875 0.21875 46.796875 0.359375 45.296875 0.359375 C 42.265625 0.359375 39.898438 -0.21875 38.203125 -1.375 C 36.503906 -2.539062 35.289062 -4.363281 34.5625 -6.84375 L 33.59375 -6.921875 C 31.113281 -1.660156 26.492188 0.96875 19.734375 0.96875 Z M 23.765625 -8.53125 C 26.703125 -8.53125 29.050781 -9.515625 30.8125 -11.484375 C 32.570312 -13.460938 33.453125 -16.210938 33.453125 -19.734375 L 33.453125 -24.875 L 32.578125 -25.0625 C 31.816406 -24.445312 30.816406 -23.929688 29.578125 -23.515625 C 28.335938 -23.109375 26.554688 -22.703125 24.234375 -22.296875 C 21.472656 -21.835938 19.488281 -21.050781 18.28125 -19.9375 C 17.070312 -18.820312 16.46875 -17.238281 16.46875 -15.1875 C 16.46875 -13.019531 17.109375 -11.367188 18.390625 -10.234375 C 19.679688 -9.097656 21.472656 -8.53125 23.765625 -8.53125 Z M 23.765625 -8.53125 "/></g></g></g><g fill="#1e76e9" fill-opacity="1"><g transform="translate(242.238275, 623.571262)"><g><path d="M 35.375 0.96875 C 28.925781 0.96875 24.125 -1.445312 20.96875 -6.28125 L 20.015625 -6.109375 L 20.015625 0 L 7.296875 0 L 7.296875 -70.953125 L 20.015625 -70.953125 L 20.015625 -44.65625 L 20.96875 -44.46875 C 22.71875 -46.882812 24.773438 -48.671875 27.140625 -49.828125 C 29.515625 -50.992188 32.351562 -51.578125 35.65625 -51.578125 C 39.757812 -51.578125 43.335938 -50.613281 46.390625 -48.6875 C 49.453125 -46.757812 51.835938 -43.828125 53.546875 -39.890625 C 55.265625 -35.960938 56.125 -31.09375 56.125 -25.28125 C 56.125 -19.53125 55.234375 -14.6875 53.453125 -10.75 C 51.679688 -6.820312 49.234375 -3.882812 46.109375 -1.9375 C 42.992188 0 39.414062 0.96875 35.375 0.96875 Z M 31.53125 -9.828125 C 35.257812 -9.828125 38.101562 -11.070312 40.0625 -13.5625 C 42.019531 -16.050781 43 -19.957031 43 -25.28125 C 43 -30.632812 42.019531 -34.554688 40.0625 -37.046875 C 38.101562 -39.546875 35.257812 -40.796875 31.53125 -40.796875 C 27.945312 -40.796875 25.109375 -39.507812 23.015625 -36.9375 C 20.921875 -34.375 19.875 -30.488281 19.875 -25.28125 C 19.875 -20.082031 20.921875 -16.207031 23.015625 -13.65625 C 25.109375 -11.101562 27.945312 -9.828125 31.53125 -9.828125 Z M 31.53125 -9.828125 "/></g></g></g><g fill="#1e76e9" fill-opacity="1"><g transform="translate(1201.35461, 773.677641)"><g><path d="M 29.5 0.96875 C 24.613281 0.96875 20.285156 -0.046875 16.515625 -2.078125 C 12.753906 -4.117188 9.816406 -7.113281 7.703125 -11.0625 C 5.597656 -15.007812 4.546875 -19.75 4.546875 -25.28125 C 4.546875 -30.851562 5.597656 -35.613281 7.703125 -39.5625 C 9.816406 -43.507812 12.738281 -46.5 16.46875 -48.53125 C 20.207031 -50.5625 24.476562 -51.578125 29.28125 -51.578125 C 39.957031 -51.578125 46.796875 -47.707031 49.796875 -39.96875 L 41.078125 -33.734375 L 40.109375 -33.734375 C 39.066406 -36.117188 37.710938 -37.890625 36.046875 -39.046875 C 34.378906 -40.210938 32.125 -40.796875 29.28125 -40.796875 C 25.601562 -40.796875 22.738281 -39.523438 20.6875 -36.984375 C 18.644531 -34.441406 17.625 -30.539062 17.625 -25.28125 C 17.625 -20.082031 18.660156 -16.207031 20.734375 -13.65625 C 22.816406 -11.101562 25.738281 -9.828125 29.5 -9.828125 C 32.257812 -9.828125 34.59375 -10.566406 36.5 -12.046875 C 38.414062 -13.523438 39.785156 -15.660156 40.609375 -18.453125 L 41.578125 -18.546875 L 50.625 -13.578125 C 49.332031 -9.296875 46.945312 -5.800781 43.46875 -3.09375 C 40 -0.382812 35.34375 0.96875 29.5 0.96875 Z M 29.5 0.96875 "/></g></g></g></svg>