<svg xmlns="http://www.w3.org/2000/svg" xmlns:xlink="http://www.w3.org/1999/xlink" width="2000" zoomAndPan="magnify" viewBox="0 0 1500 1124.99995" height="1500" preserveAspectRatio="xMidYMid meet" version="1.0"><defs><clipPath id="31c8ce4d61"><path d="M 848 334 L 864 334 L 864 920.589844 L 848 920.589844 Z M 848 334 " clip-rule="nonzero"/></clipPath><clipPath id="f71b3bd02e"><path d="M 430 740 L 1092 740 L 1092 920.589844 L 430 920.589844 Z M 430 740 " clip-rule="nonzero"/></clipPath><clipPath id="79e03668be"><path d="M 429 133.089844 L 1091 133.089844 L 1091 349 L 429 349 Z M 429 133.089844 " clip-rule="nonzero"/></clipPath><clipPath id="25928f52a8"><path d="M 627 133.089844 L 643 133.089844 L 643 163 L 627 163 Z M 627 133.089844 " clip-rule="nonzero"/></clipPath><clipPath id="c4f10d0648"><path d="M 979 684 L 1077 684 L 1077 780 L 979 780 Z M 979 684 " clip-rule="nonzero"/></clipPath><clipPath id="f88b78eb09"><path d="M 989.445312 789.976562 L 933.234375 730.621094 L 1030.164062 638.824219 L 1086.378906 698.179688 Z M 989.445312 789.976562 " clip-rule="nonzero"/></clipPath><clipPath id="16074094b0"><path d="M 989.445312 789.976562 L 933.234375 730.621094 L 1030.164062 638.824219 L 1086.378906 698.179688 Z M 989.445312 789.976562 " clip-rule="nonzero"/></clipPath></defs><rect x="-150" width="1800" fill="#ffffff" y="-112.499995" height="1349.99994" fill-opacity="1"/><rect x="-150" width="1800" fill="#ffffff" y="-112.499995" height="1349.99994" fill-opacity="1"/><path fill="#000000" d="M 437.355469 753.449219 C 433.296875 753.449219 430.007812 750.15625 430.007812 746.097656 L 429.355469 216.21875 C 429.355469 212.160156 432.648438 208.851562 436.703125 208.851562 C 440.761719 208.851562 444.054688 212.144531 444.054688 216.199219 L 444.703125 746.078125 C 444.703125 750.136719 441.414062 753.429688 437.355469 753.449219 " fill-opacity="1" fill-rule="nonzero"/><path fill="#000000" d="M 538.09375 888.613281 C 534.035156 888.613281 530.742188 885.320312 530.742188 881.261719 L 530.742188 319.015625 C 530.742188 314.957031 534.035156 311.664062 538.09375 311.664062 C 542.148438 311.664062 545.441406 314.957031 545.441406 319.015625 L 545.441406 881.261719 C 545.441406 885.320312 542.148438 888.613281 538.09375 888.613281 " fill-opacity="1" fill-rule="nonzero"/><g clip-path="url(#31c8ce4d61)"><path fill="#000000" d="M 855.878906 920.390625 C 851.824219 920.390625 848.53125 917.097656 848.53125 913.039062 L 848.53125 341.546875 C 848.53125 337.488281 851.824219 334.195312 855.878906 334.195312 C 859.9375 334.195312 863.230469 337.488281 863.230469 341.546875 L 863.230469 913.039062 C 863.230469 917.097656 859.9375 920.390625 855.878906 920.390625 " fill-opacity="1" fill-rule="nonzero"/></g><path fill="#000000" d="M 1084.453125 818.972656 C 1080.394531 818.972656 1077.101562 815.699219 1077.101562 811.640625 L 1075.839844 260.917969 C 1075.839844 256.859375 1079.113281 253.566406 1083.167969 253.546875 C 1083.1875 253.546875 1083.1875 253.546875 1083.1875 253.546875 C 1087.246094 253.546875 1090.539062 256.839844 1090.539062 260.878906 L 1091.800781 811.605469 C 1091.800781 815.660156 1088.527344 818.972656 1084.472656 818.972656 C 1084.453125 818.972656 1084.453125 818.972656 1084.453125 818.972656 " fill-opacity="1" fill-rule="nonzero"/><path fill="#000000" d="M 1084.453125 819.050781 C 1082.632812 819.050781 1080.796875 818.359375 1079.378906 817.019531 L 1068.742188 806.875 C 1065.792969 804.082031 1065.679688 799.429688 1068.492188 796.480469 C 1071.285156 793.550781 1075.9375 793.4375 1078.882812 796.234375 L 1089.523438 806.378906 C 1092.449219 809.171875 1092.566406 813.824219 1089.773438 816.753906 C 1088.335938 818.285156 1086.402344 819.050781 1084.453125 819.050781 " fill-opacity="1" fill-rule="nonzero"/><path fill="#000000" d="M 672.777344 662.007812 C 672.644531 662.007812 672.53125 662.007812 672.394531 661.988281 L 642.101562 660.476562 C 638.042969 660.265625 634.945312 656.820312 635.136719 652.761719 C 635.347656 648.722656 638.714844 645.542969 642.847656 645.792969 L 673.121094 647.304688 C 677.179688 647.515625 680.300781 650.960938 680.109375 655.019531 C 679.898438 658.945312 676.664062 662.007812 672.777344 662.007812 Z M 753.535156 666.027344 C 753.402344 666.027344 753.289062 666.027344 753.152344 666.027344 L 722.878906 664.515625 C 718.820312 664.304688 715.703125 660.859375 715.914062 656.800781 C 716.105469 652.742188 719.453125 649.640625 723.605469 649.832031 L 753.898438 651.34375 C 757.957031 651.535156 761.074219 654.980469 760.867188 659.039062 C 760.675781 662.964844 757.421875 666.027344 753.535156 666.027344 Z M 834.3125 670.066406 C 834.179688 670.066406 834.0625 670.066406 833.929688 670.046875 L 803.65625 668.535156 C 799.597656 668.34375 796.480469 664.898438 796.671875 660.839844 C 796.882812 656.78125 800.210938 653.660156 804.382812 653.851562 L 834.675781 655.363281 C 838.714844 655.574219 841.851562 659.019531 841.640625 663.078125 C 841.449219 667.003906 838.199219 670.066406 834.3125 670.066406 Z M 915.070312 674.105469 C 914.957031 674.105469 914.839844 674.085938 914.707031 674.085938 L 884.414062 672.574219 C 880.355469 672.363281 877.238281 668.917969 877.449219 664.859375 C 877.660156 660.820312 880.929688 657.660156 885.160156 657.890625 L 915.433594 659.402344 C 919.492188 659.613281 922.609375 663.058594 922.417969 667.117188 C 922.210938 671.042969 918.976562 674.105469 915.070312 674.105469 Z M 568.941406 692.117188 C 566.203125 692.117188 563.582031 690.585938 562.320312 687.964844 C 560.539062 684.308594 562.070312 679.90625 565.726562 678.144531 L 593.035156 664.953125 C 596.691406 663.195312 601.089844 664.726562 602.851562 668.382812 C 604.632812 672.039062 603.101562 676.441406 599.445312 678.199219 L 572.117188 691.390625 C 571.105469 691.886719 570.011719 692.117188 568.941406 692.117188 Z M 978.625 718.265625 C 976.808594 718.265625 974.988281 717.597656 973.554688 716.238281 L 951.585938 695.332031 C 948.65625 692.519531 948.542969 687.867188 951.335938 684.9375 C 954.128906 681.992188 958.796875 681.875 961.726562 684.671875 L 983.695312 705.59375 C 986.644531 708.386719 986.738281 713.039062 983.945312 715.988281 C 982.507812 717.5 980.558594 718.265625 978.625 718.265625 Z M 496.105469 727.28125 C 493.371094 727.28125 490.746094 725.75 489.484375 723.128906 C 487.722656 719.472656 489.253906 715.070312 492.910156 713.328125 L 520.21875 700.117188 C 523.855469 698.359375 528.257812 699.890625 530.035156 703.546875 C 531.796875 707.203125 530.265625 711.605469 526.609375 713.367188 L 499.300781 726.554688 C 498.269531 727.050781 497.179688 727.28125 496.105469 727.28125 Z M 1037.203125 774.046875 C 1035.386719 774.046875 1033.546875 773.375 1032.132812 772.015625 L 1010.164062 751.09375 C 1007.234375 748.300781 1007.121094 743.648438 1009.914062 740.699219 C 1012.707031 737.773438 1017.378906 737.65625 1020.304688 740.453125 L 1042.253906 761.375 C 1045.203125 764.167969 1045.316406 768.820312 1042.523438 771.75 C 1041.085938 773.28125 1039.136719 774.046875 1037.203125 774.046875 " fill-opacity="1" fill-rule="nonzero"/><path fill="#000000" d="M 437.355469 755.652344 C 434.617188 755.652344 431.996094 754.136719 430.734375 751.515625 C 428.972656 747.839844 430.503906 743.457031 434.160156 741.695312 L 447.382812 735.300781 C 451.039062 733.523438 455.441406 735.054688 457.199219 738.710938 C 458.960938 742.367188 457.429688 746.769531 453.773438 748.53125 L 440.550781 754.921875 C 439.519531 755.421875 438.425781 755.652344 437.355469 755.652344 " fill-opacity="1" fill-rule="nonzero"/><g clip-path="url(#f71b3bd02e)"><path fill="#000000" d="M 856.050781 920.390625 C 855.804688 920.390625 855.574219 920.390625 855.324219 920.351562 L 537.421875 888.480469 C 535.394531 888.269531 533.539062 887.234375 532.3125 885.609375 L 431.5 752.742188 C 429.050781 749.523438 429.683594 744.910156 432.898438 742.460938 C 436.148438 740.011719 440.742188 740.625 443.210938 743.859375 L 542.074219 874.179688 L 854.847656 905.535156 L 1081.464844 804.980469 C 1085.179688 803.316406 1089.523438 805 1091.167969 808.714844 C 1092.816406 812.425781 1091.148438 816.753906 1087.4375 818.417969 L 859.039062 919.757812 C 858.101562 920.179688 857.085938 920.390625 856.050781 920.390625 " fill-opacity="1" fill-rule="nonzero"/></g><g clip-path="url(#79e03668be)"><path fill="#000000" d="M 539.851562 311.875 L 853.125 334.097656 L 1067.6875 258.5625 L 930.496094 157.03125 L 636.4375 147.710938 L 449.738281 219.089844 Z M 854.121094 348.894531 C 853.949219 348.894531 853.773438 348.875 853.582031 348.875 L 536.007812 326.347656 C 534.207031 326.210938 532.523438 325.425781 531.261719 324.125 L 431.441406 221.332031 C 429.71875 219.550781 428.992188 217.023438 429.527344 214.613281 C 430.066406 212.199219 431.769531 210.230469 434.082031 209.347656 L 632.570312 133.449219 C 633.472656 133.105469 634.410156 132.933594 635.421875 132.96875 L 933.25 142.40625 C 934.742188 142.445312 936.179688 142.941406 937.382812 143.84375 L 1087.570312 255.003906 C 1089.753906 256.609375 1090.863281 259.308594 1090.460938 261.988281 C 1090.058594 264.6875 1088.203125 266.929688 1085.636719 267.847656 L 856.550781 348.472656 C 855.765625 348.761719 854.941406 348.894531 854.121094 348.894531 " fill-opacity="1" fill-rule="nonzero"/></g><g clip-path="url(#25928f52a8)"><path fill="#000000" d="M 635.191406 162.371094 C 631.136719 162.371094 627.84375 159.082031 627.84375 155.023438 L 627.84375 140.320312 C 627.84375 136.261719 631.136719 132.96875 635.191406 132.96875 C 639.25 132.96875 642.542969 136.261719 642.542969 140.320312 L 642.542969 155.023438 C 642.542969 159.082031 639.25 162.371094 635.191406 162.371094 " fill-opacity="1" fill-rule="nonzero"/></g><path fill="#000000" d="M 635.191406 235.285156 C 631.136719 235.285156 627.84375 231.992188 627.84375 227.933594 L 627.84375 200.601562 C 627.84375 196.523438 631.136719 193.25 635.191406 193.25 C 639.25 193.25 642.542969 196.523438 642.542969 200.601562 L 642.542969 227.933594 C 642.542969 231.992188 639.25 235.285156 635.191406 235.285156 Z M 635.191406 308.199219 C 631.136719 308.199219 627.84375 304.90625 627.84375 300.847656 L 627.84375 273.492188 C 627.84375 269.4375 631.136719 266.144531 635.191406 266.144531 C 639.25 266.144531 642.542969 269.4375 642.542969 273.492188 L 642.542969 300.847656 C 642.542969 304.90625 639.25 308.199219 635.191406 308.199219 Z M 635.191406 381.113281 C 631.136719 381.113281 627.84375 377.820312 627.84375 373.761719 L 627.84375 346.40625 C 627.84375 342.347656 631.136719 339.054688 635.191406 339.054688 C 639.25 339.054688 642.542969 342.347656 642.542969 346.40625 L 642.542969 373.761719 C 642.542969 377.820312 639.25 381.113281 635.191406 381.113281 Z M 635.191406 454.023438 C 631.136719 454.023438 627.84375 450.734375 627.84375 446.675781 L 627.84375 419.339844 C 627.84375 415.261719 631.136719 411.988281 635.191406 411.988281 C 639.25 411.988281 642.542969 415.261719 642.542969 419.339844 L 642.542969 446.675781 C 642.542969 450.734375 639.25 454.023438 635.191406 454.023438 Z M 635.191406 526.9375 C 631.136719 526.9375 627.84375 523.644531 627.84375 519.585938 L 627.84375 492.253906 C 627.84375 488.175781 631.136719 484.902344 635.191406 484.902344 C 639.25 484.902344 642.542969 488.175781 642.542969 492.253906 L 642.542969 519.585938 C 642.542969 523.644531 639.25 526.9375 635.191406 526.9375 Z M 635.191406 599.851562 C 631.136719 599.851562 627.84375 596.558594 627.84375 592.5 L 627.84375 565.144531 C 627.84375 561.089844 631.136719 557.796875 635.191406 557.796875 C 639.25 557.796875 642.542969 561.089844 642.542969 565.144531 L 642.542969 592.5 C 642.542969 596.558594 639.25 599.851562 635.191406 599.851562 " fill-opacity="1" fill-rule="nonzero"/><path fill="#000000" d="M 635.191406 660.113281 C 631.136719 660.113281 627.84375 656.839844 627.84375 652.761719 L 627.84375 638.058594 C 627.84375 634.019531 631.136719 630.707031 635.191406 630.707031 C 639.25 630.707031 642.542969 634.019531 642.542969 638.058594 L 642.542969 652.761719 C 642.542969 656.839844 639.25 660.113281 635.191406 660.113281 " fill-opacity="1" fill-rule="nonzero"/><path fill="#000000" d="M 934.34375 176.039062 C 930.285156 176.039062 926.992188 172.746094 926.992188 168.691406 L 926.992188 153.988281 C 926.992188 149.910156 930.285156 146.636719 934.34375 146.636719 C 938.398438 146.636719 941.691406 149.910156 941.691406 153.988281 L 941.691406 168.691406 C 941.691406 172.746094 938.398438 176.039062 934.34375 176.039062 " fill-opacity="1" fill-rule="nonzero"/><path fill="#000000" d="M 934.34375 248.953125 C 930.285156 248.953125 926.992188 245.660156 926.992188 241.601562 L 926.992188 214.25 C 926.992188 210.191406 930.285156 206.898438 934.34375 206.898438 C 938.398438 206.898438 941.691406 210.191406 941.691406 214.25 L 941.691406 241.601562 C 941.691406 245.660156 938.398438 248.953125 934.34375 248.953125 Z M 934.34375 321.867188 C 930.285156 321.867188 926.992188 318.574219 926.992188 314.515625 L 926.992188 287.160156 C 926.992188 283.101562 930.285156 279.8125 934.34375 279.8125 C 938.398438 279.8125 941.691406 283.101562 941.691406 287.160156 L 941.691406 314.515625 C 941.691406 318.574219 938.398438 321.867188 934.34375 321.867188 Z M 934.34375 394.78125 C 930.285156 394.78125 926.992188 391.488281 926.992188 387.429688 L 926.992188 360.074219 C 926.992188 356.015625 930.285156 352.722656 934.34375 352.722656 C 938.398438 352.722656 941.691406 356.015625 941.691406 360.074219 L 941.691406 387.429688 C 941.691406 391.488281 938.398438 394.78125 934.34375 394.78125 Z M 934.34375 467.691406 C 930.285156 467.691406 926.992188 464.402344 926.992188 460.34375 L 926.992188 432.988281 C 926.992188 428.929688 930.285156 425.636719 934.34375 425.636719 C 938.398438 425.636719 941.691406 428.929688 941.691406 432.988281 L 941.691406 460.34375 C 941.691406 464.402344 938.398438 467.691406 934.34375 467.691406 Z M 934.34375 540.605469 C 930.285156 540.605469 926.992188 537.3125 926.992188 533.253906 L 926.992188 505.902344 C 926.992188 501.84375 930.285156 498.550781 934.34375 498.550781 C 938.398438 498.550781 941.691406 501.84375 941.691406 505.902344 L 941.691406 533.253906 C 941.691406 537.3125 938.398438 540.605469 934.34375 540.605469 Z M 934.34375 613.5 C 930.285156 613.5 926.992188 610.226562 926.992188 606.148438 L 926.992188 578.8125 C 926.992188 574.757812 930.285156 571.464844 934.34375 571.464844 C 938.398438 571.464844 941.691406 574.757812 941.691406 578.8125 L 941.691406 606.148438 C 941.691406 610.226562 938.398438 613.5 934.34375 613.5 " fill-opacity="1" fill-rule="nonzero"/><path fill="#000000" d="M 934.34375 673.777344 C 930.285156 673.777344 926.992188 670.488281 926.992188 666.429688 L 926.992188 651.726562 C 926.992188 647.667969 930.285156 644.375 934.34375 644.375 C 938.398438 644.375 941.691406 647.667969 941.691406 651.726562 L 941.691406 666.429688 C 941.691406 670.488281 938.398438 673.777344 934.34375 673.777344 " fill-opacity="1" fill-rule="nonzero"/><g clip-path="url(#c4f10d0648)"><g clip-path="url(#f88b78eb09)"><g clip-path="url(#16074094b0)"><path fill="#cc0829" d="M 981.8125 684.839844 L 1076.167969 687.402344 L 1075.601562 708.160156 L 1002.003906 706.164062 L 999.996094 779.761719 L 979.238281 779.195312 Z M 981.8125 684.839844 " fill-opacity="1" fill-rule="nonzero"/></g></g></g></svg>