<svg xmlns="http://www.w3.org/2000/svg" xmlns:xlink="http://www.w3.org/1999/xlink" width="2000" zoomAndPan="magnify" viewBox="0 0 1500 1124.99995" height="1500" preserveAspectRatio="xMidYMid meet" version="1.0"><defs><g/><clipPath id="1d8ce19c8c"><path d="M 312 187 L 1189 187 L 1189 939.449219 L 312 939.449219 Z M 312 187 " clip-rule="nonzero"/></clipPath><clipPath id="a6f2e7e2f5"><path d="M 668 785 L 730 785 L 730 846 L 668 846 Z M 668 785 " clip-rule="nonzero"/></clipPath><clipPath id="4581e7ac5a"><path d="M 674.734375 852.34375 L 639.148438 814.769531 L 700.683594 756.496094 L 736.269531 794.070312 Z M 674.734375 852.34375 " clip-rule="nonzero"/></clipPath><clipPath id="1f90659533"><path d="M 674.734375 852.34375 L 639.148438 814.769531 L 700.683594 756.496094 L 736.269531 794.070312 Z M 674.734375 852.34375 " clip-rule="nonzero"/></clipPath></defs><rect x="-150" width="1800" fill="#ffffff" y="-112.499995" height="1349.99994" fill-opacity="1"/><rect x="-150" width="1800" fill="#ffffff" y="-112.499995" height="1349.99994" fill-opacity="1"/><rect x="-150" width="1800" fill="#ffffff" y="-112.499995" height="1349.99994" fill-opacity="1"/><path fill="#0f0f0f" d="M 735.042969 229.324219 L 719.355469 224.898438 L 728.203125 193.5 L 743.886719 197.925781 Z M 1147.832031 783.777344 L 1147.894531 767.46875 L 1180.488281 767.585938 L 1180.425781 783.894531 Z M 315.980469 918.238281 L 334.921875 906.882812 L 343.296875 920.871094 L 324.359375 932.226562 Z M 357.277344 912.492188 L 348.902344 898.496094 L 376.863281 881.734375 L 385.246094 895.726562 Z M 399.230469 887.34375 L 390.847656 873.355469 L 418.816406 856.59375 L 427.191406 870.582031 Z M 441.171875 862.199219 L 432.796875 848.210938 L 460.761719 831.449219 L 469.140625 845.4375 Z M 483.121094 837.058594 L 474.742188 823.070312 L 502.710938 806.308594 L 511.085938 820.296875 Z M 525.070312 811.914062 L 516.695312 797.925781 L 544.65625 781.164062 L 553.035156 795.152344 Z M 567.011719 786.777344 L 558.632812 772.785156 C 574.867188 763.046875 569.09375 765.339844 593.714844 765.433594 L 593.65625 781.742188 L 575.527344 781.675781 Z M 609.957031 781.796875 L 610.019531 765.488281 L 642.617188 765.609375 L 642.558594 781.917969 Z M 658.855469 781.980469 L 658.917969 765.671875 L 691.515625 765.789062 L 691.457031 782.101562 Z M 707.753906 782.15625 L 707.816406 765.847656 L 740.414062 765.96875 L 740.351562 782.277344 Z M 756.652344 782.339844 L 756.714844 766.027344 L 789.3125 766.152344 L 789.25 782.460938 Z M 805.550781 782.523438 L 805.613281 766.210938 L 838.210938 766.332031 L 838.148438 782.640625 Z M 854.449219 782.703125 L 854.511719 766.394531 L 887.109375 766.511719 L 887.046875 782.820312 Z M 903.34375 782.878906 L 903.402344 766.570312 L 936.003906 766.6875 L 935.941406 782.996094 Z M 952.242188 783.058594 L 952.300781 766.75 L 984.902344 766.867188 L 984.839844 783.179688 Z M 1001.136719 783.238281 L 1001.199219 766.929688 L 1033.796875 767.046875 L 1033.738281 783.359375 Z M 1050.035156 783.417969 L 1050.097656 767.109375 L 1082.695312 767.230469 L 1082.636719 783.539062 Z M 1098.933594 783.597656 L 1098.996094 767.285156 L 1131.59375 767.40625 L 1131.535156 783.714844 Z M 589.128906 747.34375 L 573.4375 742.917969 L 582.285156 711.519531 L 597.976562 715.945312 Z M 602.398438 700.25 L 586.710938 695.824219 L 595.554688 664.425781 L 611.242188 668.851562 Z M 615.664062 653.15625 L 599.972656 648.730469 L 608.820312 617.335938 L 624.511719 621.761719 Z M 628.925781 606.0625 L 613.234375 601.632812 L 622.078125 570.238281 L 637.769531 574.664062 Z M 642.1875 558.96875 L 626.5 554.542969 L 635.347656 523.148438 L 651.035156 527.574219 Z M 655.457031 511.878906 L 639.765625 507.453125 L 648.613281 476.058594 L 664.300781 480.484375 Z M 668.71875 464.785156 L 653.035156 460.359375 L 661.878906 428.964844 L 677.566406 433.390625 Z M 681.988281 417.691406 L 666.296875 413.269531 L 675.140625 381.871094 L 690.832031 386.296875 Z M 695.25 370.597656 L 679.5625 366.171875 L 688.40625 334.777344 L 704.097656 339.203125 Z M 708.515625 323.507812 L 692.828125 319.082031 L 701.671875 287.6875 L 717.359375 292.113281 Z M 721.78125 276.414062 L 706.089844 271.988281 L 714.933594 240.59375 L 730.625 245.019531 Z M 721.78125 276.414062 " fill-opacity="1" fill-rule="evenodd"/><g clip-path="url(#1d8ce19c8c)"><path fill="#000000" d="M 313.101562 921.214844 L 728.976562 191.703125 C 731.804688 186.734375 738.988281 185.847656 742.792969 191.152344 L 1187.683594 772.015625 C 1189.738281 776.007812 1188.171875 780.914062 1184.179688 782.972656 L 884.285156 937.40625 C 881.828125 939.148438 881.191406 939.660156 878.003906 939.644531 L 320.105469 933.351562 C 313.824219 933.292969 310.097656 926.511719 313.109375 921.21875 Z M 879.878906 895.101562 L 884.574219 919.316406 L 1168.089844 772.976562 L 750.605469 228.09375 Z M 732.234375 218.8125 L 334.066406 917.261719 L 868.769531 923.289062 Z M 732.234375 218.8125 " fill-opacity="1" fill-rule="evenodd"/></g><path fill="#5e17eb" d="M 729.261719 845.601562 L 729.261719 778.109375 C 729.261719 777.664062 729.304688 777.226562 729.390625 776.792969 C 729.480469 776.355469 729.605469 775.933594 729.777344 775.527344 C 729.945312 775.117188 730.152344 774.726562 730.398438 774.359375 C 730.644531 773.988281 730.925781 773.648438 731.238281 773.335938 C 731.554688 773.023438 731.894531 772.742188 732.261719 772.496094 C 732.632812 772.25 733.019531 772.042969 733.429688 771.871094 C 733.839844 771.703125 734.261719 771.574219 734.695312 771.488281 C 735.128906 771.402344 735.570312 771.359375 736.011719 771.359375 C 736.457031 771.359375 736.894531 771.402344 737.328125 771.488281 C 737.765625 771.574219 738.1875 771.703125 738.597656 771.871094 C 739.003906 772.042969 739.394531 772.25 739.761719 772.496094 C 740.132812 772.742188 740.472656 773.023438 740.785156 773.335938 C 741.097656 773.648438 741.378906 773.988281 741.625 774.359375 C 741.871094 774.726562 742.078125 775.117188 742.25 775.527344 C 742.417969 775.933594 742.546875 776.355469 742.632812 776.792969 C 742.71875 777.226562 742.761719 777.664062 742.761719 778.109375 L 742.761719 845.601562 C 742.761719 846.042969 742.71875 846.484375 742.632812 846.917969 C 742.546875 847.351562 742.417969 847.773438 742.25 848.183594 C 742.078125 848.59375 741.871094 848.984375 741.625 849.351562 C 741.378906 849.71875 741.097656 850.0625 740.785156 850.375 C 740.472656 850.6875 740.132812 850.96875 739.761719 851.214844 C 739.394531 851.460938 739.003906 851.667969 738.597656 851.835938 C 738.1875 852.007812 737.765625 852.132812 737.328125 852.222656 C 736.894531 852.308594 736.457031 852.351562 736.011719 852.351562 C 735.570312 852.351562 735.128906 852.308594 734.695312 852.222656 C 734.261719 852.132812 733.839844 852.007812 733.429688 851.835938 C 733.019531 851.667969 732.632812 851.460938 732.261719 851.214844 C 731.894531 850.96875 731.554688 850.6875 731.238281 850.375 C 730.925781 850.0625 730.644531 849.71875 730.398438 849.351562 C 730.152344 848.984375 729.945312 848.59375 729.777344 848.183594 C 729.605469 847.773438 729.480469 847.351562 729.390625 846.917969 C 729.304688 846.484375 729.261719 846.042969 729.261719 845.601562 Z M 729.261719 751.109375 L 729.261719 683.617188 C 729.261719 683.175781 729.304688 682.734375 729.390625 682.300781 C 729.480469 681.867188 729.605469 681.445312 729.777344 681.035156 C 729.945312 680.625 730.152344 680.238281 730.398438 679.867188 C 730.644531 679.5 730.925781 679.160156 731.238281 678.84375 C 731.554688 678.53125 731.894531 678.253906 732.261719 678.007812 C 732.632812 677.757812 733.019531 677.550781 733.429688 677.382812 C 733.839844 677.210938 734.261719 677.085938 734.695312 677 C 735.128906 676.910156 735.570312 676.867188 736.011719 676.867188 C 736.457031 676.867188 736.894531 676.910156 737.328125 677 C 737.765625 677.085938 738.1875 677.210938 738.597656 677.382812 C 739.003906 677.550781 739.394531 677.757812 739.761719 678.007812 C 740.132812 678.253906 740.472656 678.53125 740.785156 678.84375 C 741.097656 679.160156 741.378906 679.5 741.625 679.867188 C 741.871094 680.238281 742.078125 680.625 742.25 681.035156 C 742.417969 681.445312 742.546875 681.867188 742.632812 682.300781 C 742.71875 682.734375 742.761719 683.175781 742.761719 683.617188 L 742.761719 751.109375 C 742.761719 751.554688 742.71875 751.992188 742.632812 752.425781 C 742.546875 752.863281 742.417969 753.285156 742.25 753.695312 C 742.078125 754.101562 741.871094 754.492188 741.625 754.859375 C 741.378906 755.230469 741.097656 755.570312 740.785156 755.882812 C 740.472656 756.195312 740.132812 756.476562 739.761719 756.722656 C 739.394531 756.96875 739.003906 757.175781 738.597656 757.347656 C 738.1875 757.515625 737.765625 757.644531 737.328125 757.730469 C 736.894531 757.816406 736.457031 757.859375 736.011719 757.859375 C 735.570312 757.859375 735.128906 757.816406 734.695312 757.730469 C 734.261719 757.644531 733.839844 757.515625 733.429688 757.347656 C 733.019531 757.175781 732.632812 756.96875 732.261719 756.722656 C 731.894531 756.476562 731.554688 756.195312 731.238281 755.882812 C 730.925781 755.570312 730.644531 755.230469 730.398438 754.859375 C 730.152344 754.492188 729.945312 754.101562 729.777344 753.695312 C 729.605469 753.285156 729.480469 752.863281 729.390625 752.425781 C 729.304688 751.992188 729.261719 751.554688 729.261719 751.109375 Z M 729.261719 656.621094 L 729.261719 589.128906 C 729.261719 588.683594 729.304688 588.246094 729.390625 587.8125 C 729.480469 587.375 729.605469 586.953125 729.777344 586.542969 C 729.945312 586.136719 730.152344 585.746094 730.398438 585.378906 C 730.644531 585.007812 730.925781 584.667969 731.238281 584.355469 C 731.554688 584.042969 731.894531 583.761719 732.261719 583.515625 C 732.632812 583.269531 733.019531 583.0625 733.429688 582.890625 C 733.839844 582.722656 734.261719 582.59375 734.695312 582.507812 C 735.128906 582.421875 735.570312 582.378906 736.011719 582.378906 C 736.457031 582.378906 736.894531 582.421875 737.328125 582.507812 C 737.765625 582.59375 738.1875 582.722656 738.597656 582.890625 C 739.003906 583.0625 739.394531 583.269531 739.761719 583.515625 C 740.132812 583.761719 740.472656 584.042969 740.785156 584.355469 C 741.097656 584.667969 741.378906 585.007812 741.625 585.378906 C 741.871094 585.746094 742.078125 586.136719 742.25 586.542969 C 742.417969 586.953125 742.546875 587.375 742.632812 587.8125 C 742.71875 588.246094 742.761719 588.683594 742.761719 589.128906 L 742.761719 656.621094 C 742.761719 657.0625 742.71875 657.503906 742.632812 657.9375 C 742.546875 658.371094 742.417969 658.792969 742.25 659.203125 C 742.078125 659.613281 741.871094 660 741.625 660.371094 C 741.378906 660.738281 741.097656 661.078125 740.785156 661.394531 C 740.472656 661.707031 740.132812 661.984375 739.761719 662.230469 C 739.394531 662.480469 739.003906 662.6875 738.597656 662.855469 C 738.1875 663.027344 737.765625 663.152344 737.328125 663.238281 C 736.894531 663.328125 736.457031 663.371094 736.011719 663.371094 C 735.570312 663.371094 735.128906 663.328125 734.695312 663.238281 C 734.261719 663.152344 733.839844 663.027344 733.429688 662.855469 C 733.019531 662.6875 732.632812 662.480469 732.261719 662.230469 C 731.894531 661.984375 731.554688 661.707031 731.238281 661.394531 C 730.925781 661.078125 730.644531 660.738281 730.398438 660.371094 C 730.152344 660 729.945312 659.613281 729.777344 659.203125 C 729.605469 658.792969 729.480469 658.371094 729.390625 657.9375 C 729.304688 657.503906 729.261719 657.0625 729.261719 656.621094 Z M 729.261719 562.128906 L 729.261719 494.636719 C 729.261719 494.195312 729.304688 493.753906 729.390625 493.320312 C 729.480469 492.886719 729.605469 492.464844 729.777344 492.054688 C 729.945312 491.644531 730.152344 491.253906 730.398438 490.886719 C 730.644531 490.519531 730.925781 490.179688 731.238281 489.863281 C 731.554688 489.550781 731.894531 489.269531 732.261719 489.023438 C 732.632812 488.777344 733.019531 488.570312 733.429688 488.402344 C 733.839844 488.230469 734.261719 488.105469 734.695312 488.015625 C 735.128906 487.929688 735.570312 487.886719 736.011719 487.886719 C 736.457031 487.886719 736.894531 487.929688 737.328125 488.015625 C 737.765625 488.105469 738.1875 488.230469 738.597656 488.402344 C 739.003906 488.570312 739.394531 488.777344 739.761719 489.023438 C 740.132812 489.269531 740.472656 489.550781 740.785156 489.863281 C 741.097656 490.179688 741.378906 490.519531 741.625 490.886719 C 741.871094 491.253906 742.078125 491.644531 742.25 492.054688 C 742.417969 492.464844 742.546875 492.886719 742.632812 493.320312 C 742.71875 493.753906 742.761719 494.195312 742.761719 494.636719 L 742.761719 562.128906 C 742.761719 562.574219 742.71875 563.011719 742.632812 563.445312 C 742.546875 563.882812 742.417969 564.304688 742.25 564.714844 C 742.078125 565.121094 741.871094 565.511719 741.625 565.878906 C 741.378906 566.25 741.097656 566.589844 740.785156 566.902344 C 740.472656 567.214844 740.132812 567.496094 739.761719 567.742188 C 739.394531 567.988281 739.003906 568.195312 738.597656 568.367188 C 738.1875 568.535156 737.765625 568.664062 737.328125 568.75 C 736.894531 568.835938 736.457031 568.878906 736.011719 568.878906 C 735.570312 568.878906 735.128906 568.835938 734.695312 568.75 C 734.261719 568.664062 733.839844 568.535156 733.429688 568.367188 C 733.019531 568.195312 732.632812 567.988281 732.261719 567.742188 C 731.894531 567.496094 731.554688 567.214844 731.238281 566.902344 C 730.925781 566.589844 730.644531 566.25 730.398438 565.878906 C 730.152344 565.511719 729.945312 565.121094 729.777344 564.714844 C 729.605469 564.304688 729.480469 563.882812 729.390625 563.445312 C 729.304688 563.011719 729.261719 562.574219 729.261719 562.128906 Z M 729.261719 467.640625 L 729.261719 400.144531 C 729.261719 399.703125 729.304688 399.265625 729.390625 398.828125 C 729.480469 398.394531 729.605469 397.972656 729.777344 397.5625 C 729.945312 397.152344 730.152344 396.765625 730.398438 396.398438 C 730.644531 396.027344 730.925781 395.6875 731.238281 395.375 C 731.554688 395.0625 731.894531 394.78125 732.261719 394.535156 C 732.632812 394.289062 733.019531 394.082031 733.429688 393.910156 C 733.839844 393.742188 734.261719 393.613281 734.695312 393.527344 C 735.128906 393.441406 735.570312 393.398438 736.011719 393.398438 C 736.457031 393.398438 736.894531 393.441406 737.328125 393.527344 C 737.765625 393.613281 738.1875 393.742188 738.597656 393.910156 C 739.003906 394.082031 739.394531 394.289062 739.761719 394.535156 C 740.132812 394.78125 740.472656 395.0625 740.785156 395.375 C 741.097656 395.6875 741.378906 396.027344 741.625 396.398438 C 741.871094 396.765625 742.078125 397.152344 742.25 397.5625 C 742.417969 397.972656 742.546875 398.394531 742.632812 398.828125 C 742.71875 399.265625 742.761719 399.703125 742.761719 400.144531 L 742.761719 467.640625 C 742.761719 468.082031 742.71875 468.523438 742.632812 468.957031 C 742.546875 469.390625 742.417969 469.8125 742.25 470.222656 C 742.078125 470.632812 741.871094 471.019531 741.625 471.390625 C 741.378906 471.757812 741.097656 472.097656 740.785156 472.414062 C 740.472656 472.726562 740.132812 473.003906 739.761719 473.25 C 739.394531 473.496094 739.003906 473.707031 738.597656 473.875 C 738.1875 474.042969 737.765625 474.171875 737.328125 474.257812 C 736.894531 474.347656 736.457031 474.390625 736.011719 474.390625 C 735.570312 474.390625 735.128906 474.347656 734.695312 474.257812 C 734.261719 474.171875 733.839844 474.042969 733.429688 473.875 C 733.019531 473.707031 732.632812 473.496094 732.261719 473.25 C 731.894531 473.003906 731.554688 472.726562 731.238281 472.414062 C 730.925781 472.097656 730.644531 471.757812 730.398438 471.390625 C 730.152344 471.019531 729.945312 470.632812 729.777344 470.222656 C 729.605469 469.8125 729.480469 469.390625 729.390625 468.957031 C 729.304688 468.523438 729.261719 468.082031 729.261719 467.640625 Z M 729.261719 373.148438 L 729.261719 305.65625 C 729.261719 305.210938 729.304688 304.773438 729.390625 304.339844 C 729.480469 303.90625 729.605469 303.484375 729.777344 303.074219 C 729.945312 302.664062 730.152344 302.273438 730.398438 301.90625 C 730.644531 301.539062 730.925781 301.195312 731.238281 300.882812 C 731.554688 300.570312 731.894531 300.289062 732.261719 300.042969 C 732.632812 299.796875 733.019531 299.589844 733.429688 299.421875 C 733.839844 299.25 734.261719 299.121094 734.695312 299.035156 C 735.128906 298.949219 735.570312 298.90625 736.011719 298.90625 C 736.457031 298.90625 736.894531 298.949219 737.328125 299.035156 C 737.765625 299.121094 738.1875 299.25 738.597656 299.421875 C 739.003906 299.589844 739.394531 299.796875 739.761719 300.042969 C 740.132812 300.289062 740.472656 300.570312 740.785156 300.882812 C 741.097656 301.195312 741.378906 301.539062 741.625 301.90625 C 741.871094 302.273438 742.078125 302.664062 742.25 303.074219 C 742.417969 303.484375 742.546875 303.90625 742.632812 304.339844 C 742.71875 304.773438 742.761719 305.210938 742.761719 305.65625 L 742.761719 373.148438 C 742.761719 373.59375 742.71875 374.03125 742.632812 374.464844 C 742.546875 374.902344 742.417969 375.324219 742.25 375.730469 C 742.078125 376.140625 741.871094 376.53125 741.625 376.898438 C 741.378906 377.265625 741.097656 377.609375 740.785156 377.921875 C 740.472656 378.234375 740.132812 378.515625 739.761719 378.761719 C 739.394531 379.007812 739.003906 379.214844 738.597656 379.386719 C 738.1875 379.554688 737.765625 379.683594 737.328125 379.769531 C 736.894531 379.855469 736.457031 379.898438 736.011719 379.898438 C 735.570312 379.898438 735.128906 379.855469 734.695312 379.769531 C 734.261719 379.683594 733.839844 379.554688 733.429688 379.386719 C 733.019531 379.214844 732.632812 379.007812 732.261719 378.761719 C 731.894531 378.515625 731.554688 378.234375 731.238281 377.921875 C 730.925781 377.609375 730.644531 377.265625 730.398438 376.898438 C 730.152344 376.53125 729.945312 376.140625 729.777344 375.730469 C 729.605469 375.324219 729.480469 374.902344 729.390625 374.464844 C 729.304688 374.03125 729.261719 373.59375 729.261719 373.148438 Z M 729.261719 278.660156 L 729.261719 278.59375 C 729.261719 278.148438 729.304688 277.710938 729.390625 277.273438 C 729.480469 276.839844 729.605469 276.417969 729.777344 276.007812 C 729.945312 275.601562 730.152344 275.210938 730.398438 274.84375 C 730.644531 274.472656 730.925781 274.132812 731.238281 273.820312 C 731.554688 273.507812 731.894531 273.226562 732.261719 272.980469 C 732.632812 272.734375 733.019531 272.527344 733.429688 272.355469 C 733.839844 272.1875 734.261719 272.058594 734.695312 271.972656 C 735.128906 271.886719 735.570312 271.84375 736.011719 271.84375 C 736.457031 271.84375 736.894531 271.886719 737.328125 271.972656 C 737.765625 272.058594 738.1875 272.1875 738.597656 272.355469 C 739.003906 272.527344 739.394531 272.734375 739.761719 272.980469 C 740.132812 273.226562 740.472656 273.507812 740.785156 273.820312 C 741.097656 274.132812 741.378906 274.472656 741.625 274.84375 C 741.871094 275.210938 742.078125 275.601562 742.25 276.007812 C 742.417969 276.417969 742.546875 276.839844 742.632812 277.277344 C 742.71875 277.710938 742.761719 278.148438 742.761719 278.59375 L 742.761719 278.660156 C 742.761719 279.101562 742.71875 279.539062 742.632812 279.976562 C 742.546875 280.410156 742.417969 280.832031 742.25 281.242188 C 742.078125 281.652344 741.871094 282.039062 741.625 282.410156 C 741.378906 282.777344 741.097656 283.117188 740.785156 283.429688 C 740.472656 283.746094 740.132812 284.023438 739.761719 284.269531 C 739.394531 284.515625 739.003906 284.726562 738.597656 284.894531 C 738.1875 285.0625 737.765625 285.191406 737.328125 285.277344 C 736.894531 285.363281 736.457031 285.40625 736.011719 285.40625 C 735.570312 285.40625 735.128906 285.363281 734.695312 285.277344 C 734.261719 285.191406 733.839844 285.0625 733.429688 284.894531 C 733.019531 284.726562 732.632812 284.515625 732.261719 284.269531 C 731.894531 284.023438 731.554688 283.746094 731.238281 283.429688 C 730.925781 283.117188 730.644531 282.777344 730.398438 282.410156 C 730.152344 282.039062 729.945312 281.652344 729.777344 281.242188 C 729.605469 280.832031 729.480469 280.410156 729.390625 279.976562 C 729.304688 279.539062 729.261719 279.101562 729.261719 278.660156 Z M 729.261719 278.660156 " fill-opacity="1" fill-rule="nonzero"/><g clip-path="url(#a6f2e7e2f5)"><g clip-path="url(#4581e7ac5a)"><g clip-path="url(#1f90659533)"><path fill="#cc0829" d="M 669.988281 785.707031 L 729.808594 787.246094 L 729.429688 800.40625 L 682.769531 799.207031 L 681.433594 845.859375 L 668.269531 845.523438 Z M 669.988281 785.707031 " fill-opacity="1" fill-rule="nonzero"/></g></g></g><g fill="#5e17eb" fill-opacity="1"><g transform="translate(657.95605, 654.671996)"><g><path d="M 7.296875 0 L 7.296875 -70.953125 L 20.015625 -70.953125 L 20.015625 -44.015625 L 20.96875 -43.828125 C 22.65625 -46.304688 24.722656 -48.21875 27.171875 -49.5625 C 29.617188 -50.90625 32.570312 -51.578125 36.03125 -51.578125 C 47.195312 -51.578125 52.78125 -45.242188 52.78125 -32.578125 L 52.78125 0 L 40.0625 0 L 40.0625 -30.96875 C 40.0625 -34.425781 39.375 -36.9375 38 -38.5 C 36.625 -40.0625 34.484375 -40.84375 31.578125 -40.84375 C 28.023438 -40.84375 25.207031 -39.65625 23.125 -37.28125 C 21.050781 -34.914062 20.015625 -31.222656 20.015625 -26.203125 L 20.015625 0 Z M 7.296875 0 "/></g></g></g></svg>