<svg xmlns="http://www.w3.org/2000/svg" xmlns:xlink="http://www.w3.org/1999/xlink" width="2000" zoomAndPan="magnify" viewBox="0 0 1500 1124.99995" height="1500" preserveAspectRatio="xMidYMid meet" version="1.0"><defs><g/><clipPath id="14d53635dd"><path d="M 312 187 L 1189 187 L 1189 939.449219 L 312 939.449219 Z M 312 187 " clip-rule="nonzero"/></clipPath></defs><rect x="-150" width="1800" fill="#ffffff" y="-112.499995" height="1349.99994" fill-opacity="1"/><rect x="-150" width="1800" fill="#ffffff" y="-112.499995" height="1349.99994" fill-opacity="1"/><path fill="#0f0f0f" d="M 735.042969 229.324219 L 719.355469 224.898438 L 728.203125 193.5 L 743.886719 197.925781 Z M 1147.832031 783.777344 L 1147.894531 767.46875 L 1180.488281 767.585938 L 1180.425781 783.894531 Z M 315.980469 918.238281 L 334.921875 906.882812 L 343.296875 920.871094 L 324.359375 932.226562 Z M 357.277344 912.492188 L 348.902344 898.496094 L 376.863281 881.734375 L 385.246094 895.726562 Z M 399.230469 887.34375 L 390.847656 873.355469 L 418.816406 856.59375 L 427.191406 870.582031 Z M 441.171875 862.199219 L 432.796875 848.210938 L 460.761719 831.449219 L 469.140625 845.4375 Z M 483.121094 837.058594 L 474.742188 823.070312 L 502.710938 806.308594 L 511.085938 820.296875 Z M 525.070312 811.914062 L 516.695312 797.925781 L 544.65625 781.164062 L 553.035156 795.152344 Z M 567.011719 786.777344 L 558.632812 772.785156 C 574.867188 763.046875 569.09375 765.339844 593.714844 765.433594 L 593.65625 781.742188 L 575.527344 781.675781 Z M 609.957031 781.796875 L 610.019531 765.488281 L 642.617188 765.609375 L 642.558594 781.917969 Z M 658.855469 781.980469 L 658.917969 765.671875 L 691.515625 765.789062 L 691.457031 782.101562 Z M 707.753906 782.15625 L 707.816406 765.847656 L 740.414062 765.96875 L 740.351562 782.277344 Z M 756.652344 782.339844 L 756.714844 766.027344 L 789.3125 766.152344 L 789.25 782.460938 Z M 805.550781 782.523438 L 805.613281 766.210938 L 838.210938 766.332031 L 838.148438 782.640625 Z M 854.449219 782.703125 L 854.511719 766.394531 L 887.109375 766.511719 L 887.046875 782.820312 Z M 903.34375 782.878906 L 903.402344 766.570312 L 936.003906 766.6875 L 935.941406 782.996094 Z M 952.242188 783.058594 L 952.300781 766.75 L 984.902344 766.867188 L 984.839844 783.179688 Z M 1001.136719 783.238281 L 1001.199219 766.929688 L 1033.796875 767.050781 L 1033.738281 783.359375 Z M 1050.035156 783.417969 L 1050.097656 767.109375 L 1082.695312 767.230469 L 1082.636719 783.539062 Z M 1098.933594 783.597656 L 1098.996094 767.285156 L 1131.59375 767.40625 L 1131.535156 783.714844 Z M 589.128906 747.34375 L 573.4375 742.917969 L 582.285156 711.519531 L 597.976562 715.945312 Z M 602.398438 700.25 L 586.710938 695.824219 L 595.554688 664.425781 L 611.242188 668.851562 Z M 615.664062 653.15625 L 599.972656 648.730469 L 608.820312 617.335938 L 624.511719 621.761719 Z M 628.925781 606.0625 L 613.234375 601.632812 L 622.078125 570.238281 L 637.769531 574.664062 Z M 642.1875 558.96875 L 626.5 554.542969 L 635.347656 523.148438 L 651.035156 527.574219 Z M 655.457031 511.878906 L 639.765625 507.453125 L 648.613281 476.058594 L 664.300781 480.484375 Z M 668.71875 464.785156 L 653.035156 460.359375 L 661.878906 428.964844 L 677.566406 433.390625 Z M 681.988281 417.691406 L 666.296875 413.269531 L 675.140625 381.871094 L 690.832031 386.296875 Z M 695.25 370.597656 L 679.5625 366.171875 L 688.40625 334.777344 L 704.097656 339.203125 Z M 708.515625 323.507812 L 692.828125 319.082031 L 701.671875 287.6875 L 717.359375 292.113281 Z M 721.78125 276.414062 L 706.089844 271.988281 L 714.933594 240.59375 L 730.625 245.019531 Z M 721.78125 276.414062 " fill-opacity="1" fill-rule="evenodd"/><g clip-path="url(#14d53635dd)"><path fill="#000000" d="M 313.101562 921.21875 L 728.976562 191.703125 C 731.804688 186.734375 738.988281 185.847656 742.792969 191.15625 L 1187.683594 772.015625 C 1189.738281 776.007812 1188.171875 780.914062 1184.179688 782.972656 L 884.285156 937.40625 C 881.828125 939.148438 881.191406 939.660156 878.003906 939.644531 L 320.105469 933.351562 C 313.824219 933.292969 310.097656 926.511719 313.109375 921.21875 Z M 879.878906 895.101562 L 884.574219 919.316406 L 1168.089844 772.976562 L 750.605469 228.09375 Z M 732.234375 218.8125 L 334.066406 917.261719 L 868.769531 923.289062 Z M 732.234375 218.8125 " fill-opacity="1" fill-rule="evenodd"/></g><path fill="#5e17eb" d="M 723.402344 838.527344 L 723.671875 771 C 723.675781 770.558594 723.71875 770.117188 723.808594 769.683594 C 723.894531 769.25 724.023438 768.828125 724.195312 768.417969 C 724.367188 768.007812 724.578125 767.621094 724.824219 767.253906 C 725.074219 766.886719 725.351562 766.546875 725.667969 766.234375 C 725.984375 765.921875 726.324219 765.644531 726.695312 765.398438 C 727.0625 765.152344 727.453125 764.945312 727.863281 764.777344 C 728.273438 764.609375 728.695312 764.484375 729.132812 764.398438 C 729.566406 764.316406 730.003906 764.273438 730.449219 764.273438 C 730.890625 764.277344 731.332031 764.320312 731.765625 764.410156 C 732.199219 764.496094 732.621094 764.628906 733.03125 764.800781 C 733.4375 764.96875 733.828125 765.179688 734.195312 765.429688 C 734.5625 765.675781 734.902344 765.957031 735.214844 766.273438 C 735.527344 766.585938 735.804688 766.929688 736.050781 767.296875 C 736.292969 767.667969 736.5 768.058594 736.667969 768.46875 C 736.835938 768.878906 736.960938 769.300781 737.046875 769.738281 C 737.132812 770.171875 737.171875 770.609375 737.171875 771.054688 L 736.902344 838.582031 C 736.902344 839.023438 736.855469 839.464844 736.769531 839.898438 C 736.679688 840.332031 736.550781 840.753906 736.378906 841.164062 C 736.207031 841.570312 736 841.960938 735.75 842.328125 C 735.503906 842.695312 735.222656 843.035156 734.90625 843.347656 C 734.59375 843.660156 734.25 843.9375 733.882812 844.183594 C 733.511719 844.429688 733.121094 844.636719 732.710938 844.804688 C 732.300781 844.972656 731.878906 845.097656 731.445312 845.183594 C 731.007812 845.265625 730.570312 845.308594 730.125 845.308594 C 729.683594 845.304688 729.246094 845.261719 728.808594 845.171875 C 728.375 845.082031 727.953125 844.953125 727.546875 844.78125 C 727.136719 844.609375 726.75 844.402344 726.378906 844.152344 C 726.011719 843.90625 725.671875 843.625 725.359375 843.308594 C 725.050781 842.996094 724.769531 842.652344 724.527344 842.285156 C 724.28125 841.914062 724.074219 841.523438 723.90625 841.113281 C 723.738281 840.703125 723.613281 840.28125 723.527344 839.84375 C 723.441406 839.410156 723.402344 838.96875 723.402344 838.527344 Z M 723.78125 743.988281 L 724.046875 676.464844 C 724.050781 676.019531 724.09375 675.582031 724.183594 675.144531 C 724.273438 674.710938 724.402344 674.289062 724.574219 673.882812 C 724.742188 673.472656 724.953125 673.082031 725.199219 672.714844 C 725.449219 672.347656 725.730469 672.007812 726.042969 671.695312 C 726.359375 671.382812 726.703125 671.105469 727.070312 670.859375 C 727.441406 670.617188 727.828125 670.410156 728.238281 670.242188 C 728.648438 670.074219 729.074219 669.945312 729.507812 669.863281 C 729.941406 669.777344 730.382812 669.734375 730.824219 669.738281 C 731.269531 669.738281 731.707031 669.785156 732.140625 669.871094 C 732.574219 669.960938 732.996094 670.089844 733.40625 670.261719 C 733.816406 670.433594 734.203125 670.644531 734.570312 670.890625 C 734.9375 671.136719 735.277344 671.417969 735.589844 671.734375 C 735.902344 672.050781 736.179688 672.390625 736.425781 672.761719 C 736.671875 673.128906 736.875 673.519531 737.042969 673.929688 C 737.210938 674.339844 737.339844 674.765625 737.425781 675.199219 C 737.507812 675.632812 737.550781 676.074219 737.546875 676.515625 L 737.28125 744.042969 C 737.277344 744.488281 737.234375 744.925781 737.144531 745.359375 C 737.054688 745.796875 736.925781 746.214844 736.753906 746.625 C 736.585938 747.035156 736.375 747.421875 736.128906 747.789062 C 735.878906 748.160156 735.597656 748.5 735.285156 748.8125 C 734.96875 749.121094 734.625 749.402344 734.257812 749.644531 C 733.886719 749.890625 733.496094 750.097656 733.085938 750.265625 C 732.675781 750.433594 732.253906 750.558594 731.820312 750.644531 C 731.386719 750.730469 730.945312 750.769531 730.503906 750.769531 C 730.058594 750.769531 729.621094 750.722656 729.1875 750.632812 C 728.753906 750.546875 728.332031 750.417969 727.921875 750.246094 C 727.511719 750.074219 727.125 749.863281 726.757812 749.617188 C 726.390625 749.367188 726.050781 749.085938 725.738281 748.773438 C 725.425781 748.457031 725.148438 748.117188 724.902344 747.746094 C 724.65625 747.375 724.449219 746.988281 724.28125 746.574219 C 724.113281 746.164062 723.988281 745.742188 723.902344 745.308594 C 723.820312 744.871094 723.777344 744.433594 723.78125 743.988281 Z M 724.15625 649.453125 L 724.425781 581.925781 C 724.425781 581.484375 724.472656 581.042969 724.558594 580.609375 C 724.648438 580.175781 724.777344 579.753906 724.949219 579.34375 C 725.121094 578.933594 725.328125 578.546875 725.578125 578.179688 C 725.824219 577.8125 726.105469 577.472656 726.421875 577.160156 C 726.734375 576.847656 727.078125 576.566406 727.445312 576.324219 C 727.816406 576.078125 728.207031 575.871094 728.617188 575.703125 C 729.027344 575.535156 729.449219 575.410156 729.882812 575.324219 C 730.320312 575.238281 730.757812 575.199219 731.203125 575.199219 C 731.644531 575.203125 732.082031 575.246094 732.519531 575.335938 C 732.953125 575.421875 733.375 575.554688 733.78125 575.722656 C 734.191406 575.894531 734.578125 576.105469 734.945312 576.351562 C 735.316406 576.601562 735.65625 576.882812 735.964844 577.195312 C 736.277344 577.511719 736.558594 577.855469 736.800781 578.222656 C 737.046875 578.59375 737.253906 578.984375 737.421875 579.394531 C 737.589844 579.804688 737.714844 580.226562 737.800781 580.660156 C 737.886719 581.097656 737.925781 581.535156 737.925781 581.980469 L 737.65625 649.507812 C 737.652344 649.949219 737.609375 650.390625 737.519531 650.824219 C 737.433594 651.257812 737.304688 651.679688 737.132812 652.089844 C 736.960938 652.496094 736.75 652.886719 736.503906 653.253906 C 736.253906 653.621094 735.972656 653.960938 735.660156 654.273438 C 735.34375 654.585938 735.003906 654.863281 734.632812 655.109375 C 734.265625 655.355469 733.875 655.558594 733.464844 655.726562 C 733.054688 655.894531 732.632812 656.023438 732.195312 656.109375 C 731.761719 656.191406 731.320312 656.234375 730.878906 656.230469 C 730.4375 656.230469 729.996094 656.183594 729.5625 656.097656 C 729.128906 656.007812 728.707031 655.878906 728.296875 655.707031 C 727.890625 655.535156 727.5 655.328125 727.132812 655.078125 C 726.765625 654.832031 726.425781 654.550781 726.113281 654.234375 C 725.800781 653.921875 725.523438 653.578125 725.277344 653.207031 C 725.035156 652.839844 724.828125 652.449219 724.660156 652.039062 C 724.492188 651.628906 724.363281 651.207031 724.28125 650.769531 C 724.195312 650.335938 724.152344 649.894531 724.15625 649.453125 Z M 724.53125 554.914062 L 724.800781 487.386719 C 724.804688 486.945312 724.847656 486.507812 724.9375 486.070312 C 725.023438 485.636719 725.152344 485.214844 725.324219 484.804688 C 725.496094 484.398438 725.707031 484.007812 725.953125 483.640625 C 726.203125 483.273438 726.484375 482.933594 726.796875 482.621094 C 727.113281 482.308594 727.453125 482.03125 727.824219 481.785156 C 728.191406 481.542969 728.582031 481.335938 728.992188 481.167969 C 729.402344 481 729.824219 480.871094 730.261719 480.789062 C 730.695312 480.703125 731.132812 480.660156 731.578125 480.664062 C 732.019531 480.664062 732.460938 480.710938 732.894531 480.796875 C 733.328125 480.886719 733.75 481.015625 734.160156 481.1875 C 734.566406 481.359375 734.957031 481.566406 735.324219 481.816406 C 735.691406 482.0625 736.03125 482.34375 736.34375 482.660156 C 736.65625 482.972656 736.933594 483.316406 737.179688 483.6875 C 737.421875 484.054688 737.628906 484.445312 737.796875 484.855469 C 737.964844 485.265625 738.089844 485.6875 738.175781 486.125 C 738.261719 486.558594 738.304688 487 738.300781 487.441406 L 738.03125 554.96875 C 738.03125 555.414062 737.984375 555.851562 737.898438 556.285156 C 737.808594 556.71875 737.679688 557.140625 737.507812 557.550781 C 737.335938 557.960938 737.128906 558.347656 736.878906 558.714844 C 736.632812 559.082031 736.351562 559.421875 736.035156 559.734375 C 735.722656 560.046875 735.378906 560.328125 735.011719 560.570312 C 734.640625 560.816406 734.25 561.023438 733.839844 561.191406 C 733.429688 561.359375 733.007812 561.484375 732.574219 561.570312 C 732.136719 561.65625 731.699219 561.695312 731.253906 561.695312 C 730.8125 561.691406 730.375 561.648438 729.9375 561.558594 C 729.503906 561.472656 729.082031 561.34375 728.675781 561.171875 C 728.265625 561 727.878906 560.789062 727.511719 560.542969 C 727.140625 560.292969 726.800781 560.011719 726.492188 559.699219 C 726.179688 559.382812 725.898438 559.042969 725.65625 558.671875 C 725.410156 558.300781 725.203125 557.910156 725.035156 557.5 C 724.867188 557.089844 724.742188 556.667969 724.65625 556.234375 C 724.570312 555.796875 724.53125 555.359375 724.53125 554.914062 Z M 724.910156 460.378906 L 725.175781 392.851562 C 725.179688 392.40625 725.222656 391.96875 725.3125 391.535156 C 725.402344 391.101562 725.53125 390.679688 725.703125 390.269531 C 725.871094 389.859375 726.082031 389.472656 726.328125 389.105469 C 726.578125 388.738281 726.859375 388.398438 727.171875 388.085938 C 727.488281 387.773438 727.832031 387.492188 728.199219 387.25 C 728.570312 387.003906 728.957031 386.796875 729.367188 386.628906 C 729.777344 386.460938 730.203125 386.335938 730.636719 386.25 C 731.070312 386.164062 731.511719 386.125 731.953125 386.125 C 732.398438 386.128906 732.835938 386.171875 733.269531 386.261719 C 733.703125 386.347656 734.125 386.480469 734.535156 386.648438 C 734.945312 386.820312 735.332031 387.03125 735.699219 387.277344 C 736.066406 387.527344 736.40625 387.808594 736.71875 388.121094 C 737.03125 388.4375 737.308594 388.78125 737.554688 389.148438 C 737.800781 389.519531 738.003906 389.910156 738.171875 390.320312 C 738.339844 390.730469 738.46875 391.152344 738.554688 391.585938 C 738.636719 392.023438 738.679688 392.460938 738.675781 392.90625 L 738.410156 460.433594 C 738.40625 460.875 738.363281 461.3125 738.273438 461.75 C 738.183594 462.183594 738.054688 462.605469 737.882812 463.015625 C 737.714844 463.421875 737.503906 463.8125 737.257812 464.179688 C 737.007812 464.546875 736.726562 464.886719 736.414062 465.199219 C 736.097656 465.511719 735.753906 465.789062 735.386719 466.035156 C 735.015625 466.28125 734.628906 466.484375 734.21875 466.652344 C 733.808594 466.820312 733.382812 466.949219 732.949219 467.03125 C 732.515625 467.117188 732.074219 467.160156 731.632812 467.15625 C 731.1875 467.15625 730.75 467.109375 730.316406 467.023438 C 729.882812 466.933594 729.460938 466.804688 729.050781 466.632812 C 728.640625 466.460938 728.253906 466.253906 727.886719 466.003906 C 727.519531 465.757812 727.179688 465.476562 726.867188 465.160156 C 726.554688 464.847656 726.277344 464.503906 726.03125 464.132812 C 725.785156 463.765625 725.582031 463.375 725.414062 462.964844 C 725.246094 462.554688 725.117188 462.132812 725.03125 461.695312 C 724.949219 461.261719 724.90625 460.820312 724.910156 460.378906 Z M 725.285156 365.839844 L 725.554688 298.3125 C 725.554688 297.871094 725.601562 297.433594 725.6875 296.996094 C 725.777344 296.5625 725.90625 296.140625 726.078125 295.730469 C 726.25 295.324219 726.457031 294.933594 726.707031 294.566406 C 726.953125 294.199219 727.234375 293.859375 727.550781 293.546875 C 727.863281 293.234375 728.207031 292.957031 728.574219 292.710938 C 728.945312 292.464844 729.335938 292.261719 729.746094 292.09375 C 730.15625 291.925781 730.578125 291.796875 731.011719 291.710938 C 731.449219 291.628906 731.886719 291.585938 732.332031 291.589844 C 732.773438 291.589844 733.210938 291.636719 733.648438 291.722656 C 734.082031 291.8125 734.503906 291.941406 734.910156 292.113281 C 735.320312 292.285156 735.707031 292.492188 736.074219 292.742188 C 736.445312 292.988281 736.785156 293.269531 737.09375 293.585938 C 737.40625 293.898438 737.6875 294.242188 737.929688 294.613281 C 738.175781 294.980469 738.382812 295.371094 738.550781 295.78125 C 738.71875 296.191406 738.84375 296.613281 738.929688 297.050781 C 739.015625 297.484375 739.054688 297.925781 739.054688 298.367188 L 738.785156 365.894531 C 738.78125 366.335938 738.738281 366.777344 738.648438 367.210938 C 738.5625 367.644531 738.433594 368.066406 738.261719 368.476562 C 738.089844 368.886719 737.878906 369.273438 737.632812 369.640625 C 737.382812 370.007812 737.101562 370.347656 736.789062 370.660156 C 736.472656 370.972656 736.132812 371.253906 735.761719 371.496094 C 735.394531 371.742188 735.003906 371.949219 734.59375 372.117188 C 734.183594 372.285156 733.761719 372.410156 733.324219 372.496094 C 732.890625 372.582031 732.453125 372.621094 732.007812 372.621094 C 731.566406 372.617188 731.125 372.574219 730.691406 372.484375 C 730.257812 372.398438 729.835938 372.265625 729.425781 372.097656 C 729.019531 371.925781 728.628906 371.714844 728.261719 371.46875 C 727.894531 371.21875 727.554688 370.9375 727.242188 370.625 C 726.929688 370.308594 726.652344 369.964844 726.40625 369.597656 C 726.164062 369.226562 725.957031 368.835938 725.789062 368.425781 C 725.621094 368.015625 725.492188 367.59375 725.410156 367.160156 C 725.324219 366.722656 725.28125 366.285156 725.285156 365.839844 Z M 725.660156 271.304688 L 725.667969 270.035156 C 725.667969 269.59375 725.714844 269.152344 725.800781 268.71875 C 725.890625 268.285156 726.019531 267.863281 726.191406 267.453125 C 726.363281 267.046875 726.570312 266.65625 726.820312 266.289062 C 727.066406 265.921875 727.347656 265.582031 727.664062 265.269531 C 727.976562 264.957031 728.320312 264.679688 728.6875 264.433594 C 729.058594 264.1875 729.449219 263.980469 729.859375 263.8125 C 730.269531 263.644531 730.691406 263.519531 731.125 263.433594 C 731.5625 263.351562 732 263.308594 732.441406 263.308594 C 732.886719 263.3125 733.324219 263.355469 733.757812 263.445312 C 734.195312 263.535156 734.617188 263.664062 735.023438 263.835938 C 735.433594 264.003906 735.820312 264.214844 736.1875 264.464844 C 736.554688 264.710938 736.894531 264.992188 737.207031 265.308594 C 737.519531 265.621094 737.796875 265.964844 738.042969 266.332031 C 738.289062 266.703125 738.496094 267.09375 738.664062 267.503906 C 738.832031 267.914062 738.957031 268.335938 739.042969 268.773438 C 739.125 269.207031 739.167969 269.644531 739.167969 270.089844 L 739.160156 271.355469 C 739.160156 271.800781 739.113281 272.238281 739.027344 272.675781 C 738.9375 273.109375 738.808594 273.53125 738.636719 273.9375 C 738.464844 274.347656 738.257812 274.738281 738.007812 275.105469 C 737.761719 275.472656 737.480469 275.8125 737.164062 276.125 C 736.851562 276.4375 736.507812 276.714844 736.140625 276.960938 C 735.769531 277.203125 735.378906 277.410156 734.96875 277.578125 C 734.558594 277.746094 734.136719 277.875 733.703125 277.957031 C 733.265625 278.042969 732.828125 278.085938 732.382812 278.082031 C 731.941406 278.082031 731.503906 278.035156 731.066406 277.949219 C 730.632812 277.859375 730.210938 277.730469 729.804688 277.558594 C 729.394531 277.386719 729.007812 277.179688 728.640625 276.929688 C 728.269531 276.683594 727.929688 276.402344 727.621094 276.085938 C 727.308594 275.769531 727.027344 275.429688 726.785156 275.058594 C 726.539062 274.691406 726.332031 274.300781 726.164062 273.890625 C 725.996094 273.480469 725.871094 273.054688 725.785156 272.621094 C 725.699219 272.1875 725.660156 271.746094 725.660156 271.304688 Z M 725.660156 271.304688 " fill-opacity="1" fill-rule="nonzero"/><path stroke-linecap="round" transform="matrix(-0.306203, -0.684704, 0.684655, -0.306181, 1018.92909, 845.304747)" fill="none" stroke-linejoin="miter" d="M 8.999649 9.000979 L 866.944208 8.998426 " stroke="#1e76e9" stroke-width="18" stroke-opacity="1" stroke-miterlimit="4"/><g fill="#1e76e9" fill-opacity="1"><g transform="translate(951.498715, 655.10042)"><g><path d="M 19.734375 0.96875 C 16.492188 0.96875 13.675781 0.375 11.28125 -0.8125 C 8.894531 -2.007812 7.0625 -3.765625 5.78125 -6.078125 C 4.5 -8.390625 3.859375 -11.164062 3.859375 -14.40625 C 3.859375 -17.40625 4.5 -19.921875 5.78125 -21.953125 C 7.0625 -23.992188 9.046875 -25.660156 11.734375 -26.953125 C 14.429688 -28.253906 17.953125 -29.257812 22.296875 -29.96875 C 25.328125 -30.457031 27.628906 -30.988281 29.203125 -31.5625 C 30.785156 -32.144531 31.847656 -32.800781 32.390625 -33.53125 C 32.941406 -34.269531 33.21875 -35.207031 33.21875 -36.34375 C 33.21875 -37.96875 32.648438 -39.207031 31.515625 -40.0625 C 30.390625 -40.914062 28.507812 -41.34375 25.875 -41.34375 C 23.0625 -41.34375 20.382812 -40.710938 17.84375 -39.453125 C 15.3125 -38.203125 13.113281 -36.554688 11.25 -34.515625 L 10.328125 -34.515625 L 5 -42.546875 C 7.570312 -45.390625 10.707031 -47.601562 14.40625 -49.1875 C 18.113281 -50.78125 22.15625 -51.578125 26.53125 -51.578125 C 33.226562 -51.578125 38.070312 -50.15625 41.0625 -47.3125 C 44.0625 -44.46875 45.5625 -40.429688 45.5625 -35.203125 L 45.5625 -13.21875 C 45.5625 -10.957031 46.554688 -9.828125 48.546875 -9.828125 C 49.316406 -9.828125 50.066406 -9.960938 50.796875 -10.234375 L 51.4375 -10.046875 L 52.359375 -1.1875 C 51.660156 -0.726562 50.679688 -0.351562 49.421875 -0.0625 C 48.171875 0.21875 46.796875 0.359375 45.296875 0.359375 C 42.265625 0.359375 39.898438 -0.21875 38.203125 -1.375 C 36.503906 -2.539062 35.289062 -4.363281 34.5625 -6.84375 L 33.59375 -6.921875 C 31.113281 -1.660156 26.492188 0.96875 19.734375 0.96875 Z M 23.765625 -8.53125 C 26.703125 -8.53125 29.050781 -9.515625 30.8125 -11.484375 C 32.570312 -13.460938 33.453125 -16.210938 33.453125 -19.734375 L 33.453125 -24.875 L 32.578125 -25.0625 C 31.816406 -24.445312 30.816406 -23.929688 29.578125 -23.515625 C 28.335938 -23.109375 26.554688 -22.703125 24.234375 -22.296875 C 21.472656 -21.835938 19.488281 -21.050781 18.28125 -19.9375 C 17.070312 -18.820312 16.46875 -17.238281 16.46875 -15.1875 C 16.46875 -13.019531 17.109375 -11.367188 18.390625 -10.234375 C 19.679688 -9.097656 21.472656 -8.53125 23.765625 -8.53125 Z M 23.765625 -8.53125 "/></g></g></g><g fill="#000000" fill-opacity="1"><g transform="translate(937.227149, 434.893068)"><g><path d="M 21.015625 0.96875 C 16.460938 0.96875 12.984375 -0.257812 10.578125 -2.71875 C 8.171875 -5.1875 6.96875 -8.929688 6.96875 -13.953125 L 6.96875 -70.953125 L 19.6875 -70.953125 L 19.6875 -14.453125 C 19.6875 -11.367188 20.972656 -9.828125 23.546875 -9.828125 C 24.273438 -9.828125 25.050781 -9.945312 25.875 -10.1875 L 26.53125 -10 L 27.671875 -0.234375 C 26.960938 0.140625 26.023438 0.429688 24.859375 0.640625 C 23.703125 0.859375 22.421875 0.96875 21.015625 0.96875 Z M 21.015625 0.96875 "/></g></g></g></svg>