<svg xmlns="http://www.w3.org/2000/svg" xmlns:xlink="http://www.w3.org/1999/xlink" width="2000" zoomAndPan="magnify" viewBox="0 0 1500 1124.99995" height="1500" preserveAspectRatio="xMidYMid meet" version="1.0"><defs><g/><clipPath id="bb8a6414da"><path d="M 486 163 L 1026.996094 163 L 1026.996094 923.539062 L 486 923.539062 Z M 486 163 " clip-rule="nonzero"/></clipPath></defs><rect x="-150" width="1800" fill="#ffffff" y="-112.499995" height="1349.99994" fill-opacity="1"/><rect x="-150" width="1800" fill="#ffffff" y="-112.499995" height="1349.99994" fill-opacity="1"/><rect x="-150" width="1800" fill="#ffffff" y="-112.499995" height="1349.99994" fill-opacity="1"/><path fill="#ffffff" d="M 1022.75 828.792969 C 1022.75 828.792969 1016.882812 921.925781 760.996094 916.863281 C 472.746094 910.992188 493.175781 828.792969 493.175781 828.792969 L 760.996094 169.773438 Z M 1022.75 828.792969 " fill-opacity="1" fill-rule="nonzero"/><g clip-path="url(#bb8a6414da)"><path fill="#000000" d="M 752.300781 741.53125 C 758.773438 741.53125 765.246094 741.53125 771.515625 741.734375 L 771.3125 751.855469 C 765.042969 751.652344 758.570312 751.652344 752.300781 751.652344 Z M 675.027344 745.582031 L 676.039062 755.703125 C 682.308594 755.097656 688.78125 754.488281 695.054688 753.882812 L 694.246094 743.757812 C 687.972656 744.367188 681.5 744.972656 675.027344 745.582031 Z M 713.664062 742.746094 L 714.269531 752.867188 C 720.539062 752.464844 727.015625 752.261719 733.285156 752.058594 L 733.082031 741.9375 C 726.40625 742.136719 719.933594 742.339844 713.664062 742.746094 Z M 636.796875 750.84375 L 638.414062 760.765625 C 644.484375 759.753906 650.957031 758.742188 657.226562 757.929688 L 655.8125 747.808594 C 649.339844 748.820312 642.863281 749.832031 636.796875 750.84375 Z M 525.339844 784.859375 L 530.195312 793.765625 C 535.25 790.933594 540.914062 788.097656 546.984375 785.667969 L 542.9375 776.355469 C 536.667969 778.988281 530.800781 781.820312 525.339844 784.859375 Z M 561.34375 769.066406 L 564.582031 778.582031 C 570.246094 776.558594 576.316406 774.734375 582.585938 772.914062 L 579.753906 763.195312 C 573.484375 765.21875 567.210938 767.042969 561.34375 769.066406 Z M 598.769531 758.335938 L 601.195312 768.257812 C 607.261719 766.839844 613.332031 765.421875 619.804688 764.207031 L 617.78125 754.285156 C 611.105469 755.5 604.835938 756.917969 598.769531 758.335938 Z M 790.328125 752.261719 C 796.800781 752.464844 803.070312 752.867188 809.34375 753.273438 L 809.949219 743.152344 C 803.679688 742.746094 797.207031 742.339844 790.730469 742.136719 Z M 903.808594 766.027344 C 910.078125 767.445312 916.347656 768.863281 922.214844 770.484375 L 924.84375 760.765625 C 918.777344 759.144531 912.503906 757.726562 906.03125 756.3125 Z M 975.414062 789.515625 C 981.484375 792.347656 986.742188 795.386719 991.597656 798.625 L 997.058594 790.121094 C 992 786.882812 986.136719 783.441406 979.863281 780.402344 Z M 940.421875 775.746094 C 946.691406 777.773438 952.558594 779.796875 958.222656 782.023438 L 961.863281 772.507812 C 955.996094 770.28125 949.925781 768.054688 943.453125 766.027344 Z M 866.386719 759.347656 C 872.65625 760.359375 879.128906 761.371094 885.199219 762.382812 L 887.019531 752.464844 C 880.746094 751.25 874.476562 750.238281 868.003906 749.425781 Z M 828.558594 754.894531 C 835.03125 755.5 841.300781 756.109375 847.574219 756.917969 L 848.785156 746.796875 C 842.515625 745.984375 836.042969 745.378906 829.570312 744.769531 Z M 1026.996094 832.4375 C 1026.996094 883.457031 908.460938 923.34375 756.953125 923.34375 C 605.441406 923.34375 486.90625 883.257812 486.90625 832.4375 C 486.90625 829.804688 487.3125 827.171875 487.917969 824.742188 C 487.917969 824.136719 488.121094 823.527344 488.320312 822.921875 L 488.929688 821.707031 C 488.929688 821.503906 489.132812 821.300781 489.132812 820.898438 L 756.75 167.140625 C 757.355469 165.925781 758.367188 164.914062 759.582031 164.304688 C 764.234375 162.484375 766.054688 166.9375 766.863281 169.164062 L 896.121094 496.144531 L 1024.570312 821.097656 L 1024.773438 821.097656 C 1025.175781 822.113281 1025.378906 823.125 1025.78125 824.339844 L 1026.1875 825.148438 C 1026.390625 825.957031 1026.59375 826.566406 1026.59375 827.375 C 1026.792969 828.792969 1026.996094 830.613281 1026.996094 832.4375 Z M 1016.882812 832.4375 C 1016.882812 830.613281 1016.679688 828.792969 1016.277344 826.972656 C 1015.464844 825.148438 1014.050781 821.503906 1012.027344 816.238281 L 1011.625 816.644531 C 1010.003906 814.417969 1008.183594 811.988281 1005.960938 809.761719 L 1008.589844 807.128906 C 967.726562 704.480469 792.148438 260.273438 761.402344 182.527344 L 509.765625 797.007812 L 515.023438 803.6875 C 512.597656 805.507812 505.3125 811.582031 502.886719 813.8125 L 498.4375 824.742188 C 497.628906 827.171875 497.222656 829.601562 497.222656 832.03125 C 497.222656 875.765625 616.164062 912.816406 757.152344 912.816406 C 898.144531 912.816406 1016.882812 876.167969 1016.882812 832.4375 Z M 1016.882812 832.4375 " fill-opacity="1" fill-rule="nonzero"/></g><g fill="#5e17eb" fill-opacity="1"><g transform="translate(681.016206, 635.339445)"><g><path d="M 7.296875 0 L 7.296875 -70.953125 L 20.015625 -70.953125 L 20.015625 -44.015625 L 20.96875 -43.828125 C 22.65625 -46.304688 24.722656 -48.21875 27.171875 -49.5625 C 29.617188 -50.90625 32.570312 -51.578125 36.03125 -51.578125 C 47.195312 -51.578125 52.78125 -45.242188 52.78125 -32.578125 L 52.78125 0 L 40.0625 0 L 40.0625 -30.96875 C 40.0625 -34.425781 39.375 -36.9375 38 -38.5 C 36.625 -40.0625 34.484375 -40.84375 31.578125 -40.84375 C 28.023438 -40.84375 25.207031 -39.65625 23.125 -37.28125 C 21.050781 -34.914062 20.015625 -31.222656 20.015625 -26.203125 L 20.015625 0 Z M 7.296875 0 "/></g></g></g><g fill="#1e76e9" fill-opacity="1"><g transform="translate(837.855936, 839.452348)"><g><path d="M 7.296875 0 L 7.296875 -50.625 L 19.640625 -50.625 L 19.640625 -43.09375 L 20.609375 -42.90625 C 21.828125 -45.71875 23.429688 -47.78125 25.421875 -49.09375 C 27.410156 -50.414062 29.828125 -51.078125 32.671875 -51.078125 C 35.546875 -51.078125 37.734375 -50.585938 39.234375 -49.609375 L 37.078125 -38.640625 L 36.109375 -38.453125 C 35.285156 -38.796875 34.488281 -39.039062 33.71875 -39.1875 C 32.957031 -39.34375 32.03125 -39.421875 30.9375 -39.421875 C 27.382812 -39.421875 24.675781 -38.171875 22.8125 -35.671875 C 20.945312 -33.179688 20.015625 -29.179688 20.015625 -23.671875 L 20.015625 0 Z M 7.296875 0 "/></g></g></g><path stroke-linecap="round" transform="matrix(-0.671483, -0.33284, 0.333085, -0.671978, 897.465964, 900.683638)" fill="none" stroke-linejoin="miter" d="M 8.998013 9.00047 L 203.158344 9.001518 " stroke="#1e76e9" stroke-width="18" stroke-opacity="1" stroke-miterlimit="4"/><path fill="#5e17eb" d="M 754.664062 825.980469 L 754.664062 758.503906 C 754.664062 758.058594 754.707031 757.621094 754.792969 757.1875 C 754.878906 756.75 755.007812 756.328125 755.175781 755.921875 C 755.347656 755.511719 755.554688 755.121094 755.800781 754.753906 C 756.046875 754.386719 756.328125 754.042969 756.640625 753.730469 C 756.953125 753.417969 757.296875 753.136719 757.664062 752.890625 C 758.03125 752.644531 758.421875 752.4375 758.832031 752.269531 C 759.238281 752.097656 759.664062 751.972656 760.097656 751.882812 C 760.53125 751.796875 760.96875 751.753906 761.414062 751.753906 C 761.855469 751.753906 762.296875 751.796875 762.730469 751.882812 C 763.164062 751.972656 763.585938 752.097656 763.996094 752.269531 C 764.40625 752.4375 764.796875 752.644531 765.164062 752.890625 C 765.53125 753.136719 765.875 753.417969 766.1875 753.730469 C 766.5 754.042969 766.78125 754.386719 767.027344 754.753906 C 767.273438 755.121094 767.480469 755.511719 767.648438 755.921875 C 767.820312 756.328125 767.949219 756.75 768.035156 757.1875 C 768.121094 757.621094 768.164062 758.058594 768.164062 758.503906 L 768.164062 825.980469 C 768.164062 826.421875 768.121094 826.859375 768.035156 827.296875 C 767.949219 827.730469 767.820312 828.152344 767.648438 828.5625 C 767.480469 828.96875 767.273438 829.359375 767.027344 829.726562 C 766.78125 830.097656 766.5 830.4375 766.1875 830.75 C 765.875 831.0625 765.53125 831.34375 765.164062 831.589844 C 764.796875 831.835938 764.40625 832.042969 763.996094 832.210938 C 763.585938 832.382812 763.164062 832.511719 762.730469 832.597656 C 762.296875 832.683594 761.855469 832.726562 761.414062 832.726562 C 760.96875 832.726562 760.53125 832.683594 760.097656 832.597656 C 759.664062 832.511719 759.238281 832.382812 758.832031 832.210938 C 758.421875 832.042969 758.03125 831.835938 757.664062 831.589844 C 757.296875 831.34375 756.953125 831.0625 756.640625 830.75 C 756.328125 830.4375 756.046875 830.097656 755.800781 829.726562 C 755.554688 829.359375 755.347656 828.96875 755.175781 828.5625 C 755.007812 828.152344 754.878906 827.730469 754.792969 827.296875 C 754.707031 826.859375 754.664062 826.421875 754.664062 825.980469 Z M 754.664062 731.511719 L 754.664062 664.035156 C 754.664062 663.59375 754.707031 663.152344 754.792969 662.71875 C 754.878906 662.285156 755.007812 661.863281 755.175781 661.453125 C 755.347656 661.042969 755.554688 660.65625 755.800781 660.285156 C 756.046875 659.917969 756.328125 659.578125 756.640625 659.265625 C 756.953125 658.949219 757.296875 658.671875 757.664062 658.425781 C 758.03125 658.179688 758.421875 657.972656 758.832031 657.800781 C 759.238281 657.632812 759.664062 657.503906 760.097656 657.417969 C 760.53125 657.332031 760.96875 657.289062 761.414062 657.289062 C 761.855469 657.289062 762.296875 657.332031 762.730469 657.417969 C 763.164062 657.503906 763.585938 657.632812 763.996094 657.800781 C 764.40625 657.972656 764.796875 658.179688 765.164062 658.425781 C 765.53125 658.671875 765.875 658.949219 766.1875 659.265625 C 766.5 659.578125 766.78125 659.917969 767.027344 660.285156 C 767.273438 660.65625 767.480469 661.042969 767.648438 661.453125 C 767.820312 661.863281 767.949219 662.285156 768.035156 662.71875 C 768.121094 663.152344 768.164062 663.59375 768.164062 664.035156 L 768.164062 731.511719 C 768.164062 731.953125 768.121094 732.394531 768.035156 732.828125 C 767.949219 733.261719 767.820312 733.683594 767.648438 734.09375 C 767.480469 734.503906 767.273438 734.890625 767.027344 735.261719 C 766.78125 735.628906 766.5 735.96875 766.1875 736.28125 C 765.875 736.597656 765.53125 736.875 765.164062 737.121094 C 764.796875 737.367188 764.40625 737.574219 763.996094 737.746094 C 763.585938 737.914062 763.164062 738.042969 762.730469 738.128906 C 762.296875 738.214844 761.855469 738.257812 761.414062 738.257812 C 760.96875 738.257812 760.53125 738.214844 760.097656 738.128906 C 759.664062 738.042969 759.238281 737.914062 758.832031 737.746094 C 758.421875 737.574219 758.03125 737.367188 757.664062 737.121094 C 757.296875 736.875 756.953125 736.597656 756.640625 736.28125 C 756.328125 735.96875 756.046875 735.628906 755.800781 735.261719 C 755.554688 734.890625 755.347656 734.503906 755.175781 734.09375 C 755.007812 733.683594 754.878906 733.261719 754.792969 732.828125 C 754.707031 732.394531 754.664062 731.953125 754.664062 731.511719 Z M 754.664062 637.042969 L 754.664062 569.566406 C 754.664062 569.125 754.707031 568.6875 754.792969 568.25 C 754.878906 567.816406 755.007812 567.394531 755.175781 566.984375 C 755.347656 566.578125 755.554688 566.1875 755.800781 565.820312 C 756.046875 565.449219 756.328125 565.109375 756.640625 564.796875 C 756.953125 564.484375 757.296875 564.203125 757.664062 563.957031 C 758.03125 563.710938 758.421875 563.503906 758.832031 563.335938 C 759.238281 563.164062 759.664062 563.035156 760.097656 562.949219 C 760.53125 562.863281 760.96875 562.820312 761.414062 562.820312 C 761.855469 562.820312 762.296875 562.863281 762.730469 562.949219 C 763.164062 563.035156 763.585938 563.164062 763.996094 563.335938 C 764.40625 563.503906 764.796875 563.710938 765.164062 563.957031 C 765.53125 564.203125 765.875 564.484375 766.1875 564.796875 C 766.5 565.109375 766.78125 565.449219 767.027344 565.820312 C 767.273438 566.1875 767.480469 566.578125 767.648438 566.984375 C 767.820312 567.394531 767.949219 567.816406 768.035156 568.25 C 768.121094 568.6875 768.164062 569.125 768.164062 569.566406 L 768.164062 637.042969 C 768.164062 637.488281 768.121094 637.925781 768.035156 638.359375 C 767.949219 638.796875 767.820312 639.21875 767.648438 639.625 C 767.480469 640.035156 767.273438 640.425781 767.027344 640.792969 C 766.78125 641.160156 766.5 641.503906 766.1875 641.816406 C 765.875 642.128906 765.53125 642.410156 765.164062 642.65625 C 764.796875 642.902344 764.40625 643.109375 763.996094 643.277344 C 763.585938 643.449219 763.164062 643.578125 762.730469 643.664062 C 762.296875 643.75 761.855469 643.792969 761.414062 643.792969 C 760.96875 643.792969 760.53125 643.75 760.097656 643.664062 C 759.664062 643.578125 759.238281 643.449219 758.832031 643.277344 C 758.421875 643.109375 758.03125 642.902344 757.664062 642.65625 C 757.296875 642.410156 756.953125 642.128906 756.640625 641.816406 C 756.328125 641.503906 756.046875 641.160156 755.800781 640.792969 C 755.554688 640.425781 755.347656 640.035156 755.175781 639.625 C 755.007812 639.21875 754.878906 638.796875 754.792969 638.359375 C 754.707031 637.925781 754.664062 637.488281 754.664062 637.042969 Z M 754.664062 542.578125 L 754.664062 475.101562 C 754.664062 474.660156 754.707031 474.21875 754.792969 473.785156 C 754.878906 473.351562 755.007812 472.929688 755.175781 472.519531 C 755.347656 472.109375 755.554688 471.722656 755.800781 471.351562 C 756.046875 470.984375 756.328125 470.644531 756.640625 470.328125 C 756.953125 470.015625 757.296875 469.738281 757.664062 469.492188 C 758.03125 469.246094 758.421875 469.035156 758.832031 468.867188 C 759.238281 468.699219 759.664062 468.570312 760.097656 468.484375 C 760.53125 468.398438 760.96875 468.355469 761.414062 468.355469 C 761.855469 468.355469 762.296875 468.398438 762.730469 468.484375 C 763.164062 468.570312 763.585938 468.699219 763.996094 468.867188 C 764.40625 469.035156 764.796875 469.246094 765.164062 469.492188 C 765.53125 469.738281 765.875 470.015625 766.1875 470.328125 C 766.5 470.644531 766.78125 470.984375 767.027344 471.351562 C 767.273438 471.722656 767.480469 472.109375 767.648438 472.519531 C 767.820312 472.929688 767.949219 473.351562 768.035156 473.785156 C 768.121094 474.21875 768.164062 474.660156 768.164062 475.101562 L 768.164062 542.578125 C 768.164062 543.019531 768.121094 543.460938 768.035156 543.894531 C 767.949219 544.328125 767.820312 544.75 767.648438 545.160156 C 767.480469 545.570312 767.273438 545.957031 767.027344 546.328125 C 766.78125 546.695312 766.5 547.035156 766.1875 547.347656 C 765.875 547.664062 765.53125 547.941406 765.164062 548.1875 C 764.796875 548.433594 764.40625 548.640625 763.996094 548.8125 C 763.585938 548.980469 763.164062 549.109375 762.730469 549.195312 C 762.296875 549.28125 761.855469 549.324219 761.414062 549.324219 C 760.96875 549.324219 760.53125 549.28125 760.097656 549.195312 C 759.664062 549.109375 759.238281 548.980469 758.832031 548.8125 C 758.421875 548.640625 758.03125 548.433594 757.664062 548.1875 C 757.296875 547.941406 756.953125 547.664062 756.640625 547.347656 C 756.328125 547.035156 756.046875 546.695312 755.800781 546.328125 C 755.554688 545.957031 755.347656 545.570312 755.175781 545.160156 C 755.007812 544.75 754.878906 544.328125 754.792969 543.894531 C 754.707031 543.460938 754.664062 543.019531 754.664062 542.578125 Z M 754.664062 448.109375 L 754.664062 380.632812 C 754.664062 380.191406 754.707031 379.753906 754.792969 379.316406 C 754.878906 378.882812 755.007812 378.460938 755.175781 378.050781 C 755.347656 377.644531 755.554688 377.253906 755.800781 376.886719 C 756.046875 376.515625 756.328125 376.175781 756.640625 375.863281 C 756.953125 375.550781 757.296875 375.269531 757.664062 375.023438 C 758.03125 374.777344 758.421875 374.570312 758.832031 374.398438 C 759.238281 374.230469 759.664062 374.101562 760.097656 374.015625 C 760.53125 373.929688 760.96875 373.886719 761.414062 373.886719 C 761.855469 373.886719 762.296875 373.929688 762.730469 374.015625 C 763.164062 374.101562 763.585938 374.230469 763.996094 374.398438 C 764.40625 374.570312 764.796875 374.777344 765.164062 375.023438 C 765.53125 375.269531 765.875 375.550781 766.1875 375.863281 C 766.5 376.175781 766.78125 376.515625 767.027344 376.886719 C 767.273438 377.253906 767.480469 377.644531 767.648438 378.050781 C 767.820312 378.460938 767.949219 378.882812 768.035156 379.316406 C 768.121094 379.753906 768.164062 380.191406 768.164062 380.632812 L 768.164062 448.109375 C 768.164062 448.554688 768.121094 448.992188 768.035156 449.425781 C 767.949219 449.863281 767.820312 450.285156 767.648438 450.691406 C 767.480469 451.101562 767.273438 451.492188 767.027344 451.859375 C 766.78125 452.226562 766.5 452.570312 766.1875 452.882812 C 765.875 453.195312 765.53125 453.476562 765.164062 453.722656 C 764.796875 453.96875 764.40625 454.175781 763.996094 454.34375 C 763.585938 454.515625 763.164062 454.640625 762.730469 454.730469 C 762.296875 454.816406 761.855469 454.859375 761.414062 454.859375 C 760.96875 454.859375 760.53125 454.816406 760.097656 454.730469 C 759.664062 454.640625 759.238281 454.515625 758.832031 454.34375 C 758.421875 454.175781 758.03125 453.96875 757.664062 453.722656 C 757.296875 453.476562 756.953125 453.195312 756.640625 452.882812 C 756.328125 452.570312 756.046875 452.226562 755.800781 451.859375 C 755.554688 451.492188 755.347656 451.101562 755.175781 450.691406 C 755.007812 450.285156 754.878906 449.863281 754.792969 449.425781 C 754.707031 448.992188 754.664062 448.554688 754.664062 448.109375 Z M 754.664062 353.644531 L 754.664062 286.167969 C 754.664062 285.722656 754.707031 285.285156 754.792969 284.851562 C 754.878906 284.417969 755.007812 283.996094 755.175781 283.585938 C 755.347656 283.175781 755.554688 282.785156 755.800781 282.417969 C 756.046875 282.050781 756.328125 281.710938 756.640625 281.394531 C 756.953125 281.082031 757.296875 280.804688 757.664062 280.558594 C 758.03125 280.3125 758.421875 280.101562 758.832031 279.933594 C 759.238281 279.765625 759.664062 279.636719 760.097656 279.550781 C 760.53125 279.464844 760.96875 279.417969 761.414062 279.417969 C 761.855469 279.417969 762.296875 279.464844 762.730469 279.550781 C 763.164062 279.636719 763.585938 279.765625 763.996094 279.933594 C 764.40625 280.101562 764.796875 280.3125 765.164062 280.558594 C 765.53125 280.804688 765.875 281.082031 766.1875 281.394531 C 766.5 281.710938 766.78125 282.050781 767.027344 282.417969 C 767.273438 282.785156 767.480469 283.175781 767.648438 283.585938 C 767.820312 283.996094 767.949219 284.417969 768.035156 284.851562 C 768.121094 285.285156 768.164062 285.722656 768.164062 286.167969 L 768.164062 353.644531 C 768.164062 354.085938 768.121094 354.527344 768.035156 354.960938 C 767.949219 355.394531 767.820312 355.816406 767.648438 356.226562 C 767.480469 356.636719 767.273438 357.023438 767.027344 357.394531 C 766.78125 357.761719 766.5 358.101562 766.1875 358.414062 C 765.875 358.726562 765.53125 359.007812 765.164062 359.253906 C 764.796875 359.5 764.40625 359.707031 763.996094 359.878906 C 763.585938 360.046875 763.164062 360.175781 762.730469 360.261719 C 762.296875 360.347656 761.855469 360.390625 761.414062 360.390625 C 760.96875 360.390625 760.53125 360.347656 760.097656 360.261719 C 759.664062 360.175781 759.238281 360.046875 758.832031 359.878906 C 758.421875 359.707031 758.03125 359.5 757.664062 359.253906 C 757.296875 359.007812 756.953125 358.726562 756.640625 358.414062 C 756.328125 358.101562 756.046875 357.761719 755.800781 357.394531 C 755.554688 357.023438 755.347656 356.636719 755.175781 356.226562 C 755.007812 355.816406 754.878906 355.394531 754.792969 354.960938 C 754.707031 354.527344 754.664062 354.085938 754.664062 353.644531 Z M 754.664062 259.175781 L 754.664062 201.964844 C 754.664062 201.523438 754.707031 201.082031 754.792969 200.648438 C 754.878906 200.214844 755.007812 199.792969 755.175781 199.382812 C 755.347656 198.972656 755.554688 198.585938 755.800781 198.21875 C 756.046875 197.847656 756.328125 197.507812 756.640625 197.195312 C 756.953125 196.882812 757.296875 196.601562 757.664062 196.355469 C 758.03125 196.109375 758.421875 195.902344 758.832031 195.730469 C 759.238281 195.5625 759.664062 195.433594 760.097656 195.347656 C 760.53125 195.261719 760.96875 195.21875 761.414062 195.21875 C 761.855469 195.21875 762.296875 195.261719 762.730469 195.347656 C 763.164062 195.433594 763.585938 195.5625 763.996094 195.730469 C 764.40625 195.902344 764.796875 196.109375 765.164062 196.355469 C 765.53125 196.601562 765.875 196.882812 766.1875 197.195312 C 766.5 197.507812 766.78125 197.847656 767.027344 198.21875 C 767.273438 198.585938 767.480469 198.972656 767.648438 199.382812 C 767.820312 199.792969 767.949219 200.214844 768.035156 200.648438 C 768.121094 201.082031 768.164062 201.523438 768.164062 201.964844 L 768.164062 259.175781 C 768.164062 259.621094 768.121094 260.058594 768.035156 260.492188 C 767.949219 260.929688 767.820312 261.351562 767.648438 261.757812 C 767.480469 262.167969 767.273438 262.558594 767.027344 262.925781 C 766.78125 263.292969 766.5 263.636719 766.1875 263.949219 C 765.875 264.261719 765.53125 264.542969 765.164062 264.789062 C 764.796875 265.035156 764.40625 265.242188 763.996094 265.410156 C 763.585938 265.582031 763.164062 265.707031 762.730469 265.792969 C 762.296875 265.882812 761.855469 265.925781 761.414062 265.925781 C 760.96875 265.925781 760.53125 265.882812 760.097656 265.792969 C 759.664062 265.707031 759.238281 265.582031 758.832031 265.410156 C 758.421875 265.242188 758.03125 265.035156 757.664062 264.789062 C 757.296875 264.542969 756.953125 264.261719 756.640625 263.949219 C 756.328125 263.636719 756.046875 263.292969 755.800781 262.925781 C 755.554688 262.558594 755.347656 262.167969 755.175781 261.757812 C 755.007812 261.351562 754.878906 260.929688 754.792969 260.492188 C 754.707031 260.058594 754.664062 259.621094 754.664062 259.175781 Z M 754.664062 259.175781 " fill-opacity="1" fill-rule="nonzero"/></svg>