<svg xmlns="http://www.w3.org/2000/svg" xmlns:xlink="http://www.w3.org/1999/xlink" width="2000" zoomAndPan="magnify" viewBox="0 0 1500 1124.99995" height="1500" preserveAspectRatio="xMidYMid meet" version="1.0"><defs><g/><clipPath id="adeff10e86"><path d="M 34 293 L 452.148438 293 L 452.148438 881.261719 L 34 881.261719 Z M 34 293 " clip-rule="nonzero"/></clipPath><clipPath id="5b0b2c2618"><path d="M 710 295 L 1478.972656 295 L 1478.972656 876.761719 L 710 876.761719 Z M 710 295 " clip-rule="nonzero"/></clipPath><clipPath id="40357e3bcd"><path d="M 1097.402344 296.894531 L 1478.230469 872.382812 C 1478.804688 873.25 1478.855469 874.359375 1478.363281 875.277344 C 1477.871094 876.191406 1476.917969 876.761719 1475.878906 876.761719 L 713.128906 876.761719 C 712.089844 876.761719 711.132812 876.191406 710.644531 875.277344 C 710.152344 874.359375 710.203125 873.25 710.777344 872.382812 L 1091.605469 296.894531 C 1092.25 295.921875 1093.335938 295.335938 1094.503906 295.335938 C 1095.667969 295.335938 1096.757812 295.921875 1097.402344 296.894531 " clip-rule="nonzero"/></clipPath><clipPath id="0c064c742a"><path d="M 403 327 L 809 327 L 809 462 L 403 462 Z M 403 327 " clip-rule="nonzero"/></clipPath><clipPath id="1a516c58c3"><path d="M 517.066406 205.507812 L 836.09375 369.042969 L 716.691406 601.972656 L 397.664062 438.4375 Z M 517.066406 205.507812 " clip-rule="nonzero"/></clipPath><clipPath id="ba7df55a34"><path d="M 517.066406 205.507812 L 836.09375 369.042969 L 716.691406 601.972656 L 397.664062 438.4375 Z M 517.066406 205.507812 " clip-rule="nonzero"/></clipPath></defs><rect x="-150" width="1800" fill="#ffffff" y="-112.499995" height="1349.99994" fill-opacity="1"/><rect x="-150" width="1800" fill="#ffffff" y="-112.499995" height="1349.99994" fill-opacity="1"/><path fill="#ffffff" d="M 448.863281 807.992188 C 448.863281 807.992188 444.320312 880.023438 246.261719 876.109375 C 23.148438 871.570312 38.964844 807.992188 38.964844 807.992188 L 246.261719 298.292969 Z M 448.863281 807.992188 " fill-opacity="1" fill-rule="nonzero"/><g clip-path="url(#adeff10e86)"><path fill="#000000" d="M 239.527344 740.503906 C 244.539062 740.503906 249.550781 740.503906 254.402344 740.660156 L 254.246094 748.488281 C 249.390625 748.332031 244.382812 748.332031 239.527344 748.332031 Z M 179.71875 743.636719 L 180.5 751.464844 C 185.355469 750.996094 190.367188 750.523438 195.21875 750.054688 L 194.59375 742.226562 C 189.738281 742.695312 184.730469 743.164062 179.71875 743.636719 Z M 209.625 741.441406 L 210.09375 749.273438 C 214.945312 748.957031 219.957031 748.800781 224.8125 748.644531 L 224.65625 740.816406 C 219.488281 740.972656 214.476562 741.128906 209.625 741.441406 Z M 150.128906 747.707031 L 151.378906 755.378906 C 156.078125 754.597656 161.085938 753.8125 165.941406 753.1875 L 164.84375 745.355469 C 159.835938 746.140625 154.824219 746.921875 150.128906 747.707031 Z M 63.859375 774.011719 L 67.617188 780.902344 C 71.53125 778.710938 75.914062 776.519531 80.609375 774.640625 L 77.480469 767.4375 C 72.625 769.472656 68.085938 771.664062 63.859375 774.011719 Z M 91.726562 761.800781 L 94.230469 769.160156 C 98.617188 767.59375 103.3125 766.183594 108.167969 764.773438 L 105.976562 757.257812 C 101.121094 758.824219 96.265625 760.234375 91.726562 761.800781 Z M 120.691406 753.5 L 122.570312 761.171875 C 127.269531 760.078125 131.964844 758.980469 136.976562 758.039062 L 135.410156 750.367188 C 130.242188 751.308594 125.390625 752.402344 120.691406 753.5 Z M 268.964844 748.800781 C 273.972656 748.957031 278.828125 749.273438 283.679688 749.585938 L 284.152344 741.753906 C 279.296875 741.441406 274.285156 741.128906 269.277344 740.972656 Z M 356.800781 759.449219 C 361.652344 760.546875 366.507812 761.644531 371.046875 762.894531 L 373.082031 755.378906 C 368.386719 754.125 363.53125 753.03125 358.519531 751.933594 Z M 412.222656 777.613281 C 416.921875 779.808594 420.992188 782.15625 424.75 784.660156 L 428.976562 778.085938 C 425.0625 775.578125 420.523438 772.917969 415.667969 770.566406 Z M 385.136719 766.964844 C 389.992188 768.53125 394.53125 770.097656 398.914062 771.820312 L 401.734375 764.460938 C 397.195312 762.738281 392.496094 761.015625 387.488281 759.449219 Z M 327.832031 754.28125 C 332.6875 755.066406 337.699219 755.847656 342.394531 756.632812 L 343.804688 748.957031 C 338.949219 748.019531 334.097656 747.234375 329.085938 746.609375 Z M 298.554688 750.839844 C 303.566406 751.308594 308.417969 751.777344 313.273438 752.402344 L 314.210938 744.574219 C 309.359375 743.949219 304.347656 743.476562 299.339844 743.007812 Z M 452.148438 810.8125 C 452.148438 850.273438 360.398438 881.121094 243.128906 881.121094 C 125.859375 881.121094 34.109375 850.117188 34.109375 810.8125 C 34.109375 808.777344 34.421875 806.742188 34.890625 804.859375 C 34.890625 804.390625 35.050781 803.921875 35.207031 803.453125 L 35.675781 802.511719 C 35.675781 802.355469 35.832031 802.199219 35.832031 801.886719 L 242.972656 296.257812 C 243.441406 295.320312 244.226562 294.535156 245.164062 294.066406 C 248.765625 292.65625 250.175781 296.101562 250.800781 297.824219 L 350.847656 550.714844 L 450.269531 802.042969 L 450.425781 802.042969 C 450.742188 802.824219 450.898438 803.609375 451.210938 804.546875 L 451.523438 805.175781 C 451.679688 805.800781 451.835938 806.269531 451.835938 806.898438 C 451.992188 807.992188 452.148438 809.402344 452.148438 810.8125 Z M 444.320312 810.8125 C 444.320312 809.402344 444.164062 807.992188 443.851562 806.582031 C 443.226562 805.175781 442.128906 802.355469 440.5625 798.285156 L 440.25 798.597656 C 438.996094 796.875 437.589844 794.996094 435.867188 793.273438 L 437.902344 791.238281 C 406.273438 711.847656 270.371094 368.289062 246.574219 308.160156 L 51.800781 783.410156 L 55.871094 788.574219 C 53.992188 789.984375 48.355469 794.683594 46.476562 796.40625 L 43.035156 804.859375 C 42.40625 806.742188 42.09375 808.621094 42.09375 810.5 C 42.09375 844.320312 134.15625 872.976562 243.285156 872.976562 C 352.414062 872.976562 444.320312 844.636719 444.320312 810.8125 Z M 444.320312 810.8125 " fill-opacity="1" fill-rule="nonzero"/></g><g fill="#cc0829" fill-opacity="1"><g transform="translate(178.903852, 673.828366)"><g><path d="M 15.265625 0.75 C 12.753906 0.75 10.578125 0.285156 8.734375 -0.640625 C 6.890625 -1.566406 5.46875 -2.921875 4.46875 -4.703125 C 3.476562 -6.492188 2.984375 -8.644531 2.984375 -11.15625 C 2.984375 -13.46875 3.476562 -15.410156 4.46875 -16.984375 C 5.46875 -18.554688 7.007812 -19.847656 9.09375 -20.859375 C 11.175781 -21.867188 13.894531 -22.644531 17.25 -23.1875 C 19.59375 -23.5625 21.375 -23.972656 22.59375 -24.421875 C 23.8125 -24.878906 24.632812 -25.390625 25.0625 -25.953125 C 25.488281 -26.523438 25.703125 -27.25 25.703125 -28.125 C 25.703125 -29.375 25.265625 -30.328125 24.390625 -30.984375 C 23.515625 -31.648438 22.0625 -31.984375 20.03125 -31.984375 C 17.851562 -31.984375 15.78125 -31.5 13.8125 -30.53125 C 11.84375 -29.5625 10.140625 -28.285156 8.703125 -26.703125 L 7.984375 -26.703125 L 3.875 -32.921875 C 5.863281 -35.117188 8.289062 -36.832031 11.15625 -38.0625 C 14.019531 -39.289062 17.140625 -39.90625 20.515625 -39.90625 C 25.703125 -39.90625 29.457031 -38.804688 31.78125 -36.609375 C 34.101562 -34.410156 35.265625 -31.285156 35.265625 -27.234375 L 35.265625 -10.21875 C 35.265625 -8.46875 36.03125 -7.59375 37.5625 -7.59375 C 38.15625 -7.59375 38.738281 -7.703125 39.3125 -7.921875 L 39.796875 -7.78125 L 40.515625 -0.921875 C 39.972656 -0.566406 39.210938 -0.273438 38.234375 -0.046875 C 37.265625 0.171875 36.203125 0.28125 35.046875 0.28125 C 32.703125 0.28125 30.875 -0.164062 29.5625 -1.0625 C 28.25 -1.96875 27.304688 -3.378906 26.734375 -5.296875 L 25.984375 -5.359375 C 24.066406 -1.285156 20.492188 0.75 15.265625 0.75 Z M 18.390625 -6.609375 C 20.660156 -6.609375 22.476562 -7.367188 23.84375 -8.890625 C 25.207031 -10.421875 25.890625 -12.546875 25.890625 -15.265625 L 25.890625 -19.25 L 25.203125 -19.390625 C 24.617188 -18.910156 23.847656 -18.507812 22.890625 -18.1875 C 21.929688 -17.875 20.550781 -17.5625 18.75 -17.25 C 16.613281 -16.894531 15.078125 -16.285156 14.140625 -15.421875 C 13.210938 -14.554688 12.75 -13.332031 12.75 -11.75 C 12.75 -10.070312 13.242188 -8.796875 14.234375 -7.921875 C 15.234375 -7.046875 16.617188 -6.609375 18.390625 -6.609375 Z M 18.390625 -6.609375 "/></g></g></g><path stroke-linecap="round" transform="matrix(0.167397, -0.730738, 0.731063, 0.167472, 112.899134, 862.674506)" fill="none" stroke-linejoin="miter" d="M 7.00127 6.998537 L 766.352321 6.998423 " stroke="#cc0829" stroke-width="14" stroke-opacity="1" stroke-miterlimit="4"/><path stroke-linecap="round" transform="matrix(-0.00000000000229318, -0.749803, 0.75, -0.00000000000229379, 1089.297012, 876.461617)" fill="none" stroke-linejoin="miter" d="M 6.997538 6.999819 L 765.202275 6.999819 " stroke="#cc0829" stroke-width="14" stroke-opacity="1" stroke-miterlimit="4"/><g fill="#cc0829" fill-opacity="1"><g transform="translate(1113.281155, 656.137872)"><g><path d="M 15.265625 0.75 C 12.753906 0.75 10.578125 0.285156 8.734375 -0.640625 C 6.890625 -1.566406 5.46875 -2.921875 4.46875 -4.703125 C 3.476562 -6.492188 2.984375 -8.644531 2.984375 -11.15625 C 2.984375 -13.46875 3.476562 -15.410156 4.46875 -16.984375 C 5.46875 -18.554688 7.007812 -19.847656 9.09375 -20.859375 C 11.175781 -21.867188 13.894531 -22.644531 17.25 -23.1875 C 19.59375 -23.5625 21.375 -23.972656 22.59375 -24.421875 C 23.8125 -24.878906 24.632812 -25.390625 25.0625 -25.953125 C 25.488281 -26.523438 25.703125 -27.25 25.703125 -28.125 C 25.703125 -29.375 25.265625 -30.328125 24.390625 -30.984375 C 23.515625 -31.648438 22.0625 -31.984375 20.03125 -31.984375 C 17.851562 -31.984375 15.78125 -31.5 13.8125 -30.53125 C 11.84375 -29.5625 10.140625 -28.285156 8.703125 -26.703125 L 7.984375 -26.703125 L 3.875 -32.921875 C 5.863281 -35.117188 8.289062 -36.832031 11.15625 -38.0625 C 14.019531 -39.289062 17.140625 -39.90625 20.515625 -39.90625 C 25.703125 -39.90625 29.457031 -38.804688 31.78125 -36.609375 C 34.101562 -34.410156 35.265625 -31.285156 35.265625 -27.234375 L 35.265625 -10.21875 C 35.265625 -8.46875 36.03125 -7.59375 37.5625 -7.59375 C 38.15625 -7.59375 38.738281 -7.703125 39.3125 -7.921875 L 39.796875 -7.78125 L 40.515625 -0.921875 C 39.972656 -0.566406 39.210938 -0.273438 38.234375 -0.046875 C 37.265625 0.171875 36.203125 0.28125 35.046875 0.28125 C 32.703125 0.28125 30.875 -0.164062 29.5625 -1.0625 C 28.25 -1.96875 27.304688 -3.378906 26.734375 -5.296875 L 25.984375 -5.359375 C 24.066406 -1.285156 20.492188 0.75 15.265625 0.75 Z M 18.390625 -6.609375 C 20.660156 -6.609375 22.476562 -7.367188 23.84375 -8.890625 C 25.207031 -10.421875 25.890625 -12.546875 25.890625 -15.265625 L 25.890625 -19.25 L 25.203125 -19.390625 C 24.617188 -18.910156 23.847656 -18.507812 22.890625 -18.1875 C 21.929688 -17.875 20.550781 -17.5625 18.75 -17.25 C 16.613281 -16.894531 15.078125 -16.285156 14.140625 -15.421875 C 13.210938 -14.554688 12.75 -13.332031 12.75 -11.75 C 12.75 -10.070312 13.242188 -8.796875 14.234375 -7.921875 C 15.234375 -7.046875 16.617188 -6.609375 18.390625 -6.609375 Z M 18.390625 -6.609375 "/></g></g></g><g clip-path="url(#5b0b2c2618)"><g clip-path="url(#40357e3bcd)"><path stroke-linecap="butt" transform="matrix(0.74992, 0, 0, 0.750391, 707.87786, 292.514897)" fill="none" stroke-linejoin="miter" d="M 519.421189 5.836467 L 1027.246001 772.754095 C 1028.011708 773.909742 1028.079423 775.388137 1027.423104 776.611458 C 1026.766784 777.829572 1025.495815 778.589592 1024.110251 778.589592 L 7.002139 778.589592 C 5.616575 778.589592 4.340398 777.829572 3.689287 776.611458 C 3.032967 775.388137 3.100682 773.909742 3.866389 772.754095 L 511.691201 5.836467 C 512.550667 4.540269 513.998738 3.759426 515.556195 3.759426 C 517.108443 3.759426 518.561723 4.540269 519.421189 5.836467 " stroke="#000000" stroke-width="20" stroke-opacity="1" stroke-miterlimit="4"/></g></g><g clip-path="url(#0c064c742a)"><g clip-path="url(#1a516c58c3)"><g clip-path="url(#ba7df55a34)"><path fill="#1e76e9" d="M 806.601562 394.601562 C 803.761719 386.792969 794.195312 371.480469 787.058594 361.167969 C 778.433594 348.703125 766.75 333.433594 752.492188 327.542969 C 747.429688 325.445312 740.65625 330.074219 741.984375 335.832031 C 745.347656 350.296875 756.828125 363.996094 765.289062 376.257812 C 647.515625 330.976562 502.164062 343.050781 406.257812 428.53125 C 400.398438 433.753906 406.484375 442.941406 413.414062 438.660156 C 515.921875 375.242188 645.695312 357.558594 755.992188 407.53125 C 752.394531 409.527344 748.785156 411.535156 745.179688 413.511719 C 730.585938 421.511719 714.976562 428.285156 703.675781 440.773438 C 696.167969 449.066406 704.328125 463.144531 715.074219 461.800781 C 730.957031 459.820312 744.699219 451.097656 758.75 443.949219 C 773.007812 436.691406 787.480469 429.757812 801.460938 421.984375 C 811.238281 416.558594 809.441406 402.414062 806.601562 394.601562 Z M 806.601562 394.601562 " fill-opacity="1" fill-rule="nonzero"/></g></g></g></svg>