<?xml version="1.0" encoding="UTF-8"?>
<!DOCTYPE svg PUBLIC "-//W3C//DTD SVG 1.1//EN" "http://www.w3.org/Graphics/SVG/1.1/DTD/svg11.dtd">
<svg xmlns="http://www.w3.org/2000/svg" version="1.1" width="2000px" height="1500px" style="shape-rendering:geometricPrecision; text-rendering:geometricPrecision; image-rendering:optimizeQuality; fill-rule:evenodd; clip-rule:evenodd" xmlns:xlink="http://www.w3.org/1999/xlink">
<g><path style="opacity:1" fill="#fefefe" d="M -0.5,-0.5 C 666.167,-0.5 1332.83,-0.5 1999.5,-0.5C 1999.5,499.5 1999.5,999.5 1999.5,1499.5C 1332.83,1499.5 666.167,1499.5 -0.5,1499.5C -0.5,999.5 -0.5,499.5 -0.5,-0.5 Z"/></g>
<g><path style="opacity:1" fill="#050505" d="M 1008.5,154.5 C 1008.44,153.957 1008.11,153.624 1007.5,153.5C 1006.33,374.166 1006.17,594.833 1007,815.5C 1008.04,814.756 1008.54,813.756 1008.5,812.5C 1009.67,807.925 1011.34,803.591 1013.5,799.5C 1016.39,797.252 1018.06,794.252 1018.5,790.5C 1019.34,790.158 1019.67,789.492 1019.5,788.5C 1021.33,786.853 1022.66,784.853 1023.5,782.5C 1023.33,781.508 1023.66,780.842 1024.5,780.5C 1026.33,778.853 1027.66,776.853 1028.5,774.5C 1043.98,754.006 1060.98,734.673 1079.5,716.5C 1089.13,708.868 1098.47,700.868 1107.5,692.5C 1111.77,691.752 1114.77,689.419 1116.5,685.5C 1121.07,683.262 1125.07,680.262 1128.5,676.5C 1131.37,675.567 1133.7,673.9 1135.5,671.5C 1137.85,670.66 1139.85,669.326 1141.5,667.5C 1143.3,665.1 1145.63,663.433 1148.5,662.5C 1150.85,661.66 1152.85,660.326 1154.5,658.5C 1157.12,657.214 1159.45,655.547 1161.5,653.5C 1165.09,653.349 1167.75,651.682 1169.5,648.5C 1171.61,647.217 1173.94,646.384 1176.5,646C 1177.31,644.887 1177.97,643.721 1178.5,642.5C 1180.67,642.25 1182.34,641.25 1183.5,639.5C 1187.13,639.299 1189.8,637.632 1191.5,634.5C 1192.17,634.167 1192.83,633.833 1193.5,633.5C 1196.41,632.892 1198.74,631.559 1200.5,629.5C 1206.02,628.583 1210.35,625.916 1213.5,621.5C 1214.39,620.89 1215.39,620.557 1216.5,620.5C 1223.1,618.535 1229.1,615.535 1234.5,611.5C 1235.96,610.263 1237.63,609.263 1239.5,608.5C 1241.85,608.408 1243.51,607.408 1244.5,605.5C 1247.86,604.316 1250.86,602.483 1253.5,600C 1263.72,597.112 1273.06,592.445 1281.5,586C 1282.79,585.51 1284.13,585.343 1285.5,585.5C 1287.85,585.408 1289.51,584.408 1290.5,582.5C 1294.67,579.607 1299.34,577.607 1304.5,576.5C 1306.67,576.25 1308.34,575.25 1309.5,573.5C 1311.17,572.833 1312.83,572.167 1314.5,571.5C 1316.97,571.245 1318.97,570.245 1320.5,568.5C 1324.53,567.39 1328.2,565.723 1331.5,563.5C 1334.35,561.909 1337.35,560.576 1340.5,559.5C 1344.53,558.39 1348.2,556.723 1351.5,554.5C 1353.5,553.833 1355.5,553.167 1357.5,552.5C 1362.7,550.398 1367.7,548.064 1372.5,545.5C 1374.5,544.833 1376.5,544.167 1378.5,543.5C 1380.97,543.245 1382.97,542.245 1384.5,540.5C 1384.83,540.5 1385.17,540.5 1385.5,540.5C 1389.31,540.062 1392.65,538.729 1395.5,536.5C 1397.28,536.107 1398.95,535.441 1400.5,534.5C 1406.55,532.137 1412.55,529.804 1418.5,527.5C 1421.25,526.488 1423.92,525.488 1426.5,524.5C 1429.86,524.31 1432.86,523.31 1435.5,521.5C 1435.83,521.5 1436.17,521.5 1436.5,521.5C 1442.13,521.381 1447.13,519.715 1451.5,516.5C 1451.5,516.167 1451.5,515.833 1451.5,515.5C 1454.15,515.59 1456.49,514.924 1458.5,513.5C 1460.3,512.542 1462.3,511.875 1464.5,511.5C 1468.89,511.034 1472.89,509.701 1476.5,507.5C 1477.83,507.167 1479.17,506.833 1480.5,506.5C 1482.9,506.741 1484.9,506.074 1486.5,504.5C 1492.82,502.666 1499.15,500.666 1505.5,498.5C 1511.8,497.17 1518.13,495.836 1524.5,494.5C 1525.71,494.253 1526.38,493.586 1526.5,492.5C 1529.75,491.946 1532.75,490.946 1535.5,489.5C 1541.9,488.947 1547.9,487.28 1553.5,484.5C 1558.36,483.535 1563.03,482.201 1567.5,480.5C 1575.94,477.804 1584.61,475.471 1593.5,473.5C 1595.86,473.326 1598.19,472.993 1600.5,472.5C 1606.51,472.118 1612.17,470.784 1617.5,468.5C 1620.7,467.869 1623.7,466.869 1626.5,465.5C 1634.56,464.089 1642.56,462.422 1650.5,460.5C 1661.78,458.903 1672.78,456.569 1683.5,453.5C 1683.83,453.5 1684.17,453.5 1684.5,453.5C 1698.52,452.358 1712.19,450.025 1725.5,446.5C 1733.34,445.693 1741.01,444.36 1748.5,442.5C 1751.29,441.523 1754.29,441.19 1757.5,441.5C 1767.68,440.459 1777.68,439.126 1787.5,437.5C 1794.5,436.833 1801.5,436.167 1808.5,435.5C 1818.51,435.612 1828.51,435.945 1838.5,436.5C 1838.5,436.833 1838.5,437.167 1838.5,437.5C 1837.64,439.614 1835.97,440.78 1833.5,441C 1798.66,445.809 1764,451.309 1729.5,457.5C 1724.47,457.443 1719.8,458.443 1715.5,460.5C 1714.5,460.5 1713.5,460.5 1712.5,460.5C 1710,460.749 1707.5,461.083 1705,461.5C 1703.32,461.608 1702.15,462.275 1701.5,463.5C 1701.17,463.5 1700.83,463.5 1700.5,463.5C 1691.77,463.779 1683.44,465.446 1675.5,468.5C 1671.66,468.931 1668,469.598 1664.5,470.5C 1653.97,471.069 1643.97,473.403 1634.5,477.5C 1634.17,477.5 1633.83,477.5 1633.5,477.5C 1629.42,477.892 1625.42,478.558 1621.5,479.5C 1616.61,480.01 1611.94,481.01 1607.5,482.5C 1603.98,483.632 1600.31,484.632 1596.5,485.5C 1592.84,485.723 1589.5,486.723 1586.5,488.5C 1582.2,488.755 1578.2,489.755 1574.5,491.5C 1571.85,491.41 1569.51,492.076 1567.5,493.5C 1564.27,493.676 1561.27,494.343 1558.5,495.5C 1554.23,496.256 1550.23,497.589 1546.5,499.5C 1545.83,499.5 1545.17,499.5 1544.5,499.5C 1537.69,501.898 1530.69,503.732 1523.5,505C 1522.94,505.383 1522.61,505.883 1522.5,506.5C 1516.68,506.95 1511.34,508.616 1506.5,511.5C 1502.45,512.013 1498.45,512.846 1494.5,514C 1493.94,514.383 1493.61,514.883 1493.5,515.5C 1488.05,516.106 1483.05,517.773 1478.5,520.5C 1476.9,520.232 1475.57,520.566 1474.5,521.5C 1469.08,522.302 1464.08,523.968 1459.5,526.5C 1451.2,528.876 1442.87,531.376 1434.5,534C 1430.6,535.565 1426.93,537.398 1423.5,539.5C 1422.21,539.263 1421.21,539.596 1420.5,540.5C 1416.29,540.677 1412.63,542.01 1409.5,544.5C 1405.41,545.382 1401.74,547.049 1398.5,549.5C 1397.83,549.5 1397.17,549.5 1396.5,549.5C 1392.3,550.223 1388.63,551.89 1385.5,554.5C 1380.94,555.767 1376.61,557.433 1372.5,559.5C 1369.05,560.083 1366.05,561.416 1363.5,563.5C 1359.06,564.414 1355.06,566.081 1351.5,568.5C 1348.05,569.083 1345.05,570.416 1342.5,572.5C 1338.38,573.399 1334.71,575.066 1331.5,577.5C 1327.38,578.399 1323.71,580.066 1320.5,582.5C 1316.57,583.132 1313.24,584.799 1310.5,587.5C 1310.17,587.5 1309.83,587.5 1309.5,587.5C 1306.28,587.896 1303.61,589.229 1301.5,591.5C 1291.37,595.401 1281.7,600.068 1272.5,605.5C 1268.7,606.421 1265.37,608.088 1262.5,610.5C 1256.92,612.771 1251.58,615.437 1246.5,618.5C 1242.39,619.753 1238.72,621.753 1235.5,624.5C 1232.01,625.41 1229.01,627.076 1226.5,629.5C 1223.01,630.41 1220.01,632.076 1217.5,634.5C 1214.67,635.079 1212.34,636.412 1210.5,638.5C 1207.01,639.41 1204.01,641.076 1201.5,643.5C 1198.15,644.169 1195.48,645.836 1193.5,648.5C 1189.49,649.498 1186.16,651.498 1183.5,654.5C 1180.39,655.773 1177.39,657.273 1174.5,659C 1172.38,660.049 1170.72,661.549 1169.5,663.5C 1166.8,663.845 1164.8,665.178 1163.5,667.5C 1160.8,667.845 1158.8,669.178 1157.5,671.5C 1154.63,672.433 1152.3,674.1 1150.5,676.5C 1149.08,676.709 1147.74,677.209 1146.5,678C 1142.91,680.614 1139.58,683.448 1136.5,686.5C 1132.27,688.4 1128.6,691.067 1125.5,694.5C 1120.25,697.411 1115.59,701.078 1111.5,705.5C 1088.87,722.462 1068.87,742.128 1051.5,764.5C 1049.41,765.585 1048.08,767.251 1047.5,769.5C 1045.1,771.296 1043.43,773.63 1042.5,776.5C 1038.94,781.908 1035.11,787.241 1031,792.5C 1029.55,795.071 1028.38,797.738 1027.5,800.5C 1025.17,802.176 1024.17,804.509 1024.5,807.5C 1022.29,808.894 1020.79,810.894 1020,813.5C 1018.46,817.9 1016.96,822.233 1015.5,826.5C 1014.13,828.936 1013.13,831.603 1012.5,834.5C 1010.93,836.102 1010.26,838.102 1010.5,840.5C 1010.5,840.833 1010.5,841.167 1010.5,841.5C 1005.55,840.671 1000.55,840.337 995.5,840.5C 995.667,611.5 995.5,382.5 995,153.5C 994.487,154.527 993.987,155.527 993.5,156.5C 991.364,158.812 989.364,161.312 987.5,164C 980.752,166.909 977.586,164.743 978,157.5C 983.667,149.5 989.333,141.5 995,133.5C 998.008,129.098 1001.67,128.431 1006,131.5C 1012.33,140.167 1018.67,148.833 1025,157.5C 1025.92,162.327 1023.92,164.994 1019,165.5C 1014.16,163.192 1010.66,159.526 1008.5,154.5 Z"/></g>
<g><path style="opacity:1" fill="#d2d2d2" d="M 995.5,840.5 C 995.5,841.167 995.167,841.5 994.5,841.5C 994.833,612.999 994.5,384.666 993.5,156.5C 993.987,155.527 994.487,154.527 995,153.5C 995.5,382.5 995.667,611.5 995.5,840.5 Z"/></g>
<g><path style="opacity:1" fill="#2b2b2b" d="M 1008.5,154.5 C 1007.17,373.833 1007.17,593.167 1008.5,812.5C 1008.54,813.756 1008.04,814.756 1007,815.5C 1006.17,594.833 1006.33,374.166 1007.5,153.5C 1008.11,153.624 1008.44,153.957 1008.5,154.5 Z"/></g>
<g><path style="opacity:1" fill="#5f9def" d="M 945.5,207.5 C 953.01,206.18 960.677,206.18 968.5,207.5C 968.376,208.107 968.043,208.44 967.5,208.5C 960.352,207.508 953.019,207.175 945.5,207.5 Z"/></g>
<g><path style="opacity:1" fill="#2377e9" d="M 945.5,207.5 C 953.019,207.175 960.352,207.508 967.5,208.5C 958.361,234.749 948.528,260.749 938,286.5C 933.382,293.562 926.882,297.728 918.5,299C 913.316,299.816 908.316,299.65 903.5,298.5C 903.178,292.642 903.511,286.975 904.5,281.5C 914.268,283.454 920.268,279.621 922.5,270C 914.265,249.127 905.931,228.293 897.5,207.5C 905.392,206.186 913.225,206.186 921,207.5C 925.613,221.672 929.613,236.005 933,250.5C 936.671,235.991 940.838,221.657 945.5,207.5 Z"/></g>
<g><path style="opacity:1" fill="#9fc4f5" d="M 904.5,281.5 C 903.511,286.975 903.178,292.642 903.5,298.5C 902.183,292.654 902.183,286.654 903.5,280.5C 904.107,280.624 904.44,280.957 904.5,281.5 Z"/></g>
<g><path style="opacity:1" fill="#c2c2c2" d="M 1808.5,435.5 C 1818.54,434.221 1828.54,434.554 1838.5,436.5C 1828.51,435.945 1818.51,435.612 1808.5,435.5 Z"/></g>
<g><path style="opacity:1" fill="#717171" d="M 1787.5,437.5 C 1777.68,439.126 1767.68,440.459 1757.5,441.5C 1760.53,439.982 1763.87,439.149 1767.5,439C 1774.14,438.048 1780.8,437.548 1787.5,437.5 Z"/></g>
<g><path style="opacity:1" fill="#8a8a8a" d="M 1748.5,442.5 C 1741.01,444.36 1733.34,445.693 1725.5,446.5C 1724.17,446.5 1722.83,446.5 1721.5,446.5C 1730.2,444.065 1739.2,442.732 1748.5,442.5 Z"/></g>
<g><path style="opacity:1" fill="#454545" d="M 1721.5,446.5 C 1722.83,446.5 1724.17,446.5 1725.5,446.5C 1712.19,450.025 1698.52,452.358 1684.5,453.5C 1696.74,451.271 1709.07,448.937 1721.5,446.5 Z"/></g>
<g><path style="opacity:1" fill="#7e7e7e" d="M 1838.5,437.5 C 1840.05,437.821 1840.71,438.821 1840.5,440.5C 1803.51,446.416 1766.51,452.416 1729.5,458.5C 1729.5,458.167 1729.5,457.833 1729.5,457.5C 1764,451.309 1798.66,445.809 1833.5,441C 1835.97,440.78 1837.64,439.614 1838.5,437.5 Z"/></g>
<g><path style="opacity:1" fill="#7c7c7c" d="M 1683.5,453.5 C 1672.78,456.569 1661.78,458.903 1650.5,460.5C 1652.28,459.4 1654.28,458.566 1656.5,458C 1665.55,456.586 1674.55,455.086 1683.5,453.5 Z"/></g>
<g><path style="opacity:1" fill="#3e3e3e" d="M 1729.5,457.5 C 1729.5,457.833 1729.5,458.167 1729.5,458.5C 1727.38,458.325 1725.38,458.659 1723.5,459.5C 1720.83,459.833 1718.17,460.167 1715.5,460.5C 1719.8,458.443 1724.47,457.443 1729.5,457.5 Z"/></g>
<g><path style="opacity:1" fill="#6b6b6b" d="M 1712.5,460.5 C 1711.5,461.167 1710.5,461.833 1709.5,462.5C 1706.83,462.833 1704.17,463.167 1701.5,463.5C 1702.15,462.275 1703.32,461.608 1705,461.5C 1707.5,461.083 1710,460.749 1712.5,460.5 Z"/></g>
<g><path style="opacity:1" fill="#b7b7b7" d="M 1723.5,459.5 C 1719.12,461.23 1714.45,462.23 1709.5,462.5C 1710.5,461.833 1711.5,461.167 1712.5,460.5C 1713.5,460.5 1714.5,460.5 1715.5,460.5C 1718.17,460.167 1720.83,459.833 1723.5,459.5 Z"/></g>
<g><path style="opacity:1" fill="#909090" d="M 1626.5,465.5 C 1623.7,466.869 1620.7,467.869 1617.5,468.5C 1615.44,468.517 1613.44,468.85 1611.5,469.5C 1611.61,468.883 1611.94,468.383 1612.5,468C 1617.14,466.971 1621.81,466.138 1626.5,465.5 Z"/></g>
<g><path style="opacity:1" fill="#afafaf" d="M 1700.5,463.5 C 1692.42,465.932 1684.09,467.599 1675.5,468.5C 1683.44,465.446 1691.77,463.779 1700.5,463.5 Z"/></g>
<g><path style="opacity:1" fill="#3c3c3c" d="M 1617.5,468.5 C 1612.17,470.784 1606.51,472.118 1600.5,472.5C 1600.5,472.167 1600.5,471.833 1600.5,471.5C 1604.07,470.358 1607.74,469.691 1611.5,469.5C 1613.44,468.85 1615.44,468.517 1617.5,468.5 Z"/></g>
<g><path style="opacity:1" fill="#9a9a9a" d="M 1600.5,471.5 C 1600.5,471.833 1600.5,472.167 1600.5,472.5C 1598.19,472.993 1595.86,473.326 1593.5,473.5C 1595.51,472.076 1597.85,471.41 1600.5,471.5 Z"/></g>
<g><path style="opacity:1" fill="#a6a6a6" d="M 1664.5,470.5 C 1659.44,472.347 1654.11,473.514 1648.5,474C 1647.67,474.915 1646.67,475.581 1645.5,476C 1641.83,476.548 1638.16,477.048 1634.5,477.5C 1643.97,473.403 1653.97,471.069 1664.5,470.5 Z"/></g>
<g><path style="opacity:1" fill="#575757" d="M 1621.5,479.5 C 1617.17,481.502 1612.5,482.502 1607.5,482.5C 1611.94,481.01 1616.61,480.01 1621.5,479.5 Z"/></g>
<g><path style="opacity:1" fill="#858585" d="M 1567.5,480.5 C 1563.03,482.201 1558.36,483.535 1553.5,484.5C 1557.73,482.045 1562.4,480.711 1567.5,480.5 Z"/></g>
<g><path style="opacity:1" fill="#c9c9c9" d="M 1633.5,477.5 C 1629.65,479.284 1625.65,480.784 1621.5,482C 1611.2,484.485 1600.87,486.652 1590.5,488.5C 1592.5,487.5 1594.5,486.5 1596.5,485.5C 1600.31,484.632 1603.98,483.632 1607.5,482.5C 1612.5,482.502 1617.17,481.502 1621.5,479.5C 1625.42,478.558 1629.42,477.892 1633.5,477.5 Z"/></g>
<g><path style="opacity:1" fill="#616161" d="M 1596.5,485.5 C 1594.5,486.5 1592.5,487.5 1590.5,488.5C 1589.17,488.5 1587.83,488.5 1586.5,488.5C 1589.5,486.723 1592.84,485.723 1596.5,485.5 Z"/></g>
<g><path style="opacity:1" fill="#5c5c5c" d="M 1553.5,484.5 C 1547.9,487.28 1541.9,488.947 1535.5,489.5C 1541.07,486.74 1547.07,485.073 1553.5,484.5 Z"/></g>
<g><path style="opacity:1" fill="#6c6c6c" d="M 1586.5,488.5 C 1582.8,490.245 1578.8,491.245 1574.5,491.5C 1578.2,489.755 1582.2,488.755 1586.5,488.5 Z"/></g>
<g><path style="opacity:1" fill="#838383" d="M 1535.5,489.5 C 1532.75,490.946 1529.75,491.946 1526.5,492.5C 1526.79,491.351 1527.62,490.684 1529,490.5C 1531.14,489.923 1533.3,489.59 1535.5,489.5 Z"/></g>
<g><path style="opacity:1" fill="#757575" d="M 1574.5,491.5 C 1572.49,492.924 1570.15,493.59 1567.5,493.5C 1569.51,492.076 1571.85,491.41 1574.5,491.5 Z"/></g>
<g><path style="opacity:1" fill="#424242" d="M 1526.5,492.5 C 1526.38,493.586 1525.71,494.253 1524.5,494.5C 1518.13,495.836 1511.8,497.17 1505.5,498.5C 1512.08,495.434 1519.08,493.434 1526.5,492.5 Z"/></g>
<g><path style="opacity:1" fill="#646464" d="M 1567.5,493.5 C 1564.83,495.118 1561.83,495.785 1558.5,495.5C 1561.27,494.343 1564.27,493.676 1567.5,493.5 Z"/></g>
<g><path style="opacity:1" fill="#818181" d="M 1558.5,495.5 C 1554.92,497.806 1550.92,499.139 1546.5,499.5C 1550.23,497.589 1554.23,496.256 1558.5,495.5 Z"/></g>
<g><path style="opacity:1" fill="#9b9b9b" d="M 1544.5,499.5 C 1537.85,503.669 1530.51,506.003 1522.5,506.5C 1522.61,505.883 1522.94,505.383 1523.5,505C 1530.69,503.732 1537.69,501.898 1544.5,499.5 Z"/></g>
<g><path style="opacity:1" fill="#5a5a5a" d="M 1486.5,504.5 C 1484.9,506.074 1482.9,506.741 1480.5,506.5C 1482.1,504.926 1484.1,504.259 1486.5,504.5 Z"/></g>
<g><path style="opacity:1" fill="#878787" d="M 1476.5,507.5 C 1472.89,509.701 1468.89,511.034 1464.5,511.5C 1464.61,510.883 1464.94,510.383 1465.5,510C 1469.11,508.85 1472.78,508.017 1476.5,507.5 Z"/></g>
<g><path style="opacity:1" fill="#b0b0b0" d="M 1522.5,506.5 C 1517.92,509.848 1512.59,511.515 1506.5,511.5C 1511.34,508.616 1516.68,506.95 1522.5,506.5 Z"/></g>
<g><path style="opacity:1" fill="#a7a7a7" d="M 1506.5,511.5 C 1506.38,512.586 1505.71,513.253 1504.5,513.5C 1500.81,514.169 1497.15,514.835 1493.5,515.5C 1493.61,514.883 1493.94,514.383 1494.5,514C 1498.45,512.846 1502.45,512.013 1506.5,511.5 Z"/></g>
<g><path style="opacity:1" fill="#8a8a8a" d="M 1458.5,513.5 C 1456.49,514.924 1454.15,515.59 1451.5,515.5C 1453.51,514.076 1455.85,513.41 1458.5,513.5 Z"/></g>
<g><path style="opacity:1" fill="#b3b3b3" d="M 1493.5,515.5 C 1489.25,518.953 1484.25,520.619 1478.5,520.5C 1483.05,517.773 1488.05,516.106 1493.5,515.5 Z"/></g>
<g><path style="opacity:1" fill="#3c3c3c" d="M 1451.5,516.5 C 1447.13,519.715 1442.13,521.381 1436.5,521.5C 1436.61,520.883 1436.94,520.383 1437.5,520C 1442.11,518.515 1446.77,517.348 1451.5,516.5 Z"/></g>
<g><path style="opacity:1" fill="#828282" d="M 1435.5,521.5 C 1432.86,523.31 1429.86,524.31 1426.5,524.5C 1429.08,522.528 1432.08,521.528 1435.5,521.5 Z"/></g>
<g><path style="opacity:1" fill="#858585" d="M 1474.5,521.5 C 1469.74,523.789 1464.74,525.456 1459.5,526.5C 1464.08,523.968 1469.08,522.302 1474.5,521.5 Z"/></g>
<g><path style="opacity:1" fill="#a7a7a7" d="M 1418.5,527.5 C 1412.55,529.804 1406.55,532.137 1400.5,534.5C 1405.74,530.56 1411.74,528.227 1418.5,527.5 Z"/></g>
<g><path style="opacity:1" fill="#797979" d="M 1459.5,526.5 C 1447.97,531.924 1435.97,536.257 1423.5,539.5C 1426.93,537.398 1430.6,535.565 1434.5,534C 1442.87,531.376 1451.2,528.876 1459.5,526.5 Z"/></g>
<g><path style="opacity:1" fill="#999999" d="M 1395.5,536.5 C 1392.65,538.729 1389.31,540.062 1385.5,540.5C 1388.19,537.819 1391.53,536.486 1395.5,536.5 Z"/></g>
<g><path style="opacity:1" fill="#666666" d="M 1420.5,540.5 C 1417.2,542.584 1413.53,543.918 1409.5,544.5C 1412.63,542.01 1416.29,540.677 1420.5,540.5 Z"/></g>
<g><path style="opacity:1" fill="#929292" d="M 1384.5,540.5 C 1382.97,542.245 1380.97,543.245 1378.5,543.5C 1380.03,541.755 1382.03,540.755 1384.5,540.5 Z"/></g>
<g><path style="opacity:1" fill="#9b9b9b" d="M 1372.5,545.5 C 1367.7,548.064 1362.7,550.398 1357.5,552.5C 1361.77,548.87 1366.77,546.537 1372.5,545.5 Z"/></g>
<g><path style="opacity:1" fill="#b6b6b6" d="M 1409.5,544.5 C 1406.5,547.496 1402.84,549.163 1398.5,549.5C 1401.74,547.049 1405.41,545.382 1409.5,544.5 Z"/></g>
<g><path style="opacity:1" fill="#747474" d="M 1396.5,549.5 C 1393.29,551.934 1389.62,553.601 1385.5,554.5C 1388.63,551.89 1392.3,550.223 1396.5,549.5 Z"/></g>
<g><path style="opacity:1" fill="#9d9d9d" d="M 1351.5,554.5 C 1348.2,556.723 1344.53,558.39 1340.5,559.5C 1343.63,556.89 1347.3,555.223 1351.5,554.5 Z"/></g>
<g><path style="opacity:1" fill="#777777" d="M 1372.5,559.5 C 1369.95,561.584 1366.95,562.917 1363.5,563.5C 1366.05,561.416 1369.05,560.083 1372.5,559.5 Z"/></g>
<g><path style="opacity:1" fill="#909090" d="M 1331.5,563.5 C 1328.2,565.723 1324.53,567.39 1320.5,568.5C 1323.63,565.89 1327.3,564.223 1331.5,563.5 Z"/></g>
<g><path style="opacity:1" fill="#898989" d="M 1363.5,563.5 C 1361.08,565.268 1358.41,566.768 1355.5,568C 1354.21,568.49 1352.87,568.657 1351.5,568.5C 1355.06,566.081 1359.06,564.414 1363.5,563.5 Z"/></g>
<g><path style="opacity:1" fill="#818181" d="M 1320.5,568.5 C 1318.97,570.245 1316.97,571.245 1314.5,571.5C 1316.03,569.755 1318.03,568.755 1320.5,568.5 Z"/></g>
<g><path style="opacity:1" fill="#6f6f6f" d="M 1351.5,568.5 C 1348.95,570.584 1345.95,571.917 1342.5,572.5C 1345.05,570.416 1348.05,569.083 1351.5,568.5 Z"/></g>
<g><path style="opacity:1" fill="#7c7c7c" d="M 1342.5,572.5 C 1339.37,575.11 1335.7,576.777 1331.5,577.5C 1334.71,575.066 1338.38,573.399 1342.5,572.5 Z"/></g>
<g><path style="opacity:1" fill="#797979" d="M 1309.5,573.5 C 1308.34,575.25 1306.67,576.25 1304.5,576.5C 1305.49,574.592 1307.15,573.592 1309.5,573.5 Z"/></g>
<g><path style="opacity:1" fill="#7e7e7e" d="M 1331.5,577.5 C 1328.37,580.11 1324.7,581.777 1320.5,582.5C 1323.71,580.066 1327.38,578.399 1331.5,577.5 Z"/></g>
<g><path style="opacity:1" fill="#646464" d="M 1290.5,582.5 C 1289.51,584.408 1287.85,585.408 1285.5,585.5C 1286.66,583.75 1288.33,582.75 1290.5,582.5 Z"/></g>
<g><path style="opacity:1" fill="#8b8b8b" d="M 1320.5,582.5 C 1317.76,585.201 1314.43,586.868 1310.5,587.5C 1313.24,584.799 1316.57,583.132 1320.5,582.5 Z"/></g>
<g><path style="opacity:1" fill="#767676" d="M 1309.5,587.5 C 1307.39,589.771 1304.72,591.104 1301.5,591.5C 1303.61,589.229 1306.28,587.896 1309.5,587.5 Z"/></g>
<g><path style="opacity:1" fill="#909090" d="M 1301.5,591.5 C 1295.54,595.484 1289.21,598.984 1282.5,602C 1279.25,603.46 1275.92,604.626 1272.5,605.5C 1281.7,600.068 1291.37,595.401 1301.5,591.5 Z"/></g>
<g><path style="opacity:1" fill="#626262" d="M 1244.5,605.5 C 1243.51,607.408 1241.85,608.408 1239.5,608.5C 1240.66,606.75 1242.33,605.75 1244.5,605.5 Z"/></g>
<g><path style="opacity:1" fill="#858585" d="M 1272.5,605.5 C 1269.84,608.166 1266.5,609.832 1262.5,610.5C 1265.37,608.088 1268.7,606.421 1272.5,605.5 Z"/></g>
<g><path style="opacity:1" fill="#979797" d="M 1262.5,610.5 C 1260.04,612.412 1257.38,614.245 1254.5,616C 1252.09,617.707 1249.42,618.54 1246.5,618.5C 1251.58,615.437 1256.92,612.771 1262.5,610.5 Z"/></g>
<g><path style="opacity:1" fill="#797979" d="M 1234.5,611.5 C 1229.1,615.535 1223.1,618.535 1216.5,620.5C 1216.95,619.542 1217.62,618.708 1218.5,618C 1222.78,616.527 1226.78,614.527 1230.5,612C 1231.79,611.51 1233.13,611.343 1234.5,611.5 Z"/></g>
<g><path style="opacity:1" fill="#818181" d="M 1246.5,618.5 C 1243.61,621.78 1239.94,623.78 1235.5,624.5C 1238.72,621.753 1242.39,619.753 1246.5,618.5 Z"/></g>
<g><path style="opacity:1" fill="#6d6d6d" d="M 1213.5,621.5 C 1210.35,625.916 1206.02,628.583 1200.5,629.5C 1204.66,626.586 1208.99,623.919 1213.5,621.5 Z"/></g>
<g><path style="opacity:1" fill="#969696" d="M 1235.5,624.5 C 1233.35,627.415 1230.35,629.082 1226.5,629.5C 1229.01,627.076 1232.01,625.41 1235.5,624.5 Z"/></g>
<g><path style="opacity:1" fill="#9f9f9f" d="M 1226.5,629.5 C 1224.35,632.415 1221.35,634.082 1217.5,634.5C 1220.01,632.076 1223.01,630.41 1226.5,629.5 Z"/></g>
<g><path style="opacity:1" fill="#808080" d="M 1200.5,629.5 C 1198.74,631.559 1196.41,632.892 1193.5,633.5C 1195.34,631.412 1197.67,630.079 1200.5,629.5 Z"/></g>
<g><path style="opacity:1" fill="#6c6c6c" d="M 1191.5,634.5 C 1189.8,637.632 1187.13,639.299 1183.5,639.5C 1185.66,637.103 1188.33,635.436 1191.5,634.5 Z"/></g>
<g><path style="opacity:1" fill="#9c9c9c" d="M 1210.5,638.5 C 1208.35,641.415 1205.35,643.082 1201.5,643.5C 1204.01,641.076 1207.01,639.41 1210.5,638.5 Z"/></g>
<g><path style="opacity:1" fill="#898989" d="M 1201.5,643.5 C 1201.63,644.376 1201.3,645.043 1200.5,645.5C 1198.03,646.32 1195.69,647.32 1193.5,648.5C 1195.48,645.836 1198.15,644.169 1201.5,643.5 Z"/></g>
<g><path style="opacity:1" fill="#535353" d="M 1178.5,642.5 C 1177.97,643.721 1177.31,644.887 1176.5,646C 1173.94,646.384 1171.61,647.217 1169.5,648.5C 1171.98,645.759 1174.98,643.759 1178.5,642.5 Z"/></g>
<g><path style="opacity:1" fill="#484848" d="M 1169.5,648.5 C 1167.75,651.682 1165.09,653.349 1161.5,653.5C 1163.63,651.05 1166.3,649.383 1169.5,648.5 Z"/></g>
<g><path style="opacity:1" fill="#b5b5b5" d="M 1193.5,648.5 C 1191.14,652.017 1187.81,654.017 1183.5,654.5C 1186.16,651.498 1189.49,649.498 1193.5,648.5 Z"/></g>
<g><path style="opacity:1" fill="#999999" d="M 1183.5,654.5 C 1180.41,657.409 1177.08,660.242 1173.5,663C 1172.21,663.49 1170.87,663.657 1169.5,663.5C 1170.72,661.549 1172.38,660.049 1174.5,659C 1177.39,657.273 1180.39,655.773 1183.5,654.5 Z"/></g>
<g><path style="opacity:1" fill="#6b6b6b" d="M 1161.5,653.5 C 1159.45,655.547 1157.12,657.214 1154.5,658.5C 1155.99,655.677 1158.33,654.01 1161.5,653.5 Z"/></g>
<g><path style="opacity:1" fill="#707070" d="M 1154.5,658.5 C 1152.85,660.326 1150.85,661.66 1148.5,662.5C 1149.8,660.178 1151.8,658.845 1154.5,658.5 Z"/></g>
<g><path style="opacity:1" fill="#888888" d="M 1169.5,663.5 C 1167.97,665.369 1165.97,666.702 1163.5,667.5C 1164.8,665.178 1166.8,663.845 1169.5,663.5 Z"/></g>
<g><path style="opacity:1" fill="#737373" d="M 1141.5,667.5 C 1139.85,669.326 1137.85,670.66 1135.5,671.5C 1136.8,669.178 1138.8,667.845 1141.5,667.5 Z"/></g>
<g><path style="opacity:1" fill="#757575" d="M 1163.5,667.5 C 1161.85,669.326 1159.85,670.66 1157.5,671.5C 1158.8,669.178 1160.8,667.845 1163.5,667.5 Z"/></g>
<g><path style="opacity:1" fill="#717171" d="M 1135.5,671.5 C 1133.7,673.9 1131.37,675.567 1128.5,676.5C 1130.3,674.1 1132.63,672.433 1135.5,671.5 Z"/></g>
<g><path style="opacity:1" fill="#838383" d="M 1150.5,676.5 C 1146.55,680.812 1141.88,684.145 1136.5,686.5C 1139.58,683.448 1142.91,680.614 1146.5,678C 1147.74,677.209 1149.08,676.709 1150.5,676.5 Z"/></g>
<g><path style="opacity:1" fill="#737373" d="M 1128.5,676.5 C 1125.07,680.262 1121.07,683.262 1116.5,685.5C 1119.93,681.738 1123.93,678.738 1128.5,676.5 Z"/></g>
<g><path style="opacity:1" fill="#4f4f4f" d="M 1116.5,685.5 C 1114.77,689.419 1111.77,691.752 1107.5,692.5C 1109.95,689.444 1112.95,687.111 1116.5,685.5 Z"/></g>
<g><path style="opacity:1" fill="#838383" d="M 1136.5,686.5 C 1133.4,689.933 1129.73,692.6 1125.5,694.5C 1128.6,691.067 1132.27,688.4 1136.5,686.5 Z"/></g>
<g><path style="opacity:1" fill="#5f5f5f" d="M 1107.5,692.5 C 1098.47,700.868 1089.13,708.868 1079.5,716.5C 1087.94,707.383 1097.28,699.383 1107.5,692.5 Z"/></g>
<g><path style="opacity:1" fill="#c1c1c1" d="M 1125.5,694.5 C 1122.2,697.918 1118.87,701.418 1115.5,705C 1114.21,705.49 1112.87,705.657 1111.5,705.5C 1115.59,701.078 1120.25,697.411 1125.5,694.5 Z"/></g>
<g><path style="opacity:1" fill="#929292" d="M 1111.5,705.5 C 1090.2,723.8 1070.2,743.467 1051.5,764.5C 1068.87,742.128 1088.87,722.462 1111.5,705.5 Z"/></g>
<g><path style="opacity:1" fill="#717171" d="M 1079.5,716.5 C 1060.98,734.673 1043.98,754.006 1028.5,774.5C 1042.35,753.462 1058.68,734.295 1077.5,717C 1078.09,716.536 1078.76,716.369 1079.5,716.5 Z"/></g>
<g><path style="opacity:1" fill="#777777" d="M 1051.5,764.5 C 1050.92,766.749 1049.59,768.415 1047.5,769.5C 1048.08,767.251 1049.41,765.585 1051.5,764.5 Z"/></g>
<g><path style="opacity:1" fill="#7a7a7a" d="M 1047.5,769.5 C 1046.57,772.37 1044.9,774.704 1042.5,776.5C 1043.43,773.63 1045.1,771.296 1047.5,769.5 Z"/></g>
<g><path style="opacity:1" fill="#949494" d="M 1028.5,774.5 C 1027.66,776.853 1026.33,778.853 1024.5,780.5C 1024.84,777.802 1026.18,775.802 1028.5,774.5 Z"/></g>
<g><path style="opacity:1" fill="#9e9e9e" d="M 1042.5,776.5 C 1042.66,777.873 1042.49,779.207 1042,780.5C 1037.23,785.564 1033.56,791.231 1031,797.5C 1030.24,799.063 1029.07,800.063 1027.5,800.5C 1028.38,797.738 1029.55,795.071 1031,792.5C 1035.11,787.241 1038.94,781.908 1042.5,776.5 Z"/></g>
<g><path style="opacity:1" fill="#9a9a9a" d="M 1023.5,782.5 C 1022.66,784.853 1021.33,786.853 1019.5,788.5C 1019.84,785.802 1021.18,783.802 1023.5,782.5 Z"/></g>
<g><path style="opacity:1" fill="#949494" d="M 1018.5,790.5 C 1018.06,794.252 1016.39,797.252 1013.5,799.5C 1014.05,797.099 1014.88,794.765 1016,792.5C 1016.71,791.619 1017.54,790.953 1018.5,790.5 Z"/></g>
<g><path style="opacity:1" fill="#7e7e7e" d="M 1027.5,800.5 C 1027.07,803.157 1026.07,805.491 1024.5,807.5C 1024.17,804.509 1025.17,802.176 1027.5,800.5 Z"/></g>
<g><path style="opacity:1" fill="#9f9f9f" d="M 1024.5,807.5 C 1022.72,811.338 1021.22,815.338 1020,819.5C 1018.63,822.014 1017.13,824.347 1015.5,826.5C 1016.96,822.233 1018.46,817.9 1020,813.5C 1020.79,810.894 1022.29,808.894 1024.5,807.5 Z"/></g>
<g><path style="opacity:1" fill="#000000" d="M 1022.5,867.5 C 1022.5,863.5 1022.5,859.5 1022.5,855.5C 1312.5,855.667 1602.5,855.5 1892.5,855C 1888.08,852.588 1884.25,849.422 1881,845.5C 1881.73,837.463 1885.56,835.629 1892.5,840C 1900.61,845.805 1908.44,851.972 1916,858.5C 1917.29,862.582 1916.13,865.749 1912.5,868C 1905.55,872.615 1898.88,877.615 1892.5,883C 1889.13,886.074 1885.63,886.241 1882,883.5C 1880.7,881.635 1880.37,879.635 1881,877.5C 1884.25,873.578 1888.08,870.412 1892.5,868C 1602.5,867.5 1312.5,867.333 1022.5,867.5 Z"/></g>
<g><path style="opacity:1" fill="#808080" d="M 1012.5,834.5 C 1012.74,836.898 1012.07,838.898 1010.5,840.5C 1010.26,838.102 1010.93,836.102 1012.5,834.5 Z"/></g>
<g><path style="opacity:1" fill="#cb0b2a" d="M 995.5,840.5 C 1000.55,840.337 1005.55,840.671 1010.5,841.5C 1015.9,844.965 1019.9,849.632 1022.5,855.5C 1022.5,859.5 1022.5,863.5 1022.5,867.5C 1019.83,874.833 1014.83,879.833 1007.5,882.5C 1000.84,883.172 994.503,882.172 988.5,879.5C 988.5,878.833 988.167,878.5 987.5,878.5C 984.391,875.271 982.058,871.605 980.5,867.5C 980.5,863.5 980.5,859.5 980.5,855.5C 982.937,848.646 987.603,843.98 994.5,841.5C 995.167,841.5 995.5,841.167 995.5,840.5 Z"/></g>
<g><path style="opacity:1" fill="#000000" d="M 980.5,855.5 C 980.5,859.5 980.5,863.5 980.5,867.5C 709.833,867.667 439.166,867.5 168.5,867C 164.5,863.333 164.5,859.667 168.5,856C 439.166,855.5 709.833,855.333 980.5,855.5 Z"/></g>
<g><path style="opacity:1" fill="#080808" d="M 988.5,879.5 C 994.503,882.172 1000.84,883.172 1007.5,882.5C 1007.67,999.834 1007.5,1117.17 1007,1234.5C 1002.08,1239.01 998.246,1238.35 995.5,1232.5C 995.5,1121.5 995.5,1010.5 995.5,899.5C 995.607,897.621 995.107,897.288 994,898.5C 992.726,902.154 991.56,905.82 990.5,909.5C 986.659,915.849 983.325,922.516 980.5,929.5C 978.412,931.336 977.079,933.669 976.5,936.5C 975.542,936.953 974.708,937.619 974,938.5C 971.977,942.66 969.811,946.66 967.5,950.5C 965.1,952.296 963.433,954.63 962.5,957.5C 959.444,959.949 957.111,962.949 955.5,966.5C 951.029,970.785 947.029,975.452 943.5,980.5C 934.119,989.215 925.119,998.215 916.5,1007.5C 915.833,1007.5 915.5,1007.83 915.5,1008.5C 908.575,1013.09 902.242,1018.42 896.5,1024.5C 894.251,1025.08 892.585,1026.41 891.5,1028.5C 889.251,1029.08 887.585,1030.41 886.5,1032.5C 885.078,1032.71 883.745,1033.21 882.5,1034C 879.568,1036.28 876.902,1038.78 874.5,1041.5C 871.326,1042.01 868.992,1043.68 867.5,1046.5C 864.326,1047.01 861.992,1048.68 860.5,1051.5C 857.802,1051.84 855.802,1053.18 854.5,1055.5C 851.63,1056.43 849.296,1058.1 847.5,1060.5C 844.802,1060.84 842.802,1062.18 841.5,1064.5C 839.326,1064.75 837.659,1065.75 836.5,1067.5C 834.147,1068.34 832.147,1069.67 830.5,1071.5C 825.703,1073.43 821.369,1076.1 817.5,1079.5C 814.802,1079.84 812.802,1081.18 811.5,1083.5C 808.008,1084.41 805.008,1086.08 802.5,1088.5C 797.678,1090 793.678,1092.66 790.5,1096.5C 789.167,1096.83 787.833,1097.17 786.5,1097.5C 783.9,1098.47 781.566,1099.8 779.5,1101.5C 775.345,1102.74 771.678,1104.74 768.5,1107.5C 765.455,1108.28 762.789,1109.61 760.5,1111.5C 757.008,1112.41 754.008,1114.08 751.5,1116.5C 745.863,1118.14 740.863,1120.81 736.5,1124.5C 733.148,1124.53 730.482,1125.86 728.5,1128.5C 725.148,1128.53 722.482,1129.86 720.5,1132.5C 719.127,1132.34 717.793,1132.51 716.5,1133C 713.248,1134.57 710.248,1136.4 707.5,1138.5C 705.833,1139.17 704.167,1139.83 702.5,1140.5C 700.152,1140.59 698.486,1141.59 697.5,1143.5C 695.5,1144.17 693.5,1144.83 691.5,1145.5C 689.152,1145.59 687.486,1146.59 686.5,1148.5C 684.5,1149.17 682.5,1149.83 680.5,1150.5C 677.279,1150.9 674.612,1152.23 672.5,1154.5C 671.609,1155.11 670.609,1155.44 669.5,1155.5C 666.279,1155.9 663.612,1157.23 661.5,1159.5C 661.167,1159.5 660.833,1159.5 660.5,1159.5C 658.152,1159.59 656.486,1160.59 655.5,1162.5C 654.167,1162.83 652.833,1163.17 651.5,1163.5C 647.376,1164.4 643.709,1166.07 640.5,1168.5C 640.167,1168.5 639.833,1168.5 639.5,1168.5C 637.152,1168.59 635.486,1169.59 634.5,1171.5C 631.982,1172.26 629.649,1173.26 627.5,1174.5C 626.127,1174.34 624.793,1174.51 623.5,1175C 619.054,1177.08 614.721,1179.25 610.5,1181.5C 609.833,1181.5 609.167,1181.5 608.5,1181.5C 606.033,1181.75 604.033,1182.75 602.5,1184.5C 598.035,1185.9 593.701,1187.57 589.5,1189.5C 586.284,1189.35 583.617,1190.35 581.5,1192.5C 577.446,1192.51 574.113,1193.84 571.5,1196.5C 570.041,1196.43 568.708,1196.77 567.5,1197.5C 563.446,1197.51 560.113,1198.84 557.5,1201.5C 549.404,1203.92 541.237,1206.25 533,1208.5C 531.97,1208.84 531.47,1209.5 531.5,1210.5C 528.848,1210.41 526.515,1211.08 524.5,1212.5C 521.084,1212.53 518.084,1213.53 515.5,1215.5C 513.901,1215.23 512.568,1215.57 511.5,1216.5C 504.386,1217.54 497.719,1219.54 491.5,1222.5C 490.07,1223.54 488.403,1224.2 486.5,1224.5C 478.074,1225.73 470.074,1228.07 462.5,1231.5C 454.474,1232.96 446.808,1235.3 439.5,1238.5C 438.833,1238.5 438.167,1238.5 437.5,1238.5C 433.2,1238.75 429.2,1239.75 425.5,1241.5C 422.848,1241.41 420.515,1242.08 418.5,1243.5C 418.167,1243.5 417.833,1243.5 417.5,1243.5C 414.848,1243.41 412.515,1244.08 410.5,1245.5C 408.102,1245.26 406.102,1245.93 404.5,1247.5C 402.139,1247.67 399.806,1248.01 397.5,1248.5C 391.873,1249.52 386.207,1250.36 380.5,1251C 379.944,1251.38 379.611,1251.88 379.5,1252.5C 373.616,1253.39 367.95,1255.05 362.5,1257.5C 361.833,1257.5 361.167,1257.5 360.5,1257.5C 354.82,1257.96 349.486,1259.3 344.5,1261.5C 343.833,1261.5 343.167,1261.5 342.5,1261.5C 327.995,1263.96 313.661,1266.63 299.5,1269.5C 294.887,1270.79 290.22,1271.79 285.5,1272.5C 280.141,1272.67 274.808,1273.17 269.5,1274C 266.809,1274.16 264.476,1274.99 262.5,1276.5C 261.5,1276.5 260.5,1276.5 259.5,1276.5C 255.092,1276.92 250.758,1277.59 246.5,1278.5C 240.802,1278.6 235.135,1279.1 229.5,1280C 228.584,1280.28 227.918,1280.78 227.5,1281.5C 215.183,1282.44 202.849,1283.11 190.5,1283.5C 180.494,1283.67 170.494,1283.5 160.5,1283C 159.748,1282.33 159.414,1281.5 159.5,1280.5C 160.167,1280.5 160.833,1280.5 161.5,1280.5C 165.04,1280.25 168.373,1279.58 171.5,1278.5C 174.625,1277.52 177.958,1277.19 181.5,1277.5C 193.551,1276.02 205.551,1274.35 217.5,1272.5C 219.03,1272.36 220.03,1271.69 220.5,1270.5C 228.066,1270.23 235.399,1269.23 242.5,1267.5C 245.167,1266.83 247.833,1266.17 250.5,1265.5C 257.404,1265.16 264.071,1264.16 270.5,1262.5C 276.797,1261.99 282.797,1260.66 288.5,1258.5C 290.735,1258.79 292.735,1258.46 294.5,1257.5C 302.556,1256.83 310.556,1255.83 318.5,1254.5C 328.348,1252.38 338.348,1250.54 348.5,1249C 349.056,1248.62 349.389,1248.12 349.5,1247.5C 355.082,1246.62 360.416,1245.29 365.5,1243.5C 371.18,1243.04 376.514,1241.7 381.5,1239.5C 386.095,1238.18 390.761,1237.18 395.5,1236.5C 398.855,1236.31 401.855,1235.31 404.5,1233.5C 405.167,1233.5 405.833,1233.5 406.5,1233.5C 411.931,1233.33 416.931,1231.99 421.5,1229.5C 434.258,1226.48 446.925,1223.14 459.5,1219.5C 461.898,1219.74 463.898,1219.07 465.5,1217.5C 473.199,1215.32 480.866,1212.99 488.5,1210.5C 492.162,1210.28 495.495,1209.28 498.5,1207.5C 505.86,1205.59 513.193,1203.26 520.5,1200.5C 525.004,1200.38 529.004,1199.05 532.5,1196.5C 539.641,1193.55 546.974,1191.22 554.5,1189.5C 560.112,1188.08 565.445,1186.08 570.5,1183.5C 578.221,1180.32 585.888,1176.98 593.5,1173.5C 596.539,1172.99 599.539,1172.32 602.5,1171.5C 606.624,1170.6 610.291,1168.93 613.5,1166.5C 616.801,1164.42 620.468,1163.08 624.5,1162.5C 628.532,1161.39 632.198,1159.72 635.5,1157.5C 677.662,1139.08 718.996,1119.08 759.5,1097.5C 762.496,1096.73 765.163,1095.4 767.5,1093.5C 776.326,1089.59 784.659,1084.92 792.5,1079.5C 796.065,1078.56 799.065,1076.89 801.5,1074.5C 804.586,1073.3 807.252,1071.64 809.5,1069.5C 814.231,1067.43 818.897,1065.26 823.5,1063C 824.305,1061.89 824.972,1060.72 825.5,1059.5C 827.674,1059.25 829.341,1058.25 830.5,1056.5C 836.049,1053.94 841.049,1050.61 845.5,1046.5C 848.37,1045.57 850.704,1043.9 852.5,1041.5C 854.853,1040.66 856.853,1039.33 858.5,1037.5C 862.051,1035.89 865.051,1033.56 867.5,1030.5C 871.392,1028.94 874.725,1026.6 877.5,1023.5C 883.754,1019.58 889.421,1014.92 894.5,1009.5C 894.842,1008.66 895.508,1008.33 896.5,1008.5C 900.105,1006.53 903.105,1003.86 905.5,1000.5C 919.487,988.845 932.154,975.845 943.5,961.5C 947.592,957.742 950.926,953.409 953.5,948.5C 955.326,946.853 956.66,944.853 957.5,942.5C 960.259,939.779 962.759,936.779 965,933.5C 965.608,931.846 966.108,930.179 966.5,928.5C 967.376,928.631 968.043,928.298 968.5,927.5C 969.513,924.812 970.513,922.146 971.5,919.5C 973.659,916.516 975.325,913.183 976.5,909.5C 980.394,901.715 983.727,893.715 986.5,885.5C 987.738,883.786 988.405,881.786 988.5,879.5 Z"/></g>
<g><path style="opacity:1" fill="#8f8f8f" d="M 987.5,878.5 C 988.167,878.5 988.5,878.833 988.5,879.5C 988.405,881.786 987.738,883.786 986.5,885.5C 986.674,883.139 987.007,880.806 987.5,878.5 Z"/></g>
<g><path style="opacity:1" fill="#d2d2d2" d="M 995.5,899.5 C 995.5,1010.5 995.5,1121.5 995.5,1232.5C 994.833,1123.17 994.167,1013.83 993.5,904.5C 993.796,902.597 994.463,900.93 995.5,899.5 Z"/></g>
<g><path style="opacity:1" fill="#666666" d="M 995.5,899.5 C 994.463,900.93 993.796,902.597 993.5,904.5C 993.047,906.565 992.047,908.232 990.5,909.5C 991.56,905.82 992.726,902.154 994,898.5C 995.107,897.288 995.607,897.621 995.5,899.5 Z"/></g>
<g><path style="opacity:1" fill="#9d9d9d" d="M 976.5,909.5 C 975.325,913.183 973.659,916.516 971.5,919.5C 972.132,915.569 973.799,912.235 976.5,909.5 Z"/></g>
<g><path style="opacity:1" fill="#9d9d9d" d="M 990.5,909.5 C 988.689,916.131 986.022,922.464 982.5,928.5C 982.043,929.298 981.376,929.631 980.5,929.5C 983.325,922.516 986.659,915.849 990.5,909.5 Z"/></g>
<g><path style="opacity:1" fill="#676767" d="M 971.5,919.5 C 970.513,922.146 969.513,924.812 968.5,927.5C 968.043,928.298 967.376,928.631 966.5,928.5C 967.41,925.008 969.076,922.008 971.5,919.5 Z"/></g>
<g><path style="opacity:1" fill="#696969" d="M 966.5,928.5 C 966.108,930.179 965.608,931.846 965,933.5C 962.759,936.779 960.259,939.779 957.5,942.5C 959.75,937.27 962.75,932.603 966.5,928.5 Z"/></g>
<g><path style="opacity:1" fill="#9b9b9b" d="M 976.5,936.5 C 975.107,942.221 972.107,946.888 967.5,950.5C 969.811,946.66 971.977,942.66 974,938.5C 974.708,937.619 975.542,936.953 976.5,936.5 Z"/></g>
<g><path style="opacity:1" fill="#7f7f7f" d="M 957.5,942.5 C 956.66,944.853 955.326,946.853 953.5,948.5C 953.845,945.802 955.178,943.802 957.5,942.5 Z"/></g>
<g><path style="opacity:1" fill="#737373" d="M 953.5,948.5 C 950.926,953.409 947.592,957.742 943.5,961.5C 946.074,956.591 949.408,952.258 953.5,948.5 Z"/></g>
<g><path style="opacity:1" fill="#868686" d="M 967.5,950.5 C 966.567,953.37 964.9,955.704 962.5,957.5C 963.433,954.63 965.1,952.296 967.5,950.5 Z"/></g>
<g><path style="opacity:1" fill="#868686" d="M 962.5,957.5 C 960.889,961.051 958.556,964.051 955.5,966.5C 957.111,962.949 959.444,959.949 962.5,957.5 Z"/></g>
<g><path style="opacity:1" fill="#8a8a8a" d="M 955.5,966.5 C 952.445,971.92 948.445,976.587 943.5,980.5C 947.029,975.452 951.029,970.785 955.5,966.5 Z"/></g>
<g><path style="opacity:1" fill="#6b6b6b" d="M 943.5,961.5 C 932.154,975.845 919.487,988.845 905.5,1000.5C 918.243,987.426 930.909,974.426 943.5,961.5 Z"/></g>
<g><path style="opacity:1" fill="#939393" d="M 943.5,980.5 C 935.521,990.479 926.521,999.479 916.5,1007.5C 925.119,998.215 934.119,989.215 943.5,980.5 Z"/></g>
<g><path style="opacity:1" fill="#696969" d="M 905.5,1000.5 C 903.105,1003.86 900.105,1006.53 896.5,1008.5C 896.511,1006.98 897.177,1005.82 898.5,1005C 900.734,1003.25 903.068,1001.75 905.5,1000.5 Z"/></g>
<g><path style="opacity:1" fill="#929292" d="M 915.5,1008.5 C 909.758,1014.58 903.425,1019.91 896.5,1024.5C 902.242,1018.42 908.575,1013.09 915.5,1008.5 Z"/></g>
<g><path style="opacity:1" fill="#6a6a6a" d="M 894.5,1009.5 C 889.421,1014.92 883.754,1019.58 877.5,1023.5C 882.554,1018.11 888.221,1013.45 894.5,1009.5 Z"/></g>
<g><path style="opacity:1" fill="#777777" d="M 877.5,1023.5 C 874.725,1026.6 871.392,1028.94 867.5,1030.5C 870.275,1027.4 873.608,1025.06 877.5,1023.5 Z"/></g>
<g><path style="opacity:1" fill="#999999" d="M 896.5,1024.5 C 895.415,1026.59 893.749,1027.92 891.5,1028.5C 892.585,1026.41 894.251,1025.08 896.5,1024.5 Z"/></g>
<g><path style="opacity:1" fill="#9d9d9d" d="M 891.5,1028.5 C 890.415,1030.59 888.749,1031.92 886.5,1032.5C 887.585,1030.41 889.251,1029.08 891.5,1028.5 Z"/></g>
<g><path style="opacity:1" fill="#818181" d="M 886.5,1032.5 C 883.071,1036.26 879.071,1039.26 874.5,1041.5C 876.902,1038.78 879.568,1036.28 882.5,1034C 883.745,1033.21 885.078,1032.71 886.5,1032.5 Z"/></g>
<g><path style="opacity:1" fill="#767676" d="M 867.5,1030.5 C 865.051,1033.56 862.051,1035.89 858.5,1037.5C 860.949,1034.44 863.949,1032.11 867.5,1030.5 Z"/></g>
<g><path style="opacity:1" fill="#7a7a7a" d="M 858.5,1037.5 C 856.853,1039.33 854.853,1040.66 852.5,1041.5C 853.802,1039.18 855.802,1037.84 858.5,1037.5 Z"/></g>
<g><path style="opacity:1" fill="#737373" d="M 852.5,1041.5 C 850.704,1043.9 848.37,1045.57 845.5,1046.5C 847.296,1044.1 849.63,1042.43 852.5,1041.5 Z"/></g>
<g><path style="opacity:1" fill="#787878" d="M 867.5,1046.5 C 865.45,1048.55 863.117,1050.21 860.5,1051.5C 861.992,1048.68 864.326,1047.01 867.5,1046.5 Z"/></g>
<g><path style="opacity:1" fill="#747474" d="M 860.5,1051.5 C 858.853,1053.33 856.853,1054.66 854.5,1055.5C 855.802,1053.18 857.802,1051.84 860.5,1051.5 Z"/></g>
<g><path style="opacity:1" fill="#848484" d="M 845.5,1046.5 C 841.049,1050.61 836.049,1053.94 830.5,1056.5C 834.951,1052.39 839.951,1049.06 845.5,1046.5 Z"/></g>
<g><path style="opacity:1" fill="#828282" d="M 854.5,1055.5 C 852.704,1057.9 850.37,1059.57 847.5,1060.5C 849.296,1058.1 851.63,1056.43 854.5,1055.5 Z"/></g>
<g><path style="opacity:1" fill="#6d6d6d" d="M 825.5,1059.5 C 824.972,1060.72 824.305,1061.89 823.5,1063C 818.897,1065.26 814.231,1067.43 809.5,1069.5C 814.542,1065.81 819.875,1062.48 825.5,1059.5 Z"/></g>
<g><path style="opacity:1" fill="#848484" d="M 841.5,1064.5 C 840.514,1066.41 838.848,1067.41 836.5,1067.5C 837.659,1065.75 839.326,1064.75 841.5,1064.5 Z"/></g>
<g><path style="opacity:1" fill="#929292" d="M 809.5,1069.5 C 807.252,1071.64 804.586,1073.3 801.5,1074.5C 803.484,1071.84 806.151,1070.17 809.5,1069.5 Z"/></g>
<g><path style="opacity:1" fill="#898989" d="M 801.5,1074.5 C 799.065,1076.89 796.065,1078.56 792.5,1079.5C 795.008,1077.08 798.008,1075.41 801.5,1074.5 Z"/></g>
<g><path style="opacity:1" fill="#979797" d="M 830.5,1071.5 C 827.315,1075.93 822.981,1078.6 817.5,1079.5C 821.369,1076.1 825.703,1073.43 830.5,1071.5 Z"/></g>
<g><path style="opacity:1" fill="#7b7b7b" d="M 817.5,1079.5 C 815.966,1081.37 813.966,1082.7 811.5,1083.5C 812.802,1081.18 814.802,1079.84 817.5,1079.5 Z"/></g>
<g><path style="opacity:1" fill="#929292" d="M 811.5,1083.5 C 811.631,1084.38 811.298,1085.04 810.5,1085.5C 807.812,1086.51 805.146,1087.51 802.5,1088.5C 805.008,1086.08 808.008,1084.41 811.5,1083.5 Z"/></g>
<g><path style="opacity:1" fill="#b3b3b3" d="M 802.5,1088.5 C 800.035,1090.41 797.702,1092.58 795.5,1095C 793.846,1095.61 792.179,1096.11 790.5,1096.5C 793.678,1092.66 797.678,1090 802.5,1088.5 Z"/></g>
<g><path style="opacity:1" fill="#5c9bef" d="M 1746.5,1095.5 C 1754.68,1094.18 1763.01,1094.18 1771.5,1095.5C 1771.38,1096.11 1771.04,1096.44 1770.5,1096.5C 1762.68,1095.51 1754.68,1095.17 1746.5,1095.5 Z"/></g>
<g><path style="opacity:1" fill="#9a9a9a" d="M 767.5,1093.5 C 765.163,1095.4 762.496,1096.73 759.5,1097.5C 761.612,1095.23 764.279,1093.9 767.5,1093.5 Z"/></g>
<g><path style="opacity:1" fill="#2277e9" d="M 1746.5,1095.5 C 1754.68,1095.17 1762.68,1095.51 1770.5,1096.5C 1764.51,1106.48 1758.51,1116.48 1752.5,1126.5C 1758.78,1137.55 1765.44,1148.38 1772.5,1159C 1764.17,1159.67 1755.83,1159.67 1747.5,1159C 1743.96,1152.75 1740.29,1146.58 1736.5,1140.5C 1732.77,1146.25 1729.43,1152.25 1726.5,1158.5C 1717.85,1159.67 1709.19,1159.83 1700.5,1159C 1707.56,1148.38 1714.22,1137.55 1720.5,1126.5C 1714.4,1115.89 1708.07,1105.39 1701.5,1095C 1709.83,1094.33 1718.17,1094.33 1726.5,1095C 1729.96,1100.76 1733.3,1106.59 1736.5,1112.5C 1739.9,1106.79 1743.23,1101.13 1746.5,1095.5 Z"/></g>
<g><path style="opacity:1" fill="#949494" d="M 786.5,1097.5 C 785.145,1100.52 782.812,1101.85 779.5,1101.5C 781.566,1099.8 783.9,1098.47 786.5,1097.5 Z"/></g>
<g><path style="opacity:1" fill="#888888" d="M 779.5,1101.5 C 776.676,1104.75 773.009,1106.75 768.5,1107.5C 771.678,1104.74 775.345,1102.74 779.5,1101.5 Z"/></g>
<g><path style="opacity:1" fill="#808080" d="M 768.5,1107.5 C 766.469,1109.76 763.802,1111.09 760.5,1111.5C 762.789,1109.61 765.455,1108.28 768.5,1107.5 Z"/></g>
<g><path style="opacity:1" fill="#8b8b8b" d="M 760.5,1111.5 C 758.349,1114.42 755.349,1116.08 751.5,1116.5C 754.008,1114.08 757.008,1112.41 760.5,1111.5 Z"/></g>
<g><path style="opacity:1" fill="#bababa" d="M 736.5,1124.5 C 734.685,1127.41 732.019,1128.74 728.5,1128.5C 730.482,1125.86 733.148,1124.53 736.5,1124.5 Z"/></g>
<g><path style="opacity:1" fill="#828282" d="M 720.5,1132.5 C 716.626,1135.27 712.293,1137.27 707.5,1138.5C 710.248,1136.4 713.248,1134.57 716.5,1133C 717.793,1132.51 719.127,1132.34 720.5,1132.5 Z"/></g>
<g><path style="opacity:1" fill="#848484" d="M 702.5,1140.5 C 701.341,1142.25 699.674,1143.25 697.5,1143.5C 698.486,1141.59 700.152,1140.59 702.5,1140.5 Z"/></g>
<g><path style="opacity:1" fill="#757575" d="M 691.5,1145.5 C 690.341,1147.25 688.674,1148.25 686.5,1148.5C 687.486,1146.59 689.152,1145.59 691.5,1145.5 Z"/></g>
<g><path style="opacity:1" fill="#6b6b6b" d="M 680.5,1150.5 C 678.388,1152.77 675.721,1154.1 672.5,1154.5C 674.612,1152.23 677.279,1150.9 680.5,1150.5 Z"/></g>
<g><path style="opacity:1" fill="#6e6e6e" d="M 669.5,1155.5 C 667.388,1157.77 664.721,1159.1 661.5,1159.5C 663.612,1157.23 666.279,1155.9 669.5,1155.5 Z"/></g>
<g><path style="opacity:1" fill="#505050" d="M 635.5,1157.5 C 632.198,1159.72 628.532,1161.39 624.5,1162.5C 627.554,1159.91 631.22,1158.24 635.5,1157.5 Z"/></g>
<g><path style="opacity:1" fill="#717171" d="M 660.5,1159.5 C 659.341,1161.25 657.674,1162.25 655.5,1162.5C 656.486,1160.59 658.152,1159.59 660.5,1159.5 Z"/></g>
<g><path style="opacity:1" fill="#6d6d6d" d="M 651.5,1163.5 C 648.368,1166.11 644.701,1167.78 640.5,1168.5C 643.709,1166.07 647.376,1164.4 651.5,1163.5 Z"/></g>
<g><path style="opacity:1" fill="#4c4c4c" d="M 613.5,1166.5 C 610.291,1168.93 606.624,1170.6 602.5,1171.5C 605.632,1168.89 609.299,1167.22 613.5,1166.5 Z"/></g>
<g><path style="opacity:1" fill="#6b6b6b" d="M 639.5,1168.5 C 638.341,1170.25 636.674,1171.25 634.5,1171.5C 635.486,1169.59 637.152,1168.59 639.5,1168.5 Z"/></g>
<g><path style="opacity:1" fill="#c9c9c9" d="M 593.5,1173.5 C 585.888,1176.98 578.221,1180.32 570.5,1183.5C 567.673,1183.58 565.006,1184.25 562.5,1185.5C 564.776,1183.42 567.443,1181.92 570.5,1181C 578.198,1178.38 585.865,1175.88 593.5,1173.5 Z"/></g>
<g><path style="opacity:1" fill="#b6b6b6" d="M 627.5,1174.5 C 625.924,1175.28 624.591,1176.45 623.5,1178C 619.144,1179.18 614.811,1180.35 610.5,1181.5C 614.721,1179.25 619.054,1177.08 623.5,1175C 624.793,1174.51 626.127,1174.34 627.5,1174.5 Z"/></g>
<g><path style="opacity:1" fill="#727272" d="M 608.5,1181.5 C 606.967,1183.25 604.967,1184.25 602.5,1184.5C 604.033,1182.75 606.033,1181.75 608.5,1181.5 Z"/></g>
<g><path style="opacity:1" fill="#4e4e4e" d="M 570.5,1183.5 C 565.445,1186.08 560.112,1188.08 554.5,1189.5C 556.853,1187.66 559.52,1186.32 562.5,1185.5C 565.006,1184.25 567.673,1183.58 570.5,1183.5 Z"/></g>
<g><path style="opacity:1" fill="#a1a1a1" d="M 602.5,1184.5 C 598.925,1187.82 594.592,1189.49 589.5,1189.5C 593.701,1187.57 598.035,1185.9 602.5,1184.5 Z"/></g>
<g><path style="opacity:1" fill="#636363" d="M 589.5,1189.5 C 587.152,1191.1 584.486,1192.1 581.5,1192.5C 583.617,1190.35 586.284,1189.35 589.5,1189.5 Z"/></g>
<g><path style="opacity:1" fill="#5f5f5f" d="M 581.5,1192.5 C 578.322,1194.01 574.989,1195.34 571.5,1196.5C 574.113,1193.84 577.446,1192.51 581.5,1192.5 Z"/></g>
<g><path style="opacity:1" fill="#606060" d="M 532.5,1196.5 C 529.004,1199.05 525.004,1200.38 520.5,1200.5C 524.213,1198.57 528.213,1197.23 532.5,1196.5 Z"/></g>
<g><path style="opacity:1" fill="#585858" d="M 567.5,1197.5 C 564.322,1199.01 560.989,1200.34 557.5,1201.5C 560.113,1198.84 563.446,1197.51 567.5,1197.5 Z"/></g>
<g><path style="opacity:1" fill="#8a8a8a" d="M 557.5,1201.5 C 549.192,1205.27 540.525,1208.27 531.5,1210.5C 531.47,1209.5 531.97,1208.84 533,1208.5C 541.237,1206.25 549.404,1203.92 557.5,1201.5 Z"/></g>
<g><path style="opacity:1" fill="#757575" d="M 498.5,1207.5 C 495.495,1209.28 492.162,1210.28 488.5,1210.5C 491.505,1208.72 494.838,1207.72 498.5,1207.5 Z"/></g>
<g><path style="opacity:1" fill="#9d9d9d" d="M 531.5,1210.5 C 529.485,1211.92 527.152,1212.59 524.5,1212.5C 526.515,1211.08 528.848,1210.41 531.5,1210.5 Z"/></g>
<g><path style="opacity:1" fill="#898989" d="M 524.5,1212.5 C 521.855,1214.31 518.855,1215.31 515.5,1215.5C 518.084,1213.53 521.084,1212.53 524.5,1212.5 Z"/></g>
<g><path style="opacity:1" fill="#5a5a5a" d="M 465.5,1217.5 C 463.898,1219.07 461.898,1219.74 459.5,1219.5C 461.102,1217.93 463.102,1217.26 465.5,1217.5 Z"/></g>
<g><path style="opacity:1" fill="#707070" d="M 511.5,1216.5 C 506.81,1218.02 502.144,1219.85 497.5,1222C 495.527,1222.5 493.527,1222.66 491.5,1222.5C 497.719,1219.54 504.386,1217.54 511.5,1216.5 Z"/></g>
<g><path style="opacity:1" fill="#b7b7b7" d="M 486.5,1224.5 C 486.38,1225.59 485.713,1226.25 484.5,1226.5C 479.431,1226.84 474.764,1228.34 470.5,1231C 467.854,1231.5 465.187,1231.66 462.5,1231.5C 470.074,1228.07 478.074,1225.73 486.5,1224.5 Z"/></g>
<g><path style="opacity:1" fill="#7e7e7e" d="M 421.5,1229.5 C 416.931,1231.99 411.931,1233.33 406.5,1233.5C 411.235,1231.64 416.235,1230.31 421.5,1229.5 Z"/></g>
<g><path style="opacity:1" fill="#a2a2a2" d="M 462.5,1231.5 C 462.03,1232.69 461.03,1233.36 459.5,1233.5C 452.737,1234.92 446.07,1236.58 439.5,1238.5C 446.808,1235.3 454.474,1232.96 462.5,1231.5 Z"/></g>
<g><path style="opacity:1" fill="#8e8e8e" d="M 404.5,1233.5 C 401.855,1235.31 398.855,1236.31 395.5,1236.5C 398.084,1234.53 401.084,1233.53 404.5,1233.5 Z"/></g>
<g><path style="opacity:1" fill="#767676" d="M 437.5,1238.5 C 433.8,1240.25 429.8,1241.25 425.5,1241.5C 429.2,1239.75 433.2,1238.75 437.5,1238.5 Z"/></g>
<g><path style="opacity:1" fill="#979797" d="M 381.5,1239.5 C 376.514,1241.7 371.18,1243.04 365.5,1243.5C 370.328,1240.88 375.662,1239.54 381.5,1239.5 Z"/></g>
<g><path style="opacity:1" fill="#7a7a7a" d="M 425.5,1241.5 C 423.485,1242.92 421.152,1243.59 418.5,1243.5C 420.515,1242.08 422.848,1241.41 425.5,1241.5 Z"/></g>
<g><path style="opacity:1" fill="#797979" d="M 417.5,1243.5 C 415.485,1244.92 413.152,1245.59 410.5,1245.5C 412.515,1244.08 414.848,1243.41 417.5,1243.5 Z"/></g>
<g><path style="opacity:1" fill="#828282" d="M 365.5,1243.5 C 360.416,1245.29 355.082,1246.62 349.5,1247.5C 348.833,1247.5 348.167,1247.5 347.5,1247.5C 353.191,1245.32 359.191,1243.99 365.5,1243.5 Z"/></g>
<g><path style="opacity:1" fill="#9b9b9b" d="M 410.5,1245.5 C 408.898,1247.07 406.898,1247.74 404.5,1247.5C 406.102,1245.93 408.102,1245.26 410.5,1245.5 Z"/></g>
<g><path style="opacity:1" fill="#3e3e3e" d="M 397.5,1248.5 C 393.194,1250.8 388.527,1252.13 383.5,1252.5C 382.167,1252.5 380.833,1252.5 379.5,1252.5C 379.611,1251.88 379.944,1251.38 380.5,1251C 386.207,1250.36 391.873,1249.52 397.5,1248.5 Z"/></g>
<g><path style="opacity:1" fill="#353535" d="M 347.5,1247.5 C 348.167,1247.5 348.833,1247.5 349.5,1247.5C 349.389,1248.12 349.056,1248.62 348.5,1249C 338.348,1250.54 328.348,1252.38 318.5,1254.5C 319.5,1253.83 320.5,1253.17 321.5,1252.5C 330.172,1250.83 338.839,1249.17 347.5,1247.5 Z"/></g>
<g><path style="opacity:1" fill="#a0a0a0" d="M 379.5,1252.5 C 380.833,1252.5 382.167,1252.5 383.5,1252.5C 376.869,1255.24 369.869,1256.91 362.5,1257.5C 367.95,1255.05 373.616,1253.39 379.5,1252.5 Z"/></g>
<g><path style="opacity:1" fill="#9b9b9b" d="M 321.5,1252.5 C 320.5,1253.17 319.5,1253.83 318.5,1254.5C 310.556,1255.83 302.556,1256.83 294.5,1257.5C 297.023,1256.62 299.69,1255.78 302.5,1255C 308.94,1254.77 315.273,1253.94 321.5,1252.5 Z"/></g>
<g><path style="opacity:1" fill="#adadad" d="M 288.5,1258.5 C 282.797,1260.66 276.797,1261.99 270.5,1262.5C 269.5,1262.5 268.5,1262.5 267.5,1262.5C 267.611,1261.88 267.944,1261.38 268.5,1261C 275.132,1259.84 281.799,1259 288.5,1258.5 Z"/></g>
<g><path style="opacity:1" fill="#8a8a8a" d="M 360.5,1257.5 C 360.389,1258.12 360.056,1258.62 359.5,1259C 354.46,1259.68 349.46,1260.51 344.5,1261.5C 349.486,1259.3 354.82,1257.96 360.5,1257.5 Z"/></g>
<g><path style="opacity:1" fill="#626262" d="M 267.5,1262.5 C 268.5,1262.5 269.5,1262.5 270.5,1262.5C 264.071,1264.16 257.404,1265.16 250.5,1265.5C 250.918,1264.78 251.584,1264.28 252.5,1264C 257.508,1263.5 262.508,1263 267.5,1262.5 Z"/></g>
<g><path style="opacity:1" fill="#b0b0b0" d="M 250.5,1265.5 C 247.833,1266.17 245.167,1266.83 242.5,1267.5C 239.833,1267.5 237.167,1267.5 234.5,1267.5C 235.263,1266.73 236.263,1266.23 237.5,1266C 241.821,1265.5 246.154,1265.33 250.5,1265.5 Z"/></g>
<g><path style="opacity:1" fill="#8c8c8c" d="M 342.5,1261.5 C 335.345,1263.43 328.012,1265.26 320.5,1267C 313.554,1268.35 306.554,1269.18 299.5,1269.5C 313.661,1266.63 327.995,1263.96 342.5,1261.5 Z"/></g>
<g><path style="opacity:1" fill="#595959" d="M 234.5,1267.5 C 237.167,1267.5 239.833,1267.5 242.5,1267.5C 235.399,1269.23 228.066,1270.23 220.5,1270.5C 225.128,1269.5 229.795,1268.5 234.5,1267.5 Z"/></g>
<g><path style="opacity:1" fill="#707070" d="M 285.5,1272.5 C 278.065,1274.39 270.398,1275.73 262.5,1276.5C 264.476,1274.99 266.809,1274.16 269.5,1274C 274.808,1273.17 280.141,1272.67 285.5,1272.5 Z"/></g>
<g><path style="opacity:1" fill="#3b3b3b" d="M 220.5,1270.5 C 220.03,1271.69 219.03,1272.36 217.5,1272.5C 205.551,1274.35 193.551,1276.02 181.5,1277.5C 194.196,1274.18 207.196,1271.84 220.5,1270.5 Z"/></g>
<g><path style="opacity:1" fill="#909090" d="M 259.5,1276.5 C 255.458,1278.24 251.124,1279.24 246.5,1279.5C 246.5,1279.17 246.5,1278.83 246.5,1278.5C 250.758,1277.59 255.092,1276.92 259.5,1276.5 Z"/></g>
<g><path style="opacity:1" fill="#717171" d="M 171.5,1278.5 C 168.373,1279.58 165.04,1280.25 161.5,1280.5C 161.918,1279.78 162.584,1279.28 163.5,1279C 166.146,1278.5 168.813,1278.34 171.5,1278.5 Z"/></g>
<g><path style="opacity:1" fill="#464646" d="M 246.5,1278.5 C 246.5,1278.83 246.5,1279.17 246.5,1279.5C 240.441,1279.7 234.441,1280.37 228.5,1281.5C 228.167,1281.5 227.833,1281.5 227.5,1281.5C 227.918,1280.78 228.584,1280.28 229.5,1280C 235.135,1279.1 240.802,1278.6 246.5,1278.5 Z"/></g>
<g><path style="opacity:1" fill="#6f6f6f" d="M 227.5,1281.5 C 227.833,1281.5 228.167,1281.5 228.5,1281.5C 216.075,1283.7 203.409,1284.7 190.5,1284.5C 190.5,1284.17 190.5,1283.83 190.5,1283.5C 202.849,1283.11 215.183,1282.44 227.5,1281.5 Z"/></g>
<g><path style="opacity:1" fill="#464646" d="M 159.5,1280.5 C 159.414,1281.5 159.748,1282.33 160.5,1283C 170.494,1283.5 180.494,1283.67 190.5,1283.5C 190.5,1283.83 190.5,1284.17 190.5,1284.5C 180.169,1285.74 169.836,1285.58 159.5,1284C 158.209,1282.71 158.209,1281.54 159.5,1280.5 Z"/></g>
</svg>
