<?xml version="1.0" encoding="UTF-8"?>
<!DOCTYPE svg PUBLIC "-//W3C//DTD SVG 1.1//EN" "http://www.w3.org/Graphics/SVG/1.1/DTD/svg11.dtd">
<svg xmlns="http://www.w3.org/2000/svg" version="1.1" width="2000px" height="1500px" style="shape-rendering:geometricPrecision; text-rendering:geometricPrecision; image-rendering:optimizeQuality; fill-rule:evenodd; clip-rule:evenodd" xmlns:xlink="http://www.w3.org/1999/xlink">
<g><path style="opacity:1" fill="#fefefe" d="M -0.5,-0.5 C 666.167,-0.5 1332.83,-0.5 1999.5,-0.5C 1999.5,499.5 1999.5,999.5 1999.5,1499.5C 1332.83,1499.5 666.167,1499.5 -0.5,1499.5C -0.5,999.5 -0.5,499.5 -0.5,-0.5 Z"/></g>
<g><path style="opacity:1" fill="#0b0b0b" d="M 579.5,817.5 C 581.296,818.793 582.963,820.293 584.5,822C 582.63,824.04 580.63,825.873 578.5,827.5C 533.5,827.5 488.5,827.5 443.5,827.5C 392.833,827.5 342.167,827.5 291.5,827.5C 291.667,1024.5 291.5,1221.5 291,1418.5C 289.18,1421.2 286.68,1422.04 283.5,1421C 282.177,1420.18 281.511,1419.02 281.5,1417.5C 281.5,1220.5 281.5,1023.5 281.5,826.5C 239.167,826.5 196.833,826.5 154.5,826.5C 151.515,826.182 149.848,824.515 149.5,821.5C 149.754,819.583 150.754,818.249 152.5,817.5C 195.5,817.5 238.5,817.5 281.5,817.5C 281.5,572.167 281.5,326.833 281.5,81.5C 281.884,78.9504 283.384,77.6171 286,77.5C 288.305,77.4841 289.972,78.4841 291,80.5C 291.5,326.166 291.667,571.833 291.5,817.5C 387.5,817.5 483.5,817.5 579.5,817.5 Z"/></g>
<g><path style="opacity:1" fill="#060607" d="M 604.5,81.5 C 604.5,321.5 604.5,561.5 604.5,801.5C 603.207,803.296 601.707,804.963 600,806.5C 597.96,804.63 596.127,802.63 594.5,800.5C 594.333,560.166 594.5,319.833 595,79.5C 597.153,77.5561 599.653,77.0561 602.5,78C 603.823,78.8159 604.489,79.9826 604.5,81.5 Z"/></g>
<g><path style="opacity:1" fill="#050505" d="M 1874.5,821.5 C 1890.33,822.661 1906.33,822.828 1922.5,822C 1921.96,821.283 1921.29,820.783 1920.5,820.5C 1914.81,818.341 1912.31,814.341 1913,808.5C 1914.19,807.57 1915.53,806.903 1917,806.5C 1925.1,811.596 1932.93,817.096 1940.5,823C 1942.19,826.525 1941.52,829.525 1938.5,832C 1931.99,836.423 1925.66,841.089 1919.5,846C 1913.5,846.993 1911.33,844.493 1913,838.5C 1915.29,836.946 1917.45,835.279 1919.5,833.5C 1920.29,833.217 1920.96,832.717 1921.5,832C 1896.84,831.5 1872.17,831.333 1847.5,831.5C 1826.17,831.5 1804.83,831.5 1783.5,831.5C 1707.34,830.501 1631,830.167 1554.5,830.5C 1554.5,1026.5 1554.5,1222.5 1554.5,1418.5C 1552.09,1422.01 1549.26,1422.35 1546,1419.5C 1545.5,1223.17 1545.33,1026.83 1545.5,830.5C 1475.83,830.5 1406.17,830.5 1336.5,830.5C 1336.67,1026.5 1336.5,1222.5 1336,1418.5C 1334.18,1421.2 1331.68,1422.04 1328.5,1421C 1327.18,1420.18 1326.51,1419.02 1326.5,1417.5C 1326.5,1221.5 1326.5,1025.5 1326.5,829.5C 1277.17,829.5 1227.83,829.5 1178.5,829.5C 1121.17,829.5 1063.83,829.5 1006.5,829.5C 1006.67,1026.17 1006.5,1222.83 1006,1419.5C 1001.89,1423.53 998.718,1422.86 996.5,1417.5C 996.5,1221.17 996.5,1024.83 996.5,828.5C 950.833,828.5 905.167,828.5 859.5,828.5C 780.5,828.5 701.5,828.5 622.5,828.5C 619.854,826.521 617.521,824.188 615.5,821.5C 616.188,820.145 617.188,819.145 618.5,818.5C 744.5,818.5 870.5,818.5 996.5,818.5C 996.667,578.166 996.5,337.833 996,97.5C 993.987,102.179 990.654,105.513 986,107.5C 983.386,106.555 981.886,104.722 981.5,102C 985.549,94.9354 990.049,88.102 995,81.5C 998.676,75.4012 1002.68,75.0678 1007,80.5C 1012.28,87.4334 1017.12,94.6001 1021.5,102C 1020.54,106.985 1017.87,108.318 1013.5,106C 1011.21,103.257 1009.05,100.423 1007,97.5C 1006.5,338.166 1006.33,578.833 1006.5,819.5C 1113.17,819.5 1219.83,819.5 1326.5,819.5C 1326.33,572.833 1326.5,326.166 1327,79.5C 1330,76.8333 1333,76.8333 1336,79.5C 1336.5,326.5 1336.67,573.5 1336.5,820.5C 1406.17,820.5 1475.83,820.5 1545.5,820.5C 1545.33,573.5 1545.5,326.5 1546,79.5C 1549.29,76.6888 1552.29,77.0221 1555,80.5C 1555.5,327.5 1555.67,574.5 1555.5,821.5C 1661.83,821.5 1768.17,821.5 1874.5,821.5 Z"/></g>
<g><path style="opacity:1" fill="#9d9d9d" d="M 281.5,81.5 C 281.5,326.833 281.5,572.167 281.5,817.5C 238.5,817.5 195.5,817.5 152.5,817.5C 194.997,816.501 237.663,816.168 280.5,816.5C 280.167,571.333 280.5,326.333 281.5,81.5 Z"/></g>
<g><path style="opacity:1" fill="#cccccd" d="M 604.5,81.5 C 605.167,320.833 605.833,560.167 606.5,799.5C 606.167,800.5 605.5,801.167 604.5,801.5C 604.5,561.5 604.5,321.5 604.5,81.5 Z"/></g>
<g><path style="opacity:1" fill="#5f9def" d="M 941.5,126.5 C 949.01,125.18 956.677,125.18 964.5,126.5C 964.376,127.107 964.043,127.44 963.5,127.5C 956.352,126.508 949.019,126.175 941.5,126.5 Z"/></g>
<g><path style="opacity:1" fill="#2377e9" d="M 941.5,126.5 C 949.019,126.175 956.352,126.508 963.5,127.5C 954.361,153.749 944.528,179.749 934,205.5C 929.382,212.562 922.882,216.728 914.5,218C 909.316,218.816 904.316,218.65 899.5,217.5C 899.178,211.642 899.511,205.975 900.5,200.5C 910.268,202.454 916.268,198.621 918.5,189C 910.265,168.127 901.931,147.293 893.5,126.5C 901.392,125.186 909.225,125.186 917,126.5C 921.613,140.672 925.613,155.005 929,169.5C 932.671,154.991 936.838,140.657 941.5,126.5 Z"/></g>
<g><path style="opacity:1" fill="#9fc4f5" d="M 900.5,200.5 C 899.511,205.975 899.178,211.642 899.5,217.5C 898.183,211.654 898.183,205.654 899.5,199.5C 900.107,199.624 900.44,199.957 900.5,200.5 Z"/></g>
<g><path style="opacity:1" fill="#000000" d="M 855.5,233.5 C 855.5,235.167 855.5,236.833 855.5,238.5C 848.167,238.5 840.833,238.5 833.5,238.5C 833.5,236.833 833.5,235.167 833.5,233.5C 840.833,233.5 848.167,233.5 855.5,233.5 Z"/></g>
<g><path style="opacity:1" fill="#808080" d="M 855.5,233.5 C 856.461,235.265 856.795,237.265 856.5,239.5C 848.648,239.825 840.982,239.492 833.5,238.5C 840.833,238.5 848.167,238.5 855.5,238.5C 855.5,236.833 855.5,235.167 855.5,233.5 Z"/></g>
<g><path style="opacity:1" fill="#0b0b0b" d="M 317.5,335.5 C 318.873,335.343 320.207,335.51 321.5,336C 358.707,373.54 396.207,410.707 434,447.5C 471.667,410.666 509.167,373.666 546.5,336.5C 551.453,335.29 553.286,337.29 552,342.5C 514.154,379.012 476.988,416.179 440.5,454C 477.6,491.1 514.767,528.267 552,565.5C 553.5,570.667 551.667,572.5 546.5,571C 512.167,536.667 477.833,502.333 443.5,468C 440.322,465.486 437.156,462.986 434,460.5C 396.54,496.96 359.373,533.793 322.5,571C 320.527,571.495 318.527,571.662 316.5,571.5C 316.338,569.473 316.505,567.473 317,565.5C 354.167,528.333 391.333,491.167 428.5,454C 391.333,416.833 354.167,379.667 317,342.5C 316.297,340.071 316.463,337.738 317.5,335.5 Z"/></g>
<g><path style="opacity:1" fill="#0e0e0e" d="M 1350.5,361.5 C 1351.55,361.351 1352.55,361.517 1353.5,362C 1382.71,391.041 1411.71,420.207 1440.5,449.5C 1469.99,420.514 1499.32,391.347 1528.5,362C 1529.78,361.316 1530.95,361.483 1532,362.5C 1532.67,364.167 1532.67,365.833 1532,367.5C 1502.99,396.347 1474.15,425.347 1445.5,454.5C 1474.15,483.653 1502.99,512.653 1532,541.5C 1533.25,545.111 1532.09,546.611 1528.5,546C 1499.33,516.833 1470.17,487.667 1441,458.5C 1411.83,487.667 1382.67,516.833 1353.5,546C 1349.66,546.825 1348.16,545.325 1349,541.5C 1378.17,512.333 1407.33,483.167 1436.5,454C 1407.33,424.833 1378.17,395.667 1349,366.5C 1348.39,364.505 1348.89,362.838 1350.5,361.5 Z"/></g>
<g><path style="opacity:1" fill="#080808" d="M 441.5,693.5 C 433.427,692.868 425.76,693.535 418.5,695.5C 413.883,708.402 409.55,721.402 405.5,734.5C 403.396,734.799 401.396,734.466 399.5,733.5C 397.095,727.949 395.095,722.283 393.5,716.5C 391.833,716.5 390.167,716.5 388.5,716.5C 388.5,714.5 388.5,712.5 388.5,710.5C 391.518,710.335 394.518,710.502 397.5,711C 398.995,714.817 400.495,718.65 402,722.5C 405.735,711.795 409.568,701.129 413.5,690.5C 415.078,689.702 416.744,689.202 418.5,689C 426.159,688.5 433.826,688.334 441.5,688.5C 441.5,690.167 441.5,691.833 441.5,693.5 Z"/></g>
<g><path style="opacity:1" fill="#070707" d="M 1682.5,690.5 C 1690.17,690.5 1697.83,690.5 1705.5,690.5C 1705.5,692.167 1705.5,693.833 1705.5,695.5C 1698.8,695.17 1692.13,695.503 1685.5,696.5C 1681.12,709.797 1676.46,722.963 1671.5,736C 1669.56,736.743 1667.73,736.576 1666,735.5C 1664,730.167 1662,724.833 1660,719.5C 1658.64,718.62 1657.14,718.286 1655.5,718.5C 1655.5,716.5 1655.5,714.5 1655.5,712.5C 1658.57,712.183 1661.57,712.516 1664.5,713.5C 1665.71,717.287 1667.21,720.954 1669,724.5C 1672.47,713.759 1676.14,703.092 1680,692.5C 1680.99,691.934 1681.83,691.267 1682.5,690.5 Z"/></g>
<g><path style="opacity:1" fill="#888888" d="M 441.5,693.5 C 433.933,694.196 426.266,694.863 418.5,695.5C 425.76,693.535 433.427,692.868 441.5,693.5 Z"/></g>
<g><path style="opacity:1" fill="#040404" d="M 348.5,733.5 C 348.832,724.143 348.498,714.81 347.5,705.5C 346.893,705.624 346.56,705.957 346.5,706.5C 345.024,708.5 343.191,710.167 341,711.5C 338.81,709.612 336.977,707.445 335.5,705C 339.833,701.333 344.167,697.667 348.5,694C 351.817,693.502 355.15,693.335 358.5,693.5C 358.5,706.833 358.5,720.167 358.5,733.5C 355.167,733.5 351.833,733.5 348.5,733.5 Z"/></g>
<g><path style="opacity:1" fill="#070707" d="M 1605.5,694.5 C 1608.83,694.5 1612.17,694.5 1615.5,694.5C 1615.5,707.833 1615.5,721.167 1615.5,734.5C 1611.83,734.5 1608.17,734.5 1604.5,734.5C 1604.67,725.494 1604.5,716.494 1604,707.5C 1601.74,709.046 1599.58,710.712 1597.5,712.5C 1595.64,710.476 1593.98,708.309 1592.5,706C 1597.03,702.301 1601.36,698.468 1605.5,694.5 Z"/></g>
<g><path style="opacity:1" fill="#090909" d="M 429.5,705.5 C 428.549,706.919 428.216,708.585 428.5,710.5C 430.833,710.5 433.167,710.5 435.5,710.5C 442.984,712.796 445.817,717.796 444,725.5C 443.167,730.333 440.333,733.167 435.5,734C 430.5,734.667 425.5,734.667 420.5,734C 418.679,731.544 418.012,728.711 418.5,725.5C 423.129,726.481 427.796,726.648 432.5,726C 435.265,723.034 434.932,720.367 431.5,718C 427.752,717.907 424.086,717.74 420.5,717.5C 419.388,710.837 419.388,704.17 420.5,697.5C 427.5,697.5 434.5,697.5 441.5,697.5C 441.5,700.167 441.5,702.833 441.5,705.5C 437.5,705.5 433.5,705.5 429.5,705.5 Z"/></g>
<g><path style="opacity:1" fill="#060606" d="M 1687.5,699.5 C 1694.5,699.5 1701.5,699.5 1708.5,699.5C 1708.5,702.167 1708.5,704.833 1708.5,707.5C 1704.17,707.5 1699.83,707.5 1695.5,707.5C 1695.5,709.167 1695.5,710.833 1695.5,712.5C 1704.93,710.77 1710.26,714.603 1711.5,724C 1711.14,730.079 1708.14,734.079 1702.5,736C 1697.5,736.667 1692.5,736.667 1687.5,736C 1685.68,733.544 1685.01,730.711 1685.5,727.5C 1689.39,728.965 1693.39,729.465 1697.5,729C 1700.38,727.334 1701.21,724.834 1700,721.5C 1699.25,720.874 1698.42,720.374 1697.5,720C 1694.09,719.973 1690.76,719.806 1687.5,719.5C 1686.33,712.831 1686.33,706.164 1687.5,699.5 Z"/></g>
<g><path style="opacity:1" fill="#010101" d="M 1634.5,701.5 C 1636.83,701.5 1639.17,701.5 1641.5,701.5C 1641.5,704.833 1641.5,708.167 1641.5,711.5C 1644.83,711.5 1648.17,711.5 1651.5,711.5C 1651.5,713.833 1651.5,716.167 1651.5,718.5C 1648.17,718.5 1644.83,718.5 1641.5,718.5C 1641.5,721.833 1641.5,725.167 1641.5,728.5C 1639.17,728.5 1636.83,728.5 1634.5,728.5C 1634.5,725.167 1634.5,721.833 1634.5,718.5C 1631.17,718.5 1627.83,718.5 1624.5,718.5C 1624.5,716.167 1624.5,713.833 1624.5,711.5C 1627.83,711.5 1631.17,711.5 1634.5,711.5C 1634.5,708.167 1634.5,704.833 1634.5,701.5 Z"/></g>
<g><path style="opacity:1" fill="#959595" d="M 429.5,705.5 C 429.5,706.833 429.5,708.167 429.5,709.5C 431.735,709.205 433.735,709.539 435.5,710.5C 433.167,710.5 430.833,710.5 428.5,710.5C 428.216,708.585 428.549,706.919 429.5,705.5 Z"/></g>
<g><path style="opacity:1" fill="#3f3f3f" d="M 346.5,706.5 C 346.56,705.957 346.893,705.624 347.5,705.5C 348.498,714.81 348.832,724.143 348.5,733.5C 347.833,724.5 347.167,715.5 346.5,706.5 Z"/></g>
<g><path style="opacity:1" fill="#010101" d="M 676.5,769.5 C 676.667,755.829 676.5,742.163 676,728.5C 675.283,729.044 674.783,729.711 674.5,730.5C 671.831,732.999 668.998,735.332 666,737.5C 663.667,734.833 661.333,732.167 659,729.5C 658.251,728.365 658.417,727.365 659.5,726.5C 665.355,721.477 671.355,716.644 677.5,712C 682.155,711.501 686.821,711.334 691.5,711.5C 691.5,730.833 691.5,750.167 691.5,769.5C 686.5,769.5 681.5,769.5 676.5,769.5 Z"/></g>
<g><path style="opacity:1" fill="#000000" d="M 316.5,714.5 C 321.5,714.5 326.5,714.5 331.5,714.5C 331.5,717.167 331.5,719.833 331.5,722.5C 326.5,722.5 321.5,722.5 316.5,722.5C 316.5,719.833 316.5,717.167 316.5,714.5 Z"/></g>
<g><path style="opacity:1" fill="#050505" d="M 367.5,714.5 C 372.5,714.5 377.5,714.5 382.5,714.5C 382.5,717.167 382.5,719.833 382.5,722.5C 377.5,722.5 372.5,722.5 367.5,722.5C 367.5,719.833 367.5,717.167 367.5,714.5 Z"/></g>
<g><path style="opacity:1" fill="#000000" d="M 1573.5,715.5 C 1578.5,715.5 1583.5,715.5 1588.5,715.5C 1588.5,718.167 1588.5,720.833 1588.5,723.5C 1583.5,723.5 1578.5,723.5 1573.5,723.5C 1573.5,720.833 1573.5,718.167 1573.5,715.5 Z"/></g>
<g><path style="opacity:1" fill="#a1a1a1" d="M 367.5,714.5 C 367.5,717.167 367.5,719.833 367.5,722.5C 372.5,722.5 377.5,722.5 382.5,722.5C 377.36,723.488 372.026,723.821 366.5,723.5C 366.19,720.287 366.523,717.287 367.5,714.5 Z"/></g>
<g><path style="opacity:1" fill="#797979" d="M 676.5,769.5 C 675.833,756.5 675.167,743.5 674.5,730.5C 674.783,729.711 675.283,729.044 676,728.5C 676.5,742.163 676.667,755.829 676.5,769.5 Z"/></g>
<g><path style="opacity:1" fill="#111111" d="M 301.5,742.5 C 352.833,742.5 404.167,742.5 455.5,742.5C 455.5,744.5 455.5,746.5 455.5,748.5C 404.167,748.5 352.833,748.5 301.5,748.5C 301.5,746.5 301.5,744.5 301.5,742.5 Z"/></g>
<g><path style="opacity:1" fill="#010101" d="M 630.5,741.5 C 637.833,741.5 645.167,741.5 652.5,741.5C 652.5,745.5 652.5,749.5 652.5,753.5C 645.167,753.5 637.833,753.5 630.5,753.5C 630.5,749.5 630.5,745.5 630.5,741.5 Z"/></g>
<g><path style="opacity:1" fill="#000000" d="M 1565.5,744.5 C 1616.5,744.5 1667.5,744.5 1718.5,744.5C 1718.5,746.167 1718.5,747.833 1718.5,749.5C 1667.5,749.5 1616.5,749.5 1565.5,749.5C 1565.5,747.833 1565.5,746.167 1565.5,744.5 Z"/></g>
<g><path style="opacity:1" fill="#050505" d="M 1368.5,746.5 C 1373.5,746.5 1378.5,746.5 1383.5,746.5C 1383.5,765.833 1383.5,785.167 1383.5,804.5C 1378.17,804.5 1372.83,804.5 1367.5,804.5C 1367.67,791.163 1367.5,777.829 1367,764.5C 1364.3,767.538 1361.3,770.205 1358,772.5C 1355.05,769.428 1352.22,766.261 1349.5,763C 1356.28,757.954 1362.61,752.454 1368.5,746.5 Z"/></g>
<g><path style="opacity:1" fill="#808080" d="M 1565.5,744.5 C 1616.66,743.501 1668,743.168 1719.5,743.5C 1719.5,745.833 1719.5,748.167 1719.5,750.5C 1668,750.832 1616.66,750.499 1565.5,749.5C 1616.5,749.5 1667.5,749.5 1718.5,749.5C 1718.5,747.833 1718.5,746.167 1718.5,744.5C 1667.5,744.5 1616.5,744.5 1565.5,744.5 Z"/></g>
<g><path style="opacity:1" fill="#080808" d="M 367.5,752.5 C 371.514,752.334 375.514,752.501 379.5,753C 387.079,755.483 389.579,760.65 387,768.5C 383.581,773.923 379.415,778.756 374.5,783C 379.155,783.499 383.821,783.666 388.5,783.5C 388.5,786.5 388.5,789.5 388.5,792.5C 378.833,792.5 369.167,792.5 359.5,792.5C 359.337,790.143 359.503,787.81 360,785.5C 367.184,779.495 373.017,772.495 377.5,764.5C 377.099,762.053 375.599,761.053 373,761.5C 370.262,761.576 367.928,762.576 366,764.5C 363.719,763.224 361.719,761.557 360,759.5C 359.312,758.668 359.479,758.002 360.5,757.5C 363.077,756.057 365.41,754.39 367.5,752.5 Z"/></g>
<g><path style="opacity:1" fill="#0a0a0a" d="M 1631.5,754.5 C 1651.19,753.312 1656.03,760.978 1646,777.5C 1642.89,779.647 1640.05,782.147 1637.5,785C 1642.49,785.499 1647.49,785.666 1652.5,785.5C 1652.5,788.5 1652.5,791.5 1652.5,794.5C 1642.83,794.5 1633.17,794.5 1623.5,794.5C 1623.34,791.813 1623.5,789.146 1624,786.5C 1629,781.5 1634,776.5 1639,771.5C 1642.27,765.063 1640.43,762.563 1633.5,764C 1631.71,764.785 1630.21,765.951 1629,767.5C 1626.26,765.315 1624.59,762.649 1624,759.5C 1626.48,757.686 1628.98,756.019 1631.5,754.5 Z"/></g>
<g><path style="opacity:1" fill="#2e4cca" d="M 594.5,800.5 C 596.127,802.63 597.96,804.63 600,806.5C 601.707,804.963 603.207,803.296 604.5,801.5C 605.5,801.167 606.167,800.5 606.5,799.5C 612.996,793.171 619.663,787.005 626.5,781C 632.343,779.675 636.843,781.508 640,786.5C 640.837,790.295 640.504,793.961 639,797.5C 631.964,804.368 625.131,811.368 618.5,818.5C 617.188,819.145 616.188,820.145 615.5,821.5C 617.521,824.188 619.854,826.521 622.5,828.5C 628.495,834.663 634.329,840.996 640,847.5C 641.43,860.4 635.93,864.9 623.5,861C 617.298,854.631 610.965,848.464 604.5,842.5C 603.188,840.521 601.521,838.855 599.5,837.5C 597.479,838.855 595.812,840.521 594.5,842.5C 588.035,848.464 581.702,854.631 575.5,861C 568.077,864.386 562.577,862.553 559,855.5C 558.333,853.167 558.333,850.833 559,848.5C 564.671,841.996 570.505,835.663 576.5,829.5C 577.5,829.167 578.167,828.5 578.5,827.5C 580.63,825.873 582.63,824.04 584.5,822C 582.963,820.293 581.296,818.793 579.5,817.5C 573.536,811.035 567.369,804.702 561,798.5C 556.04,786.803 559.873,780.969 572.5,781C 573.833,781.667 575.167,782.333 576.5,783C 582.369,789.036 588.369,794.87 594.5,800.5 Z"/></g>
<g><path style="opacity:1" fill="#2b2b2b" d="M 1920.5,820.5 C 1921.29,820.783 1921.96,821.283 1922.5,822C 1906.33,822.828 1890.33,822.661 1874.5,821.5C 1890.01,821.83 1905.34,821.496 1920.5,820.5 Z"/></g>
<g><path style="opacity:1" fill="#a1a1a1" d="M 154.5,826.5 C 196.833,826.5 239.167,826.5 281.5,826.5C 281.5,1023.5 281.5,1220.5 281.5,1417.5C 280.5,1221 280.167,1024.33 280.5,827.5C 238.33,827.832 196.33,827.499 154.5,826.5 Z"/></g>
<g><path style="opacity:1" fill="#aeaeae" d="M 443.5,827.5 C 488.5,827.5 533.5,827.5 578.5,827.5C 578.167,828.5 577.5,829.167 576.5,829.5C 532.167,828.833 487.833,828.167 443.5,827.5 Z"/></g>
<g><path style="opacity:1" fill="#cacaca" d="M 859.5,828.5 C 905.167,828.5 950.833,828.5 996.5,828.5C 996.5,1024.83 996.5,1221.17 996.5,1417.5C 995.5,1221.67 995.167,1025.67 995.5,829.5C 949.997,829.832 904.664,829.499 859.5,828.5 Z"/></g>
<g><path style="opacity:1" fill="#c2c2c2" d="M 1178.5,829.5 C 1227.83,829.5 1277.17,829.5 1326.5,829.5C 1326.5,1025.5 1326.5,1221.5 1326.5,1417.5C 1325.5,1222 1325.17,1026.33 1325.5,830.5C 1276.33,830.832 1227.33,830.499 1178.5,829.5 Z"/></g>
<g><path style="opacity:1" fill="#606060" d="M 1783.5,831.5 C 1707.5,831.5 1631.5,831.5 1555.5,831.5C 1555.83,1027.33 1555.5,1223 1554.5,1418.5C 1554.5,1222.5 1554.5,1026.5 1554.5,830.5C 1631,830.167 1707.34,830.501 1783.5,831.5 Z"/></g>
<g><path style="opacity:1" fill="#d5d5d5" d="M 1847.5,831.5 C 1872.17,831.333 1896.84,831.5 1921.5,832C 1920.96,832.717 1920.29,833.217 1919.5,833.5C 1895.5,832.833 1871.5,832.167 1847.5,831.5 Z"/></g>
<g><path style="opacity:1" fill="#060606" d="M 604.5,842.5 C 604.667,1034.83 604.5,1227.17 604,1419.5C 600.661,1422.3 597.661,1421.97 595,1418.5C 594.5,1226.5 594.333,1034.5 594.5,842.5C 595.812,840.521 597.479,838.855 599.5,837.5C 601.521,838.855 603.188,840.521 604.5,842.5 Z"/></g>
<g><path style="opacity:1" fill="#5c9bef" d="M 1859.5,871.5 C 1867.68,870.179 1876.01,870.179 1884.5,871.5C 1884.38,872.107 1884.04,872.44 1883.5,872.5C 1875.68,871.508 1867.68,871.174 1859.5,871.5 Z"/></g>
<g><path style="opacity:1" fill="#2277e9" d="M 1859.5,871.5 C 1867.68,871.174 1875.68,871.508 1883.5,872.5C 1877.51,882.482 1871.51,892.482 1865.5,902.5C 1871.78,913.546 1878.44,924.379 1885.5,935C 1877.17,935.667 1868.83,935.667 1860.5,935C 1856.96,928.751 1853.29,922.584 1849.5,916.5C 1845.77,922.245 1842.43,928.245 1839.5,934.5C 1830.85,935.665 1822.19,935.832 1813.5,935C 1820.56,924.379 1827.22,913.546 1833.5,902.5C 1827.4,891.892 1821.07,881.392 1814.5,871C 1822.83,870.333 1831.17,870.333 1839.5,871C 1842.96,876.761 1846.3,882.594 1849.5,888.5C 1852.9,882.794 1856.23,877.127 1859.5,871.5 Z"/></g>
<g><path style="opacity:1" fill="#0c0c0c" d="M 242.5,987.5 C 242.657,988.873 242.49,990.207 242,991.5C 234.298,999.035 226.798,1006.7 219.5,1014.5C 193.882,1040.45 168.215,1066.45 142.5,1092.5C 175.486,1125.99 208.653,1159.32 242,1192.5C 243.583,1197.1 242.083,1198.93 237.5,1198C 204,1164.5 170.5,1131 137,1097.5C 103.263,1131.74 69.0961,1165.4 34.5,1198.5C 33.5581,1198.39 32.7247,1198.06 32,1197.5C 31.3333,1195.83 31.3333,1194.17 32,1192.5C 65.3471,1159.32 98.5138,1125.99 131.5,1092.5C 98.1524,1058.99 64.9858,1025.32 32,991.5C 31.5065,989.866 31.3398,988.199 31.5,986.5C 33.5273,986.338 35.5273,986.505 37.5,987C 70.0123,1020.85 103.179,1054.01 137,1086.5C 170.82,1053.68 204.32,1020.51 237.5,987C 239.387,986.22 241.054,986.387 242.5,987.5 Z"/></g>
<g><path style="opacity:1" fill="#0c0c0c" d="M 661.5,986.5 C 663.527,986.338 665.527,986.505 667.5,987C 711.68,1031.35 756.014,1075.51 800.5,1119.5C 845.014,1075.15 889.681,1030.99 934.5,987C 940,985.833 942.167,988 941,993.5C 896.653,1038.01 852.153,1082.35 807.5,1126.5C 851.82,1171.32 896.32,1215.99 941,1260.5C 942.143,1265.86 939.976,1268.03 934.5,1267C 889.986,1222.32 845.32,1177.82 800.5,1133.5C 755.707,1177.79 711.041,1222.29 666.5,1267C 661.522,1267.6 659.355,1265.43 660,1260.5C 704.522,1215.98 749.022,1171.48 793.5,1127C 749.373,1081.87 704.873,1037.04 660,992.5C 659.252,990.16 659.752,988.16 661.5,986.5 Z"/></g>
<g><path style="opacity:1" fill="#0c0c0c" d="M 1040.5,999.5 C 1042.2,999.34 1043.87,999.506 1045.5,1000C 1085.68,1040.35 1126.01,1080.51 1166.5,1120.5C 1206.99,1080.51 1247.32,1040.35 1287.5,1000C 1292.5,998.67 1294.66,1000.5 1294,1005.5C 1253.65,1046.01 1213.15,1086.35 1172.5,1126.5C 1212.82,1167.32 1253.32,1207.99 1294,1248.5C 1294.83,1253 1293,1254.83 1288.5,1254C 1247.68,1214.01 1207.01,1173.85 1166.5,1133.5C 1125.99,1173.85 1085.32,1214.01 1044.5,1254C 1039.5,1254.66 1037.67,1252.5 1039,1247.5C 1079.99,1207.68 1120.49,1167.35 1160.5,1126.5C 1119.85,1086.35 1079.35,1046.01 1039,1005.5C 1038.26,1003.13 1038.76,1001.13 1040.5,999.5 Z"/></g>
<g><path style="opacity:1" fill="#070707" d="M 1827.5,1006.5 C 1827.66,1007.87 1827.49,1009.21 1827,1010.5C 1788.63,1048.7 1750.47,1087.03 1712.5,1125.5C 1711.43,1126.25 1711.26,1127.25 1712,1128.5C 1750.33,1166.83 1788.67,1205.17 1827,1243.5C 1827.81,1245.58 1827.64,1247.58 1826.5,1249.5C 1825.23,1250.43 1823.9,1250.59 1822.5,1250C 1783.63,1210.79 1744.46,1171.96 1705,1133.5C 1666.57,1171.93 1628.07,1210.43 1589.5,1249C 1584.09,1251.27 1581.92,1249.43 1583,1243.5C 1621.83,1204.67 1660.67,1165.83 1699.5,1127C 1660.67,1088.17 1621.83,1049.33 1583,1010.5C 1581.5,1005.33 1583.33,1003.5 1588.5,1005C 1627.04,1043.87 1665.87,1082.37 1705,1120.5C 1744.13,1082.37 1782.96,1043.87 1821.5,1005C 1823.99,1004.06 1825.99,1004.56 1827.5,1006.5 Z"/></g>
<g><path style="opacity:1" fill="#cacaca" d="M 242.5,987.5 C 243.613,988.946 243.78,990.613 243,992.5C 235.578,1000.43 227.745,1007.76 219.5,1014.5C 226.798,1006.7 234.298,999.035 242,991.5C 242.49,990.207 242.657,988.873 242.5,987.5 Z"/></g>
<g><path style="opacity:1" fill="#cbcbcb" d="M 1827.5,1006.5 C 1828.61,1007.95 1828.78,1009.61 1828,1011.5C 1789.92,1050.08 1751.42,1088.08 1712.5,1125.5C 1750.47,1087.03 1788.63,1048.7 1827,1010.5C 1827.49,1009.21 1827.66,1007.87 1827.5,1006.5 Z"/></g>
</svg>
