<?xml version="1.0" encoding="UTF-8"?>
<!DOCTYPE svg PUBLIC "-//W3C//DTD SVG 1.1//EN" "http://www.w3.org/Graphics/SVG/1.1/DTD/svg11.dtd">
<svg xmlns="http://www.w3.org/2000/svg" version="1.1" width="2000px" height="1500px" style="shape-rendering:geometricPrecision; text-rendering:geometricPrecision; image-rendering:optimizeQuality; fill-rule:evenodd; clip-rule:evenodd" xmlns:xlink="http://www.w3.org/1999/xlink">
<g><path style="opacity:1" fill="#fefefe" d="M -0.5,-0.5 C 666.167,-0.5 1332.83,-0.5 1999.5,-0.5C 1999.5,499.5 1999.5,999.5 1999.5,1499.5C 1332.83,1499.5 666.167,1499.5 -0.5,1499.5C -0.5,999.5 -0.5,499.5 -0.5,-0.5 Z"/></g>
<g><path style="opacity:1" fill="#090909" d="M 863.5,314.5 C 861.393,313.532 859.059,313.198 856.5,313.5C 856.5,310.167 856.5,306.833 856.5,303.5C 861.5,303.5 866.5,303.5 871.5,303.5C 873.894,310.514 876.394,317.514 879,324.5C 885.607,306.176 892.107,287.843 898.5,269.5C 901.61,268.912 904.61,268.245 907.5,267.5C 925.326,266.503 943.326,266.17 961.5,266.5C 961.5,269.833 961.5,273.167 961.5,276.5C 943.488,276.167 925.488,276.5 907.5,277.5C 899.427,300.053 891.76,322.72 884.5,345.5C 881.167,345.5 877.833,345.5 874.5,345.5C 871.427,334.946 867.76,324.613 863.5,314.5 Z"/></g>
<g><path style="opacity:1" fill="#0b0b0b" d="M 1468.5,266.5 C 1486.5,266.5 1504.5,266.5 1522.5,266.5C 1522.5,269.833 1522.5,273.167 1522.5,276.5C 1505.5,276.333 1488.5,276.5 1471.5,277C 1463.13,299.61 1455.46,322.443 1448.5,345.5C 1445.1,345.82 1441.77,345.487 1438.5,344.5C 1435.03,334.755 1431.36,325.089 1427.5,315.5C 1424.91,314.52 1422.25,314.187 1419.5,314.5C 1419.5,310.5 1419.5,306.5 1419.5,302.5C 1424.51,302.334 1429.51,302.501 1434.5,303C 1437.33,310.15 1440.16,317.316 1443,324.5C 1449.33,306.167 1455.67,287.833 1462,269.5C 1463.99,268.008 1466.16,267.008 1468.5,266.5 Z"/></g>
<g><path style="opacity:1" fill="#616161" d="M 907.5,267.5 C 904.61,268.245 901.61,268.912 898.5,269.5C 900.988,267.612 903.988,266.945 907.5,267.5 Z"/></g>
<g><path style="opacity:1" fill="#020202" d="M 787.5,274.5 C 793.167,274.5 798.833,274.5 804.5,274.5C 804.5,297.167 804.5,319.833 804.5,342.5C 798.5,342.5 792.5,342.5 786.5,342.5C 786.667,326.83 786.5,311.163 786,295.5C 782.31,298.691 778.477,301.691 774.5,304.5C 771.152,301.149 768.152,297.482 765.5,293.5C 772.853,287.144 780.186,280.811 787.5,274.5 Z"/></g>
<g><path style="opacity:1" fill="#020202" d="M 1327.5,274.5 C 1333.17,274.5 1338.83,274.5 1344.5,274.5C 1344.5,297.167 1344.5,319.833 1344.5,342.5C 1338.5,342.5 1332.5,342.5 1326.5,342.5C 1326.67,326.83 1326.5,311.163 1326,295.5C 1322.68,298.983 1319.02,301.983 1315,304.5C 1311.34,301.338 1308.18,297.671 1305.5,293.5C 1312.91,287.149 1320.24,280.816 1327.5,274.5 Z"/></g>
<g><path style="opacity:1" fill="#4d4d4d" d="M 925.5,295.5 C 932.313,294.509 939.313,294.175 946.5,294.5C 946.5,290.167 946.5,285.833 946.5,281.5C 934.833,281.5 923.167,281.5 911.5,281.5C 911.737,282.791 911.404,283.791 910.5,284.5C 910.5,283.167 910.5,281.833 910.5,280.5C 922.833,280.5 935.167,280.5 947.5,280.5C 947.5,285.5 947.5,290.5 947.5,295.5C 940.167,295.5 932.833,295.5 925.5,295.5 Z"/></g>
<g><path style="opacity:1" fill="#4d4d4d" d="M 1489.5,295.5 C 1496.31,294.509 1503.31,294.175 1510.5,294.5C 1510.5,290.167 1510.5,285.833 1510.5,281.5C 1498.83,281.5 1487.17,281.5 1475.5,281.5C 1475.74,282.791 1475.4,283.791 1474.5,284.5C 1474.5,283.167 1474.5,281.833 1474.5,280.5C 1486.83,280.5 1499.17,280.5 1511.5,280.5C 1511.5,285.5 1511.5,290.5 1511.5,295.5C 1504.17,295.5 1496.83,295.5 1489.5,295.5 Z"/></g>
<g><path style="opacity:1" fill="#050505" d="M 925.5,295.5 C 925.5,295.833 925.5,296.167 925.5,296.5C 924.532,298.607 924.198,300.941 924.5,303.5C 928.167,303.5 931.833,303.5 935.5,303.5C 946.079,305.587 951.412,312.087 951.5,323C 951.257,335.577 944.924,342.91 932.5,345C 924.267,346.153 916.267,345.32 908.5,342.5C 907.167,337.833 907.167,333.167 908.5,328.5C 915.26,331.238 922.26,332.072 929.5,331C 936.167,326.333 936.167,321.667 929.5,317C 924.625,316.247 919.792,316.414 915,317.5C 912.861,316.764 910.861,315.764 909,314.5C 908.977,304.486 909.477,294.486 910.5,284.5C 911.404,283.791 911.737,282.791 911.5,281.5C 923.167,281.5 934.833,281.5 946.5,281.5C 946.5,285.833 946.5,290.167 946.5,294.5C 939.313,294.175 932.313,294.509 925.5,295.5 Z"/></g>
<g><path style="opacity:1" fill="#050505" d="M 1489.5,295.5 C 1489.5,295.833 1489.5,296.167 1489.5,296.5C 1488.53,298.607 1488.2,300.941 1488.5,303.5C 1492.17,303.5 1495.83,303.5 1499.5,303.5C 1510.08,305.587 1515.41,312.087 1515.5,323C 1515.26,335.577 1508.92,342.91 1496.5,345C 1488.27,346.153 1480.27,345.32 1472.5,342.5C 1471.17,337.833 1471.17,333.167 1472.5,328.5C 1479.26,331.238 1486.26,332.072 1493.5,331C 1500.17,326.333 1500.17,321.667 1493.5,317C 1488.63,316.247 1483.79,316.414 1479,317.5C 1476.86,316.764 1474.86,315.764 1473,314.5C 1472.98,304.486 1473.48,294.486 1474.5,284.5C 1475.4,283.791 1475.74,282.791 1475.5,281.5C 1487.17,281.5 1498.83,281.5 1510.5,281.5C 1510.5,285.833 1510.5,290.167 1510.5,294.5C 1503.31,294.175 1496.31,294.509 1489.5,295.5 Z"/></g>
<g><path style="opacity:1" fill="#0c0c0c" d="M 1390.5,315.5 C 1389.51,320.64 1389.18,325.974 1389.5,331.5C 1385.5,331.5 1381.5,331.5 1377.5,331.5C 1377.5,326.167 1377.5,320.833 1377.5,315.5C 1371.83,315.5 1366.17,315.5 1360.5,315.5C 1360.5,311.167 1360.5,306.833 1360.5,302.5C 1366.17,302.5 1371.83,302.5 1377.5,302.5C 1377.5,296.833 1377.5,291.167 1377.5,285.5C 1381.83,285.5 1386.17,285.5 1390.5,285.5C 1390.5,291.167 1390.5,296.833 1390.5,302.5C 1396.17,302.5 1401.83,302.5 1407.5,302.5C 1407.5,306.833 1407.5,311.167 1407.5,315.5C 1401.83,315.5 1396.17,315.5 1390.5,315.5 Z"/></g>
<g><path style="opacity:1" fill="#686868" d="M 925.5,296.5 C 925.5,298.5 925.5,300.5 925.5,302.5C 929.042,302.187 932.375,302.521 935.5,303.5C 931.833,303.5 928.167,303.5 924.5,303.5C 924.198,300.941 924.532,298.607 925.5,296.5 Z"/></g>
<g><path style="opacity:1" fill="#686868" d="M 1489.5,296.5 C 1489.5,298.5 1489.5,300.5 1489.5,302.5C 1493.04,302.187 1496.38,302.521 1499.5,303.5C 1495.83,303.5 1492.17,303.5 1488.5,303.5C 1488.2,300.941 1488.53,298.607 1489.5,296.5 Z"/></g>
<g><path style="opacity:1" fill="#505050" d="M 871.5,303.5 C 866.5,303.5 861.5,303.5 856.5,303.5C 856.5,306.833 856.5,310.167 856.5,313.5C 859.059,313.198 861.393,313.532 863.5,314.5C 860.833,314.5 858.167,314.5 855.5,314.5C 855.5,310.5 855.5,306.5 855.5,302.5C 861.026,302.179 866.36,302.512 871.5,303.5 Z"/></g>
<g><path style="opacity:1" fill="#707070" d="M 1390.5,315.5 C 1390.5,321.167 1390.5,326.833 1390.5,332.5C 1385.97,332.818 1381.63,332.485 1377.5,331.5C 1381.5,331.5 1385.5,331.5 1389.5,331.5C 1389.18,325.974 1389.51,320.64 1390.5,315.5 Z"/></g>
<g><path style="opacity:1" fill="#525252" d="M 732.5,309.5 C 741.5,309.5 750.5,309.5 759.5,309.5C 759.5,314.5 759.5,319.5 759.5,324.5C 750.5,324.5 741.5,324.5 732.5,324.5C 732.5,319.5 732.5,314.5 732.5,309.5 Z"/></g>
<g><path style="opacity:1" fill="#000000" d="M 733.5,310.5 C 741.833,310.5 750.167,310.5 758.5,310.5C 758.5,314.833 758.5,319.167 758.5,323.5C 750.167,323.5 741.833,323.5 733.5,323.5C 733.5,319.167 733.5,314.833 733.5,310.5 Z"/></g>
<g><path style="opacity:1" fill="#525252" d="M 818.5,309.5 C 827.5,309.5 836.5,309.5 845.5,309.5C 845.5,314.5 845.5,319.5 845.5,324.5C 836.5,324.5 827.5,324.5 818.5,324.5C 818.5,319.5 818.5,314.5 818.5,309.5 Z"/></g>
<g><path style="opacity:1" fill="#000000" d="M 819.5,310.5 C 827.833,310.5 836.167,310.5 844.5,310.5C 844.5,314.833 844.5,319.167 844.5,323.5C 836.167,323.5 827.833,323.5 819.5,323.5C 819.5,319.167 819.5,314.833 819.5,310.5 Z"/></g>
<g><path style="opacity:1" fill="#525252" d="M 1272.5,309.5 C 1281.5,309.5 1290.5,309.5 1299.5,309.5C 1299.5,314.5 1299.5,319.5 1299.5,324.5C 1290.5,324.5 1281.5,324.5 1272.5,324.5C 1272.5,319.5 1272.5,314.5 1272.5,309.5 Z"/></g>
<g><path style="opacity:1" fill="#000000" d="M 1273.5,310.5 C 1281.83,310.5 1290.17,310.5 1298.5,310.5C 1298.5,314.833 1298.5,319.167 1298.5,323.5C 1290.17,323.5 1281.83,323.5 1273.5,323.5C 1273.5,319.167 1273.5,314.833 1273.5,310.5 Z"/></g>
<g><path style="opacity:1" fill="#000000" d="M 707.5,358.5 C 795.167,358.5 882.833,358.5 970.5,358.5C 970.5,361.5 970.5,364.5 970.5,367.5C 882.833,367.5 795.167,367.5 707.5,367.5C 707.5,364.5 707.5,361.5 707.5,358.5 Z"/></g>
<g><path style="opacity:1" fill="#000000" d="M 1268.5,358.5 C 1355.83,358.5 1443.17,358.5 1530.5,358.5C 1530.5,361.5 1530.5,364.5 1530.5,367.5C 1443.17,367.5 1355.83,367.5 1268.5,367.5C 1268.5,364.5 1268.5,361.5 1268.5,358.5 Z"/></g>
<g><path style="opacity:1" fill="#030303" d="M 1148.5,365.5 C 1155.5,365.5 1162.5,365.5 1169.5,365.5C 1169.5,393.167 1169.5,420.833 1169.5,448.5C 1161.83,448.5 1154.17,448.5 1146.5,448.5C 1146.67,429.164 1146.5,409.83 1146,390.5C 1141.95,395.057 1137.45,399.057 1132.5,402.5C 1128.28,398.449 1124.62,393.949 1121.5,389C 1122.44,387.056 1123.77,385.389 1125.5,384C 1133.6,378.294 1141.27,372.128 1148.5,365.5 Z"/></g>
<g><path style="opacity:1" fill="#010101" d="M 1662.5,365.5 C 1669.17,365.5 1675.83,365.5 1682.5,365.5C 1682.5,393.167 1682.5,420.833 1682.5,448.5C 1675.17,448.5 1667.83,448.5 1660.5,448.5C 1660.67,429.164 1660.5,409.83 1660,390.5C 1655.52,394.737 1650.85,398.737 1646,402.5C 1641.98,397.979 1638.14,393.312 1634.5,388.5C 1643.85,380.81 1653.19,373.143 1662.5,365.5 Z"/></g>
<g><path style="opacity:1" fill="#444444" d="M 1662.5,365.5 C 1669.31,364.509 1676.31,364.175 1683.5,364.5C 1683.83,392.672 1683.5,420.672 1682.5,448.5C 1682.5,420.833 1682.5,393.167 1682.5,365.5C 1675.83,365.5 1669.17,365.5 1662.5,365.5 Z"/></g>
<g><path style="opacity:1" fill="#7e7e7e" d="M 1268.5,358.5 C 1356,357.501 1443.67,357.167 1531.5,357.5C 1531.5,361.167 1531.5,364.833 1531.5,368.5C 1443.67,368.833 1356,368.499 1268.5,367.5C 1355.83,367.5 1443.17,367.5 1530.5,367.5C 1530.5,364.5 1530.5,361.5 1530.5,358.5C 1443.17,358.5 1355.83,358.5 1268.5,358.5 Z"/></g>
<g><path style="opacity:1" fill="#050505" d="M 824.5,375.5 C 832.643,374.649 840.31,376.149 847.5,380C 854.023,385.004 856.19,391.504 854,399.5C 853.226,403.049 851.893,406.382 850,409.5C 844.167,416.667 837.667,423.167 830.5,429C 839.16,429.5 847.827,429.666 856.5,429.5C 856.5,434.5 856.5,439.5 856.5,444.5C 839.833,444.5 823.167,444.5 806.5,444.5C 806.334,440.486 806.501,436.486 807,432.5C 816.031,423.804 824.697,414.804 833,405.5C 839.953,394.538 837.119,390.038 824.5,392C 821.971,394.029 819.304,395.862 816.5,397.5C 812.475,394.442 809.142,390.775 806.5,386.5C 811.593,381.29 817.593,377.623 824.5,375.5 Z"/></g>
<g><path style="opacity:1" fill="#050505" d="M 1385.5,375.5 C 1393.7,374.462 1401.37,375.962 1408.5,380C 1416.6,388.101 1417.76,397.268 1412,407.5C 1405.83,415.196 1399,422.363 1391.5,429C 1399.83,429.5 1408.16,429.666 1416.5,429.5C 1416.5,434.5 1416.5,439.5 1416.5,444.5C 1400.17,444.5 1383.83,444.5 1367.5,444.5C 1367.33,440.486 1367.5,436.486 1368,432.5C 1375.97,423.53 1384.3,414.863 1393,406.5C 1400.96,395.78 1398.46,390.946 1385.5,392C 1382.56,393.715 1379.73,395.548 1377,397.5C 1373.3,394.296 1370.13,390.63 1367.5,386.5C 1372.6,381.285 1378.6,377.619 1385.5,375.5 Z"/></g>
<g><path style="opacity:1" fill="#6e6e6e" d="M 1081.5,408.5 C 1081.5,414.167 1081.5,419.833 1081.5,425.5C 1091.83,425.5 1102.17,425.5 1112.5,425.5C 1112.5,419.833 1112.5,414.167 1112.5,408.5C 1113.49,414.31 1113.82,420.31 1113.5,426.5C 1102.5,426.5 1091.5,426.5 1080.5,426.5C 1080.18,420.31 1080.51,414.31 1081.5,408.5 Z"/></g>
<g><path style="opacity:1" fill="#000000" d="M 1081.5,408.5 C 1091.83,408.5 1102.17,408.5 1112.5,408.5C 1112.5,414.167 1112.5,419.833 1112.5,425.5C 1102.17,425.5 1091.83,425.5 1081.5,425.5C 1081.5,419.833 1081.5,414.167 1081.5,408.5 Z"/></g>
<g><path style="opacity:1" fill="#040404" d="M 1921.5,489.5 C 1922.29,489.217 1922.96,488.717 1923.5,488C 1841.5,487.5 1759.5,487.333 1677.5,487.5C 1677.5,550.833 1677.5,614.167 1677.5,677.5C 1686.02,677.826 1694.35,677.493 1702.5,676.5C 1784.17,676.333 1865.83,676.5 1947.5,677C 1951.56,679.467 1952.56,682.967 1950.5,687.5C 1949.5,688.333 1948.5,689.167 1947.5,690C 1898.83,690.5 1850.17,690.667 1801.5,690.5C 1760.17,690.5 1718.83,690.5 1677.5,690.5C 1677.5,759.833 1677.5,829.167 1677.5,898.5C 1749.17,898.5 1820.83,898.5 1892.5,898.5C 1910.5,898.333 1928.5,898.5 1946.5,899C 1950.24,899.575 1951.91,901.741 1951.5,905.5C 1952.02,908.815 1950.68,910.982 1947.5,912C 1886.83,912.5 1826.17,912.667 1765.5,912.5C 1736.34,911.502 1707,911.169 1677.5,911.5C 1677.17,978.335 1677.5,1045 1678.5,1111.5C 1767.83,1111.33 1857.17,1111.5 1946.5,1112C 1950.1,1112.85 1951.77,1115.18 1951.5,1119C 1951.78,1122.06 1950.44,1124.06 1947.5,1125C 1857.5,1125.5 1767.5,1125.67 1677.5,1125.5C 1677.67,1164.17 1677.5,1202.83 1677,1241.5C 1672.29,1248.17 1667.96,1247.84 1664,1240.5C 1663.5,1202.17 1663.33,1163.83 1663.5,1125.5C 1575.5,1125.5 1487.5,1125.5 1399.5,1125.5C 1399.67,1164.17 1399.5,1202.83 1399,1241.5C 1394.82,1248.02 1390.48,1248.02 1386,1241.5C 1385.5,1202.83 1385.33,1164.17 1385.5,1125.5C 1308.17,1125.5 1230.83,1125.5 1153.5,1125.5C 1150.85,1123.52 1148.52,1121.19 1146.5,1118.5C 1148.52,1115.81 1150.85,1113.48 1153.5,1111.5C 1230.83,1111.5 1308.17,1111.5 1385.5,1111.5C 1385.5,1044.83 1385.5,978.167 1385.5,911.5C 1363.16,911.667 1340.83,911.5 1318.5,911C 1314.5,907 1314.5,903 1318.5,899C 1340.83,898.5 1363.16,898.333 1385.5,898.5C 1385.5,829.167 1385.5,759.833 1385.5,690.5C 1376.16,690.666 1366.83,690.5 1357.5,690C 1352.57,686.088 1352.24,681.755 1356.5,677C 1366.16,676.5 1375.83,676.334 1385.5,676.5C 1385.5,613.5 1385.5,550.5 1385.5,487.5C 1302.5,487.333 1219.5,487.5 1136.5,488C 1137.33,550.763 1137.83,613.596 1138,676.5C 1142.22,678.563 1143.55,681.896 1142,686.5C 1141.63,687.91 1140.8,688.91 1139.5,689.5C 1138.5,759.163 1138.17,828.83 1138.5,898.5C 1158.84,898.333 1179.17,898.5 1199.5,899C 1203.49,902.955 1203.49,906.955 1199.5,911C 1179.17,911.5 1158.84,911.667 1138.5,911.5C 1138.5,972.5 1138.5,1033.5 1138.5,1094.5C 1136.19,1097.48 1133.52,1100.15 1130.5,1102.5C 1128.15,1100.81 1126.15,1098.81 1124.5,1096.5C 1124.67,1034.83 1124.5,973.166 1124,911.5C 1119.96,909.323 1118.63,905.99 1120,901.5C 1121.02,900.313 1122.19,899.313 1123.5,898.5C 1124.5,829.17 1124.83,759.837 1124.5,690.5C 1104.16,690.667 1083.83,690.5 1063.5,690C 1059.3,686.975 1058.47,683.141 1061,678.5C 1061.75,677.874 1062.58,677.374 1063.5,677C 1083.5,676.5 1103.5,676.333 1123.5,676.5C 1124.5,613.669 1124.83,550.669 1124.5,487.5C 1029.33,487.167 934.332,487.501 839.5,488.5C 839.5,551.167 839.5,613.833 839.5,676.5C 848.189,677.041 850.522,681.208 846.5,689C 844.26,689.977 841.927,690.477 839.5,690.5C 839.5,759.5 839.5,828.5 839.5,897.5C 860.836,897.333 882.169,897.5 903.5,898C 910.521,901.429 911.187,905.762 905.5,911C 883.503,911.5 861.503,911.667 839.5,911.5C 839.5,978.167 839.5,1044.83 839.5,1111.5C 848.166,1111.99 850.5,1116.16 846.5,1124C 844.323,1125.2 841.989,1125.7 839.5,1125.5C 839.667,1163.83 839.5,1202.17 839,1240.5C 835.529,1247.33 831.195,1248 826,1242.5C 825.5,1203.5 825.333,1164.5 825.5,1125.5C 806.83,1125.67 788.164,1125.5 769.5,1125C 765.591,1122.43 764.591,1118.93 766.5,1114.5C 767.5,1113.67 768.5,1112.83 769.5,1112C 787.83,1111.5 806.164,1111.33 824.5,1111.5C 825.499,1045 825.832,978.335 825.5,911.5C 741.833,911.5 658.167,911.5 574.5,911.5C 569.817,909.79 568.317,906.457 570,901.5C 571.039,900.29 572.206,899.29 573.5,898.5C 657.5,898.5 741.5,898.5 825.5,898.5C 825.833,828.998 825.499,759.665 824.5,690.5C 806.164,690.667 787.83,690.5 769.5,690C 765.591,687.434 764.591,683.934 766.5,679.5C 767.5,678.667 768.5,677.833 769.5,677C 787.83,676.5 806.164,676.333 824.5,676.5C 825.499,613.669 825.832,550.669 825.5,487.5C 742.5,487.5 659.5,487.5 576.5,487.5C 570.633,486.797 568.467,483.464 570,477.5C 570.833,476 572,474.833 573.5,474C 1023.5,473.667 1473.5,473.333 1923.5,473C 1918.7,470.193 1914.53,466.693 1911,462.5C 1910.34,454.49 1913.84,451.657 1921.5,454C 1930.55,461.385 1939.88,468.385 1949.5,475C 1953.6,479.294 1953.27,483.294 1948.5,487C 1938.83,494 1929.17,501 1919.5,508C 1913.99,509.249 1910.99,507.082 1910.5,501.5C 1910.44,499.519 1911.1,497.852 1912.5,496.5C 1915.39,493.905 1918.39,491.572 1921.5,489.5 Z"/></g>
<g><path style="opacity:1" fill="#bababa" d="M 576.5,487.5 C 659.5,487.5 742.5,487.5 825.5,487.5C 825.832,550.669 825.499,613.669 824.5,676.5C 824.5,613.833 824.5,551.167 824.5,488.5C 741.665,488.833 658.998,488.499 576.5,487.5 Z"/></g>
<g><path style="opacity:1" fill="#a4a4a4" d="M 839.5,488.5 C 934.332,487.501 1029.33,487.167 1124.5,487.5C 1124.83,550.669 1124.5,613.669 1123.5,676.5C 1123.5,613.833 1123.5,551.167 1123.5,488.5C 1028.83,488.5 934.167,488.5 839.5,488.5 Z"/></g>
<g><path style="opacity:1" fill="#fefefe" d="M 1153.5,1111.5 C 1158.46,1106.04 1163.63,1100.7 1169,1095.5C 1173.38,1088.1 1171.88,1082.27 1164.5,1078C 1161.83,1077.33 1159.17,1077.33 1156.5,1078C 1150.33,1083.34 1144.33,1088.84 1138.5,1094.5C 1138.5,1033.5 1138.5,972.5 1138.5,911.5C 1158.84,911.667 1179.17,911.5 1199.5,911C 1203.49,906.955 1203.49,902.955 1199.5,899C 1179.17,898.5 1158.84,898.333 1138.5,898.5C 1138.17,828.83 1138.5,759.163 1139.5,689.5C 1140.8,688.91 1141.63,687.91 1142,686.5C 1143.55,681.896 1142.22,678.563 1138,676.5C 1137.83,613.596 1137.33,550.763 1136.5,488C 1219.5,487.5 1302.5,487.333 1385.5,487.5C 1385.5,550.5 1385.5,613.5 1385.5,676.5C 1375.83,676.334 1366.16,676.5 1356.5,677C 1352.24,681.755 1352.57,686.088 1357.5,690C 1366.83,690.5 1376.16,690.666 1385.5,690.5C 1385.5,759.833 1385.5,829.167 1385.5,898.5C 1363.16,898.333 1340.83,898.5 1318.5,899C 1314.5,903 1314.5,907 1318.5,911C 1340.83,911.5 1363.16,911.667 1385.5,911.5C 1385.5,978.167 1385.5,1044.83 1385.5,1111.5C 1308.17,1111.5 1230.83,1111.5 1153.5,1111.5 Z"/></g>
<g><path style="opacity:1" fill="#d3d3d3" d="M 1663.5,488.5 C 1575.83,488.5 1488.17,488.5 1400.5,488.5C 1400.5,550.833 1400.5,613.167 1400.5,675.5C 1410.68,675.173 1420.68,675.506 1430.5,676.5C 1420.17,676.5 1409.83,676.5 1399.5,676.5C 1399.5,613.5 1399.5,550.5 1399.5,487.5C 1487.67,487.167 1575.67,487.501 1663.5,488.5 Z"/></g>
<g><path style="opacity:1" fill="#fefefe" d="M 1663.5,488.5 C 1663.5,551.167 1663.5,613.833 1663.5,676.5C 1659.15,676.334 1654.82,676.501 1650.5,677C 1646.3,681.632 1646.64,685.965 1651.5,690C 1655.49,690.499 1659.49,690.666 1663.5,690.5C 1663.5,759.5 1663.5,828.5 1663.5,897.5C 1575.5,897.5 1487.5,897.5 1399.5,897.5C 1399.5,828.5 1399.5,759.5 1399.5,690.5C 1410.51,690.667 1421.51,690.5 1432.5,690C 1436.21,687.442 1437.38,683.942 1436,679.5C 1434.74,677.393 1432.9,676.393 1430.5,676.5C 1420.68,675.506 1410.68,675.173 1400.5,675.5C 1400.5,613.167 1400.5,550.833 1400.5,488.5C 1488.17,488.5 1575.83,488.5 1663.5,488.5 Z"/></g>
<g><path style="opacity:1" fill="#b9b9b9" d="M 1921.5,489.5 C 1840.67,488.501 1759.67,488.167 1678.5,488.5C 1678.5,551.167 1678.5,613.833 1678.5,676.5C 1686.5,676.5 1694.5,676.5 1702.5,676.5C 1694.35,677.493 1686.02,677.826 1677.5,677.5C 1677.5,614.167 1677.5,550.833 1677.5,487.5C 1759.5,487.333 1841.5,487.5 1923.5,488C 1922.96,488.717 1922.29,489.217 1921.5,489.5 Z"/></g>
<g><path style="opacity:1" fill="#0e0e0e" d="M 197.5,524.5 C 200.93,523.755 202.597,525.089 202.5,528.5C 198.289,539.601 196.289,551.101 196.5,563C 197.528,580.363 198.861,597.696 200.5,615C 201.757,638.363 194.757,658.697 179.5,676C 191.59,688.688 198.423,703.855 200,721.5C 200.667,728.833 200.667,736.167 200,743.5C 198.644,758.489 197.477,773.489 196.5,788.5C 196.447,800.518 198.447,812.184 202.5,823.5C 202.28,827.353 200.447,828.353 197,826.5C 193.28,817.188 190.947,807.521 190,797.5C 190.435,775.476 191.602,753.476 193.5,731.5C 193.943,717.606 190.776,704.606 184,692.5C 179.125,686.963 174.291,681.463 169.5,676C 180.036,667.117 187.203,655.95 191,642.5C 194.122,623.519 194.122,604.519 191,585.5C 190.333,572.833 190.333,560.167 191,547.5C 191.856,539.436 194.023,531.77 197.5,524.5 Z"/></g>
<g><path style="opacity:1" fill="#010101" d="M 506.5,535.5 C 513.167,535.5 519.833,535.5 526.5,535.5C 526.5,562.167 526.5,588.833 526.5,615.5C 519.5,615.5 512.5,615.5 505.5,615.5C 505.667,596.497 505.5,577.497 505,558.5C 504.283,559.044 503.783,559.711 503.5,560.5C 499.774,564.393 495.607,567.727 491,570.5C 487.147,566.625 483.647,562.458 480.5,558C 488.707,549.959 497.373,542.459 506.5,535.5 Z"/></g>
<g><path style="opacity:1" fill="#8a8a8a" d="M 506.5,535.5 C 513.313,534.509 520.313,534.175 527.5,534.5C 527.831,561.672 527.498,588.672 526.5,615.5C 526.5,588.833 526.5,562.167 526.5,535.5C 519.833,535.5 513.167,535.5 506.5,535.5 Z"/></g>
<g><path style="opacity:1" fill="#8c8c8c" d="M 394.5,553.5 C 386.316,553.174 378.316,553.508 370.5,554.5C 369.957,554.44 369.624,554.107 369.5,553.5C 377.991,552.179 386.324,552.179 394.5,553.5 Z"/></g>
<g><path style="opacity:1" fill="#878787" d="M 413.5,553.5 C 421.343,552.18 429.343,552.18 437.5,553.5C 437.376,554.107 437.043,554.44 436.5,554.5C 429.018,553.508 421.352,553.175 413.5,553.5 Z"/></g>
<g><path style="opacity:1" fill="#030303" d="M 394.5,553.5 C 396.981,559.13 399.981,564.463 403.5,569.5C 406.844,564.139 410.178,558.805 413.5,553.5C 421.352,553.175 429.018,553.508 436.5,554.5C 430.527,564.149 424.527,573.816 418.5,583.5C 425.042,594.085 431.708,604.585 438.5,615C 430.147,615.832 421.813,615.665 413.5,614.5C 410.404,608.633 407.071,602.967 403.5,597.5C 399.915,603.002 396.581,608.669 393.5,614.5C 385.187,615.665 376.853,615.832 368.5,615C 375.759,604.901 382.426,594.401 388.5,583.5C 382.473,573.816 376.473,564.149 370.5,554.5C 378.316,553.508 386.316,553.174 394.5,553.5 Z"/></g>
<g><path style="opacity:1" fill="#5c5c5c" d="M 505.5,615.5 C 504.833,597.167 504.167,578.833 503.5,560.5C 503.783,559.711 504.283,559.044 505,558.5C 505.5,577.497 505.667,596.497 505.5,615.5 Z"/></g>
<g><path style="opacity:1" fill="#040404" d="M 441.5,576.5 C 451.833,576.5 462.167,576.5 472.5,576.5C 472.5,582.167 472.5,587.833 472.5,593.5C 462.167,593.5 451.833,593.5 441.5,593.5C 441.5,587.833 441.5,582.167 441.5,576.5 Z"/></g>
<g><path style="opacity:1" fill="#7fb1f2" d="M 92.5,639.5 C 83.1667,639.5 73.8333,639.5 64.5,639.5C 64.5,666.167 64.5,692.833 64.5,719.5C 63.5021,692.672 63.1688,665.672 63.5,638.5C 73.3478,638.173 83.0144,638.506 92.5,639.5 Z"/></g>
<g><path style="opacity:1" fill="#2177e9" d="M 64.5,719.5 C 64.5,692.833 64.5,666.167 64.5,639.5C 73.8333,639.5 83.1667,639.5 92.5,639.5C 102.226,657.28 111.726,675.28 121,693.5C 121.5,675.17 121.667,656.836 121.5,638.5C 127.833,638.5 134.167,638.5 140.5,638.5C 140.5,665.5 140.5,692.5 140.5,719.5C 130.81,719.832 121.144,719.498 111.5,718.5C 102,700.167 92.5,681.833 83,663.5C 83.4336,682.131 83.6003,700.798 83.5,719.5C 77.1667,719.5 70.8333,719.5 64.5,719.5 Z"/></g>
<g><path style="opacity:1" fill="#010101" d="M 573.5,676.5 C 598.502,676.333 623.502,676.5 648.5,677C 652.212,679.513 653.378,683.013 652,687.5C 651.097,688.701 649.931,689.535 648.5,690C 623.5,690.667 598.5,690.667 573.5,690C 569.591,687.434 568.591,683.934 570.5,679.5C 571.77,678.712 572.77,677.712 573.5,676.5 Z"/></g>
<g><path style="opacity:1" fill="#010101" d="M 671.5,676.5 C 696.502,676.333 721.502,676.5 746.5,677C 750.701,680.025 751.535,683.859 749,688.5C 748.25,689.126 747.416,689.626 746.5,690C 721.5,690.667 696.5,690.667 671.5,690C 667.591,687.434 666.591,683.934 668.5,679.5C 669.77,678.712 670.77,677.712 671.5,676.5 Z"/></g>
<g><path style="opacity:1" fill="#010101" d="M 867.5,676.5 C 892.169,676.333 916.836,676.5 941.5,677C 944.95,677.712 946.616,679.878 946.5,683.5C 946.616,687.122 944.95,689.288 941.5,690C 916.833,690.667 892.167,690.667 867.5,690C 863.304,687.019 862.471,683.186 865,678.5C 865.995,677.934 866.828,677.267 867.5,676.5 Z"/></g>
<g><path style="opacity:1" fill="#010101" d="M 965.5,676.5 C 990.502,676.333 1015.5,676.5 1040.5,677C 1044.7,679.981 1045.53,683.814 1043,688.5C 1042.25,689.126 1041.42,689.626 1040.5,690C 1015.5,690.667 990.5,690.667 965.5,690C 960.234,685.455 960.234,680.955 965.5,676.5 Z"/></g>
<g><path style="opacity:1" fill="#010101" d="M 1161.5,676.5 C 1186.5,676.333 1211.5,676.5 1236.5,677C 1240.56,679.467 1241.56,682.967 1239.5,687.5C 1238.33,688.584 1237,689.417 1235.5,690C 1210.83,690.667 1186.17,690.667 1161.5,690C 1156.23,685.455 1156.23,680.955 1161.5,676.5 Z"/></g>
<g><path style="opacity:1" fill="#050505" d="M 1259.5,676.5 C 1284.5,676.333 1309.5,676.5 1334.5,677C 1338.56,679.467 1339.56,682.967 1337.5,687.5C 1336.5,688.333 1335.5,689.167 1334.5,690C 1309.5,690.667 1284.5,690.667 1259.5,690C 1254.23,685.455 1254.23,680.955 1259.5,676.5 Z"/></g>
<g><path style="opacity:1" fill="#070707" d="M 1454.5,676.5 C 1479.84,676.333 1505.17,676.5 1530.5,677C 1534.56,679.467 1535.56,682.967 1533.5,687.5C 1532.33,688.584 1531,689.417 1529.5,690C 1504.83,690.667 1480.17,690.667 1455.5,690C 1450.52,685.92 1450.19,681.42 1454.5,676.5 Z"/></g>
<g><path style="opacity:1" fill="#070707" d="M 1552.5,676.5 C 1578.17,676.333 1603.84,676.5 1629.5,677C 1633.69,681.678 1633.36,686.011 1628.5,690C 1603.5,690.667 1578.5,690.667 1553.5,690C 1548.52,685.92 1548.19,681.42 1552.5,676.5 Z"/></g>
<g><path style="opacity:1" fill="#afafaf" d="M 1801.5,690.5 C 1760.67,691.499 1719.67,691.832 1678.5,691.5C 1678.5,760.167 1678.5,828.833 1678.5,897.5C 1750,897.167 1821.34,897.501 1892.5,898.5C 1820.83,898.5 1749.17,898.5 1677.5,898.5C 1677.5,829.167 1677.5,759.833 1677.5,690.5C 1718.83,690.5 1760.17,690.5 1801.5,690.5 Z"/></g>
<g><path style="opacity:1" fill="#010101" d="M 506.5,753.5 C 513.167,753.5 519.833,753.5 526.5,753.5C 526.5,780.167 526.5,806.833 526.5,833.5C 519.5,833.5 512.5,833.5 505.5,833.5C 505.667,814.497 505.5,795.497 505,776.5C 504.283,777.044 503.783,777.711 503.5,778.5C 499.774,782.393 495.607,785.727 491,788.5C 487.147,784.625 483.647,780.458 480.5,776C 488.707,767.959 497.373,760.459 506.5,753.5 Z"/></g>
<g><path style="opacity:1" fill="#8a8a8a" d="M 506.5,753.5 C 513.313,752.509 520.313,752.175 527.5,752.5C 527.831,779.672 527.498,806.672 526.5,833.5C 526.5,806.833 526.5,780.167 526.5,753.5C 519.833,753.5 513.167,753.5 506.5,753.5 Z"/></g>
<g><path style="opacity:1" fill="#020202" d="M 363.5,786.5 C 363.5,791.167 363.5,795.833 363.5,800.5C 356.646,800.176 349.979,800.509 343.5,801.5C 343.5,807.833 343.5,814.167 343.5,820.5C 338.5,820.5 333.5,820.5 328.5,820.5C 328.5,814.167 328.5,807.833 328.5,801.5C 322.021,800.509 315.354,800.176 308.5,800.5C 308.5,795.833 308.5,791.167 308.5,786.5C 315.167,786.5 321.833,786.5 328.5,786.5C 328.5,779.833 328.5,773.167 328.5,766.5C 333.5,766.5 338.5,766.5 343.5,766.5C 343.5,773.167 343.5,779.833 343.5,786.5C 350.167,786.5 356.833,786.5 363.5,786.5 Z"/></g>
<g><path style="opacity:1" fill="#8c8c8c" d="M 259.5,771.5 C 251.316,771.174 243.316,771.508 235.5,772.5C 234.957,772.44 234.624,772.107 234.5,771.5C 242.991,770.179 251.324,770.179 259.5,771.5 Z"/></g>
<g><path style="opacity:1" fill="#878787" d="M 278.5,771.5 C 286.343,770.18 294.343,770.18 302.5,771.5C 302.376,772.107 302.043,772.44 301.5,772.5C 294.018,771.508 286.352,771.175 278.5,771.5 Z"/></g>
<g><path style="opacity:1" fill="#8c8c8c" d="M 394.5,771.5 C 386.316,771.174 378.316,771.508 370.5,772.5C 369.957,772.44 369.624,772.107 369.5,771.5C 377.991,770.179 386.324,770.179 394.5,771.5 Z"/></g>
<g><path style="opacity:1" fill="#878787" d="M 413.5,771.5 C 421.343,770.18 429.343,770.18 437.5,771.5C 437.376,772.107 437.043,772.44 436.5,772.5C 429.018,771.508 421.352,771.175 413.5,771.5 Z"/></g>
<g><path style="opacity:1" fill="#030303" d="M 259.5,771.5 C 261.981,777.13 264.981,782.463 268.5,787.5C 271.844,782.139 275.178,776.805 278.5,771.5C 286.352,771.175 294.018,771.508 301.5,772.5C 295.527,782.149 289.527,791.816 283.5,801.5C 290.042,812.085 296.708,822.585 303.5,833C 295.147,833.832 286.813,833.665 278.5,832.5C 275.404,826.633 272.071,820.967 268.5,815.5C 264.915,821.002 261.581,826.669 258.5,832.5C 250.187,833.665 241.853,833.832 233.5,833C 240.759,822.901 247.426,812.401 253.5,801.5C 247.473,791.816 241.473,782.149 235.5,772.5C 243.316,771.508 251.316,771.174 259.5,771.5 Z"/></g>
<g><path style="opacity:1" fill="#030303" d="M 394.5,771.5 C 396.981,777.13 399.981,782.463 403.5,787.5C 406.844,782.139 410.178,776.805 413.5,771.5C 421.352,771.175 429.018,771.508 436.5,772.5C 430.527,782.149 424.527,791.816 418.5,801.5C 425.042,812.085 431.708,822.585 438.5,833C 430.147,833.832 421.813,833.665 413.5,832.5C 410.404,826.633 407.071,820.967 403.5,815.5C 399.915,821.002 396.581,826.669 393.5,832.5C 385.187,833.665 376.853,833.832 368.5,833C 375.759,822.901 382.426,812.401 388.5,801.5C 382.473,791.816 376.473,782.149 370.5,772.5C 378.316,771.508 386.316,771.174 394.5,771.5 Z"/></g>
<g><path style="opacity:1" fill="#5c5c5c" d="M 505.5,833.5 C 504.833,815.167 504.167,796.833 503.5,778.5C 503.783,777.711 504.283,777.044 505,776.5C 505.5,795.497 505.667,814.497 505.5,833.5 Z"/></g>
<g><path style="opacity:1" fill="#020202" d="M 441.5,794.5 C 451.833,794.5 462.167,794.5 472.5,794.5C 472.5,800.167 472.5,805.833 472.5,811.5C 462.167,811.5 451.833,811.5 441.5,811.5C 441.5,805.833 441.5,800.167 441.5,794.5 Z"/></g>
<g><path style="opacity:1" fill="#737373" d="M 308.5,786.5 C 308.5,791.167 308.5,795.833 308.5,800.5C 315.354,800.176 322.021,800.509 328.5,801.5C 321.5,801.5 314.5,801.5 307.5,801.5C 307.179,796.305 307.513,791.305 308.5,786.5 Z"/></g>
<g><path style="opacity:1" fill="#818181" d="M 363.5,786.5 C 364.487,791.305 364.821,796.305 364.5,801.5C 357.5,801.5 350.5,801.5 343.5,801.5C 349.979,800.509 356.646,800.176 363.5,800.5C 363.5,795.833 363.5,791.167 363.5,786.5 Z"/></g>
<g><path style="opacity:1" fill="#8e8e8e" d="M 824.5,690.5 C 825.499,759.665 825.833,828.998 825.5,898.5C 741.5,898.5 657.5,898.5 573.5,898.5C 656.998,897.501 740.665,897.167 824.5,897.5C 824.5,828.5 824.5,759.5 824.5,690.5 Z"/></g>
<g><path style="opacity:1" fill="#070707" d="M 927.5,897.5 C 952.502,897.333 977.502,897.5 1002.5,898C 1008.72,901.878 1009.05,906.211 1003.5,911C 978.167,911.667 952.833,911.667 927.5,911C 923.876,908.839 922.709,905.672 924,901.5C 925.376,900.295 926.542,898.962 927.5,897.5 Z"/></g>
<g><path style="opacity:1" fill="#070707" d="M 1027.5,897.5 C 1051.5,897.333 1075.5,897.5 1099.5,898C 1106.59,901.345 1107.25,905.678 1101.5,911C 1076.17,911.667 1050.83,911.667 1025.5,911C 1021.88,908.839 1020.71,905.672 1022,901.5C 1023.5,899.531 1025.33,898.198 1027.5,897.5 Z"/></g>
<g><path style="opacity:1" fill="#010101" d="M 1220.5,898.5 C 1246.17,898.333 1271.84,898.5 1297.5,899C 1302.83,903 1302.83,907 1297.5,911C 1271.83,911.667 1246.17,911.667 1220.5,911C 1216.54,906.761 1216.54,902.595 1220.5,898.5 Z"/></g>
<g><path style="opacity:1" fill="#fefefe" d="M 1399.5,911.5 C 1487.5,911.5 1575.5,911.5 1663.5,911.5C 1663.5,978.167 1663.5,1044.83 1663.5,1111.5C 1575.5,1111.5 1487.5,1111.5 1399.5,1111.5C 1399.5,1044.83 1399.5,978.167 1399.5,911.5 Z"/></g>
<g><path style="opacity:1" fill="#9e9e9e" d="M 574.5,911.5 C 658.167,911.5 741.833,911.5 825.5,911.5C 825.832,978.335 825.499,1045 824.5,1111.5C 824.5,1045.17 824.5,978.833 824.5,912.5C 740.998,912.833 657.665,912.499 574.5,911.5 Z"/></g>
<g><path style="opacity:1" fill="#b2b2b2" d="M 1765.5,912.5 C 1736.5,912.5 1707.5,912.5 1678.5,912.5C 1678.5,978.833 1678.5,1045.17 1678.5,1111.5C 1677.5,1045 1677.17,978.335 1677.5,911.5C 1707,911.169 1736.34,911.502 1765.5,912.5 Z"/></g>
<g><path style="opacity:1" fill="#adccf6" d="M 101.5,970.5 C 89.8333,970.5 78.1667,970.5 66.5,970.5C 66.5,997.167 66.5,1023.83 66.5,1050.5C 65.5021,1023.67 65.1688,996.672 65.5,969.5C 77.6783,969.172 89.6783,969.505 101.5,970.5 Z"/></g>
<g><path style="opacity:1" fill="#2176e9" d="M 101.5,970.5 C 123.638,973.421 134.638,986.087 134.5,1008.5C 135.384,1029.28 126.051,1042.78 106.5,1049C 93.2269,1050.42 79.8935,1050.92 66.5,1050.5C 66.5,1023.83 66.5,997.167 66.5,970.5C 78.1667,970.5 89.8333,970.5 101.5,970.5 Z"/></g>
<g><path style="opacity:1" fill="#010101" d="M 506.5,970.5 C 513.167,970.5 519.833,970.5 526.5,970.5C 526.5,997.167 526.5,1023.83 526.5,1050.5C 519.5,1050.5 512.5,1050.5 505.5,1050.5C 505.667,1031.5 505.5,1012.5 505,993.5C 504.283,994.044 503.783,994.711 503.5,995.5C 499.774,999.393 495.607,1002.73 491,1005.5C 487.147,1001.63 483.647,997.458 480.5,993C 488.707,984.959 497.373,977.459 506.5,970.5 Z"/></g>
<g><path style="opacity:1" fill="#8a8a8a" d="M 506.5,970.5 C 513.313,969.509 520.313,969.175 527.5,969.5C 527.831,996.672 527.498,1023.67 526.5,1050.5C 526.5,1023.83 526.5,997.167 526.5,970.5C 519.833,970.5 513.167,970.5 506.5,970.5 Z"/></g>
<g><path style="opacity:1" fill="#050505" d="M 259.5,1030.5 C 260.289,1030.22 260.956,1029.72 261.5,1029C 234.502,1028.5 207.502,1028.33 180.5,1028.5C 175.745,1025.46 174.245,1021.13 176,1015.5C 177.214,1013.95 178.714,1012.78 180.5,1012C 207.5,1011.67 234.5,1011.33 261.5,1011C 255.667,1005.17 249.833,999.333 244,993.5C 241.833,983.667 245.667,979.833 255.5,982C 267,993.5 278.5,1005 290,1016.5C 290.652,1019.59 290.318,1022.59 289,1025.5C 277.771,1037.4 265.937,1048.57 253.5,1059C 244.996,1059.22 241.83,1055.05 244,1046.5C 249.37,1041.3 254.536,1035.96 259.5,1030.5 Z"/></g>
<g><path style="opacity:1" fill="#020202" d="M 470.5,1003.5 C 470.5,1008.17 470.5,1012.83 470.5,1017.5C 463.646,1017.18 456.979,1017.51 450.5,1018.5C 450.5,1024.83 450.5,1031.17 450.5,1037.5C 445.5,1037.5 440.5,1037.5 435.5,1037.5C 435.5,1031.17 435.5,1024.83 435.5,1018.5C 429.021,1017.51 422.354,1017.18 415.5,1017.5C 415.5,1012.83 415.5,1008.17 415.5,1003.5C 422.167,1003.5 428.833,1003.5 435.5,1003.5C 435.5,996.833 435.5,990.167 435.5,983.5C 440.5,983.5 445.5,983.5 450.5,983.5C 450.5,990.167 450.5,996.833 450.5,1003.5C 457.167,1003.5 463.833,1003.5 470.5,1003.5 Z"/></g>
<g><path style="opacity:1" fill="#f8fafe" d="M 87.5,987.5 C 104.177,985.514 112.177,992.847 111.5,1009.5C 112.648,1026.68 104.648,1034.35 87.5,1032.5C 87.5,1017.5 87.5,1002.5 87.5,987.5 Z"/></g>
<g><path style="opacity:1" fill="#8c8c8c" d="M 366.5,988.5 C 358.316,988.174 350.316,988.508 342.5,989.5C 341.957,989.44 341.624,989.107 341.5,988.5C 349.991,987.179 358.324,987.179 366.5,988.5 Z"/></g>
<g><path style="opacity:1" fill="#878787" d="M 385.5,988.5 C 393.343,987.18 401.343,987.18 409.5,988.5C 409.376,989.107 409.043,989.44 408.5,989.5C 401.018,988.508 393.352,988.175 385.5,988.5 Z"/></g>
<g><path style="opacity:1" fill="#030303" d="M 366.5,988.5 C 368.981,994.13 371.981,999.463 375.5,1004.5C 378.844,999.139 382.178,993.805 385.5,988.5C 393.352,988.175 401.018,988.508 408.5,989.5C 402.527,999.149 396.527,1008.82 390.5,1018.5C 397.042,1029.08 403.708,1039.58 410.5,1050C 402.147,1050.83 393.813,1050.67 385.5,1049.5C 382.404,1043.63 379.071,1037.97 375.5,1032.5C 371.915,1038 368.581,1043.67 365.5,1049.5C 357.187,1050.67 348.853,1050.83 340.5,1050C 347.759,1039.9 354.426,1029.4 360.5,1018.5C 354.473,1008.82 348.473,999.149 342.5,989.5C 350.316,988.508 358.316,988.174 366.5,988.5 Z"/></g>
<g><path style="opacity:1" fill="#5c5c5c" d="M 505.5,1050.5 C 504.833,1032.17 504.167,1013.83 503.5,995.5C 503.783,994.711 504.283,994.044 505,993.5C 505.5,1012.5 505.667,1031.5 505.5,1050.5 Z"/></g>
<g><path style="opacity:1" fill="#737373" d="M 415.5,1003.5 C 415.5,1008.17 415.5,1012.83 415.5,1017.5C 422.354,1017.18 429.021,1017.51 435.5,1018.5C 428.5,1018.5 421.5,1018.5 414.5,1018.5C 414.179,1013.31 414.513,1008.31 415.5,1003.5 Z"/></g>
<g><path style="opacity:1" fill="#818181" d="M 470.5,1003.5 C 471.487,1008.31 471.821,1013.31 471.5,1018.5C 464.5,1018.5 457.5,1018.5 450.5,1018.5C 456.979,1017.51 463.646,1017.18 470.5,1017.5C 470.5,1012.83 470.5,1008.17 470.5,1003.5 Z"/></g>
<g><path style="opacity:1" fill="#c8c8c8" d="M 180.5,1028.5 C 207.502,1028.33 234.502,1028.5 261.5,1029C 260.956,1029.72 260.289,1030.22 259.5,1030.5C 233.167,1029.83 206.833,1029.17 180.5,1028.5 Z"/></g>
<g><path style="opacity:1" fill="#2f4dc9" d="M 1124.5,1096.5 C 1126.15,1098.81 1128.15,1100.81 1130.5,1102.5C 1133.52,1100.15 1136.19,1097.48 1138.5,1094.5C 1144.33,1088.84 1150.33,1083.34 1156.5,1078C 1159.17,1077.33 1161.83,1077.33 1164.5,1078C 1171.88,1082.27 1173.38,1088.1 1169,1095.5C 1163.63,1100.7 1158.46,1106.04 1153.5,1111.5C 1150.85,1113.48 1148.52,1115.81 1146.5,1118.5C 1148.52,1121.19 1150.85,1123.52 1153.5,1125.5C 1158.46,1130.96 1163.63,1136.3 1169,1141.5C 1173.38,1148.9 1171.88,1154.73 1164.5,1159C 1161.83,1159.67 1159.17,1159.67 1156.5,1159C 1150.66,1154 1145,1148.83 1139.5,1143.5C 1136.85,1140.19 1133.85,1137.19 1130.5,1134.5C 1128.48,1135.85 1126.81,1137.52 1125.5,1139.5C 1119.37,1145.13 1113.37,1150.96 1107.5,1157C 1100.43,1161.23 1094.6,1160.06 1090,1153.5C 1089.33,1150.5 1089.33,1147.5 1090,1144.5C 1095.67,1138 1101.5,1131.66 1107.5,1125.5C 1110.15,1123.52 1112.48,1121.19 1114.5,1118.5C 1112.48,1115.81 1110.15,1113.48 1107.5,1111.5C 1101.5,1105.34 1095.67,1099 1090,1092.5C 1088.83,1078.67 1094.67,1074.51 1107.5,1080C 1113.04,1085.7 1118.7,1091.2 1124.5,1096.5 Z"/></g>
<g><path style="opacity:1" fill="#010101" d="M 573.5,1111.5 C 598.502,1111.33 623.502,1111.5 648.5,1112C 652.701,1115.03 653.535,1118.86 651,1123.5C 650.25,1124.13 649.416,1124.63 648.5,1125C 623.5,1125.67 598.5,1125.67 573.5,1125C 569.591,1122.43 568.591,1118.93 570.5,1114.5C 571.77,1113.71 572.77,1112.71 573.5,1111.5 Z"/></g>
<g><path style="opacity:1" fill="#010101" d="M 671.5,1111.5 C 696.502,1111.33 721.502,1111.5 746.5,1112C 750.701,1115.03 751.535,1118.86 749,1123.5C 748.25,1124.13 747.416,1124.63 746.5,1125C 721.5,1125.67 696.5,1125.67 671.5,1125C 667.591,1122.43 666.591,1118.93 668.5,1114.5C 669.77,1113.71 670.77,1112.71 671.5,1111.5 Z"/></g>
<g><path style="opacity:1" fill="#010101" d="M 867.5,1111.5 C 892.502,1111.33 917.502,1111.5 942.5,1112C 946.701,1115.03 947.535,1118.86 945,1123.5C 944.25,1124.13 943.416,1124.63 942.5,1125C 917.5,1125.67 892.5,1125.67 867.5,1125C 863.591,1122.43 862.591,1118.93 864.5,1114.5C 865.77,1113.71 866.77,1112.71 867.5,1111.5 Z"/></g>
<g><path style="opacity:1" fill="#010101" d="M 965.5,1111.5 C 990.502,1111.33 1015.5,1111.5 1040.5,1112C 1044.7,1115.03 1045.53,1118.86 1043,1123.5C 1042.25,1124.13 1041.42,1124.63 1040.5,1125C 1015.5,1125.67 990.5,1125.67 965.5,1125C 961.591,1122.43 960.591,1118.93 962.5,1114.5C 963.77,1113.71 964.77,1112.71 965.5,1111.5 Z"/></g>
<g><path style="opacity:1" fill="#010101" d="M 1107.5,1111.5 C 1110.15,1113.48 1112.48,1115.81 1114.5,1118.5C 1112.48,1121.19 1110.15,1123.52 1107.5,1125.5C 1092.83,1125.67 1078.16,1125.5 1063.5,1125C 1059.59,1122.43 1058.59,1118.93 1060.5,1114.5C 1061.5,1113.67 1062.5,1112.83 1063.5,1112C 1078.16,1111.5 1092.83,1111.33 1107.5,1111.5 Z"/></g>
<g><path style="opacity:1" fill="#090909" d="M 1139.5,1143.5 C 1139.67,1175.84 1139.5,1208.17 1139,1240.5C 1135.04,1247.84 1130.71,1248.17 1126,1241.5C 1125.5,1207.5 1125.33,1173.5 1125.5,1139.5C 1126.81,1137.52 1128.48,1135.85 1130.5,1134.5C 1133.85,1137.19 1136.85,1140.19 1139.5,1143.5 Z"/></g>
<g><path style="opacity:1" fill="#2175e7" d="M 705.5,1193.5 C 705.5,1204.83 705.5,1216.17 705.5,1227.5C 709.833,1227.5 714.167,1227.5 718.5,1227.5C 725.841,1227.33 733.174,1227.5 740.5,1228C 741.416,1228.28 742.082,1228.78 742.5,1229.5C 741.817,1236.23 741.15,1243.07 740.5,1250C 728.838,1250.5 717.171,1250.67 705.5,1250.5C 705.667,1262.17 705.5,1273.84 705,1285.5C 704.5,1286 704,1286.5 703.5,1287C 696.987,1287.17 690.653,1287.67 684.5,1288.5C 683.542,1288.05 682.708,1287.38 682,1286.5C 681.5,1279.17 681.334,1271.84 681.5,1264.5C 681.5,1259.83 681.5,1255.17 681.5,1250.5C 669.988,1250.17 658.654,1250.51 647.5,1251.5C 646.883,1251.39 646.383,1251.06 646,1250.5C 645.187,1242.92 645.353,1235.42 646.5,1228C 658.162,1227.5 669.829,1227.33 681.5,1227.5C 681.333,1215.5 681.5,1203.5 682,1191.5C 689.086,1190.35 696.253,1190.19 703.5,1191C 704.381,1191.71 705.047,1192.54 705.5,1193.5 Z"/></g>
<g><path style="opacity:1" fill="#2076e8" d="M 1267.5,1193.5 C 1266.17,1204.83 1266.17,1216.17 1267.5,1227.5C 1271.83,1227.5 1276.17,1227.5 1280.5,1227.5C 1287.84,1227.33 1295.17,1227.5 1302.5,1228C 1303.06,1228.38 1303.39,1228.88 1303.5,1229.5C 1303.67,1236.17 1303.5,1242.84 1303,1249.5C 1302.33,1250.25 1301.5,1250.59 1300.5,1250.5C 1289.17,1250.5 1277.83,1250.5 1266.5,1250.5C 1266.5,1261.83 1266.5,1273.17 1266.5,1284.5C 1266.59,1285.5 1266.25,1286.33 1265.5,1287C 1258.99,1287.17 1252.65,1287.67 1246.5,1288.5C 1245.54,1288.05 1244.71,1287.38 1244,1286.5C 1243.5,1279.17 1243.33,1271.84 1243.5,1264.5C 1243.5,1259.83 1243.5,1255.17 1243.5,1250.5C 1231.83,1250.5 1220.17,1250.5 1208.5,1250.5C 1207.88,1250.39 1207.38,1250.06 1207,1249.5C 1206.17,1242.48 1206.34,1235.48 1207.5,1228.5C 1219.45,1227.52 1231.45,1227.19 1243.5,1227.5C 1243.33,1215.5 1243.5,1203.5 1244,1191.5C 1251.09,1190.35 1258.25,1190.19 1265.5,1191C 1266.38,1191.71 1267.05,1192.54 1267.5,1193.5 Z"/></g>
<g><path style="opacity:1" fill="#1e75e8" d="M 1813.5,1193.5 C 1812.51,1204.65 1812.17,1215.99 1812.5,1227.5C 1817.17,1227.5 1821.83,1227.5 1826.5,1227.5C 1833.84,1227.33 1841.17,1227.5 1848.5,1228C 1849.06,1228.38 1849.39,1228.88 1849.5,1229.5C 1849.83,1236.2 1849.5,1242.87 1848.5,1249.5C 1836.55,1250.48 1824.55,1250.81 1812.5,1250.5C 1812.67,1262.5 1812.5,1274.5 1812,1286.5C 1805.26,1287.48 1798.42,1287.81 1791.5,1287.5C 1790.88,1287.39 1790.38,1287.06 1790,1286.5C 1789.5,1279.17 1789.33,1271.84 1789.5,1264.5C 1789.5,1259.83 1789.5,1255.17 1789.5,1250.5C 1777.83,1250.5 1766.17,1250.5 1754.5,1250.5C 1753.88,1250.39 1753.38,1250.06 1753,1249.5C 1752.19,1242.25 1752.35,1235.09 1753.5,1228C 1765.5,1227.5 1777.5,1227.33 1789.5,1227.5C 1789.33,1215.5 1789.5,1203.5 1790,1191.5C 1797.09,1190.35 1804.25,1190.19 1811.5,1191C 1812.38,1191.71 1813.05,1192.54 1813.5,1193.5 Z"/></g>
<g><path style="opacity:1" fill="#123692" d="M 1267.5,1193.5 C 1268.17,1193.5 1268.5,1193.83 1268.5,1194.5C 1267.51,1205.32 1267.17,1216.32 1267.5,1227.5C 1266.17,1216.17 1266.17,1204.83 1267.5,1193.5 Z"/></g>
<g><path style="opacity:1" fill="#060a5a" d="M 1268.5,1194.5 C 1272.46,1197.96 1276.3,1201.63 1280,1205.5C 1280.5,1212.83 1280.67,1220.16 1280.5,1227.5C 1276.17,1227.5 1271.83,1227.5 1267.5,1227.5C 1267.17,1216.32 1267.51,1205.32 1268.5,1194.5 Z"/></g>
<g><path style="opacity:1" fill="#060a5a" d="M 705.5,1193.5 C 709.798,1197.3 713.964,1201.3 718,1205.5C 718.5,1212.83 718.666,1220.16 718.5,1227.5C 714.167,1227.5 709.833,1227.5 705.5,1227.5C 705.5,1216.17 705.5,1204.83 705.5,1193.5 Z"/></g>
<g><path style="opacity:1" fill="#0d0f5d" d="M 1813.5,1193.5 C 1818.16,1197.33 1822.33,1201.66 1826,1206.5C 1826.5,1213.49 1826.67,1220.49 1826.5,1227.5C 1821.83,1227.5 1817.17,1227.5 1812.5,1227.5C 1812.17,1215.99 1812.51,1204.65 1813.5,1193.5 Z"/></g>
<g><path style="opacity:1" fill="#2476e7" d="M 1023.5,1228.5 C 1023.13,1236.42 1022.13,1244.26 1020.5,1252C 984.998,1252.17 949.664,1252.67 914.5,1253.5C 913.685,1252.57 912.852,1251.57 912,1250.5C 911.333,1242.83 911.333,1235.17 912,1227.5C 912.5,1227 913,1226.5 913.5,1226C 949.5,1225.33 985.5,1225.33 1021.5,1226C 1022.38,1226.71 1023.05,1227.54 1023.5,1228.5 Z"/></g>
<g><path style="opacity:1" fill="#1f75e7" d="M 1583.5,1228.5 C 1583.58,1234.52 1583.24,1240.52 1582.5,1246.5C 1582.39,1248.64 1581.72,1250.47 1580.5,1252C 1545.17,1252.5 1509.83,1252.67 1474.5,1252.5C 1473.54,1252.05 1472.71,1251.38 1472,1250.5C 1471.33,1242.83 1471.33,1235.17 1472,1227.5C 1472.5,1227 1473,1226.5 1473.5,1226C 1509.5,1225.33 1545.5,1225.33 1581.5,1226C 1582.38,1226.71 1583.05,1227.54 1583.5,1228.5 Z"/></g>
<g><path style="opacity:1" fill="#090c5b" d="M 1583.5,1228.5 C 1588.16,1232.33 1592.33,1236.66 1596,1241.5C 1596.36,1249.76 1595.86,1257.92 1594.5,1266C 1558.5,1266.67 1522.5,1266.67 1486.5,1266C 1481.92,1261.93 1477.92,1257.43 1474.5,1252.5C 1509.83,1252.67 1545.17,1252.5 1580.5,1252C 1581.72,1250.47 1582.39,1248.64 1582.5,1246.5C 1583.24,1240.52 1583.58,1234.52 1583.5,1228.5 Z"/></g>
<g><path style="opacity:1" fill="#070b5b" d="M 742.5,1229.5 C 747.164,1233.33 751.33,1237.66 755,1242.5C 755.831,1249.52 755.664,1256.52 754.5,1263.5C 742.551,1264.48 730.551,1264.81 718.5,1264.5C 718.822,1276.75 718.488,1288.91 717.5,1301C 710.833,1301.67 704.167,1301.67 697.5,1301C 693.298,1296.63 688.964,1292.46 684.5,1288.5C 690.653,1287.67 696.987,1287.17 703.5,1287C 704,1286.5 704.5,1286 705,1285.5C 705.5,1273.84 705.667,1262.17 705.5,1250.5C 717.171,1250.67 728.838,1250.5 740.5,1250C 741.15,1243.07 741.817,1236.23 742.5,1229.5 Z"/></g>
<g><path style="opacity:1" fill="#090c5b" d="M 1023.5,1228.5 C 1027.1,1232.6 1030.94,1236.6 1035,1240.5C 1035.17,1244.67 1035.33,1248.83 1035.5,1253C 1035.46,1257.59 1034.8,1261.92 1033.5,1266C 997.833,1266.67 962.167,1266.67 926.5,1266C 922.269,1261.94 918.269,1257.77 914.5,1253.5C 949.664,1252.67 984.998,1252.17 1020.5,1252C 1022.13,1244.26 1023.13,1236.42 1023.5,1228.5 Z"/></g>
<g><path style="opacity:1" fill="#080b5b" d="M 1303.5,1229.5 C 1308.13,1233.63 1312.63,1237.96 1317,1242.5C 1317.83,1249.52 1317.66,1256.52 1316.5,1263.5C 1304.55,1264.48 1292.55,1264.81 1280.5,1264.5C 1280.82,1276.75 1280.49,1288.91 1279.5,1301C 1272.5,1301.67 1265.5,1301.67 1258.5,1301C 1254.3,1296.96 1250.3,1292.8 1246.5,1288.5C 1252.65,1287.67 1258.99,1287.17 1265.5,1287C 1266.25,1286.33 1266.59,1285.5 1266.5,1284.5C 1267.49,1273.68 1267.83,1262.68 1267.5,1251.5C 1278.68,1251.83 1289.68,1251.49 1300.5,1250.5C 1301.5,1250.59 1302.33,1250.25 1303,1249.5C 1303.5,1242.84 1303.67,1236.17 1303.5,1229.5 Z"/></g>
<g><path style="opacity:1" fill="#080c5b" d="M 1849.5,1229.5 C 1853.8,1233.3 1857.96,1237.3 1862,1241.5C 1862.83,1248.86 1862.66,1256.19 1861.5,1263.5C 1849.88,1264.48 1838.22,1264.81 1826.5,1264.5C 1826.67,1276.17 1826.5,1287.84 1826,1299.5C 1825.5,1300 1825,1300.5 1824.5,1301C 1817.83,1301.67 1811.17,1301.67 1804.5,1301C 1799.96,1296.63 1795.63,1292.13 1791.5,1287.5C 1798.42,1287.81 1805.26,1287.48 1812,1286.5C 1812.5,1274.5 1812.67,1262.5 1812.5,1250.5C 1824.55,1250.81 1836.55,1250.48 1848.5,1249.5C 1849.5,1242.87 1849.83,1236.2 1849.5,1229.5 Z"/></g>
<g><path style="opacity:1" fill="#070b5b" d="M 1208.5,1250.5 C 1220.17,1250.5 1231.83,1250.5 1243.5,1250.5C 1243.5,1255.17 1243.5,1259.83 1243.5,1264.5C 1236.49,1264.67 1229.49,1264.5 1222.5,1264C 1217.33,1260 1212.66,1255.5 1208.5,1250.5 Z"/></g>
<g><path style="opacity:1" fill="#0d2881" d="M 1300.5,1250.5 C 1289.68,1251.49 1278.68,1251.83 1267.5,1251.5C 1267.83,1262.68 1267.49,1273.68 1266.5,1284.5C 1266.5,1273.17 1266.5,1261.83 1266.5,1250.5C 1277.83,1250.5 1289.17,1250.5 1300.5,1250.5 Z"/></g>
<g><path style="opacity:1" fill="#090c5c" d="M 681.5,1264.5 C 674.492,1264.67 667.492,1264.5 660.5,1264C 655.664,1260.33 651.331,1256.16 647.5,1251.5C 658.654,1250.51 669.988,1250.17 681.5,1250.5C 681.5,1255.17 681.5,1259.83 681.5,1264.5 Z"/></g>
<g><path style="opacity:1" fill="#060b5b" d="M 1754.5,1250.5 C 1766.17,1250.5 1777.83,1250.5 1789.5,1250.5C 1789.5,1255.17 1789.5,1259.83 1789.5,1264.5C 1782.16,1264.67 1774.83,1264.5 1767.5,1264C 1762.96,1259.63 1758.63,1255.13 1754.5,1250.5 Z"/></g>
</svg>
