<svg xmlns="http://www.w3.org/2000/svg" xmlns:xlink="http://www.w3.org/1999/xlink" width="2000" zoomAndPan="magnify" viewBox="0 0 1500 1124.99995" height="1500" preserveAspectRatio="xMidYMid meet" version="1.0"><defs><clipPath id="ae96040153"><path d="M 113 234 L 464 234 L 464 897.894531 L 113 897.894531 Z M 113 234 " clip-rule="nonzero"/></clipPath><clipPath id="621a9e4984"><path d="M 714.425781 374.019531 L 1446.425781 374.019531 L 1446.425781 897.519531 L 714.425781 897.519531 Z M 714.425781 374.019531 " clip-rule="nonzero"/></clipPath><clipPath id="4a6ee31bb7"><path d="M 727.925781 374.019531 L 1432.929688 374.019531 C 1436.507812 374.019531 1439.941406 375.441406 1442.472656 377.972656 C 1445.003906 380.503906 1446.425781 383.9375 1446.425781 387.519531 L 1446.425781 884.023438 C 1446.425781 887.601562 1445.003906 891.035156 1442.472656 893.566406 C 1439.941406 896.097656 1436.507812 897.519531 1432.929688 897.519531 L 727.925781 897.519531 C 724.34375 897.519531 720.914062 896.097656 718.382812 893.566406 C 715.847656 891.035156 714.425781 887.601562 714.425781 884.023438 L 714.425781 387.519531 C 714.425781 380.0625 720.472656 374.019531 727.925781 374.019531 " clip-rule="nonzero"/></clipPath><clipPath id="2b834abec9"><path d="M 501 171 L 907 171 L 907 307 L 501 307 Z M 501 171 " clip-rule="nonzero"/></clipPath><clipPath id="60882830f0"><path d="M 614.6875 50.132812 L 933.714844 213.667969 L 814.3125 446.597656 L 495.285156 283.0625 Z M 614.6875 50.132812 " clip-rule="nonzero"/></clipPath><clipPath id="5e9d629f5a"><path d="M 614.6875 50.132812 L 933.714844 213.667969 L 814.3125 446.597656 L 495.285156 283.0625 Z M 614.6875 50.132812 " clip-rule="nonzero"/></clipPath></defs><rect x="-150" width="1800" fill="#ffffff" y="-112.499995" height="1349.99994" fill-opacity="1"/><rect x="-150" width="1800" fill="#ffffff" y="-112.499995" height="1349.99994" fill-opacity="1"/><path fill="#0f0f0f" d="M 121.277344 791.917969 L 130.714844 798.042969 C 126.890625 803.933594 125.332031 809.515625 124.957031 816.507812 L 113.722656 815.875 C 114.234375 806.878906 116.347656 799.5 121.277344 791.917969 Z M 463.183594 809.582031 L 452.085938 811.453125 C 451.011719 804.871094 447.800781 799.117188 443.691406 793.957031 L 452.449219 786.882812 C 457.75 793.445312 461.8125 801.195312 463.183594 809.582031 Z M 444.074219 778.097656 L 436.546875 786.464844 C 428.464844 780.234375 427.746094 779.421875 419.199219 774.132812 L 424.816406 764.375 C 434.242188 770.210938 435.15625 771.21875 444.074219 778.097656 Z M 414.484375 758.941406 L 409.613281 769.089844 L 389.398438 760.894531 L 393.007812 750.234375 Z M 382.007812 746.789062 L 378.929688 757.617188 L 357.507812 752.445312 L 359.683594 741.402344 Z M 348.414062 739.367188 L 346.632812 750.480469 L 324.664062 747.648438 L 325.742188 736.445312 Z M 314.367188 735.511719 L 313.613281 746.742188 L 291.460938 745.890625 L 291.546875 734.636719 Z M 280.136719 734.691406 L 280.371094 745.941406 L 258.242188 747.046875 L 257.320312 735.828125 Z M 245.917969 736.96875 L 247.25 748.144531 L 225.378906 751.484375 L 223.296875 740.425781 Z M 212.082031 742.730469 L 214.550781 753.710938 L 193.253906 759.367188 L 189.890625 748.625 Z M 178.976562 752.304688 L 182.839844 762.875 L 162.867188 771.554688 L 157.695312 761.554688 Z M 147.503906 767.375 L 153.511719 776.890625 C 147.585938 780.644531 141.949219 784.960938 137.113281 790.054688 L 128.917969 782.34375 C 134.40625 776.550781 140.773438 771.632812 147.503906 767.375 Z M 147.503906 767.375 " fill-opacity="1" fill-rule="evenodd"/><g clip-path="url(#ae96040153)"><path fill="#000000" d="M 463.722656 318.011719 L 463.722656 816.1875 C 463.535156 822.195312 462.386719 828.675781 459.636719 834.078125 L 459.644531 834.078125 L 454.957031 842.175781 L 454.964844 842.179688 L 448.738281 849.753906 L 448.738281 849.757812 C 443.609375 854.851562 438.300781 859.535156 432.152344 863.433594 L 432.15625 863.4375 L 421.984375 869.527344 L 421.984375 869.53125 L 416.488281 872.375 L 398.320312 880.136719 L 398.324219 880.144531 L 384.949219 884.613281 L 384.957031 884.628906 L 370.699219 888.492188 L 370.703125 888.503906 L 355.609375 891.753906 L 355.613281 891.773438 L 331.617188 895.390625 L 331.617188 895.394531 L 323.292969 896.257812 L 323.296875 896.265625 C 308.574219 896.925781 294.472656 897.878906 279.824219 897.710938 L 271.09375 897.414062 L 271.09375 897.417969 L 262.484375 896.921875 L 262.484375 896.933594 L 237.515625 894.328125 L 237.515625 894.347656 L 214.035156 890.171875 L 214.03125 890.179688 L 199.351562 886.589844 L 199.347656 886.609375 L 185.511719 882.386719 L 185.507812 882.398438 L 172.632812 877.617188 L 172.632812 877.621094 C 161.769531 872.96875 149.742188 867.285156 140.410156 860.019531 L 140.40625 860.023438 L 132.085938 853.121094 L 125.140625 845.703125 L 125.128906 845.707031 L 119.683594 837.757812 L 115.890625 829.273438 L 115.878906 829.277344 C 114.542969 824.558594 113.722656 821.226562 113.722656 816.183594 L 113.710938 816.183594 L 113.710938 318.007812 C 112.941406 296.042969 130.582031 273.949219 166.65625 257.761719 C 234.292969 227.40625 343.132812 227.40625 410.765625 257.761719 C 446.851562 273.957031 464.492188 296.046875 463.722656 318.011719 Z M 125.042969 318.136719 C 126.941406 345.039062 161.078125 361.636719 182.847656 370.007812 L 182.847656 370.003906 L 195.554688 374.28125 L 195.558594 374.265625 L 209.238281 378.011719 L 223.757812 381.148438 C 254.183594 385.792969 269.199219 387.960938 302.539062 386.773438 C 325.476562 385.957031 353.070312 382.21875 375.011719 376.257812 L 375.011719 376.246094 L 388.195312 372.265625 L 388.191406 372.261719 L 400.40625 367.746094 C 413.441406 362.171875 431.539062 353.085938 442.601562 340.355469 C 463.367188 316.042969 451.238281 288.222656 406.199219 268.011719 C 341.542969 238.992188 235.890625 238.992188 171.238281 268.011719 C 139.527344 282.242188 124.132812 300.246094 125.042969 318.136719 Z M 439.507812 358.535156 L 179.113281 380.589844 L 179.109375 380.597656 L 192.484375 385.074219 L 192.476562 385.082031 L 206.730469 388.953125 L 221.824219 392.207031 L 221.820312 392.222656 L 245.816406 395.839844 L 245.816406 395.84375 L 254.140625 396.707031 L 254.140625 396.714844 C 282.445312 398.003906 286.480469 399.046875 314.949219 397.375 L 314.949219 397.382812 L 339.917969 394.78125 L 339.921875 394.796875 L 363.402344 390.628906 L 378.082031 387.046875 L 378.085938 387.058594 L 391.925781 382.84375 L 391.929688 382.851562 L 404.800781 378.066406 L 404.800781 378.070312 C 415.910156 373.3125 427.742188 367.699219 437.023438 360.46875 L 437.027344 360.472656 Z M 179.113281 380.589844 L 160.949219 372.832031 L 155.449219 369.988281 L 155.453125 369.984375 L 145.28125 363.894531 L 145.285156 363.886719 C 137.535156 358.972656 131.304688 353.21875 125.402344 346.496094 L 124.96875 345.945312 L 124.96875 816.191406 L 124.964844 816.191406 C 126.472656 842.863281 155.269531 857.988281 177.03125 867.296875 L 177.03125 867.300781 L 189.246094 871.8125 L 189.242188 871.824219 L 202.429688 875.800781 L 202.421875 875.816406 L 216.539062 879.242188 L 216.535156 879.25 L 239.1875 883.230469 L 239.183594 883.246094 L 263.363281 885.726562 L 263.363281 885.734375 L 271.710938 886.210938 C 290.839844 886.867188 303.28125 886.589844 322.417969 885.054688 L 322.417969 885.0625 L 330.476562 884.230469 L 330.476562 884.234375 L 353.683594 880.691406 L 353.683594 880.707031 L 368.203125 877.554688 L 368.203125 877.566406 L 381.882812 873.8125 L 381.886719 873.832031 L 394.59375 869.546875 L 394.59375 869.550781 C 415.882812 861.277344 452.628906 843.539062 452.472656 816.1875 L 452.472656 345.941406 L 449.003906 349.945312 L 448.996094 349.9375 L 445.351562 353.578125 L 445.347656 353.574219 L 439.507812 358.535156 Z M 410.652344 875.125 L 403.410156 872.339844 C 404.695312 875.066406 407.894531 876.277344 410.652344 875.125 Z M 410.652344 875.125 " fill-opacity="1" fill-rule="evenodd"/></g><g clip-path="url(#621a9e4984)"><g clip-path="url(#4a6ee31bb7)"><path stroke-linecap="butt" transform="matrix(0.749904, 0, 0, 0.749882, 714.427412, 374.0207)" fill="none" stroke-linejoin="miter" d="M 18.000132 -0.0015583 L 958.125788 -0.0015583 C 962.897232 -0.0015583 967.475944 1.894572 970.851376 5.270102 C 974.226809 8.645631 976.122885 13.224474 976.122885 18.001264 L 976.122885 680.110285 C 976.122885 684.881866 974.226809 689.460709 970.851376 692.836238 C 967.475944 696.211768 962.897232 698.107898 958.125788 698.107898 L 18.000132 698.107898 C 13.223478 698.107898 8.649976 696.211768 5.274543 692.836238 C 1.893902 689.460709 -0.00217436 684.881866 -0.00217436 680.110285 L -0.00217436 18.001264 C -0.00217436 8.056997 8.061359 -0.0015583 18.000132 -0.0015583 " stroke="#000000" stroke-width="34" stroke-opacity="1" stroke-miterlimit="4"/></g></g><g clip-path="url(#2b834abec9)"><g clip-path="url(#60882830f0)"><g clip-path="url(#5e9d629f5a)"><path fill="#1e76e9" d="M 904.222656 239.230469 C 901.382812 231.417969 891.816406 216.105469 884.679688 205.792969 C 876.050781 193.328125 864.367188 178.0625 850.109375 172.167969 C 845.050781 170.070312 838.273438 174.699219 839.605469 180.457031 C 842.96875 194.925781 854.445312 208.625 862.90625 220.882812 C 745.136719 175.601562 599.785156 187.679688 503.875 273.160156 C 498.019531 278.378906 504.105469 287.566406 511.03125 283.289062 C 613.542969 219.867188 743.3125 202.183594 853.613281 252.160156 C 850.011719 254.152344 846.40625 256.160156 842.800781 258.136719 C 828.207031 266.136719 812.597656 272.910156 801.292969 285.402344 C 793.789062 293.691406 801.949219 307.769531 812.695312 306.425781 C 828.574219 304.445312 842.320312 295.722656 856.371094 288.574219 C 870.628906 281.320312 885.101562 274.382812 899.082031 266.609375 C 908.859375 261.183594 907.0625 247.042969 904.222656 239.230469 Z M 904.222656 239.230469 " fill-opacity="1" fill-rule="nonzero"/></g></g></g></svg>