<?xml version="1.0" encoding="UTF-8"?>
<!DOCTYPE svg PUBLIC "-//W3C//DTD SVG 1.1//EN" "http://www.w3.org/Graphics/SVG/1.1/DTD/svg11.dtd">
<svg xmlns="http://www.w3.org/2000/svg" version="1.1" width="512px" height="512px" style="shape-rendering:geometricPrecision; text-rendering:geometricPrecision; image-rendering:optimizeQuality; fill-rule:evenodd; clip-rule:evenodd" xmlns:xlink="http://www.w3.org/1999/xlink">
<g><path style="opacity:0.935" fill="#000000" d="M 300.5,60.5 C 311.588,61.1051 322.255,63.6051 332.5,68C 342.564,71.8654 352.23,76.532 361.5,82C 379.681,92.9214 397.348,104.588 414.5,117C 419.153,120.788 420.653,125.622 419,131.5C 398.355,153.492 374.855,171.659 348.5,186C 338.334,187.157 334.5,182.657 337,172.5C 343.145,166.024 349.645,159.857 356.5,154C 369.011,145.245 381.344,136.245 393.5,127C 365.206,104.343 334.206,86.0097 300.5,72C 296.581,68.1727 296.581,64.3393 300.5,60.5 Z"/></g>
<g><path style="opacity:0.961" fill="#000000" d="M 249.5,92.5 C 276.679,90.4184 302.679,94.9184 327.5,106C 331.41,110.739 331.41,115.406 327.5,120C 325.966,120.923 324.299,121.423 322.5,121.5C 300.214,118.489 277.88,117.989 255.5,120C 219.117,125.937 189.284,143.103 166,171.5C 140.531,206.561 126.531,245.894 124,289.5C 121.183,338.08 129.683,384.58 149.5,429C 152.622,443.205 146.956,450.205 132.5,450C 129.804,449.31 127.637,447.81 126,445.5C 89.1609,374.948 81.4943,301.281 103,224.5C 118.378,172.809 149.544,133.976 196.5,108C 213.518,100.167 231.185,95.0006 249.5,92.5 Z"/></g>
</svg>
