<?xml version="1.0" encoding="UTF-8"?>
<!DOCTYPE svg PUBLIC "-//W3C//DTD SVG 1.1//EN" "http://www.w3.org/Graphics/SVG/1.1/DTD/svg11.dtd">
<svg xmlns="http://www.w3.org/2000/svg" version="1.1" width="512px" height="512px" style="shape-rendering:geometricPrecision; text-rendering:geometricPrecision; image-rendering:optimizeQuality; fill-rule:evenodd; clip-rule:evenodd" xmlns:xlink="http://www.w3.org/1999/xlink">
<g><path style="opacity:0.974" fill="#fefffe" d="M 235.5,-0.5 C 250.833,-0.5 266.167,-0.5 281.5,-0.5C 375.106,11.5181 443.606,59.1848 487,142.5C 500.179,170.561 508.345,199.894 511.5,230.5C 511.5,245.833 511.5,261.167 511.5,276.5C 499.101,373.158 449.101,442.658 361.5,485C 295.826,513.074 229.493,514.741 162.5,490C 152.813,485.822 143.146,481.655 133.5,477.5C 89.8922,488.267 46.5588,499.6 3.5,511.5C 2.16667,511.5 0.833333,511.5 -0.5,511.5C -0.5,510.167 -0.5,508.833 -0.5,507.5C 11.631,465.587 23.2976,423.421 34.5,381C -0.799606,315.174 -7.96627,246.34 13,174.5C 45.3076,85.8603 107.141,29.6937 198.5,6C 210.897,3.37954 223.23,1.21287 235.5,-0.5 Z M 251.5,41.5 C 335.458,42.8741 398.958,79.2075 442,150.5C 477.604,219.342 477.27,288.009 441,356.5C 398.514,424.598 336.847,460.265 256,463.5C 215.287,462.815 177.787,451.648 143.5,430C 142.333,429.833 141.167,429.667 140,429.5C 113.805,436.257 87.6388,442.757 61.5,449C 68.8841,423.966 75.8841,398.799 82.5,373.5C 71.4987,355.159 62.3321,335.826 55,315.5C 32.4258,229.244 53.2592,155.41 117.5,94C 156.079,61.0826 200.745,43.5826 251.5,41.5 Z"/></g>
<g><path style="opacity:0.975" fill="#fefffe" d="M 163.5,134.5 C 171.238,134.144 178.905,134.644 186.5,136C 187.667,137.167 188.833,138.333 190,139.5C 197.942,157.05 205.608,174.717 213,192.5C 214.405,196.072 214.738,199.739 214,203.5C 209.133,213.231 202.8,221.898 195,229.5C 193,232.833 193,236.167 195,239.5C 215.893,275.388 245.726,300.888 284.5,316C 287.303,316.755 289.97,316.422 292.5,315C 301.21,305.292 309.543,295.292 317.5,285C 323.362,283.204 329.029,283.871 334.5,287C 347.2,292.767 359.7,298.933 372,305.5C 372.561,304.978 373.228,304.645 374,304.5C 378.919,305.948 382.919,308.614 386,312.5C 388.818,337.707 378.985,355.874 356.5,367C 337.711,375.374 318.378,376.707 298.5,371C 255.783,359.238 219.283,337.405 189,305.5C 173.193,288.032 158.527,269.699 145,250.5C 137.134,238.102 131.468,224.769 128,210.5C 123.418,182.245 131.585,158.412 152.5,139C 156.053,136.879 159.72,135.379 163.5,134.5 Z"/></g>
</svg>
