<?xml version="1.0" encoding="UTF-8"?>
<!DOCTYPE svg PUBLIC "-//W3C//DTD SVG 1.1//EN" "http://www.w3.org/Graphics/SVG/1.1/DTD/svg11.dtd">
<svg xmlns="http://www.w3.org/2000/svg" version="1.1" width="512px" height="512px" style="shape-rendering:geometricPrecision; text-rendering:geometricPrecision; image-rendering:optimizeQuality; fill-rule:evenodd; clip-rule:evenodd" xmlns:xlink="http://www.w3.org/1999/xlink">
<g><path style="opacity:0.978" fill="#fefffe" d="M 26.5,-0.5 C 30.8333,-0.5 35.1667,-0.5 39.5,-0.5C 44.8484,1.12763 49.8484,3.62763 54.5,7C 121.347,74.0136 188.347,140.847 255.5,207.5C 322.653,140.847 389.653,74.0136 456.5,7C 461.152,3.62763 466.152,1.12763 471.5,-0.5C 475.833,-0.5 480.167,-0.5 484.5,-0.5C 497.941,3.05117 506.941,11.3845 511.5,24.5C 511.5,30.1667 511.5,35.8333 511.5,41.5C 509.822,46.5184 507.322,51.185 504,55.5C 437.167,122.333 370.333,189.167 303.5,256C 370.667,323.167 437.833,390.333 505,457.5C 507.74,461.647 509.907,465.98 511.5,470.5C 511.5,476.167 511.5,481.833 511.5,487.5C 507.229,498.771 499.562,506.771 488.5,511.5C 481.833,511.5 475.167,511.5 468.5,511.5C 463.935,509.546 459.602,507.046 455.5,504C 388.986,437.32 322.32,370.82 255.5,304.5C 188.347,371.153 121.347,437.986 54.5,505C 50.5661,507.464 46.5661,509.631 42.5,511.5C 35.8333,511.5 29.1667,511.5 22.5,511.5C 11.438,506.771 3.77136,498.771 -0.5,487.5C -0.5,481.833 -0.5,476.167 -0.5,470.5C 1.09328,465.98 3.25995,461.647 6,457.5C 73.1667,390.333 140.333,323.167 207.5,256C 140.667,189.167 73.8333,122.333 7,55.5C 3.67822,51.185 1.17822,46.5184 -0.5,41.5C -0.5,35.8333 -0.5,30.1667 -0.5,24.5C 4.05914,11.3845 13.0591,3.05117 26.5,-0.5 Z"/></g>
</svg>
